<?xml version="1.0" encoding="UTF-8"?>
<!DOCTYPE svg PUBLIC "-//W3C//DTD SVG 1.1//EN" "http://www.w3.org/Graphics/SVG/1.1/DTD/svg11.dtd">
<!-- Creator: CorelDRAW X7 -->
<svg xmlns="http://www.w3.org/2000/svg" xml:space="preserve" width="202.085mm" height="209mm" version="1.1" style="shape-rendering:geometricPrecision; text-rendering:geometricPrecision; image-rendering:optimizeQuality; fill-rule:evenodd; clip-rule:evenodd"
viewBox="0 0 20208460 20900000"
 xmlns:xlink="http://www.w3.org/1999/xlink">
 <defs>
 <linearGradient id="id0" gradientUnits="userSpaceOnUse" x1="11830" y1="1.03096e+007" x2="2.01761e+007" y2="1.03096e+007">
  <stop offset="0" style="stop-opacity:1; stop-color:#6FD6FF"/>
  <stop offset="1" style="stop-opacity:1; stop-color:#BFF0CF"/>
 </linearGradient>
 </defs>
 <g id="Слой_x0020_1">
  <metadata id="CorelCorpID_0Corel-Layer"/>
  <path fill="url(#id0)" d="M13253740 18886780c-29600,-200 -150880,29280 -408100,104780 -77040,22600 997590,-442480 408100,-104780zm5471160 -2694870l0 0zm1100630 -3060850c-166280,988800 -477430,2236710 -1094860,3050720 17370,-26110 100240,-203190 67590,-219930 -47760,100710 -97980,200620 -147320,301050 16700,-4310 30660,-12180 48510,-13450 -578170,914330 -1458000,2313990 -2403120,2868500 174000,-181860 396470,-348060 570020,-531440 -430020,411820 -1078110,870690 -1719250,1285710 -385380,249450 -810930,524000 -1150770,618330 153540,-93150 1156870,-723750 1961910,-1302990 354950,-255430 887890,-644570 1187690,-974910l-55050 44550c57300,-51710 254480,-216690 58490,-163780 322900,-249140 808910,-855170 1027310,-1239720 -21770,23230 -91610,126190 -123470,106010 187410,-114830 548340,-749200 684350,-983460l-15080 8350c315190,-424830 586090,-1311150 680550,-1448460 -17610,17100 -48160,41200 -72500,45590 112860,-287010 201660,-554150 251680,-713350 -21570,75460 -169210,574730 -155400,592460 145660,-442720 254240,-912510 398720,-1329780zm-6672300 5812150c37830,-20900 71230,-39650 100510,-56430 25640,160 -17450,22520 -100510,56430zm-6516070 19630l0 0zm553920 -18408680c871200,-439200 1779630,-249380 1979700,-324010 145980,-54490 -662260,-228440 -700210,-227140 2867090,-43800 4393990,395950 5465380,893750 1897830,881800 2882600,1386140 4151060,2801550 -60780,-45980 -412140,14170 -468050,-37670 1753990,1971030 2794320,5894580 2555630,8799570 -27310,332590 -140400,720820 -200040,1020220 -70160,352100 -32370,-1012660 -145890,-704290 -545610,1482100 -1567140,4214240 -2827330,5404340 56830,-89750 114920,-176970 179850,-261090 -587630,608840 -1853510,1647810 -2664960,2092990 240000,-186260 495200,-347910 728030,-528990 -167900,102850 -336190,201890 -509790,294890 110120,-100200 249330,-222830 379600,-294220 -59830,17100 -1043730,572560 -1331650,693530 236680,-127780 476990,-253850 709470,-388870 -881010,453090 -1714300,885010 -2686640,1111270 494360,-201450 1000910,-346120 1485860,-577890 -831950,184880 -1332210,425510 -2255680,545370 13690,-3090 2851030,-709630 1979150,-711570 -104460,-240 -838910,158640 -905900,55600 18480,29080 236710,-126510 257490,-142580 -239680,85360 -526380,114480 -778640,181080 51480,-21250 1168850,-283050 892290,-362070 36880,-15200 77000,-37750 110440,-59360 -101180,64380 121210,-226430 353370,-298330 -532900,100040 -654980,84410 -1167030,60790 840650,-239570 1860080,-182110 2431610,-1016470 444380,-648720 -407430,-274060 -620990,-161760 20930,-27230 246210,-287370 207550,-307670 36960,-41550 671880,-336980 754700,-595820 -165090,125920 -332990,248550 -498600,373830 70280,-103830 136130,-158050 236240,-228920 -353450,145420 -839660,504850 -1242020,695190 163230,-143130 71230,-104910 -44480,-63750 433700,-236920 1124460,-678880 1570110,-863880 -30350,-285270 578730,-246490 570700,-728700 -1070,-64180 -274150,193540 -298450,212340 287680,-508810 183450,-66720 484990,-850700 -19830,21090 -142260,145420 -169960,144040 35140,-72810 80840,-132370 109770,-209450 -611380,598990 200700,-212730 207590,-223060 -62090,-232800 -143800,-49620 -281080,-116380 38510,-77600 640780,-648370 486970,-752800 -174750,-118670 -219980,896240 -259080,186180 -870,-15670 -6330,-18790 -18360,-7870 146340,-312770 132010,21370 311860,-423370 11360,-28100 43100,-75420 60310,-101940 -21840,-97900 -191800,253300 -236830,227690 116770,-248260 483080,-779190 290170,-792720 -3280,-240 -5540,-2180 -7320,-5190 -70160,106290 -91840,262240 -101380,386770 -80840,-65530 -86110,-284240 -185310,-167940 -3130,-12700 -4590,-27700 -4550,-44480 200,-92470 146050,-292150 208180,-464680 129680,-360090 231930,-763560 248550,-959000 -328760,1029710 -1035700,2173950 -1865980,2865370 -40720,33920 50770,-13840 124370,-88750 -6730,12620 -705200,683150 -401840,499500 35490,-21480 229590,-207270 240940,-168140 -229150,285950 -456410,358360 -709310,598560 80490,-19040 358910,-202730 432790,-253690 -196510,184320 -399710,407850 -618060,565270 78110,-32530 167980,-62410 242170,-100470 -23340,25600 -52030,52350 -77870,75700 120,120 550,830 910,750 1620,1070 8430,-1780 9060,750 -374980,373470 -1685460,813460 -806500,520480 31810,-10610 31740,4750 18240,29760 94020,-106050 503820,-274550 595430,-242500 -534650,335290 -1346330,623960 -1963920,807930 368290,-83660 629060,-23630 993200,-122870 -1700,-141860 221760,-113180 160660,-12510 164020,-129870 339480,-227960 535200,-301090 -56040,62010 -104670,75180 -172530,114240 613430,-100710 1504570,-758700 2018480,-1134110 -321190,323220 -601790,545490 -989160,779360 12190,-5470 153140,-71910 121250,-5580 81160,-42390 139760,-132010 213880,-185360 -11200,98850 -564050,494920 -651420,476840 53580,-60390 113020,-102140 163270,-169450 -69720,37830 -499270,263900 -167460,61220 -740660,375840 -1222480,485540 -1946160,760360 436630,-65410 479210,-70840 885130,-215630 -27140,22280 -60940,47650 -90180,67160 601800,0 2221570,-1057140 2575730,-1338140 -641130,722690 -1718930,1151280 -2566870,1560760 -21360,-16300 75110,-84440 86740,-94180 -397920,132650 -679710,211750 -1088520,285510 35610,30030 13930,71270 122120,1110 83330,17960 -682840,258790 -806390,488740 -4940,9180 -16060,18990 -24770,25600 632830,-167660 1477080,-326980 2126920,-444140 9930,17920 -754820,300540 -809710,321750 24890,-21450 50610,-38780 77800,-56910 -403510,151090 -768670,174550 -1187770,231690l10560 -5260 -39530 3880c631800,-137350 -1584860,127020 -2049550,112260 -237350,-7520 -474180,-21050 -710180,-48910 169880,-72570 -884970,-183850 -1127190,-290770 114680,60030 102930,183690 488070,256070 -64780,-61180 562150,37270 448260,54530 54260,8420 528950,52980 515700,120170 -8870,-9610 -740100,-113010 -787630,-113010 70400,11670 412450,28170 241150,103910 129240,17650 140360,-30820 278500,-11080 -4670,224730 665830,203120 390210,139810 395200,77910 787030,120210 1189350,138060 16900,-84480 567380,-71350 646280,-76060 -130740,38030 -325430,68380 -460960,82750 933600,19310 1853470,-114840 2752770,-363740 -180760,156540 -331770,79780 -528040,229120 49260,50650 819720,-206210 1108110,-323930 -12740,7040 -26000,14320 -39770,21840 -473350,258840 -887500,315580 -1395440,453720 116700,-56540 228960,-114560 334890,-190100 -145740,43250 -935340,405760 -858410,323540 -218830,38890 -423890,23980 -630290,62280 1347200,-369710 -256070,6730 -1192360,-18640l-178190 -3720c76490,-12740 158560,-27850 233590,-47010 -452340,-29750 -993120,237230 -646680,-32250 98930,-76920 -644100,177790 -213840,-56190 -300780,-34580 -601840,-72690 -901830,-113410 34670,-470 89120,-2290 123230,-8630 -151160,-32920 -1138940,-371690 -1150770,-372200 -90860,11670 -563180,-62170 -299520,20930 -7320,-4390 -11000,-6800 -19580,-9850 15740,2530 457320,108540 291670,106170 12790,58440 57460,71070 114210,87330 -43930,-3560 -292000,-3200 -240600,-95210 -28330,-4710 -281390,-60460 -207070,-68410 -336790,-99600 -650790,-172570 9610,-121290 -196860,-96160 -439590,-145420 -652840,-195760 602630,197740 -225800,-25160 234850,158370 -123140,-19430 -229910,-78670 -356100,-99290 -22510,62130 520050,276840 574540,352460 -422270,-174630 -2715060,-1409600 -2216660,-1200110 65370,27460 134220,72460 191050,115670 -160940,-190340 -642280,-591310 -1329950,-1303670 129710,202920 330060,685290 516440,834590 -119540,-72100 -362310,-273590 -486650,-337780 84570,70800 166080,219620 292710,463300 -1752050,-1565070 -2662740,-3736060 -2993000,-6036910 -176100,-1226790 252930,-3861340 733530,-5041750 -351590,721140 -708290,1852560 -794000,2649720 104390,-2143720 832540,-4147280 1851500,-5088280 -131260,259900 -281670,611290 -330900,927900 661910,-865970 1252080,-2304620 2257030,-2809940 -1336640,1504690 1525900,-1136600 3827840,-1658110 352060,-79730 -271260,-101300 -414390,-58360z"/>
 </g>
</svg>
