<svg width="2217" height="1096" viewBox="0 0 2217 1096" fill="none" xmlns="http://www.w3.org/2000/svg">
<path xmlns="http://www.w3.org/2000/svg" fill="black" d="M1622.47,214.26c-121.24,0-226.08,67.01-276.1,164.33c-5,9.73-9.45,19.77-13.32,30.07      c-6.8,10.3-1.16,20.87-9.8,31.67c22.88,10.8-0.31,21.83-6.05,33.05c-1.16,11.22-11.27,22.64-2.07,34.21      c9.58,11.57,30.66,22.99,2.07,34.21c20.02,11.22-1.72,22.25,6.05,33.05c38.28,10.8,1.4,21.37,9.8,31.67      c-16.32,5.15-95.24,10.24-15.2,15.25c4.2,5.01,15.69,9.96,28.52,14.82c-11.54,9.73,18.57,19.16,16.61,28.25      c3.81,4.54,0.19,9-0.11,13.37c-4.71,2.19-4.91,4.35-6.61,6.49c8.46,2.14,8.25,4.26,26.39,6.35c12.72,8.37,24.7,16.37,22.5,23.95      c-7.7,3.32-12.34,6.56-10.99,9.71c16.83,0.39,22.01,0.79,9.6,1.18c-9.14,0.2-20.7,0.39-27.75,0.59c4.64,0.2,5.25,0.39-0.7,0.59      c21.88,0.78,5.78,1.55,9.34,2.32c15.69,1.54,22.43,3.05,34.46,4.55c25.24,1.49,31.13,2.97,29.7,4.42      c14.74,1.45,5.63,2.88-5.24,4.29c25.61,1.41,26.14,2.79,23.32,4.16c-4.61,0.34,18.15,0.68-29.75,1.02      c-1.17,0.17-46.51,0.34-18.21,0.51c5.59,0.08-26.25,0.17-9.75,0.25c2.51,0.02-7.67,0.04-13.13,0.06      c-8.55,0.02-9.28,0.04,15.23,0.06c18.13,0.04,22.57,0.08,27.62,0.13c-5.58,0.17-10.78,0.33-27.59,0.5      c-48.94,0.17,20.28,0.33-2.06,0.5c7.57,0.08-12.08,0.17-5.01,0.25c19.03,0.08-2.36,0.17,24.05,0.25      c25.17,0.17-28.39,0.33,22.34,0.5c34.14,0.66,28.18,1.31,28.57,1.96c22.68,0.65,13.67,1.29,8.84,1.93      c4.9,0.32-16.36,0.63-27.93,0.95c-6.05,0.32-16.63,0.63,8.47,0.94c7.37,0.31,28.24,0.62,24.72,0.93      c12.59,0.31-15.59,0.62-12.93,0.92c-55.55,0.61,9.44,1.22-2.17,1.82c-20.13,0.6,31.53,1.2,17.89,1.78      c22.65,0.59,14.6,1.17,10.91,1.75c2.38,0.29-8.2,0.58-23.83,0.86c3.63,0.29-15.17,0.57-7.84,0.85      c-2.92,0.56-14.65,1.12-20.15,1.68c-26.26,0.28-30.51,0.55-14.59,0.82c-14.81,0.14-29.57,0.27,5.72,0.41      c12.46,0.07,28.7,0.14,26.17,0.2c-13.57,0.07,10.95,0.14,0.83,0.2c-5.31,0.13-28.58,0.27-14.85,0.4      c-11.39,0.13,16.14,0.27,24.37,0.4c-3.98,0.27,14.7,0.53,15.51,0.8c26.08,0.53-30.45,1.05-17.92,1.56      c42.89,1.03-5.18,2.03,23.26,3.01c25.18,0.49-42.03,0.97-23.64,1.45c-10.12,0.48-9.89,0.95,22.79,1.41      c-30.71,0.46,10.39,0.92-26.79,1.37c4.35,0.11,1.53,0.22,23.72,0.34c11.45,0.11,22.45,0.22,2.19,0.33      c4.18,0.22-21.06,0.44-12.31,0.66c27.05,0.88,25.52,1.72,20.77,2.55c18.15,0.41-16.72,0.82-19.43,1.21      c-14.52,0.4,18.33,0.79,22.42,1.17c25.99,0.77,29.19,1.51,17.87,2.22c16.82,2.86,19.26,5.27,29.26,7.23      c20.01,3.91,40.72,5.96,61.94,5.96c43.65,0,85.17-8.68,122.77-24.34c9.4-3.91,8.02-8.26,27.44-13.02      c-11.48-4.76-2.13-9.93,25.8-15.48c-26.27-5.55-8.06-11.48,24-17.77c72.32-6.29-30.58-12.93,22.02-19.9      c19.32-3.49,20.09-7.05,25.23-10.7c-14.25-3.65-4.28-7.37-5.35-11.18c6.25-7.6,4.78-15.51,17.57-23.69      c-1.73-9.09-5.31-18.52,16.61-28.25c-9.97-9.73-5.82-19.77,9.28-30.07c7.2-0.64,2.98-1.29,24.3-1.93      c0.54-0.65,2.92-1.29,21.84-1.94c19.98-1.3,8.81-2.6,9.86-3.9c28.26-1.3,13.6-2.61-10.45-3.92      c-25.75-1.31-22.17-2.63-31.47-3.95c16.17-1.32,18.57-2.64,32.37-3.97c-0.2-1.33-7.72-2.66-4.82-3.99      c-3.6-2.67-16.42-5.36-27.8-8.06c-6.13-5.4-13.65-10.86,12.18-16.37c-6.54-5.51,79.56-11.07-1.7-16.68      c10.95-5.61-32.7-11.27-8.92-16.97c12.49-5.7-10.39-11.45,6.56-17.24c-74.59-5.79-9.84-11.53-6.03-17.24      c-16.27-5.7,18.04-11.36,9.24-16.97c-11.94-5.61,11.17-11.17,1.01-16.68c3.56-1.38,17.3-2.75,24.88-4.12      c-3.53-0.69,7.29-1.37,35.19-2.05c24.27-0.17,85.7-0.34,20.59-0.51c145.04-0.17-47.91-0.34-20.16-0.51      c78.06-0.09-28.47-0.17,13.91-0.26c-23.32-0.09-43.2-0.17-31.88-0.26c-9.45-0.17-23.6-0.34-29.69-0.51      c-14.08-2.73-11.54-5.44-25.18-8.14c-3.56-2.7-20.13-5.39-27.37-8.06c-7.24-2.67-5.16-5.33,28.57-7.97      c-17.95-2.64-9.56-5.26-1.52-7.87c-7.03-2.61,15.62-5.2-3.61-7.78c-3.2-2.58,18.67-5.13-1.02-7.68      c-11.55-2.54-23.66-5.07-4.38-7.57c-5.38-2.51-15.25-5-22.68-7.47s-9.6-4.92,8.89-7.36c-9.2-9.73-10.55-19.16-16.61-28.25      C1827.42,268.54,1731.58,214.26,1622.47,214.26z M1622.47,719.63c-25.58,0-50.15-4.12-73.01-11.7      c-7.62-2.53-15.06-5.44-22.28-8.71c12.08-3.27,24.95-6.91-20.73-10.87c19.14-1.98-6.65-4.05-4.99-6.2      c-5.3-2.15-11.38-4.38-14.82-6.69c-48.9-5.54-35.76-11.53-21.35-17.92c12.36-1.07-81.79-2.14-0.37-3.23      c-20.62-1.09,3.62-2.19,28.39-3.3c-5.71-1.11,18.12-2.23-9.71-3.36c-22.86-0.57-25.62-1.13,17.44-1.71      c22.29-0.57-4.27-1.15,22.4-1.72c41.62-0.29,1.97-0.58-19.62-0.87c4.39-0.14-46.53-0.29-23.46-0.43      c-39.87-0.15,51.86-0.29,4.86-0.44c18.1-0.58,18.18-1.17,15.08-1.75c8.87-0.15-26.03-0.29-35.2-0.44      c-46.26-0.15-0.41-0.29,0.39-0.44c-6.79-0.29,22.73-0.59,4.67-0.89c30.17-0.59-5.39-1.19-23.54-1.78      c20.69-1.79,31.42-3.61,18.88-5.44c-93.25-1.84-21.41-3.7-15.54-5.58c5.35-1.88,0.59-3.78-25.65-5.7      c14.59-1.92,31.41-3.87,6.24-5.83c38.47-1.96,3.81-3.95,14.53-5.95c-52.67-0.5-66.6-1-30.5-1.51c36.52-0.5,28.14-1.01-4.47-1.51      c-18.33-0.51-6.02-1.01-18.91-1.52c-38.92-0.51-5.95-1.02,20.57-1.53c-11.82-4.08-13.95-8.24,5.85-12.47      c32.89-2.11,19.32-4.25-10.84-6.39c-19.41-2.15,66.29-4.31,30.19-6.49c40.82-0.09,1.19-0.18,6.26-0.27      c-3.99-0.09-10.74-0.18,27.53-0.27c11.32-0.18-32.78-0.36,26.13-0.55c5.69-0.01,11.57-0.02,18.12-0.03      c-6.62-0.01,38.87-0.02,22.13-0.03c1.19-0.01,11.7-0.02,17.61-0.03c15.99-0.01,6.35-0.02-25.15-0.03      c-17.02-0.02-16.63-0.05-15.4-0.07c-6.41-0.02-0.58-0.05,31.16-0.07c48.5-0.05,5.32-0.09,12.71-0.14      c3.77-0.02,36.31-0.05,8.43-0.07c-38.89-0.02-17.48-0.05-36.22-0.07c4.11-0.02,12.09-0.05,1.21-0.07      c-20.15-0.02-23.97-0.05-28.55-0.07c-9.16-0.05-12.08-0.09,10.08-0.14c-4.66-0.09-23.81-0.18-0.58-0.27      c-0.34-0.37,13.89-0.73,17.5-1.1c26.77-0.09-23.9-0.18,15.8-0.27c-13.36-0.09,3.33-0.18-30.04-0.27      c-10.07-0.18-23.13-0.37-32.15-0.55c23.24-0.18-14.81-0.37-3.93-0.55c1.28-0.18,6.45-0.37-20.27-0.55      c18.02-0.18-57.76-0.37-20.95-0.55c-28.9-0.18-8.08-0.37,5.91-0.55c-66.28-1.11-12.93-2.22-3.2-3.33      c-11.23-0.56,34.09-1.12,24.2-1.67c42.9-0.28-31.45-0.56,2.59-0.84c18.77-0.07,23.78-0.14,31.23-0.21      c-5.17-0.03-13.19-0.07-10.41-0.11c-4.17-0.02-9.52-0.04-16.5-0.05c-6.22-0.02-13.63-0.04-22.35-0.05      c3.89-0.07,6.59-0.14-15.53-0.21c28.59-0.07-24.49-0.14-26.16-0.21c23.27-8.97-30.17-18.19-3.93-27.59      c-12.72-2.35-68.33-4.72-30.35-7.09c8.72-2.38,40.49-4.76,9.5-7.16c15.57-4.8,29.51-9.64,16.84-14.52      c51.15-2.44-5.97-4.87-11.61-7.29c13.21-2.42-24.03-4.83,29.83-7.23c1.59-2.4-62.92-4.79-25.21-7.16      c18.72-2.38-6.81-4.74,10.05-7.09c-55.17-4.7,4.86-9.36-11.13-13.96c10.59-4.6-9.57-9.15,16-13.63      c17.36-4.49,16.15-8.91,10.71-13.28c-2.44-4.36-6.1-8.66,3.33-12.89c-13.07-8.46,4.71-16.63,8.37-24.48      c4.82-7.85,0.38-15.38,15.97-22.55c45.81-6.27-1.54-12.26,16.3-17.95c32.64-5.68,20.95-11.06,18.28-16.1      c-2.4-5.04-13.73-9.75,16.89-14.09c18.31-4.34-18.83-8.32,24.91-11.91c-2.48-1.79,18.19-3.49,28.7-5.08      c18.59-1.59-7.76-3.09-0.92-4.47c-4.47-2.77-4.49-5.13,19.82-7.03c-14.93-1.91,18.89-3.36,24.19-4.35      c-1.45-0.49,3.52-0.86,3.5-1.11c0.58-0.25,23.16-0.38,24.3-0.38c10.23,0,20.3,0.66,30.16,1.94      c49.32,6.38,93.5,28.19,127.02,60.17c6.7,6.39,27.15,13.2,18.79,20.36c17.45,7.17,25.28,14.7,15.97,22.55      c14.91,3.93,19.65,7.93,23.98,12.02c2.15,2.04-11.11,4.1,11.76,6.18c33.63,1.04-22.53,2.08,2.76,3.13      c12.85,1.05-28.69,2.1-25.62,3.16c-10.54,4.23-6.4,8.53-3.6,12.89c-14.84,4.36-14.5,8.79,13.12,13.28      c6.35,4.49-31.12,9.03,20.54,13.63c-12.71,4.6-13.73,9.26-14.63,13.96c31.66,4.7-21.2,9.46,26.48,14.25      c23.88,4.8,69.22,9.64-24.45,14.52c-39.28,4.88-14.72,9.72-12.11,14.52c-28.25,4.8,90.13,9.55,10.08,14.25      c17.17,4.7,51.51,9.36,15.04,13.96c-42.95,4.6-8.71,9.15-20.95,13.63c-24.91,8.97,9.25,17.71-9.53,26.17      c-2.67,4.23-8.91,8.39-21.24,12.47s-19.73,8.09,8.36,12.02c-4.82,7.85-10.16,15.38-15.97,22.55      C1757.79,687.32,1694.08,719.63,1622.47,719.63z"/>
<linearGradient id="paint0_linear" x1="185.882" y1="0.563339" x2="185.882" y2="442.28" gradientUnits="userSpaceOnUse">
<stop stop-color="#FBC2EB"/>
<stop offset="1" stop-color="#A6C1EE"/>
</linearGradient>
</svg>
