<svg width="369" height="401" viewBox="0 0 369 401" fill="none" xmlns="http://www.w3.org/2000/svg">
<path d="M285.3 93.8C318.6 123.8 359.4 133.7 367 156.8C374.7 180 349.2 216.4 336.5 249.5C323.8 282.7 323.9 312.5 311.3 336.9C298.7 361.3 273.4 380.2 244.6 390.3C215.7 400.4 183.2 401.6 146.7 399C110.2 396.3 69.7 389.6 42.9 366.7C16.2 343.7 3.2 304.4 0.700003 265.7C-1.7 226.9 6.30001 188.6 21.1 152.1C35.9 115.7 57.4 81.1 88.3 50.1C119.3 19 159.6 -8.5 192.8 2.7C226 14 251.9 63.9 285.3 93.8Z" fill="url(#paint0_linear)"/>
<defs>
<linearGradient id="paint0_linear" x1="184.35" y1="0.150543" x2="184.35" y2="400.179" gradientUnits="userSpaceOnUse">
<stop stop-color="#A18CD1"/>
<stop offset="1" stop-color="#FBC2EB"/>
</linearGradient>
</defs>
</svg>
