<svg width="443" height="387" viewBox="0 0 443 387" fill="none" xmlns="http://www.w3.org/2000/svg">
<path d="M363.5 6.5C402.2 18.5 436.1 50.8 441.6 88.5C447.1 126.2 424.2 169.3 410.4 208.5C396.5 247.7 391.7 282.8 375 314.7C358.3 346.6 329.7 375.3 296.1 383.7C262.5 392.1 223.9 380.3 190.6 364.2C157.3 348.1 129.2 327.8 96.3 303.9C63.3 280 25.5 252.5 9.60001 215.1C-6.29999 177.7 -0.0999966 130.4 23.5 96.2C47.1 62 88.2 41 126.9 29C165.6 16.9 201.8 14 241.6 8.4C281.4 2.8 324.9 -5.5 363.5 6.5Z" fill="url(#paint0_linear)"/>
<defs>
<linearGradient id="paint0_linear" x1="221.612" y1="0.351166" x2="221.612" y2="386.484" gradientUnits="userSpaceOnUse">
<stop stop-color="#FAD0C4"/>
<stop offset="1" stop-color="#FFD1FF"/>
</linearGradient>
</defs>
</svg>
