<svg width="464" height="412" viewBox="0 0 464 412" fill="none" xmlns="http://www.w3.org/2000/svg">
<path d="M350.6 24.5C382.9 36.3 405.3 72.4 426.7 111.3C448 150.2 468.2 191.9 462.7 229.9C457.2 267.9 426.1 302.2 394.3 332.2C362.5 362.3 330.1 388.1 292.5 401.4C254.9 414.8 212.2 415.8 184 394.9C155.7 374 142 331.4 106.7 301.4C71.4 271.4 14.6 254 3.19999 225.5C-8.30001 196.9 25.5 157.1 46.9 112.2C68.4 67.3 77.4 17.3 106.5 4.10001C135.6 -9.09999 184.8 14.4 230.5 19.9C276.2 25.4 318.3 12.8 350.6 24.5Z" fill="url(#paint0_linear)"/>
<defs>
<linearGradient id="paint0_linear" x1="232.245" y1="0.131668" x2="232.245" y2="411.096" gradientUnits="userSpaceOnUse">
<stop stop-color="#F6D365"/>
<stop offset="1" stop-color="#FFB4BC"/>
</linearGradient>
</defs>
</svg>
