<svg width="442" height="305" viewBox="0 0 442 305" fill="none" xmlns="http://www.w3.org/2000/svg">
<path d="M256.9 67.7C287.1 94.2 329.1 95.3 366.7 116.3C404.4 137.4 437.7 178.4 441.3 221.4C444.9 264.4 418.7 309.5 372.3 304.2C325.9 298.9 259.2 243.3 225.1 215.3C190.9 187.3 189.3 187 170.9 201.2C152.5 215.3 117.2 244 78.5 248.3C39.8 252.7 -2.4 232.7 0.699996 210.3C3.9 187.9 52.4 163.1 91.4 157.3C130.4 151.6 159.9 164.9 174.8 131.3C189.6 97.8 189.8 17.4 199.1 3.19999C208.4 -10.9 226.8 41.1 256.9 67.7Z" fill="url(#paint0_linear)"/>
<defs>
<linearGradient id="paint0_linear" x1="221.084" y1="0.818695" x2="221.084" y2="304.626" gradientUnits="userSpaceOnUse">
<stop stop-color="#30CFD0"/>
<stop offset="1" stop-color="#330867"/>
</linearGradient>
</defs>
</svg>
