<svg width="250" height="335" viewBox="0 0 250 335" fill="none" xmlns="http://www.w3.org/2000/svg">
<path d="M173.3 50.5C176.7 78.5 152.3 123.7 169.8 152.5C187.3 181.4 246.6 193.9 249 200.4C251.3 206.8 196.7 207.1 172.8 233.4C148.9 259.7 155.8 311.9 143.9 328.3C131.9 344.6 101.2 325.1 92 294.2C82.8 263.3 95 221 76 203.3C57 185.7 6.8 192.7 0.8 189.9C-5.1 187 33.3 174.2 38.6 139.6C43.9 104.9 16.2 48.5 22.3 21.8C28.3 -4.89999 68.2 -2 103.6 4.9C139 11.8 170 22.5 173.3 50.5Z" fill="url(#paint0_linear)"/>
<defs>
<linearGradient id="paint0_linear" x1="124.628" y1="0.170074" x2="124.628" y2="334.194" gradientUnits="userSpaceOnUse">
<stop stop-color="#96FBC4"/>
<stop offset="1" stop-color="#F9F586"/>
</linearGradient>
</defs>
</svg>
