<svg width="294" height="232" viewBox="0 0 294 232" fill="none" xmlns="http://www.w3.org/2000/svg">
<path d="M274.076 41.7629L274.083 41.7739L274.089 41.7848C285.786 61.5919 286.896 95.2921 277.38 129.441C267.922 163.377 248.885 194.362 224.403 209.257C200.288 223.928 168.753 224.206 136.588 214.732C104.549 205.296 73.4899 186.6 51.8108 165.872L51.8104 165.872C8.54169 124.505 3.95122 76.5264 16.2197 52.321C22.0029 40.9109 32.0911 33.4682 48.8673 27.9642C66.0092 22.3403 88.6817 19.2043 118.107 15.6269L118.109 15.6267C147.39 12.0608 180.984 8.34548 210.51 11.0581C240.322 13.7969 262.943 22.7998 274.076 41.7629Z" stroke="url(#paint0_linear)" stroke-width="20"/>
<defs>
<linearGradient id="paint0_linear" x1="147.033" y1="0.126648" x2="147.033" y2="231.177" gradientUnits="userSpaceOnUse">
<stop stop-color="#FF9A9E"/>
<stop offset="1" stop-color="#FAD0C4"/>
</linearGradient>
</defs>
</svg>
