<svg width="369" height="401" viewBox="0 0 369 401" fill="none" xmlns="http://www.w3.org/2000/svg">
<path d="M359.6 159.003L359.597 158.993C358.284 155.002 355.395 151.13 350.548 146.971C345.67 142.786 339.312 138.728 331.673 134.182C329.558 132.923 327.354 131.634 325.081 130.304C311.278 122.226 294.9 112.642 280.01 99.2294C266.82 87.4203 254.666 72.4914 243.244 58.462C239.748 54.1678 236.32 49.9579 232.952 45.9474C218.03 28.1768 204.472 14.544 190.115 9.65309C176.265 4.98431 160.132 8.13106 142.892 17.0485C125.739 25.9211 108.537 39.9906 93.333 55.2442C63.2027 85.4719 42.2314 119.206 27.7715 154.768C13.3009 190.455 5.59133 227.624 7.90616 265.076C10.3449 302.798 22.9828 339.726 47.5056 360.858C72.2745 382.014 110.482 388.669 146.959 391.369C183.095 393.943 214.384 392.667 241.846 383.07L359.6 159.003ZM359.6 159.003L359.603 159.012M359.6 159.003L359.603 159.012M359.603 159.012C360.956 163.089 361.006 168.25 359.649 174.729C358.296 181.19 355.664 188.41 352.241 196.302C349.434 202.774 346.212 209.438 342.879 216.333C342.146 217.848 341.409 219.374 340.669 220.912C336.608 229.351 332.514 238.075 329.219 246.663L329.216 246.67M359.603 159.012L329.216 246.67M329.216 246.67C323.084 262.7 319.833 277.961 316.91 291.684M329.216 246.67L316.91 291.684M316.91 291.684C316.689 292.725 316.469 293.756 316.25 294.779M316.91 291.684L316.25 294.779M316.25 294.779C313.094 309.515 310.135 322.12 304.357 333.308M316.25 294.779L304.357 333.308M304.357 333.308C292.867 355.56 269.372 373.415 241.847 383.069L304.357 333.308Z" stroke="url(#paint0_linear)" stroke-width="15"/>
<defs>
<linearGradient id="paint0_linear" x1="184.35" y1="0.150543" x2="184.35" y2="400.179" gradientUnits="userSpaceOnUse">
<stop stop-color="#A18CD1"/>
<stop offset="1" stop-color="#FBC2EB"/>
</linearGradient>
</defs>
</svg>

