<svg width="443" height="387" viewBox="0 0 443 387" fill="none" xmlns="http://www.w3.org/2000/svg">
<path d="M361.737 11.1241L361.74 11.1252C399.137 22.7211 431.224 53.7772 436.373 89.0713C438.952 106.744 434.905 126.038 428.213 146.213C424.88 156.26 420.943 166.385 416.94 176.529C416.516 177.603 416.092 178.678 415.667 179.753C412.098 188.785 408.523 197.831 405.406 206.686C400.006 221.915 395.948 236.588 392.099 250.506C390.945 254.68 389.809 258.786 388.662 262.819C383.656 280.413 378.393 296.755 370.291 312.231C353.994 343.361 326.361 370.761 294.608 378.699C262.79 386.653 225.561 375.534 192.497 359.548C159.661 343.672 131.909 323.64 98.9597 299.704L98.9539 299.7C65.6563 275.584 29.1762 248.873 13.9225 212.993C-1.25076 177.303 4.62422 131.803 27.3364 98.8893C49.9995 66.047 89.8239 45.4944 128.102 33.6252L128.113 33.6217C158.575 24.0974 187.366 20.3691 218.15 16.3826C225.958 15.3715 233.894 14.3438 242.018 13.2007C245.972 12.6443 249.944 12.0657 253.927 11.4854C290.565 6.14769 328.127 0.675416 361.737 11.1241Z" stroke="url(#paint0_linear)" stroke-width="10"/>
<defs>
<linearGradient id="paint0_linear" x1="221.612" y1="0.351166" x2="221.612" y2="386.484" gradientUnits="userSpaceOnUse">
<stop stop-color="#FAD0C4"/>
<stop offset="1" stop-color="#FFD1FF"/>
</linearGradient>
</defs>
</svg>
