<svg width="444" height="444" viewBox="0 0 444 444" fill="none" xmlns="http://www.w3.org/2000/svg">
<path d="M324.665 30.6413L324.672 30.645L324.678 30.6487C361.408 51.802 391.703 86.1276 413.085 126.743C423.796 147.091 432.093 168.635 435.459 188.998C438.828 209.376 437.172 227.975 428.765 243.107L428.761 243.114C420.268 258.437 404.308 271.268 385.05 283.933C378.487 288.249 371.455 292.591 364.328 296.992C351.276 305.051 337.9 313.309 326.486 321.976L326.475 321.985C308.413 335.75 294.471 351.008 281.486 365.277L281.111 365.69C268.149 379.934 256.225 393.039 241.659 403.821C212.232 425.531 171.487 438.161 128.574 435.563C107.073 434.262 85.2993 429.128 67.4502 420.204C49.5693 411.263 36.2473 398.857 30.3322 383.286C24.2634 367.26 25.3785 346.754 27.9776 322.718C28.3397 319.37 28.7294 315.961 29.1248 312.502C31.4869 291.84 34.049 269.427 32.09 247.968L32.0899 247.966C30.125 226.486 23.6303 205.919 18.0264 188.172C17.0979 185.232 16.1939 182.369 15.339 179.593C12.27 169.624 9.85233 160.87 8.82357 153.183C7.79472 145.495 8.26905 139.63 10.277 135.09C12.3054 130.536 16.3207 126.281 22.6286 122.084C28.9399 117.885 36.9947 114.104 46.3648 110.264C51.4174 108.194 56.8739 106.106 62.5509 103.934C77.3602 98.2669 93.6703 92.0257 108.228 84.0254C108.229 84.0248 108.23 84.0243 108.231 84.0238C126.219 74.1575 141.926 61.4264 156.554 49.5698C158.453 48.0305 160.334 46.5059 162.199 45.0042C178.717 31.7072 193.998 20.2168 211 13.9923L211.011 13.9881L211.023 13.9838C244.76 1.50555 287.682 9.24546 324.665 30.6413Z" stroke="url(#paint0_linear)" stroke-width="15"/>
<defs>
<linearGradient id="paint0_linear" x1="221.973" y1="0.645142" x2="221.973" y2="443.55" gradientUnits="userSpaceOnUse">
<stop stop-color="#FF9A9E"/>
<stop offset="1" stop-color="#FECFEF"/>
</linearGradient>
</defs>
</svg>

