<svg width="372" height="443" viewBox="0 0 372 443" fill="none" xmlns="http://www.w3.org/2000/svg">
<path d="M299.627 155.384L299.632 155.392L299.637 155.4C308.984 169.777 321.571 183.6 332.638 195.756C336.159 199.622 339.527 203.321 342.587 206.814C349.191 214.353 354.363 220.889 357.587 226.642C360.869 232.498 361.278 236.039 360.779 238.195L360.774 238.215L360.77 238.235C360.242 240.557 358.082 243.951 352.264 248.513C346.622 252.938 338.928 257.405 329.708 262.349C326.701 263.961 323.535 265.62 320.266 267.332C304.198 275.748 285.63 285.473 271.045 297.546L271.032 297.557L271.019 297.567C253.142 312.465 241.347 330.68 230.824 348.009C229.556 350.097 228.308 352.168 227.073 354.218C217.845 369.537 209.282 383.751 197.646 396.088C184.539 409.986 167.503 421.404 150.516 427.454C133.388 433.555 117.693 433.768 105.98 427.601L105.968 427.595C93.8837 421.253 83.6257 407.065 74.9095 387.77C66.3353 368.79 60.0353 346.679 54.7935 326.711C50.7411 311.273 47.3455 297.316 44.1425 284.151C39.2037 263.851 34.7229 245.434 28.9986 226.373L28.9944 226.359L28.9902 226.345C27.5641 221.647 26.0923 216.996 24.6275 212.368C21.0499 201.063 17.5137 189.889 14.7852 178.464C10.986 162.556 9.0655 147.269 11.0297 132.699C15.0671 103.396 35.0794 74.1729 63.8352 50.7041C92.5221 27.3921 128.042 11.1885 163.431 10.4473L163.444 10.447L163.457 10.4467C199.175 9.60521 234.493 24.373 252.936 49.6339C262.22 62.4198 267.659 78.3389 273.996 97.1214L274.077 97.3625C280.236 115.618 287.152 136.114 299.627 155.384Z" stroke="url(#paint0_linear)" stroke-width="20"/>
<defs>
<linearGradient id="paint0_linear" x1="185.882" y1="0.563339" x2="185.882" y2="442.28" gradientUnits="userSpaceOnUse">
<stop stop-color="#FBC2EB"/>
<stop offset="1" stop-color="#A6C1EE"/>
</linearGradient>
</defs>
</svg>
