<svg width="788" height="587" viewBox="0 0 788 587" fill="none" xmlns="http://www.w3.org/2000/svg">
<path d="M340.47 0.26001C219.23 0.26001 114.39 67.27 64.37 164.59C59.37 174.32 54.92 184.36 51.05 194.66C44.25 204.96 49.89 215.53 41.25 226.33C64.13 237.13 40.9399 248.16 35.1999 259.38C34.0399 270.6 23.93 282.02 33.13 293.59C42.71 305.16 63.7899 316.58 35.1999 327.8C55.2199 339.02 33.48 350.05 41.25 360.85C79.53 371.65 42.65 382.22 51.05 392.52C34.73 397.67 -44.19 402.76 35.85 407.77C40.05 412.78 51.54 417.73 64.37 422.59C52.83 432.32 82.94 441.75 80.98 450.84C84.79 455.38 81.17 459.84 80.87 464.21C76.16 466.4 75.96 468.56 74.26 470.7C82.72 472.84 82.51 474.96 100.65 477.05C113.37 485.42 125.35 493.42 123.15 501C115.45 504.32 110.81 507.56 112.16 510.71C128.99 511.1 134.17 511.5 121.76 511.89C112.62 512.09 101.06 512.28 94.01 512.48C98.65 512.68 99.26 512.87 93.31 513.07C115.19 513.85 99.09 514.62 102.65 515.39C118.34 516.93 125.08 518.44 137.11 519.94C162.35 521.43 168.24 522.91 166.81 524.36C181.55 525.81 172.44 527.24 161.57 528.65C187.18 530.06 187.71 531.44 184.89 532.81C180.28 533.15 203.04 533.49 155.14 533.83C153.97 534 108.63 534.17 136.93 534.34C142.52 534.42 110.68 534.51 127.18 534.59C129.69 534.61 119.51 534.63 114.05 534.65C105.5 534.67 104.77 534.69 129.28 534.71C147.41 534.75 151.85 534.79 156.9 534.84C151.32 535.01 146.12 535.17 129.31 535.34C80.37 535.51 149.59 535.67 127.25 535.84C134.82 535.92 115.17 536.01 122.24 536.09C141.27 536.17 119.88 536.26 146.29 536.34C171.46 536.51 117.9 536.67 168.63 536.84C202.77 537.5 196.81 538.15 197.2 538.8C219.88 539.45 210.87 540.09 206.04 540.73C210.94 541.05 189.68 541.36 178.11 541.68C172.06 542 161.48 542.31 186.58 542.62C193.95 542.93 214.82 543.24 211.3 543.55C223.89 543.86 195.71 544.17 198.37 544.47C142.82 545.08 207.81 545.69 196.2 546.29C176.07 546.89 227.73 547.49 214.09 548.07C236.74 548.66 228.69 549.24 225 549.82C227.38 550.11 216.8 550.4 201.17 550.68C204.8 550.97 186 551.25 193.33 551.53C190.41 552.09 178.68 552.65 173.18 553.21C146.92 553.49 142.67 553.76 158.59 554.03C143.78 554.17 129.02 554.3 164.31 554.44C176.77 554.51 193.01 554.58 190.48 554.64C176.91 554.71 201.43 554.78 191.31 554.84C186 554.97 162.73 555.11 176.46 555.24C165.07 555.37 192.6 555.51 200.83 555.64C196.85 555.91 215.53 556.17 216.34 556.44C242.42 556.97 185.89 557.49 198.42 558C241.31 559.03 193.24 560.03 221.68 561.01C246.86 561.5 179.65 561.98 198.04 562.46C187.92 562.94 188.15 563.41 220.83 563.87C190.12 564.33 231.22 564.79 194.04 565.24C198.39 565.35 195.57 565.46 217.76 565.58C229.21 565.69 240.21 565.8 219.95 565.91C224.13 566.13 198.89 566.35 207.64 566.57C234.69 567.45 233.16 568.29 228.41 569.12C246.56 569.53 211.69 569.94 208.98 570.33C194.46 570.73 227.31 571.12 231.4 571.5C257.39 572.27 260.59 573.01 249.27 573.72C266.09 576.58 268.53 578.99 278.53 580.95C298.54 584.86 319.25 586.91 340.47 586.91C384.12 586.91 425.64 578.23 463.24 562.57C472.64 558.66 471.26 554.31 490.68 549.55C479.2 544.79 488.55 539.62 516.48 534.07C490.21 528.52 508.42 522.59 540.48 516.3C612.8 510.01 509.9 503.37 562.5 496.4C581.82 492.91 582.59 489.35 587.73 485.7C573.48 482.05 583.45 478.33 582.38 474.52C588.63 466.92 587.16 459.01 599.95 450.83C598.22 441.74 594.64 432.31 616.56 422.58C606.59 412.85 610.74 402.81 625.84 392.51C633.04 391.87 628.82 391.22 650.14 390.58C650.68 389.93 653.06 389.29 671.98 388.64C691.96 387.34 680.79 386.04 681.84 384.74C710.1 383.44 695.44 382.13 671.39 380.82C645.64 379.51 649.22 378.19 639.92 376.87C656.09 375.55 658.49 374.23 672.29 372.9C672.09 371.57 664.57 370.24 667.47 368.91C663.87 366.24 651.05 363.55 639.67 360.85C633.54 355.45 626.02 349.99 651.85 344.48C645.31 338.97 731.41 333.41 650.15 327.8C661.1 322.19 617.45 316.53 641.23 310.83C653.72 305.13 630.84 299.38 647.79 293.59C573.2 287.8 637.95 282.06 641.76 276.35C625.49 270.65 659.8 264.99 651 259.38C639.06 253.77 662.17 248.21 652.01 242.7C655.57 241.32 669.31 239.95 676.89 238.58C673.36 237.89 684.18 237.21 712.08 236.53C736.35 236.36 797.78 236.19 732.67 236.02C877.71 235.85 684.76 235.68 712.51 235.51C790.57 235.42 684.04 235.34 726.42 235.25C703.1 235.16 683.22 235.08 694.54 234.99C685.09 234.82 670.94 234.65 664.85 234.48C650.77 231.75 653.31 229.04 639.67 226.34C636.11 223.64 619.54 220.95 612.3 218.28C605.06 215.61 607.14 212.95 640.87 210.31C622.92 207.67 631.31 205.05 639.35 202.44C632.32 199.83 654.97 197.24 635.74 194.66C632.54 192.08 654.41 189.53 634.72 186.98C623.17 184.44 611.06 181.91 630.34 179.41C624.96 176.9 615.09 174.41 607.66 171.94C600.23 169.47 598.06 167.02 616.55 164.58C607.35 154.85 606 145.42 599.94 136.33C545.42 54.54 449.58 0.26001 340.47 0.26001ZM340.47 505.63C314.89 505.63 290.32 501.51 267.46 493.93C259.84 491.4 252.4 488.49 245.18 485.22C257.26 481.95 270.13 478.31 224.45 474.35C243.59 472.37 217.8 470.3 219.46 468.15C214.16 466 208.08 463.77 204.64 461.46C155.74 455.92 168.88 449.93 183.29 443.54C195.65 442.47 101.5 441.4 182.92 440.31C162.3 439.22 186.54 438.12 211.31 437.01C205.6 435.9 229.43 434.78 201.6 433.65C178.74 433.08 175.98 432.52 219.04 431.94C241.33 431.37 214.77 430.79 241.44 430.22C283.06 429.93 243.41 429.64 221.82 429.35C226.21 429.21 175.29 429.06 198.36 428.92C158.49 428.77 250.22 428.63 203.22 428.48C221.32 427.9 221.4 427.31 218.3 426.73C227.17 426.58 192.27 426.44 183.1 426.29C136.84 426.14 182.69 426 183.49 425.85C176.7 425.56 206.22 425.26 188.16 424.96C218.33 424.37 182.77 423.77 164.62 423.18C185.31 421.39 196.04 419.57 183.5 417.74C90.25 415.9 162.09 414.04 167.96 412.16C173.31 410.28 168.55 408.38 142.31 406.46C156.9 404.54 173.72 402.59 148.55 400.63C187.02 398.67 152.36 396.68 163.08 394.68C110.41 394.18 96.4799 393.68 132.58 393.17C169.1 392.67 160.72 392.16 128.11 391.66C109.78 391.15 122.09 390.65 109.2 390.14C70.2799 389.63 103.25 389.12 129.77 388.61C117.95 384.53 115.82 380.37 135.62 376.14C168.51 374.03 154.94 371.89 124.78 369.75C105.37 367.6 191.07 365.44 154.97 363.26C195.79 363.17 156.16 363.08 161.23 362.99C157.24 362.9 150.49 362.81 188.76 362.72C200.08 362.54 155.98 362.36 214.89 362.17C220.58 362.16 226.46 362.15 233.01 362.14C226.39 362.13 271.88 362.12 255.14 362.11C256.33 362.1 266.84 362.09 272.75 362.08C288.74 362.07 279.1 362.06 247.6 362.05C230.58 362.03 230.97 362 232.2 361.98C225.79 361.96 231.62 361.93 263.36 361.91C311.86 361.86 268.68 361.82 276.07 361.77C279.84 361.75 312.38 361.72 284.5 361.7C245.61 361.68 267.02 361.65 248.28 361.63C252.39 361.61 260.37 361.58 249.49 361.56C229.34 361.54 225.52 361.51 220.94 361.49C211.78 361.44 208.86 361.4 231.02 361.35C226.36 361.26 207.21 361.17 230.44 361.08C230.1 360.71 244.33 360.35 247.94 359.98C274.71 359.89 224.04 359.8 263.74 359.71C250.38 359.62 267.07 359.53 233.7 359.44C223.63 359.26 210.57 359.07 201.55 358.89C224.79 358.71 186.74 358.52 197.62 358.34C198.9 358.16 204.07 357.97 177.35 357.79C195.37 357.61 119.59 357.42 156.4 357.24C127.5 357.06 148.32 356.87 162.31 356.69C96.03 355.58 149.38 354.47 159.11 353.36C147.88 352.8 193.2 352.24 183.31 351.69C226.21 351.41 151.86 351.13 185.9 350.85C204.67 350.78 209.68 350.71 217.13 350.64C211.96 350.61 203.94 350.57 206.72 350.53C202.55 350.51 197.2 350.49 190.22 350.48C184 350.46 176.59 350.44 167.87 350.43C171.76 350.36 174.46 350.29 152.34 350.22C180.93 350.15 127.85 350.08 126.18 350.01C149.45 341.04 96.01 331.82 122.25 322.42C109.53 320.07 53.92 317.7 91.9 315.33C100.62 312.95 132.39 310.57 101.4 308.17C116.97 303.37 130.91 298.53 118.24 293.65C169.39 291.21 112.27 288.78 106.63 286.36C119.84 283.94 82.5999 281.53 136.46 279.13C138.05 276.73 73.54 274.34 111.25 271.97C129.97 269.59 104.44 267.23 121.3 264.88C66.13 260.18 126.16 255.52 110.17 250.92C120.76 246.32 100.6 241.77 126.17 237.29C143.53 232.8 142.32 228.38 136.88 224.01C134.44 219.65 130.78 215.35 140.21 211.12C127.14 202.66 144.92 194.49 148.58 186.64C153.4 178.79 148.96 171.26 164.55 164.09C210.36 157.82 163.01 151.83 180.85 146.14C213.49 140.46 201.8 135.08 199.13 130.04C196.73 125 185.4 120.29 216.02 115.95C234.33 111.61 197.19 107.63 240.93 104.04C238.45 102.25 259.12 100.55 269.63 98.96C288.22 97.37 261.87 95.87 268.71 94.49C264.24 91.72 264.22 89.36 288.53 87.46C273.6 85.55 307.42 84.1 312.72 83.11C311.27 82.62 316.24 82.25 316.22 82C316.8 81.75 339.38 81.62 340.52 81.62C350.75 81.62 360.82 82.28 370.68 83.56C420 89.94 464.18 111.75 497.7 143.73C504.4 150.12 524.85 156.93 516.49 164.09C533.94 171.26 541.77 178.79 532.46 186.64C547.37 190.57 552.11 194.57 556.44 198.66C558.59 200.7 545.33 202.76 568.2 204.84C601.83 205.88 545.67 206.92 570.96 207.97C583.81 209.02 542.27 210.07 545.34 211.13C534.8 215.36 538.94 219.66 541.74 224.02C526.9 228.38 527.24 232.81 554.86 237.3C561.21 241.79 523.74 246.33 575.4 250.93C562.69 255.53 561.67 260.19 560.77 264.89C592.43 269.59 539.57 274.35 587.25 279.14C611.13 283.94 656.47 288.78 562.8 293.66C523.52 298.54 548.08 303.38 550.69 308.18C522.44 312.98 640.82 317.73 560.77 322.43C577.94 327.13 612.28 331.79 575.81 336.39C532.86 340.99 567.1 345.54 554.86 350.02C529.95 358.99 564.11 367.73 545.33 376.19C542.66 380.42 536.42 384.58 524.09 388.66C511.76 392.74 504.36 396.75 532.45 400.68C527.63 408.53 522.29 416.06 516.48 423.23C475.79 473.32 412.08 505.63 340.47 505.63Z" fill="url(#paint0_linear)"/>
<defs>
<linearGradient id="paint0_linear" x1="0.999991" y1="294" x2="695.5" y2="294" gradientUnits="userSpaceOnUse">
<stop stop-color="#B7F8DB"/>
<stop offset="1" stop-color="#50A7C2"/>
</linearGradient>
</defs>
</svg>
