<?xml version="1.0" encoding="UTF-8"?><!-- Generator: Adobe Illustrator 23.0.4, SVG Export Plug-In . SVG Version: 6.00 Build 0)  --><svg xmlns="http://www.w3.org/2000/svg" enable-background="new 0 0 240.1 198.1" id="Layer_1" version="1.1" viewBox="0 0 240.1 198.1" x="0px" xml:space="preserve" y="0px">
<g>
	<linearGradient gradientUnits="userSpaceOnUse" id="SVGID_1_" x1="110.19" x2="110.19" y1="170.18" y2="10.251">
		<stop offset="0" stop-color="#0E37F1"/>
		<stop offset="1" stop-color="#FE19AA"/>
	</linearGradient>
	<path d="m0.4 66.8l12.6 67.7c-2.9-6.8-5.5-14.6-7.8-23.4-3.3-12.9-6.2-28.8-4.8-44.3zm21 83.2c2 2.9 4.2 5.5 6.5 7.8l-21.3-114.1c-1.4 2.8-2.5 5.7-3.4 8.6l18.2 97.7zm13 13.2c1.8 1.2 3.7 2.3 5.6 3.2l-25.1-134.8c-1.5 1.6-2.9 3.3-4.1 5.1l23.6 126.5zm11.5 5.3c1.7 0.5 3.5 0.8 5.3 1.1l-27.2-145.9c-1.6 1.1-3 2.2-4.4 3.4l26.3 141.4zm10.9 1.7c1.6 0.1 3.3 0 5-0.1l-28.3-151.8c-1.6 0.8-3.1 1.5-4.6 2.4l27.9 149.5zm10.4-0.6c1.6-0.2 3.2-0.5 4.9-0.8l-28.8-154.3c-1.6 0.5-3.2 1.1-4.7 1.7l28.6 153.4zm10.2-2.1c0.3-0.1 0.5-0.1 0.8-0.2 1.4-0.4 2.7-0.9 4-1.4l-28.7-154c-1.7 0.3-3.3 0.7-4.8 1.1l28.7 154.5zm9.7-4.4c1.5-1.1 3-2.3 4.4-3.6l-27.8-149.2c-1.6 0.1-3.2 0.3-5 0.5l28.4 152.3zm8.9-8.9c1.4-1.8 2.7-3.8 4-5.9l-25.7-137.5c-1.6-0.3-3.3-0.5-5.2-0.5l26.9 143.9zm8.1-13.4c1.2-2.5 2.4-5 3.6-7.6l-22.2-118.9c-1.8-0.8-3.6-1.5-5.5-2.1l24.1 128.6zm7.5-16.2c1.2-2.6 2.4-5.2 3.6-7.7l-18-96.6c-1.9-1-3.8-2-5.6-3l20 107.3zm7.6-15.5c1.2-2.2 2.5-4.3 3.9-6.2l-14.5-77.6c-1.9-0.7-3.7-1.4-5.5-2.1l16.1 85.9zm8.4-11.9c1.3-1.5 2.8-2.9 4.3-4.2l-12.1-64.7c-1.9-0.3-3.6-0.7-5.3-1.2l13.1 70.1zm9.1-7.8c1.5-0.9 3-1.7 4.6-2.4l-10.7-57.4c-1.8-0.1-3.5-0.3-5.1-0.5l11.2 60.3zm9.7-4.2c1.6-0.4 3.2-0.7 4.9-0.9l-10.2-54.5h-5.1l10.4 55.4zm10.4-1.2c1.6 0 3.3 0.1 5.1 0.3l-10.3-55c-1.7 0.1-3.4 0.3-5 0.3l10.2 54.4zm10.7 1.1c0.7 0.1 1.3 0.2 2 0.4 1.1 0.2 2.2 0.5 3.3 0.6l-10.8-58c-1.7 0.2-3.3 0.4-4.9 0.6l10.4 56.4zm10.9 1.8c1.7 0.1 3.4 0.2 5.1 0.2l-11.2-60.2c-1.6 0.2-3.2 0.4-4.9 0.6l11 59.4zm10.5-0.2c1.7-0.2 3.3-0.5 4.9-0.8l-11.1-59.5h-5l11.2 60.3zm10.1-2.3c1.6-0.6 3.2-1.3 4.7-2.1l-10.2-54.6c-1.7-0.3-3.4-0.6-5.2-0.8l10.7 57.5zm9.6-5.4c1.6-1.2 3-2.6 4.3-4l-8.1-43.6c-1.7-0.9-3.5-1.6-5.5-2.3l9.3 49.9zm2.4-43.5l6.2 33.3c1.7-3.2 2.8-6.7 3.2-10.2l-2.8-15c-1.6-2.9-3.8-5.7-6.6-8.1z" fill="url(#SVGID_1_)"/>
	<linearGradient gradientUnits="userSpaceOnUse" id="SVGID_2_" x1="135.31" x2="135.31" y2="146.47">
		<stop offset="0" stop-color="#0E37F1"/>
		<stop offset="1" stop-color="#FE19AA"/>
	</linearGradient>
	<path d="m30.7 69.9c-3.8 29.5 49.9 19.9 73.1 36.4s62.7 53 98 35.6-0.6-49.3 16.2-65.6 28.4-22.6 18-29.6-19.1 15.7-41.2-6.4-32.5-51.6-55.1-36 26.6 31.3-4.4 42.4-97-34.8-104.6 23.2z" fill="url(#SVGID_2_)"/>
	<linearGradient gradientUnits="userSpaceOnUse" id="SVGID_3_" x1="95.877" x2="157.13" y1="167.5" y2="167.5">
		<stop offset="0" stop-color="#0E37F1"/>
		<stop offset="1" stop-color="#FE19AA"/>
	</linearGradient>
	<path d="m154 164.4h-24.3v-24.4c0-1.7-1.4-3.1-3.1-3.1s-3.1 1.4-3.1 3.1v24.3h-24.5c-1.7 0-3.1 1.4-3.1 3.1s1.4 3.1 3.1 3.1h24.3v24.5c0 1.7 1.4 3.1 3.1 3.1s3.1-1.4 3.1-3.1v-24.3h24.5c1.7 0 3.1-1.4 3.1-3.1 0-1.8-1.4-3.2-3.1-3.2z" fill="url(#SVGID_3_)"/>
</g>
</svg>