<?xml version="1.0" encoding="UTF-8"?><!-- Generator: Adobe Illustrator 21.0.0, SVG Export Plug-In . SVG Version: 6.00 Build 0)  --><svg xmlns="http://www.w3.org/2000/svg" enable-background="new 0 0 205 78.3" id="图层_1" version="1.1" viewBox="0 0 205 78.3" x="0px" xml:space="preserve" y="0px">
<linearGradient gradientUnits="userSpaceOnUse" id="SVGID_1_" x2="205" y1="39.15" y2="39.15">
	<stop offset=".2514" stop-color="#FF54F8"/>
	<stop offset="1" stop-color="#AEFEE4"/>
</linearGradient>
<path d="m0 76.2c22.5-7 31.7-18.9 37.8-34.8 4.2-10.8 7.2-28.1 27.8-28.6 12.6-0.3 19 8.3 32 3.8 10.5-3.6 12.9-14.8 29-13.1 15.2 1.7 13.5 23.5 30.6 16.5 10.5-4.3 16.9-25.9 32.4-18.4 14.1 6.8 17.2 31 14.6 41-5.2 19.7-34.7 25.8-59.5 31.6-41.3 9.7-103.6-1.2-144.7 2" fill="url(#SVGID_1_)"/>
</svg>