<?xml version="1.0" encoding="UTF-8"?><!-- Generator: Adobe Illustrator 23.0.4, SVG Export Plug-In . SVG Version: 6.00 Build 0)  --><svg xmlns="http://www.w3.org/2000/svg" enable-background="new 0 0 288.5 212" id="Layer_1" version="1.1" viewBox="0 0 288.5 212" x="0px" xml:space="preserve" y="0px">
<g>
	<linearGradient gradientUnits="userSpaceOnUse" id="SVGID_1_" x1="28.373" x2="232.82" y1="113.11" y2="113.11">
		<stop offset="0" stop-color="#FF3558"/>
		<stop offset="1" stop-color="#FDD54F"/>
	</linearGradient>
	<path d="m65.1 35.9c-22.3 17.3-45 71-33.7 120.3 10.2 44.9 43.1 46.2 53.8 44 39.8-8.2 34.1-27 60.1-22.8s90.1-4.2 87.5-75.4c-2.5-71.2-47.6-66.6-71-69.2-26.7-3-71.4-16.6-96.7 3.1z" fill="url(#SVGID_1_)"/>
	<g id="change1_7">
		<path d="m80.7 211.8c-0.5 0-1-0.4-1-0.9 0-0.6 0.4-1 0.9-1.1 2-0.1 3.9-0.4 5.8-0.8 0.5-0.1 1.1 0.2 1.2 0.8 0.1 0.5-0.2 1.1-0.8 1.2-1.9 0.4-3.9 0.7-6.1 0.8 0.1 0 0.1 0 0 0zm-7.9 0c-0.1 0-0.1 0 0 0-2.1-0.2-4.1-0.5-6.1-0.9-0.5-0.1-0.9-0.6-0.8-1.2 0.1-0.5 0.6-0.9 1.2-0.8 1.9 0.4 3.9 0.7 5.8 0.8 0.6 0 1 0.5 0.9 1.1s-0.5 1-1 1zm-13.7-3c-0.1 0-0.2 0-0.3-0.1-1.9-0.7-3.8-1.5-5.6-2.4-0.5-0.2-0.7-0.8-0.5-1.3s0.8-0.7 1.3-0.5c1.8 0.8 3.6 1.6 5.4 2.3 0.5 0.2 0.8 0.8 0.6 1.3-0.1 0.4-0.5 0.7-0.9 0.7zm35.2-0.1c-0.4 0-0.8-0.2-0.9-0.6-0.2-0.5 0.1-1.1 0.6-1.3 1.8-0.7 3.7-1.5 5.5-2.3 0.5-0.2 1.1 0 1.3 0.5s0 1.1-0.5 1.3c-1.8 0.8-3.7 1.6-5.6 2.3-0.1 0.1-0.2 0.1-0.4 0.1zm12.8-5.8c-0.4 0-0.7-0.2-0.9-0.5-0.3-0.5-0.1-1.1 0.4-1.4 1.6-0.9 3.2-1.8 5.2-2.9 0.5-0.3 1.1-0.1 1.4 0.4s0.1 1.1-0.4 1.4c-2 1.2-3.6 2.1-5.2 3h-0.5zm-60.5-0.4c-0.2 0-0.4-0.1-0.6-0.2-1.7-1.1-3.3-2.4-4.9-3.6-0.4-0.4-0.5-1-0.1-1.4s1-0.5 1.4-0.1c1.5 1.3 3.1 2.4 4.7 3.5 0.5 0.3 0.6 0.9 0.3 1.4-0.1 0.3-0.4 0.4-0.8 0.4zm72.5-6.6c-0.3 0-0.7-0.2-0.9-0.5-0.3-0.5-0.1-1.1 0.4-1.4 2-1.2 3.7-2.1 5.3-2.9 0.5-0.2 1.1 0 1.3 0.5s0 1.1-0.5 1.3c-1.6 0.8-3.2 1.7-5.2 2.8 0 0.1-0.2 0.2-0.4 0.2zm-83.1-2.5c-0.3 0-0.5-0.1-0.7-0.3-1.4-1.5-2.7-3.1-3.9-4.7-0.3-0.4-0.2-1.1 0.2-1.4s1.1-0.2 1.4 0.2c1.2 1.6 2.5 3.1 3.8 4.5 0.4 0.4 0.3 1-0.1 1.4-0.2 0.2-0.4 0.3-0.7 0.3zm95.8-3.4c-0.4 0-0.8-0.3-1-0.7-0.2-0.5 0.1-1.1 0.7-1.3 1.9-0.6 3.9-1.1 5.9-1.4 0.5-0.1 1.1 0.3 1.2 0.8s-0.3 1.1-0.8 1.2c-2 0.3-3.8 0.8-5.7 1.4h-0.3zm33.7-1.1c-2 0-4.1-0.2-6.1-0.3-0.6 0-1-0.5-0.9-1.1 0-0.6 0.5-1 1.1-0.9 2 0.2 4 0.3 5.9 0.3 0.6 0 1 0.5 1 1s-0.4 1-1 1zm8-0.2c-0.5 0-1-0.4-1-0.9 0-0.6 0.4-1 0.9-1.1 2-0.1 4-0.3 5.9-0.6 0.6-0.1 1 0.3 1.1 0.9 0.1 0.5-0.3 1-0.9 1.1-1.9 0.3-3.9 0.5-6 0.6 0.1 0 0 0 0 0zm-21.9-0.8c-0.1 0-0.1 0 0 0-2.1-0.1-4.1-0.1-6 0-0.5 0-1-0.4-1-1s0.4-1 1-1c1.9-0.1 4 0 6.1 0 0.6 0 1 0.5 1 1-0.2 0.6-0.6 1-1.1 1zm35.8-1.2c-0.5 0-0.9-0.3-1-0.8s0.2-1.1 0.8-1.2c1.9-0.4 3.9-1 5.7-1.5 0.5-0.2 1.1 0.1 1.3 0.7 0.2 0.5-0.1 1.1-0.7 1.3-1.9 0.6-3.9 1.1-5.9 1.6-0.1-0.1-0.2-0.1-0.2-0.1zm13.3-4.3c-0.4 0-0.8-0.2-0.9-0.6-0.2-0.5 0-1.1 0.5-1.3 1.8-0.8 3.6-1.7 5.3-2.6 0.5-0.3 1.1-0.1 1.4 0.4s0.1 1.1-0.4 1.4c-1.8 1-3.6 1.9-5.5 2.7h-0.4zm-172.9-0.3c-0.3 0-0.7-0.2-0.9-0.5-1-1.7-1.9-3.6-2.8-5.4-0.2-0.5 0-1.1 0.5-1.3s1.1 0 1.3 0.5c0.8 1.8 1.7 3.6 2.7 5.2 0.3 0.5 0.1 1.1-0.4 1.4 0 0.1-0.2 0.1-0.4 0.1zm185-6.6c-0.3 0-0.6-0.1-0.8-0.4-0.3-0.4-0.2-1.1 0.2-1.4 1.6-1.1 3.1-2.4 4.6-3.7 0.4-0.4 1-0.3 1.4 0.1s0.3 1-0.1 1.4c-1.5 1.3-3.1 2.6-4.8 3.8-0.1 0.1-0.3 0.2-0.5 0.2zm-190.7-6.1c-0.4 0-0.8-0.3-0.9-0.7-0.6-1.9-1.2-3.8-1.7-5.8-0.1-0.5 0.2-1.1 0.7-1.2s1.1 0.2 1.2 0.7c0.5 1.9 1 3.8 1.7 5.7 0.2 0.5-0.1 1.1-0.6 1.3h-0.4zm201.1-3.3c-0.2 0-0.5-0.1-0.7-0.3-0.4-0.4-0.4-1-0.1-1.4 1.3-1.4 2.5-3 3.7-4.6 0.3-0.4 1-0.5 1.4-0.2s0.5 1 0.2 1.4c-1.2 1.6-2.5 3.2-3.8 4.7-0.2 0.3-0.5 0.4-0.7 0.4zm-204.4-10.3c-0.5 0-0.9-0.4-1-0.8-0.3-2-0.6-4-0.8-6-0.1-0.5 0.4-1 0.9-1.1 0.6-0.1 1 0.4 1.1 0.9 0.2 2 0.4 4 0.7 5.9 0.1 0.5-0.3 1.1-0.8 1.1h-0.1zm212.6-1c-0.2 0-0.3 0-0.5-0.1-0.5-0.3-0.6-0.9-0.4-1.4 1-1.7 1.9-3.4 2.8-5.2 0.2-0.5 0.8-0.7 1.3-0.5s0.7 0.8 0.5 1.3c-0.9 1.8-1.9 3.6-2.9 5.3-0.2 0.4-0.5 0.6-0.8 0.6zm6-12.6c-0.1 0-0.2 0-0.4-0.1-0.5-0.2-0.8-0.8-0.6-1.3 0.7-1.8 1.3-3.7 1.9-5.6 0.2-0.5 0.7-0.8 1.3-0.7 0.5 0.2 0.8 0.7 0.7 1.3-0.6 2-1.3 3.9-2 5.7-0.2 0.5-0.5 0.7-0.9 0.7zm-219.8-0.3c-0.5 0-1-0.4-1-1-0.1-1.7-0.1-3.5-0.1-5.3v-0.7c0-0.6 0.4-1 1-1s1 0.5 1 1v0.7c0 1.7 0 3.5 0.1 5.2 0.1 0.6-0.4 1.1-1 1.1 0.1 0 0.1 0 0 0zm223.8-13.1h-0.2c-0.5-0.1-0.9-0.7-0.7-1.2 0.4-1.9 0.8-3.8 1.2-5.8 0.1-0.5 0.6-0.9 1.2-0.8 0.5 0.1 0.9 0.6 0.8 1.2-0.4 2-0.8 4-1.2 5.9-0.3 0.4-0.7 0.7-1.1 0.7zm-223.6-0.9s-0.1 0 0 0c-0.6 0-1-0.5-1-1 0.1-2 0.2-4 0.4-6 0-0.5 0.5-1 1.1-0.9 0.6 0 1 0.5 0.9 1.1-0.2 2-0.3 4-0.4 6-0.1 0.4-0.5 0.8-1 0.8zm226-12.9h-0.1c-0.5-0.1-0.9-0.6-0.9-1.1 0.2-1.9 0.4-3.9 0.6-5.9 0-0.5 0.5-1 1.1-0.9 0.6 0 1 0.5 0.9 1.1l-0.6 6c-0.1 0.5-0.5 0.8-1 0.8zm-224.8-1.1h-0.1c-0.5-0.1-0.9-0.6-0.9-1.1 0.2-2 0.5-4 0.8-6 0.1-0.5 0.6-0.9 1.1-0.8s0.9 0.6 0.8 1.1c-0.3 2-0.6 3.9-0.8 5.9 0 0.6-0.4 0.9-0.9 0.9zm225.8-12.8c-0.6 0-1-0.5-1-1v-3.3-2.6c0-0.6 0.4-1 1-1 0.5 0 1 0.4 1 1v2.7 3.4c0 0.4-0.5 0.8-1 0.8zm-223.6-1h-0.2c-0.5-0.1-0.9-0.6-0.8-1.2 0.4-2 0.8-3.9 1.3-5.9 0.1-0.5 0.7-0.9 1.2-0.7 0.5 0.1 0.9 0.7 0.7 1.2-0.5 1.9-0.9 3.9-1.3 5.8 0 0.5-0.4 0.8-0.9 0.8zm223.1-13c-0.5 0-0.9-0.4-1-0.9-0.2-2-0.4-4-0.7-5.9-0.1-0.5 0.3-1.1 0.8-1.1 0.5-0.1 1.1 0.3 1.1 0.8 0.3 1.9 0.6 4 0.7 6 0.2 0.6-0.2 1.1-0.9 1.1 0.1 0 0.1 0 0 0zm-219.8-0.6h-0.3c-0.5-0.2-0.8-0.7-0.7-1.2 0.5-1.9 1.1-3.9 1.8-5.8 0.2-0.5 0.7-0.8 1.3-0.6 0.5 0.2 0.8 0.7 0.6 1.3-0.6 1.9-1.2 3.8-1.7 5.7-0.2 0.3-0.6 0.6-1 0.6zm217.5-13.1c-0.4 0-0.9-0.3-1-0.8-0.5-1.9-1.1-3.8-1.7-5.7-0.2-0.5 0.1-1.1 0.6-1.3s1.1 0.1 1.3 0.6c0.6 1.9 1.2 3.8 1.7 5.8 0.1 0.5-0.2 1.1-0.7 1.2 0 0.1-0.1 0.2-0.2 0.2zm-213.1-0.2c-0.1 0-0.2 0-0.4-0.1-0.5-0.2-0.8-0.8-0.6-1.3 0.7-1.9 1.5-3.8 2.2-5.6 0.2-0.5 0.8-0.7 1.3-0.5s0.7 0.8 0.5 1.3c-0.8 1.8-1.5 3.7-2.2 5.5 0 0.5-0.4 0.7-0.8 0.7zm5.5-12.8c-0.1 0-0.3 0-0.4-0.1-0.5-0.2-0.7-0.8-0.5-1.3 0.9-1.8 1.8-3.6 2.8-5.4 0.3-0.5 0.9-0.7 1.4-0.4s0.7 0.9 0.4 1.4c-0.9 1.7-1.9 3.5-2.8 5.3-0.1 0.3-0.5 0.5-0.9 0.5zm202.9-0.2c-0.4 0-0.7-0.2-0.9-0.6-0.9-1.8-1.8-3.5-2.8-5.2-0.3-0.5-0.1-1.1 0.3-1.4 0.5-0.3 1.1-0.1 1.4 0.3 1 1.7 2 3.5 2.9 5.3 0.2 0.5 0 1.1-0.5 1.3-0.1 0.3-0.3 0.3-0.4 0.3zm-7.5-11.8c-0.3 0-0.6-0.1-0.8-0.4-1.2-1.5-2.6-3-4-4.3-0.4-0.4-0.4-1 0-1.4s1-0.4 1.4 0c1.4 1.4 2.8 2.9 4.1 4.5 0.3 0.4 0.3 1.1-0.1 1.4-0.1 0.2-0.3 0.2-0.6 0.2zm-188.5-0.2c-0.2 0-0.4-0.1-0.5-0.2-0.5-0.3-0.6-0.9-0.3-1.4 1.1-1.7 2.3-3.4 3.5-5 0.3-0.4 1-0.5 1.4-0.2s0.5 1 0.2 1.4c-1.1 1.5-2.3 3.2-3.4 4.9-0.2 0.3-0.5 0.5-0.9 0.5zm178.4-9.4c-0.2 0-0.4-0.1-0.6-0.2-1.6-1.2-3.2-2.3-4.9-3.3-0.5-0.3-0.6-0.9-0.3-1.4s0.9-0.6 1.4-0.3c1.8 1 3.5 2.2 5.1 3.4 0.4 0.3 0.5 1 0.2 1.4-0.3 0.3-0.6 0.4-0.9 0.4zm-169.9-1.7c-0.2 0-0.5-0.1-0.7-0.3-0.4-0.4-0.4-1-0.1-1.4 1.4-1.5 2.9-3 4.3-4.3 0.4-0.4 1-0.3 1.4 0.1s0.3 1-0.1 1.4c-1.4 1.3-2.8 2.7-4.2 4.2 0 0.2-0.3 0.3-0.6 0.3zm157.8-5.3c-0.1 0-0.3 0-0.4-0.1-1.8-0.8-3.6-1.5-5.5-2.2-0.5-0.2-0.8-0.7-0.6-1.3 0.2-0.5 0.7-0.8 1.3-0.6 1.9 0.7 3.8 1.4 5.7 2.2 0.5 0.2 0.7 0.8 0.5 1.3s-0.6 0.7-1 0.7zm-147.2-3.9c-0.3 0-0.6-0.2-0.8-0.5-0.3-0.5-0.2-1.1 0.3-1.4 1.8-1.2 3.6-2.1 5.4-2.9 1.2-0.5 2.5-1 3.8-1.5 0.5-0.2 1.1 0.1 1.3 0.6s-0.1 1.1-0.6 1.3c-1.4 0.5-2.6 1-3.8 1.5-1.7 0.7-3.4 1.7-5.1 2.8-0.1 0.1-0.3 0.1-0.5 0.1zm133.9-0.5h-0.2c-1.9-0.4-3.9-0.8-5.8-1.2-0.5-0.1-0.9-0.6-0.8-1.1s0.6-0.9 1.1-0.8c2 0.3 4 0.7 6 1.2 0.5 0.1 0.9 0.7 0.7 1.2-0.1 0.4-0.5 0.7-1 0.7zm-13.8-2.1s-0.1 0 0 0c-0.6 0-1.2-0.1-1.7-0.1-1.3-0.1-2.8-0.2-4.4-0.3-0.5-0.1-1-0.5-0.9-1.1 0.1-0.5 0.5-1 1.1-0.9 1.6 0.2 3 0.3 4.3 0.3 0.5 0 1.1 0.1 1.6 0.1 0.6 0 1 0.5 0.9 1.1 0.1 0.5-0.4 0.9-0.9 0.9zm-13.9-1.3h-0.1c-1.9-0.2-3.9-0.5-6-0.7-0.5-0.1-0.9-0.6-0.9-1.1 0.1-0.5 0.6-0.9 1.1-0.9 2.1 0.3 4 0.5 6 0.7 0.5 0.1 0.9 0.6 0.9 1.1-0.1 0.5-0.5 0.9-1 0.9zm-13.9-1.8h-0.1c-1.9-0.2-3.9-0.5-6-0.7-0.5-0.1-0.9-0.6-0.9-1.1 0.1-0.5 0.6-0.9 1.1-0.9 2 0.2 4 0.5 6 0.7 0.5 0.1 0.9 0.6 0.9 1.1-0.1 0.6-0.5 0.9-1 0.9zm-75.7-0.9c-0.5 0-0.9-0.3-1-0.8s0.2-1.1 0.7-1.2c1.9-0.4 3.9-0.8 5.9-1.2 0.5-0.1 1.1 0.3 1.1 0.8 0.1 0.5-0.3 1.1-0.8 1.1-2 0.3-4 0.7-5.8 1.2 0.1 0.1 0 0.1-0.1 0.1zm61.8-0.7h-0.1l-6-0.6c-0.5-0.1-1-0.5-0.9-1.1s0.5-0.9 1.1-0.9l6 0.6c0.5 0.1 0.9 0.6 0.9 1.1-0.1 0.5-0.5 0.9-1 0.9zm-14-1.3c-2.1-0.2-4.1-0.3-6-0.4-0.6 0-1-0.5-0.9-1.1 0-0.6 0.5-1 1.1-0.9 2 0.1 4 0.2 6 0.4 0.6 0 1 0.5 0.9 1.1-0.1 0.5-0.6 0.9-1.1 0.9zm-34-0.1c-0.5 0-0.9-0.4-1-0.9s0.4-1 0.9-1.1c1.9-0.2 4-0.3 6-0.4 0.6 0 1 0.4 1 0.9 0 0.6-0.4 1-0.9 1-2 0.1-4 0.3-6 0.5 0.1 0 0.1 0 0 0zm20-0.6c-1.7 0-3.4-0.1-5.1-0.1h-0.9c-0.5 0-1-0.4-1-1s0.4-1 1-1h0.9c1.7 0 3.4 0 5.1 0.1 0.6 0 1 0.5 1 1s-0.4 1-1 1z" fill="#fff"/>
	</g>
	<g id="change1_6">
		<path d="m222.7 212c-7.1 0-12.8-5.7-12.8-12.8s5.7-12.8 12.8-12.8 12.8 5.7 12.8 12.8-5.8 12.8-12.8 12.8zm0-23.6c-6 0-10.8 4.8-10.8 10.8s4.8 10.8 10.8 10.8 10.8-4.8 10.8-10.8c0-6-4.9-10.8-10.8-10.8z" fill="#fff"/>
	</g>
	<g id="change1_1"><circle cx="257" cy="132.1" fill="#fff" r="4.5"/></g>
	<g id="change1_2"><path d="m286.5 182.5h-15.8v-15.8c0-1.1-0.9-2-2-2s-2 0.9-2 2v15.8h-15.8c-1.1 0-2 0.9-2 2s0.9 2 2 2h15.8v15.8c0 1.1 0.9 2 2 2s2-0.9 2-2v-15.8h15.8c1.1 0 2-0.9 2-2s-0.9-2-2-2z" fill="#fff"/></g>
	<g id="change1_3"><path d="m13 83.6h-5.5v-5.4c0-0.4-0.3-0.7-0.7-0.7s-0.7 0.3-0.7 0.7v5.4h-5.4c-0.4 0-0.7 0.3-0.7 0.7s0.3 0.7 0.7 0.7h5.4v5.4c0 0.4 0.3 0.7 0.7 0.7s0.7-0.3 0.7-0.7v-5.4h5.5c0.4 0 0.7-0.3 0.7-0.7s-0.3-0.7-0.7-0.7z" fill="#fff"/></g>
	<g id="change1_4"><path d="m168.5 6.1h-5.5v-5.4c0-0.4-0.3-0.7-0.7-0.7s-0.7 0.3-0.7 0.7v5.4h-5.4c-0.4 0-0.7 0.3-0.7 0.7s0.3 0.7 0.7 0.7h5.4v5.5c0 0.4 0.3 0.7 0.7 0.7s0.7-0.3 0.7-0.7v-5.5h5.4c0.4 0 0.7-0.3 0.7-0.7 0.1-0.3-0.2-0.7-0.6-0.7z" fill="#fff"/></g>
	<g id="change1_5"><circle cx="11.4" cy="56.6" fill="#fff" r="4.6"/></g>
</g>
</svg>