<?xml version="1.0" encoding="UTF-8"?><!-- Generator: Adobe Illustrator 23.0.4, SVG Export Plug-In . SVG Version: 6.00 Build 0)  --><svg xmlns="http://www.w3.org/2000/svg" enable-background="new 0 0 249.3 243.2" id="Layer_1" version="1.1" viewBox="0 0 249.3 243.2" x="0px" xml:space="preserve" y="0px">
<g>
	<linearGradient gradientUnits="userSpaceOnUse" id="SVGID_1_" x1="145.8" x2="81.708" y1="194.27" y2="83.265">
		<stop offset=".2068" stop-color="#F8049C"/>
		<stop offset="1" stop-color="#FDD54F"/>
	</linearGradient>
	<path d="m29.5 164.4c20.9-0.4 60.3 49.4 113.9 29.3s86.2-75.2 56.1-111.3-36 38.4-85.4 43.5-60.3-15.1-90.4-7.5-33.5 46.9 5.8 46z" fill="url(#SVGID_1_)"/>
	<path d="m94.5 209h-5.7v-5.7c0-0.4-0.3-0.7-0.7-0.7s-0.7 0.3-0.7 0.7v5.7h-5.7c-0.4 0-0.7 0.3-0.7 0.7s0.3 0.7 0.7 0.7h5.7v5.7c0 0.4 0.3 0.7 0.7 0.7s0.7-0.3 0.7-0.7v-5.7h5.7c0.4 0 0.7-0.3 0.7-0.7s-0.3-0.7-0.7-0.7z" fill="url(#SVGID_1_)"/>
	<linearGradient gradientUnits="userSpaceOnUse" id="SVGID_2_" x1="1.819e-12" x2="220.37" y1="79.966" y2="79.966">
		<stop offset=".029809" stop-color="#F8049C"/>
		<stop offset="1" stop-color="#FDD54F"/>
	</linearGradient>
	<path d="m0.4 56.6l12.6 67.6c-2.9-6.8-5.5-14.6-7.8-23.4-3.3-12.8-6.2-28.8-4.8-44.2zm21 83.1c2 2.9 4.2 5.5 6.5 7.8l-21.3-114.1c-1.4 2.8-2.6 5.7-3.5 8.6l18.3 97.7zm13 13.2c1.8 1.2 3.7 2.3 5.6 3.2l-25.1-134.8c-1.5 1.6-2.9 3.3-4.1 5.1l23.6 126.5zm11.5 5.4c1.7 0.5 3.5 0.8 5.3 1.1l-27.2-145.9c-1.6 1.1-3 2.2-4.4 3.4l26.3 141.4zm10.9 1.6c1.6 0.1 3.3 0 5-0.1l-28.3-151.8c-1.6 0.8-3.1 1.5-4.6 2.4l27.9 149.5zm10.4-0.6c1.6-0.2 3.2-0.5 4.9-0.8l-28.8-154.3c-1.6 0.5-3.2 1.1-4.7 1.7l28.6 153.4zm10.2-2.1c0.3-0.1 0.5-0.1 0.8-0.2 1.4-0.4 2.7-0.9 4-1.4l-28.8-154c-1.7 0.3-3.3 0.7-4.8 1.1l28.8 154.5zm9.7-4.4c1.5-1.1 3-2.3 4.4-3.6l-27.8-149.1c-1.6 0.1-3.2 0.3-5 0.5l28.4 152.2zm8.9-8.8c1.4-1.8 2.7-3.8 4-5.9l-25.7-137.6c-1.6-0.2-3.3-0.4-5.2-0.5l26.9 144zm8.1-13.4c1.2-2.5 2.4-5 3.6-7.6l-22.2-118.9c-1.8-0.8-3.6-1.5-5.5-2.1l24.1 128.6zm7.5-16.3c1.2-2.6 2.4-5.2 3.6-7.7l-18-96.6c-1.9-1-3.8-2-5.6-3l20 107.3zm7.6-15.4c1.2-2.2 2.5-4.3 3.9-6.2l-14.5-77.6c-1.9-0.7-3.7-1.4-5.5-2.1l16.1 85.9zm8.4-12c1.3-1.5 2.8-2.9 4.3-4.2l-12.1-64.7c-1.9-0.3-3.6-0.7-5.3-1.2l13.1 70.1zm9.1-7.8c1.5-0.9 3-1.7 4.6-2.4l-10.7-57.4c-1.8-0.1-3.5-0.3-5.1-0.5l11.2 60.3zm9.7-4.1c1.6-0.4 3.2-0.7 4.9-0.9l-10.2-54.5h-5.1l10.4 55.4zm10.4-1.2c1.6 0 3.3 0.1 5.1 0.3l-10.3-55c-1.7 0.1-3.4 0.3-5 0.3l10.2 54.4zm10.7 1.1c0.7 0.1 1.3 0.2 2 0.4 1.1 0.2 2.2 0.5 3.3 0.6l-10.8-58c-1.7 0.2-3.3 0.4-4.9 0.6l10.4 56.4zm10.9 1.7c1.7 0.1 3.4 0.2 5.1 0.2l-11.2-60.2c-1.6 0.2-3.2 0.4-4.9 0.6l11 59.4zm10.5-0.1c1.7-0.2 3.3-0.5 4.9-0.8l-11.1-59.5h-5l11.2 60.3zm10.1-2.4c1.6-0.6 3.2-1.3 4.7-2.1l-10.2-54.6c-1.7-0.3-3.4-0.6-5.2-0.8l10.7 57.5zm9.6-5.3c1.6-1.2 3-2.6 4.3-4l-8.1-43.6c-1.7-0.9-3.5-1.6-5.5-2.3l9.3 49.9zm2.4-43.5l6.2 33.3c1.7-3.2 2.8-6.7 3.2-10.2l-2.8-15c-1.6-3-3.8-5.7-6.6-8.1z" fill="url(#SVGID_2_)"/>
		<linearGradient gradientTransform="matrix(.8254 .5646 -.5646 .8254 647.37 -1542.9)" gradientUnits="userSpaceOnUse" id="SVGID_4_" x1="557.55" x2="557.55" y1="1782" y2="1522.5">
		<stop offset=".029809" stop-color="#F8049C"/>
		<stop offset="1" stop-color="#FDD54F"/>
	</linearGradient>
	<path d="m101.5 242.7c-1.3-0.9-1.7-2.7-0.8-4.1l143.3-209.4c0.9-1.3 2.7-1.7 4.1-0.8 1.3 0.9 1.7 2.7 0.8 4.1l-143.3 209.4c-0.9 1.4-2.8 1.7-4.1 0.8z" fill="url(#SVGID_4_)"/>
	<linearGradient gradientUnits="userSpaceOnUse" id="SVGID_5_" x1="74.683" x2="186.86" y1="47.171" y2="159.35">
		<stop offset=".2068" stop-color="#F8049C"/>
		<stop offset="1" stop-color="#FDD54F"/>
	</linearGradient>
	<path d="m151.8 122.6c15.9-10.5 38.5 25.7 62 9.5s16.9-96-77-100.7c-82-4.1-99.6 66-88.8 100.7 8.4 27 39 44.4 67.9 38.2 35-7.5 27.4-42.2 35.9-47.7z" fill="url(#SVGID_5_)"/>
</g>
</svg>