<svg xmlns="http://www.w3.org/2000/svg" xml:space="preserve" width="210mm" height="27.2475mm" version="1.1" style="shape-rendering:geometricPrecision; text-rendering:geometricPrecision; image-rendering:optimizeQuality; fill-rule:evenodd; clip-rule:evenodd"
viewBox="0 0 21000020 2724753"
 xmlns:xlink="http://www.w3.org/1999/xlink">
 <defs>
 <linearGradient id="id0" gradientUnits="userSpaceOnUse" x1="10" y1="1.33365e+006" x2="2.09557e+007" y2="1.33365e+006">
  <stop offset="0" style="stop-opacity:1; stop-color:#FFAFD7"/>
  <stop offset="0.988235" style="stop-opacity:1; stop-color:#FFC331"/>
  <stop offset="1" style="stop-opacity:1; stop-color:#FFC331"/>
 </linearGradient>
 </defs>
 <g id="Слой_x0020_1">
  <metadata id="CorelCorpID_0Corel-Layer"/>
  <path fill="url(#id0)" class="fil0" d="M16804286 172050c-2670,-10680 -25070,-36180 -35970,-36660 -3490,-150 -6950,-320 -10440,-470 11280,10340 32620,30610 46410,37130zm-766111 1801592c-99190,2530 -199440,720 -296500,-2980 -103220,-2750 -196920,3010 -288100,11410 194130,-2500 394220,-5340 584600,-4690l0 -3740zm-1019001 48370c-29810,4260 -64640,10540 -100210,17120 53530,2480 106430,4470 132040,-12610 -7810,-1740 -18820,-3270 -31830,-4510zm115810 -1182241l33990 15380 59891 -12880c-26341,-540 -57811,-1380 -93881,-2500zm112011 -1430l29630 -6360c-73971,-12690 -147971,-25360 -221961,-38030l-30530 7170c73640,6890 147840,18570 222861,37220zm-1248242 -46150c2150,-10680 5420,-23550 9630,-37190 -46140,2590 -92170,6510 -137890,12330 42930,10490 85680,18640 128260,24860zm42630 -115550c7370,-12150 15040,-21350 22580,-25400 15110,-8150 34980,-14350 55930,-19430 -321370,11260 -666700,3520 -937210,24200l-105561 0c-77420,-630 -3200,21110 35190,12160l105541 -20c297090,-2540 565290,1010 823530,8490zm371081 -107530c30320,-4340 58070,-10500 92540,-10140 4810,-1940 9210,-5650 13300,-10840 -54010,-2440 -113740,-8910 -135290,11280 7260,4960 17520,7920 29450,9700zm110190 -27220c16540,-26681 27020,-78371 33740,-130171 -343260,9110 -678271,40230 -1033951,65770 335360,-18250 649320,28930 1000211,64401zm111220 -131831c32250,62750 67840,125271 92760,148361 17310,1980 34660,3910 51990,5860 -133840,68280 32550,32460 74630,13890 20,0 -12460,-5530 -18450,-7860 21490,2140 42980,4270 64500,6410 52630,-8150 105250,-16280 157880,-24430 30550,2560 61090,5080 91640,7640 -40630,22630 26950,4750 27120,1220 0,0 -2080,-100 -2080,-100 70421,6760 144271,17200 214861,9680 30990,-1260 91560,-3840 121790,-12040 48740,1030 97460,2060 146200,3070l72230 -60691c-116120,-610 -218770,-10550 -287000,-51100 -283461,-34770 -548731,-44160 -808071,-39910zm1288451 87200l-43060 43011c4110,1360 8250,2710 12370,4050 -35250,7670 -72020,17820 -105900,30280 -4160,-190 -8320,-360 -12510,-550 -15060,7060 -127600,58200 -95420,76280 34200,11810 112320,-17810 145680,-31990 68990,7270 142880,4490 214690,-2770l0 -61920 -18970 -10590c4660,-2330 11190,-2080 18970,-100l0 -47651c-38430,40 -77250,900 -115850,1950zm-3708083 702441l0 -3850 6530 -440 -6530 4290zm1939811 96810c3470,140 6950,310 10420,460 -23720,-12170 -48240,-25910 -10420,-460zm-1636171 -14140c16370,7730 61140,-11280 61140,-11280 -32320,-21980 -37250,-26750 4180,180 7830,-4300 15710,-8610 23570,-12940 -17290,-3110 -34580,-6220 -51850,-9330 480,-120 -53360,22060 -37040,33370zm-229820 -48910c6080,290 18930,-2630 18910,-2630 -6590,-5190 -16430,-12580 170,-3510 2840,-1050 5650,-2080 8510,-3130 -5570,-250 -11140,-500 -16680,-750 210,-20 -17080,6220 -10910,10020zm3681303 509191c-120230,-162920 -92690,-117080 -14620,-650 -59030,-2730 -131280,-14940 -175110,-56930 -30710,-53560 85720,-54040 117420,-54290l141120 101300 0 3830 -68810 6740zm-225720 -465661c-232080,-232090 -188800,-174730 -29350,2160 -111010,-880 -257580,-13550 -347500,-82210 -63790,-79830 188850,-80120 231490,-80670 96710,49920 193410,99810 290090,149730 -48230,3640 -96470,7310 -144730,10990zm-398760 360451c-60510,-1750 -131161,-12000 -175131,-56940 -30850,-53441 86361,-51241 117271,-50801 48650,33750 97290,67461 145950,101201l-19710 1940 2860 820c15520,11190 31050,22390 46570,33610 -7670,-330 -15310,-690 -22960,-1030 -38000,-49660 -28950,-35170 -4160,-190 -59430,-250 -63590,-21740 -48110,-30690l-27980 2750c-120240,-162921 -92740,-117081 -14600,-670zm-18790 -186561c37210,25040 74400,50080 111600,75130 -18190,1490 -36360,3020 -54560,4540 -93890,-125910 -70150,-83660 -12670,2920 -100020,-4500 -230251,-87360 -44370,-82590zm-71830 -679470c-6610,-4120 -2940,-11050 2730,-13890 15070,-9830 30150,-19680 45220,-29520 23480,4580 46970,9120 70460,13700 -10710,5360 -21390,10740 -32080,16070 -62460,-38250 -48030,-26820 -6430,3220 0,0 -60480,20380 -79900,10420zm-34141 -124160c-41340,18530 -109750,46170 -154330,38590 -33820,-21320 78770,-69060 95430,-76280 44620,-340 89221,-680 133841,-1010 -20690,10750 -41380,21510 -62080,32250 -110081,-42800 -96471,-33200 -12861,6450zm-43400 82120c-22610,-8630 -26700,-9410 -4160,-190 -43850,21960 -49080,1600 -14310,-7650 10490,-710 20970,-1380 31450,-2080 -4320,3300 -8630,6620 -12980,9920zm94561 -149920c5510,1430 11010,2840 16530,4240 -2140,1100 -4280,2150 -6420,3240 -13550,-9080 -12460,-8360 -2080,-110 -7670,3850 -32880,5090 -8030,-7370zm160990 45800c13910,630 27800,1240 41730,1870 -6430,3240 -12840,6430 -19270,9660 -29690,-11000 -30900,-10610 -4160,-180 -19370,11000 -89290,19760 -18300,-11350zm14900 179350c-62780,28110 -61560,-2500 -18280,-11300 13930,-550 27900,-1090 41870,-1640 -6470,4390 -12940,8760 -19410,13130 -29830,-13000 -30440,-12770 -4180,-190zm79910 -196090c17340,1930 34670,3880 52000,5840 -7860,4320 -15710,8630 -23570,12960 -48190,-28740 -35190,-18050 -4330,3300 0,0 -44750,19010 -60990,7770 -16610,-7860 38030,-30210 36890,-29870zm62170 58840c-20570,-10710 -14160,-5100 -2250,3410 -38300,15770 -30610,-15380 10740,-6520 -2820,1030 -5670,2080 -8490,3110zm79350 94690c73990,12670 147970,25360 221960,38030 -10550,1840 -21070,3710 -31620,5560 720,40 1410,70 2100,110 -22520,4830 -45040,9660 -67540,14470 0,0 2080,90 2060,90 20,0 -30360,2140 -41870,1640 1570,1360 3950,3420 6110,3780 -76980,11010 -191750,25000 -265740,5540 -66260,-27730 191260,-70940 174540,-69220zm103600 -72420c10480,-710 20960,-1390 31450,-2100 -5030,3300 -10050,6560 -15090,9830 -24580,-9450 -21530,-7620 -2060,-80 -14960,7480 -66180,13910 -14300,-7650zm91150 203830c0,0 -42180,8590 -56320,-2540 -11940,-7400 38020,-16030 36260,-15880 15820,4200 31660,8420 47500,12620 -7750,2000 -15500,3990 -23260,5990 -36450,-23990 -31280,-20020 -4180,-190zm5630 -171430c15050,-8660 30050,-17360 45070,-26010 23550,3400 47080,6780 70630,10190 -10690,5350 -21390,10730 -32080,16070 -60820,-38070 -47380,-26600 -6410,3210 -9940,6030 -112350,30170 -77210,-3460zm169190 56910c-24160,4940 -46280,4790 0,-16490l0 16490zm-1060931 -76070c-16640,-10950 -15570,-9600 -2080,-90 -40440,15700 -32770,-11970 10740,-6530 -2900,2210 -5780,4410 -8660,6620zm-37900 -40230c-91110,37710 -68640,-17060 -26200,-22210 17990,3150 35950,6280 53950,9430 -7830,3150 -15630,6300 -23420,9460 -48300,-28720 -35070,-18220 -4330,3320zm-98530 6050c-36470,-13790 -24810,-7270 -2250,3420 -60060,23660 -66050,-1830 -20230,-14920 13910,610 27820,1240 41720,1870 -6400,3200 -12830,6430 -19240,9630zm-173340 -49840c-11330,-8360 -11100,-7850 0,0 -31880,12540 -20450,-7940 8500,-3130 -2850,1050 -5670,2080 -8500,3130zm-101310 -25610c-5080,-2010 -8970,-3460 -11790,-4430 -1150,-1180 -2390,-2250 -3800,-3260l30530 1370c-4980,2120 -9940,4240 -14940,6320zm-8020 400l5790 3030c-22880,9240 -35380,8610 -37390,4510 11110,-1490 22160,-3040 33070,-4660 -420,-1010 -930,-1970 -1470,-2880zm1397191 1460251c-2940,-2170 -8190,-5840 -9240,-7650l3270 -670c1100,250 2480,650 4180,1220l-1000 -1920c17680,-3920 35040,-9700 51800,-17680 -3510,12640 10440,19130 33830,22620l0 28340c-13110,-590 -26240,-1340 -39310,-2140 -13700,-8660 -31930,-22900 -45320,-29220 3890,11170 16430,23190 29520,28230l-19920 -1340 -7810 -19790zm-23510 -5210c-14580,7770 -25400,14600 -33110,20560 -90060,-5880 -161960,-7470 -177170,18720 -82540,10890 24310,-31340 -35190,-36470 -42880,19200 -29430,28810 -123490,12170 26240,-21770 76140,-28160 105570,-48640 66010,14750 167860,47590 263390,33660zm-1181751 -711321c130,-1470 400,-2960 2040,-3410 -9850,-3800 -10190,-4070 -2040,3410zm-421290 -68030c-22920,-14180 33640,-34080 41370,-36680 -113280,-105760 -1187001,-148740 -1184841,-102420 1260,86070 -393961,50800 -447341,46430 -20130,-2080 -40230,-4140 -60360,-6220 -47920,-4200 -95760,-8700 -143640,-13490 0,0 2100,110 2100,110 -29950,-170 -59910,-360 -89870,-550 -12250,3490 -119020,61180 -57060,60510 -7860,11890 29560,18210 34660,19070 57500,7860 117000,6900 173790,-6190 26030,3880 97880,14180 104690,43250 -950,20990 -9840,8280 -1120,24480 9770,18210 -19540,16090 9640,17960 90810,5800 77110,-85530 144880,-14490 12020,12220 23990,24430 35970,36660 33260,49490 73720,-28890 119060,-43700 40350,9070 95210,18530 135441,9620 38780,-15060 13740,10440 46390,37120 35760,24040 40920,15510 77210,3470 264120,-21410 544820,-29640 810960,-44060 19050,-8110 61620,-21760 61620,-21760 31870,3760 63761,7560 95631,11320 82610,2480 97250,-10610 170260,-20360 -26480,-20 -52970,-60 -79440,-80zm1709391 884541l0 -13740c-16850,840 -29860,4350 -34460,13740l34460 0zm0 -131240l0 -6560c-11330,860 -22610,1790 -33810,2800l33810 3760zm-3193313 -256500c156750,-30720 310301,-118370 300071,12790 -129871,-2560 -224561,650 -300071,-12790zm-1005821 -14080c13450,28150 99180,5130 141390,12800 -16640,43510 -136280,3190 -177230,24300 -53740,-12160 8320,-41590 17920,-49260 15360,-2540 16640,4490 17920,12160zm1553522 -59490c124140,-10260 175950,1910 317360,630 -13440,37750 48640,23670 35190,61430l158660 -30c-24310,47990 -81260,54400 -123490,61430 -1910,22400 21770,26240 17920,49270 -87020,1280 -74850,30090 -158680,12160 5130,-45420 104940,-24300 123490,-60770 -106850,-12170 -202820,-31370 -264880,-74230 -23670,24310 -49260,47360 -123490,36470 -8950,-39010 32000,-43510 17920,-86360zm-3053263 -371761c-5120,-32620 180450,1750 360180,8110 -256290,1770 -289800,2770 -360180,-8110zm1588061 516991c20470,2540 14710,23030 17270,37120 -76760,-8320 -99160,21120 -175950,11520 45420,-21120 112610,-27530 158680,-48640zm3458904 300090c89560,-8970 226500,13430 264880,630 6410,42230 -270000,38410 -264880,-630zm-4435835 -1072191c-14030,-6890 -37350,-7520 -62750,-6740 13190,8740 27140,16130 40380,22330 0,0 9740,-7500 22370,-15590zm1178472 -469930c17710,800 20860,-1780 32080,-16070 -9890,6010 -20880,12880 -32080,16070zm166500 -76591c-5530,-260 -29290,10211 -36080,12411 32000,1430 63980,2880 95950,4310 58850,8490 117710,16970 176540,25480 34980,-2620 83530,-10270 117480,-8740 -102480,-16340 -250550,-33861 -353890,-33461zm-1344092 1386232c-99180,2520 -199430,710 -296500,-2990 -41320,-1090 -81110,-840 -119830,400 33630,-17460 61280,-34830 75610,-40710 5760,-2570 10250,-3850 10880,-1280 -3840,650 -7030,1280 -10880,1280 -66530,5120 -171470,-12170 -182990,-1280 54400,30060 -50540,-13450 -35190,12160 10890,21110 83830,-630 88300,24960 -19770,230 -34110,4220 -45480,10210 -23070,1660 -45860,3590 -68510,5670l60420 -780c-14050,9650 -23550,22400 -35360,33530 40910,910 85870,-15730 125070,-34660 145880,-1790 292860,-3260 434460,-2770l0 -3740zm-1018991 48360c-29810,4260 -64640,10550 -100210,17120 53530,2480 106430,4480 132040,-12600 -7820,-1750 -18830,-3280 -31830,-4520zm-217040 38030c-39960,6380 -73260,10180 -91240,7870 -15380,-3880 -29980,-7060 -44040,-9720 -116410,-950 -227380,-1330 -329100,-11260 -77610,4410 -164360,2200 -183600,-56670 -35130,-48650 -197191,-21240 -252421,-11360 -1450,-12960 6030,-26330 20550,-39900 -262150,6600 -521360,26490 -705690,49860 66530,16610 122860,-14080 158680,37100 -7040,40940 -68470,-33280 -53110,24310 40310,55670 68470,44140 176600,49260 -13450,-37750 47980,-23680 35190,-61430 -33280,-5750 -106220,15990 -88300,-24960 84450,-28150 280890,-24960 405660,12800 -86390,18550 -186200,1910 -211790,36470 53110,56930 225860,19830 335280,62060 17900,46070 -60150,24310 -71030,49270 154201,7660 368531,-6410 511861,-23680 -14730,-30700 -138200,13440 -123490,-37100 140100,13420 197690,-23050 300070,630 1280,15980 23040,17270 17920,37100 -94690,0 -50550,-1280 -35190,36470 -49920,-10230 -45450,17290 -88300,12160 -49270,-18550 37100,-55020 -35190,-49260 -37760,95340 -293690,65900 -371100,60780 -35820,65250 40940,30710 88300,73570 -12170,24310 -98560,-3210 -106220,24310 229710,15990 552170,-31370 723650,25590 -611680,8320 -1145931,21110 -1623881,34560 -40970,12160 -81920,24950 -106220,48630 -129881,-14730 -421021,-111980 -564981,11510 -250170,-2560 -422920,48620 -670541,47990 -20480,-18550 -20480,-31350 0,-49270 -154830,630 -191950,-63990 -246980,-74220 2570,-30720 59500,-3850 70380,0 24960,-55040 -68440,-60800 -17260,-97900 56950,37750 127330,16620 176600,-12170 -189380,-14720 -382620,-16010 -617430,11520 45420,36470 99810,-9610 105570,49260 -28790,15990 -111980,-5120 -105570,36470 25580,6410 91490,-14070 88300,12170 -1940,23650 -58870,8950 -53110,37100 31990,14730 122860,-2560 176600,24960 -563041,21760 -973831,16640 -1553501,22390l-88281 0c3190,17920 42220,10890 70381,12170 412040,23670 681420,-17270 1076831,13440 -69751,51180 -113891,7040 -176601,49270 99810,-8320 246331,15990 317361,-12170 -54400,12170 -95970,-46070 -70380,-49260 79980,16640 65250,26240 105570,61430 491390,-45420 928401,13440 1429381,14070 187460,0 385800,-47330 511861,24960 -95341,7670 -240581,-19830 -282801,24310 347861,35570 767911,-27690 1089311,16830 -312740,2460 -625840,5650 -939251,9640 -88530,86890 -196490,163981 -313160,172211 -289960,-13040 -579950,-26110 -869931,-39180 -56430,-2540 -172690,-18280 -172670,-18280 -135490,6750 -270980,13490 -406460,20230 -57990,11410 -117250,17950 -176350,16580 -88241,-2900 -181291,-800 -269751,1890 -60050,-26760 -129080,-33150 -193370,-22750 -65440,13630 -110400,34310 -175990,55150 -201790,35170 -536631,-118071 -722311,-207721 -138650,-64330 -149310,-48990 -308280,-24390 -106410,12440 -221310,14560 -328620,9710 52610,-23320 105230,-46620 157840,-69960 -146050,11280 -299380,10020 -445471,4450 -205200,-5440 -372810,22670 -557730,38490 -67310,-10720 -176620,7750 -185080,-43550 -49920,73570 -202840,29430 -246981,-12170 -136290,72950 -314150,63350 -458750,11520 -32000,7660 -170850,62060 -158680,-12170 95990,-13440 302650,34540 405660,12800 -36470,3840 3190,-35190 17270,-36470 281541,650 632801,42220 935441,-23030 -71030,-3820 -115170,-26870 -176600,-37100 72290,-35190 143950,-54370 264880,-73580 13290,-2540 158820,16410 80040,-9760 -150,-50 -270,-90 -420,-130 -2000,-1740 -5590,-2880 -8590,-2880 2960,1200 5380,2370 8250,3050 3740,3190 2550,7880 -9600,9090 -40940,3850 -19830,-35820 -53110,-37100 -81890,43510 -200250,17290 -300070,12170 51350,-31960 218520,15770 229210,-44540 4120,24560 135550,28720 88780,8060 -86680,16580 -53360,-57010 -18320,-61380 -65310,7560 -175630,-15970 -211390,12120 49920,28800 117110,-26220 141410,24960 -306470,-650 -330780,13420 -582240,35820 76160,63340 241230,-11540 335280,37100 -229690,24310 -408200,-14730 -493941,35820 106221,-1910 123491,10230 211791,0 -66530,52480 87650,29430 105570,61430 -109390,-24310 -168910,80630 -229690,12160 78700,-17920 -28780,-21760 17920,-48630 -59490,-8320 -163801,15360 -193871,-12800 15990,-35820 64630,-3190 70380,-24300 -54390,-14080 -88930,-3830 -140760,-37110 58870,-29430 115180,12800 158680,-12160 -60770,5130 -53110,-36470 -88300,-49270 -120920,28810 -230320,14080 -300070,-630 -6380,32000 -42220,44140 -105560,36480l0 10080c-55010,3150 -112070,10840 -157490,1490 65630,1350 148770,15020 140220,-35270 -59060,7520 -105530,34960 -146080,9770 206290,-18890 248790,-30780 515600,-30860l20610 -4900c-26320,-40970 -90510,7650 -138640,-19270 14180,-10790 40070,-13710 70240,-13780 -1810,3320 -3110,6960 -3760,11050 37690,2920 77430,11920 115100,11430l-310 490 2180 -530c22800,-480 44790,-4560 65090,-15670 13090,-3260 23701,-6030 31431,-8240 6260,280 18780,840 18760,840 0,0 -4640,-6090 -5930,-7290 1410,70 2780,130 4160,190 9690,1620 19370,3220 29060,4810 -6160,-2600 -12310,-5210 -18470,-7810 11870,-3780 39650,-12670 67970,-24350 158910,24180 264940,7540 433180,47390 -40320,23680 -113890,-23670 -158680,12170 100040,36280 161220,-1220 243240,-19310 4730,380 9890,630 15610,650l-2380 -3340 3370 -610 3170 4140c7640,340 15290,690 22960,1030l-10550 -7600c28130,-3740 59160,-4270 95050,1360 27520,-43510 -59500,-7670 -53110,-37100 67180,-8950 211140,59500 141410,0 350611,-35190 630,0 -71030,-37100 92770,-72950 427401,33910 335281,-12170 38380,-18550 99810,-20480 158680,-24300 1910,-64000 -88300,-9600 -140760,-49270 41600,-24310 163150,7670 176600,-36470 -36470,-11510 -69750,-24960 -106220,-37100 -2570,17270 -5130,25590 -35820,24300 -95990,-4470 -278981,10890 -370491,11520 -630,0 15350,-24960 17920,-24310 -182360,-42230 -447240,49920 -600160,48640 49260,10880 107480,15350 141410,37100 -81900,0 -174670,-7040 -211790,24300 53740,15990 157400,-2560 176600,37110 -30210,0 -82480,500 -136220,1780 6660,-5960 11130,-12010 12410,-18040 -85990,-13350 -222481,-31430 -276621,9830 19200,9620 58380,14220 98681,16470 -28701,3570 -30551,8230 19580,14260l1910 420 -49141 4790c39851,32970 9890,25400 -35650,14500 -21310,-18360 -21580,-31950 -41260,-44640 -1560,14910 -11200,24260 -24100,31360 -14750,-1970 -28740,-2730 -40400,-1220 -1950,8740 4850,11540 14450,12420 -15750,5880 -31910,11560 -42900,20780 -99050,8740 -161090,58470 -262590,33570 58890,-710 119900,-10820 161020,-23340 -31350,-11510 -61430,-23030 -53120,-61430 -177230,1910 -322460,-15360 -440850,-630 6730,610 19140,9830 26370,18950 -19890,-3030 -40670,-6680 -62480,-11160 -12210,-5230 -25360,-10140 -39270,-14700 47860,-8180 240140,-11030 311000,-11030 -19200,-38430 -122860,-20470 -176600,-35970 28400,-23240 89430,-24710 153200,-24100 -320,5630 -740,11370 -400,16600 58860,21110 78060,-5760 158680,0 -20970,-22400 -69980,-60740 -122440,-62480 99580,-14600 217140,-39960 326240,-46030 -15230,-13170 -26700,-23590 -31260,-27670 -30670,320 -62650,1030 -96280,2330 26640,-6130 51090,-12980 75080,-20040 -4770,-3910 -11990,-10900 -26090,-23850 7060,-2010 21180,-6050 21180,-6050 -32940,-29720 -36030,-34790 6260,280 7790,-3130 15610,-6310 23400,-9460 -17160,-5440 -34350,-10880 -51510,-16320 -55090,990 -29200,4830 -97780,-56960 8240,-3040 17100,-2850 25360,-5860 -4180,-190 -8360,-380 -12540,-560 7790,-1500 25360,-5890 25360,-5890 0,20 -9880,-7060 -19980,-13670 -22800,7520 -31180,13210 -38870,25960l20670 20c-8230,1100 -15710,2250 -22620,3410 -4270,7810 -8680,18040 -15570,32270 -18110,-10700 -35320,-16600 -51850,-19460 -20760,3320 -43930,5230 -80210,4140l-2380 -270c-25690,4350 -50840,8740 -76700,4600l5590 2880c-3470,-150 -6960,-320 -10420,-460l-7420 -5050c-6780,-1820 -13650,-4350 -20610,-7660 -14070,4700 -33910,11550 -45310,16400 -102990,5570 -208180,10210 -313730,15070 1980,-5680 3110,-10650 3570,-15320 4690,4030 19770,4640 47000,-4600 -25860,-14790 -26890,-16030 4180,190 6410,-3220 12820,-6430 19220,-9640 -13150,-1790 -26320,-3530 -39450,-5280 -16220,1850 -26830,7040 -30800,11940 -930,-17860 -11260,-33850 -20090,-71160 22340,-950 49000,-6450 67020,-10800 11600,480 25720,2190 55170,5130 -27500,-44140 60150,-7670 53110,-37110 -51470,-16570 -33550,-26630 -8090,-39720l33890 3340c130280,-11960 282050,-32481 454760,-15740 77690,-70781 211370,-58321 335810,-76851 -240,-1110 -240,-2270 0,-3490 5960,-7100 12160,-14260 18500,-21470 -53380,-37290 -174540,11470 -230190,-40800 -76790,32250 -174040,34100 -211790,11790 81240,-75090 302300,6530 497971,-31810l6850 -7180c-105361,-59580 -362911,6240 -451711,-44100 47350,-37190 99180,-2460 193870,-11770 -12210,-10960 -24350,-16130 -37120,-18320l15310 2400c-15990,-73570 146520,12160 158680,-60780 -118380,-56300 -280890,1280 -335280,-24960 30720,650 45440,-8950 53110,-24310 -91490,-14070 -223280,-630 -264880,-49260 99820,-3850 157400,21740 264880,12790 15360,-39660 -45440,-25590 -53110,-49260 97880,4470 122840,-13450 194500,0 -43510,-87650 99820,-44790 123490,-85740 -60150,-21110 -106220,18550 -158680,-12790 108770,-20470 179780,-55030 300071,-60780 -33280,-85740 103660,-26240 123490,-48640 -24330,-74850 31350,-113890 264880,-110040 -3740,-4080 -8720,-7570 -14680,-10550 33530,2270 66850,4310 99940,6130 -23320,16870 -42780,31710 -50070,41520 -18550,-5760 -134370,-24310 -88300,0 28150,1280 61430,-1280 53110,24960 -86390,-23030 -21760,10880 -53110,36470 -31360,7040 -103660,-14710 -106220,12160 104290,28150 232250,-24330 317990,-48630 19830,14070 19830,43510 17270,73570 -63340,-40320 -169540,25590 -229690,-12790 58850,53080 -72940,41570 -106220,24300 4470,63970 40950,42230 70380,73580 -122210,38400 -313520,3840 -423561,-630 44160,87010 185551,70380 317361,49260 -17270,48640 98530,5130 88300,49270 -39670,16640 -95970,9600 -35190,36470 -17290,32630 -152920,-16640 -141410,36470 140130,-15990 339750,14080 441480,74220 -53110,-14720 -88300,-18550 -106220,24310 72310,20490 115170,-15360 158680,24960 -94690,9600 -146520,-26220 -193870,12160 90840,53120 358300,-19180 458750,49920 -198980,46700 -428690,-43510 -511860,35820 37750,23030 135000,21120 211790,-12160 62710,60800 208600,-10860 246980,61430 -133720,28780 -286000,5750 -371100,85741 -191480,-19141 -357240,8950 -496461,19890 -15130,-40 -30360,20 -45360,-80 49920,-33491 -56960,-22310 -88300,-35971 -37100,4350 0,24811 33910,26051 -148680,15820 -330240,36350 -536040,35990 118280,18260 208150,40970 236750,67670l-2400 840c10460,-110 23130,0 38110,310 1280,-17370 2560,-34110 -17920,-35940 17270,-29770 67820,16110 123490,0 70380,19200 -143970,3070 -53110,35940 -10360,2990 -19060,5510 -26430,7840l25230 8950c12040,-4140 24080,-8260 36120,-12400 45800,3390 91490,7360 137180,11540 15280,3970 33510,3440 50890,290 33700,510 69770,2650 105040,5680 -3110,9050 -9370,15730 -15920,22730 36471,-7040 115801,15350 123491,-12170 -45890,4770 -43070,-23970 -77590,-27040 1410,-10310 2350,-20020 2880,-29110l-7730 100c-9900,-4700 -4830,-7840 8130,-10150 440,-18060 -800,-33630 -3300,-47100 279060,18300 522470,-10460 712310,-31300 -33910,-1280 -71010,-22401 -33910,-26871 31340,14070 138210,2540 88300,37101 98530,630 207310,-5130 229060,49270 -13320,4010 -43150,6050 -72460,8060l-76560 -39510c-18130,-1750 -36220,-3180 -54240,-4370 11320,10420 26430,24740 45670,43460 17060,630 34390,1870 51450,2920 -30150,2630 -50590,6220 -35270,13740 85730,-1280 131810,1280 53110,24960 101740,16010 262971,-17900 246981,24960 39660,-5760 56300,-26870 88300,-37100 -21120,-1930 -49920,1910 -53110,-12170 106850,11540 37100,-45420 105570,-73570 186180,1280 382610,-7670 582240,37750 -69730,46710 -224570,-19200 -300070,36480 28150,1280 61430,-1290 53110,24950 -44160,5760 -106850,-630 -106220,36480 248260,10880 410780,8320 618081,49910 -5130,24960 -47990,24310 -53110,49270 68460,9600 137560,18570 158680,61430 -355751,10860 -497161,33260 -811951,35820 192580,66560 516350,-12140 688461,49920 6430,30690 -167611,-3870 -106831,26850 145861,19830 233531,15350 388371,37100 -31350,49910 -124120,-15360 -158680,36470 154830,3210 309670,5760 441480,24960 -47990,7690 -140130,-15990 -158680,12160 499060,26240 784431,-12140 1305891,-10230 13420,-51810 -67840,16640 -71030,-37100 149730,45440 246320,-73570 335910,-24310 3190,-23680 -19840,-26870 -17920,-49260 40940,-4480 67810,1930 88300,12160 26241,-14730 27521,-46720 53111,-61430 88950,-5780 298180,-16640 405660,-48640 -499071,-23040 -927751,11520 -1429381,10240 -19840,-24310 -113891,-73580 -88301,-24310 3840,-19180 28781,-1910 35191,12160 -131161,0 -425481,10880 -582241,-12790 21110,-2570 10880,-13430 0,-24310 44790,31370 81910,-5110 106220,-24310 -60360,26410 -132420,-42310 -157400,20800 10130,-30900 -25990,-29520 -19200,-57920 -103030,18550 -209230,8950 -335280,-12790 83820,-10260 119010,-44800 17920,-61430l141390 80c-31350,37730 136930,79330 176600,37100 -18550,-11510 -35840,-24310 -53110,-36470 113260,-13450 135650,46070 211790,0 -30720,0 -45440,-9600 -53110,-24960 69090,-21110 162520,-24960 211790,-60780 -89580,-11510 -248260,24960 -282170,-24960 71660,-3190 190670,-12160 88300,-36471 65900,-7670 181700,20491 194500,-24300 -168260,-32000 -259780,26211 -388370,-24960 44790,-1920 61430,-23030 88300,-37110 -47360,-7660 -110700,-5100 -141410,-24300 90210,-14730 227140,3190 282170,-36470 -73580,14700 -78700,-18580 -70380,-61430 138190,-8320 7670,630 0,-12170 -28150,-45440 4470,-46720 -88300,-61430 37750,-3210 188110,9580 141410,-12160 -46700,0 -103660,7040 -105570,-24310 21110,-1930 50550,1910 53110,-12160 -32000,-35190 -122860,-28790 -176600,-49270 111950,-1930 260400,5760 300070,-12160 -27520,-17900 -82550,-16620 -106220,-37110 126680,-6400 274480,2570 353180,-36470 -95970,21120 -178520,-16620 -264250,-37100 42880,-3820 94050,-64620 141410,-24310 -38410,-2560 -56310,9600 -53110,36480 63340,-16010 64620,1280 123490,-12170 5120,-24310 -23680,-24940 -35190,-37100 26890,-18550 116450,19830 141410,-24310 -71030,-630 -129900,-1280 -141410,-12790 4470,-41600 115820,-8970 123490,-48640 41220,41220 72980,14290 112730,-990 10510,16010 25441,29610 41871,41030 51330,-21910 166520,-940 187210,-43440 -12370,-25130 -51720,-32230 -91950,-38800 13460,-8740 29180,-15890 50230,-19230 15990,27520 97250,16010 105570,-24310 -20360,-22240 -160740,29420 -176310,-23950 23640,-1760 49920,-1740 77270,-980 -7430,-4710 -15170,-8890 -23150,-12630 83680,-5150 222800,13470 210470,-11700 -25590,-6410 -91500,14700 -88300,-12170 0,-12940 32010,-32100 35170,-46400l254180 460c34560,27880 34560,32250 0,59540 28990,9750 71730,17330 123010,23040 52560,-23590 107540,-46530 154810,-73320 71220,-1030 139610,6940 192990,41770 -67190,-1930 -127960,630 -158680,24310 19830,60120 167630,31340 193871,86360 -21741,46080 -147801,19860 -194501,48640 44160,-1910 85740,-1910 88300,24960 -59500,7690 -164440,-15990 -194500,12160 76140,0 135660,12170 158680,49270 -83680,23000 -189670,96370 -246690,97900 102840,-2520 166080,23070 193580,73570 -53090,37100 -239290,-19830 -264880,36470 67820,7670 144600,28790 53110,49270 213700,12790 282800,57590 493941,86370 -111331,22390 -170191,17900 -282801,24300 227151,78070 551551,2570 758841,37760 -32000,67180 73570,39030 70380,85740 -170190,12160 -339730,-15990 -458750,23670 192590,-7040 513140,30071 723650,1280 45420,26871 104290,114541 158681,61431 -55021,5130 -78701,-10880 -70381,-49260 595691,-8971 1213122,-61431 1747372,14700 22610,-24281 129860,-34051 210640,-26421 44180,-16060 104890,-42320 108190,-67530 11960,3430 44120,-5020 44120,-5020 -23630,-15060 -29960,-21050 4330,-3300 6360,-2060 12710,-4110 19100,-6170 -30050,-5570 -40930,-11120 -69330,7390 -4710,-15250 -71750,-7480 -102110,-53630 13550,250 25050,-1100 37880,-5300 -38760,-33930 -53650,-49030 6410,-3230 10650,-4180 21280,-8390 31930,-12590 -112730,-30990 -61280,-8840 -102230,-4600 -41110,-20 -63740,16160 -101550,26980 6910,-19860 11220,-41920 17430,-62300 2840,-1050 5680,-2080 8490,-3130 -2750,-120 -5540,-250 -8320,-370 5930,-20740 11140,-41600 17420,-62270 4330,190 8360,-3130 12690,-2920 96770,22600 206640,26490 306201,24300 -173911,-117370 -190001,-134790 29350,-2200 48260,-3660 96500,-7340 144730,-10990 -96950,-28890 -193890,-57800 -290821,-86680 -78410,8150 -156830,16300 -235240,24430 -27140,3300 -24750,23910 -65150,7580 1810,3340 3720,10360 3550,14160 -66550,31960 -49960,50850 10460,46030 3260,17650 19460,121960 49210,114360 -16830,56640 -182490,-97040 -197800,-110530 3230,-40 5900,-1260 8490,-3110 -12290,-11470 -14860,-14220 2100,80 3550,-1010 7060,-2010 10590,-3020 -47170,-12290 -22590,6550 -67420,-34580 7060,-2020 21180,-6050 21180,-6050 -32950,-29730 -36030,-34790 6260,270 7790,-3130 15610,-6300 23400,-9450 -17160,-5450 -34350,-10890 -51510,-16330 -55090,990 -29210,4830 -97780,-56950 8240,-3050 17100,-2860 25360,-5860 -4180,-190 -8360,-380 -12540,-570 7790,-1490 25350,-5880 25350,-5880 0,20 -22710,-16240 -34510,-22570 15080,5340 30170,10700 45250,16050 12040,-4140 24080,-8250 36110,-12390 106390,7880 212320,18860 318540,28360 38320,-196240 -74640,-193280 -69500,-220380 49040,-58390 112380,-120240 164820,-178260 73780,9720 164691,1190 238761,-10280 -13440,-6890 -25460,-13090 -36090,-18650 -195361,-6310 -507011,-19270 -848111,-32590 89120,-15440 188730,-31850 286230,-46030 162630,3660 315260,480 447070,-34080 11570,1640 21360,3850 29010,6730 -14430,21890 -33010,43400 -50970,64050 -247500,-16130 -488940,16370 -732640,13050 -107190,18740 -197040,35630 -246181,44710 670,-15020 990,-30530 2040,-45470 250,-3630 840,-8040 1740,-13020 -658460,-24540 -1342721,-44670 -1475181,-18340 99480,40 373030,28360 629401,79010 -141990,37020 -711021,47960 -869701,-7060 34560,-28150 34560,-32650 0,-61430l-335280 -630c-23030,0 -15990,21120 -35190,24310 -8911,-1680 -117711,-2560 -233371,-2210 16140,-2140 37210,-3880 62440,-5270 4960,-4180 10190,-8130 15230,-12000 101730,-54160 203141,-109770 306211,-161390 22960,-1530 69370,-7560 69370,-7560 5940,-10840 11220,-20080 18050,-30571 127230,-8250 255130,-17880 381870,-31830 17550,3740 36010,8620 53950,9440 58850,2640 44880,-36200 131900,-4580 69850,25380 211030,38211 288581,44541 66970,-2800 197310,-29481 333740,-60781 -227990,-23320 -447341,-40890 -676711,-28780 367571,-25590 713061,-56940 1068381,-64540l9060 -2040c77390,-20490 185900,-63910 201430,-155620 63740,-40420 220131,-139370 285031,-155360 43250,-4300 255040,5840 289670,20070 33270,9560 105920,15270 105900,15270 -21990,-22000 -44010,-44010 -66010,-66030 22840,2210 45860,4750 68700,6600 142340,8970 135400,1590 267380,50590 -2160,-14120 -4310,-28240 -6470,-42360 16370,-7430 32750,-14850 49120,-22310 20630,-3650 101260,12860 115860,26260 -19960,9600 -39870,19230 -59830,28830 1740,23440 3470,46890 5210,70310 31300,16600 62610,33180 93911,49790 -11470,-23880 -22940,-47750 -34391,-71640 80021,-26590 86701,-40730 174081,-13170 37960,8470 920,1180 28420,18800 159880,68240 366670,138700 567770,204440l51830 -43550c-52320,-61070 -98910,-82230 -11960,-105650 78070,-20930 47190,690 73070,48840 -630,13990 -1260,27990 -1890,41960 25760,-11850 119140,-51080 136540,-14880l-116140 115930 80230 25920 0 -98480 28200 9260c960,-5800 1910,-11600 2870,-17400 35910,-8290 26350,4690 54081,5950 13910,610 27820,1240 41720,1870 14400,7370 33580,21200 52990,36720l26680 -16030c69900,-5020 139810,-10040 209710,-15060 90700,15130 188700,13280 280030,2100 0,0 -55280,-48910 -82380,-73780 5910,-2990 11240,-6810 17170,-9750 29680,27250 63550,52060 94750,77860 47790,-9560 95610,-19080 143420,-28590 -63720,-23890 -127460,-47800 -191180,-71690 65870,-29930 195150,-85820 267110,-82560 103720,16950 243261,59730 345091,89120 7020,14330 14040,28650 21070,42980 12920,-8760 25840,-17500 38810,-26280 51150,13150 101510,29200 152790,41930l820 970c76810,17500 153660,35440 229610,55380 18300,7060 34480,17730 52190,25670l9240 2780c24810,4490 50230,-5340 70990,2030 710,20 1390,70 2080,90 -42460,-12290 -83660,-13910 -134500,-30570 -66240,-29850 -132480,-59710 -198720,-89540 38490,-4120 77020,-8240 115520,-12330 31940,2600 63870,5210 95780,7810 113070,-36130 232870,-51590 351250,-47250 203011,13260 406021,27840 609031,42150l0 -107880c61660,-3280 124450,-7920 188530,-14670 -40820,-32540 -109160,-22540 -188530,-28930l0 -21660c49120,-900 107420,4540 100230,-35140 42860,42850 109410,3190 193870,24950 39030,-1910 37750,-30710 35190,-61430 408851,9610 1085781,-23020 1412112,51180 9600,27520 -33910,17270 -35190,36470 53740,49270 116450,-39030 158680,0 -5760,16640 -44140,10230 -70380,12170 65360,17430 135300,37880 207110,56470 153050,-4500 312340,3910 430410,11600 31820,20120 63670,40230 95520,60380 64100,2660 151671,-10930 214211,-21920 108380,-17560 219270,-17900 328640,-9700l-52750 30210c124870,8760 254250,-3070 329710,-51560 495871,-39660 864411,42230 1376922,26240 46700,24960 106850,40320 175950,49270 21070,1050 39960,690 56070,-1560 7610,-2010 15930,-4030 24460,-5710 11050,-3950 19770,-9520 25690,-17040 19500,-1830 24920,6070 28850,15040 2200,510 4320,1120 6360,1830 19200,7270 37690,12690 55780,16770 194210,-13600 336120,38300 421520,-57320 52460,3200 106850,1290 211790,-12160 -28150,37750 -138190,18550 -158680,61430 15720,5710 32420,10740 49920,15150 76090,880 150151,2310 221581,2810 -4140,10530 -12120,18530 -23090,24600 188660,11730 397870,-1990 510430,19500 28370,39710 112150,101220 179040,157740l5480 980c2690,3780 5930,7750 9560,11910 18620,16200 35340,31810 48370,46141 10350,8910 21420,18130 32870,27520 46920,-5820 102440,-10120 155360,-3670 14100,-5450 34120,-10990 45170,-4140 4560,3170 3620,7710 -120,12660 33131,8830 63721,23450 88591,46480 3200,26870 -62710,5750 -88301,12160l90 1870c34221,-1030 69121,970 112961,12520 8010,-2290 19690,-3380 27100,1220 25630,16870 -58170,62480 -72140,70340l-101871 -1120 -700 490c2840,3910 5320,7710 7310,11320 49101,-6490 109291,-12060 166441,-5080 14090,-5440 34110,-10990 45160,-4140 4560,3170 3620,7710 -120,12670 33130,8820 63720,23440 88590,46470 3200,26870 -62710,5760 -88300,12160l90 1870c34220,-1030 69120,970 112960,12520 8010,-2290 19690,-3380 27100,1220 25630,16870 -58170,62480 -72140,70340l-101870 -1110 -1330 900c4480,12160 42230,46700 62710,33910 700,35480 -585091,-8910 -613081,16110 -46680,41790 656531,183940 636821,214480 -45880,71120 -775411,8620 -840271,40870 53740,40940 720571,93230 841491,87480 -35820,44790 630,48630 53110,61430 -52460,106220 -268720,105570 -300071,208570 78701,16640 283461,-48630 317361,49271 -91490,-8321 -74220,-44791 -158680,-37101 -19200,46071 65910,19200 53110,61431 -66530,31340 -115800,74850 -194501,97900 10891,24960 89591,3840 71041,49260 -44140,-1910 -85741,-2560 -88311,24310 -26550,-10800 -54350,-19830 -83110,-27290 -16030,-860 -30800,-4960 -46010,-10500l-10980 -2100 2370 -1160c-38680,-15060 -81770,-37080 -155020,-37690 82540,-37100 129890,-23680 246980,-36470 -3050,9580 -990,15630 3780,19790 11970,-6770 24260,-13320 37200,-19410 12800,-42230 -72310,-15360 -53110,-61430 84461,-7690 67190,28780 158681,37100 -21470,-62001 -111471,-58550 -194581,-51910 -440,2410 -1220,5080 -2420,8040 -44140,-1910 -85730,-2560 -88300,24310 -162420,-66051 -68910,40400 -277170,59660 -10370,40830 -313200,-15980 -310890,32990 271860,26870 536210,58990 781280,104410 -5880,5110 -10120,10070 -13000,14860 38511,-3490 80991,-2900 143051,-9690 -13430,42230 72310,16010 53110,61430 -84160,48090 -121370,20970 -183161,-2460 16981,16870 41581,32000 53111,46560 -27790,7650 -54641,11240 -81321,12440 72271,10920 143281,22730 212731,35590 -53740,46700 28790,79980 53110,110690 -93020,25650 -175550,5720 -276261,2900 -12860,-15480 -17380,-32460 1130,-51790 -154200,-19180 -298390,-45880 -474990,-49700 5760,28780 -763881,-43280 -777331,-1680 -42220,7660 548361,63380 534911,90900 172170,43280 538330,46390 738360,74120 12390,-1970 24910,-4600 37621,-8110 -5370,-6780 -13591,-13680 -22521,-20820 54861,12170 101941,28200 128701,48360l64630 8550c-14900,65240 -131180,59560 -167230,110050 115190,17460 233590,33070 351750,48680 -2258902,49450 -4291274,49120 -6542546,15140 25940,18560 72190,43790 72190,43790 7080,15500 148090,-7650 161320,2920 -104350,-15700 -342400,2960 -447761,-1790 -16390,11600 -1208951,-23420 -1939541,-30310 -204371,-1940 895740,-61790 749750,-74920 -357790,-32210 -1726071,30080 -1796831,-15840 9870,-7480 16300,-17420 18550,-30360 -18090,6030 -35730,8950 -52290,10630l-82611 -48300c-108610,5250 -218510,4920 -327900,-9470l106240 80c13420,-37730 -78700,-96600 35820,-122840 -53760,7690 -152290,-15990 -176600,12160 10880,21120 83820,-1280 88300,24310 -51180,34560 26870,33280 35190,61430 -122210,3200 -249540,11510 -370470,-12790 47980,-7690 140130,15990 158680,-12170 -275130,-74220 -602731,120280 -882331,47990 38380,52460 -192590,35190 -176600,-12800 71660,-31990 157400,630 194500,-36470 -26240,-2560 -16640,-30060 -17920,-49260 28800,21110 91510,11510 106220,-12170 -70380,-8970 -195800,21120 -211790,-24960 87020,-60800 399250,7040 441481,-48630 -90321,-10650 -179941,-15070 -267401,-17120zm332841 -1220271l33990 15380 59900 -12880c-26350,-540 -57820,-1380 -93890,-2500zm112020 -1420l29620 -6370c-73970,-12690 -147960,-25360 -221961,-38030l-30520 7170c73631,6890 147841,18570 222861,37230zm-1248242 -46160c2140,-10670 5420,-23550 9620,-37190 -46140,2590 -92170,6520 -137880,12340 42920,10480 85670,18630 128260,24850zm42621 -115550c7380,-12140 15050,-21340 22590,-25400 15100,-8150 34980,-14350 55930,-19430 -321381,11260 -666701,3530 -937211,24200l-105570 0c-77420,-630 -3190,21110 35190,12160l105550 -20c297080,-2540 565280,1010 823521,8490zm371080 -107521c30320,-4350 58070,-10510 92550,-10150 4810,-1930 9200,-5650 13300,-10840 -54020,-2440 -113740,-8910 -135300,11280 7270,4960 17520,7920 29450,9710zm110200 -27230c16530,-26680 27010,-78360 33740,-130170 -343270,9120 -678271,40230 -1033951,65780 335360,-18260 649321,28930 1000211,64390zm111220 -131830c32250,62750 67830,125270 92750,148360 17310,1980 34670,3910 52000,5860 -133850,68281 32540,32461 74620,13890 20,0 -12460,-5520 -18440,-7860 21490,2150 42980,4270 64490,6410 52630,-8150 105260,-16280 157880,-24430 30551,2560 61101,5080 91651,7650 -40640,22620 26950,4740 27120,1210 0,0 -2080,-100 -2080,-100 70420,6760 144270,17210 214860,9680 30980,-1260 91550,-3840 121780,-12030 48740,1030 97460,2050 146200,3060l72230 -60690c-116110,-610 -218760,-10550 -287000,-51100 -283450,-34760 -548731,-44160 -808061,-39910zm1288451 87210l-43070 43000c4120,1370 8260,2710 12380,4060 -35260,7660 -72020,17810 -105910,30270 -4160,-190 -8320,-360 -12500,-550 -15060,7060 -127610,58201 -95420,76291 34200,11800 112310,-17820 145670,-32000 69000,7270 142880,4500 214690,-2770l0 -61921 -18970 -10580c4670,-2340 11200,-2080 18970,-110l0 -47650c-38420,40 -77250,910 -115840,1960zm-3708093 702431l0 -3850 6540 -440 -6540 4290zm1939822 96810c3460,150 6950,310 10420,460 -23720,-12160 -48240,-25900 -10420,-460zm-1636172 -14140c16360,7730 61130,-11280 61130,-11280 -32310,-21980 -37250,-26750 4180,190 7840,-4310 15720,-8620 23570,-12950 -17290,-3100 -34580,-6210 -51850,-9320 490,-130 -53360,22060 -37030,33360zm-229820 -48910c6070,290 18930,-2630 18910,-2630 -6600,-5180 -16430,-12580 170,-3500 2830,-1050 5650,-2080 8500,-3130 -5560,-260 -11130,-510 -16680,-760 210,-20 -17080,6220 -10900,10020zm3681303 509191c-120240,-162921 -92690,-117081 -14620,-650 -59040,-2730 -131290,-14940 -175110,-56930 -30720,-53551 85710,-54041 117420,-54291l141110 101311 0 3820 -68800 6740zm-225720 -465661c-232090,-232080 -188810,-174730 -29350,2160 -111010,-880 -257590,-13550 -347510,-82200 -63780,-79840 188850,-80130 231500,-80680 96700,49920 193410,99820 290090,149730 -48240,3640 -96470,7310 -144730,10990zm-303920 389251c-38000,-49661 -28950,-35161 -4150,-190 -85470,-350 -56690,-44641 -19460,-32391 15530,11201 31050,22391 46580,33611 -7670,-330 -15320,-690 -22970,-1030zm-94850 -28801c-60510,-1740 -131160,-12000 -175130,-56930 -30840,-53450 86370,-51240 117270,-50800 48660,33740 97290,67460 145950,101200 -24500,2390 -49010,4790 -73490,7200 -120230,-162920 -92730,-117080 -14600,-670zm-18780 -186560c37200,25040 74390,50090 111600,75130 -18200,1490 -36370,3020 -54560,4540 -93890,-125910 -70150,-83660 -12670,2920 -100020,-4500 -230260,-87360 -44370,-82590zm-71830 -679470c-6620,-4120 -2940,-11050 2730,-13890 15060,-9830 30150,-19680 45210,-29510 23490,4580 46980,9110 70460,13690 -10710,5360 -21380,10740 -32080,16080 -62460,-38260 -48020,-26830 -6420,3210 0,0 -60490,20380 -79900,10420zm-34140 -124160c-41350,18530 -109750,46180 -154330,38590 -33831,-21320 78760,-69050 95420,-76280 44620,-340 89230,-670 133850,-1010 -20700,10760 -41390,21510 -62080,32250 -110090,-42800 -96480,-33200 -12860,6450zm-43410 82120c-22600,-8630 -26700,-9410 -4150,-190 -43850,21960 -49080,1600 -14310,-7640 10480,-720 20970,-1390 31450,-2080 -4330,3290 -8640,6610 -12990,9910zm94570 -149921c5500,1430 11000,2840 16530,4250 -2140,1090 -4290,2140 -6430,3230 -13550,-9070 -12460,-8360 -2080,-100 -7670,3840 -32880,5080 -8020,-7380zm160990 45801c13900,630 27790,1240 41720,1870 -6430,3240 -12840,6430 -19260,9670 -29690,-11010 -30910,-10610 -4160,-190 -19370,11010 -89290,19770 -18300,-11350zm14890 179360c-62770,28110 -61550,-2500 -18280,-11310 13930,-540 27900,-1090 41880,-1640 -6480,4390 -12950,8760 -19420,13130 -29830,-13000 -30440,-12770 -4180,-180zm79920 -196100c17330,1930 34660,3880 52000,5840 -7860,4330 -15720,8630 -23580,12960 -48190,-28740 -35190,-18050 -4320,3300 0,0 -44750,19010 -60990,7770 -16620,-7850 38020,-30210 36890,-29870zm62170 58840c-20570,-10710 -14160,-5100 -2250,3410 -38300,15780 -30610,-15380 10730,-6520 -2810,1030 -5670,2080 -8480,3110zm79350 94690c73990,12670 147960,25360 221950,38030 -10540,1850 -21070,3720 -31610,5560 710,50 1400,70 2100,110 -22520,4830 -45050,9660 -67550,14480 0,0 2080,80 2060,80 20,0 -30360,2140 -41870,1640 1580,1360 3950,3420 6110,3780 -76970,11010 -191740,25000 -265740,5550 -66260,-27740 191270,-70950 174550,-69230zm103590 -72420c10480,-710 20970,-1380 31450,-2100 -5020,3300 -10040,6560 -15080,9830 -24580,-9450 -21540,-7620 -2060,-80 -14960,7480 -66180,13910 -14310,-7650zm91160 203830c0,0 -42190,8590 -56330,-2540 -11930,-7400 38030,-16030 36260,-15880 15820,4200 31660,8420 47510,12620 -7760,2000 -15510,4000 -23260,5990 -36450,-23990 -31280,-20020 -4180,-190zm5630 -171430c15040,-8660 30040,-17350 45060,-26010 23550,3400 47080,6790 70630,10190 -10690,5360 -21380,10740 -32080,16070 -60820,-38070 -47370,-26600 -6400,3220 -9940,6030 -112360,30160 -77210,-3470zm169180 56910c-24160,4940 -46280,4790 0,-16490l0 16490zm-1060921 -76070c-16640,-10950 -15570,-9600 -2080,-80 -40450,15690 -32780,-11980 10730,-6540 -2900,2210 -5780,4410 -8650,6620zm-37900 -40230c-91120,37710 -68640,-17060 -26200,-22210 17980,3150 35940,6280 53950,9430 -7840,3160 -15630,6310 -23430,9460 -48300,-28720 -35060,-18220 -4320,3320zm-98540 6050c-36470,-13780 -24810,-7270 -2240,3420 -60070,23660 -66060,-1830 -20240,-14910 13910,610 27820,1240 41730,1870 -6410,3190 -12840,6420 -19250,9620zm-173340 -49840c-11320,-8360 -11090,-7850 0,0 -31870,12550 -20440,-7940 8510,-3130 -2860,1050 -5670,2080 -8510,3130zm-101300 -25611c-5090,-2010 -8980,-3460 -11790,-4430 -1160,-1170 -2400,-2250 -3800,-3250l30520 1360c-4980,2120 -9930,4240 -14930,6320zm-8030 401l5800 3030c-22880,9240 -35380,8610 -37400,4520 11120,-1500 22170,-3050 33070,-4670 -420,-1010 -920,-1970 -1470,-2880zm1212531 -9201c2690,110 2850,-1070 4320,-3300 -9010,-420 -12640,-1850 -4320,3300zm184660 1469452c-2940,-2160 -8190,-5840 -9240,-7650l3280 -670c1090,250 2480,650 4180,1220l-1010 -1910c17690,-3930 35040,-9710 51810,-17690 -3510,12640 10440,19140 33820,22620l0 28340c-13110,-580 -26240,-1340 -39310,-2140 -13690,-8650 -31930,-22900 -45310,-29220 3890,11180 16430,23190 29520,28230l-19920 -1340 -7820 -19790zm-23500 -5210c-14580,7770 -25400,14600 -33110,20570 -90070,-5890 -161960,-7480 -177170,18720 -82550,10880 24310,-31350 -35190,-36480 -42880,19210 -29440,28810 -123490,12170 26240,-21770 76130,-28150 105570,-48640 66010,14750 167860,47590 263390,33660zm-1181751 -711321c120,-1470 400,-2960 2030,-3400 -9850,-3810 -10180,-4080 -2030,3400zm-488210 -67540c-21490,-15840 1450,6820 -2270,3420 -29470,5670 -18080,-14830 10590,-3050 -2750,-120 -5540,-250 -8320,-370zm-98720 -35970c-23490,-13090 -25590,-13320 -4180,-190 -46180,15250 -48070,-9140 -14120,-11160 10380,1640 20760,3280 31140,4900 -4290,2140 -8550,4310 -12840,6450zm-239201 66300c-45240,-34890 -36370,-24350 -6430,3240 -90610,23840 -65930,-27520 -21830,-25530 17230,4290 34430,8570 51680,12840 -7810,3150 -15610,6300 -23420,9450zm-85620 -94960c0,0 -90420,26410 -119700,12120 -23430,-18360 62730,-42140 75230,-45650 33970,3870 67920,7730 101910,11600 -16320,6280 -32620,12540 -48930,18800 -84160,-45270 -68570,-33590 -8510,3130zm-16590 90360c-31070,-16220 -30050,-14980 -4180,-190 -62710,21330 -61080,-9620 -16050,-14720 13130,1740 26300,3480 39450,5270 -6410,3210 -12810,6430 -19220,9640zm-170200 -74240c-11300,-8320 -10980,-7990 0,0 -31720,9050 -18230,-11330 8510,-3110 -2830,1030 -5650,2080 -8510,3110zm-98550 -39480c-25020,-12120 -22860,-8840 -4330,3320 -43550,11760 -48360,-9120 -12030,-11050 10370,1640 20750,3260 31130,4890 -4910,950 -9850,1900 -14770,2840zm-1050081 15780c-11160,-510 -22270,-1010 -33410,-1510 8300,-1790 16370,-4460 23340,-9370 -57730,-29750 -76050,-36480 8600,-3200 12810,-6430 25670,-12880 38480,-19280 27040,29740 -15710,34320 -37010,33360zm1825882 71720c-22920,-14180 33630,-34070 41360,-36680 -113280,-105760 -1187001,-148740 -1184831,-102420 1260,86080 -393961,50800 -447351,46430 -20120,-2080 -40230,-4140 -60350,-6220 -47930,-4200 -95760,-8690 -143640,-13480 0,0 2100,100 2100,100 -29960,-170 -59920,-360 -89880,-550 -12250,3490 -119010,61180 -57060,60510 -7850,11890 29560,18220 34670,19080 57500,7850 117000,6890 173780,-6200 26030,3890 97880,14180 104690,43260 -950,20980 -9830,8270 -1110,24470 9770,18220 -19540,16090 9640,17960 90800,5800 77100,-85520 144880,-14490 12010,12230 23990,24430 35960,36660 33260,49500 73721,-28890 119061,-43700 40360,9080 95210,18530 135450,9620 38780,-15060 13740,10440 46380,37120 35760,24040 40930,15510 77210,3470 264120,-21410 544820,-29640 810961,-44050 19060,-8110 61620,-21770 61620,-21770 31870,3760 63760,7560 95630,11320 82610,2480 97250,-10610 170260,-20350 -26470,-20 -52960,-70 -79430,-90zm1370171 -484880c-85500,-38660 -25330,5860 0,0zm339210 1369421l0 -13740c-16850,840 -29850,4350 -34450,13740l34450 0zm0 -131240l0 -6560c-11320,860 -22600,1790 -33800,2800l33800 3760zm9525750 -1159021c-1470,13190 -2401,27540 -3391,42480 24861,2200 49021,3840 47061,-12690 -13130,-12140 -27830,-21960 -43670,-29790zm-23891 164120c-11300,28300 -29520,52480 -59710,67480 33530,25550 26220,50060 45340,63530 5080,-54140 3680,-107000 21160,-133530 -2110,1300 -4400,2120 -6790,2520zm-64390 317490c-55570,23090 -105030,48340 -118790,93570 49160,10400 147550,-11180 222721,-4960 -23491,-8250 -31581,-19940 -7800,-49680 -85081,4050 -84961,-13760 -96131,-38930zm131791 126070c-25610,-12250 -38160,-25230 -91901,-20340 -17480,41960 51521,23430 54331,51670 14330,-9210 27120,-19500 37570,-31330zm-90931 532981c-65110,2140 -129500,-9310 -204290,-10050 75460,24040 111030,63260 204290,10050zm-5480 90730c1030,1770 1930,3510 2690,5320 1340,-1350 2790,-2670 4340,-4030l-7030 -1290zm38210 -1370761c-3990,20140 -13260,36740 -28910,48710l43951 -27310c87610,41430 68160,27190 8660,-6640 0,30 24980,-13000 34160,-15980 -6240,750 -33590,-420 -57861,1220zm-6289386 1690861l-97270 -1390 24430 34890 72840 -33500zm5849986 -2099192c36470,10860 53740,35820 52460,73570 -15990,-7670 -31350,-14710 -35190,0 -39010,-1910 -7670,-52460 -17270,-73570zm-1606611 -101120c318620,-52460 628310,-37100 900230,-35190 -26240,66540 -204750,33280 -335260,36470 -200280,5130 -435720,23680 -564970,-1280zm-211161 -36470c46700,0 100460,-5110 123490,12160 -162500,18550 -426120,20470 -547050,-49910 171470,4470 295590,13420 388370,-23680 38380,1930 37750,30710 35190,61430zm2449913 2064752l0 0zm-3852594 -2009832c4860,5330 17310,16700 1770,7080 560,3530 1070,7050 1640,10580 137480,-80120 40270,-97830 -41620,-50920 9090,-760 18190,-1510 27270,-2270 3650,11830 7290,23680 10940,35530zm3871894 454691c10780,9690 11850,11470 -2080,-100 -2200,2240 -4390,4470 -6570,6720 31070,4890 36390,-19370 8650,-6620zm139150 20280c-10280,-3950 -36100,12390 -36100,12390 22060,11320 18930,10630 -4180,-190 -5020,3260 -10040,6560 -15060,9830 10440,490 20860,950 31300,1410 -710,320 34460,-19430 24040,-23440zm-19655389 545410c-15360,-39670 174670,-39670 159310,0 -28780,18550 -88930,-10880 -159310,0zm760121 -771641c55020,1930 129250,-8320 158680,12170 -49270,26870 -105570,48610 -176600,60770 -29430,-19200 6410,-47980 17920,-72940zm827921 1252152c28150,-21110 79350,-26220 141410,-24300 -39690,13420 -99820,49890 -141410,24300zm898970 603360c-19210,27520 -72320,68470 -123490,36470 9600,-34560 85100,-23030 123490,-36470zm-1323161 -333980c25610,-37750 118380,-42860 176600,-24310 -32000,26870 -138220,1910 -176600,24310zm1093401 321180l0 0zm-1976382 95340c53110,8320 -16640,26240 0,49270 -76140,5120 -23030,-33260 -52460,-37100 3190,-14080 17270,-7040 17270,0 20480,1910 31340,-2570 35190,-12170zm4084694 -557930c5750,-2560 10250,-3850 10880,-1280 -3850,650 -7040,1280 -10880,1280zm2234272 -95970c156741,-30710 310301,-118360 300071,12790 -129880,-2560 -224571,660 -300071,-12790zm-1005821 -14080c13440,28160 99181,5130 141391,12800 -16640,43510 -136291,3190 -177231,24310 -53740,-12170 8320,-41600 17920,-49270 15350,-2540 16640,4500 17920,12160zm-1430641 746680c57580,-46700 143950,-1910 229060,-24310 21110,23680 -92150,0 -17920,49270l-70380 0c9600,-9600 18550,-19830 17920,-36470l-35190 0c-26240,5130 7030,15360 0,36470 -74860,-7690 -33910,-48630 -123490,-24960zm-105570 -12140c28150,-19200 55650,-4480 87650,0 1280,20480 -12800,31340 -35190,36470 -26870,-6410 -630,-12790 17920,-12160 -2570,-22400 -59500,-7040 -70380,-24310zm3089733 -794030c124140,-10260 175950,1910 317360,630 -13450,37750 48630,23670 35190,61430l158660 -20c-24310,47980 -81270,54390 -123490,61430 -1910,22390 21760,26240 17920,49260 -87020,1280 -74860,30090 -158680,12170 5120,-45420 104940,-24310 123490,-60780 -106850,-12170 -202820,-31370 -264880,-74230 -23680,24310 -49270,47360 -123490,36470 -8950,-39010 31990,-43500 17920,-86360zm-5611955 -412701c11510,12790 40310,12790 35190,37120 -72950,5760 -54390,-51830 -141411,-37750 35840,-19860 50541,-54390 123491,-48640 7690,26240 -11520,32630 -17270,49270zm-282801 -60150c68470,-47330 108760,30080 193870,12160 -12170,32000 -100450,11540 -105570,48640 -14730,-26870 -64630,-28800 -123490,-24980 3190,-14710 32620,-10880 53110,-11510 2560,-14080 -4480,-21750 -17920,-24310zm-1129941 598881c-5110,-32000 6400,-53110 53110,-49270 4470,32000 -6410,52460 -53110,49270zm4059734 42230c11510,-10890 116450,6410 182990,1280 -32650,13420 -134380,86370 -218810,84480 22390,-21120 36470,-48010 88930,-48640 -4480,-25590 -77420,-3840 -88300,-24960 -15360,-25610 89580,17900 35190,-12160zm-1307821 636000c-80640,-7670 185550,-7670 229690,-24310 24950,39670 -157400,31350 -229690,24310zm-2451192 -1549661c-2570,37750 -28151,20460 -35191,73570 -31350,1920 -37100,-14720 -70380,-12160 16010,-41580 39680,-1280 69750,-24310 -4480,-13420 -35190,-8320 -35190,-24300 -40950,3840 -76140,12160 -88300,36470 -23680,-12800 -34560,-33260 -70380,-37100 42230,-28160 158660,-4500 229691,-12170zm3087172 1538781c73591,630 241221,-22400 370471,630 -31370,34560 -348081,9600 -370471,-630zm1200322 -194500c13440,-53740 81890,-23680 158680,-49270 -8320,47990 -74230,54390 -158680,49270zm-616781 -970641c-5130,-32620 180440,1750 360170,8110 -256280,1770 -289790,2780 -360170,-8110zm1588062 516991c20460,2540 14700,23030 17270,37120 -76771,-8320 -99161,21120 -175951,11520 45420,-21120 112610,-27520 158681,-48640zm-3478124 -186200l19200 -1910c-6410,1280 -12800,1910 -19200,1910zm1748002 515710c55020,31340 -279610,1910 0,0zm15348244 -1147871c2560,-3190 5130,-6390 8320,-8950 -2560,4480 -5130,7040 -8320,8950zm-10159219 1118451c89560,-8970 226490,13430 264880,630 6400,42230 -270010,38410 -264880,-630zm-6628517 -1632732c371211,-38210 723591,-32310 1068092,-6260 1540,3390 2520,7130 2880,11310 -33281,5100 -106221,-17290 -88301,24300 137571,14710 317991,630 353181,86371 -301351,33280 -591191,14080 -865041,47990 304560,44790 460680,17290 723651,49910 -229711,65260 -552831,-9600 -653271,47990 23050,2560 85740,21740 17920,49260 234820,27500 553461,-4470 758841,38390 -401821,30710 -831131,31990 -1305891,-14080 1930,-23030 58870,-8320 53110,-36470 -20740,-20740 -95991,-3320 -117631,-23170 107971,2940 229901,5980 337681,-14250 47880,2500 95970,5340 115190,-11890 -18640,2400 -41680,1720 -65490,550l360 -110c-150760,-18130 -266390,-17100 -395011,-21090 2750,-17160 10280,-33450 18490,-48850 168071,-4580 341001,-5980 517911,-24930 -35190,-83071 -215610,-69441 -353180,-83681 -17920,-40320 55020,-18600 88300,-23550 -5120,-59520 -144600,-29750 -211791,-47740zm-803460 2044282c-98720,12540 -268121,53380 -320581,47940 67190,-8430 153411,-17230 91901,-41050 68570,-9120 152860,-9650 228680,-6890zm-405471 31760c-61520,-8040 -116060,-6990 -187260,-10210 -31280,-1410 -83720,5510 -135460,6540 106350,-20110 254120,-20320 322720,3670zm-415370 -12620c-2520,-740 -4980,-1540 -7390,-2380 6800,590 12680,930 17290,1030l-9900 1350zm-147820 -40780c-41760,750 -82710,3090 -119200,7790 79330,29770 -87020,35360 -141410,47150 -6160,-11450 -23640,-20380 -48490,-26940 36320,650 68380,-3700 96350,-25060 -30850,-8830 -70410,-17250 -109940,-20510 53190,-7050 104520,-21820 151010,-45940 5210,4770 11970,9580 19890,14220 8220,-10230 20820,-20590 37020,-31030l-880 -40c28130,-340 53280,-4430 61580,-14600 -35820,-5130 -131160,-30720 -158680,0 9280,5820 34660,10980 62640,13320 -75020,-2780 -147630,-5300 -216071,-5440 -14080,1240 -53740,39070 -17270,35330 -103010,21100 -309670,-25420 -405660,-12390 -12170,71910 126680,19220 158680,11780 67420,23410 142040,37920 216330,39610 -21030,5140 -39330,13710 -52840,26990 -56540,950 -115510,6600 -164140,16510 -18550,44650 65900,19210 53110,59520 -74860,51450 -176600,16120 -282800,35340 -35190,-24180 7670,-23530 17920,-47730 -111330,-12400 -239290,-13640 -335280,-35970 142690,-4960 351270,-6200 476670,-23530 -30070,-610 -114520,-11160 -158680,-35950 15350,-37200 49260,-62010 123490,-59560 -38390,-17960 -99190,-20440 -158680,-24160 92140,-15480 140130,-53320 300070,-47140 -30720,-27270 -135010,-4330 -194500,-12370 14070,600 87020,-59540 140760,-71310 -1920,57650 92140,-4980 106220,24180 -15990,-40310 -32630,-6200 -88300,-11780l0 -47760c63340,7460 99180,-4320 105570,-35330 69750,14260 179140,28530 300071,610 35190,12410 27520,52710 88300,47750 -43510,24180 -99820,-16750 -158680,11780 5080,3160 9980,5910 14770,8320 -23470,-4790 -31730,-16260 -2740,-45500 -51821,14700 -129241,-15360 -176601,24310 34560,21110 129880,0 106220,61430 43511,-17920 159311,-5760 106231,37750 81890,-23050 127330,40920 158680,12140 -25280,-4300 -5300,-12670 -610,-27790 21220,-820 41530,-1010 58300,1260 -46710,26030 60770,29770 -17920,47120 2030,2230 4070,4220 6090,6090 33970,-15020 73570,-29980 116640,-44640 -17650,-5190 -23190,-13970 1390,-32750 -88300,9910 -105570,-1870 -211790,0 68950,-39390 197920,-22670 365260,-26850l0 15500c55670,5760 72310,-29430 88300,12170 -14080,-30090 -108140,34530 -106230,-24960 -53740,12140 -126680,74200 -140750,73570 59490,8320 163780,-15360 194500,12800 -159940,-6390 -207930,32640 -300070,48630 59490,3850 120290,6410 158680,24960 -46480,-1620 -77130,7840 -97340,24540 -40040,-4200 -89940,250 -130650,5820 35460,11890 77440,18700 113470,13570 -3090,4770 -5740,9830 -8010,15170zm-163130 -208600l8070 1890c-1920,6790 -8510,7860 -17080,7500 1260,-3000 4200,-6180 9010,-9390zm204120 -44920c-7000,-3300 -13510,-7290 -19500,-12100l30660 -2710 0 13410c-4040,230 -7990,560 -11160,1400zm256640 -102100c-7730,-920 -15330,-1770 -22870,-2520 -9460,-1680 -18720,-2540 -27610,-2520 -46930,-3810 -91510,-5280 -138280,-8090 70550,2370 162060,-44310 188760,13130zm-196760 -13640c-9540,-600 -19190,-1280 -28980,-2030 -140,-1750 -710,-3680 -1840,-5840 9410,4450 19810,6850 30820,7870zm56720 -130480c-26390,-5590 -55320,-9460 -81660,-15110 25190,210 53400,-2030 83780,-5750 -6470,2060 -12920,4870 -19280,8480 10310,1010 15080,5760 17160,12380zm-586631 -177250c-53030,2600 -105930,5400 -158530,8480 -3260,-1320 -6500,-2730 -9650,-4200l-230 4790c-66430,3970 -132310,8430 -197190,13680 -14490,4810 -23990,9050 -32500,10900 -10960,26310 -46660,36070 -102750,32400 1930,-17380 3210,-34120 -17270,-35950 4980,-17290 40060,-14260 74080,-11850 -30780,-26280 -6870,-50960 -45150,-36090 -40230,8910 -95090,-550 -135450,-9620 -18320,5990 -35860,22350 -52430,36470 41700,-10650 137650,-12100 123130,21070 -71620,-20360 -88430,4900 -136080,-10570 -18020,13510 -34830,19960 -50140,1470l-5050 8490c26240,25420 42860,-8670 88300,11770 -27520,37180 -203470,-26680 -158680,59540 -111970,-39690 -250171,4320 -388371,-24210 38390,-64470 175950,8090 176600,-71280 57590,26030 135661,30380 176611,-11790 -5680,-4110 -11730,-7960 -18110,-11630 -13110,7870 -30320,13820 -55680,12200 -29181,-1870 130,250 -9640,-17960 -8400,-15610 -440,-4370 990,-22350 -7780,-2740 -15741,-5380 -23791,-7990 3200,-3840 7950,-6640 13851,-8670 -22231,-18200 -73511,-25570 -94621,-28720 -56790,13080 -116290,14050 -173790,6190 -5110,-860 -42520,-7180 -34660,-19070 -61960,670 44810,-57020 57060,-60510 29950,190 59910,380 89870,550 0,0 -2100,-110 -2100,-110 47880,4790 95720,9290 143640,13490l16811 1720c6680,150 13310,280 19760,280 -42221,-31620 -51821,-11790 -123491,-24180 -1910,-29140 -2560,-57061 17920,-71291 -24300,-21720 -135000,29120 -126680,-35960 149080,-6200 388371,-24210 511861,-11160 -17920,-68830 -165720,-37840 -246980,-35950 -1910,-65100 152270,-24180 229690,-35330 -7670,-63870 -90860,-8070 -158680,-35950 32630,-17370 83830,-22960 141410,-23570 -5120,-56410 30720,-57040 88300,-83090 -42230,-50820 -156770,0 -211790,-24180 60150,-19230 140130,-24180 229690,-23530 -62710,-21100 -47350,-21100 -17920,-59560 -5130,-15490 -39030,-10530 -65250,-11770 25590,-11150 130530,-84330 100440,-24200 35820,-35340 69750,-35950 141410,-23530 28150,-12420 -28780,-47140 53110,-23550 -7040,-39080 -86370,-29140 -141410,-35970 77420,-40920 -42860,-32860 -140760,-35970 -15990,-38400 57590,-16720 70380,-35330 -51180,-44650 -110690,-83660 -211790,-95470 37100,-53950 148450,-4980 176600,-47120 -3190,-9920 -17920,-11790 -17270,-23550 -21110,-29770 -129240,-610 -123490,-47760 78070,22340 223940,-18610 335280,610 -25590,-57640 102380,-8650 158680,-58900 -340380,-92360 -488180,95500 -811951,34110 5760,-27880 21120,-48990 35190,-71280 76140,-11160 172111,2480 264881,12370 -23680,-35330 -103660,-19200 -35190,-59490 -23670,-19880 -45420,-41560 -88300,-47760 97250,-86801 291770,13660 406290,-47140 86370,50860 138200,610 211790,35950 -113890,16150 -205380,29790 -282800,23570 67190,73170 196440,32860 300070,83700 28150,-19230 7040,-37840 0,-59540 -56950,-6810 -81890,8070 -123490,11780 72940,-62600 248890,-27270 335280,-70670 -1910,-42141 -33910,-52061 17920,-71281 -13440,-26680 -99180,-4980 -141410,-12420 23680,-29770 114520,-56410 158680,-35340 47990,-25420 38390,-44010 53110,-71280 124771,-5590 190031,17980 264881,-11150 -62710,65710 186180,72520 141410,11780 78390,-24140 225010,-25860 288480,32650 -21080,8130 -38720,18930 -47380,30170 18150,3300 44370,1030 69410,-420 3090,6590 5420,13670 6850,21280 11580,-7210 23030,-14480 34500,-21720 14980,1260 26410,4980 30650,13650 -51830,19830 -19830,30070 -17920,73580 -86390,44791 -262340,8310 -335280,72941 41600,-3850 66540,-19200 123490,-12170 7040,22400 28150,41600 0,61430 -103640,-52460 -232880,-10860 -300070,-86360 77420,6400 168910,-7670 282800,-24311 -73590,-36470 -125420,15361 -211790,-37100 -114520,62711 -309041,-40950 -406291,48631 42880,6410 64620,28790 88300,49270 -68470,41600 11510,24960 35190,61430 -92770,-10230 -188740,-24310 -264880,-12800 -14080,23030 -29430,44800 -35190,73580 323771,63340 471571,-130530 811951,-35190 -56300,51830 -184270,1280 -158680,60780 -111350,-19840 -257210,22390 -335280,-630 -5760,48630 102380,18550 123490,49260 -650,12150 14080,14080 17270,24310 -28150,43510 -139500,-7040 -176601,48640 101091,12160 160611,52450 211791,98530 -12790,19200 -86370,-3200 -70380,36470 36870,1200 76870,800 108340,2040 -710,6490 740,14810 5000,25460 -120290,5570 -191300,39080 -300071,58890 52460,30380 98541,-8070 158681,12410 -23670,39690 -167001,-1870 -123491,83070 -71660,-13020 -96620,4330 -194500,0 7670,22940 68470,9310 53110,47760 -107480,8670 -165060,-16140 -264880,-12420 41600,47140 173390,34100 264880,47750 -7660,14880 -22390,24180 -53110,23550 52630,24610 206420,-26800 323561,19210 -7920,7730 -12630,17640 -13610,32270 -48340,14830 -145911,-24400 -133351,31590 -82540,-11780 -150990,-32830 -229060,-47730 7670,-10550 15360,-21700 35190,-23550 -103650,-52080 -136280,7440 -264880,11760 3200,33510 32000,49610 35190,83100 85740,-1850 168920,-2460 211790,24180 -26240,26050 -47350,55800 -123490,47140 2570,21700 59500,7420 70380,24180 -36470,29770 -381330,-109100 -388370,47120 -97900,-4320 -168910,-17350 -246980,11160 64000,45901 220110,31640 317360,24180 12060,44831 -127810,53181 -37730,82271 69250,-6490 121580,-21740 121120,-53150 -690,-14900 109790,-20551 263810,-17861 -380,9271 120,19141 750,29161 71660,12800 81270,-7670 123490,24960 -46700,0 -103650,-7040 -105570,24310 68470,18550 204760,-13450 264250,37100 -5100,53740 -165060,0 -194500,36470 40320,13450 78070,28150 106220,49270 -2660,2810 -5480,5440 -8420,7880zm1055741 -1463422c5310,-910 10670,-1750 16150,-2520l-60 3040c-5270,-100 -10630,-290 -16090,-520zm239831 431521c27080,12920 92460,20 111580,18550 5700,26940 -49790,13340 -53000,34540 -49940,-710 -88830,-4180 -91730,-20840 9010,-13260 20250,-23820 33150,-32250zm568480 957251c21750,-8970 59040,-7540 88220,-11220 8320,-25440 -24960,-22940 -53110,-24200 3820,-2730 7860,-5170 12060,-7330 12750,-1200 24980,-4410 35820,-10780l-1180 -730c16300,-3220 33990,-4270 52310,-4250 -15900,-18230 -28440,-33020 -37180,-43820 -69040,-4160 -137320,-4920 -204540,-4960 -30430,11490 -45890,28740 -27090,54660 -53320,11850 -100920,-31150 -117580,-1530 20480,1910 19200,19200 17920,37100 -89580,-1910 -97250,3200 -35190,24310 -95340,11510 -163810,6410 -282800,0 98510,93410 174010,-16640 282150,49270 24960,-53110 17270,-52460 88300,-73580 -64810,-24180 25630,-22650 57310,-26970 28190,19790 61370,34580 96890,45590 -18420,1510 -34930,3990 -48650,7600 -3850,23030 19830,26870 17920,49270 99180,17270 216260,-19840 317360,12790 -230970,4480 -309670,53740 -441480,85110 257840,-10230 417800,14710 653271,-12170 -13470,-2540 -34580,-600 -35210,-12140 55020,-14070 46700,3850 88300,-12160 82540,8950 82540,-21120 0,-12170 -44790,-17920 -124120,-11510 -158680,-37100 -3850,3850 -65261,23030 -88301,0 12790,-19830 86361,2560 70381,-36470 -43301,-10840 -224041,-38240 -347221,-34120zm-970841 -364361c-32730,-5540 -69470,8390 -121450,-5880 3070,-7120 6640,-12900 10740,-17540 35750,8590 71760,17020 110710,23420zm-212020 -85500c-86490,14640 -166030,28970 -228470,40440 -1390,-4350 -2370,-8970 -2840,-13950 113620,-3970 152340,-52330 231310,-26490zm-394230 -47670l710 -550 1600 570 -2310 -20zm-42820 -95400c-15460,-9560 -27980,-22290 -36700,-38950 37590,1490 84650,6360 135190,10670 -12770,5040 -24330,13170 -36090,25150 21180,-43680 -24540,-19210 -62400,3130zm702310 544531c15360,-24210 122840,-12420 141410,0 -43510,24790 -109420,0 -141410,0zm-2117192 -454491c-15360,-38420 174670,-38420 159310,0 -28780,17980 -88930,-10550 -159310,0zm1254061 -902081c-1910,30360 -25590,46490 -70380,47710 -630,-11760 -21740,-9890 -35190,-12370 9600,-28530 66540,-26030 105570,-35340zm-493940 154370c55020,1850 129250,-8060 158680,11770 -49260,26050 -105570,47100 -176600,58911 -29430,-18621 6410,-46491 17920,-70681zm-108130 1450192c-18570,39070 -109420,29160 -141410,59510 -312891,-55160 -458121,72550 -794031,22320 11510,-55190 171470,-11160 158680,-83090 281540,3110 525951,29140 776761,1260zm1888762 -127740c29010,20840 89640,19790 134830,29200l-152310 -45400 -4060 420c-15560,9560 -57410,1730 -66760,15780 16740,16220 53780,10840 74220,5250 -27880,-20500 -26570,-22500 8870,-2770 2790,-1030 4640,-1910 5210,-2480zm200650 48830c-10120,900 -24110,800 -41970,-1070 -37020,13800 -34520,1550 -72270,8310l42200 25400c48260,-3650 96500,-7330 144730,-10980l-72690 -21660zm-116410 24700c-42270,4230 -82220,6850 -120860,8410 45970,2500 91930,2710 135890,1740l-15030 -10150zm-309881 9500l-77200 -1390c1230,7060 3210,18070 5900,30420 10940,1540 21640,3430 32060,5760 -2560,-630 -18550,23570 -17920,23570 12480,-80 26640,-440 42060,-960 1130,-4160 2290,-8300 3530,-12360 2830,-1050 5670,-2080 8480,-3130 -2750,-120 -5540,-250 -8310,-380 3940,-13820 7560,-27710 11400,-41530zm-90130 -61790l8530 -1660c-3170,-940 -6700,-2160 -10630,-3760 740,1370 1500,3320 2100,5420zm47110 -8130c45230,-6680 97901,-11280 162461,-12500 -6750,-2100 -13570,-3930 -20460,-5460l-126061 13090c-6780,820 -11720,2730 -15940,4870zm-413330 -70080c15230,-1050 30880,-2460 47310,-4390 -13970,-4630 -24390,-8430 -31160,-11580 -8800,4870 -16070,10520 -16150,15970zm859871 -989591c9240,-8210 25190,-11890 44560,-13190 -2980,3970 -6430,7790 -8150,11410 -13150,-110 -25530,310 -36410,1780zm114580 -11990c28780,1510 57520,3000 79920,210 -17630,15310 -59520,14260 -103280,12120 8340,-3740 16030,-7900 23360,-12330zm-1296351 -441821c68470,6810 85740,-21070 158680,-11770 -55670,21690 -74220,68790 -158680,71290l0 -59520zm4027714 718061c-14030,-6890 -37350,-7520 -62750,-6740 13190,8740 27140,16130 40380,22330 0,0 9750,-7500 22370,-15590zm-4392285 925131c33530,-28190 115171,-30820 168161,-14450 -25000,20330 -95321,10020 -143201,14890l-24960 -440zm-135760 49880c8580,6700 15760,13230 21100,18760 -77570,-5400 -98300,18530 -152190,2120 44620,-6490 87590,-14220 131090,-20880zm-879171 77600c133071,-77480 441481,-38400 547051,36600 35840,3110 -3200,-34710 -17270,-35970 31220,-3760 64300,-5350 99350,-5710 -16260,6180 -29440,14700 -34810,24010 27920,3550 44850,5700 59530,6430 13560,29390 -82540,13070 -88860,58360 -124120,-35960 -296250,-39070 -476690,-36570 55650,-38450 -16010,-58910 -88301,-47150zm724421 -3800c46050,1320 95030,3320 147070,4410 -4250,2170 -8370,4410 -12320,6790 72300,-12170 143960,8950 88300,48630 20700,-290 41290,-500 61730,-610 4700,1870 9600,3620 14540,5380 -67170,19830 -187470,33450 -264880,11140 22390,-33470 72310,-39040 123490,-23550 -29040,-71580 -153940,6470 -226100,-22920 21200,840 38550,-1330 79480,-6540 -570,-9910 -4730,-17350 -11310,-22730zm-989281 15000c19200,-32250 138210,-54560 141410,0 -70380,8660 -71030,8660 -141410,0zm900251 107860c43510,39690 93420,8070 158680,0 10230,58300 -110700,27920 -175950,35340 -3850,-9940 6390,-11160 17270,-11770l0 -23570zm659441 -51010c-54410,29350 -121360,9160 -182791,4520 1050,-6410 3740,-11730 7601,-16240 61810,1510 120820,4980 175190,11720zm-924341 229570c27520,-29750 122860,-4960 158680,0 -19840,23570 -136290,13650 -158680,0zm-264880 118420c44140,-65690 184270,-45860 264880,-23530 -65260,48340 -152910,6810 -264880,23530zm388370 -202080c3840,20460 -30070,30990 0,35960 -31350,27880 -76790,-34110 -158680,-11760 53090,-42190 -62710,-53950 -106220,-36600 23650,-59540 -71660,-39070 -106220,-59540 47350,-38400 124770,-9280 176600,-23550 -74860,73180 98550,31640 141410,59520 -60780,21090 -24310,46510 53110,35970zm-370470 71280c53110,8070 -16640,25420 0,47750 -76141,4960 -23030,-32240 -52460,-35980 3190,-13620 17270,-6810 17270,0 20480,1870 31340,-2460 35190,-11770zm971910 -1163121c59851,-40080 98171,12190 163741,14370 250,4160 3890,7670 12270,11770 -20170,7160 -51530,6850 -70840,14640 -11600,780 -22920,1750 -33910,2940 -22980,-11430 -62191,-11800 -106451,-9010 3190,-14260 32630,-10570 53110,-11180 2560,-13610 -4480,-21070 -17920,-23530zm-1129941 580291c-1370,-8320 -1540,-15860 -170,-22390l-4080 2240c-41430,-26930 -36490,-22160 -4180,-190 0,0 -44770,19020 -61130,11290 -16330,-11310 37520,-33490 37040,-33370l38440 6920c7800,-9440 22610,-14160 47190,-12210 4470,30990 -6410,50820 -53110,47710zm300721 -844391c-2560,36580 -28150,19830 -35190,71280 -31350,1850 -37100,-14280 -70380,-11800 16010,-40260 39690,-1240 69750,-23530 -4480,-13030 -35190,-8070 -35190,-23570 -40950,3740 -76140,11800 -88300,35330 -23680,-12370 -34560,-32200 -70381,-35940 42231,-27290 158661,-4350 229691,-11770zm1780651 682581l19200 -1870c-6410,1260 -12800,1870 -19200,1870zm-1691721 -432131l5130 0c-4500,1850 -6410,1850 -5130,0zm-2560 1403061c30060,-27270 135000,-4370 193870,-11790 -44790,24180 -135010,30400 -193870,11790zm19837969 -1746871c-3990,20150 -13250,36740 -28910,48720l43950 -27310c87610,41430 68160,27180 8660,-6640 0,20 24980,-13010 34160,-15990 -6240,760 -33590,-420 -57860,1220zm-439401 -408331c36470,10860 53740,35820 52460,73570 -15990,-7670 -31340,-14700 -35190,0 -39010,-1910 -7670,-52460 -17270,-73570zm632141 1927172l0 0zm-164440 -1439011c2560,-3190 5130,-6390 8320,-8950 -2560,4480 -5130,7040 -8320,8950zm-20673140 780551c8740,4110 35950,-8910 35950,-8910 -18550,-7750 -21080,-9200 2100,100 5020,-3270 10060,-6550 15060,-9830 -10480,690 -20970,1390 -31450,2080 990,-290 -32120,12500 -21660,16560zm120400 19410c6070,290 18930,-2630 18910,-2630 -6600,-5190 -16430,-12580 170,-3510 2830,-1050 5650,-2080 8510,-3130 -5570,-250 -11140,-500 -16680,-750 210,-20 -17080,6220 -10910,10020zm3681304 509190c-120230,-162920 -92690,-117080 -14620,-650 -59040,-2730 -131291,-14940 -175111,-56930 -30720,-53560 85721,-54040 117421,-54290 48590,34870 97190,69770 145800,104660 -24520,2420 -49010,4820 -73490,7210zm17055176 -1425291c10780,9690 11850,11480 -2080,-100 -2200,2250 -4390,4470 -6570,6720 31070,4900 36390,-19370 8650,-6620zm139150 20280c-10280,-3950 -36100,12390 -36100,12390 22060,11330 18930,10630 -4180,-190 -5020,3260 -10040,6560 -15060,9840 10440,480 20860,940 31300,1400 -710,320 34460,-19430 24040,-23440zm-17208356 1716241c-5130,-3780 -17380,-12230 -1790,-7100 -1260,-2400 -2540,-4790 -3820,-7190 -138351,67040 -28640,75890 44140,40550 -9080,750 -18180,1510 -27270,2270 -3760,-9520 -7500,-19040 -11260,-28530zm3252323 -1987401c17710,790 20860,-1790 32080,-16081 -9900,6010 -20890,12880 -32080,16081zm-5044515 1167361c-23480,-13090 -25580,-13320 -4180,-190 -46170,15250 -48060,-9140 -14110,-11160 10370,1640 20750,3280 31130,4900 -4280,2140 -8550,4300 -12840,6450zm-239200 66300c-45230,-34900 -36370,-24350 -6430,3240 -90610,23840 -65930,-27530 -21830,-25530 17230,4290 34430,8570 51680,12840 -7810,3150 -15610,6300 -23420,9450zm-272401 -78850c-11310,-8320 -10990,-7980 0,0 -31730,9060 -18240,-11320 8510,-3110 -2840,1030 -5660,2080 -8510,3110zm-1148641 -23690c-11160,-510 -22270,-1010 -33410,-1520 8300,-1780 16370,-4450 23350,-9370 -57740,-29750 -76060,-36470 8590,-3190 12810,-6430 25670,-12880 38490,-19290 27030,29750 -15720,34330 -37020,33370zm6871247 -1207722c-5520,-250 -29290,10210 -36070,12410 32000,1430 63970,2880 95950,4310 58840,8490 117710,16980 176530,25480 34980,-2620 83540,-10270 117490,-8740 -102490,-16340 -250560,-33860 -353900,-33460zm-3420603 2056902c5630,16190 29390,34140 46750,30120 -13830,-8550 -32900,-23570 -46750,-30120z"/>
 </g>
</svg>
