<?xml version="1.0" encoding="UTF-8"?><!-- Generator: Adobe Illustrator 23.0.2, SVG Export Plug-In . SVG Version: 6.00 Build 0)  --><svg xmlns="http://www.w3.org/2000/svg" enable-background="new 0 0 251.82 82.87" id="Layer_1" version="1.1" viewBox="0 0 251.82 82.87" x="0px" xml:space="preserve" y="0px">
<linearGradient gradientUnits="userSpaceOnUse" id="SVGID_1_" x2="251.82" y1="41.433" y2="41.433">
	<stop offset="0" stop-color="#00B7FF"/>
	<stop offset=".6229" stop-color="#C0A9E2"/>
	<stop offset="1" stop-color="#FFA4D8"/>
</linearGradient>
<path d="m70.28 39.6c0.23 0.05 0.93 0.14 1.64 0.26 0.72 0.14 1.44 0.24 1.68 0.18-0.25-0.26-0.93-0.52-1.63-0.66-0.7-0.12-1.39-0.05-1.69 0.22zm86.02 37.38c-0.77-1.13 3.67-0.02 4.23 0.89-0.76 0.72-3.46-1.62-4.23-0.89zm-146.59-17.39c0.8-1.48 2.89-5.67 5.55-7.64-0.47 2.68-3.48 5.12-5.55 7.64zm240.54-41.3c-0.65 0.52-0.04 1.67-0.61 3.08-1.55 0.02-0.56-3.53 0.61-3.08zm-222.57 20.09c0.94-0.26 1.65-0.97 1.86-1.57 1.65-0.41-1.45 2.84-1.86 1.57zm-20.27 7.76c-0.02-1.4 1.09-2.98 2.77-4.61-0.04 1.42-1.33 2.98-2.77 4.61zm-7.41 8.41c0.52-1.65 3.14-3.24 4.49-5.48 0.34 0.72-3.25 4.34-4.49 5.48zm22.41-27.82c0.4-1.07 1.63-2.19 3.17-3.19-0.23 0.54-0.67 1.06-1.23 1.59-0.54 0.53-1.21 1.07-1.94 1.6zm206.37 3.16c-0.14-0.74-0.06-1.2 0.1-1.67 0.15-0.48 0.36-0.98 0.51-1.77 0.52 0.3 0.43 0.88 0.19 1.53s-0.68 1.33-0.8 1.91zm-4.51 7.5c-0.49-0.55 0.71-1.48 0.9-2.18 0.96 0.85-0.49 1.43-0.9 2.18zm-191.4-23.2c1.01-0.36 1.59-0.8 2.17-1.23 0.6-0.41 1.19-0.82 2.17-1.14 0.71-0.4 0.97-0.08 0.54 0.12-0.34 0.38-1.32 0.96-2.33 1.43-0.99 0.5-2.01 0.91-2.55 0.82zm186.76 26.29c-0.25-0.52-0.12-0.7 0.15-0.89 0.26-0.2 0.64-0.43 0.89-0.96 0.98 1.12-0.27 1.6-1.04 1.85zm-2.52-0.53c0.34-0.81 0.96-0.4 1.34-1.09 0.53 0.77-0.13 2.44-1.34 1.09zm-46.62 3.18c0.52-0.56 2.4-0.92 1.81 0.68-1.07-0.02-0.69-0.23-1.81-0.68zm-122.41-38.46c0.4-0.94 1.41-1.48 2.65-1.95 0.62-0.23 1.3-0.43 1.99-0.62 0.69-0.2 1.39-0.38 2.06-0.53 2.13-0.5 4.72-1.01 7.33-1.15 1.3-0.09 2.65-0.22 3.93-0.23 1.29-0.01 2.55-0.02 3.75-0.03-0.24 0.82-1.05 0.99-2.1 0.97s-2.32-0.27-3.49-0.14c-1.15 0.1-2.45 0.23-3.83 0.4s-2.87 0.51-4.32 0.81c-0.73 0.16-1.46 0.31-2.17 0.5-0.71 0.22-1.41 0.43-2.1 0.64-1.37 0.45-2.63 0.85-3.7 1.33zm133.39 41.24c1.28-0.06 2.71 0.42 4.13 0.81 0.72 0.22 1.47 0.39 2.23 0.56 0.76 0.14 1.52 0.23 2.28 0.21-0.64 0.12-1.33 0.14-2.03 0.13-0.71-0.04-1.45-0.14-2.18-0.27-0.75-0.17-1.47-0.34-2.22-0.61-0.76-0.25-1.5-0.54-2.21-0.83zm28.89-1.04c-0.52 0.6-0.96-0.08-1.48 0.37-0.07-0.22 0.24-0.58 0.6-0.74 0.36-0.15 0.73-0.17 0.88 0.37zm7.47-9.5c0.51-0.97 0.43-1.8 1-2.83 0.65 0.77 0.57 3.78-1 2.83zm-66.08-3.06c0.97-0.01 2.03 0.59 3.04 1.21 0.99 0.6 1.93 1.23 2.66 1.34-0.9 0.3-1.96 0-2.97-0.53-1.02-0.55-1.99-1.35-2.73-2.02zm-6.6-4.28c-1.02 0.53-1.59-1.08-2.55-1.39 1.41-0.18 1.76 0.51 2.55 1.39zm-18.03-10.9c1.67 0.87 3.29 1.76 4.76 2.67 1.46 0.91 2.84 1.84 4.05 2.8-0.98-0.51-3.06-1.22-4.91-2.12-1.9-0.9-3.62-2.01-3.9-3.35zm-87.49-13.8c0.34-0.54 1.05-1.32 1.85-1.8 0.81-0.43 1.71-0.54 2.37 0.19-0.57 0.29-1.18 0.56-1.88 0.8-0.69 0.28-1.46 0.56-2.34 0.81zm48.66 40.51c-0.36 0.16-1.3-0.1-2.39-0.47-1.08-0.31-2.31-0.74-3.25-0.99 1.25-0.66-1.19-0.67 0.06-1.34-5.44-1.85-10.6-2.43-15.3-2.65-4.74-0.21-8.96-0.11-13.58-0.36 1.53-0.64 3.33-0.56 5.11-0.56 0.92 0.07 1.85 0.12 2.78 0.07 0.96 0.02 1.95 0 2.96-0.22-1.26-0.52-2.96-0.67-4.53-0.61-1.63-0.07-3.11 0.08-4.36-0.49 0.15-1.12-0.22-1.74-0.88-2.08-0.65-0.29-1.54-0.24-2.4-0.14 0.07-0.29 0.15-0.58 0.03-1.01-0.45 0.08-0.87 0.13-1.27 0.19-0.4 0.05-0.76 0.18-1.12 0.27-0.72 0.22-1.43 0.5-2.21 0.98 0.39-0.44-0.31-0.75-1.17-0.7-0.87 0.04-1.95 0.26-2.25 0.78-0.28-0.71-1.42-0.82-2.81-0.84-1.37 0.04-2.99 0.16-4.13-0.16-2.33 2.11-5.83 4.35-10.05 6.76 0.25-0.49 0.77-0.98 1.42-1.51 0.66-0.53 1.45-1.1 2.31-1.63 0.84-0.55 1.73-1.13 2.59-1.69 0.84-0.57 1.62-1.18 2.27-1.77-1.12-1.17-3.09 1.88-4-0.4-3.16 1.91-6.11 3.25-9.03 5.78 1.74-2.43 4.22-4.79 4.89-7.14-0.71-0.1-1.25 0.55-1.78 1.22-0.52 0.69-1.05 1.37-1.86 1.32-0.13-0.08 1.62-1.61-0.14-0.73 0.13-0.64 0.46-1.23 0.9-1.79 0.44-0.57 1.02-1.08 1.59-1.64 1.12-1.13 2.36-2.24 2.83-3.93-0.02 0.34-0.03 0.67 0.24 1.02-0.13-1.26 1.02-2.09 1.95-2.92 0.92-0.84 1.74-1.55 0.95-2.74 0.58 0.34 0.95 0.18 1.36-0.15s0.87-0.83 1.61-1.11c-0.62-1.02-1.41-0.49-2.11 0.21-0.71 0.69-1.36 1.47-1.9 0.88-1.02 1.17 1.06-0.05 1.01 0.92-0.82 0.47-1.31 0.11-2.21 0.97 0.26 0.29 0.75-0.16 1.17-0.36-0.19 1.21-1.05 2.02-2.04 2.66-0.96 0.66-2.03 1.17-2.63 1.66-0.89 0.74-1.31 1.39-1.95 1.9-0.09 0.07-1.55 1.56-0.5-0.02 1-1.51 1.92-2.18 2.86-2.77 0.93-0.61 1.82-1.21 2.93-2.57-0.54-0.65-0.33 0.74-1.34 0.86 0.07-1.25 0.81-1.87 1.83-2.32 0.65-1.24-1.1-1.3 1.44-2.36-0.24-0.75-1.54 1.09-1.57-0.22 1.69-1.45 4.86-4.25 8.86-7.01 1.02-0.66 2.07-1.33 3.12-2.01 0.53-0.34 1.07-0.68 1.6-1.02 0.55-0.31 1.09-0.61 1.63-0.91 1.1-0.62 2.18-1.23 3.21-1.81 1.06-0.54 2.08-1.05 3.02-1.53-1.49-1.1-3.11 0.95-5.34 1.43 1.73-1.93 4.52-2.56 7.34-3.11 1.41-0.21 2.82-0.34 4.16-0.58 0.67-0.11 1.32-0.28 1.94-0.42 0.61-0.14 1.2-0.32 1.75-0.56-0.1 0.36-0.9 0.25-0.89 0.67 1.46 0.16 4.09-0.06 6.87-0.04 2.81-0.1 5.76-0.01 8.03 0-0.11-0.74-2.18-0.36-3.08-0.64-1.4-0.92 3.16 0.5 3.2-0.33 0.52 0.11 0.3 0.63 0.32 1.01 0.98-1.07 2.35-0.79 3.88-0.27 1.54 0.5 3.15 1.39 4.8 1.45-0.22-1.13-0.95-0.9 0.34-1.59 0.46 0.44 1.13 0.83 1.95 1.17 0.8 0.37 1.75 0.72 2.78 1.03 2.09 0.6 4.44 1.23 6.69 1.82-0.23-0.58-2.78-1.39-0.21-0.74-1.14-0.65-2.66-1.35-4.49-1.94-0.92-0.29-1.89-0.58-2.91-0.86-0.51-0.14-1.03-0.27-1.55-0.41-0.54-0.11-1.09-0.23-1.64-0.34-1.1-0.22-2.22-0.44-3.34-0.64-1.12-0.19-2.28-0.31-3.39-0.45-1.12-0.12-2.19-0.29-3.26-0.34-1.06-0.06-2.08-0.12-3.03-0.18 0.93-0.76 1.99-0.82 3.14-0.65 1.16 0.16 2.35 0.65 3.68 0.85 10.92 1.61 22.88 5.24 32.18 9.31-0.38-1.04-3.55-1.34-2.97-2.65 3.95 1.08 3.02 3.41 6.61 4.62 1.21 0.32-0.07-0.79 0.54-1.18 0.81 0.43 1.54 0.79 2.22 1.11 0.66 0.34 1.27 0.64 1.84 0.93 1.13 0.6 2.14 1.19 3.05 2.09-0.5 0.28-1.37-0.16-2.1-0.31 4.27 2.54 7.94 4.88 11.37 7.09 3.36 2.18 6.55 4.24 9.73 6.31 6.23 4.02 12.25 7.88 19.45 11.92 1.08 0.58 2.53 1.05 4.11 1.46 3.33 2.99 8.18 5.31 13.19 6.84 2.51 0.74 5.06 1.36 7.41 1.74 2.37 0.39 4.63 0.64 6.62 0.79-2.21-1.13-4.44-1.59-6.51-1.94-1.03-0.15-2-0.32-2.88-0.47-0.9-0.2-1.7-0.41-2.33-0.69 0.72-0.22 1.56-0.24 2.48-0.12 0.9 0.06 1.87 0.28 2.88 0.46 2.02 0.42 4.23 0.88 6.17 0.8 4.8-0.18 9.14-0.03 13.13-0.65 1.99-0.3 3.89-0.78 5.62-1.55 0.88-0.35 1.67-0.88 2.48-1.38 0.39-0.28 0.76-0.6 1.13-0.91 0.18-0.16 0.37-0.3 0.55-0.48l0.5-0.55c0.45 0.32 0.4 0.54 0.19 0.74-0.1 0.1-0.24 0.19-0.37 0.29-0.13 0.08-0.26 0.16-0.33 0.26 0.63 0.07 1.21-0.19 1.83-0.49 0.63-0.29 1.19-0.8 1.73-1.28 0.56-0.46 1.03-1.02 1.48-1.45s0.86-0.75 1.21-0.91c0.15-0.37-0.51-0.68-0.87-1.01 0.39-0.16 0.86 0.01 1.37 0.33 0.11 0.54-0.29 1.1-0.84 1.13 0.51 0.14 1.25-0.2 2.1-0.8 0.43-0.29 0.85-0.69 1.27-1.13 0.41-0.45 0.86-0.9 1.21-1.44 0.37-0.53 0.71-1.07 1.01-1.59 0.29-0.53 0.51-1.07 0.67-1.54 0.34-0.94 0.38-1.71 0.04-2.02-0.26-0.23-0.55 0.49-0.68 0.7-0.59-0.42 0.51-1.43 0.6-2.09 1.13 0.6 4.19 1.37 6.13 0.48 0.04-1.13-0.4-2.03-0.14-3.3 0.87 0.43 0.79 1.37 0.96 2.16 1.26-0.33-0.05-2.45 1.38-0.96 0.02-1.74 1.81-2.87 2.75-4.29 0.01 0.73 1.08 1.51 1.56 0.45 0.98 0.88-0.88 0.31-0.74 1.29 1.23 0.96 1.1-1.12 1.77-1.37 0.57 0.22-0.15 1.25 0.21 1.59 0.29-1.42 1.2-0.63 1.86 0.56 0.58-3.36 4.66-0.67 6.47-1.41-1.06 0.86 0.87 1.44 1.03 2.39-1.28 0.03-2.25 0.14-3.93 1.76 0.09 1.57 0.46 5-1.14 5.99-0.4 1.39 0.42 2.1 0.37 3.28 0.77 0.08-0.09-0.75 0.82-1.01 0.17 1.4-0.34 3.66-1.08 6.02-0.32 1.19-0.76 2.39-1.07 3.55-0.3 1.16-0.58 2.26-0.64 3.24 0.4-0.63 0.61-1.18 0.83-1.75 0.21-0.57 0.46-1.16 1.01-1.89 1.1 0.17 0 1.35 0.44 1.83 1.29-1.56-0.19-1.84 0.72-3.23 0.09 0.4 0.46 1.04 0.86 0.46-0.13 0.73-0.64 1.81-1.22 3.06-0.58 1.26-1.41 2.66-2.06 4.09-0.71 1.41-1.35 2.81-1.6 4.08-0.31 1.25-0.24 2.39 0.52 3.22-1.54 0.71-1.8 1.21-2.42 2.69 0.23-1.13-0.56-0.6-1.18-1.12-0.52 1.62-0.43 3.15-1.16 4.78-0.61 0.08-1.55 1.25-1.84 0.35-0.76 0.81-1.2 1.51-1.65 2.21-0.45 0.71-0.91 1.42-1.78 2.17-0.43-0.33 0.08-0.76-0.14-1.11-0.7 0.4-1.46 0.72-2.22 1.04-0.76 0.33-1.53 0.66-2.34 1.01-0.8 0.35-1.67 0.67-2.54 1.07-0.44 0.2-0.89 0.41-1.35 0.63-0.47 0.2-0.95 0.42-1.44 0.66-4.66 2.28-10.63 3.32-15.75 3.87-5.16 0.62-9.57 0.99-12.39 3.14-1.15 0.12-1.02-0.61-2.36-0.36 0.18-0.42 0.84-0.5 0.96-0.96-3.76 0.13-7.05-0.08-10.06-0.42-3.01-0.33-5.83-0.76-8.52-1.2-0.6-0.21 0.06-0.98-0.63-1.15-0.2 0.68-2.01 0.77-4.02 0.35-1.97-0.47-4.2-1.34-5.19-2.53 0.98 1.63-2.33-0.25-1.1 0.66-0.94 0.39-1.97-1.5-2.92-1.99-1.33 0.62-3.22 0.19-5.21-0.39-1.95-0.62-3.99-1.4-5.72-1.48-0.6-0.54-1.95-1.52-3.52-2.31-1.55-0.79-3.28-1.41-4.76-1.16-2.59-3.37-9.32-4.75-13.92-7.94 0.18-0.91 1.47 1.05 1.65 0.15-0.63-0.53-3.34-2.8-4.63-1.78-0.42-0.4 0.33-0.3 0.47-0.86-2.25-0.39-3.35-1.68-5.84-2.47 0.23 0.91-1.35 0.18-3.45-1.06-2.08-1.22-4.67-2.92-6.48-3.94-0.85-0.5-1.67-1.5-2.63-1.74 0.02 0.65 0.81 1.08 1.09 1.65-1.49-0.45-3.08-1.07-4.61-1.67-1.52-0.57-3.03-1.28-4.51-1.89-1.46-0.65-2.89-1.29-4.24-1.89-0.66-0.31-1.31-0.6-1.92-0.89-0.61-0.27-1.19-0.53-1.73-0.77 0.12-0.3 0.24-0.61 0.35-0.91-0.67-0.21-1.29-0.31-1.93-0.46-0.64-0.14-1.29-0.28-2.04-0.65-0.2 0.38-0.38 0.81-0.05 0.98zm6.26 1.32c-3.95-1.44-0.36 0.95 1.61 0.33-1.03-0.5-0.93-0.06-1.61-0.33zm10.1 3.87c-1.19-0.35-2.84-1.99-3.55-1.01 1.1 0.54 3.62 1.5 3.55 1.01zm144.39-14.88c0.64-0.45 1.52-0.34 1.73-2.03 0.33 0.18 0.57 0.09 0.74-0.2 0.93 0.61-0.57 2.34-0.19 2.6-1.12-0.61-2.26 1.22-3.46 2.73-0.65-0.54 2.06-2.01 1.18-3.1zm-207.02 0.14c-1.94 1.53-3.72 2.63-5.56 3.84-0.46 0.3-0.93 0.59-1.4 0.89-0.47 0.32-0.94 0.65-1.43 0.98-0.98 0.65-1.97 1.43-3.03 2.28 0.03-0.82 0.88-1.5 1.79-2.13 0.92-0.59 1.86-1.16 2.12-1.86-1.57 0.31-3.25 1.06-4.92 2.3 1.27-1.45 3.43-2.57 5.37-3.39 1.93-0.88 3.65-1.44 4.15-2.38 0.58 1.03 1.59-0.95 2.91-0.53zm-15.91 5.48c0.04 0.32 0.08 0.63 0.4 0.96-0.78 0.85-1.37-0.94-2.2 0.71-0.53-0.02-0.2-0.34 0.32-0.7s1.24-0.76 1.48-0.97zm-1.44-12.73c0.43 0.72-0.81 0.06-1.24 0.97-0.67-0.24 1.66-1.55 0.22-1 0.61-1.68 3.47-3.23 4.49-4.82 1.06 0.37-0.37 1.34-1.71 2.42-1.4 1.02-2.72 2.15-1.76 2.43zm-6.97 4.57c0.68-1.16 1.16-2.32 1.78-3.46 0.6-1.15 1.28-2.32 2.36-3.45-0.32-0.12-0.64-0.23-1.05 0 1.3-1 2.11-1.68 3.06-2.38 0.94-0.71 1.89-1.54 3.57-2.76-0.86 1.51-2.2 3.03-3.7 4.53-0.72 0.78-1.48 1.55-2.23 2.32-0.74 0.78-1.42 1.59-2.06 2.37 0.38 0.25 0.94-0.44 1.43-0.78-0.2 0.59-0.84 1.19-1.52 1.79-0.66 0.6-1.33 1.23-1.64 1.82z" fill="url(#SVGID_1_)"/>
</svg>