<svg xmlns="http://www.w3.org/2000/svg" xml:space="preserve" width="210mm" height="29.9092mm" version="1.1" style="shape-rendering:geometricPrecision; text-rendering:geometricPrecision; image-rendering:optimizeQuality; fill-rule:evenodd; clip-rule:evenodd"
viewBox="0 0 21000000 2990920"
 xmlns:xlink="http://www.w3.org/1999/xlink">
 <defs>
 <linearGradient id="id0" gradientUnits="userSpaceOnUse" x1="1.14722e+006" y1="1.3587e+006" x2="1.95364e+007" y2="1.3587e+006">
  <stop offset="0" style="stop-opacity:1; stop-color:#FFB198"/>
  <stop offset="0.321569" style="stop-opacity:1; stop-color:#FFB198"/>
  <stop offset="1" style="stop-opacity:1; stop-color:#FF3E89"/>
 </linearGradient>
 </defs>
 <g id="Слой_x0020_1">
  <metadata id="CorelCorpID_0Corel-Layer"/>
  <path fill="url(#id0)" class="fil0" d="M2249380 275420c-99530,10750 -309330,-13570 -415080,-19230 49760,-32800 299720,11320 415080,19230zm-165750 43630c-99540,10740 -309340,-13570 -415090,-19230 49760,-32810 299720,11310 415090,19230zm6395670 54940c-56090,6590 -119720,18540 -161880,15750 -15870,-5280 -31400,-9340 -48990,-10800 -5660,-340 10840,13040 37430,32960 -159920,-1250 -330680,-6450 -519360,-20580 56540,-5080 84810,-23190 116490,-40710 -381730,63900 -839800,9590 -1316540,40140 227090,10700 434120,24220 663310,36400 -230970,1090 -477130,-8490 -729720,2020 -95700,-4110 -179790,-10430 -242600,-19940l212700 6530c50910,-19790 -167950,-11870 -230170,-18110l20 0c-3920,-13050 -24200,-7710 -37240,1110 -10880,-2690 -20540,-5520 -28770,-8590 -95000,-7910 21510,29980 -70110,30550 -57700,2830 -105200,-52590 -137430,-26010 -541190,-7940 -1306900,-17550 -1846410,-30550 65610,29970 39590,13020 115370,4530 570,15270 -11870,23190 -24320,31670 85970,-7360 61080,-20930 161740,-4530 -19410,8430 -24020,14720 -20710,20320 -140770,-2630 -275170,-5420 -397830,-8370 65600,29980 39590,13020 115360,4530 380,10110 -4950,17020 -12190,22970 -69980,24400 -354040,21470 -541960,25610 68990,16950 197370,8480 252790,31100 -100,1180 -460,2230 -1070,3160 -119100,6990 -290300,6570 -417480,9360 53520,13160 142750,11000 205960,19940 -4430,14620 15040,12330 39490,8470 2560,830 5030,1740 7340,2690 -1120,14130 -40710,8470 -46930,19790 111080,-5500 16310,40340 106680,17370 770,1050 1470,2040 1980,2990 -3800,3060 -7790,6050 -12170,8860l-3140 120c-39470,-5240 -70710,-9870 -98490,-13200 -6390,-12480 -19940,-22020 -40680,-28590 -37330,0 -29420,18680 -115940,16980 -3220,5300 -4630,9260 -4530,12190 -18970,2530 -39940,5950 -63840,10360 30530,-33930 -74100,-11310 -44120,-45240 -144790,22890 -399320,2510 -609050,-11440 -3370,-3640 -7800,-6870 -16560,-8270 430,2750 630,5140 630,7220l-49900 -3160c-21390,-9070 -45110,-16620 -61310,-3370 -108300,-5260 -189420,-4610 -211620,12230 -41940,-6530 -50190,-13950 -54740,-21470 26690,-670 52350,-1900 76640,-3880l-80960 -3500c-4900,-6940 -15010,-13750 -54050,-19780 -3760,8050 -7080,13490 -10150,16990l-19330 -830c-12320,-11630 -28110,-36200 -62140,-31440 -28550,13890 -40840,20860 -45920,26750l-58270 -2510c3230,-2510 6770,-4870 10310,-7280 -169080,-550 -414510,-41270 -485770,10190 16950,17530 265230,28840 207540,9610 -43860,-7930 -146450,7840 -140370,-20950 115080,2670 241820,11660 364870,18580 2330,750 4620,1540 6800,2370 1110,3740 60,6370 -2630,8140 -6450,-1820 -13810,-2460 -22320,-1270l-7950 3920c-36560,-2610 -89370,-13670 -83590,6190l61730 5140c-26510,14940 -17930,17610 -18820,36780l-69560 -3400c-580,-15270 11870,-23190 24310,-31680 -169080,-550 -414510,-41270 -485770,10190 16960,17530 265230,28850 207540,9620 -46950,-8490 -161180,10170 -137420,-27720 115380,12450 292380,-1130 368720,27720 9070,30550 -125530,-14130 -116490,16970 179730,15260 352130,27390 518940,38070 52500,6890 93740,8550 121850,7620 100210,6150 198500,11930 295290,17710 21150,3870 43110,4610 66060,3970 129270,7800 255970,15750 381110,24810 -28270,-2270 -54860,-5660 -45250,-23760 60800,7220 102940,14440 134580,21700 -24970,3940 -47210,9300 -64460,17280 42810,2350 97840,5990 146590,9040l12320 5140c11040,-140 15570,-1440 16860,-3340 58070,3480 99570,5320 85740,1540 10060,-950 21790,-2310 35950,-3860 -1660,5270 -9390,10110 -14700,14680 -81030,6340 -152180,9050 -221620,12350 8130,-6710 14870,-15310 5530,-25860 -80860,9620 -179840,9620 -232430,33930 17320,950 36650,2120 56730,3370 -46600,4530 -95270,10720 -148210,19700 -55420,4530 -166830,-20360 -184930,3400 69560,2830 138550,5660 208120,8490 31670,1700 50900,-2830 69560,-7910 4350,4230 10680,7630 18020,10600 -86830,4650 -173550,11580 -276530,29050 -55410,4530 -166820,-20360 -184920,3400 69560,2830 138550,5660 208110,8490 31680,1700 50910,-2830 69560,-7920 20360,19790 84270,21490 90480,46930 -77480,6790 -20930,23760 -1700,43550 -14940,-1700 -38250,-40 -57870,3500 -76730,-4080 -140000,-5100 -172250,950 -28290,-28290 13570,-33380 -20930,-44120 -293510,32800 -688810,-37890 -971570,-10740 552770,35610 847120,52330 1215730,90020 20120,6570 41450,11390 58230,6070 49520,5260 100600,10900 154040,17040l-100 60 4000 370 44670 5200c-25340,2500 -51690,4280 -78980,5430 -195510,-9580 -487250,-41370 -570840,-25700 -28300,-28300 13570,-33380 -20940,-44120 -104260,11650 -221350,10240 -341700,4800 26850,-2150 49230,-6720 65750,-14480 -68870,-4350 -150760,-25860 -181790,8310 -160980,-9420 -322270,-20810 -461460,-13260 6040,-4450 15970,-6920 19470,-13150 -41840,-13000 -268610,-12450 -231850,11310 29400,1130 32800,-12440 70110,-7910 29400,40720 482950,33360 137430,17530l80 -830c219510,14090 397690,25200 557000,36130 -46180,-1050 -92660,-1510 -139310,-1170 -37090,-4220 -72450,-7060 -96880,1880l-21110 730 15490 1620c-7540,3620 -13790,8630 -18420,15430 61730,4320 115560,4690 154180,-3180 291030,22930 544570,23270 766010,55770 2750,1900 5690,3640 8760,5270 -13610,410 -26100,1440 -26850,8210 7760,670 15350,1300 22830,1840 -41840,-640 -85270,-2140 -130120,-4260l-8840 -10090c0,0 -36760,-4390 -48380,7140 -269450,-14990 -583750,-46190 -900420,-34120 265690,28110 502000,31870 712570,47860 -10850,2510 -38860,9890 -28260,16950 11500,4650 48420,-1110 48420,-1110 -20660,-13450 -32710,-22790 4470,-3680 6800,-930 13630,-1820 20440,-2750l-33860 -8540c21190,1660 42090,3440 62760,5400 -25340,10400 -22610,31400 49540,19620l-16890 -16360 2310 260 18580 16360c8980,-2100 17920,-4230 26930,-6330l-19790 -7180c23700,2750 47030,5770 70040,9140 2750,1900 5700,3640 8760,5260 -13610,420 -26090,1450 -26840,8210 23880,2100 46630,3640 67240,4140l1190 170 -60 -130 5860 80 200 430c9970,570 19960,1170 29930,1760l-2410 -2750c28700,-1660 50410,-7020 60910,-18400 26570,22620 190590,59950 92180,14700 71230,6270 132320,15300 188940,24610 -77710,-1440 -159180,-2880 -257870,-2070 8030,2290 18320,4820 30190,7440 -20610,6940 -64380,22410 -73640,36240l-29500 -200c640,-1360 1190,-2850 1650,-4430 -9620,-18100 -173610,-24890 -184930,-7910 3720,-220 7640,-180 11690,80 -7600,3660 -14360,7550 -9260,7870 7420,3520 25780,-1980 33440,-4550 24730,4830 52110,13570 76700,19290l-11910 4270c-4530,-870 -7630,-1420 -9040,-1500 -43350,-1920 -78660,-3070 -107050,-3580l-25510 -4630 -11350 4290c-67860,180 -70970,5800 -35670,12430 -38070,-710 -72790,2150 -77800,9650 3720,-210 7640,-180 11690,80 -7590,3660 -14360,7560 -9250,7880 7410,3520 25770,-1980 33430,-4550 6150,1200 12470,2650 18860,4210 -6430,5400 -10070,10840 -8710,16010 -23340,-850 -43740,-1430 -61450,-1750l-25500 -4620 -11360 4290c-70630,180 -71110,6270 -31180,13230 -21030,10060 -39980,22380 -36050,33220 -6430,-370 -67720,3540 -49840,12900 12410,4360 50420,-970 50400,-970 -42880,-25400 21760,6180 117180,-20790 -7520,-5800 -14680,-11380 -20970,-16380l18480 1820 11410 7160 14070 -4930c72570,5940 165700,10030 254220,8060l-20 0c9610,-11320 28840,-24890 570,-10750 -66380,6490 -151220,-12540 -177250,-17510 6880,-430 14180,-1140 21860,-2150l5960 1160c-9660,3430 7450,9160 17740,6510l-8050 -4960 120 20 7930 4940c2830,-1140 5640,-2290 8470,-3460l-1350 -410c16860,-60 29230,-5350 33520,-20340 -530,-1010 -1580,-2000 -3050,-2950l5090 -1780c10560,870 21540,1680 32900,2450 -8940,6630 -12350,13260 -4250,18840 27440,5380 69140,-4470 100700,-14030l24930 670c-22950,1580 -44480,5320 -64080,12580 25320,11760 57080,14270 89620,13830l-4270 1880c-5110,660 -10170,1230 -15180,1750l10270 430c-18700,8330 -37410,17050 -40180,18600 -6730,370 -36030,1720 -51680,6650 -4110,790 -8210,1640 -12290,2590 1190,610 2480,1150 3800,1680 -490,490 -890,1030 -1140,1560 -7940,-2250 -15890,-3880 -23810,-3700 -390,-1090 -17290,6000 -35550,14070 -5100,650 -10170,1230 -15170,1740l10260 440c-18690,8330 -37410,17050 -40180,18590 -6730,380 -36030,1720 -51680,6650 -4110,790 -8210,1640 -12280,2590 1180,620 2470,1150 3800,1680 -2560,2540 -2060,5640 3380,9460 17070,10960 40200,18300 64660,23210 -40030,-4120 -78410,-4230 -96730,8070 92750,1700 103490,7360 45250,23760 110280,0 64450,-9060 92170,14700 11890,-3930 29300,-7220 50570,-9770 24500,13610 55640,26120 86520,33550 -16240,1730 -33470,3680 -52030,5880l-14740 -5950c710,130 -50040,-3070 -37380,9690 11420,7580 54990,11160 54970,11160l-6080 -6100 3450 300 6620 6040c8150,-870 16310,-1690 24440,-2540l-3840 -1540c83470,4990 154760,-60 279400,8490 0,11310 -560,22060 -1130,32800 24990,4200 36860,1640 43940,-3380 23150,2710 38350,5500 52080,8470 15650,9160 44870,12660 61740,21260l-5060 780c-160690,-21670 -147710,4610 -316710,9060 54380,4350 77950,8860 100170,13830 -48340,2850 -80730,9040 -76950,23400 1130,-14140 65040,-11310 69570,2830 -48670,12820 -159450,-6650 -183370,19350 -34050,3460 -55040,9730 -51950,21450 1120,-14150 65030,-11320 69560,2830 -51480,13570 -172480,-9050 -186630,24310 91130,32170 98450,-31180 212130,3070 -13610,650 -26920,1540 -39820,2790 -30430,100 -58610,2930 -59730,9020 -24890,5480 -47250,13080 -66160,23500 54260,3880 113740,5560 173110,7270l-2530 1080c-102070,-2070 -204140,-4860 -279970,14070 -33660,670 -65490,1860 -96360,3900 -3220,-5800 21650,-13930 -5240,-17710 9620,18100 -127230,12450 -115940,-5080 13000,570 26570,-7920 580,-10750 -8490,28850 -98410,15280 -117620,38460l0 -20c64160,260 112430,2320 150840,3530 -11240,1460 -22460,3100 -33720,4900 55440,1650 110040,2590 163090,2910l-2000 1070c135540,9670 303580,5680 421570,22590 -40,2660 320,5540 1090,8670 3780,6940 8690,13120 14760,18460 -22650,-440 -42520,570 -45510,10230 11080,15370 31860,21030 56750,22610 -1290,7860 -2220,14210 -3110,17310 -38010,1290 -67820,6870 -102820,23430 67620,2230 172130,-3600 284600,970 -9020,630 -18260,1380 -27790,2330 61470,7050 150580,7540 179050,16400 -33260,990 -14450,3150 9020,7320 -870,4060 -9180,9220 -27460,15870 15710,-1440 39310,-3380 66100,-4810 1500,1190 2350,2440 2250,3760 -102010,18900 -175660,3170 -276940,770l21010 -11050c-32800,-620 -65570,-1250 -98330,-1860 -5300,2690 -17890,8820 -31440,16380l-9020 850 6270 690c-15060,8510 -30740,18580 -38860,27460l-92710 -1760c-4210,2140 -12980,6430 -23210,11890 -13370,3050 -26090,6990 -38060,11970l17270 -200c-12920,7840 -25030,16400 -30900,23920 -16720,-650 -32920,-750 -48480,-140l-25850 -14660c-43210,-2290 -131180,-5970 -161110,18210 -4850,-4260 -9680,-8490 -14520,-12750 -36090,-36080 -43940,-50780 7970,500 10620,-4670 21250,-9320 31850,-13970 -21820,-7870 -43640,-15770 -65500,-23640 20,0 -13240,5720 -16920,6900 -12340,-8640 -24710,-17290 -37080,-25930 -33390,-2700 -114310,-7780 -94150,30070 30090,29240 83430,42220 133010,47400 -2190,-4050 -4370,-8150 -6550,-12240 25210,2410 -5260,10700 60940,11510 4430,26670 26510,30050 53140,42700 -2810,1140 -5120,2150 -7020,3100l-49820 -28230c-25030,-1330 -65050,-3130 -100130,300l-35950 -26120c-16860,-2670 -30290,-400 -46020,1090l-19210 -6930c20,0 -13240,5720 -16920,6910l-19250 -13470 18980 -4320 -35580 -7300 -1220 -850 -4750 -380 -93860 -19250c-10250,-610 -159720,38510 -97500,57560l-430 -20 -67830 -13910c-10240,-610 -159720,38500 -97490,57550 -4000,-230 -6470,3580 -6470,3580 -3010,7920 810,12010 10070,16430 44080,32860 166700,38260 228770,37250 39670,17930 87500,30590 134430,35590 0,0 -17580,-28430 -27180,-41150 23410,-2410 25250,30870 41170,41980 25600,-1100 51220,-2270 76830,-3360l-106150 -77120c17410,570 33420,650 46650,440 29440,13290 63390,23700 98100,30230 -8870,6430 12580,5420 28530,4450l7810 910 -830 -1330c3420,-200 6150,-330 7500,-250l6450 1760 870 650 1300 -60c43100,11400 89390,19190 135250,21940 -92510,-111530 -123690,-155430 19970,1190 13450,-540 26940,-1030 40420,-1580 -6810,3750 -9160,11470 -1920,15720 30660,23900 82620,30370 126940,31220 -47270,-57290 -74830,-93680 10460,-3320 17630,-1600 35240,-3200 52870,-4810 -34030,-17820 -68060,-35670 -102090,-53510 0,0 -32590,3360 -48870,5040l-100030 -56660c10210,-440 20950,-1410 24130,-1210 45490,12660 94950,21370 143880,24300 -20220,-24360 -37530,-45510 -50690,-62030l2610 -2160 -4350 -60 -3480 -4390 10940 80c15550,16260 36900,39180 64930,69740 13460,-530 26950,-1030 40420,-1580 -6800,3760 -9160,11470 -1920,15730 30670,23900 82620,30370 126940,31220 -11080,-13430 -21090,-25720 -28810,-35490l7640 -880c8110,8270 18540,19180 31640,33050l42670 -3880c-5020,3200 -9390,6410 -12740,9490 -49460,-2330 -123140,-190 -100050,41670 25170,27220 70510,44200 117190,53660 -20460,-240 -36470,-80 -46160,890 -16780,1700 -28590,3220 -36560,4570l-76670 -55680c-43570,-3320 -150760,-9160 -123560,40190 25170,27220 70520,44200 117190,53650 -20460,-240 -36460,-80 -46160,890 -144780,14700 75780,15830 22620,11870 94230,7050 214480,-2190 312100,6570 26530,4870 50610,10330 77460,12840 19070,5190 36080,11950 50410,20740 -151000,-7920 -419620,-18660 -441680,3400 157230,-15270 190590,40140 325190,13570 -27150,-2830 -65590,-1150 -68990,-14140 205860,41840 351750,-10190 488050,9040 28130,3700 46470,22000 72510,31120 -208180,-4830 -414630,-4410 -585350,16300 103000,8070 226190,5680 345710,4290 12210,8080 29400,11160 46420,12570l-8370 -12980 2870 -20 9500 13240c8150,-870 16280,-1690 24430,-2540l-15970 -10840c134860,-870 259700,2140 338500,26260 950,-3110 1270,-6490 1600,-9860 8060,6470 14190,13890 31540,17950 -313790,-9240 -672420,-27150 -941990,5560 103000,8070 226200,5680 345720,4290 12200,8070 29400,11160 46410,12560l-8370 -12980 2870 -10 9500 13230c8150,-870 16280,-1680 24430,-2530l-15960 -10840c134850,-870 259690,2130 338490,26250 950,-3110 1270,-6490 1610,-9850 10050,8090 17150,17650 46790,20280 40000,3560 86830,-3480 125350,11350 10880,4200 41610,-3320 54870,-4670 -32410,2280 -66380,-190 -97860,-5770 -41740,-12190 -84100,-22990 -126360,-34010 2610,-5110 7990,-8750 19920,-9000 141880,39680 392530,38040 575260,72920 4870,4430 3010,7090 -18740,7300l-21560 -610c-8130,-1410 -16660,-1430 -25920,-830 -122350,-4180 -248500,-10350 -302010,20670 64590,5740 132160,11340 202180,16820 5240,4610 3740,7360 -18440,7580 -135730,-3390 -289000,-15830 -349500,19230 435130,38580 1003660,71840 1561630,96450l-113090 71050c14460,-3110 28900,-6220 43370,-9320 -17550,-9000 -17390,-12860 3970,240 15570,-4040 29760,-6610 43850,-13260 2330,-10090 74050,-20140 89230,-22420 125310,-17190 197050,16130 326050,31110 -29720,-43020 -29620,-46320 9970,590 1218940,129370 1947610,-70890 2875510,10520 2060,3840 3110,5840 2670,4870l620 -4570c70820,6350 142720,16520 219860,32090 26400,-47180 109950,-34660 188630,-15510l-340 240c1610,650 3720,1050 6180,1190 25520,6330 50350,13190 72390,18830l-120050 56680 138960 -52010c11930,2790 22640,4950 31700,6070l-4910 2320 5860 -2200c17070,2040 28070,340 29930,-7690l-7560 -680 86960 -32540c20520,-340 40850,-830 61010,-1490 -40490,16900 -84180,35440 -125690,53640l-870 -200c200,0 -22470,2610 -16910,6930l1300 550c-79710,35340 -148320,68460 -165540,84780l-68710 27540 14270 1860 -7800 1030c-7740,-2080 -8350,-2040 -1500,190 -19890,2910 -37730,7780 -52290,15060 49640,3600 130630,15890 200610,17670l7110 1360c89400,10710 143810,30710 238180,25920 4690,260 13990,830 13990,830 -1320,-80 -2670,-160 -3980,-230 640,20 1310,70 1980,110 13320,800 39950,2360 39950,2360 0,0 -2020,-120 -2020,-120 23470,60 46930,120 70390,180 -1180,-1390 -2370,-2790 -3520,-4180 29780,3090 59590,6180 89370,9260 30150,-210 58210,21070 127890,23350 46950,1600 96750,5720 143770,8490 41650,34070 105340,51260 168000,57390 0,0 -18820,-30270 -28670,-45230 25860,1530 22300,33040 43150,42130 25440,170 50910,370 76350,550 -18540,-12960 -37080,-25940 -55620,-38900 64740,3820 128410,-100 191820,-4940l29550 210 -3220 -2250c71800,-5640 143380,-11280 215970,-6990 98330,1840 196640,3680 294950,5520 -42520,-13290 -237040,-26370 -410060,-37350 93660,-6170 186430,-17370 280870,-11790 98330,1840 196640,3680 294950,5520 -69880,-21860 -550200,-43110 -671020,-55400 -32730,-23030 -65470,-46080 -98190,-69110 -33260,-2770 -114380,-7730 -94160,30060 10230,9570 23980,18260 37060,25930 -6790,-670 -51300,-5280 -105950,-10460l-2710 -1900c-9790,-810 -23760,-1820 -38050,-1880 -91740,-8290 -192300,-16010 -192280,-9710 -12490,13730 -84330,12200 -146960,7550 -1110,-7930 -35020,-9280 -67450,-6430 -10860,-1280 -19450,-2470 -24650,-3340 -25170,-8070 -50310,-16160 -75480,-24260 -67550,-1340 -135110,-2670 -202660,-4030 -3970,-240 -7990,-480 -11970,-700 4300,-2390 8630,-4740 12920,-7160l-26610 140c30000,-11750 65650,-25760 103320,-40680 173510,40900 1168430,-80300 1684510,-82480 -25380,33360 -44930,70240 -24970,88890 30070,-4820 60170,-9650 90260,-14480 29820,8370 59630,16720 89450,25070 -15630,1720 -31240,3440 -46890,5160 -67530,-45560 -56410,-35810 -7980,-450 -12260,1960 -23840,2350 -36420,1780 7000,3050 14010,6110 21010,9160 -120,6590 -280,13180 -390,19760 -6140,950 -12310,1900 -18440,2850 16480,2320 32960,4590 49440,6890 -360,-2650 -690,-5300 -1030,-7980 33810,8590 67620,17200 101440,25760 -23010,-25000 -21020,-9140 -32510,-13770 -5050,-8210 -10090,-16440 -15120,-24650 3090,8210 11100,24420 11100,24420 -12180,-740 -74960,-24360 -11100,-24420 -2590,-3060 -4250,-5040 0,0 7320,440 21980,1310 21960,1310 3210,6780 6410,13550 9600,20360 12920,8620 99100,21660 119900,22890 158510,45070 1498970,84400 1659560,142430 -61240,-33580 -1093230,-119860 -1411500,-172510 335900,39690 1432920,76730 1577250,128880 -56920,-31220 -952650,-107960 -1334220,-160910 1289430,-27380 2291010,-12440 3897120,-93060 625410,-31400 1395810,59490 2235950,-64030 -2850,-9570 -560,-16760 5040,-22430 53260,-6260 106840,-13280 160710,-21190 -2350,-7900 -1180,-14170 2440,-19290 159920,210 297260,-12190 440230,-17470l-1560 550c59250,-300 118070,-830 174830,-2290 47070,1040 95760,3540 146880,8030 -152690,2830 -416210,11320 -487470,37890 219430,-1130 433190,-5090 557040,-49760 111410,21500 192840,14720 371540,16970 3380,-13020 -4540,-30540 22610,-32800 27140,1130 52590,18660 69560,-1130 -16970,-3760 -34640,-7160 -52940,-10270l40340 20c14880,7130 29640,14070 44260,20800 155510,2290 130790,-8710 42460,-22910 1930,-12630 -3250,-28040 22080,-30140 27140,1130 52580,18660 69560,-1120 -89800,-19890 -199370,-30140 -317860,-36130l-52750 -27220 9100 -740c29840,1470 785850,80430 393160,74630 -68650,-31610 -140530,-67900 -212130,-104900 17630,-3420 30270,-7770 35650,-13570 -7670,-7300 -17760,-12700 -29750,-16580 89330,-4730 178560,-8780 195510,-27040 -13550,-12860 -34620,-19790 -60380,-23090 383820,-10590 831490,-26200 985280,-51780 -36660,-6810 -83490,-12480 -138060,-17330 133130,-7380 242140,-16030 303810,-26300 -232430,-43130 -872640,-41860 -1314240,-60340 -8370,-3460 -13750,-8410 -15690,-15040 28000,-6110 61180,-9890 95250,-11250l1520 990 -330 -1030c47420,-1860 96450,930 135420,8470l220 -40c50310,-19230 377190,-16980 114790,-24890 -30750,-10830 -95440,-5720 -164430,-420 -8940,-3480 -14660,-8570 -16680,-15450 67290,-14700 164570,-15830 231860,-2830l220 -40c50310,-19230 377190,-16970 114790,-24890 -66560,-23420 -292400,27800 -376210,-6050 34070,-9320 59200,-18760 68460,-27800 24190,100 47870,810 70750,2260 -7500,-9900 -36800,-9420 -66660,-8730l13550 -31830c75480,-5110 150700,-7380 218860,-3070 -12580,-16600 -86460,-4000 -121480,-10270 458060,-1660 1048670,12190 1383130,-20750 360,-3030 -86650,-12110 -220810,-24340 146540,-3010 279670,-8760 386570,-19290 990,-8190 -640110,-61110 -1125340,-99830 462710,-1310 838340,-9000 16370,-38800l-34350 -4590c527560,100 1129730,-5340 200100,-39040 -97690,-12660 -439450,-61940 -652600,-98380 -6600,-2890 -20550,-5110 -38540,-6710 -41660,-7380 -76420,-14030 -100680,-19490 49900,-280 90340,-4210 117580,-17750 -20620,-6130 -41370,-10380 -62140,-13190 93360,-26140 218460,-60150 296330,-97090 136710,21250 311430,66020 429800,75880l-408090 -86960c18750,-10380 33290,-20910 41920,-31550 6230,-18130 12440,-36210 18680,-54310 0,20 2690,-5660 2940,-7760 -20710,3230 -33080,-44060 -35730,-53540 -10460,-46030 20720,-66210 51840,-87110 80190,6060 167300,11600 169490,7160 -1800,-2110 -72510,-11170 -149920,-20930 22410,-17210 39530,-38200 32440,-75020 -99300,21880 -47380,-36290 -110570,-50060 -45610,-6920 -69070,3010 -110380,-19520 94050,-8630 179780,-15750 201230,-12730 -4140,3070 -2810,4340 0,0 -5980,4240 -13750,-11310 -23110,-32030 89110,-8110 168370,-14480 188860,-11590 -4130,3070 -2810,4330 0,0 -15510,11020 -43290,-111450 -78960,-111490 -17310,-1540 -22850,-5220 -6570,-12280 -38690,-62270 -38660,-38270 -69080,-43630 -10250,-12720 -18700,-30370 -20720,-44750l-490220 -70850c153210,5300 324840,32050 420940,26570 -173620,-28850 -351760,-54840 -555340,-68990 81990,0 -18680,-62760 -23760,-53720 2830,-4510 8480,-6780 14700,-7910 -4510,-570 -9050,-1700 -14700,-2830 -68420,-14150 -85390,-76920 -46930,-64480 -118470,-37490 -335430,-27640 -487820,-66830 92400,-5780 177910,-14760 251370,-29220 -87960,2670 -195490,9260 -299200,14340 -15200,-5700 -29380,-12170 -42300,-19510 188860,-3400 369280,-11310 507260,-38460 -156540,4770 -375120,21920 -523730,20850 13360,-4550 25050,-9850 34490,-16240 -26910,2300 -53990,5150 -81240,8330 88960,-14190 198170,-18890 247000,-51950 -259010,22060 -533280,93870 -829620,62200 39590,550 59380,-8490 68990,-22060 -221510,5500 -440920,12210 -658890,19470 293250,-18360 522790,-42540 744720,-112080 96250,-20860 188730,-48000 281570,-84390 -334770,60510 -911040,109710 -1267880,31110 -35630,39010 78050,6210 68990,32230 -240920,10740 -451290,0 -644690,14140 143310,28530 294030,23050 419820,31720 -216470,6880 -408160,-1070 -585570,11910 243670,48510 508800,-1310 636200,87310l-374410 13290 -37040 -18890c-9140,3400 -18280,6840 -27400,10250l2550 10820 18300 -630 -38440 -31010c6470,-3580 12940,-7160 19410,-10720 -6450,-12090 -34250,-14070 -47440,-6770 -120,6590 -280,13180 -400,19770 -29600,-21550 -51680,-26850 -92510,-33160 5040,8210 10090,16420 15110,24630 -113980,-23640 -90160,-46310 -200470,27740 -560,2470 -1250,4890 -2080,7260 -65770,-17190 -67590,-26410 -136890,18620l-67190 2110c-32710,-24860 -64560,-47320 -94970,-65520 -4550,-280 -7520,910 -10460,3320 8480,1860 16970,3640 25480,5460 8900,1740 36480,24240 73600,56940l-13260 400c-31060,-21730 -58580,-40050 -79570,-52270l21380 -2870 -25100 750c-16130,-9160 -27960,-14360 -33990,-14210 -3030,2500 -5440,11560 -5440,11560 -6550,100 -13630,1340 -21130,3480 -191580,890 -413070,-12340 -560150,9740 217440,10800 380760,13730 531600,1340 -16980,8010 -34840,18460 -52250,29160l-1450 -390c-8510,-1820 -16990,-3600 -25480,-5460 2950,-2420 5910,-3600 10470,-3330 5180,3110 10400,6330 15660,9680l-2310 1420 -21290 640c-16120,-9160 -27950,-14370 -33990,-14210 -3030,2490 -5440,11550 -5440,11550 -6550,100 -13630,1350 -21130,3490 -178220,830 -382320,-10570 -528330,5620 -1339490,-154620 -4952670,-219160 -6214720,-111530 -56090,32330 -52760,42630 -109170,21250 -57180,-13160 -182770,21370 -251430,16830 -15860,-5280 -31390,-9330 -48980,-10800 -6170,-370 14100,15650 45110,38680zm-4331990 58130c15750,-1250 35790,180 79760,7340 -4690,2040 -8510,3960 -11580,5760 -47820,4170 -86260,7930 -102030,4920 44620,260 46280,-9570 33850,-18020zm-172680 62500c-11730,450 -20970,280 -26920,-850 11670,60 20370,-560 26680,-1660 140,870 240,1720 240,2510zm-84080 -10290c-20080,3940 -47370,6950 -79540,9280l340 -12330 79200 3050zm-400370 142290l-20100 -2750c1450,-1420 5030,-2490 12210,-2950 2750,2080 5380,3980 7890,5700zm-121320 -15110c-31000,-2440 -60080,-2560 -95750,830 -27660,-2280 -53050,-5900 -43610,-23640 63900,7590 107230,15170 139360,22810zm-95810 830c-26380,2510 -56350,6940 -93350,13770 12780,-14210 1860,-18500 -12960,-21190 35580,2390 71010,4870 106310,7420zm-322100 -21230c-294890,-1760 -708410,-58560 -763180,-17040 -68310,-10620 -47300,-23620 -66350,-35570 292320,21630 566000,36460 829530,52610zm-881010 -56490c-13020,22540 -20720,11280 -34010,-2610l34010 2610zm1405540 154780c12800,-2790 27030,-4120 42070,-4310 -14350,1560 -28360,3000 -42070,4310zm123910 2690c9980,1580 19910,3360 29640,5240 -10700,-850 -20630,-2530 -29640,-5240zm-436780 210050c18670,240 35990,1110 51540,3090 -16660,-910 -33890,-1960 -51540,-3090zm-250990 77940l4830 550c5200,3460 13090,7180 22430,10820 -20730,1390 -42060,2340 -63960,2950 16280,-2610 28920,-7160 36700,-14320zm231640 126380c-51200,930 -98290,990 -143940,580 -60950,-4380 -119180,-10590 -169040,-2750l-10720 -180c11890,-3330 22870,-6850 31830,-9870 -60040,-29940 -74760,-39520 10470,-3330l21780 -8900c80150,12560 166850,19620 164320,-200 36180,32800 119890,-12440 138550,16400 -14270,3680 -28710,6350 -43250,8250zm-480630 19790l-6350 -3290c910,-120 1800,-270 2630,-490l-8050 -4970 110 20 7940 4950 4190 -1700 21470 8900c-7660,-1090 -15000,-2260 -21940,-3420zm39730 5730l7730 -3160c2970,3340 21690,6350 40180,2990l-3140 -1880 2120 270 3020 1740 4320 -790c10580,1350 20990,2560 31020,3560 -27290,2340 -57460,560 -85250,-2730zm96780 3800c44870,3840 79810,2830 82880,-7930l3070 -40c37370,28010 116630,-13610 135360,13610 -57250,-8620 -119340,-810 -179860,9720 -26370,-1820 -52310,-4080 -77320,-5520 8950,-80 17890,-220 26770,-420l-20 0c2710,-3180 6170,-6550 9120,-9420zm-25720 46460l-11590 810 -5640 -4730 12390 870 4840 3050zm-129830 132020c31110,-1920 66420,-2650 102790,-1920 -1050,1350 -790,3090 1420,5320 11420,7580 54980,11160 54960,11160l-6070 -6090 3440 300 6630 6030c8150,-870 16300,-1680 24430,-2530l-3830 -1550 9730 540c41230,15150 103950,21030 154680,22690 7220,3030 13710,6210 19370,9660 -93230,-11990 -153870,-16210 -217320,-14230 4510,-3580 8390,-7870 11480,-12960 -80390,26360 -122770,6470 -161710,-16420zm144370 -470l1980 100 1210 1060 -1840 240 -1350 -1400zm202050 86570c7610,-10010 10660,-22370 43740,-19310 -5100,6490 -7700,11910 -8350,16540 -10640,1010 -22360,1960 -35390,2770zm108790 36510l2240 1300 -6510 -890 4270 -410zm-207840 365400l-13790 600c-16950,-10830 -17170,-13500 13790,-600zm-60 9000l24380 1510 6920 3080 4530 -2390c71720,4410 127930,9380 64580,32450 48160,-4410 170130,-13540 231720,1940 -58700,-200 -126720,3770 -113010,24790l-1480 230c-84880,-9220 -166180,-22850 -239790,-30640 16260,-6160 31310,-13540 42510,-19110 -7500,-4280 -14360,-8280 -20360,-11860zm118650 81220c-11390,590 -22200,1520 -31670,2830l-12820 -1740c-9340,-560 -18640,-1110 -27960,-1660l-13330 7020c-40130,380 -74310,1090 -56810,8290 -57470,-7640 -112590,-15930 -163970,-21370 16260,-6150 31320,-13530 42520,-19110l-7820 -4510 2100 -1740c-1800,-100 -3520,-140 -5190,-40l-7570 -4430 22020 160 7400 3300 5870 -3090c86480,1660 163480,9420 247230,36090zm-109600 19010l-15810 -2010 20300 -360 -4490 2370zm-197040 -70810c-5160,-3970 -3840,-4740 6670,-950l-6670 950zm-143440 40940l-6690 650c-13470,-18020 -13150,-20480 6690,-650zm58620 18950c79400,2590 151730,11420 230140,36960 -3860,1620 -11560,2670 -21470,3380l-27460 -3720c-9340,-550 -18640,-1100 -27960,-1660l-13330 7030c-28050,250 -53240,710 -59830,3400l-50940 -28870 1720 -650c-17410,-12110 -17650,-13000 3990,240 4990,-2360 9950,-4690 14920,-7030 -9810,-1900 -19650,-3800 -29460,-5690 -3780,630 -7140,1460 -10050,2450l-10270 -5840zm93050 52730c9380,-260 18560,-460 27540,-560l-8390 4440 -10410 1060 -8740 -4940zm89590 16660l34120 -10880c-2010,-120 -3990,-240 -5990,-360l5400 -3600c41960,2750 78570,7770 110640,14720 -8250,2060 -50630,17960 -78710,34440l-65460 -34320zm77410 78540c2380,-290 4590,-650 6510,-1050 11120,15220 26690,36980 47470,66540l-13200 -360c-16580,-26050 -30730,-48590 -40780,-65130zm24440 -7240l95790 -21110c-66610,-51460 -93380,-74820 12470,-3200l26020 -11420c3280,-200 6520,-550 9430,-990 7640,3920 14820,8010 21630,12270 -16010,4290 -29640,10920 -37510,21050 -7660,-590 -17140,-1860 -23390,-5280 0,-20 -570,3890 -570,3870 -7820,-190 -15630,480 -22780,1570 -4900,-2540 -7870,-3760 -110,0 -24240,3760 -40740,13000 -23430,15510 -2550,-140 2770,4110 9520,4510 32070,8740 52170,-11380 63410,7700 3990,6780 11450,16180 19560,20930 20,0 1840,100 2020,120 19630,13130 42010,23300 66240,30620 -38180,180 -77770,-510 -115420,-1420l-102880 -74730zm286360 74710l-10480 -21880c5530,330 8640,-80 12440,-3230l11530 24500 -13490 610zm77260 -6310l-2850 -2650 20830 -320c-5630,1090 -11630,2080 -17980,2970zm44240 -3130c57240,-100 115030,1290 172010,1520 16120,-370 32270,-710 48390,-1080 18300,-1570 36580,-3150 54880,-4670 -8660,-520 -17310,-1030 -25970,-1550 -6100,-4740 8980,-9270 13430,-11080 -1480,-3930 -6920,-8340 -13020,-8680l31020 -3920c3470,3760 6080,6590 8210,8770 -17010,930 -30250,3820 -36910,10050 22250,120 41110,1760 57930,4530 2170,2750 4190,5140 3240,4090 20,0 -5320,-310 -7990,-450 5020,2910 10010,5870 15030,8780 -5500,3190 -9810,6490 -13070,9880 -147160,-5960 -285060,6800 -307180,-16190zm-30110 58170l-11810 0c-29250,-1500 -62210,-3030 -96530,-4430 -18110,-2950 -28950,-7820 -30260,-15730 -18040,5810 -43420,9730 -73280,12280 -81210,-1970 -157270,-1800 -198360,3450l-30390 -660 -46040 -33430c30490,1780 75070,1090 47840,-950 143060,10700 346120,-16170 438830,39470zm231500 87780l890 -3640 18870 4160 -19760 -520zm192250 36450c30230,6410 60380,13070 90290,20320l-17570 -380c-24090,-6980 -48390,-13530 -72720,-19940zm5243840 368510c-11260,-1130 -22020,-2460 -32170,-4100l17310 -6490c10740,-930 19030,-2510 19030,-2510l-3560 -3280 5800 -2180 2210 1760 40740 -14800 17890 -160 -67250 31760zm412810 162130c-39670,15710 -199890,-1100 -232060,-6530l-64140 -20590c81290,10980 134830,28650 224160,24120 4690,250 13990,830 13990,830 -1330,-80 -2670,-160 -3980,-240 630,20 1310,80 1980,120 13310,790 39940,2350 39940,2350 0,0 -2010,-120 -2010,-120l22120 60zm-346280 -31550l-163910 -3270c-3980,-230 -8000,-470 -11970,-690 4290,-2390 8620,-4750 12920,-7160l-26610 140c39010,-15280 87600,-34370 137740,-54330 -1470,1150 -2730,2210 -3800,3220l-68710 27540 14260 1860 -7790 1030c-7740,-2080 -8350,-2040 -1510,200 -19880,2910 -37730,7770 -52290,15060 42920,3100 109270,12700 171670,16400zm10038160 -542860l71260 -1800c-24530,1430 -48650,2320 -71260,1800zm165360 -199800c-36230,1140 -69660,160 -95520,-5420 -1500,-3550 -3760,-6910 -6870,-10030 6220,-1840 12030,-3700 17410,-5540 64720,-4300 77520,9390 84980,20990zm236150 -1028730l74390 -6950c25150,12330 51940,21670 76710,34210 26030,-9020 1860,-25740 62930,11640 12310,8540 20850,17490 35080,25820 6810,5300 346130,43660 350090,48350 -3840,7750 -267770,-15020 -299520,-17670 -12010,-5990 -24020,-11970 -36030,-17960 -37750,-13300 -77480,-33480 -112550,-50180 -2040,1680 -6950,7520 -6950,7520 -95000,-34600 -68730,-15410 -129730,8170 -8640,4100 -11120,-21090 -14420,-42950zm-3796290 -597420l-6730 -4000 16740 -2250 -10010 6250zm-526260 9180c166910,6630 301130,6920 426700,-3380 -5760,2710 -11610,5710 -17510,8900 -104980,2670 -210030,5040 -315210,7060 -29500,-4250 -61050,-8450 -93980,-12580zm-12927450 633590c11490,4650 48410,-1110 48410,-1110 -20660,-13460 -32700,-22790 4470,-3680 6810,-930 13630,-1820 20440,-2750 -13670,-3440 -27300,-6910 -40990,-10330 350,-40 -45430,9140 -32330,17870zm155760 9200c8980,-2100 17930,-4240 26930,-6340 -17350,-6310 -34700,-12580 -52010,-18890 -49430,630 -72220,40180 21090,24970 -27450,-26390 -38700,-37670 3990,260zm-1323680 -30610c34510,10900 85870,2410 121270,-4710 -55720,-36010 -74650,-51240 10440,-3320 16600,-4340 33220,-8610 49840,-12900 -33480,-5920 -66950,-11870 -100410,-17790 -18240,3600 -103410,18930 -81140,38720zm1548320 134850c-17180,-10250 -21150,-13350 2000,140 5480,-1010 10980,-2000 16460,-3010 -10490,-1940 -20990,-3860 -31480,-5790 -52630,870 -19470,14560 13020,8660zm-528190 -46650l-11520 2950 -2370 1960c-70360,-50690 -79640,-61670 13890,-4910zm-211250 1860c-1700,670 -3360,1360 -5000,2140l-4370 -1510c-9620,-220 -38270,-1130 -70500,-790 20240,-1480 32370,-7200 28310,-21410 -70690,23770 -166820,-23760 -186050,13580 34400,-3640 96430,7240 139540,8170 -60110,1640 -122570,8680 -94290,33180 68040,30900 185000,40100 266240,43400 -120710,-85050 -145660,-108120 24450,-2510 37440,910 74850,1800 112280,2670l-212530 -73720 20560 2380c67470,18440 155750,24910 221000,27560l-9960 -7030c9200,140 18150,60 26750,-210l7660 4730c37430,910 74850,1800 112280,2670l-66360 -23010 7520 -2240c-30770,-10410 -46550,-21840 -70970,-19780l-82720 -28690c83950,9040 245750,37040 319090,14240 -10760,540 -21610,620 -32450,320l32800 -9710c-42890,-14530 -56640,-31010 -105330,-10170 -4170,1070 -8310,2130 -12460,3200 -2690,2220 -6000,4790 -7660,7480 -78880,-11770 -151000,-27940 -197080,-6430l-4370 -1500c-9610,-220 -38260,-1130 -70490,-790 20240,-1490 32370,-7210 28310,-21410 -70690,23760 -166820,-23760 -186050,13570 34400,-3640 96430,7240 139540,8170 -60110,1640 -122570,8690 -94300,33180 8210,3720 17140,7140 26610,10270zm-542000 -18900c45150,14490 115190,3130 161680,-6310 -74130,-46890 -99540,-66080 12450,-3200 22230,-6610 44510,-13220 66770,-19810l-56740 -9970c44240,7280 102720,-2410 143280,-10640 -74140,-46890 -99540,-66080 12440,-3210 22240,-6610 44520,-13210 66780,-19800 -45290,-7980 -90600,-15890 -135870,-23840 -23760,5120 -136230,27870 -105030,53160 4840,1560 9950,2830 15290,3800l-76010 -13340c-14230,3070 -60270,12470 -88220,24930 -59550,-7710 -114990,-6010 -172700,10230 40830,-1960 100720,6090 150460,8770 -100,3020 1560,6110 5420,9230zm1320470 247080c-7850,-8140 -8900,-9780 1840,-240l-1840 240zm-321440 -203310c-360,-870 460,-930 2730,0l-2730 0zm331040 -165360c-3620,-10050 -3560,-11700 2310,120l-2310 -120zm-32050 300170l19960 -180c-180,2440 -570,5010 -1270,7780l-5440 -770c-4330,-2380 -8740,-4690 -13250,-6830zm-37970 -12460l-990 -850 2060 1030 -1070 -180zm55930 -770l-21540 -9880 8700 -2690c5960,3090 10410,7140 12840,12570zm-11280 -40620l-17350 -14520 12390 870 19820 12560c-5200,180 -10170,530 -14860,1090zm-28780 -24440c-6730,-6170 -6730,-7440 4810,-790l-4810 790zm150880 23010l1680 200 13370 6770 -5180 690c-3210,-2430 -7320,-5600 -9870,-7660zm6256480 1457920c48160,-24290 94370,-49040 126420,-69480 25630,-870 40700,-140 47840,1780l-19780 8620 -870 -190c200,0 -22480,2610 -16920,6920l1310 560c-20140,8920 -39570,17720 -57650,26130 -31400,9500 -62540,18740 -80350,25660zm-93420 -44180l7080 -3340c-3980,-1050 -7400,-2590 -9850,-4750 3660,-3540 12900,-8740 26510,-15230 -17770,-280 -35690,-760 -53780,-1330l-12300 5580c9410,8510 24150,14600 42340,19070zm81570 28990c-1450,-1430 -1450,-1670 470,-200l-470 200zm-6124520 -941990c25500,-6410 51910,-12840 78740,-19000 38400,-1220 73620,850 90280,21690 -76730,0 -127870,-3510 -169020,-2690zm451110 90450c-54780,-2000 -93460,-5660 -76250,-14780 23150,-4090 95580,-9550 160690,-7990 10710,2450 19790,5600 26570,9570 -14100,7520 -71440,9860 -111010,13200zm394900 249780l-53260 -6640c18600,1840 36430,4030 53260,6640zm-103350 -10760c2910,2830 6880,6190 6860,6190l-2900 -170 -9460 -6380 5500 360zm-382930 -29080l-160 410c-990,17270 -17370,7240 -32630,-5280 2870,-1110 4970,-2280 4970,-2280 -9100,-8540 -11200,-10980 1980,120 2830,-1140 5630,-2310 8460,-3440 -2510,-160 -13960,-930 -22270,-240l-10090 -9020 2510 -260c10600,480 21760,1170 33420,2040 1020,1070 1990,2360 2900,3900 2520,4250 6350,9520 10910,14050zm334080 204690l-30690 6570c2160,-7220 6750,-15550 20560,-11850 2570,630 6010,2590 10130,5280zm277340 68930l34070 -13280 2710 280c8910,1580 41690,7440 75920,14010 -36270,40 -73920,-340 -112700,-1010zm5114310 318910l-3060 -3030 4840 60 1750 1310 -3530 1660zm868320 338910c11610,13060 32780,19390 53510,22950 -21540,-35270 -29790,-50960 6000,360 7460,-890 14960,-1760 22430,-2630 -14850,-10110 -29730,-20220 -44590,-30330 710,100 -50060,-3090 -37350,9650zm-625040 -36860c12700,10290 35630,14010 54480,15080 -22990,-22570 -30620,-31340 3980,240 8150,-850 16300,-1660 24450,-2510 -15330,-6180 -30680,-12350 -46010,-18560 1560,210 -49720,-2770 -36900,5750zm-80920 -194720c-5170,-1620 -10330,-3220 -15490,-4860 -27900,3120 -6630,10760 7020,8330 -10640,-9200 -11220,-9540 0,0 2830,-1150 5640,-2320 8470,-3470zm-6170110 -680450c2000,90 6000,350 6000,350 810,-1280 1640,-2530 2470,-3820 -2830,1150 -5640,2300 -8470,3470zm69980 19940c5500,4290 18460,-2870 18460,-2870 -9100,-8550 -11200,-10980 1980,120 2830,-1150 5640,-2320 8470,-3440 -4670,-280 -40440,-2750 -28910,6190zm-549180 -313330c-11200,-10330 -15280,-14250 1980,100l8520 -2690c320,450 720,890 1270,1320 13490,4750 46890,-5140 46890,-5140 -17650,-14560 -30330,-26020 4470,-3700 6310,-2260 12600,-4550 18920,-6810 -13140,-2100 -26300,-4190 -39460,-6290 40,0 -34220,10980 -32600,19390l-19010 -4630c-5880,-360 -10030,-100 -12750,470 -46370,-19210 -147130,-30190 -150200,10230 52760,-11080 197110,5420 171140,-1980l830 -270zm-1276890 -51580c11500,4650 48410,-1110 48410,-1110 -20650,-13450 -32700,-22790 4480,-3680 6800,-930 13630,-1820 20430,-2750 -13670,-3440 -27300,-6900 -40990,-10330 360,-40 -45430,9140 -32330,17870zm-116710 -82050c-9040,-8580 -11220,-11020 1980,100 2000,120 4000,240 5990,360 -5000,-2930 -10010,-5880 -15030,-8810 -25880,-1520 -5420,11560 7060,8350zm272480 91250c8980,-2100 17920,-4230 26920,-6330 -17350,-6310 -34700,-12590 -52010,-18900 -49420,640 -72210,40190 21090,24970 -27440,-26390 -38700,-37670 4000,260zm-1323680 -30610c34500,10900 85870,2420 121260,-4710 -55710,-36000 -74650,-51240 10450,-3320 16600,-4330 33220,-8610 49830,-12900 -33470,-5920 -66950,-11870 -100400,-17790 -18240,3600 -103420,18940 -81140,38720zm2749460 468070c-64060,-100670 -91860,-149160 13200,360l-13200 -360zm-565350 -271840c-3440,-4490 -2650,-4990 3370,0l-3370 0zm-635800 -61380c-17170,-10240 -21150,-13350 2000,140 5480,-1010 10980,-1990 16460,-3000 -10480,-1940 -20990,-3860 -31480,-5800 -52620,870 -19460,14560 13020,8660zm-528190 -46650l-11520 2950 -2370 1960c-70350,-50690 -79630,-61670 13890,-4910zm15370 25800c8730,580 17730,440 26450,-140l11020 6830c37440,910 74850,1800 112280,2670l-66370 -23010 7530 -2240c-30760,-10400 -46530,-21840 -70940,-19780l-90200 -31260c-28910,-670 -229680,-7720 -182990,32720 68040,30910 185000,40110 266240,43410l-13020 -9200zm-768610 -42830c45140,14480 115180,3120 161680,-6310 -74140,-46890 -99540,-66080 12440,-3210 22240,-6610 44520,-13210 66770,-19800l-56740 -9970c44240,7280 102720,-2420 143280,-10650 -74130,-46890 -99530,-66080 12450,-3200 22240,-6610 44510,-13220 66770,-19810 -45290,-7970 -90590,-15890 -135860,-23840 -23760,5130 -136240,27880 -105040,53160 4850,1570 9950,2830 15300,3800l-76020 -13330c-23760,5120 -136230,27870 -105030,53160zm1278960 249540c11420,7580 54980,11160 54960,11160 -22690,-22730 -30630,-31400 4000,240 8150,-870 16300,-1680 24430,-2530 -15330,-6180 -30660,-12350 -46020,-18560 710,140 -50030,-3070 -37370,9690zm-402540 -146420c12400,4350 50410,-970 50390,-970 -42870,-25410 21760,6170 117190,-20800 -45190,-34800 -76990,-61650 8920,-7400 16120,-5640 32210,-11290 48330,-16930l-15940 -2910c-26650,-16960 35510,8740 124440,-16380 -45190,-34800 -76980,-61650 8930,-7400 16120,-5640 32200,-11300 48330,-16940 -32150,-5850 -64280,-11710 -96410,-17550 -20950,7840 -85570,31580 -78590,50750 -3140,-180 -19520,670 -33250,2690l-53920 -9810c-20950,7830 -85570,31570 -78580,50750 -6430,-380 -67730,3540 -49840,12900zm473670 -173890l-9840 -24400 4810 580 11020 24190c9970,580 19960,1170 29930,1760l-20510 -23460c102780,12820 196220,28090 248490,-1030 -63090,0 -168740,-7930 -260840,-13100l-21880 -24980c0,0 -61000,-7290 -50650,21560 -34420,-1210 -63450,-1340 -82660,420l-490 -180c-49430,630 -72220,40180 21090,24970 -8410,-8100 -15280,-14740 -19570,-19020l1560 -60c4550,3900 11700,10190 22000,19330 8990,-2090 17930,-4230 26930,-6330l-36300 -13170c24190,-120 48710,1100 73140,3080 13630,16210 37000,26300 63770,29840zm-14570 -36410c-10150,-26070 -12200,-33950 3800,200l-3800 -200zm-49950 285870c19470,-170 38910,-330 58380,-510 -16520,-7580 -33000,-15140 -49520,-22710 11000,-3470 23640,-7240 35200,-9740 -52670,-45150 -104960,-83550 13100,-7200l31310 -11970c22680,4350 46320,6690 67290,7930 0,0 -12580,-9410 -16020,-12400l350 -40 25660 13020c19470,-180 38920,-340 58390,-520l-46650 -21380 17760 -2080 -6170 -3640c6920,-2000 14010,-3900 20730,-5340l-2090 -1800 970 -320 -1760 -360c-51640,-44040 -99920,-79690 15980,-4720 11950,-4580 23920,-9150 35870,-13700 17790,1030 60860,-4350 60860,-4350 -2120,-590 -2970,-2810 -3520,-4150 14960,-1740 29930,-3510 44890,-5250 -2490,-1500 -5010,-2940 -7500,-4430 6980,-2210 13950,-4450 20930,-6670 -17660,-3680 -35330,-7380 -52960,-11040 -4550,-170 -8960,1410 -12460,3230 -5840,-1660 -11680,-3320 -17510,-4990 -16090,5640 -32210,11300 -48300,16940 -27380,9580 -56330,-13630 -84930,-12940 -860,-2270 -74910,31640 -80650,34840 -8860,480 -56840,2670 -61310,12510 -7930,-2280 -15890,-3920 -23800,-3720 -850,-2280 -74910,31630 -80640,34840 -10870,590 -80450,3740 -56790,20370 33540,21530 90320,29050 134920,31720 0,0 -14050,-10550 -16520,-12860 8820,4490 17660,8960 26510,13430zm-935940 -126440c68040,30900 185010,40100 266240,43410 -120700,-85060 -145650,-108130 24460,-2520 37430,910 74840,1800 112280,2680 -73330,-25450 -146670,-50870 -219990,-76290 -28910,-680 -229680,-7720 -182990,32720zm10307450 975940c650,60 1320,80 1990,140 -4700,-7700 -5950,-4830 -1990,-140zm-148530 -52290c-4880,-280 -9140,490 -12460,3230 21010,15050 44410,23320 74450,16260 -12900,-24160 -34860,-10490 -61990,-19490zm-14520 -12720c0,0 480,-3940 2450,-3820 -4820,-280 -3640,710 -2450,3820zm-9303960 -908830c-11260,-6790 -11540,-7340 0,0 2830,-1150 5640,-2300 8460,-3470 -5160,-1620 -10320,-3240 -15490,-4860 -28290,2270 -5540,11570 7030,8330zm-141860 -24180c9500,4510 36880,-5760 36880,-5760 -20460,-10350 -19730,-10480 4020,240 4980,-2320 9930,-4710 14910,-7020 -10660,-640 -21310,-1270 -31950,-1880 2450,-870 -33970,13810 -23860,14420zm334340 -4060c-11610,-5790 -21540,-10820 -29360,-14890 910,-120 1800,-280 2630,-500 -11250,-6790 -11530,-7340 0,0l4200 -1700c8660,3520 19600,8070 33000,13770l14010 -5720c2980,3370 21680,6350 40160,2990 -17170,-10250 -21150,-13360 2000,140 5480,-1010 10980,-2000 16460,-3010 -10490,-1940 -20990,-3860 -31480,-5800 -6250,100 -11280,420 -15250,810l19110 -7810c34090,2040 82070,-12410 110280,-21900 -13950,-6950 -25440,-12800 -33810,-17250 5460,610 10860,1340 16180,2150l28090 11770 11460 -4680c43470,8500 80720,16200 109940,830 -15470,-2340 -48070,-6970 -84220,-11340l13610 -5560c-34620,-2040 -69240,-4080 -103850,-6110l-6920 2310c-38700,-2210 -63910,-490 -49920,9950 8860,-990 17590,-1460 26180,-1540 -27840,10550 -61120,26100 -50400,37890l-84690 -4990c-17530,5900 -103760,33400 -78570,50770 33970,6670 89780,-10010 121160,-20580zm-43110 -22310c-9120,-5230 -8550,-6040 4950,-950 -2000,270 -3640,590 -4950,950zm684490 40380c13500,4750 46890,-5150 46890,-5150 -17640,-14560 -30330,-26010 4470,-3700 6320,-2250 12610,-4550 18920,-6800 -13140,-2100 -26300,-4200 -39450,-6290 40,0 -41870,13370 -30830,21940zm-107780 -89470c2630,3130 -16410,-21470 2490,-3800 2650,140 5320,300 7970,480 -27000,-9520 -39330,9530 -10460,3320zm256510 90320c7790,-3480 15610,-6990 23400,-10510l-43130 -16740c63270,4710 124500,8430 152700,-5160 -85970,3400 -230180,-23760 -278810,-570 32390,-1270 72870,1740 113350,4780 -38820,7460 -58820,52750 26490,27860 -13790,-16420 -22510,-27260 -21700,-27500l20 0c870,-40 9080,8090 27680,27840zm274190 -55060l-4090 -13540 5060 -730 5030 14620c8800,-810 17600,-1580 26410,-2390l-11750 -17250 3870 -1680 -4920 150 -35000 -51320c-33240,-1800 -54470,7480 -48220,32790 3270,6010 7440,11450 12430,16280 -78450,-5190 -167040,-15670 -203090,1520 32390,-1260 72870,1740 113350,4790 -38820,7460 -58820,52750 26490,27860 -13790,-16430 -22520,-27270 -21710,-27500l20 0c870,-40 9080,8090 27680,27830 7800,-3480 15610,-6980 23410,-10500l-43130 -16740c32880,2430 65190,4610 92610,4230 9910,5500 21760,9440 35550,11580zm-6310 -20880c-15170,-50760 -20080,-72230 5030,120l-5030 -120zm17035890 -706890c5520,-4550 8060,-6640 0,0zm-18573300 -516890c125550,-16980 185480,24890 277680,-9040 -84270,7360 -266360,-37340 -277680,9040zm689930 -435460c-118770,-3960 -286720,-43550 -391340,-18110 126110,10750 318950,46930 391340,18110zm169890 432470c22260,1170 44320,2280 66140,3230 280,3380 740,7400 500,12660l-69570 -3400c-170,-4810 950,-8890 2930,-12490zm-387780 -26430l-7380 870 890 -1540 6490 670zm-259970 440550c570,-10750 19230,-11880 24320,-20940 -41850,-13000 -268620,-12440 -231860,11320 29400,1130 32800,-12440 70120,-7910 29400,40710 482940,33350 137420,17530zm2227010 -718780c2250,13570 6210,26010 45250,23180l1120 -32230c-57110,-3950 -111980,-6210 -115930,16980 31670,1700 50900,-2830 69560,-7910l0 -20zm-2631350 939340c70690,-3410 198500,23180 231860,0 -83140,-17530 -155510,-21490 -231860,0zm811510 -527640l161740 7360c7360,-45250 -141930,-17530 -161740,-7360zm-469370 -347230c-78050,3410 -213780,-23760 -254490,-570 78600,-3400 213770,23760 254490,570zm187760 432060c-87100,9040 -247710,7920 -231860,11320 204160,39590 524230,66160 692190,42420 -36190,-2830 -80310,-2260 -68440,-24890 -187180,-2830 -268620,18660 -438840,-9040 28270,0 54860,-1130 46930,-19790l20 -20zm2228700 -209810c-106870,9040 -203580,-40720 -276530,-10750 80860,20360 341010,19790 276530,10750zm905390 -128940c83140,-31680 238650,28850 278240,-33930 -318400,0 -786070,-76350 -1082980,-61080 269740,46930 597760,58820 851100,85970 -17530,1700 -45250,-1130 -46380,9040l20 0zm14790010 275980c-41840,-23770 -214900,-40720 -277100,-18110 75770,20940 232980,42420 277100,18110zm-1387220 -255050c25440,-31670 48080,-64480 91620,-87650 -70690,-7360 -83690,11880 -138550,11880 -2260,33930 10740,60500 46930,75770zm-13056690 -19800c262960,-14700 683720,36180 899730,18650 -234690,-19230 -710290,-61650 -944980,-41840 67290,-1130 79180,5080 45250,23190zm326310 -86520c-70690,-34510 -240920,-22060 -345540,-11870 130060,-9040 273140,31670 345540,11870zm-1514560 260540l-66840 -2570c3370,6830 4610,14500 3740,23070 39160,3070 72060,2910 68400,-16160 -3360,-680 -4650,-2260 -5300,-4340zm-157790 -2370l-470 17810c9770,-1050 22040,-780 35410,30 3250,-1500 7600,-2900 13400,-4110 -5900,-14840 -26180,-16030 -48340,-13730zm3423750 -172780c-32800,-3400 -38460,-18660 -68440,-23760 9050,29970 -85960,7910 -93300,29970 48080,-4530 151000,18100 161740,-6210zm10744870 2290360c111400,-13000 325180,28270 325180,-2830 -115940,11320 -236960,-31100 -325180,2830zm-1254340 84820c286150,-1700 604550,40710 836980,27720 -229600,-24890 -558740,-61650 -836980,-27720zm2277340 -62780c50910,-2830 74080,7910 70120,31680 62200,-7920 145340,-6220 185480,-23770 -91620,6790 -180390,-43540 -255620,-7910l20 0zm-16197570 -1293900c-137980,45250 -164000,-45800 -252790,-54290 11320,42420 209240,126110 252790,54290zm-570610 -730080c213770,29970 252210,-24890 0,0zm110850 113660c278230,16980 298590,17530 508960,-570 -238640,-11870 -357960,-37890 -508960,570zm581910 -84260c-49200,-54290 -243750,3400 -300290,-12440 83690,32800 179270,-5090 300290,12440zm-912750 753270c16400,9610 252220,-2830 232430,-10750 -80300,5090 -97260,-16400 -137980,-27720 -18100,19790 -69560,4530 -24890,31680 -26570,-570 -65030,-5660 -69560,6790zm848290 231870c-301420,1700 -461460,-9610 -627150,16980 249380,7360 482390,1130 627150,-16980zm-586460 149300c56550,-11870 218290,7910 162870,-3960 -36760,-22610 -159480,-40720 -162870,3960zm-908810 -811120c34510,10900 85870,2420 121260,-4710 -55710,-36000 -74650,-51240 10450,-3320 16600,-4330 33220,-8610 49840,-12900 -33480,-5910 -66960,-11870 -100410,-17790 -18240,3610 -103420,18940 -81140,38720zm1080070 107300c-32330,-30020 -46100,-45550 12720,510l-12720 -510zm185840 7630c-360,-870 450,-930 2730,0l-2730 0zm6672400 1522260c-1450,-1420 -1450,-1660 470,-200l-470 200zm829250 289850c11620,13060 32790,19390 53520,22950 -21550,-35280 -29800,-50970 5990,350 7460,-890 14960,-1760 22440,-2630 -14860,-10110 -29740,-20220 -44590,-30330 710,100 -50060,-3080 -37360,9660zm-625040 -36860c12700,10290 35640,14010 54490,15080 -22990,-22580 -30630,-31340 3980,230 8150,-850 16300,-1660 24450,-2510 -15330,-6170 -30690,-12350 -46020,-18560 1560,220 -49720,-2770 -36900,5760zm191880 -139050c3160,1530 6350,3010 9490,4510 -15610,1720 -31220,3450 -46870,5170 1190,1340 3190,3680 5500,4270 -25900,5320 -60120,8410 -81870,-4850 -7690,-4490 -2670,-8270 3450,-11650 2370,-19530 179320,-28450 110300,2550zm-6922110 -1029520c-11190,-10330 -15270,-14240 1980,100 3500,-1110 6990,-2210 10490,-3320 -7180,-1740 -14350,-3480 -21490,-5230 -33910,-1990 -9910,15240 9020,8450zm-1276880 -51580c11490,4650 48410,-1100 48410,-1100 -20650,-13460 -32700,-22800 4470,-3680 6810,-930 13630,-1820 20440,-2750 -13670,-3450 -27300,-6910 -40990,-10330 350,-40 -45430,9140 -32330,17860zm-116710 -82040c-9040,-8590 -11220,-11020 1980,100 1990,110 3990,230 5990,350 -5000,-2930 -10010,-5870 -15040,-8800 -25870,-1530 -5420,11550 7070,8350zm-1051200 60640c34500,10900 85860,2410 121260,-4710 -55720,-36010 -74650,-51240 10440,-3330 16600,-4330 33220,-8600 49840,-12900 -33480,-5910 -66950,-11870 -100410,-17780 -18240,3600 -103410,18930 -81130,38720zm1021070 87940c-4180,1070 -8310,2140 -12470,3210 -5280,4350 -12900,10050 -5890,15490 22330,10420 56420,8460 81860,4820 -35490,-32680 -53320,-51850 8470,-3460 11120,-3300 22240,-6590 33360,-9890 -42890,-14520 -56640,-31000 -105330,-10170zm524770 232770c11410,7580 54980,11160 54960,11160 -22700,-22740 -30630,-31400 3990,230 8160,-870 16310,-1680 24440,-2530 -15330,-6170 -30670,-12340 -46020,-18560 710,140 -50040,-3060 -37370,9700zm71120 -320320l-9830 -24390 4810 570 11020 24200c9970,570 19960,1170 29930,1760l-20520 -23470c102790,12820 196230,28100 248500,-1020 -63090,0 -168740,-7940 -260840,-13100l-21880 -24990c0,0 -61000,-7280 -50650,21570 -59160,-2060 -102410,-1010 -107180,7470 36820,-2770 74950,-1520 112880,1570 13630,16200 36990,26290 63760,29830zm-14560 -36400c-10150,-26080 -12210,-33950 3800,200l-3800 -200zm-287310 137340c9490,4520 36880,-5750 36880,-5750 -20460,-10350 -19730,-10490 4010,230 4990,-2310 9930,-4700 14920,-7020 -10660,-630 -21310,-1270 -31950,-1880 2450,-870 -33970,13810 -23860,14420zm1330160 125910c-17410,-12100 -17640,-12990 4000,240 4990,-2350 9950,-4690 14920,-7020 -9820,-1900 -19650,-3800 -29460,-5700 -35040,5880 -33600,29580 10540,12480zm-218200 -24730c9490,4510 37370,-9670 37370,-9670 -17690,-8430 -21190,-10840 1980,120 4980,-2340 9970,-4670 14940,-7030 -9970,-590 -19970,-1180 -29960,-1760 1920,-930 -32500,17890 -24330,18340zm13911190 -1444740l-4170 -1400 3220 1440 950 -40zm2860440 1548590c-180,-4030 -1110,-19860 -9580,-20350 -990,2570 -1980,5140 -2970,7730 3720,4430 8830,8210 12550,12620zm339600 -593340c-510,-3840 -1230,-23780 -9120,-24280 171240,36510 342410,72990 513650,109450 -141380,-11770 -363150,-73380 -504530,-85170zm205030 -379650c5520,-4550 8050,-6650 0,0zm-18573300 -516900c125550,-16970 185480,24890 277670,-9040 -84260,7360 -266360,-37330 -277670,9040zm689930 -435460c-118770,-3960 -286720,-43550 -391340,-18100 126100,10740 318950,46930 391340,18100zm-249960 411700c246560,3960 553080,40140 761750,23190l-391900 -16980c-115940,1710 -291250,-27710 -369850,-6210zm1107290 59380c-30550,-1130 -20360,-19790 -45250,-23770 9040,57700 -80300,-39590 -115940,6220 61650,-3410 115940,49760 161170,17530l20 20zm891820 -343270c2250,13570 6210,26020 45240,23190l1130 -32230c-57120,-3960 -111980,-6210 -115940,16970 31680,1710 50910,-2830 69570,-7910l0 -20zm-2289220 64480c-78050,3400 -213770,-23760 -254490,-580 78610,-3400 213780,23770 254490,580zm187760 432060c-87090,9040 -247700,7910 -231860,11310 204160,39590 524240,66170 692190,42420 -36180,-2830 -80300,-2250 -68430,-24890 -187190,-2830 -268620,18660 -438850,-9040 28270,0 54870,-1130 46930,-19780l20 -20zm2228710 -209820c-106880,9040 -203580,-40720 -276530,-10740 80860,20360 341010,19780 276530,10740zm905390 -128940c83130,-31670 238640,28850 278230,-33930 -318390,0 -786060,-76350 -1082970,-61070 269740,46930 597750,58820 851100,85960 -17530,1700 -45250,-1130 -46380,9040l20 0zm14790010 275980c-41840,-23760 -214900,-40720 -277100,-18100 75770,20930 232980,42420 277100,18100zm-1387230 -255040c25450,-31680 48080,-64480 91630,-87650 -70690,-7360 -83690,11870 -138550,11870 -2260,33930 10740,60500 46920,75780zm-13056690 -19810c262960,-14700 683720,36190 899730,18660 -234680,-19230 -710290,-61650 -944970,-41850 67280,-1120 79170,5090 45240,23190zm326310 -86520c-70690,-34500 -240920,-22060 -345540,-11870 130070,-9040 273150,31680 345540,11870zm942150 127240c-5080,-16980 -37890,-2830 -46370,9610l276530 8490c50900,-19780 -167960,-11870 -230180,-18100l20 0zm809260 -41850c-32810,-3400 -38470,-18650 -68440,-23760 9040,29980 -85960,7920 -93300,29980 48070,-4530 150990,18100 161740,-6220zm11872490 252790c80860,15830 29400,-5080 0,0zm-1127630 2037580c111410,-13000 325180,28270 325180,-2830 -115930,11310 -236960,-31110 -325180,2830zm-1254330 84810c286150,-1700 604540,40720 836970,27720 -229600,-24890 -558740,-61650 -836970,-27720zm2277340 -62770c50910,-2830 74070,7910 70120,31670 62200,-7910 145340,-6210 185480,-23760 -91620,6790 -180400,-43550 -255620,-7910l20 0zm-16657330 -1910320c278230,16970 298590,17530 508960,-570 -238640,-11880 -357960,-37890 -508960,570zm-330840 669000c16400,9620 252210,-2830 232430,-10740 -80310,5080 -97260,-16400 -137980,-27720 -18100,19780 -69560,4530 -24890,31670 -26570,-570 -65030,-5650 -69560,6790zm-129490 298040c96700,-10750 177560,39010 231300,10740 -48630,-7360 -266920,-37330 -231300,-10740zm399250 -101240c139680,570 204160,9610 255050,0 -43550,-4530 14140,-17530 -22060,-22610 9610,18100 -127240,12440 -115940,-5090 13000,570 26570,-7910 570,-10740 -8480,28840 -98410,15270 -117620,38460l0 -20z"/>
 </g>
</svg>
