<?xml version="1.0" encoding="UTF-8"?><!-- Generator: Adobe Illustrator 23.0.2, SVG Export Plug-In . SVG Version: 6.00 Build 0)  --><svg xmlns="http://www.w3.org/2000/svg" enable-background="new 0 0 328.86 49.32" id="Layer_1" version="1.1" viewBox="0 0 328.86 49.32" x="0px" xml:space="preserve" y="0px">
<linearGradient gradientUnits="userSpaceOnUse" id="SVGID_1_" x2="328.86" y1="24.661" y2="24.661">
	<stop offset=".3234" stop-color="#FFB198"/>
	<stop offset="1" stop-color="#FF3E89"/>
</linearGradient>
<path d="m19.49 4.87c-1.76 0.19-5.47-0.24-7.34-0.34 0.88-0.58 5.3 0.2 7.34 0.34zm-16.09 3.3c2.22-0.3 3.28 0.44 4.91-0.16-1.49 0.13-4.71-0.66-4.91 0.16zm12.2-7.7c-2.1-0.07-5.07-0.77-6.92-0.32 2.23 0.19 5.64 0.83 6.92 0.32zm-1.24 18.37c-1.25 0.42-2.95-0.42-3.29 0.24 1.04-0.11 3.51 0.53 3.29-0.24zm-3.18-11.09c4.36 0.07 9.78 0.71 13.47 0.41l-6.93-0.3c-2.05 0.03-5.15-0.49-6.54-0.11zm19.58 1.05c-0.54-0.02-0.36-0.35-0.8-0.42 0.16 1.02-1.42-0.7-2.05 0.11 1.09-0.06 2.05 0.88 2.85 0.31zm-23.61 6.64c0.01-0.19 0.34-0.21 0.43-0.37-0.74-0.23-4.75-0.22-4.1 0.2 0.52 0.02 0.58-0.22 1.24-0.14 0.52 0.72 8.54 0.59 2.43 0.31zm39.38-12.71c0.04 0.24 0.11 0.46 0.8 0.41l0.02-0.57c-1.01-0.07-1.98-0.11-2.05 0.3 0.56 0.03 0.9-0.05 1.23-0.14zm-46.53 16.61c1.25-0.06 3.51 0.41 4.1 0-1.47-0.31-2.75-0.38-4.1 0zm15.97 9.37c-2.25 0-7.56-0.57-7.79-0.16 2.92-0.22 6.3 0.99 7.79 0.16zm-1.62-18.7l2.86 0.13c0.13-0.8-2.51-0.31-2.86-0.13zm-8.3-6.14c-1.38 0.06-3.78-0.42-4.5-0.01 1.39-0.06 3.78 0.42 4.5 0.01zm3.32 7.64c-1.54 0.16-4.38 0.14-4.1 0.2 3.61 0.7 9.27 1.17 12.24 0.75-0.64-0.05-1.42-0.04-1.21-0.44-3.31-0.05-4.75 0.33-7.76-0.16 0.5 0 0.97-0.02 0.83-0.35zm39.41-3.71c-1.89 0.16-3.6-0.72-4.89-0.19 1.43 0.36 6.03 0.35 4.89 0.19zm16.01-2.28c1.47-0.56 4.22 0.51 4.92-0.6-5.63 0-13.9-1.35-19.15-1.08 4.77 0.83 10.57 1.04 15.05 1.52-0.31 0.03-0.8-0.02-0.82 0.16zm194.99 1c-3.67 0.13-8.42-0.25-11.42 0.2 4.83 0.24 8.15 0.26 11.42-0.2zm-38.33-0.46c4.42-0.18 8.83-0.41 12.65-0.9-4.52 0.16-9.05 0.32-12.65 0.9zm48.52-1.48c4.42 0.88 9.24-0.07 11.42 1.67 9.33-0.52 15.21-0.7 21.18-3.04-5.92 1.07-16.11 1.94-22.42 0.55-0.63 0.69 1.38 0.11 1.22 0.57-4.26 0.19-7.98 0-11.4 0.25zm56.35 5.82c-0.74-0.42-3.8-0.72-4.9-0.32 1.34 0.37 4.12 0.75 4.9 0.32zm-24.53-4.51c0.45-0.56 0.85-1.14 1.62-1.55-1.25-0.13-1.48 0.21-2.45 0.21-0.04 0.6 0.19 1.07 0.83 1.34zm-71.37 0.98c-1.29-0.05-3.23-0.78-4.49-0.21 0.24 0.72 3.78 0.83 4.49 0.21zm-159.51-1.33c4.65-0.26 12.09 0.64 15.91 0.33-4.15-0.34-12.56-1.09-16.71-0.74 1.19-0.02 1.4 0.09 0.8 0.41zm5.77-1.53c-1.25-0.61-4.26-0.39-6.11-0.21 2.3-0.16 4.83 0.56 6.11 0.21zm16.66 2.25c-0.09-0.3-0.67-0.05-0.82 0.17l4.89 0.15c0.9-0.35-2.97-0.21-4.07-0.32zm231.7 29.48c-1.19-0.23-2.91-0.21-4.1 0.05 0.1 0.34 0.71 0.43 1.65 0.36-0.3 0.62-3.04-0.16-2.87 0.23-0.3-0.17-0.02-0.77-2.06-0.55 0.93 0.73-1.05 2.27-3.66 2.54 0.35 0.28 1.32 0.26 2.06 0.36 0.29 0.51-0.84 0.38-1.22 0.59 1.67 1.03 6.2-0.47 7.4 0.67-0.65 0.7-7.31 0.22-6.96 1.24-2.42 0.46-6.44-0.46-9.44 0.49 5.47 0.27 11.92 0.04 16.03 0.95-0.3 0.35-0.75 0.04-1.23 0.02-0.48 0.04-0.34 0.35-0.4 0.58-3.16-0.04-4.6 0.08-6.57-0.3-2.19 0.79-5.97 0.86-9.85 0.88 1.26-0.47 5.92-0.62 8.62-0.67-5.68-0.5-9.65 0.41-15.6 0.15 0.01 0.18 0.5 0.14 0.82 0.18-0.61 0.3-1.84 0.31-1.64 0.98-13.33 1.96-34.58 1.21-48.07 1.54 0.01-0.19 0.5-0.15 0.82-0.19-2.92-0.16-7.21 0.42-11.09-0.02 0.03-0.21 0.28-0.31 0.65-0.35-6.27 0.15-11.78 0.79-18.72 0.09-5.69-0.57 1.67-0.13 1.64-0.18-0.63-1-7.56 0.64-8.63 0.14 0.1-0.28 1.23-0.06 1.24-0.37-1.03-0.39-1.98 0.18-3.7 0.36 0.1-0.21 0.82-0.13 0.82-0.38-7.61-0.17-15.4-0.08-23.3 0.07-7.9 0.14-15.91 0.27-23.96 0.13-0.74 0.5 1.8 0.4 0.4 0.58 0.66 0.36 1.3-0.12 2.05 0.41-0.17 0.37-1.88-0.01-1.25 0.75-1.14-0.38-1.07-1.3-2.02-1.76-8.16-1.19-14.86 0.65-23.85 0.31 0.28 0.39 1.09 0.54 2.04 0.62-0.18 0.78-5.22-1.82-6.16-0.14-4.86-0.98-8.54-0.76-14.38-0.52 0.06-0.34-0.5-0.42-0.39-0.77-1.26 0.08-1.19 0.83-3.3 0.49 0.07-0.36 1.39-0.08 1.65-0.34-3.31-0.68-7.12 0.07-10.69-0.09 0.84-0.37-0.16-0.38-0.81-0.6-0.23 0.28-0.26 0.29-1.25 0.54-0.69-0.14-0.24-0.45 0.42-0.37-5.51-0.46-14.82-0.36-23.02-0.3 0.04 0.43 1.74 0.14 2.46 0.27-0.24 0.17-1.15 0.25-0.42 0.37-13.16-0.42-28.87-1.2-39.81-2.17 1.07-0.62 3.78-0.4 6.18-0.34 1.06-0.01-0.55-0.35 0.03-0.77 1.49 0.23 2.2-0.26 2.87 0.11 0.27 0.53-1.93-0.21-1.66 0.32 0.7 0.47 2.03-0.38 3.3-0.26-3.23-0.94-8.59-0.79-11.45-1.59-0.48 0.01-0.36 0.33-0.43 0.56-2.81-0.86-8.93-0.2-13.14-0.53 6.76-0.82 16.69 0.16 23.03-0.05-2.68-1.13-5.77-0.42-7.78-0.68-0.51-0.07-1.01-0.57-1.21-0.62-0.41-0.11-0.36 0.38-0.42 0.37-0.66-0.08-1.01-0.55-1.62-0.63-2.41-0.34-4.99 0.58-8.63-0.16 0.06 0.23 0.74 0.2 1.22 0.25-2.38 0.47-2.97-0.51-5.75-0.24 0.39-0.39 5.14-0.2 7.81-0.06-1.63-1-5.24-0.52-7.78-0.71 0.94 0.07-2.96 0.05-0.4-0.21 1.11-0.11 6.87 0.35 8.64-0.22 0.1 0.61 3.4 0.19 6.56 0.45-2.16-0.78 3.35-0.14 4.94-0.2-1.69-0.5-2.21-1.1-4.06-1.11 0.45-0.42 2.58 0.02 3.7-0.05-1.35-0.44-3.49-0.54-5.73-0.6-0.1-0.31 0.4-0.31 0.43-0.56-2.94 0.25-5.79-0.5-6.98-0.08-1.2-0.82-3.14-1.33-6.52-1.23-1.04-0.31 2.04-0.1 2.47-0.28-2.15-0.7-4.04-0.69-6.54-0.66 2.16-0.9 5.66 0.13 9.43 0.4-1.14-1.2 1.73 0.48 2.89-0.46-0.08 0.15-0.42 0.18-0.42 0.37 1.99 0.32 1.62-0.59 3.3-0.44-1.14-0.27-2.55-0.25-4.1-0.17-0.91-0.29 2.03-0.23 2.48-0.47-0.82-0.48-3.53-0.28-4.51-0.19 1.62-0.59-1.18-0.51-2.84-0.7 3.03-0.3 4.55 0.36 6.98-0.09 0.02-0.29-2.42-0.38-0.4-0.4-3.04-0.55-6.37-0.28-8.19-0.34 1.31-0.62 2.21-0.37 4.94-0.37-0.72-0.9-3.4 0.18-4.07-0.75 0.12-0.39 1.8 0.02 2.06-0.3-1.88-0.72-5.91-0.54-8.99-0.76 2.14-1.18 6.75-0.3 9.88-0.74-0.83-0.35-4.47-0.51-5.32-0.22-1.42-0.39 0.82-0.46 1.65-0.32-2.35-0.85-2.4 0.43-4.1-0.17 0.25-0.59 2.39-0.19 3.3-0.43-0.08-0.25-1.21-0.3-1.23-0.05-0.2-0.76 5.32-0.23 7-0.67-0.09-0.48-3.38 0.1-1.22-0.24-1.58-0.21-1.39-0.37-3.26-0.52 3.04-0.08 2.75-0.56 5.75-0.14-0.48-0.3-1.78-0.26-1.19-1.01-1.08-0.1-0.35 0.73-1.66 0.51 0.01-0.19 0.02-0.38 0.02-0.58-2.77-0.19-4.05 0-6.14-0.26 3.21-0.39 4.27-0.48 7.38-0.08-1.58-0.96-6.84-0.97-8.17-0.53-0.49-0.42 0.32-0.26-1.63-0.26 1.03-0.29 0.84-0.39-0.8-0.42 0.67-0.45 2.86 0.04 3.68 0.15 0.31-1.23-2.39-0.47-3.24-0.9 1.92-0.45 4.14 0.21 5.74-0.14-0.57-0.08-2.28-0.29-4.08-0.36 1.87-0.19 4.22-0.99 6.17-0.51-0.57-0.87-3.08 0.08-4.48-0.57 1.81-0.67 4.54 0.35 6.98-0.28-0.33-0.51-1.81 0.29-2.45-0.29 0.07 0.55-3.74-0.07-4.9-0.4 4.88-0.04 7.38 0.23 12.7-0.05-2.91-0.12-5.03-0.81-8.55-1.12 1.74 0.8-1.16 0.14-1.63-0.26-0.37 0.4-1.52 0.38-2.88 0.26 0.02-0.18 0.51-0.13 0.83-0.16-4.69-0.76-10.21-0.62-16.73-1.31 8.66-0.33 17.22 1.17 22.9 0.61-9.04-1.06-14.16-1.33-26.11-2.1 5-0.48 11.99 0.77 17.18 0.19 0.61 0.19-0.13 0.28 0.37 0.78 1.76-0.33 8.74 0.53 11.85 0.5-0.06-0.23-0.74-0.19-1.22-0.24 0.8-0.61 1.66-0.05 3.28-0.06-0.81-1.09-4.11-0.25-6.93-0.67 0.06 0.23 0.74 0.19 1.22 0.24-0.66 0.74-2.37-0.6-2.45-0.1-1.19-0.26 0.55-0.6 1.25-0.52-0.34-0.35-1.34-0.65 0.03-0.77-0.11-0.45-1.24-0.48-1.6-0.83-0.33 0.09-0.67 0.17-1.23 0.14-1.23-0.05-2.45-0.1-3.68-0.15 0.32-0.42 2.29 0.02 3.27-0.06 4.42-0.75 7.15-0.4 12.31-1.05 1.09 0.87 3.74-0.22 6.13 0.04-0.73-0.07-4.61-1.38-5.72-0.22-0.72-0.17-0.05-0.35 0.02-0.57-1.2 0.13-1.42 0.19-2.03-0.27-0.64 0.04 0.34 0.36-0.42 0.37-0.77-0.32-1.44-0.63-4.05-0.94-0.17 0.32 0.3 0.38 0.8 0.42-7.59-0.55-15.51-0.87-24.46-1.63-0.16-0.55 2.22 0.24 2.06-0.3-1.35-0.51-4.48-0.27-6.52-0.49-0.42 0.67 1.6 0.34 2.43 0.49 1.02 0.34-3.37 0.14-3.67-0.17 1.26-0.91 5.6-0.19 8.59-0.18-0.22 0.15-0.44 0.29-0.43 0.56l1.23 0.06c0.02-0.43-0.23-0.39 0.86-0.92 1.07-0.15 1.12 1.34 1.62 0.27 1.68 0.26 0.33 0.6 2 0.86 1.2-0.91 12.14 0.85 16.76 0.12-0.53 0.6 1.32 0.2 0.78 0.8 2.6-0.48 3.24-0.29 5.72 0.04 0.86-0.02-0.57-0.54 0.44-0.75-0.29-0.73-2.55 0.41-2.02-0.46 1.53 0.03 1.39-0.3 2.05-0.3 0.6 0.19 0.86 0.52 0.78 0.99 1.28 0.14 1.68-0.18 2.06-0.5-1.84 0.49-0.01-0.37-2.03-0.27 0.11-0.2 0.81-0.1 0.83-0.35-0.98-0.4-3.25-0.25-4.47-0.55 3.64-0.08 9.32-0.01 9.83-0.59 0.2-0.44 2.12 0.41 0.39 0.4 0.63 0.12 3.31-0.37 5.32-0.18-0.51-0.28-1.21-0.42-0.38-0.78-1.78-0.29-1.34-0.05-2.86 0.08 0.22-0.15 0.44-0.29 0.43-0.56-1.34 0.15-0.88 0.45-2.04-0.08 9.54 0.23 23.08 0.4 32.65 0.54 0.57-0.47 1.41 0.51 2.43 0.46 1.62-0.01-0.44-0.68 1.24-0.54 2.93 1.09 15.8 0.76 22.02 0.82-5.47-0.25-9.99-0.57-15.08-0.81 8.43-0.54 16.53 0.42 23.28-0.71-0.56 0.31-1.06 0.63-2.06 0.72 10.55 0.79 17.93 0 26.11 0.42-0.05-0.42-1.02-0.44-2.03-0.43-1.03-0.52 3.8 0.22 4.09-0.3-0.94 1.65 12.59 0.5 15.89 1.45-1.77-0.77 1.65 0 2.86-0.33-1.09 0.47 0.55 0.39 1.62 0.41-2.97-1.17 8.14 0.26 13.06 0-9.67-0.86-14.56-1.06-23.65-0.96 0.09-0.67 2.27-0.04 4.09-0.5-0.36-0.34-1.42-0.38-2.03-0.61 2.26-0.63 2.94 1.09 5.7 0.87-0.26-0.26-0.87-0.37-1.63-0.41 0.27-0.19 0.94-0.18 0.83-0.56 7.43 0.34 15.01 0.7 22.75 0.97 7.74 0.23 15.65 0.37 23.73 0.19 0.31 0.05 0.63 0.09 0.96 0.14 0.96-0.33 3.32 0.01 4.75-0.1-0.75 0.39-2.87 0.12-4.39 0.14 4.27 0.49 10.4 0.38 16.21 0.51 23.61 0.49 46-0.89 69.75-1.48-0.17 0.24-0.52 0.4-1.22 0.39 5.24 0.56 10.09-0.71 14.67-1.1-0.96 0.65-3.24 0.68-4.88 1.01 2.47 0.19 7.31-0.22 10.6-0.32-2.44 0.48-5.63 0.62-8.97 0.68 2.5 1.42 7.66 0.98 10.22 1.79-0.68-0.22-0.38 0.89 0.83 1.14 0.1 0.02 0.18 0.04 0.26 0.05-0.11 0.02-0.21 0.06-0.26 0.14 0.09-0.16 1.87 0.95 0.42 0.95 3.6 0.25 6.75 0.71 9.82 1.22-3.16 0.18-10.94-1.61-12.65 0.73 1.91 1.26 4.03 2.42 9.02 2.19 0.23 0.34 0.22 0.79 0.83 0.95-0.05 0.32-1.71-0.18-2.86 0.04-0.41 0.13-0.41 0.45-1.22 0.4 0.29 0.56 1.35 0.76 2.06 1.12-0.89 0.31-3.54-1.17-3.67 0.43 0.06 0.55 1.71 0.33 2.87 0.35-0.05 0.42-1.02 0.43-2.04 0.41 0.34 0.89 1.38 1.3 0.02 1.73 2.16 1.05 2.63 0.81 4.93 1.47-0.61 0.41-2.76-0.06-3.68-0.15-0.41 0.19-0.82 0.39-1.22 0.59 0.78 0.59 3.26-0.23 3.68 0.14-0.03 0.27-0.06 0.55 0.42 0.57-0.97 0.39-2.67-0.5-4.51-0.33 0.09 0.26 1.7 0.33 0 0.38 0.57 0.37 2.51 0.07 3.28 0.34-0.91 0.19-2.94 0.41-4.49 0.44-0.28 0.52 0.85 0.36 1.23 0.56 0.89 0.02 1.3-0.17 1.22-0.59 1.47 0.52 1.78 1.21 3.29 1.3 0.73 0.51-1.8 0.4-0.4 0.58-1.19 0.87-7.15-0.03-8.59 0.68 2.15 0.42 4.82-0.47 7.37 0.29-1.31 0.65-4.34 0.05-7.78 0.29 1.49 0.45 2.93 1.02 2.89 1.69-0.12 0.26-1.02 0.17-1.64 0.21 0.67 1.09 3.85 0.97 6.98 0.87-0.03 0.27-0.06 0.54 0.42 0.57-0.81 0.21-1.87 0.11-3.69 0.24 0.06 0.42 1.74 0.06 2.46 0.16-0.17 0.43-2.02 0.11-2.87 0.23l-0.01-0.57c-1.09 0.01-2.18 0.03-3.28 0.04 0.07 0.55 1.72 0.33 2.87 0.35-0.51 1.36 1.85 1.86 3.71 1.49 0.44 0.17 0.14 0.7 1.24 0.56-0.57 0.29-1.3 0.43 0.42 0.38-0.01 0.19-0.5 0.15-0.82 0.2 0.18 0.43 2.18-0.02 2.46 0.35-2.69-0.17-6 0.24-8.6 0.49 0.91 0.52 2.92-0.07 4.1-0.05-0.04 0.36-1.35 0.15-1.22 0.59 1.09 0.96 5.7-0.15 6.98 0.3 4.64 0.14-1.14 0.1-2.03 0.44zm-280.46-4.1c-0.08-0.75-4.12-0.52-4.91-0.38-0.68 0.36 3.57 0.24 4.91 0.38zm5.39-23.02l-2.86-0.11-0.01 0.38c0.94-0.1 3.17 0.47 2.87-0.27zm2.34 3.16c-1.08-0.04-2.4-0.2-2.46 0.29 0.84-0.09 2.82 0.41 2.46-0.29zm1.71-2.24c-0.98 0.02-4.66-0.34-3.68 0.05 1.82-0.07 2.85 0.6 3.68-0.05zm4.4 2.66c-0.84-0.93-4.17-0.01-5.32 0.18 2.38 0.26 2.81-0.5 5.32-0.18zm108.99 32.41c-0.82-0.01-1.64-0.02-2.47-0.04 0 0.12 0 0.25-0.01 0.38 0.86-0.09 2.86 0.36 2.48-0.34zm28.33-36.85c2.05-0.11 3.29 0.21 4.49 0.24 7.16 0.2-4.73-0.79-4.49-0.24zm15.9 0.53c0.48 0.03 1.16-0.03 1.22 0.2 5.35-0.11 2.75-0.7-1.22-0.2zm19.99 0.31c-1.48-0.21-5.03-0.13-4.89-0.01 0.36 0.3 3.41 0.28 4.89 0.01zm-123.98-3.08c-0.58-0.06-0.68-0.33-1.21-0.42 0.16 0.53-1.52 0.14-1.65 0.53 0.85-0.08 2.67 0.32 2.86-0.11zm111.76 0.52c-1.8 0.1-3.91 0.05-5.3 0.35 2.06 0.03 4.17 0.07 5.3-0.35zm98.18 3.95c1.43 0.28 0.52-0.09 0 0zm5.29 17.72c-0.42-0.3-5.04-0.24-4.09 0.05 1.57-0.23 3.6 0.3 4.09-0.05zm2.89 1.69c-1.16-0.43-3.24 0.45-4.51-0.13 0.23 0 0.46-0.16 0-0.19-1.77 0.89 3.86 0.62 4.51 0.32zm-28.12 16.62c1.97-0.23 5.75 0.5 5.75-0.05-2.05 0.2-4.19-0.55-5.75 0.05zm-22.18 1.5c5.06-0.03 10.69 0.72 14.8 0.49-4.06-0.44-9.88-1.09-14.8-0.49zm-236.23-36.25c-1.43 0.17-3.18 0.17-4.11 0.6 2 0.11 5.51 0.38 4.49 0.19-1.67-0.02 0.08-0.27-0.38-0.79zm276.5 35.14c0.9-0.05 1.31 0.14 1.24 0.56 1.1-0.14 2.57-0.11 3.28-0.42-1.62 0.12-3.19-0.77-4.52-0.14zm-286.42-22.88c-2.44 0.8-2.9-0.81-4.47-0.96 0.2 0.75 3.7 2.23 4.47 0.96zm-10.71-8.14c-1.27-0.08-2.79-0.49-3.28 0.23 1.43 0.1 2.62 0.08 3.28-0.23zm0.62-4.77c3.78 0.53 4.46-0.44 0 0zm1.96 2.01c4.92 0.3 5.28 0.31 9-0.01-4.22-0.21-6.33-0.67-9 0.01zm10.29-1.49c-0.87-0.96-4.31 0.06-5.31-0.22 1.48 0.58 3.17-0.09 5.31 0.22zm104.6 37.87c1.38 0.1 4.13 0.58 5.34 0.12-1.41-0.35-4.08-0.75-5.34-0.12zm-120.74-24.55c0.29 0.17 4.46-0.05 4.11-0.19-1.42 0.09-1.72-0.29-2.44-0.49-0.32 0.35-1.23 0.08-0.44 0.56-0.47-0.01-1.15-0.1-1.23 0.12zm15 4.1c-5.33 0.03-8.16-0.17-11.09 0.3 4.41 0.13 8.53 0.02 11.09-0.3zm-15.18-9.29c1.46 0.15 4.4 0.67 5.72 0.26-2.18 0.11-4.49-0.86-5.72-0.26zm-2.11 10.46c1.71-0.19 3.14 0.69 4.09 0.19-0.86-0.13-4.72-0.66-4.09-0.19zm7.06-1.79c2.47 0.01 3.61 0.17 4.51 0-0.77-0.08 0.25-0.31-0.39-0.4 0.17 0.32-2.25 0.22-2.05-0.09 0.23 0.01 0.47-0.14 0.01-0.19-0.15 0.51-1.74 0.27-2.08 0.68zm7.34-8.52c-0.17-0.32-3.07-0.44-3.27-0.14 1.07-0.06 3.01 1.05 3.27 0.14zm1.6 0.83c0.17-0.2 0.51-0.44 0.01-0.19-1.33 0.13-3.08-0.32-3.26-0.33-7.45-0.33-1.69 0.63 3.25 0.52zm232.03 26.54c-0.73 0.23-2.39 0.04-2.88 0.39 0.7 0.31 2.87 0.21 2.88-0.39zm-18.49 0.97c0.98-0.11 2.98 0.25 3.29-0.18-1.15-0.23-2.51-0.23-3.29 0.18zm-156.18-2.56c1-0.25 4.3 0.1 3.29-0.09-0.89-0.35-3.6-0.4-3.29 0.09zm-66.44-14c1-0.21 3.86 0.14 2.88-0.07-0.65-0.4-2.82-0.72-2.88 0.07zm8.23-0.62c-1.52 0.06-4.07-0.42-4.93-0.01 1.53-0.06 4.08 0.42 4.93 0.01z" fill="url(#SVGID_1_)"/>
</svg>