<?xml version="1.0" encoding="UTF-8"?><!-- Generator: Adobe Illustrator 21.0.0, SVG Export Plug-In . SVG Version: 6.00 Build 0)  --><svg xmlns="http://www.w3.org/2000/svg" enable-background="new 0 0 73.8 73.8" id="图层_1" version="1.1" viewBox="0 0 73.8 73.8" x="0px" xml:space="preserve" y="0px">
<g>
	<linearGradient gradientUnits="userSpaceOnUse" id="SVGID_1_" x1="26.051" x2="73.018" y1="49.521" y2="49.521">
		<stop offset="0" stop-color="#43E8ED"/>
		<stop offset=".4464" stop-color="#349FF6"/>
		<stop offset=".8197" stop-color="#2868FC"/>
		<stop offset="1" stop-color="#2453FF"/>
	</linearGradient>
	<path d="m26.1 72.2c1 0.3 2 0.6 3 0.8l43.9-43.9c-0.2-1-0.5-2-0.8-3l-46.1 46.1z" fill="url(#SVGID_1_)"/>
	<linearGradient gradientUnits="userSpaceOnUse" id="SVGID_2_" x1="39.872" x2="73.74" y1="56.804" y2="56.804">
		<stop offset="0" stop-color="#43E8ED"/>
		<stop offset=".4464" stop-color="#349FF6"/>
		<stop offset=".8197" stop-color="#2868FC"/>
		<stop offset="1" stop-color="#2453FF"/>
	</linearGradient>
	<path d="m73.1 44.3c0.3-1.5 0.5-2.9 0.6-4.4l-33.8 33.8c1.5-0.1 3-0.3 4.4-0.6l28.8-28.8z" fill="url(#SVGID_2_)"/>
	<linearGradient gradientUnits="userSpaceOnUse" id="SVGID_3_" x1="15.76" x2="68.668" y1="42.212" y2="42.212">
		<stop offset="0" stop-color="#43E8ED"/>
		<stop offset=".4464" stop-color="#349FF6"/>
		<stop offset=".8197" stop-color="#2868FC"/>
		<stop offset="1" stop-color="#2453FF"/>
	</linearGradient>
	<path d="m15.8 67.2c0.8 0.5 1.6 1 2.3 1.5l50.6-50.6c-0.5-0.8-1-1.6-1.5-2.3l-51.4 51.4z" fill="url(#SVGID_3_)"/>
	<linearGradient gradientUnits="userSpaceOnUse" id="SVGID_4_" x1="20.57" x2="71.242" y1="45.896" y2="45.896">
		<stop offset="0" stop-color="#43E8ED"/>
		<stop offset=".4464" stop-color="#349FF6"/>
		<stop offset=".8197" stop-color="#2868FC"/>
		<stop offset="1" stop-color="#2453FF"/>
	</linearGradient>
	<path d="m20.6 70c0.9 0.4 1.7 0.8 2.6 1.2l48-48c-0.4-0.9-0.8-1.8-1.2-2.6l-49.4 49.4z" fill="url(#SVGID_4_)"/>
	<linearGradient gradientUnits="userSpaceOnUse" id="SVGID_5_" x2="40.568" y1="20.282" y2="20.282">
		<stop offset="0" stop-color="#43E8ED"/>
		<stop offset=".4464" stop-color="#349FF6"/>
		<stop offset=".8197" stop-color="#2868FC"/>
		<stop offset="1" stop-color="#2453FF"/>
	</linearGradient>
	<path d="m0.2 40.6l40.4-40.4c-1.2-0.1-2.5-0.2-3.7-0.2l-36.9 36.9c0 1.2 0.1 2.4 0.2 3.7z" fill="url(#SVGID_5_)"/>
	<linearGradient gradientUnits="userSpaceOnUse" id="SVGID_6_" x1="32.377" x2="73.839" y1="53.102" y2="53.102">
		<stop offset="0" stop-color="#43E8ED"/>
		<stop offset=".4464" stop-color="#349FF6"/>
		<stop offset=".8197" stop-color="#2868FC"/>
		<stop offset="1" stop-color="#2453FF"/>
	</linearGradient>
	<path d="m32.4 73.6l3.6 0.3 37.9-37.9c0-1.2-0.1-2.4-0.3-3.6l-41.2 41.2z" fill="url(#SVGID_6_)"/>
	<linearGradient gradientUnits="userSpaceOnUse" id="SVGID_7_" x1="3.0081" x2="22.409" y1="12.705" y2="12.705">
		<stop offset="0" stop-color="#43E8ED"/>
		<stop offset=".4464" stop-color="#349FF6"/>
		<stop offset=".8197" stop-color="#2868FC"/>
		<stop offset="1" stop-color="#2453FF"/>
	</linearGradient>
	<path d="m22.4 3c-4.2 1.8-8.2 4.4-11.6 7.8s-6 7.4-7.8 11.6l19.4-19.4z" fill="url(#SVGID_7_)"/>
	<linearGradient gradientUnits="userSpaceOnUse" id="SVGID_8_" x1=".2495" x2="32.837" y1="16.538" y2="16.538">
		<stop offset="0" stop-color="#43E8ED"/>
		<stop offset=".4464" stop-color="#349FF6"/>
		<stop offset=".8197" stop-color="#2868FC"/>
		<stop offset="1" stop-color="#2453FF"/>
	</linearGradient>
	<path d="m1.1 28.1c-0.4 1.6-0.7 3.1-0.8 4.7l32.5-32.5c-1.6 0.2-3.1 0.5-4.7 0.8l-27 27z" fill="url(#SVGID_8_)"/>
	<linearGradient gradientUnits="userSpaceOnUse" id="SVGID_9_" x1="11.547" x2="65.549" y1="38.538" y2="38.538">
		<stop offset="0" stop-color="#43E8ED"/>
		<stop offset=".4464" stop-color="#349FF6"/>
		<stop offset=".8197" stop-color="#2868FC"/>
		<stop offset="1" stop-color="#2453FF"/>
	</linearGradient>
	<path d="m11.5 63.7c0.7 0.6 1.3 1.3 2 1.8l52-52c-0.6-0.7-1.2-1.3-1.8-2l-52.2 52.2z" fill="url(#SVGID_9_)"/>
	<linearGradient gradientUnits="userSpaceOnUse" id="SVGID_10_" x1=".6715" x2="47.006" y1="23.833" y2="23.833">
		<stop offset="0" stop-color="#43E8ED"/>
		<stop offset=".4464" stop-color="#349FF6"/>
		<stop offset=".8197" stop-color="#2868FC"/>
		<stop offset="1" stop-color="#2453FF"/>
	</linearGradient>
	<path d="m0.7 43.9c0.2 1 0.4 2.1 0.7 3.1l45.6-45.6c-1-0.3-2-0.6-3.1-0.7l-43.2 43.2z" fill="url(#SVGID_10_)"/>
	<linearGradient gradientUnits="userSpaceOnUse" id="SVGID_11_" x1="49.702" x2="71.589" y1="60.637" y2="60.637">
		<stop offset="0" stop-color="#43E8ED"/>
		<stop offset=".4464" stop-color="#349FF6"/>
		<stop offset=".8197" stop-color="#2868FC"/>
		<stop offset="1" stop-color="#2453FF"/>
	</linearGradient>
	<path d="m49.7 71.6c4.9-1.8 9.5-4.6 13.4-8.5s6.7-8.5 8.5-13.4l-21.9 21.9z" fill="url(#SVGID_11_)"/>
	<linearGradient gradientUnits="userSpaceOnUse" id="SVGID_12_" x1="7.8804" x2="61.771" y1="34.825" y2="34.825">
		<stop offset="0" stop-color="#43E8ED"/>
		<stop offset=".4464" stop-color="#349FF6"/>
		<stop offset=".8197" stop-color="#2868FC"/>
		<stop offset="1" stop-color="#2453FF"/>
	</linearGradient>
	<path d="m7.9 59.7c0.6 0.7 1.2 1.4 1.8 2.1l52.1-52.1-2.1-1.8-51.8 51.8z" fill="url(#SVGID_12_)"/>
	<linearGradient gradientUnits="userSpaceOnUse" id="SVGID_13_" x1="4.8099" x2="57.496" y1="31.156" y2="31.156">
		<stop offset="0" stop-color="#43E8ED"/>
		<stop offset=".4464" stop-color="#349FF6"/>
		<stop offset=".8197" stop-color="#2868FC"/>
		<stop offset="1" stop-color="#2453FF"/>
	</linearGradient>
	<path d="m4.8 55.1c0.5 0.8 0.9 1.6 1.5 2.4l51.2-51.2c-0.8-0.5-1.6-1-2.4-1.4l-50.3 50.2z" fill="url(#SVGID_13_)"/>
	<linearGradient gradientUnits="userSpaceOnUse" id="SVGID_14_" x1="2.3867" x2="52.573" y1="27.467" y2="27.467">
		<stop offset="0" stop-color="#43E8ED"/>
		<stop offset=".4464" stop-color="#349FF6"/>
		<stop offset=".8197" stop-color="#2868FC"/>
		<stop offset="1" stop-color="#2453FF"/>
	</linearGradient>
	<path d="m2.4 49.9c0.3 0.9 0.7 1.8 1.1 2.7l49.1-49.1c-0.9-0.4-1.8-0.8-2.7-1.1l-47.5 47.5z" fill="url(#SVGID_14_)"/>
</g>
</svg>