<svg xmlns="http://www.w3.org/2000/svg" xml:space="preserve" width="210mm" height="63.9169mm" version="1.1" style="shape-rendering:geometricPrecision; text-rendering:geometricPrecision; image-rendering:optimizeQuality; fill-rule:evenodd; clip-rule:evenodd"
viewBox="0 0 21000000 6391690"
 xmlns:xlink="http://www.w3.org/1999/xlink">
 <defs>
 <linearGradient id="id0" gradientUnits="userSpaceOnUse" x1="3080" y1="3.17056e+006" x2="2.09472e+007" y2="3.17056e+006">
  <stop offset="0" style="stop-opacity:1; stop-color:#A9F1DF"/>
  <stop offset="0.509804" style="stop-opacity:1; stop-color:#D7D4CC"/>
  <stop offset="1" style="stop-opacity:1; stop-color:#FFBBBB"/>
 </linearGradient>
 </defs>
 <g id="Слой_x0020_1">
  <metadata id="CorelCorpID_0Corel-Layer"/>
  <path fill="url(#id0)" class="fil0" d="M5299660 2417540c-2390,160 -4510,220 -6410,220l4360 10350c-15350,2720 -31350,-670 -45670,-5610 -13670,15550 -25490,32410 -38600,48320 -52720,-1270 -105530,-1180 -158280,-220 18520,19860 36710,40010 54470,60420 -89000,-27250 -230860,-27050 -368630,-18290 -33390,18960 -68940,38090 -106200,57410 -122310,62690 -262980,127670 -412830,192660 -297390,127670 -607010,243100 -802730,324900 -110850,-19880 74920,-74140 141430,-112390 -126910,6120 -8400,-44340 89450,-87900 -229340,87900 -424300,175070 -632230,279040 -208720,102450 -428880,224000 -704100,386830 -85630,61930 -54290,-12240 14520,-32880 41280,-25220 83320,-49680 126150,-73390 73380,-37460 14520,-90200 132250,-123090 65740,-36700 38980,-3060 45860,22950 72630,-66510 -26760,-47410 37470,-115430 273680,-153680 512200,-222460 801960,-376130 -130680,48090 -254060,96970 -372440,146950 27700,-18880 48250,-38140 53230,-54450 -87920,27530 -194170,61930 -261460,142950l0 30c2060,0 4310,-110 6770,-410 -69560,31480 -137770,63450 -205120,95950l-28310 13590c10460,-12830 18900,-26500 24850,-41130 -69300,42690 -211600,66820 -219910,138030 -52100,26660 -104020,53840 -156020,81630 11190,-10050 22340,-20300 33440,-30820 -82570,41280 -196480,107810 -311910,181950l-22000 15680 -36480 21020c123510,-94920 310760,-224220 510520,-351890 -36100,14790 -67950,24660 -85020,24640 67290,-81020 173530,-115430 261460,-142950 -1410,4600 -4040,9450 -7750,14430 186110,-110710 371170,-210480 512650,-273570 95570,-10700 -107790,73390 -151370,97090 70320,39760 219420,-69570 339420,-116970 -97080,-88690 258410,-116970 431180,-198780 -13760,-43580 -100150,34410 -143730,42050 -91170,7950 88100,-62130 145180,-88470l-3710 -3420c-195090,12450 -364020,143020 -626150,249360 86380,-65750 184230,-177360 369250,-266040 -224760,68040 -496160,209470 -767570,363910 -272160,153670 -543560,320320 -784360,425810 -11460,-133030 223240,-181190 376130,-318020 -214060,20640 -513740,268340 -634530,311140 210990,-184230 478580,-347090 767560,-507620 289750,-160560 602430,-315750 912040,-490800 -131490,-28280 -185780,71110 -301210,71110 6120,46640 56570,17580 100150,-760 -27520,89440 -165130,16820 -264520,80260 -9940,6120 -48170,93270 -54290,96330 -61920,32880 -213300,90970 -311900,121550 -97850,32880 -142950,36700 10700,-39760 -145250,63440 -256100,121540 -363910,185010l-164380 93270c-56560,32880 -116210,65740 -184230,99390 -44350,16060 -3820,-29040 -32890,-53530 -48920,39770 -123090,84090 -192650,128430 -34410,22950 -68050,45870 -94790,70330 -26760,25220 -48160,51220 -60410,77990 -2300,-45870 22170,-87910 61930,-124610 39760,-36710 94030,-69570 150610,-101670 112390,-65750 233940,-120030 264530,-202600 -23710,-37460 -78750,-9940 -140680,30580l-94020 65750c-30590,22160 -59630,41280 -85630,51220 146010,52750 -204120,51230 -332550,198780 24460,-40520 88690,-97850 160560,-149830 72620,-49680 151370,-96330 203350,-119270 -88680,-14520 -233940,86390 -373830,198780l-104720 81020c-33650,26760 -66510,51990 -98630,73390 -62690,42800 -120790,70320 -166660,67280 259160,-217870 487740,-399830 757630,-590950 269100,-190350 581000,-386830 1006080,-607010 -41280,-79500 -135310,-68800 -272920,19130 29820,29820 116970,-41290 122310,31340 -58110,-15280 -153680,35920 -226300,45100 136850,-71100 -90970,-44340 141430,-142950 -191900,26000 -427360,213300 -663570,334090 52740,-68810 133790,-123850 208710,-167440 74150,-41280 142200,-70320 170480,-90200 33640,-24460 5360,-55810 -19880,-37470 152890,-113150 89440,-31340 409770,-186530 58860,-42040 -48920,-12240 760,-70330 68810,-29040 129190,-59620 184230,-90200 55050,-29830 105510,-60410 155200,-90970 100150,-61930 195710,-120790 322630,-175840 -14530,-19880 -58870,7640 -93270,19890 113150,-68050 191890,-126150 354730,-182720 -29040,-63440 -166660,51230 -220940,29830 77200,-49690 159770,-94790 243100,-136080 41280,-20640 84080,-40520 126910,-59620l64990 -29040 71100 -30580c192660,-81030 400600,-156720 618470,-240820 20650,28280 -18340,45100 -10700,71100 172780,-62680 230120,-68800 204880,-52740 -24460,16060 -127670,56560 -262220,96330 22160,86380 138370,66500 271400,23700 132250,-43590 286680,-108550 362370,-123850 -96330,-23700 -309630,85630 -443420,120030 -47400,-8400 -30580,-45860 -6880,-19880 242340,-93270 476280,-172020 736200,-233180 64230,-15280 131490,-29050 200300,-42050 33640,-6880 70320,-12240 105510,-17580l58860 -9180 64990 -8400c172770,-21400 354730,-32880 546600,-26000 94050,-3060 107570,30420 145790,52810 20240,-6350 42290,-10170 74750,-5830 53150,4850 112390,560 166340,-520 10140,-200 24330,1320 34450,2820 18500,-3420 33950,-22070 46750,-48050 -15700,-3760 -31900,-7240 -48400,-10390 -48170,-10700 -97850,-18340 -146020,-26010 -47400,-8390 -92500,-16820 -130730,-26760 -152130,-11460 -208720,-10700 -200290,-15280 7640,-2300 79500,-7640 180410,-5360 50470,760 108550,3060 168950,7640 61170,3820 124610,11460 186540,19120l10660 1390c17220,-57240 26870,-122070 31270,-149650 -7950,-16400 43180,82230 94410,169280 71620,12740 135980,26700 185510,38610 162830,39760 318020,92510 461750,154430 143740,63450 277510,133030 398300,209480 11010,6840 21930,13720 32770,20600 -34720,-132190 -79780,-253400 -130800,-376160 -12150,-6360 -24060,-12460 -35700,-18290 -28280,-13010 -55800,-23710 -81810,-32890 13720,-14320 62400,7220 108550,29740l-4800 -11420c-120050,-81270 -273500,-156760 -450080,-214030 -111090,-36600 -231170,-66420 -356910,-89030 24410,780 47330,1030 68510,540 203720,46000 403120,109330 595440,191580 39760,16850 79190,34520 118270,53010 -12270,-28370 -24800,-56980 -37540,-85960 -119420,-65830 -242670,-127850 -369940,-187230 -19100,-6940 -36340,-14050 -50820,-21260 -46960,-13410 -93960,-27190 -141610,-38380 -219290,-48570 -15060,-40460 96710,2480 -46580,-79960 -295530,-146980 -233850,-133840 259160,54460 473590,128480 712070,235750 75370,34580 144690,69190 211800,106160 -620,-1140 -1160,-2280 -1580,-3400 153670,60410 350150,170480 545840,325670 198780,150610 392190,350910 558850,562670 512890,654100 322870,535790 1119390,182530 751050,-329730 1856860,-867530 2599900,-1078820 526320,-137260 970270,-188500 1463330,-162450 -29470,11460 -63470,21310 -98400,30510 -102500,25450 -217280,47920 -255930,57350 -4290,-28780 75730,-45800 83620,-72360 -27590,2480 -62330,11860 -102180,26960 -39390,17360 -84020,39630 -131180,64810 -46420,25000 -95370,52880 -144340,80760 -24550,13540 -48200,27700 -72020,41130 -23500,14900 -46840,30530 -68830,45140 -179340,115920 -322020,193200 -298180,72140 -141280,45790 -123990,177220 -204570,153000 46710,-27410 58330,-54710 69970,-82030l0 20c-86830,52700 -151980,81500 -214860,105960l-22480 8440 -16770 5750c-10190,3610 -20380,7260 -31320,11030 -20960,8130 -42540,17180 -65750,29710 -1850,29220 -7640,58490 -26140,86410 -10380,-78230 -110000,19170 -122820,44410 5340,-77540 -138240,-58570 -144040,8920 52110,-19930 7700,26510 31320,54480 86630,-65160 66430,12270 59330,38670 45750,6320 110890,-18580 182760,-56560 35920,-18970 73650,-40660 111810,-64000l55980 -35550 31140 -19570c13920,-8280 28600,-16710 42540,-24990 111520,-65500 213920,-126040 282190,-158610 68580,-31060 102320,-34010 77830,10760 46110,-26980 134200,-59510 211160,-88390 240660,11790 453330,34200 666210,72150l18270 -3080c40520,-6880 81030,-13760 121550,-19880 40520,-6120 79510,-8400 119270,-11460 68290,-4980 135760,-7550 202380,-7730 -56720,-6680 -114120,-8220 -171390,-5390 -187610,-12480 -376110,-13710 -563880,-3550 -77780,-14760 -155440,-24100 -234940,-26580 -52280,910 -104510,2630 -156690,5200l32790 -12370c41800,-17050 77590,-29000 97360,-39250 19750,-10260 24240,-18970 2770,-24760 -16780,5740 -34760,13300 -53460,20980 -18430,9200 -36080,18230 -53320,25620 -33540,15370 -62150,24290 -72810,13990 118560,-65390 236760,-109620 349370,-158190 112320,-50060 220780,-88400 322490,-121500 78730,-26540 153860,-50490 225050,-74260 52970,3550 106580,7980 160980,13250 -14250,9420 -51050,10720 -87500,13800 -53080,3730 -106290,10640 -89430,36060 136380,-17160 287670,-28040 439470,-18700l32450 4580c117090,19880 229230,42040 337350,66710 25670,8640 50220,19030 74480,28080 122940,52290 221300,118150 283110,188320 92380,5470 54020,-45260 105000,-39990 123290,73300 255140,158140 391520,257640 787160,582020 246740,200350 -276740,51430 -30510,-30940 -73050,-61300 -120520,-87170 -109020,-60610 -242830,-93530 -302050,-89330 87390,42350 191220,77470 280540,121770 21930,10720 42930,22140 62440,34330 -44550,-10050 -88180,-17490 -130330,-21780 79410,29690 150700,60100 217580,94990l2510 3110 -328600 -95770c-32590,2230 -64090,4580 -96950,5250l40990 11720c18340,9190 38980,13770 58110,20650 39760,12240 78740,26760 118490,40520 39760,13000 78740,30580 116970,47410 38980,16060 76440,35160 114670,53520 114400,12040 233090,60900 349480,138530 67190,69790 133140,135690 210210,194730 20420,16150 19950,13900 25670,15080 3080,580 6500,600 9940,200 15390,16180 30650,32780 45770,49840l-240 340 2190 1850c31270,35430 61880,72690 91660,111630 100300,129170 192560,276230 280160,422870 32260,15010 78480,44010 78480,44010 42980,6120 85670,11190 128920,15520 26690,2390 53320,4470 80000,6260l14940 -15460c4490,-4870 8850,-9790 13760,-15280 3820,-4600 6120,-8420 13000,-16060 4140,-5390 8850,-11350 14370,-18100l-9030 -12490c-12060,-16080 -24150,-30980 -35700,-46280 9660,-810 19220,-1750 28640,-2710 10010,10590 20000,21630 29980,32930l8400 9940 4580 5360 760 1520c-33930,31410 50910,-46130 -21350,19890l0 760 -61300 56050c14630,960 29310,1850 44000,2630 36200,-8040 74490,-10680 111120,-4000 56430,7780 118560,11310 175750,12850 34290,32990 79550,47960 128410,33730 48160,-15840 72330,-39850 117210,-66680 93580,-38160 281990,81690 360670,125610l51120 28240c20210,-7660 40700,-15700 61500,-24190 -44080,-30070 -78460,-68250 -104460,-112310 -42000,-75820 -25940,-137920 17650,-208420 63040,31070 128450,57970 191620,88860 23220,28400 60590,75330 99350,125420l-520 1030c-9400,-13920 -17580,-26970 -23790,-38540 -6390,-18140 7640,-32880 23910,-41620l93530 44320c59360,-32170 119740,-67150 180620,-104680 420,-19210 -3730,-34920 -12980,-45890 -18990,-21840 -50800,34520 -63830,50470 -44210,-41150 57750,-112660 72380,-166250 31210,22250 82770,49030 143940,71780 96640,-65010 193550,-135830 288580,-211400 -26000,90200 -116970,71860 -175830,153670 95880,-580 164860,-94450 264050,-165540 1560,-5400 3280,-10850 5200,-16370 3150,2120 6150,4330 8940,6570 24190,-16270 50200,-30970 78840,-42540 -54150,106380 37390,92510 114090,93270 51490,-102180 175200,-168280 252630,-257310 -7150,60480 72810,136630 124050,54220 71420,83440 -76130,16040 -75230,98590 91230,92770 103160,-80630 161260,-93990 44750,24400 -26020,101710 50,133750 39450,-114250 106070,-39030 147660,66550 84580,-271450 392580,-4600 550270,-46070 -97020,59560 56230,128550 59110,208810 -106150,-11460 -187540,-12930 -344090,102700 -4720,63870 -8760,165090 -28310,259490 74060,-15740 129750,-30910 156020,-30870 -51420,27970 -107360,51720 -165690,71870 -5160,19280 -11100,37950 -18010,55620 55790,13470 101290,36100 121170,76870l-2660 11840c42520,-39670 79040,-84280 50800,-130550l0 20c57820,-30240 129370,-11550 165160,-148980 25330,18480 46150,13650 63360,-8490 70250,60560 -72630,187250 -44030,212880 -69150,-50400 -156560,29600 -248310,121010 -22340,68800 -40100,97220 30200,182330 -58860,37470 -53520,77210 -137610,113150 1990,12050 5140,21270 9180,28220l58670 14610c30160,-8040 63930,-25070 88100,-18360 6710,9040 11150,18230 14010,27470 40320,-54300 127290,-171920 183010,-168590 79550,24330 153310,-96020 155530,-94630 -106070,134190 -210980,237890 -341580,346510 -8170,41880 -12840,78030 52480,97170 -18880,29630 -56970,58350 -92080,87240 -940,23720 -2310,47340 -3960,70700 -19390,9320 -39070,20060 -58750,31750 56380,30050 144020,-13110 192230,35090 11460,172020 -58860,342490 -146010,512210 156710,0 84870,-104730 135310,-133040 109330,-64980 13000,8400 22160,35170 99390,70320 227820,-205660 302750,-92510 75680,-124610 -59630,-159020 -119270,-296630 187290,-3060 214050,217880 153670,349370 -63450,32890 -113150,33650 -191120,97090 133040,22160 240070,152130 347090,201060 -4580,40520 -66500,78740 -107780,118480 165130,-4570 96320,265290 285160,215600 -136850,203360 -132250,313450 -294320,504570 19120,20640 58860,2300 98630,-18350 39760,-20640 79500,-43580 103960,-32880 35170,123850 -61920,247700 -87900,373070 -81030,48170 -160560,95570 -245400,142950 -6880,-24460 49680,-48160 83320,-71860 -68800,13000 -153670,50460 -244640,97840 -93260,47410 -192650,105510 -298140,159780 -207180,108540 -429660,198770 -570310,161310 200300,-48160 434240,-218640 568790,-265280 -202600,51980 -435760,127670 -701800,210240 -264520,82560 -561900,171250 -886050,240820 -41280,8400 -79510,18340 -123090,26000l-132250 23700c-88690,16820 -177360,28280 -267590,39770 -89440,13000 -179650,19880 -269860,26000 -90210,8400 -180410,9940 -271400,12240 -362370,6880 -727040,-26760 -1077950,-105510 124610,-3820 94020,-19880 14520,-39760 -40530,-10700 -92510,-19880 -146010,-33650 -53510,-13760 -107030,-28280 -148320,-40520 47410,71870 -103960,30580 -300440,-60410l-74930 -34400 -77990 -40520 -153670 -82570c-100150,-55800 -191900,-113150 -259160,-143730 -30580,35920 164370,100150 230120,143730 -66510,-13000 -157490,-51980 -259920,-106270 -51230,-26760 -105510,-63440 -161320,-100150 -55800,-38980 -113900,-75680 -170470,-123850 -56560,-45860 -113910,-94790 -169710,-142950 -55810,-48160 -108550,-103970 -159780,-155190 -51220,-51990 -100900,-101670 -145250,-153680l-56230 -64130 -25330 0c1050,1160 2080,2280 2820,2990l19120 20640 36700 41290c-9940,6880 -25220,-760 -45100,-16830 -9940,-8400 -20640,-18340 -32100,-30580l-5360 -5360c0,0 0,-760 760,-760 750,-1520 3820,-2300 3060,-5360 -760,-3060 -2310,-4580 -5370,-3820 760,-810 1480,-1540 2170,-2210l-120900 0c2790,1580 5650,3120 8560,4580 -22950,32100 -32890,41280 -41290,37460 -7640,-3060 -13760,-14520 -22160,-22160 -8400,-7640 -19120,-10700 -28280,1520 3550,-8800 7330,-15860 11240,-21400 -408480,441270 -1590290,1221640 -2165780,1440540 -436400,164000 -807670,278380 -1274720,357810 -355800,61240 -646150,83090 -1008810,61510 132010,-12290 259790,-33940 390590,-49170 88680,-11660 171070,-39160 249220,-78460 103230,-30200 202390,-62640 303190,-98920 67400,-24890 133520,-50760 199830,-77960 66750,-4340 133450,-14910 197300,-33020 279270,-76090 559450,-175590 832710,-268700 8750,-1920 23070,-7490 32300,-10440 95300,-37060 180060,-95390 242380,-170800 25340,-8290 50690,-16510 76070,-24670 25760,-16440 51520,-32900 77300,-49320 -68360,-10990 -136900,-21140 -205530,-30630 97470,-9560 195270,-17470 293140,-23100 75710,-13250 194310,-193950 296110,-106690 14050,-38490 8650,-63140 35100,-110070 21240,-32950 64340,-45480 96300,-67060 27460,-18570 76450,4600 85790,-29560 11860,-38740 14030,-81320 24330,-121190 13060,-43410 36450,-6030 102510,-31880 37890,-17630 49190,-12090 28170,21180 15550,13450 99190,85940 113130,89220 7620,-1070 15230,-2120 22850,-3130 19010,-1960 14190,18280 32800,1700 -1660,-7030 -3310,-14070 -4960,-21110 6610,1950 14380,6030 20280,9250 38220,16150 197570,-101020 227280,-122090 175390,-124320 499670,-386140 681120,-453240l-456070 0c-36750,12690 -72710,19660 -106310,16800 -35160,16820 11460,62680 -29820,76440 -238520,-8400 -391420,148310 -694920,256100 67290,48170 250760,-103210 301200,-26000 -230880,9180 -451810,216360 -626890,138370 -33640,156710 -295860,159770 -480100,284380 -53520,35930 -181200,90210 -333330,157500 -38220,16820 -77200,35160 -116970,53520l-255340 125370c-84870,42810 -171250,81810 -255340,121550 -84870,36710 -168200,76450 -249220,109330 -531330,227060 -1118450,367730 -1730830,313450 -38220,-1520 -76440,-9180 -114660,-13000 -38230,-6120 -76450,-8400 -114670,-16820 -75690,-16070 -152900,-30590 -228580,-49690 -38230,-9180 -76450,-18340 -114670,-29040l-65030 -21670c164690,97420 345570,174920 558980,244910 122260,35860 236550,62060 362770,83840 -144020,5520 -237870,45440 -381720,70500 -1360,610 -17710,2980 -20530,3420 -461510,37710 -991720,-183900 -1354180,-431620 -34600,-48790 -67510,-98540 -98710,-149160 -86590,-67470 -203430,-139530 -296810,-199670 -730,-180 -11140,-6260 -12750,-7130 -111140,-69560 -205210,-157850 -285480,-255920 71800,19340 144180,36840 217140,52270 -245400,-189730 -485550,-570150 -641370,-825820 24150,-27570 41400,-70370 50330,-104440 -62710,-78260 -123130,-158010 -181550,-238950 -49800,-52450 -93720,-109730 -129390,-170870 -5300,-9520 -20220,-38420 -25870,-44970 44920,85670 93290,154900 163460,225180 14000,4830 34310,14590 47960,20760 35700,16080 72220,32340 96730,61650 10120,19640 28370,54800 32910,75510 1180,5470 2300,10840 3170,16330 -1900,-650 -4920,2100 -6570,1480 5070,15720 4330,23450 16730,13290 16360,-2930 -4440,-43050 -7950,-48950 -15590,-17490 -35770,1720 -51180,-3640 -37460,-16240 -52450,-33840 -57430,-70970 960,-5100 -3440,-40410 -5750,-46420 -17870,-14060 -35610,-28080 -52870,-42760 -23300,-5740 -82640,10700 -107320,17690 -3220,-17760 -6240,-35900 -7730,-53840 -35140,4470 -71290,12400 -105580,20580 -85380,18540 -177240,26850 -265080,29730 41930,-27280 83840,-54600 125790,-81850 -123560,20860 -250510,31140 -375930,35920 -78570,2260 -156910,12490 -234520,23320 -65070,25940 -136600,54890 -205160,71090 -77590,9980 207600,-65970 200630,-93960 -36440,-25130 -85920,-12690 -127780,-10680 -416210,21110 14610,-33930 132310,-50000 294150,-17400 581550,-50080 877390,-61610 -122600,-106090 -243210,-178890 -361970,-224780 -35340,13380 -70640,26850 -105910,40410 21420,14840 42850,29670 64230,44590 -67870,12800 -49150,26250 -92290,-29370 -3550,90 -5230,3730 -8800,3860 9000,12470 26560,38540 26540,38540 20,0 -55200,-1430 -77070,-4720 -50380,6700 16280,-27770 -87220,9850 -1180,13430 -6860,1080 -1140,17940 4610,5520 -17000,-4960 -25400,-10000 -8170,2990 -43040,15430 -51470,15630 -23770,-16060 6530,-7950 -25580,-17330l-10580 -3020c69810,-28550 143950,-58710 219190,-89220 206420,-85630 399080,-159780 519870,-211000l-30 -20c-118490,30580 -285920,87170 -476280,164370 -94780,38250 -194950,81050 -296620,126150l-4580 2010c-27140,-2250 -45150,6060 -82280,24760 -110,60 -7730,8080 -8620,8950l1140 5790 -26720 11750 -4800 -63710c8690,-10700 17180,-21540 25440,-32510 -4710,-1200 -9470,-2340 -14210,-3440 1080,1900 3020,7110 3020,7110 0,0 -32730,-7080 -27990,-24580 -2530,70 -5050,120 -7600,180 3420,-2950 7820,-4080 10640,-7390 -23120,4400 -22900,-15680 -33830,-38490 -2390,70 -3390,3660 -4600,3710 5610,12930 16530,38890 16530,38890 -15340,2730 -31340,-670 -45660,-5610 -13670,15550 -25490,32420 -38600,48320 -52720,-1270 -105530,-1180 -158280,-220 18520,19860 36710,40010 54470,60430 -52990,-16220 -124700,-22720 -203140,-23480 -349860,170030 -685080,419780 -1010570,531820 23590,-24470 62370,-51410 107790,-76450 -6480,2500 -1044530,387610 -856390,289940 46640,-32100 294640,-174450 357320,-203490 56650,-26250 107680,-53750 132210,-86450 -149700,0 -265400,44230 -393050,127670 41620,-55220 101020,-94720 165610,-127670l-102940 0c-45640,21330 -92490,42350 -125350,65740 -5230,-20930 10520,-43830 37020,-65740l-773440 344790c-3130,1410 154940,-128370 275400,-227490 47040,-30670 93150,-56740 134500,-82120 42810,-27520 84090,-52740 120790,-80260 35930,-27500 66510,-58090 90970,-94790l0 -20c-87170,66170 -180230,120900 -262800,171030 -72320,36260 -134040,73030 -169670,114920 -9180,-28290 43580,-49690 74930,-71870 -91750,5360 -113910,85630 -225520,119270 11460,-49680 80260,-93270 141430,-138370 26230,-18030 51430,-36170 71020,-55090 27810,-26850 44390,-55270 36770,-87100 200290,-129190 302740,-174320 538960,-298930 57350,16820 -204870,120790 -276740,171260 93270,13000 249220,-108550 427360,-177360 -13010,-49680 -105510,67290 -101670,-18340 295130,-127600 524530,-265080 774150,-399270 -67240,14630 -133680,31450 -200960,51650 -121890,59130 -241780,117990 -353770,167190 16530,-19820 37100,-38900 60980,-57310 900,-16390 -3230,-35650 13810,-53750 13200,-14230 24220,-26270 34200,-36940 -131330,59620 -272410,168750 -371210,184700 -246950,103970 42040,-43590 190350,-118490 72340,-36790 152020,-74640 225540,-110040 19660,-16830 42670,-32960 78930,-55030 560,-730 21780,-13600 24210,-15080 -10920,-1340 -21890,-2520 -32790,-3820 -85180,-2300 -169020,-3240 -252280,1920 -128970,61970 -272080,145230 -435040,214910 36700,-56700 114980,-120250 213210,-183970 59580,-91810 139080,-161440 229130,-222770 -78250,36930 -154680,74780 -232190,112310 960,-4630 2270,-9520 3660,-14440 -40970,8780 -110720,85520 -132000,55160l7610 -3930c11260,-7820 23010,-15710 35210,-23640 24950,-13470 52450,-29690 72070,-44210 114420,-66390 253690,-130530 388390,-169730 49950,-29740 99480,-57120 149190,-82820 -156720,48260 -345150,124370 -526640,213910 -5940,-610 -13710,-580 -23650,220l20 0c-7370,8310 -14950,15930 -22700,23010 -50820,25890 -100840,52770 -149140,80270 -70140,22040 -124430,28880 -118780,71240l17270 -10840c-530,-3370 -940,-6920 -1120,-10770 -16500,6040 -19160,14080 -17350,22370 -22300,14110 -43990,28320 -64970,42600 -1690,-8180 -4530,-13940 -8260,-17760 940,-5630 3240,-12800 7240,-21980 -5140,5760 -10460,11320 -15930,16710 -13580,-4230 -32930,3970 -52610,13090 -31340,-126910 150610,-136070 249980,-201060 373070,-246940 697220,-487740 1292010,-691100 42040,13000 -397540,211000 -36710,61930 52750,45860 -45100,60400 -90960,86390 176590,19120 389130,-143740 533620,-136070 51990,60400 -90970,68040 -139910,102440 29380,13140 76180,-2880 108120,5920 53350,-15230 107140,-30130 161580,-44850l-910 -1170c-42800,10100 -84150,19240 -123450,27100 50060,-16150 97740,-32640 144560,-49350 7930,-7460 14300,-15810 12420,-22420 17920,-290 35100,-450 51870,-790l34430 -12550c-6500,360 -10460,540 -10570,470 0,0 -290,-3490 -290,-3580 -5490,-2300 -11480,-730 -16870,1140 70,870 90,2550 180,3620 -44920,2010 -89850,4540 -134700,7460 61250,-14230 81290,-35720 153330,-33890 25270,900 40080,5680 52320,8940 24620,-8980 49440,-17980 74680,-26990l-20 -200 70 180c41690,-14850 84530,-29750 129550,-44590 7790,-10990 10990,-23070 10940,-35540 -81560,21330 -159840,49500 -258800,71260 -26000,7640 35160,-34400 97850,-67280 62680,-33650 125370,-56570 101660,-22160l49730 -23260c-17470,-42090 -52160,-79150 -44500,-82610 30670,-10050 34070,-23910 62260,8060l-310 -3800c8690,-10700 17180,-21530 25440,-32500 -4710,-1210 -9470,-2340 -14200,-3440 1070,1900 3010,7100 3010,7100 0,0 -32730,-7080 -27990,-24570 -2520,70 -5050,110 -7600,180 3420,-2950 7820,-4090 10640,-7390 -10120,1920 -15770,-830 -19840,-6460zm1556510 -2094400c-65120,-9470 -131470,-17070 -198620,-22740 -235460,-20650 -480100,-16830 -718620,0 -119270,8390 -237000,19880 -353190,32100l-152890 16060 -133790 12240c-9180,48170 64980,27520 130730,17580 -63450,31350 -117730,53530 -169710,66510 -50470,13760 -97850,19880 -144500,19880 54290,13760 129970,6120 222460,-6120l146790 -22940c28290,-4580 57350,-9190 86390,-13010l97090 -12240c206040,-26130 410580,-26160 530740,18320 -24420,2610 -56160,5320 -92350,8380 -28280,2300 -55040,6120 -82570,9940 -25980,3840 -51200,7660 -77200,12240l-6860 1320c-116590,3570 -230970,14680 -342090,30850 -55800,7640 -99390,16060 -142190,23700 -44340,7640 -84870,17580 -126910,26770 -83330,19120 -163590,38980 -240060,61160 -311150,93270 -581790,185780 -874590,218640l-320 -90c-9940,-38980 118490,-18340 200300,-73390 -38220,-28280 -106270,22160 -55050,-47400 -180410,24460 -349360,76450 -519080,136850 -83320,29820 -168190,61170 -256100,93270 -79500,28280 -162830,55800 -250760,80270 -35160,-6890 19880,-35170 92510,-65750 74140,-31340 160550,-64230 208720,-90210l-288230 103970c-99390,35920 -201840,74930 -301200,114670 -100910,41280 -198000,83330 -288230,127670 -90960,45100 -172010,90970 -240060,137610 -3060,-30580 64990,-50460 107030,-74140 -313450,142950 -659000,308860 -1067230,477040 297390,-191120 640660,-415120 986200,-602430 172780,-94030 345550,-178900 513750,-248470 83320,-34400 167430,-66500 247700,-92500 81810,-26770 157490,-46650 240820,-64990 36700,-21400 14520,-51980 -16820,-38220 87210,-63560 190130,-120840 303080,-171640 54020,-10390 110000,-16350 135380,-56050 70190,-26760 143060,-51290 217470,-73520 249980,-74920 517570,-124610 749200,-155950 27530,38220 -13000,60410 -17580,90970 77990,-19880 155960,-39770 237000,-58110 29040,39770 -49680,51230 -110090,68810 87910,-13000 176600,-26010 267590,-37470 45100,-6120 90960,-11460 138370,-16060 44340,-4580 101670,-11460 159770,-16820 230120,-22160 460220,-30580 688040,-22160 189640,6660 378470,26030 564450,59200 -4150,4270 -5900,9670 -4690,16400zm-646800 109640c26340,10770 48170,23900 64430,39610 -51490,-5430 -102740,-9030 -153720,-11040 31480,-9050 62020,-18580 89290,-28570zm-768520 1511230c107030,-72630 349370,-146800 451060,-156710 -113150,97080 -331030,171250 -451060,156710zm379950 35940c46640,-13000 93270,-25220 139910,-36700 4580,19880 -30580,24460 -50460,34400 65740,27520 59620,5360 16060,60410 -29830,-26770 -96330,-6120 -105510,-58110zm1575630 270620c-178890,-61160 -356250,-107030 -547390,-125370 -95560,-9180 -193410,-12240 -294320,-6880 -50460,2300 -101670,7640 -153670,14520 -26010,3820 -51990,6880 -78750,12250 -28280,5360 -57350,11460 -86390,16820 48170,-15280 97090,-30590 144490,-42050 24470,-6120 48930,-11460 74150,-16060 25220,-4600 51220,-9940 77990,-13000 105510,-15280 217120,-19880 325660,-11460 108550,7640 214060,29040 305810,60410 92510,29820 171250,71100 232400,110850l20 -30zm-1029790 -68040c-35160,51980 -207930,42040 -300440,79500 -5360,-20640 55040,-42800 125370,-57340 35160,-7640 71860,-13000 104730,-16820 32100,-3060 55800,-4580 70320,-5370l20 30zm-1975460 1645190c82560,-17580 85620,-19120 152130,-71100 63440,42040 -159770,147550 -152130,71100zm-418940 322630c-28280,66510 -189590,109330 -269100,165900 -17580,-70330 201840,-162840 269100,-165900zm292810 -75680c19880,139130 -300450,173530 -499220,303500 119270,-158250 384530,-187290 499220,-303500zm2359240 -608530c14520,-23710 32880,-23710 50460,-18340 17580,6120 33640,17580 51230,17580 -20650,17580 -35930,16060 -51990,9940 -16060,-6880 -33640,-15280 -49680,-9180l-20 0zm-1226180 525180c1430,7440 2910,14210 4020,16820 4290,9920 9500,20190 14190,30050 -3840,-2060 -10970,-5390 -14190,-7640 -8290,-10820 -16840,-20780 -26070,-30630l22050 -8600zm2112230 1019870c-109330,-124610 -210240,-258410 -305810,-399080 29050,27520 116210,112390 191900,194180 74150,83320 139130,162830 113910,204870l0 30zm-1363880 -1204110c12250,-54280 131500,-50460 179660,-75680 -10700,51980 -123850,43580 -179660,75680zm-759140 -2989170c-185770,84090 -386070,58110 -493860,165140 42800,760 199540,-47410 331030,-89450 131490,-43580 239280,-81030 162830,-75690zm-1638320 928860c59630,-54280 186540,-95570 159780,-164370 -108550,68040 -148320,22940 -240060,62680 29040,95570 162830,-21400 80260,101670l20 20zm949500 -441120c136860,-28280 402900,-115420 399840,-152130 -90970,15280 -393720,46650 -399840,152130zm1799630 -64200c-92500,15280 -158250,15280 -223240,16060 -32100,760 -65740,0 -98620,3060 -33650,3060 -66510,6880 -105510,16060 22940,6130 58100,13770 100900,18350 42050,4580 94790,9180 141440,9940 93260,760 176590,-10700 185010,-63450l20 -20zm-714040 249220c75690,-11460 156720,-24460 243100,-37460 86390,-13000 175840,-26770 279050,-38230 201050,-24460 415890,-34400 629950,-22160 214060,14520 426600,54290 615410,123850 189600,67290 353970,162840 480860,260710 -126910,-117730 -280560,-217120 -449520,-286690 -168190,-70320 -348610,-114670 -525960,-136070 -178140,-21400 -353970,-22160 -518320,-13760 -82570,3820 -162080,10700 -237760,17580 -74150,7640 -144490,14520 -211000,20640 -6120,-34400 87150,-26760 90970,-58100 -67290,22940 -219420,13760 -223240,63440 113150,5360 69560,19130 -1520,38990 -72630,19120 -170470,45860 -172020,67280l0 -20zm1045070 37460c-150610,-16060 -390650,-32100 -626890,-3820 -227820,25220 -442640,87910 -554270,177360 211000,-53530 412060,-89450 607770,-118490 200300,-26760 389890,-45110 573370,-55050l20 0zm-2733070 1119220c101670,-70330 258410,-38990 261470,-141440 -64990,6890 -256860,90970 -261470,141440zm2279730 -825650c3820,57340 49690,36700 8400,83320 93270,-31340 142960,-35160 184240,-38220 41280,-2300 74930,-5360 143730,-25220 18340,60410 113150,59620 231640,64230 117730,3060 261460,14520 353190,68040 -7640,-37460 -28280,-61920 -56560,-77980 -28290,-14530 -63450,-20650 -100150,-23710 -74150,-3820 -152890,6880 -206420,-19880 22160,-3060 54280,5360 59620,-14520 -228570,-61170 -434990,-55040 -617710,-16060l20 0zm473220 706400c16830,-22940 -33640,-29040 -91740,-31340 -58110,-3070 -123860,750 -143740,-21410 -1520,34410 -51980,13770 -55800,45110 97850,-6880 194960,-6120 291260,7640l20 0zm-1535100 360070c-110090,96330 -185020,3820 -280570,120030 120030,50460 376130,-110090 488520,-179660 -114660,91750 -344780,0 -207930,59630l-20 0zm370770 -74150c-18350,-71100 159010,-68800 175830,-125370 -87910,-5360 -298930,22160 -378430,110090 122310,-38980 45100,87910 202600,15280zm792780 -181190c-14520,3820 -29820,9180 -44340,11460 -14520,2270 -30580,4580 -49680,6880 -42050,4580 -84090,8400 -123860,13000 -81800,9940 -159010,22160 -207170,55800 29040,-4580 65740,-20640 75680,2300 -122310,20650 -149830,92510 -210230,146800 99380,-18340 209470,-50470 268340,-9940 -181200,27520 -418940,152130 -588670,165130 106270,-42040 334090,-115430 266800,-160550 -135310,71100 -314210,139130 -372310,246940 272160,-101670 511440,-177360 723220,-229340 26000,-6120 51980,-12240 77990,-18340 25220,-5360 50460,-10700 74920,-16060 22950,-4580 45870,-8400 68810,-13010 16060,-2300 32100,-4580 48160,-8400 64230,-9940 129190,-17580 194180,-19880 129970,-4580 264520,9940 396010,63450 64990,26760 129190,62680 189600,108540 59620,46650 116210,103210 169710,168200 -26000,-102450 -107780,-195720 -204870,-256860 -48930,-30580 -99390,-55810 -147560,-78750 -48920,-22160 -94780,-42040 -133790,-67280 61170,19120 116210,46640 164380,16820 -55050,-35170 -129190,-54290 -199540,-67290 -71110,-13760 -137610,-21400 -185780,-48160 57350,10700 103210,8400 150620,8400 46640,-760 94780,1510 147550,24460 -20640,-51230 -54280,-67290 -78750,-81810 -24460,-15280 -41280,-29040 -35920,-79510 -112390,41290 -227060,29040 -347090,24470 -60400,-3070 -119270,-2310 -176590,3060 -31350,4580 -68050,9940 -99390,19880 -32100,9180 -61930,19880 -89450,35160 29040,-3820 56560,-6120 55810,30580 -32110,-9180 -92510,-16060 -155200,-7640 -61920,7640 -125370,28290 -157490,65750 80260,-10700 175070,-29040 272920,-42800 48920,-6880 98630,-12250 147550,-15280 26010,-1520 45110,-2310 63450,-760 16060,1520 34400,2300 51980,4580zm792790 727800c42040,-22950 1520,-42050 33640,-65750 -70320,-83330 -142190,-174310 -240820,-243880 -96330,-71110 -216360,-116210 -338670,-133790 -61160,-8400 -123850,-10700 -185010,-7640 -15280,1520 -30590,2300 -45870,3820 -15280,2300 -29820,3820 -45100,5360 -22160,3820 -44340,7640 -65740,10700 -23710,4580 -47410,9940 -71110,14520 -191900,42800 -389130,114670 -561150,202600 75690,-7640 165140,-41280 245400,-58110 80270,-16820 149830,-17580 188080,30590 -181200,55800 -354730,90200 -526750,129970 -85620,19880 -172010,42040 -259160,68800 -43580,13770 -87140,29050 -131490,46650 -21400,8400 -45860,18340 -70320,29040 -24470,10700 -48930,22160 -73390,33640 41280,-14520 96330,-50460 115430,-28280 26000,69570 -153670,96330 -118490,167440 37460,-6880 90970,-42050 136850,-64230 23700,-11460 43590,-19120 58870,-18340 15280,0 26760,8400 31340,29040 -20640,35160 -86390,66510 -156710,94790 -71110,29040 -149830,55800 -203360,87900 120790,-38980 255340,-86380 374610,-129970 111610,-38980 224000,-79500 337910,-119270 219420,-75680 429660,-142190 613130,-185770l67290 -15280 64230 -13010 53520 -9180c9940,-760 19120,-2300 29040,-3820 38990,-4580 77210,-6880 114670,-5360 74930,3820 146800,24460 199540,64990 55040,-35170 123850,10700 170470,71860 24460,30590 44350,62690 66510,88690 11460,13000 21400,24460 35160,32890 7640,6120 9940,4570 19120,9940 11460,10700 23700,22160 35920,31340 -6120,-12240 -12240,-26000 -18340,-36710 -2300,-5360 -5360,-9940 -7640,-15280 -5360,-9940 -12240,-19120 -18340,-28280 -13760,-18340 -29040,-36700 -43580,-54280 -27520,-35920 -50470,-69570 -43590,-122310 84090,8400 116970,69560 141440,120030 6880,13000 11460,26000 18340,37460 9180,16060 6880,10700 29820,45110 9180,13760 19120,26760 29040,39760l7640 9940 12240 18340 27530 38980c37460,51230 77200,100910 120030,148320 -26010,-48930 -51990,-97850 -77210,-144500 -12240,-23700 -23700,-46640 -35160,-69560 -6880,-13760 -8400,-17580 -11460,-23700l-7640 -18340c-5360,-12250 -9940,-23710 -13760,-35170 -3820,-9940 -9190,-24460 -7640,-26760 -760,-11460 -760,-24460 760,-35920l-70 -20zm-620010 -105510c44340,-17580 3060,82560 -6880,105510 32100,-12250 57340,-6120 81020,-1520 24460,5360 46650,9180 83330,0 -9940,-19880 -36710,-22950 -61930,-23700 -26000,-1520 -49680,-3820 -64980,-35170 15280,-44340 41280,-12240 59620,-55040 -24460,1520 -100150,-32890 -90210,9940l30 -20zm-600890 187310c29040,26770 99390,18350 165130,0 66510,-18340 129970,-45860 155190,-67280 -129970,32880 -256100,-10700 -320320,67280zm-441120 163600c-24460,-1520 -111610,20640 -181200,49680 -17580,6880 -33640,14520 -47400,22160 -13760,7640 -27520,16060 -35920,23700 -16820,15280 -17580,28290 10700,35930 9940,-9190 150610,-68810 250760,-110090 98630,-41290 157490,-67290 3060,-21410l0 30zm1317230 -185020c-17580,-760 -17580,-54280 -48920,-16820 -13010,36700 14520,45100 48920,16820zm-317270 -103190c-4580,26770 -30580,25230 -52740,26010 -22160,-760 -38220,760 -18340,21400 15280,-7640 35920,-4580 53520,-2300 18350,1520 35170,0 48930,-23700 -16060,8400 -10700,-38990 -31340,-21410l-30 0zm-508380 -1149050c-3060,0 48170,3820 4580,20640 -99390,37460 -228580,67280 -292800,77200 -64230,9920 -62690,-5360 103210,-51980 46640,-13000 108540,-38220 185010,-45860zm3928910 -201310c30040,-94220 191040,-108140 293160,-220110 -32280,102470 -175190,147850 -293160,220110zm1315600 -844630c-162700,51690 1650,-49490 126100,-109040 124880,-61190 206240,-87040 -126100,109040zm-1265700 1071650c110650,-116060 287980,-137950 341490,-258760 -39680,19730 -138170,80270 -221100,136850 -81870,57930 -147080,113260 -120390,121910zm1738800 -750230c-17780,-29960 69570,-56990 60340,-87100 -54080,21870 90,-26570 5720,-52660 -254620,163930 -579370,274220 -758140,439150 86010,-79840 158640,-52450 127790,14680 177280,-83530 135550,-166320 301470,-248300 27030,17910 51740,9000 34180,53120 172730,-59960 187250,-172890 228640,-118890zm1743450 -1081130c-227040,107640 -589920,252960 -721120,375470 110180,-64450 255140,-134380 390070,-196060 67690,-31650 132360,-62700 188370,-94340 56430,-33260 106450,-55890 142660,-85070l20 0zm-2709030 1724550c64470,-55180 138260,-110690 160020,-165040 -65840,56250 -299240,128520 -222770,132520 32770,-19130 48140,6630 62750,32520zm711340 -208110c32930,-18370 73630,-52390 91370,-34110 231120,-149030 387100,-253200 148730,-120640 -38330,22590 -109370,91590 -145250,68450 64070,-34070 97580,-68940 84870,-104570 -116030,62500 -126510,126260 -179720,190870zm1146600 -620060c42490,-32790 102510,-67580 170340,-102380 18430,-9210 37590,-18540 56610,-28640 24860,-12060 50460,-24260 76820,-36640 51230,-24420 103930,-49150 155130,-73560 102130,-50330 203220,-94230 288420,-139580 42360,-21850 80670,-44430 114670,-65370 33530,-19270 62580,-37640 84400,-56870 -35050,11770 -77270,26580 -119360,49930 -42220,22600 -86540,46400 -129520,69140 -85360,44610 -163220,79880 -206870,76260 152600,-70700 178500,-89220 132190,-79050 -23080,5450 -63360,18310 -115050,36570 -50650,19630 -112510,45410 -177040,73340 -32040,15050 -64990,29550 -98540,44920l-48970 23970c-12740,6480 -24710,12800 -37440,19280 -42990,22760 -82640,46380 -113020,69700 -60740,46640 -85360,90630 -32820,118980l50 0zm3555500 423720c9780,17530 22870,35940 38380,54620 15920,17060 35900,30960 55710,44090 38310,27350 84510,35930 113580,25360 -17810,-49440 -56840,-57150 -95820,-68720 -19810,-5360 -42330,-8600 -61680,-15590 -19810,-9250 -37080,-21330 -50170,-39740l0 -20zm679700 155080c-6520,-7690 -12930,-14970 -19080,-22010 10230,6390 20670,13900 31280,22300l-12200 -290zm-2277970 256970c-34670,-5450 -65830,-9250 -89980,-9070 -52920,600 -87530,6830 -106720,12260 -19340,4690 -24730,8920 -19770,10260 10240,4170 61950,1490 123140,14830 13200,3550 27920,6810 41420,11890 -14390,2140 -28620,5020 -43180,6410 -108220,16440 -211650,21820 -307260,38850 -94720,17640 -183250,46510 -239620,114870 110360,-55920 72200,-24780 30670,32010 67830,-34810 148250,-69050 234700,-96710 86440,-27660 182340,-47090 277080,-45240 130170,3260 246760,47500 343230,65370 -73920,-60650 -211830,-159890 -103990,-35860 -67250,-31610 -105290,-73050 -139740,-119870l20 0zm-1310300 628280c140980,-101110 199200,-141010 188570,-143510 -10660,-2530 -90190,32300 -219130,88860 -43560,23660 -56100,50380 -54960,79020 30700,-14030 69140,-43650 85540,-24370l-20 0zm1075630 -458230c-20760,-21540 -65550,-11690 -112100,8670 -46580,20370 -95080,50480 -132100,60330 -9890,1230 -202930,80110 -228310,135960 84650,-24950 158820,-47780 228180,-71190 69500,-22680 135580,-43070 204360,-53930 1660,-57260 -48070,-40950 -99270,-12620 -51360,27560 -102540,63660 -120460,32970 83260,-39470 168930,-78700 259720,-100240l-20 50zm6072920 -1357360c-59380,35900 -21490,137640 -84000,247970 -128360,-15210 -7820,-297940 84000,-247970zm-1901410 725040c-3530,-62690 8110,-99860 26450,-136990 17650,-38040 40460,-77090 61460,-140760 39720,30470 25960,77430 -960,128560 -26920,51110 -70710,102540 -86950,149190zm-965020 333700c52740,-74630 55150,-144130 113530,-223080 45320,70750 5920,318720 -113530,223080zm-14378290 -1267340c17580,-66510 165140,-77990 224760,-99390 -29040,81020 -154430,55040 -224760,99390zm-1541230 620010c232420,-80290 -308080,164350 -163590,135330 -17580,17580 -83330,40510 -162830,74150 -39770,16820 -83350,35920 -126150,58860 -43590,23680 -86390,50450 -123860,81030 -74140,18360 3820,-28280 82570,-74150 78750,-45860 155950,-87140 82570,-71860 -7640,-51990 140670,-94030 72620,-16820l170480 -96330 168190 -90210zm4644350 -1316450c121550,-7640 267590,-760 379170,26740 -42800,25220 -138370,24460 -252280,19120 -113910,-4570 -246940,-12240 -360070,-6880 16070,-12240 111610,-32880 233180,-38980zm289750 126890c76440,6880 157490,21400 228550,47400 -24460,19130 -98620,9950 -184230,-2300 -84870,-13000 -181960,-26000 -246160,-23700 53530,-19880 125370,-25220 201840,-21400zm-1363900 2279200l4600 -2460c-2430,-6170 -4840,-13450 -8460,-21050 -2390,70 -3400,3670 -4610,3710l8470 19800zm32440 -13900c9890,-3600 21850,-7640 36030,-12150 4890,-9180 9180,-17850 11190,-20350 3180,-2840 30230,-340 34500,-120 6340,-21310 8550,-38840 34510,-39690 50,20 -1810,-3550 -3530,-3550 -110,-7090 22050,-880 26120,-360 -5280,-2300 -10530,-4600 -15800,-6930 32390,-16440 -75710,50 -75800,50 -30130,7590 -60200,15630 -90230,23570 -7170,-4630 -14400,-9140 -21710,-13590 -23860,1770 -45440,6770 -64250,20870 -62570,-720 -126570,3240 -189060,6320 5560,6570 -13650,920 -13090,1160 14370,-4890 2570,-21820 2570,-21820l-19950 -16920c-21450,4650 -42490,9630 -62570,15260 -17270,9180 -33020,20350 -48410,22070l600 -6360c-6340,2450 -12490,5020 -18450,7750l510 580 -2030 110c-15860,7350 -30250,15680 -42580,25270 36680,-7530 60740,-14520 61190,-20060 12310,-10820 91720,-18390 105220,-10860 18450,20440 50800,33800 79730,25330 1810,3220 3860,6790 4220,10440 19680,-22860 25760,-12850 50110,-14590 -4250,3910 -8510,7790 -12780,11700 -26720,-16530 -22740,-13000 -3080,230 -9050,5250 -20960,11120 -31970,9670 -740,15300 119450,-17380 127510,-19520 -130,-36640 54060,-28640 80220,-21670 5700,-1390 11420,-2800 17120,-4180 42750,15410 55150,-7330 23270,24370 3960,4510 11960,18030 20670,27970zm12742510 -261770l15880 -6730c-7550,200 -13040,2300 -15880,6730zm-12702370 405390c1770,-780 3760,-1810 6100,-3130 5270,-3170 10140,-4460 15080,-4960 24220,-10900 49190,-21890 74680,-32810 -30940,-4200 -48790,3860 -88780,24010 -110,70 -7730,8090 -8620,8960l1540 7930zm677140 -197770c18920,0 36990,960 54010,2930l1320 -11080c-10790,440 -22560,-720 -31070,-650l-24260 8800zm-591200 -268460c49690,-3300 99300,-7080 149010,-11030 -38670,-540 -80960,-580 -122800,-1500 53810,-26960 102780,-58800 133230,-82320 -102430,13760 -202580,49680 -325670,135310 47900,4360 108550,-14180 166230,-40460zm-230770 19510c26320,-15040 53800,-28690 82280,-41150 -32280,-1500 -64690,-2590 -97200,-3240 -90760,34160 -185280,52590 -250720,44650 22080,-14960 49890,-30020 81050,-44540 -39580,830 -79210,2170 -118840,4020 50570,-25020 103000,-57010 153130,-80980 -130730,2300 -266040,100910 -349360,100150 15050,11060 31430,17200 48870,19550 -61850,23500 -124580,47220 -186130,71460 -50040,19500 -99250,39250 -146520,59070 261320,-59450 517760,-100760 783440,-128990zm-1077700 270510c-12000,7100 -23370,14160 -33980,21110 200,3210 630,6100 1180,8710 91800,-26670 183190,-49080 284810,-71060 135690,-27750 271290,-51490 408910,-69790l1250 3480c85450,-58260 159900,-92480 232100,-112120 -30650,-24150 -33590,-29060 9210,-2430 10070,-2570 20100,-4870 30130,-6910 -17110,-4240 -34240,-8330 -51350,-12260 -63760,16420 -127360,33330 -190740,50910 -22160,6680 -15030,27230 -54420,17230 2550,6090 5270,10630 6260,17290 -900,600 -384510,85560 -397780,87460 -77360,19540 -162430,42020 -245580,68380zm664620 -100710c4610,12960 10500,29640 17070,45440 13700,-9270 28350,-17690 43790,-25330 510,-9300 870,-18640 1110,-27950 -21780,5270 -42710,8180 -61970,7840zm151470 -39590c56270,630 114220,-4240 167610,-11500 -23230,-17360 -43940,-32930 -61100,-46000 -31320,19730 -68340,40350 -106510,57500zm116050 -63620c19080,12240 43050,27840 72510,47230 32420,-7670 64830,-15260 97250,-22880 -46470,-16260 -94250,-30310 -142390,-42850 -8360,5920 -17540,12130 -27370,18500zm-881210 265750c-35920,24290 -95680,43010 -160820,64680 40840,-5210 91640,-12130 142930,-19330 58060,-19920 111320,-31790 151440,-21780 48770,-7190 85070,-12710 94180,-14360 7400,-1340 31140,-4490 63980,-8870 25720,-10880 53190,-21290 79040,-31900 -57340,-37470 -216360,91750 -249980,14520l9090 -4070c-43740,6460 -86920,13430 -129860,21110zm574820 -68620l830 350 380 -420 -1210 70zm233030 -49370l-7420 1560 -14770 3100 22190 17070c7640,-5450 15300,-10900 22940,-16370 -8800,-2130 -16380,-3910 -22940,-5360zm2353340 -1450890c24460,-5050 27500,-13030 15280,-23730 -18340,-16040 -71870,-35160 -138370,-51980 -65750,-17580 -146020,-28280 -215600,-35920 -41180,-3180 -78910,-5280 -108510,-5660 4690,5340 8850,9300 12290,11530 74990,19240 149250,40770 222390,65100 71490,10540 142480,23970 212520,40660zm279870 -463640l33840 14320c-1360,-3730 -2230,-6250 -2080,-6410 -8510,-2280 -19280,-4920 -31760,-7910zm1787790 1529680l3060 1770c62300,32720 -29800,-45960 -3060,-1770zm5518030 -1156090c-155660,-23100 -322700,-35460 -496810,-30900 -73390,2300 -146790,3820 -223240,15280l-22850 3420c41950,8380 84040,17400 126550,27070 29960,-2520 60030,-4440 89760,-6010 87910,-4570 176590,-5360 266040,-1510 114850,4930 231620,17490 349460,38690 -22360,-11570 -43500,-25040 -62930,-40370l-25980 -5670zm-9494880 3013650c-34220,4420 -68290,10570 -102220,18030l-6060 5890c7870,8960 31610,53400 45330,34970 8620,-11870 19030,-35120 22560,-39500 3170,-2840 30230,-340 34490,-110 2080,-6990 3710,-13560 5900,-19280zm653680 -1357760c-74930,4610 -154680,17760 -248330,41040 1520,19880 13010,29830 26770,34410 13760,4570 31340,3820 49680,1510 37460,-5360 79510,-13000 98630,5370 -33640,9940 -69570,17580 -107790,28280l-132250 32880 -37240 9250 -7510 10520c121710,-28910 244670,-53230 367910,-76130 -2390,-23260 -6670,-60090 -9870,-87130zm-1114300 354980l-40 0 4820 -380 -4780 380zm-1580660 -1612090c-1450,3190 -3120,6190 -5000,9020 -44100,13880 -89890,29960 -136920,48210 -38270,1970 -75440,1100 -99660,4690 -28190,26880 -57360,51430 -87390,74150 -44920,20930 -90300,43070 -134420,65810 -77310,39250 -154140,82790 -227100,127630 -241850,97200 -511530,174090 -784990,356250 68050,-55810 149830,-116210 238520,-172020 89450,-57340 186540,-113910 284380,-163590 48930,-25220 99390,-49680 149070,-72630 11380,-5160 22790,-10230 34230,-15210 -17470,13160 -31210,26610 -39630,40460l0 -20c56560,-35930 137610,-70330 211000,-103970 17580,-7960 34670,-15950 50820,-24060 57190,-19660 111990,-35860 163300,-48570 -180410,25220 -4580,-26760 59620,-96330 -183470,13000 -405170,172020 -563420,216360 77990,-68040 184230,-127670 302740,-188080 116970,-56560 246950,-113150 367740,-167430 48000,5250 68270,21940 78590,41310 -101180,52960 -191430,106200 -259880,165930 79620,-22310 175300,-73650 274080,-120810 8780,29070 26740,48190 124320,22900zm-2699440 1477740c-11460,69570 -196480,155190 -274470,240060 -50460,16820 -5360,-21400 45870,-68050 51980,-46640 110850,-97840 87170,-117720 51220,-27530 64980,33640 141430,-54290zm4833140 -2046570c27520,-3820 54290,-7640 82570,-9940 54280,-4580 98630,-8400 123090,-12200 -66510,26760 -159770,50460 -237000,70320l-123090 29040 -131490 28290c14520,-43590 107030,-74150 208720,-93270l77200 -12240zm-5274240 3171170c-45100,107030 -149070,239280 -260700,373830 27520,-58110 61170,-118490 103210,-181960 21400,-31340 43580,-64220 69560,-96330 26770,-31340 55810,-63440 87930,-95540zm1597040 -270650c-216360,204880 -449520,316510 -607010,444940 68800,-95570 182710,-183470 295100,-262980 115430,-74150 229340,-140670 311910,-181960zm988770 141480c2680,-960 5160,-1770 7370,-2320 -2730,1020 -5160,1810 -7370,2320zm-333150 70640c-650,5890 180,12600 2610,20300 -3190,-6810 -5830,-13910 -2610,-20300 6680,-62510 175560,-34760 290810,-164710 113910,-9180 -51220,81020 -104720,105510 17580,42040 91750,-41290 134550,-50470 -6300,22390 -11330,44790 12510,39050 -73050,26680 -310140,197440 -316780,58820 -9290,3400 -14180,7440 -16370,11800zm-66980 13420c-34400,78750 55810,11460 77210,75690 -253040,81810 -301990,181200 -494620,214820 92510,-132250 299680,-158260 417410,-290510zm-577940 402900c-45870,94020 -153680,201050 -233940,152130 98630,-39760 125370,-129970 233940,-152130zm315740 162830c62690,42040 -48920,74150 -84860,110090l-24470 -33640 109330 -76450zm214060 295060c-43580,26760 -92510,54290 -142190,87150 -48160,33640 -99390,71860 -150610,116970 44340,-124610 292040,-217880 504560,-379170 -24460,36700 -55050,67290 -90970,94790 -36700,27520 -77990,52740 -120790,80260zm-924300 -947960c-65740,34410 -168190,115430 -194960,147560 -81800,9940 154440,-201060 194960,-147560zm181960 1581760c38980,62680 -103210,129190 -155950,169710 -4580,-12240 23700,-37460 58100,-68040 34400,-31350 73390,-68810 97850,-101670zm-1654380 -817250l0 0zm2473930 -2992250c-24460,38220 -88690,71860 -161320,104720 -73380,33650 -154430,68050 -210990,104000 23700,-38990 89440,-74930 162830,-109330 73380,-33650 153670,-64990 209480,-99390zm3992190 -964020c67290,5360 151370,20640 203360,21400 -51230,29820 -159020,28280 -299690,19120 -20640,-38220 29040,-45100 96330,-40520zm-5126710 2265190c-64980,42800 -111610,76440 -149070,104720l-94030 69570c-27520,20640 -55040,39760 -90960,63440 -35170,25220 -77990,55050 -138400,95590 52750,-94020 467100,-373070 472460,-333320zm158260 856250c344780,-281350 222450,-39770 0,0zm701030 -256880c-29820,73380 -122310,123090 -218630,159010 -4560,-20110 510,-36910 11840,-51380 88840,-17200 161060,-66100 192720,-99680 4960,-2590 9650,-5230 14070,-7950zm720160 -38990c-147550,170480 -241580,29050 0,0zm-535160 294330c-65750,13760 285920,-233940 313440,-152890 -92500,29040 -165130,74140 -313440,152890zm10767180 1193380c86390,-48930 118490,-5360 205660,-51990 -3060,31350 -205660,128430 -205660,51990zm286680 -58870c26770,-59620 187300,-73380 267590,-112390 -28290,58870 -188080,71870 -267590,112390z"/>
 </g>
</svg>
