<svg xmlns="http://www.w3.org/2000/svg" xml:space="preserve" width="210mm" height="31.7588mm" version="1.1" style="shape-rendering:geometricPrecision; text-rendering:geometricPrecision; image-rendering:optimizeQuality; fill-rule:evenodd; clip-rule:evenodd"
viewBox="0 0 21000000 3175880"
 xmlns:xlink="http://www.w3.org/1999/xlink">
 <defs>
 <linearGradient id="id0" gradientUnits="userSpaceOnUse" x1="20" y1="1.62173e+006" x2="2.09882e+007" y2="1.62173e+006">
  <stop offset="0" style="stop-opacity:1; stop-color:#FCA5F1"/>
  <stop offset="1" style="stop-opacity:1; stop-color:#B5FFFF"/>
 </linearGradient>
 </defs>
 <g id="Слой_x0020_1">
  <metadata id="CorelCorpID_0Corel-Layer"/>
  <path fill="url(#id0)" class="fil0" d="M13218090 869180c106280,-46800 371330,-26560 559210,-41740 5690,10120 -10120,12020 -25930,13290 -12020,31000 130940,-38580 107550,20250 98670,3790 265680,-25310 320710,620l-320090 11400c-92360,-20250 -123360,8230 -213810,-4440 -13910,-1900 67680,-23420 79700,-15190 -48700,-34160 -182190,7590 -347300,-1270 -3790,26560 94890,3170 133490,8860 24660,33510 -204960,0 -293530,8220zm113990 2165740c106280,-46810 371340,-26560 559210,-41750 5690,10130 -10120,12020 -25930,13290 -12020,31000 130940,-38580 107550,20250 98680,3790 265680,-25310 320720,620l-320100 11400c-92360,-20250 -123360,8230 -213810,-4440 -13910,-1890 67680,-23410 79700,-15180 -48700,-34170 -182190,7580 -347300,-1270 -3790,26550 94890,3160 133490,8850 24670,33520 -204960,0 -293530,8230zm290370 -92990c66430,-46830 133480,-9500 266320,-21520 -36060,29100 -185350,10770 -266320,21520zm369460 -16980c139170,-39200 401060,-14540 453580,-5680 -177130,45530 -294160,20870 -453580,5680zm-5358730 -43120c-472430,11390 -57280,-56830 224670,-47130 30600,1030 584890,-18790 606600,-16680 -6330,12650 -501380,36690 -502000,53150 108170,17080 497950,23430 678240,19640 -15180,10770 -74010,16460 -27200,23420 -60720,7580 -197360,-3800 -265680,29720 17700,-27180 -148460,-16590 -230700,-22270 -82240,-6330 -189770,-9480 -273290,-18980 -3160,-620 56930,-19600 79700,-8850 -32780,-15360 -155130,36190 -208320,37870 -148860,5040 -304040,-22000 -359230,-21590 14540,-8870 277810,-11840 277210,-28300zm4212320 154380c68330,-35430 146130,-22140 266330,-18980 -36710,28480 -185990,9480 -266330,18980zm-2198090 -169270c44920,-27830 437820,-36230 527010,-44460 -52510,24690 -409980,49530 -527010,44460zm4982900 -172990c-288650,16910 -2308030,150310 240390,13920 -112620,-13920 -295430,9500 -446620,13290 -9480,-5070 95530,-19630 206230,-27210zm-3622350 165580c126530,17710 1237680,4420 1373060,17710 -106280,22140 -1302840,18980 -1373060,-17710zm4979900 -226950c79070,40480 150560,-61370 231540,-23410 -58850,25930 -151840,40470 -200550,69570 6310,26580 110080,-5680 155610,-3790 10750,18350 -469390,58200 -671180,73390 -80970,-12640 111970,-19600 154980,-24660 -15810,-37310 -232780,39870 -210640,-19600l207500 -16480c-53140,-16440 -163210,0 -236600,-5690 100570,-17710 209390,-31620 321990,-44910 112590,-14540 230260,-25940 347920,-38580 22140,31640 -122090,3170 -100570,34160zm-557300 196110c188500,-53770 505450,-43640 776190,-94890 -130970,41750 -244830,56290 -365630,65790 -120190,10120 -248620,12640 -410560,29100zm1372710 -311870c-43640,-10120 726310,-120860 788300,-85430 -139170,8860 -692760,67730 -788300,85430zm197360 33540l37330 -16460c620,9500 -19630,12670 -37330,16460zm-12000 2540l11400 -3160c-1280,1250 -3170,1890 -5070,2520l-6330 640zm-2262710 233270c-66430,-42400 635040,-65660 642620,-87800 84140,40470 -607830,53010 -642620,87800zm1279230 -242550c38600,-27850 116410,-40500 202440,-52500 85410,-12010 179650,-20870 253040,-37320 -110720,44280 -292910,65780 -455480,89820zm1231580 -203410c140450,-3790 489080,-60010 643440,-79610 -27830,23410 -91090,32890 -166380,44290 -37950,5680 -78450,12640 -120190,20870 -42370,7600 -84120,18350 -124610,34140 -35440,-27830 -254400,18890 -232260,-19690zm476180 112120l0 0zm-3765120 497630c41770,-23390 118950,-31620 212560,-33520 -41760,22770 -118940,31630 -212560,33520zm3115480 -419850c31620,-30990 174580,-30370 249870,-49970 -30350,32270 -173960,32890 -249870,49970zm-9822350 505880c182620,-59000 521910,-70670 733200,-79520 10770,32240 -585450,72290 -733200,79520zm-566750 -54640c43660,-51870 631120,-32810 777250,-30290 -13290,68300 -686150,4350 -777250,30290zm5834280 -2205160c66430,-46830 133490,-9500 266330,-21520 -36060,29110 -185360,10770 -266330,21520zm369470 -16970c139170,-39200 401060,-14540 453580,-5690 -177130,45540 -294160,20880 -453580,5690zm-5358740 -43120c-472420,11390 -57270,-56830 224670,-47140 30610,1040 584890,-18780 606610,-16670 -6340,12650 -501380,36690 -502010,53140 108180,17080 497960,23440 678250,19650 -15180,10770 -74010,16450 -27200,23410 -60730,7580 -197360,-3790 -265690,29730 17710,-27190 -148450,-16590 -230700,-22270 -82240,-6340 -189770,-9480 -273280,-18980 -3170,-630 56930,-19600 79700,-8860 -32780,-15350 -155140,36190 -208320,37870 -148870,5040 -304040,-21990 -359230,-21580 14540,-8880 277810,-11850 277200,-28300zm4212330 154380c68320,-35440 146130,-22150 266320,-18980 -36700,28480 -185980,9480 -266320,18980zm-2198090 -169270c44910,-27830 437810,-36230 527010,-44460 -52510,24690 -409980,49520 -527010,44460zm4982890 -172990c-288640,16910 -2308030,150310 240400,13910 -112620,-13910 -295430,9500 -446630,13290 -9470,-5060 95540,-19620 206230,-27200zm-3622340 165580c126530,17710 1237670,4420 1373060,17710 -106290,22140 -1302840,18970 -1373060,-17710zm4979890 -226950c79080,40470 150570,-61370 231540,-23420 -58850,25940 -151840,40480 -200540,69580 6310,26580 110070,-5690 155610,-3790 10750,18350 -469390,58200 -671180,73390 -80970,-12650 111960,-19600 154980,-24670 -15810,-37300 -232790,39880 -210640,-19600l207500 -16480c-53140,-16430 -163220,0 -236610,-5680 100580,-17710 209400,-31620 321990,-44920 112600,-14540 230270,-25930 347930,-38570 22140,31640 -122100,3160 -100580,34160zm-557290 196100c188500,-53760 505450,-43640 776190,-94880 -130970,41740 -244830,56280 -365630,65780 -120200,10130 -248620,12650 -410560,29100zm1372710 -311860c-43640,-10120 726310,-120860 788300,-85430 -139170,8850 -692770,67720 -788300,85430zm197360 33540l37330 -16460c620,9500 -19630,12670 -37330,16460zm-12000 2540l11390 -3170c-1270,1250 -3160,1900 -5060,2520l-6330 650zm-2262710 233260c-66430,-42390 635040,-65650 642620,-87800 84140,40480 -607830,53020 -642620,87800zm1279230 -242540c38600,-27860 116410,-40500 202440,-52500 85410,-12020 179650,-20870 253040,-37330 -110720,44290 -292910,65790 -455480,89830zm1231580 -203410c140450,-3790 489080,-60010 643440,-79620 -27830,23420 -91090,32900 -166380,44290 -37950,5690 -78450,12650 -120200,20870 -42370,7610 -84110,18360 -124610,34150 -35430,-27830 -254390,18890 -232250,-19690zm476180 112120l0 0zm169570 -95560c258720,-125840 878910,-140740 1293010,-191040 -54020,87760 -337070,73730 -440220,88640 -156190,22600 -137520,44870 -166900,58440 -19170,8830 99670,-56220 195260,62960 -39220,29100 -125880,48080 -200540,69580 -74660,21500 -137900,43010 -127780,83510 -135900,8320 -740580,106610 -877580,105080 36680,-44290 653070,-156090 717580,-177580 -42990,-8860 -546940,73690 -669950,88960 -40500,5060 -82250,10750 -123990,17080l-129050 17710c-346650,53760 -728760,120820 -1067830,158150 315650,-74640 502910,-98060 709780,-185360 264430,-12020 491540,-53140 718680,-100620 229000,-48070 456730,-103740 723050,-148650 -66430,-10750 -151820,-6330 -246080,5690 -94880,12020 -201160,28480 -307440,47450zm-3934690 593190c41770,-23400 118950,-31620 212560,-33520 -41760,22770 -118940,31620 -212560,33520zm-7539950 52260c253040,29100 52430,69920 354170,70560 302390,-1890 943260,31670 1126080,-27160 247350,15190 417410,-30870 685610,-23290 67680,1280 32270,10130 25930,25310 219800,-10550 989600,-48980 1064540,-21340 32890,12100 -611860,64380 -500130,69980 366280,16460 1331600,-36490 1621340,-53570 -261270,-27200 -576280,-12020 -843850,-34790 58220,-44390 868060,10920 984290,10130 275180,-2520 552260,-5690 738240,35430 -259370,-21520 -428890,-16460 -852750,-11390 -9500,20870 20870,22770 53770,23410 -224580,35440 -725380,29790 -972730,62680 132060,38020 945110,43990 1095510,46660 379560,8230 653690,-34960 1076900,-40670 -56310,-17700 -141070,-21520 -241020,-18350 65610,-6350 108800,-25440 225570,-19820 371990,17970 942400,91700 818820,9390 170500,-18820 451410,-680 660160,-11430 43880,-2520 852230,-7030 458420,-85890 224590,10130 1030610,19650 658480,-56840 -136010,-11400 996440,-3680 1255730,-31060 -143490,6650 -744250,-50880 -836680,-38750 444420,-11810 1434380,5140 1785580,-44940 115390,-16430 -409610,-37460 -479320,-72420 -31060,-15570 296590,-58700 351150,-62940 -1270,22770 -86030,17710 -99320,36680 257430,-25460 593080,12350 833510,-14730 363760,-40970 715020,-72850 1059780,-129030 297770,-48530 652460,-165670 841410,-148370 -82240,32270 10750,33520 -98670,25310 -35440,61370 41120,101220 110690,149300 68330,47450 -82820,143630 -151770,248640 95530,4440 303760,51550 379030,83190 -174590,45540 -313120,139500 -439620,190740 12640,11400 49970,3170 82860,-1890 32890,-5690 62000,-8230 58200,16460 -51870,24660 341310,20030 -56350,129990 24040,18980 493390,-53850 555380,-66490 -620,44910 -463570,144620 -517330,178780 163830,-6330 318130,92670 486400,100250 -43640,113870 -330520,199340 -302060,270190 898000,-62770 113970,70050 -12090,126500 -16450,39850 -156660,90600 -239500,154860 9490,20250 880920,-124420 901790,-113020 -250110,94820 -1216390,340450 -944230,406140 -406000,40850 -938500,63680 -1173290,177890 106280,-18980 212560,-35440 307450,-47460 94260,-12020 179640,-16430 246080,-5680 -266330,44910 -494060,100570 -723060,148650 -227140,47470 -454240,88590 -718680,100610 -206870,87310 -394120,110720 -709780,185360 339070,-37330 721180,-104390 1067830,-158150l129050 -17710c41750,-6330 83490,-12020 123990,-17080 123020,-15270 626960,-97810 669950,-88960 -64510,21500 -680890,133290 -717580,177580 137000,1530 741690,-96760 877590,-105080 -10130,-40490 53120,-62010 127770,-83510 74660,-21500 161320,-40470 200550,-69570 -95600,-119190 -214440,-54140 -195270,-62970 29380,-13570 10710,-35840 166900,-58440 91740,-13240 325760,-3660 414420,-63090 74290,5130 180700,5490 326270,-90 -48770,9350 -1074720,321000 -1018480,412080 -326120,50530 -658300,81140 -1001630,119800 -240440,27080 -576090,-10720 -833520,14740 13290,-18980 98060,-13920 99330,-36690 -54570,4250 -382220,47370 -351160,62950 69710,34960 594720,55980 479320,72420 -351190,50080 -1341160,33120 -1785580,44930 92430,-12130 693200,45410 836680,38750 -112740,11910 -390600,17150 -657480,20250 66920,-18850 107050,-32510 105950,-38150 -160800,12730 -299730,26650 -423480,41230 -199190,1790 -332720,3380 -280720,7730 34290,7050 58530,13380 74190,19020 -101960,14430 -193890,29230 -281450,44050 -167010,2030 -358570,-2040 -451210,-6220 393800,78860 -414550,83360 -458430,85880 -208750,10750 -489660,-7390 -660150,11440 123570,82300 -446840,8570 -818820,-9390 -116780,-5630 -159960,13460 -225580,19810 99950,-3160 184710,650 241020,18360 -423210,5700 -697330,48890 -1076900,40660 -150400,-2670 -963440,-8630 -1095510,-46650 247350,-32890 748150,-27250 972730,-62690 -32890,-640 -63260,-2540 -53770,-23410 423860,-5060 593380,-10120 852750,11390 -185980,-41120 -463060,-37950 -738240,-35430 -116230,800 -926070,-54520 -984290,-10120 267580,22760 582580,7580 843850,34780 -289740,17090 -1255060,70030 -1621340,53580 -111730,-5600 533020,-57880 500130,-69990 -74940,-27640 -844730,10790 -1064530,21350 6330,-15190 41740,-24040 -25940,-25310 -268200,-7590 -438260,38470 -685610,23280 -160160,51550 -671890,32160 -999590,27850 -108330,-8740 -216310,-17740 -324060,-26940 -18180,-13640 -35020,-30330 -156600,-44310 105660,2540 204900,-51460 534660,-103980 -382710,-38600 -1570760,-84720 -1912370,-106240 45450,9610 518780,123750 669590,176050 -154190,-14710 -307990,-29720 -461530,-44950 -122650,-20360 -232530,-38770 -329920,-46180 -138720,-26950 -429510,-52560 -682870,-69130 300210,-8740 1326660,-28020 1324530,-40320 -76540,17080 -1304910,-30700 -1423210,-37010 -12020,-20250 703280,6790 770960,-10920 -70230,-30370 -765380,-34490 -953910,-64230 55040,-15810 1285370,9970 1363180,6830 -153090,-41130 -878040,-48230 -1015940,-55190 -88860,-4070 -913450,-80780 -913540,-83640 -198000,-23420 -539780,-68390 -758030,-107000 137280,-24660 897290,19180 1123750,43860 226480,24040 474450,63270 700910,79700 -83520,-18980 -176510,-32890 -274560,-48080 -98050,-15810 -201790,-29720 -306800,-43640 -210020,-27830 -427000,-51240 -619310,-85410 201790,2520 406750,18360 599060,42390 192320,23420 371960,55670 524430,78460 31620,-34170 -58830,-27830 -106910,-34790 172070,5060 639560,65780 765450,87930 729880,96580 1687480,102640 2045960,151920 -86030,-48700 -1321020,-150030 -1493080,-167730 -7590,-8860 1077590,60310 1092130,67910 -89830,-45530 -1405980,-116600 -1660910,-135570 -536430,-45390 -914160,-104690 -1447960,-181290 -249830,-28450 850550,82370 1175410,101590 -107560,-13290 644920,47210 492480,16840 -76540,-14540 -1055490,-122500 -1128230,-138310 -72740,-15810 -291300,-11370 -350770,-22750 -28480,-5060 -653690,-85770 -471520,-84500 108800,-630 604660,42740 725480,61710 120830,18980 1205330,119340 1322360,113030 -92990,-15810 -1725550,-329380 -1831830,-305340 -104390,-39850 307680,93630 155860,68320 -151190,-25930 -320090,-43010 -492780,-67050 -172690,-22770 -349190,-43640 -517470,-67680 -282780,-40390 -518690,-50600 -866770,-140790 -50550,-11370 1068180,155030 1567660,224930 -71490,-36690 -211290,-55660 -349190,-74640 1890,-29730 105910,-3340 -99690,-43820 60720,1900 321730,14720 404590,22950 82870,8220 175230,15180 271390,25930 192940,20250 2360980,183910 2553910,208580 -782560,-168880 -1663270,-124010 -2629820,-273740l-135380 -20250 -135380 -22140c-479840,-80110 -1561130,-211790 -1494490,-198910 298000,-17450 243990,-25270 87740,-62570 338960,18590 449050,60180 695720,73600 -32900,-10120 -406390,-101910 -520900,-124680 209500,29190 370970,70920 419030,72190 -185980,-79700 -644620,-132220 -795170,-184090 -56310,-1270 -208750,-48080 -77800,-25930 232160,36680 624370,147400 724320,110690 -113240,-34160 -237230,-67050 -368800,-98670 -65780,-15820 -132840,-31630 -201790,-46190 -68330,-15180 -138550,-29720 -208120,-46180 -280250,-64540 -571240,-121470 -836300,-168900 -148020,-23410 -203680,-65160 -24030,-17710 42390,5070 -18360,-26560 31620,-17700 305550,42390 582630,99320 876780,165110 147410,30990 299850,60720 462440,92360 162560,31000 334000,64540 522530,93620 0,0 -4960,-710 0,0 453230,60680 2351860,292580 2536660,252520 -782460,-159600 -1650380,-223900 -2465410,-345990 -336610,-50420 -598290,-118640 -945500,-195030 -176500,-41740 -362480,-85400 -554150,-123980 -191670,-39230 -390310,-72750 -588320,-111970 6960,-8850 29110,-6330 31630,-18350 -132220,-28480 -603510,-142340 -309970,-94270 415620,79080 1997880,354580 2543810,425430 -8230,12020 -485980,-5380 -489140,10430 142340,36680 398750,25950 514510,42410 67680,23410 -326010,-18370 -355090,-15830 152460,74640 358670,42390 483300,46810 152470,3790 366280,51860 563650,80340 197380,27830 377030,43020 458000,-6960 95530,93620 189150,-2520 373860,44920 8850,39850 -123370,-5690 -137280,20240 -8230,33520 137900,-1270 51870,18980 214460,-16460 437750,8230 674350,40500 118300,15180 -1441990,-181650 -1316730,-170880 124610,10120 -174590,-53980 -42370,-58400 -138550,-30370 1790530,236260 1602030,212220 -188520,-24670 -385250,-49980 -558590,-84760 14540,-25940 132220,8220 188530,6330 -96790,-37330 -239750,-59480 -396650,-75910 -156880,-18350 -327680,-35430 -480140,-56930l-160050 -18980c-65780,-6330 -43640,-20250 1270,-12020l266330 32270c80970,-9500 270740,34160 402340,22140 60090,-620 35430,26560 77180,32270 114500,-2520 255570,10750 401680,27210 -61990,-41750 -234680,-45540 -371330,-61370 -6960,-51250 56300,10750 134730,1270 31620,-37960 -80970,-27210 -130940,-37330 122710,-20880 253660,31620 374500,24660 -212560,-72740 -550360,-60100 -798960,-84140 52520,19610 139800,33520 216350,42400 76540,8220 142970,10740 154360,12020 -41740,9500 -97420,12640 -160670,8850 -63240,-3790 -134730,-12650 -208120,-22770 -147400,-20870 -305560,-47450 -431440,-55040 30370,-24660 125260,-10120 215710,1280 -8230,-28480 -130320,-20880 -184710,-34790 113240,-16460 253660,-4440 408670,15180l242280 31620c83520,8860 170170,16460 256830,20250 -263160,-67680 -518090,-41740 -714200,-105010 -87930,-6330 165110,-5060 266330,20250 12020,-19600 -18350,-25310 -49970,-31000 60720,-1890 133480,2520 213810,10750 80970,7580 169540,15810 261890,27210 184710,20870 383360,46810 561110,58200 -171440,-74640 -533910,-82240 -819840,-118300 -349190,-37330 -161940,-40500 80980,-3790 -170800,-35440 -343510,-63270 -515580,-86660 -172060,-24660 -344130,-43640 -511760,-74640 82870,-41120 277080,3790 506700,25940 -45540,-32270 -152460,-44290 -261270,-56310 182820,4440 426380,36680 680690,72120 254930,32270 521880,62620 748360,72740 -278970,-34790 -528840,-101220 -739510,-86660 -24040,-56300 -146130,630 -74010,-58200l-507970 -32890c-89200,-5690 -179650,-11400 -270750,-18350 -90470,-8860 -181560,-17710 -272010,-27830 -180920,-19610 -358670,-43020 -524430,-70850 -165750,-27830 593080,60550 460860,18780 -134730,-32890 -710100,-118730 -699330,-116830 153090,24660 326420,43640 509860,66430 183440,22790 378300,46800 576300,72110 198620,20880 401060,43020 600330,66440l294160 34780 284040 31000c-77180,-36680 -272640,-29100 -394740,-53140 -20240,-15190 37330,-8850 111350,-620 73390,8220 163210,19600 206850,21510 -87300,-24030 -179020,-41740 -274550,-61360 -95540,-18980 -194840,-36060 -297950,-52520l-318820 -48700c-109430,-17090 -222040,-32900 -336550,-57560 1011930,102580 1262530,137390 29720,-20250 168900,-3160 320720,6330 482680,24670 161940,17080 334630,40490 546570,51240 -68320,-34160 -634040,-93140 -747280,-114640 -267560,-37690 790600,15550 1098650,75390 216360,16460 494400,87330 837260,112640 -8850,-28480 -661620,-186180 -715400,-197550 341610,21520 1529660,67640 1912370,106240 -329770,52510 -429000,106520 -534660,103980zm-3316080 278770c-28480,-27830 818710,40930 893350,35240 -67060,18360 -752910,-6780 -844000,-3590 -47460,-16460 17700,-10770 55030,-4440 -5710,-17710 -65160,-19620 -104380,-27210zm-1041980 1131810c24030,-24660 1058460,11220 1395610,77720 13910,10120 -160050,13910 -250520,1890 17080,-8850 -1096390,-66970 -1145090,-79610zm51220 -1185360c103760,-37950 1011000,135150 1116020,120610 -5710,53140 -1000260,-88980 -1116020,-120610zm933820 254720c93620,-19600 280250,20900 404240,21520 -29110,30350 -258730,-14560 -404240,-21520zm15773150 1239900c-29110,-29100 984200,-293840 1002560,-205910 -34880,13530 -218570,54410 -408410,94200 -131380,5940 -311610,50680 -495280,92730 -44980,4010 -80180,7860 -98870,18980zm-16376540 -2020290c57560,-11380 915860,103540 1013290,118730 -32890,26560 -917760,-105440 -1013290,-118730zm-3317440 -243150c178400,18970 256200,49970 417520,93610 -121470,30370 -249240,-56280 -417520,-93610zm1707370 -65790c-321990,-30370 -117030,-56930 0,0zm2689810 380820c82240,-15190 270120,31000 394110,37950 -82870,17710 -271390,-26560 -394110,-37950zm-2197650 1412590c39200,-8230 847880,44460 1096950,147310 -295490,-5020 -1060890,-122000 -1096950,-147310zm-998230 -1106410l0 0zm-399170 -91750c42370,6340 84140,14570 125880,23420 84140,18350 170800,41770 273290,68280 -77180,-4410 -167010,-2520 -8230,35440 -55660,34160 -215080,-54390 -339700,-88560 -175850,-50590 -530110,-132840 -180920,-56930 44920,4440 87930,10770 129680,18350zm-479490 43670c103110,-20880 312480,78450 482030,84130 -5060,54420 -297320,-58200 -482030,-84130zm17626640 -501640c31620,-31000 174580,-30370 249870,-49970 -30350,32260 -173970,32890 -249870,49970zm-13400280 1999010c110720,-16460 294160,10750 467500,31620 -129700,4440 -313790,-22770 -467500,-31620zm-1612700 -635600c105620,10940 906060,157420 926530,155570 -199620,42560 -1113480,-197570 -926530,-155570zm5190630 -857530c182620,-59000 521910,-70670 733200,-79530 10770,32250 -585450,72290 -733200,79530zm-3232530 463900l160050 19600c-13290,31000 -137280,-5690 -164480,17080 -38580,-9480 12660,-13910 4430,-36680zm-518740 35410c142970,-37950 433340,46180 80350,10750 -27210,-3170 -53790,-6960 -80350,-10750zm3184520 -553960c43660,-51870 631110,-32800 777250,-30280 -13300,68300 -686160,4350 -777250,30280zm-5202500 663370c36680,-4420 113240,6330 189150,21520 76530,13910 600440,71620 634600,86160 -41120,6330 -563130,-42520 -637140,-57060 -73370,-15170 -146760,-36690 -186610,-50620zm-139170 -139780c-64540,-31640 222040,24660 239740,46810 -51220,22770 -134730,-43640 -239740,-46810z"/>
 </g>
</svg>
