<?xml version="1.0" encoding="UTF-8"?><!-- Generator: Adobe Illustrator 23.0.2, SVG Export Plug-In . SVG Version: 6.00 Build 0)  -->
<svg
    id="svg"
    xmlns="http://www.w3.org/2000/svg"
    version="1.1"
    viewBox="0 0 182 128"
    x="0px"
    xml:space="preserve"
    y="0px"
  >
    <g transform="translate(2,42)">
      <path
        xmlns="http://www.w3.org/2000/svg"
        id="path1422"
        d="M 0,0 C -0.037,0.08 -0.047,0.127 -0.058,0.176 0.113,-0.029 0.288,-0.23 0.478,-0.42 0.314,-0.301 0.149,-0.173 0,0 m 63.778,67.382 c -0.012,-0.022 -0.043,-0.052 -0.054,-0.076 0.03,0.098 0.071,0.194 0.17,0.292 0.604,0.276 0.842,0.268 0.955,0.216 -0.291,-0.111 -0.634,-0.234 -1.071,-0.432 M 179.439,14.001 c -0.626,2.083 -1.285,4.093 -2.19,6.11 -0.903,2.02 -2.073,4.002 -3.618,5.887 0.373,-1.903 -0.906,1.094 -1.436,0.259 -0.746,0.802 -1.036,1.108 -1.06,1.232 l 0.124,-0.195 c -0.053,0.086 -0.083,0.135 -0.128,0.208 L 171.128,27.5 c -0.617,0.953 -1.277,1.883 -1.973,2.795 -0.4,0.752 0.915,-0.591 0.979,-0.382 -1.742,1.767 -0.474,1.01 -1.537,2.303 0.033,-0.469 -0.951,0.23 -1.973,1.221 0.423,-0.539 0.854,-1.059 1.251,-1.608 -1.458,0.948 -1.929,1.536 -2.406,2.153 -0.485,0.602 -0.98,1.232 -2.58,2.005 0.368,-0.116 0.721,-0.255 1.085,-0.385 -0.785,0.457 -2.192,1.366 -3.692,2.118 -1.505,0.759 -3.097,1.313 -4.036,1.304 -0.247,0.222 -0.538,0.613 0.213,0.369 -1.953,0.891 -4.212,1.472 -6.281,2.083 -2.069,0.606 -3.975,1.275 -5.236,2.17 l 0.369,0.071 c -0.674,0.266 -1.334,0.197 -1.999,0.857 0.087,0.056 0.362,0.047 0.083,0.225 -0.383,0.099 -1.818,0.698 -2.433,1.366 l 0.768,-0.268 c -1.298,1.18 -2.3,2.081 -3.233,3.047 -0.906,0.973 -1.789,1.976 -2.432,3.44 0.301,0.113 0.27,0.882 0.155,1.777 -0.096,0.906 -0.213,1.967 -0.246,2.675 l 0.097,-0.037 c -0.201,2.073 -0.23,3.843 -0.054,5.579 0.052,0.432 0.085,0.871 0.186,1.293 0.094,0.469 0.189,0.941 0.284,1.418 0.102,0.546 0.245,1.079 0.315,1.648 0.047,0.571 0.095,1.155 0.145,1.758 0.164,0.741 0.373,1.787 0.19,3.005 -0.102,1.221 -0.565,2.569 -1.221,3.86 -1.363,2.603 -3.778,4.589 -5.765,5.943 0.577,-0.478 -0.362,-0.368 -1.119,-0.039 -0.471,0.282 -1.201,0.522 -1.774,0.679 -0.578,0.148 -0.986,0.296 -0.807,0.554 l 0.365,-0.142 c -0.565,0.894 -2.862,1.346 -4.619,1.601 l -0.386,-0.758 c -1.117,0.403 -2.363,0.629 -3.762,0.619 -1.393,-0.003 -2.968,-0.232 -4.44,-0.975 -0.733,-0.366 -1.408,-0.908 -1.932,-1.513 -0.547,-0.603 -0.873,-1.289 -1.149,-1.906 -0.258,-0.606 -0.453,-1.474 -0.391,-2.149 0.036,-0.693 0.267,-1.33 0.314,-1.683 0.413,-0.532 0.731,-0.916 1.076,-1.396 0.34,-0.458 0.658,-0.894 0.96,-1.253 l -0.397,-0.158 c 0.547,-1.132 0.698,-1.829 0.703,-2.58 -0.017,-0.744 -0.167,-1.676 -0.82,-2.709 0.004,0.203 0.045,0.376 0.01,0.572 -0.337,-0.542 -0.389,-1.055 -0.53,-1.62 -0.146,-0.547 -0.362,-1.146 -1.084,-1.572 -0.252,0.101 -0.494,0.208 -0.727,0.317 -2.739,-1.364 -6.207,-1.302 -9.312,-1.882 0.054,0.093 0.148,0.274 0.651,0.302 -0.752,-0.015 -2.114,0.144 -3.099,0.425 -0.995,0.254 -1.823,0.581 -1.785,0.068 0.099,0.27 -0.583,0.593 -1.534,1.082 -0.489,0.242 -1.029,0.509 -1.548,0.766 -0.553,0.263 -1.094,0.532 -1.546,0.72 l 0.479,0.202 c -1.705,0.376 -1.793,0.307 -3.929,1.137 -0.404,0.228 -0.339,0.426 0.07,0.242 -0.614,0.331 -0.971,0.371 -1.331,0.42 -0.416,0.042 -0.86,0.118 -1.895,0.513 0.287,0.009 0.582,0.033 0.871,0.028 -1.815,0.554 -1.726,0.343 -2.788,0.233 -1.17,0.077 -3.492,0.43 -3.791,0.78 -0.259,-0.23 -1.259,-0.562 -2.348,-0.567 -0.162,0.129 0.226,0.252 0.423,0.313 -1.584,10e-4 -2.683,-0.34 -3.655,-0.61 -0.976,-0.288 -1.828,-0.55 -2.895,-0.58 -0.073,0.124 -0.223,0.167 -0.402,0.165 2.371,0.545 4.303,0.809 4.127,0.755 -0.06,0.388 -2.017,0.109 -0.563,0.905 -1.529,-0.552 -4.031,-1.727 -5.922,-2.08 -0.1,0.011 -0.197,0.022 -0.281,0.06 l 0.18,0.095 c -0.44,-0.08 -0.815,-0.222 -1.155,-0.4 -0.605,-0.127 -1,-0.182 -1.561,-0.379 -0.323,0.239 -2.22,-0.593 -3.14,-0.979 0.234,-0.359 -0.98,-0.801 0.268,-0.648 -0.153,-0.04 0.148,0.132 0.754,0.378 0.134,0.065 0.294,0.134 0.376,0.192 -0.014,-0.017 -0.031,-0.037 -0.049,-0.059 0.595,0.253 1.389,0.538 2.292,0.855 -0.668,-0.46 -1.368,-0.879 -2.46,-1.061 -0.375,-0.426 -0.771,-0.907 -1.003,-1.146 -1.457,0.052 -3.93,-0.851 -4.419,-0.727 -1.284,-0.824 -2.779,-1.809 -4.066,-2.831 -1.278,-1.035 -2.347,-2.093 -2.802,-3.014 -0.586,-0.619 -0.892,-0.461 -1.21,-0.583 0.304,0.396 0.77,0.759 0.901,1.02 -1.211,-1.239 -3.649,-3.49 -3.524,-4.168 -1.651,-1.335 0.458,1.208 -1.495,-0.935 l 0.151,0.399 c -2.301,-1.75 -3.586,-3.622 -5.111,-5.405 -1.5,-1.756 -3.329,-3.551 -6.332,-4.291 0.407,0.112 0.611,0.171 0.73,0.124 -6.419,-2.477 -13.983,-3.853 -21.066,-3.43 -2.037,0.033 -2.177,-0.28 -3.475,-0.7 L 9.88,41.268 C 9.145,40.949 8.462,40.551 7.854,40.093 6.505,39.282 5.294,38.69 4.068,37.848 3.462,37.429 2.868,36.95 2.314,36.358 1.73,35.722 1.211,34.903 0.918,33.895 l 0.51,0.327 C 1.047,33.605 0.642,32.529 0.429,31.634 0.209,30.74 0.101,30.042 -0.06,30.184 c 0.04,-0.157 0.243,-0.5 0.045,-1.032 l -0.239,-0.024 c 0.04,-1.175 0.208,-2.312 0.42,-3.423 0.018,-2.579 -0.95,0.303 -0.747,-3.394 0.199,-1.349 0.751,-3.845 0.91,-3.35 0.031,0.55 0.158,1.413 0.394,1.46 C 0.771,19.999 0.811,19.575 0.842,19.15 0.884,19.136 0.926,19.118 0.969,19.098 0.967,19.029 0.97,18.961 0.968,18.893 0.896,16.589 0.445,14.513 -0.336,12.35 -1.089,10.265 -1.963,8.15 -2.003,5.9 -2.013,5.305 -1.961,4.748 -1.878,4.212 -1.926,4.256 -1.974,4.292 -2.022,4.337 -1.95,4.191 -1.882,4.047 -1.812,3.905 -1.686,3.244 -1.5,2.622 -1.242,2.05 -1.345,2.069 -1.481,2.21 -1.658,2.566 -1.6,2.2 -1.525,1.94 -1.448,1.745 -1.349,1.56 -1.241,1.439 -1.146,1.322 -0.93,1.102 -0.828,0.857 -0.555,0.276 -0.51,0.135 -0.573,0.165 -0.675,0.252 -0.314,-0.082 0.006,-0.441 0.416,-0.7 0.126,-0.592 0.269,-1.199 -0.292,-0.482 0.487,-1.58 1.459,-2.139 2.233,-2.47 3.015,-2.819 3.619,-2.986 3.978,-3.391 l -0.214,0.052 c 1.706,-0.579 1.834,-0.416 1.849,-0.284 0.01,0.082 10e-4,0.169 0.146,0.23 0.518,-0.154 1.048,-0.283 1.583,-0.391 0.336,-0.324 0.684,-0.637 1.05,-0.968 l 0.405,0.415 c 0.357,-0.055 1.066,-0.163 0.921,-0.332 1.368,0.24 -0.213,0.203 0.582,0.462 0.847,-0.251 2.054,-0.217 3.07,-0.091 1.022,0.094 1.861,0.222 2.117,-0.107 0.552,0.446 -1.67,-0.01 0.104,0.535 0.664,-0.688 2.061,0.524 3.654,0.571 -0.366,-0.514 -1.881,-0.656 -0.253,-0.634 0.757,0.889 3.009,0.648 4.243,1.139 -0.085,0.536 2.689,1.022 4.782,1.678 -0.048,-0.108 0.977,0.059 2.256,0.197 1.273,0.144 2.795,0.132 3.709,-0.079 l -0.064,-0.086 c 0.202,0.254 0.808,0.312 1.509,0.166 0.705,-0.138 1.461,-0.515 2.042,-0.916 -0.255,-0.23 -0.506,-0.148 -1.182,0.045 0.359,-0.174 0.678,-0.406 0.974,-0.66 0.32,-0.054 0.683,-0.248 1.191,-0.912 -0.175,0.019 -0.349,0.027 -0.516,0.031 0.9,-1.239 1.815,-3.029 1.516,-5.42 0.256,-0.113 0.653,0.823 0.959,0.638 0.002,-0.079 0.009,-0.159 0.01,-0.237 0.004,-0.369 -0.003,-0.74 -0.015,-1.111 -0.129,0.049 -0.241,0.196 -0.276,0.548 0.023,-0.222 0.153,-0.804 0.042,-1.254 l -0.313,1.054 c -0.187,-1.11 0.276,-0.595 0.202,-1.495 -0.295,0.034 -0.248,-0.659 -0.476,-0.516 -0.016,0.233 0.165,0.782 0.064,1.129 -0.1,-1.003 -0.35,-2.238 -0.584,-2.656 0.175,0.085 0.391,-0.012 0.419,-0.781 0.05,-2.007 -0.363,-0.688 -0.447,-1.905 0.223,-0.482 0.258,-1.862 0.715,-1.796 0.148,-0.592 -0.021,-0.76 -0.05,-1.032 0.238,-0.518 0.81,-1.723 1.441,-2.495 0.616,-0.784 1.139,-1.201 0.925,-0.608 l -0.145,0.23 c 0.036,-0.036 0.078,-0.078 0.122,-0.123 1.254,-1.175 2.528,-2.307 3.546,-3.622 0.506,-0.656 0.958,-1.328 1.239,-2.02 0.288,-0.692 0.414,-1.391 0.464,-2.15 l -0.148,0.003 c 0.101,-0.889 -0.026,-1.968 -0.034,-3.013 -0.001,-1.081 0.167,-2.101 0.537,-2.759 0.096,-0.286 0.108,-0.659 0.14,-0.924 0.028,-0.264 -0.005,-0.449 -0.145,-0.362 0.385,-0.747 0.762,-1.051 1.09,-1.486 0.397,-0.382 0.785,-0.885 1.73,-1.633 -0.765,0.354 -0.676,0.255 -0.635,0.187 0.023,-0.029 0.033,-0.038 -0.077,0.05 -0.076,0.074 -0.243,0.173 -0.485,0.401 0.612,-0.632 1.121,-1.004 1.656,-1.307 0.621,-0.331 1.348,-0.556 2.521,-0.575 -0.421,-0.11 -0.046,-0.324 0.607,-0.429 0.324,-0.075 0.711,-0.097 1.081,-0.076 0.371,0.008 0.725,0.033 0.98,0.113 -0.52,-0.004 -1.043,0.126 -1.543,0.19 1.154,0.062 2.16,0.125 3.146,0.412 -0.13,-0.209 -0.27,-0.42 -0.417,-0.632 0.577,0.072 1.142,0.186 1.655,0.406 0.531,0.178 0.996,0.466 1.443,0.752 0.451,0.259 0.856,0.707 1.242,1.058 0.356,0.395 0.638,0.829 0.924,1.231 0.997,1.7 1.38,3.277 2.376,4.58 0.028,1.13 -0.978,-2.019 -1.039,-0.962 0.718,1.744 1.927,3.329 2.128,3.8 0.53,1.054 0.579,1.555 0.654,2.109 0.022,0.292 0.09,0.541 0.222,0.859 0.114,0.337 0.387,0.628 0.779,0.995 -0.157,-0.027 -0.363,-0.024 -0.406,0.174 -0.021,0.102 0,0.251 0.137,0.429 0.142,0.167 0.324,0.474 0.724,0.706 0.782,0.393 1.368,0.283 1.569,0.14 0.204,-0.148 0.087,-0.396 -0.347,-0.574 -0.34,-0.101 -0.484,-0.173 -0.505,-0.096 -0.43,-0.236 -0.849,-0.653 -0.297,-0.507 l 0.077,0.23 c 0.185,0.028 0.412,0.126 0.677,0.197 0.277,0.043 0.575,0.09 0.836,0.131 0.547,0.048 0.971,-0.017 0.731,-0.176 0.96,0.174 0.668,0.297 0.041,0.334 1.777,-0.051 3.02,-0.144 5.358,-0.434 -0.409,0.116 -0.752,0.358 -0.358,0.326 1.857,-0.215 2.353,-0.008 2.582,0.126 0.248,0.157 0.351,0.29 1.57,0.573 0.723,0.025 0.641,-0.153 0.674,-0.25 0.029,-0.089 0.204,-0.117 1.387,0.38 1.525,0.346 0.485,-0.347 -0.089,-0.678 2.152,1.048 4.141,1.466 5.333,2.031 l -1.007,-0.69 c 0.61,0.407 1.133,0.683 1.652,0.973 l -0.769,-0.016 c 0.647,0.28 1.158,0.57 1.22,0.435 0.516,0.571 -0.792,0.211 0.328,1.255 0.954,0.374 2.2,1.859 2.72,1.666 -1.164,-0.816 -1.053,-0.871 -0.846,-0.901 0.167,-0.029 0.409,-0.048 -0.203,-0.581 0.318,0.262 0.669,0.531 1.096,0.807 0.111,0.02 -0.01,-0.133 -0.145,-0.273 1.204,0.684 1.313,0.92 1.453,1.253 0.126,0.294 0.243,0.75 1.29,1.277 -0.133,-0.356 0.676,-0.22 0.961,-0.097 -0.389,-0.119 -0.528,-0.081 -0.482,0.092 0.044,0.17 0.29,0.436 0.674,0.635 0.365,0.036 0.641,0.04 0.865,0.072 0.242,0.019 0.442,0.047 0.61,0.086 0.343,0.057 0.597,0.152 1.027,0.103 -0.326,0.066 -0.653,0.09 -0.983,0.13 0.333,0.259 1.183,0.242 2.372,0.119 0.064,-0.206 -1.084,0.009 -0.68,-0.137 0.678,0.16 1.409,-0.109 2.146,-0.456 0.743,-0.35 1.494,-0.781 2.39,-1.006 0.69,-0.522 -0.128,-0.485 0.471,-0.911 0.968,-0.292 1.39,-0.67 1.795,-1.048 0.412,-0.381 0.78,-0.779 1.721,-1.345 -0.268,0.652 -0.409,0.693 1.011,-0.036 -0.991,0.727 -1.971,1.393 -3.004,1.913 0.728,-0.246 1.441,-0.516 2.16,-0.88 -0.859,0.704 -1.983,1.135 -2.513,1.502 1.086,-0.299 0.95,-0.336 0.655,0.196 0.511,-0.614 1.144,-0.956 1.824,-1.359 0.681,-0.395 1.392,-0.831 1.94,-1.553 l -0.627,-0.628 c 1.716,-2.018 3.683,-2.979 6.411,-5.453 -0.282,0.284 -0.563,0.566 -0.822,0.862 0.578,-0.054 1.789,-1.388 2.907,-1.901 -0.251,-0.187 0.335,-0.69 0.725,-1.1 0.027,0.119 0.644,-0.23 1.361,-0.49 0.363,-0.121 0.742,-0.235 1.061,-0.29 0.323,-0.039 0.589,-0.008 0.713,0.108 l 0.767,-0.423 0.805,-0.349 c 1.534,-0.343 2.448,-0.131 3.255,0.068 0.826,0.212 1.615,0.447 3.007,0.502 -0.821,-0.376 0.483,-0.521 -1.409,-0.85 0.95,0.035 1.813,0.063 1.808,0.266 0.585,-0.146 2.559,0.711 3.463,0.657 0.367,0.214 0.422,0.537 1.449,0.809 0.086,-0.015 0.073,-0.071 0.056,-0.109 0.161,0.173 1.431,0.697 0.517,0.693 1.494,0.053 3.514,0.909 4.916,2.633 1.362,1.746 1.671,3.752 2.349,4.86 0.315,2.007 0.675,4.279 1.578,5.573 0.02,-0.135 0.115,-0.082 -0.062,-0.313 0.678,0.798 0.764,1.065 0.923,1.47 0.164,0.357 0.422,0.863 1.77,1.084 0.728,-0.07 0.383,-0.213 0,-0.344 -0.387,-0.132 -0.8,-0.285 -0.4,-0.236 0.317,-0.397 0.961,-0.169 1.951,0.071 0.986,0.248 2.175,0.536 3.14,0.354 l -0.444,-0.108 c 1.45,-0.16 3.457,0.706 5.853,0.843 0,0 -0.109,-0.096 -10e-4,-0.148 1.587,0.659 4.668,1.04 6.937,1.792 -0.616,-0.547 -1.004,-0.457 -0.47,-0.725 0.523,0.159 0.406,0.29 0.417,0.46 0.012,0.172 0.157,0.36 1.13,0.743 0.361,-0.003 0.9,0.131 1.413,0.198 0.497,0.103 0.963,0.163 1.154,0.026 -0.614,-0.321 -1.241,-0.611 -1.886,-0.86 1.216,-0.142 2.469,1.122 3.402,1.643 l 0.01,-0.274 c 1.338,0.914 1.82,1.604 2.336,2.256 0.49,0.681 1.011,1.346 2.076,2.594 l -0.356,-0.144 c 0.663,1.737 1.209,0.958 1.884,2.654 l 0.794,0.107 c 0.271,0.522 0.711,1.468 1.168,2.546 0.229,0.535 0.419,1.119 0.638,1.669 0.187,0.563 0.371,1.114 0.538,1.616 -0.032,-0.623 -0.196,-1.563 -0.532,-2.486 -0.285,-0.947 -0.751,-1.875 -1.039,-2.608 0.307,0.498 0.855,1.376 1.236,2.247 0.405,0.862 0.665,1.708 0.642,2.052 -0.13,-0.464 -0.228,-1.092 -0.538,-1.471 0.218,1.525 0.741,3.332 1.192,5.613 0.513,-0.324 0.931,1.193 1.041,3.035 0.013,0.459 0.047,0.937 0.041,1.407 -0.015,0.47 -0.023,0.934 -0.019,1.372 -0.058,0.865 -0.021,1.631 0.085,2.105"
        stroke="none"
        fill="#ff9d43"
        fill-rule="evenodd"
      />
    </g>
  </svg>