<?xml version="1.0" encoding="UTF-8"?><!-- Generator: Adobe Illustrator 23.0.2, SVG Export Plug-In . SVG Version: 6.00 Build 0)  -->
<svg
    id="svg"
    xmlns="http://www.w3.org/2000/svg"
    version="1.1"
    viewBox="0 0 82 57"
    x="0px"
    xml:space="preserve"
    y="0px"
  >
    <g transform="translate(27,13)">
      <path
        xmlns="http://www.w3.org/2000/svg"
        id="path5866"
        d="M 0,0 C -0.019,0.092 0.07,0.129 0.219,0.047 0.115,0.048 0.442,-0.175 0.586,-0.371 0.438,-0.25 0.235,-0.115 0,0 M -0.877,0.344 C -1.041,0.397 -1.188,0.43 -1.28,0.455 -1.197,0.431 -1.075,0.409 -0.876,0.348 Z M -17.882,21.53 c 0.097,0.131 0.167,0.258 0.227,0.382 0.004,-0.002 0.008,-0.003 0.011,-0.005 -0.015,-0.044 -0.076,-0.172 -0.192,-0.407 z m 0.247,0.399 -10e-4,0.001 c 10e-4,-0.001 -0.003,0 -0.002,0 0.001,0 0.003,0.003 0.003,-0.001 m 2.243,4.826 c 0.13,0.033 0.238,0.009 0.24,-0.075 -0.238,-0.155 -0.458,-0.335 -0.668,-0.534 0.127,0.208 0.26,0.42 0.428,0.609 m 4.567,1.536 0.285,-0.118 c -0.241,-0.056 -0.48,-0.11 -0.714,-0.162 0.043,0.062 0.157,0.148 0.429,0.28 m 7.806,12.178 c 0.054,-0.005 0.122,-0.022 0.165,-0.069 -0.096,-0.169 -0.183,-0.345 -0.257,-0.534 -0.056,0.069 -0.062,0.23 0.092,0.603 m 56.27,-17.09 c 0.054,0.641 0.187,1.265 0.356,1.919 0.164,0.718 0.352,1.431 0.42,2.174 0.175,1.469 0.064,3.001 -0.451,4.341 0.11,-0.145 0.171,-0.134 0.236,-0.409 0.075,0.66 -0.721,2.143 -0.88,2.063 -0.172,0.408 0.077,0.15 0.026,0.433 -0.191,0.597 -0.944,1.205 -0.999,1.546 -0.008,0.061 0.147,-0.103 0.225,-0.185 -0.152,0.135 -0.417,0.508 -0.639,0.793 -0.232,0.276 -0.432,0.449 -0.386,0.245 -0.305,0.432 -0.657,0.796 -1.02,1.1 -0.347,0.326 -0.696,0.6 -0.98,0.909 -0.541,0.185 -1.36,1.159 -1.686,0.979 0.125,0.122 -0.223,0.42 -0.685,0.713 -0.471,0.275 -1.059,0.527 -1.385,0.599 0.244,0 -0.468,0.333 -0.175,0.354 -0.677,0.322 -1.347,0.512 -1.289,0.3 -1.16,0.9 -2.699,0.533 -3.34,1.179 -2.218,0.251 -4.344,0.18 -6.297,-0.49 -0.02,0.191 0.54,0.333 1.08,0.459 0.541,0.086 1.064,0.165 1.007,0.328 -0.978,-0.172 -1.734,-0.414 -2.442,-0.77 -0.713,-0.327 -1.386,-0.737 -2.176,-1.343 -0.41,-0.326 0.107,0.33 0.242,0.458 -0.213,-0.147 -0.374,-0.357 -0.563,-0.527 -0.186,-0.173 -0.36,-0.354 -0.506,-0.558 -0.152,-0.201 -0.31,-0.377 -0.455,-0.595 -0.145,-0.23 -0.272,-0.464 -0.365,-0.702 -0.385,-0.953 -0.441,-1.849 -0.439,-2.651 -0.032,0.007 -0.048,0.182 -0.055,0.353 -0.026,-0.326 -0.125,-0.727 0.03,-0.708 l -0.01,0.308 c 0.278,0.471 0.334,-1.28 0.413,-1.349 -0.173,0.297 -0.255,-0.085 -0.382,-0.387 -0.12,-0.318 -0.283,-0.517 -0.42,-0.106 -0.029,-0.163 -0.032,-0.391 0.072,-0.394 -0.141,-0.214 -0.22,-0.243 -0.222,0.02 -0.149,-0.388 -0.2,-0.52 -0.249,-0.645 -0.058,-0.134 -0.068,-0.237 -0.436,-0.425 -0.026,0.066 0.105,0.166 0.112,0.279 -0.214,-0.307 -0.653,-0.633 -1.46,-0.684 0.041,0.051 -0.058,0.096 0.177,0.129 -1.332,-0.206 -2.426,-0.563 -3.852,0.094 0.532,0.139 -0.44,0.295 -0.379,0.595 -0.247,0.09 -0.486,0.208 -0.73,0.321 0.064,-0.099 0.137,-0.186 0.207,-0.281 -0.605,0.363 -1.246,0.611 -1.656,1.121 0.163,-0.094 0.319,-0.197 0.487,-0.277 -0.361,0.28 -0.709,0.588 -1.051,0.91 0.164,-0.21 0.322,-0.431 0.495,-0.63 -0.652,0.418 -0.189,-0.32 -0.855,0.449 0.163,-0.13 -0.526,0.557 -0.668,0.968 l 0.002,-10e-4 c -0.321,0.219 -0.65,0.453 -0.982,0.922 -0.033,0.17 0.311,0.119 0.29,0.231 -0.414,0.125 -1.293,1.305 -1.841,1.438 0.158,-0.066 0.265,0.035 0.246,0.093 l -0.366,0.079 c -0.234,0.286 -0.265,0.339 -0.141,0.392 -0.851,0.726 0.07,-0.478 -0.89,0.43 0.093,-0.048 0.069,0.005 0.261,-0.098 -1.039,0.852 -2.226,1.208 -3.272,1.772 -0.209,0.407 0.983,-0.364 0.712,0.016 -1.608,0.694 -3.442,1.019 -5.031,1.488 L 8.533,42.357 C 8.216,42.03 7.384,42.861 6.509,42.822 6.716,42.813 6.816,42.989 6.753,42.956 5.637,43.227 4.41,43.261 2.674,43.135 l 0.215,0.101 C 2.207,43.333 1.083,43.21 0.334,43.079 0.137,42.925 -0.278,42.823 0.012,42.75 c -1.179,-0.013 -2.297,-0.691 -2.896,-1.663 -0.625,-0.97 -0.762,-2.018 -1.01,-3.042 0.006,0.249 -0.069,0.605 -0.077,0.404 -0.009,-0.607 0.069,-1.195 0.18,-1.766 0.142,0.157 0.069,0.242 0.173,0.614 0.107,-0.211 0.254,-0.665 0.341,-1.069 -0.251,0.72 -0.274,-0.054 -0.304,-0.412 0.039,0.068 0.123,-0.032 0.169,0.009 -0.046,-0.955 0.352,-0.057 0.554,-1.247 l -0.108,0.027 c 0.197,-0.399 0.46,-0.739 0.549,-1.209 -0.144,-0.232 -0.208,0.423 -0.382,0.399 0.106,-0.305 0.275,-0.58 0.371,-0.882 0.098,-0.297 0.108,-0.634 -0.074,-0.882 0.032,0.271 0.06,0.649 -0.031,0.907 -0.194,-0.589 -0.188,-0.625 -0.341,-0.974 -0.018,-0.028 -0.041,-0.054 -0.06,-0.082 -0.082,-0.114 -0.168,-0.227 -0.275,-0.33 0.064,0.056 0.106,0.107 0.15,0.157 -0.127,-0.162 -0.266,-0.318 -0.431,-0.449 l 0.216,0.139 c -0.038,-0.447 -0.356,-0.753 -0.725,-0.993 -0.385,-0.236 -0.825,-0.425 -1.293,-0.781 0.888,0.703 0.095,0.238 0.094,0.48 -0.28,-0.046 -0.698,-0.112 -0.606,-0.014 -0.434,-0.332 -0.852,-0.113 -1.508,-0.55 -0.047,0.062 -0.553,-0.127 -0.479,0.08 -0.663,-0.215 0.188,-0.086 0.153,-0.189 -0.487,-0.244 -1.134,-0.31 -1.828,-0.439 -0.664,-0.122 -1.395,-0.227 -2.115,-0.566 -1.157,-0.406 -1.443,-0.671 -2.317,-1.131 -0.12,-0.045 -0.237,-0.091 -0.352,-0.14 -0.232,0.019 0.298,0.383 0.307,0.372 -0.681,-0.146 -1.184,-0.402 -1.66,-0.881 0.073,0.127 -0.078,0.101 -0.291,0.025 -0.398,-0.399 -0.102,-0.422 -0.637,-0.899 0.013,0.143 0.014,0.349 0.135,0.616 -0.416,-0.549 -0.635,-1.178 -0.839,-1.796 -0.195,-0.11 -0.004,0.437 0.031,0.696 -0.343,-0.687 -0.613,-1.889 -0.414,-2.144 0.048,0.147 0.097,0.297 0.158,0.444 -0.048,-0.261 -0.202,-0.103 -0.189,0.11 0.044,0.672 0.368,0.844 0.443,0.848 l -0.111,-0.446 c 0.27,0.154 0.415,0.561 0.603,1.038 0.202,0.462 0.464,1.014 0.844,1.306 -0.023,-0.135 -0.037,-0.265 -0.051,-0.393 -0.548,-0.554 -0.99,-1.287 -1.297,-2.296 -0.211,-0.693 -0.149,-1.231 -0.428,-1.824 -0.033,0.007 -0.126,0.03 -0.092,0.025 l -0.003,-0.005 c 0.027,-0.012 0.055,-0.025 0.085,-0.04 -0.041,-0.059 -0.134,-0.218 -0.227,-0.382 l -0.085,0.056 c -0.001,-10e-4 -0.002,-0.003 -0.002,-0.004 l 0.085,-0.056 c -10e-4,-0.002 -0.002,-0.003 -0.003,-0.005 0.001,10e-4 0.002,0.003 0.003,0.005 l 0.046,-0.029 c -0.088,-0.178 -0.2,-0.401 -0.366,-0.723 -0.015,-0.026 -0.034,-0.048 -0.05,-0.074 -0.074,0.096 -0.143,0.204 -0.236,0.267 0.045,0.041 0.092,0.102 0.137,0.212 l -0.11,0.332 -0.181,-0.498 c -0.172,0.009 -0.369,-0.121 -0.789,-0.402 -0.122,-0.236 -0.29,-0.466 -0.494,-0.682 l -0.321,-0.007 c 0.194,0.134 0.401,0.256 0.562,0.41 -0.387,-0.117 -0.52,-0.355 -0.743,-0.585 -0.107,0.046 -0.238,0.041 -0.413,-0.005 -0.218,-0.224 -0.453,-0.451 -0.706,-0.671 -0.156,0.084 0.286,0.41 -0.324,0.242 -0.362,-0.31 0.517,-0.125 -0.141,-0.495 -0.498,-0.028 -0.422,0.145 -0.896,-0.201 -0.112,0.046 -0.018,0.158 0.176,0.277 -0.427,-0.29 -1.265,-0.618 -1.407,-0.963 -0.286,-0.058 -0.684,-0.363 -0.971,-0.678 -0.308,-0.296 -0.49,-0.603 -0.618,-0.486 -0.082,-0.203 -0.284,-1.111 -0.333,-1.588 -0.073,0.499 -0.232,0.048 -0.313,-0.543 -0.097,-0.59 -0.008,-1.302 -0.232,-1.195 0.096,-0.187 0.197,-0.442 0.329,-0.738 0.1,-0.304 0.278,-0.619 0.455,-0.953 0.393,-0.635 0.945,-1.247 1.506,-1.527 -0.071,0.021 -0.214,0.064 -0.287,0.148 0.519,-0.481 0.649,-0.642 0.999,-0.947 0.112,0.107 0.412,0.055 0.749,-0.029 0.345,-0.057 0.728,-0.161 1.016,-0.145 0.682,-0.506 -0.574,-0.187 -0.427,-0.512 0.042,0.214 1.445,-0.177 1.223,0.103 0.562,-0.311 0.498,-0.189 0.776,-0.483 0.158,0.339 0.587,-0.02 1.116,0.174 0.867,-0.188 0.28,-0.361 1.175,-0.231 0.425,-0.103 -0.362,-0.252 -0.362,-0.252 0.904,0.016 0.417,0.28 0.608,0.444 1.067,0.081 0.495,-0.202 0.842,-0.349 0.626,0.053 1.108,0.246 1.53,0.119 0.019,-0.051 0.09,-0.095 -0.016,-0.118 0.654,0.089 1.644,-0.78 2.44,-1.115 0.033,-0.057 0.041,-0.094 0.04,-0.12 -0.015,0.191 0.057,0.314 0.142,0.374 0.322,-0.249 0.688,-0.355 0.688,-0.597 -0.187,0.175 -0.249,0.132 -0.374,0.166 l 0.375,-0.227 c 0.121,-0.456 -0.507,0.333 -0.623,0.171 0.335,-0.21 0.688,-0.514 1.22,-0.749 0.535,-0.214 0.999,-0.188 1.336,-0.247 0.069,-0.129 -0.338,-0.143 -0.69,-0.093 -0.349,0.06 -0.626,0.14 -0.093,-0.13 -0.425,0.109 -0.885,0.405 -1.14,0.68 0.245,-0.446 0.112,-0.332 -0.053,-0.201 -0.144,0.122 -0.299,0.254 -0.109,-0.184 0.326,-0.297 0.779,-0.507 1.092,-0.569 0.32,-0.074 0.56,-0.081 0.778,-0.08 0.411,0.01 0.896,0.008 1.677,0.144 0.283,0.211 -0.14,0.181 0.125,0.39 0.239,0.09 0.285,0.112 0.387,0.107 C -8.07,5.855 -8.002,5.817 -7.96,5.767 -7.868,5.664 -7.804,5.515 -7.761,5.376 -7.645,5.061 -7.67,4.937 -7.39,4.698 -7.161,4.545 -6.843,4.563 -6.927,3.456 L -7.25,3.811 C -7.213,3.065 -6.979,2.774 -6.811,2.596 -6.602,2.416 -6.55,2.17 -5.913,1.516 -6.074,1.563 -6.362,1.785 -6.523,2.004 -6.703,2.215 -6.775,2.391 -6.734,2.266 -6.521,1.692 -6.271,1.553 -6.101,1.495 -5.914,1.436 -5.75,1.414 -5.372,1.233 -5.356,1.132 -5.334,1.024 -5.31,0.927 -4.458,0.622 -3.692,0.651 -2.987,0.605 -2.302,0.57 -1.567,0.477 -0.9,0.282 -0.999,0.235 -1.241,0.232 -0.964,0.057 c 0.829,-0.203 1.613,-0.651 1.998,-1.295 0.42,-0.684 0.362,-1.297 0.171,-2.196 l 0.138,-0.73 C 1.322,-4.334 1.214,-4.482 1.188,-4.284 1.047,-5.076 1.321,-4.333 1.384,-4.72 1.383,-5.176 1.261,-5.354 1.184,-5.04 1.208,-5.229 1.243,-5.445 1.302,-5.681 1.359,-5.928 1.453,-6.169 1.547,-6.372 1.722,-6.812 1.971,-7.257 2.24,-7.679 2.776,-8.53 3.445,-9.258 3.913,-9.818 L 3.66,-9.675 c 0.805,-0.825 1.237,-0.463 1.981,-1.165 l -0.187,0.069 c 2.012,-1.355 4.671,-1.757 6.607,-1.76 0.159,0.176 0.763,0.249 1.324,0.413 0.561,0.157 1.058,0.385 1.039,0.612 1.293,0.373 1.008,0.165 2.661,0.893 0.421,0.202 0.485,0.574 0.983,0.867 l 0.113,-0.202 0.603,0.532 0.478,-0.116 c 0.153,0.083 0.309,0.158 0.468,0.222 -0.201,-0.04 -0.45,-0.039 -0.443,0.034 0.745,0.39 1.978,0.364 1.995,0.225 0.601,0.163 1.195,0.248 1.803,0.231 -0.053,-0.084 -0.354,-0.083 -0.588,-0.134 0.963,0.149 0.14,-0.225 1.019,-0.156 -0.105,0.078 0.09,0.12 0.122,0.161 0.402,-0.218 1.378,-0.571 2.164,-0.874 l -0.209,-0.081 c 1.385,-0.687 3.134,-1.234 4.902,-1.608 -0.621,0.218 -0.405,0.451 0.108,0.362 l 0.156,-0.285 c 0.364,0.085 -0.52,0.198 0.199,0.247 0.651,-0.138 0.401,-0.349 0,-0.362 l 0.829,-0.05 c 0.038,-0.08 -0.16,-0.092 -0.223,-0.173 0.348,0.091 1.425,-0.405 1.944,-0.14 l 0.046,-0.074 c 0.937,-0.006 1.624,0.089 2.256,0.212 0.631,0.135 1.211,0.301 1.939,0.565 -0.048,0.215 0.537,0.374 0.864,0.731 0.254,0.111 0.516,0.225 0.784,0.342 0.258,0.141 0.524,0.285 0.794,0.433 0.268,0.156 0.518,0.35 0.781,0.539 l 0.195,0.147 c 0.072,0.063 0.164,0.143 0.229,0.217 0.147,0.153 0.26,0.307 0.365,0.459 0.43,0.854 0.002,0.331 0.114,0.738 0.098,-0.024 0.299,0.213 0.438,0.325 0.142,0.111 0.222,0.147 0.135,-0.05 0.242,0.323 0.598,0.447 1.02,0.596 0.434,0.156 0.97,0.225 1.986,0.592 -0.248,0.005 -0.495,-0.017 -0.386,0.077 0.362,0.116 0.835,0.189 0.811,0.079 l -0.081,-0.051 c 0.973,0.521 2.201,0.886 3.319,1.67 0.551,0.39 1.07,0.918 1.371,1.562 0.311,0.638 0.352,1.348 0.22,1.864 l 0.028,-0.115 c -0.1,0.715 -0.371,1.36 -0.637,1.891 -0.239,0.768 0.297,-0.408 0.21,0.194 -0.487,0.823 -0.534,1.317 -0.405,1.844 0.145,0.526 0.421,1.048 0.698,1.719 0.517,0.341 1.108,1.163 1.715,2.211 0.294,0.521 0.577,1.118 0.777,1.699 0.214,0.569 0.346,1.113 0.513,1.554 L 53.458,9.973 c -0.061,0.481 0.152,0.552 0.209,0.897 -0.099,-0.042 -0.166,-0.495 -0.207,-0.2 0.085,1.963 -0.295,3.836 -0.455,5.622 -0.146,1.765 -0.128,3.591 0.095,5.257 0.185,1.22 -0.628,0.809 0.005,2.326 z"
        stroke="none"
        fill="#aed1cd"
        fill-rule="evenodd"
      />
    </g>
  </svg>