<?xml version="1.0" encoding="UTF-8"?><!-- Generator: Adobe Illustrator 23.0.2, SVG Export Plug-In . SVG Version: 6.00 Build 0)  -->
<svg
    id="svg"
    viewBox="0 0 6 6"
    stroke="none"
    fill="#000"
    fill-rule="evenodd"
    xmlns="http://www.w3.org/2000/svg"
  >
    <g transform="translate(4,4)">
      <path
        xmlns="http://www.w3.org/2000/svg"
        id="path1562"
        d="M 0,0 C -0.028,0.001 -0.041,0.023 -0.025,0.083 0.033,0.126 0.031,0.081 0,0 m -2.916,-1.297 c -0.004,-0.012 -0.009,-0.024 -0.031,-0.035 -0.011,0 -0.017,0.003 -0.027,0.005 0.02,0.009 0.038,0.019 0.058,0.03 m 0.39,0.753 c 0.009,-0.02 0.021,-0.043 0.036,-0.078 0,0 -10e-4,-0.001 -10e-4,-0.001 -0.04,0.01 -0.089,0.023 -0.141,0.037 0.037,0.014 0.072,0.028 0.106,0.042 m 0.035,0.833 c 0.018,-0.125 0.045,-0.146 0.12,-0.238 -0.011,-0.107 -0.023,-0.193 -0.035,-0.244 -0.003,0.001 -0.006,0.004 -0.009,0.005 l -0.03,0.122 c -0.009,-0.031 -0.014,-0.062 -0.021,-0.093 -0.009,0.006 -0.017,0.009 -0.025,0.015 -0.009,0.124 -0.008,0.273 0,0.433 m 0.726,0.929 0.1,-0.015 C -1.688,1.148 -1.726,1.104 -1.767,1.062 c 0.002,0.053 0.003,0.106 0.002,0.156 m -1.076,-2.395 c 0.038,0.057 0.077,0.09 0.114,0.115 0.042,-0.038 0.076,-0.075 0.089,-0.111 -0.019,0.03 -0.024,0.075 -0.062,0.028 l 0.008,-0.087 c 0.022,0.03 0.042,0.042 0.058,0.049 0.01,-0.036 -0.003,-0.071 -0.056,-0.104 -0.044,0.009 -0.092,0.036 -0.135,0.065 0.012,0.014 0.029,0.022 0.039,0.04 z m -0.065,0.24 c -0.003,0.028 -0.009,0.056 -0.011,0.084 0.007,-0.021 0.021,-0.043 0.039,-0.064 -0.01,-0.006 -0.018,-0.014 -0.028,-0.02 m 0.422,0.409 c 0.018,-0.025 0.036,-0.043 0.046,-0.035 0,-0.006 0,-0.007 0,-0.011 -0.004,-0.006 -0.011,-0.01 -0.016,-0.015 -0.002,0.004 -0.003,0.006 -0.005,0.011 0.002,-0.006 0.003,-0.006 0.004,-0.012 -0.011,-0.011 -0.024,-0.021 -0.035,-0.032 l -0.033,0.079 c 0.013,0.005 0.027,0.011 0.039,0.015 M 1.16,-1.857 C 1.197,-1.9 1.312,-2.012 1.182,-2.004 0.957,-1.896 1.076,-1.903 1.16,-1.857 M 0.062,1.619 C 0.132,1.24 -0.329,2.07 -0.248,1.517 -0.308,1.587 -0.278,1.654 -0.33,1.739 -0.291,1.558 -0.312,1.507 -0.413,1.553 l -0.01,0.045 C -0.6,1.47 -0.76,1.598 -1.056,1.568 L -0.934,1.395 C -0.995,1.391 -1.039,1.443 -1.09,1.474 -0.98,1.167 -0.944,1.539 -0.818,1.202 -0.916,1.32 -0.984,1.33 -1.047,1.312 -1.046,1.314 -1.045,1.316 -1.044,1.319 -1.046,1.315 -1.047,1.315 -1.049,1.312 -1.111,1.292 -1.168,1.249 -1.237,1.245 -1.257,1.276 -1.286,1.296 -1.337,1.271 -1.373,1.292 -1.413,1.323 -1.46,1.378 -1.5,1.351 -1.432,1.289 -1.387,1.234 -1.384,1.223 -1.385,1.201 -1.386,1.172 L -1.458,1.244 -1.39,1.125 C -1.391,1.117 -1.392,1.108 -1.393,1.101 -1.43,1.108 -1.48,1.145 -1.53,1.194 c -0.005,0.023 -0.01,0.047 -0.016,0.079 0.004,-0.011 0.003,-0.036 0,-0.065 -0.019,0.021 -0.036,0.04 -0.053,0.06 0,0.002 10e-4,0.005 0.002,0.006 C -1.598,1.272 -1.599,1.27 -1.6,1.268 -1.606,1.276 -1.614,1.284 -1.62,1.292 -1.602,1.289 -1.609,1.339 -1.604,1.355 -1.738,1.43 -1.731,1.242 -1.765,1.221 -1.766,1.276 -1.77,1.327 -1.775,1.364 -1.768,1.266 -1.914,1.385 -1.961,1.337 L -1.9,1.217 C -2.08,1.302 -2.088,0.52 -2.216,0.541 -2.208,0.645 -2.194,1.181 -2.289,1.239 -2.303,1.073 -2.325,0.61 -2.354,0.243 c -0.053,0.022 -0.103,0.049 -0.134,0.103 0.02,0.362 0.071,0.752 0.12,0.951 -0.066,0.111 -0.028,0.172 -0.116,0.151 -0.045,0.134 0.033,0.213 0.057,0.222 -0.071,0.025 -0.15,0.047 -0.24,0.066 0.05,-0.295 -0.154,-0.327 -0.099,-0.573 0.069,0.118 0.143,0.233 0.214,0.344 C -2.519,1.209 -2.587,0.65 -2.725,0.674 -2.789,0.782 -2.808,1.202 -2.826,1.301 -2.831,1.196 -2.953,1.069 -2.991,1.132 L -2.952,1.31 C -3.104,1.385 -3.004,0.884 -3.236,1.096 -3.284,1.099 -3.56,1.37 -3.487,1.206 -3.265,0.99 -2.911,0.245 -2.746,-0.106 -2.749,-0.124 -2.749,-0.142 -2.745,-0.162 -2.819,-0.079 -2.941,0.044 -3.038,0.111 -3.14,0.2 -3.237,0.328 -3.313,0.468 -3.391,0.604 -3.449,0.747 -3.55,0.816 -3.504,0.75 -3.478,0.642 -3.47,0.603 -3.558,0.617 -3.618,0.813 -3.693,0.69 -3.495,0.471 -3.885,0.503 -3.549,0.472 -3.551,0.326 -3.681,0.42 -3.741,0.282 c 0.096,-0.027 0.225,-0.14 0.349,-0.236 0.121,-0.096 0.248,-0.173 0.283,-0.203 -0.074,0.024 -0.175,0.041 -0.222,0.044 -0.055,-0.118 -0.19,-0.207 -0.172,-0.354 -0.071,-0.022 -0.143,-0.118 -0.277,-0.114 0.056,-0.014 0.164,-0.009 0.182,-0.052 -0.225,-0.168 -0.069,0.099 -0.355,-0.055 0.173,0.034 0.273,-0.071 0.401,-0.089 0.246,0.115 0.003,0.145 -0.123,0.196 0.37,0.076 0.773,0.092 0.959,0.102 0.061,-0.009 -0.008,-0.046 -0.074,-0.076 -0.113,0.015 -0.217,0.005 -0.25,-0.078 10e-4,0.003 -0.002,0.005 -0.002,0.008 0.003,0.001 0.005,0.001 0.007,0.002 -0.002,0.001 -0.005,0.003 -0.008,0.004 -0.004,0.013 -0.015,0.026 -0.007,0.039 -0.018,-0.004 -0.03,-0.011 -0.038,-0.02 -0.01,0.004 -0.019,0.008 -0.029,0.012 -0.074,-0.02 -0.112,-0.054 -0.074,-0.068 0.033,0.003 0.062,0.004 0.092,0.01 0.007,-0.063 0.066,-0.152 -0.079,-0.186 0.021,-0.011 0.033,-0.021 0.047,-0.03 -0.074,-0.135 0.136,-0.254 0.132,-0.46 -0.265,0.051 -0.027,0.274 -0.231,0.454 -0.169,-0.041 0.196,-0.325 -0.169,-0.188 0.232,-0.095 0.21,-0.15 0.177,-0.228 -0.032,-0.073 -0.072,-0.175 0.122,-0.242 l -0.211,-0.012 c 0.036,-0.028 0.144,-0.071 0.147,-0.122 -0.095,0.014 -0.19,0.032 -0.287,0.055 0.252,-0.121 -0.137,-0.348 0.024,-0.434 -0.082,0.247 0.227,0.129 0.348,0.268 0.353,-0.172 -0.499,-0.32 -0.221,-0.67 -0.058,0.042 0.023,0.243 0.147,0.208 -0.01,-0.082 -0.033,-0.211 -0.1,-0.314 0.197,-0.224 0.159,0.152 0.335,0.121 -0.163,-0.22 0.162,-0.052 0.288,-0.072 l -0.162,-0.141 c 0.114,-0.322 0.369,0.253 0.433,-0.028 -0.087,-0.057 -0.18,-0.11 -0.275,-0.158 0.053,-0.013 0.107,-0.024 0.158,-0.031 l -0.173,-0.175 c 0.244,0.042 0.246,-0.013 0.35,-0.151 0.044,0.149 0.2,0.336 0.282,0.304 0.005,-0.143 -0.12,-0.171 0.02,-0.199 -0.08,-0.113 -0.189,-0.25 -0.162,-0.042 -0.037,-0.06 -0.09,-0.106 -0.128,-0.165 0.011,-0.171 0.177,-0.12 0.226,-0.135 -0.017,0.015 -0.037,0.035 -0.037,0.068 0.107,0.064 0.207,0.131 0.3,0.206 0.004,-0.086 -0.039,-0.141 -0.085,-0.192 0.049,0.008 0.107,0.093 0.168,0.093 -0.065,-0.163 -0.111,-0.338 -0.229,-0.386 0.09,0.037 0.175,0.08 0.257,0.126 -0.007,-0.077 0.055,-0.23 0.013,-0.286 0.107,-0.13 0.35,0.276 0.48,0.127 0.011,0.034 0.031,0.064 0.065,0.087 0.134,-0.049 0.283,-0.268 0.456,-0.013 0.044,-0.102 0.091,-0.203 0.143,-0.302 0.143,0.092 -0.191,0.371 0.031,0.524 0.144,0.126 0.111,-0.252 0.191,-0.326 0.075,0.18 0.107,0.517 0.359,0.346 -0.032,-0.076 -0.094,-0.05 -0.138,-0.091 0.062,-0.039 0.127,-0.077 0.194,-0.113 -0.066,-0.336 -0.245,-0.28 -0.023,-0.469 -0.079,0.294 0.053,0.353 0.186,0.433 0.135,0.081 0.266,0.182 0.106,0.442 0.05,-0.018 0.102,-0.034 0.155,-0.048 -0.027,-0.012 -0.011,-0.044 -0.039,-0.056 0.345,-0.111 -0.141,0.436 0.069,0.514 0.085,0.023 0.191,0.014 0.208,-0.079 0.004,0.083 0.004,0.162 0.001,0.239 0.038,0.033 0.12,-0.035 0.078,-0.072 0.042,0.084 0.075,0.168 0.102,0.252 l 0.015,-0.009 c -0.063,0.082 -0.162,0.213 -0.205,0.27 0.102,0.017 0.047,-0.053 0.121,-0.071 -0.027,0.061 -0.056,0.119 -0.088,0.173 0.166,-0.004 0.273,-0.16 0.209,-0.245 0.305,-0.063 0.284,-0.008 0.238,0.064 -0.047,0.077 -0.119,0.164 0.087,0.26 0.015,-0.051 0.027,-0.104 0.036,-0.158 0.359,-0.004 0.272,0.149 0.51,0.287 -0.115,-0.042 -0.597,-0.221 -0.708,-0.031 0.053,0.03 0.086,0.084 -0.023,0.176 0.212,-0.03 0.171,0.056 0.166,0.15 l 0.285,-0.027 c -0.076,0.117 -0.222,0.113 -0.35,0.173 0.029,0.105 0.247,0.135 0.433,0.173 0.034,0.189 -0.347,-0.141 -0.413,0.064 0.092,0.165 -0.04,0.28 -0.254,0.403 0.063,0.131 0.173,0.032 0.24,0.093 -0.083,0.011 -0.166,0.018 -0.248,0.023 -0.002,0.023 0.065,0.04 0.101,0.048 -0.112,0.044 -0.27,-0.088 -0.384,-0.017 -0.151,-0.049 -0.064,0.042 0,0.155 0.066,0.112 0.104,0.249 -0.082,0.206 0.048,0.073 0.154,0.085 0.24,0.154 -0.305,0.028 -0.241,0.043 -0.568,-0.057 0.023,0.07 0.044,0.139 0.062,0.21 -0.099,-0.208 -0.357,-0.301 -0.55,-0.407 -0.055,-0.09 -0.105,-0.167 -0.129,-0.206 -0.045,-0.009 -0.087,-0.021 -0.129,-0.032 -0.007,0.007 -0.013,0.013 -0.02,0.02 0.033,0.041 0.087,0.093 0.162,0.154 -0.02,-0.014 -0.041,-0.026 -0.06,-0.038 0.044,0.103 0.166,0.214 0.296,0.311 -0.028,-0.051 -0.058,-0.104 -0.088,-0.158 0.139,0.107 0.296,0.222 0.41,0.345 C 0.231,0.044 0.199,0.036 0.175,0.037 0.214,0.065 0.247,0.091 0.264,0.115 0.281,0.14 0.227,0.105 0.16,0.067 L 0.257,0.194 C 0.28,0.181 0.305,0.165 0.33,0.146 0.311,0.117 0.287,0.089 0.262,0.061 0.292,0.079 0.318,0.106 0.332,0.145 0.366,0.12 0.401,0.09 0.44,0.053 0.342,0.178 0.364,0.202 0.394,0.22 0.379,0.231 0.363,0.269 0.347,0.314 L 0.353,0.323 0.346,0.316 C 0.325,0.374 0.303,0.443 0.279,0.498 L 0.521,0.274 C 0.439,0.56 0.661,0.349 0.577,0.619 L 0.551,0.555 C 0.493,0.889 0.206,1.216 0.062,1.619"
      />
    </g>
  </svg>