<svg width="158" height="315" viewBox="0 0 158 315" fill="none" xmlns="http://www.w3.org/2000/svg">
<path fill-rule="evenodd" clip-rule="evenodd" d="M-1.11463e-05 254.999C0.166554 255 0.333226 255 0.499989 255C54.3478 255 98 211.348 98 157.5C98 103.652 54.3478 60 0.499997 60C0.333234 60 0.166562 60.0004 -2.62274e-06 60.0013L0 0.000777537C0.166611 0.000259795 0.333267 7.37563e-07 0.5 7.44851e-07C87.4848 4.54708e-06 158 70.5152 158 157.5C158 244.485 87.4848 315 0.499986 315C0.333253 315 0.166597 315 -1.37691e-05 314.999L-1.11463e-05 254.999Z" fill="url(#paint0_linear)"/>
<defs>
<linearGradient id="paint0_linear" x1="9.35802e-06" y1="7.22996e-07" x2="-1.29649e-05" y2="315" gradientUnits="userSpaceOnUse">
<stop stop-color="#68CEEC"/>
<stop offset="0.526042" stop-color="#3F5CAB"/>
<stop offset="1" stop-color="#35127F"/>
</linearGradient>
</defs>
</svg>
