<?xml version="1.0" encoding="UTF-8"?><!-- Generator: Adobe Illustrator 23.0.4, SVG Export Plug-In . SVG Version: 6.00 Build 0)  --><svg xmlns="http://www.w3.org/2000/svg" enable-background="new 0 0 247.8 336.8" id="Layer_1" version="1.1" viewBox="0 0 247.8 336.8" x="0px" xml:space="preserve" y="0px">
<linearGradient gradientUnits="userSpaceOnUse" id="SVGID_1_" x1="180" x2="200" y1="350">
	<stop offset=".4436" stop-color="#FF91FF"/>
	<stop offset="1" stop-color="#FF9800"/>
</linearGradient>
<path d="m88 327.3c0 5.3-4.3 9.6-9.6 9.6s-9.6-4.3-9.6-9.6 4.3-9.6 9.6-9.6 9.6 4.3 9.6 9.6zm29.8-53.1c-3.7 0-6.7 3-6.7 6.7s3 6.7 6.7 6.7 6.7-3 6.7-6.7-3-6.7-6.7-6.7zm-58.6 27.9c-2.5 0-4.5 2-4.5 4.5s2 4.5 4.5 4.5 4.5-2 4.5-4.5c-0.1-2.5-2.1-4.5-4.5-4.5zm-39.1 10c-3.1 0-5.6 2.5-5.6 5.6s2.5 5.6 5.6 5.6 5.6-2.5 5.6-5.6-2.5-5.6-5.6-5.6zm120-17.8c-3.4 0-6.1 2.7-6.1 6.1s2.7 6.1 6.1 6.1 6.1-2.7 6.1-6.1-2.7-6.1-6.1-6.1zm88.7-13.4c-1.8 0-3.3 1.5-3.3 3.3s1.5 3.3 3.3 3.3 3.3-1.5 3.3-3.3c0.1-1.8-1.4-3.3-3.3-3.3zm-26.5 23.4c-5.2 0-9.5 4.2-9.5 9.5s4.2 9.5 9.5 9.5c5.2 0 9.5-4.2 9.5-9.5s-4.3-9.5-9.5-9.5zm-13.6-269.6c2.5 0 4.5-2 4.5-4.5s-2-4.5-4.5-4.5-4.5 2-4.5 4.5 2 4.5 4.5 4.5zm39-10c3.1 0 5.6-2.5 5.6-5.6s-2.5-5.6-5.6-5.6-5.6 2.5-5.6 5.6 2.5 5.6 5.6 5.6zm-97.7 38c3.7 0 6.7-3 6.7-6.7s-3-6.7-6.7-6.7-6.7 3-6.7 6.7 3 6.7 6.7 6.7zm39.3-43.6c5.3 0 9.6-4.3 9.6-9.6s-4.3-9.5-9.6-9.5-9.6 4.3-9.6 9.6 4.3 9.5 9.6 9.5zm-61.6 23.5c3.4 0 6.1-2.7 6.1-6.1s-2.7-6.1-6.1-6.1-6.1 2.7-6.1 6.1c0 3.3 2.7 6.1 6.1 6.1zm134.3 40.1c-3.2 0-5.9 2.6-5.9 5.9v-43.5c0-3.9-3.1-7-7-7s-7 3.1-7 7v62.5c0-2.6-2.1-4.7-4.7-4.7s-4.7 2.1-4.7 4.7v-32.4c0-5.4-4.4-9.8-9.8-9.8s-9.8 4.4-9.8 9.8v-25.4c0-2.5-2-4.5-4.5-4.5s-4.5 2-4.5 4.5v34.9c0-2.9-2.4-5.3-5.3-5.3s-5.3 2.4-5.3 5.3v-47.4c0-4.5-3.6-8.1-8.1-8.1s-8.1 3.6-8.1 8.1v37.1c0-3.7-3-6.7-6.7-6.7s-6.7 3-6.7 6.7v42.1c0-2-1.6-3.6-3.6-3.6s-3.6 1.6-3.6 3.6v-27.6c0-3.4-2.7-6.1-6.1-6.1s-6.1 2.7-6.1 6.1v-16.8c0-3.7-3-6.7-6.7-6.7s-6.7 3-6.7 6.7v-17.3c0-3.1-2.5-5.6-5.6-5.6s-5.6 2.5-5.6 5.6v47.7c0-2.3-1.9-4.2-4.2-4.2s-4.2 1.9-4.2 4.2v-26c0-6.2-5-11.2-11.2-11.2s-11.2 5-11.2 11.2v-27.8c0-1.8-1.5-3.3-3.3-3.3s-3.3 1.5-3.3 3.3v36c0-2.9-2.4-5.3-5.3-5.3s-5.3 2.4-5.3 5.3v-38.5c0-4.5-3.6-8.1-8.1-8.1s-8.1 3.6-8.1 8.1v28.2c0-3.7-3-6.7-6.7-6.7s-6.7 3-6.7 6.7v42.7c0-2.3-1.9-4.2-4.2-4.2s-4.2 1.9-4.2 4.2v-30.7c0-3.9-3.1-7-7-7s-7 3.1-7 7v161.9c0 3.2 2.6 5.9 5.9 5.9 3.2 0 5.9-2.6 5.9-5.9v43.5c0 3.9 3.1 7 7 7s7-3.1 7-7v-62.5c0 2.6 2.1 4.7 4.7 4.7s4.7-2.1 4.7-4.7v32.4c0 5.4 4.4 9.8 9.8 9.8s9.8-4.4 9.8-9.8v25.3c0 2.5 2 4.5 4.5 4.5s4.5-2 4.5-4.5v-34.9c0 2.9 2.4 5.3 5.3 5.3s5.3-2.4 5.3-5.3v47.4c0 4.5 3.6 8.1 8.1 8.1s8.1-3.6 8.1-8.1v-37.1c0 3.7 3 6.7 6.7 6.7s6.7-3 6.7-6.7v-42.1c0 2 1.6 3.6 3.6 3.6s3.6-1.6 3.6-3.6v27.7c0 3.4 2.7 6.1 6.1 6.1s6.1-2.7 6.1-6.1v16.7c0 3.7 3 6.7 6.7 6.7s6.7-3 6.7-6.7v17.3c0 3.1 2.5 5.6 5.6 5.6s5.6-2.5 5.6-5.6v-47.7c0 2.3 1.9 4.2 4.2 4.2s4.2-1.9 4.2-4.2v26c0 6.2 5 11.2 11.2 11.2s11.2-5 11.2-11.2v27.9c0 1.8 1.5 3.3 3.3 3.3s3.3-1.5 3.3-3.3v-36c0 2.9 2.4 5.3 5.3 5.3s5.3-2.4 5.3-5.3v38.5c0 4.5 3.6 8.1 8.1 8.1s8.1-3.6 8.1-8.1v-28.2c0 3.7 3 6.7 6.7 6.7s6.7-3 6.7-6.7v-42.7c0 2.3 1.9 4.2 4.2 4.2s4.2-1.9 4.2-4.2v30.7c0 3.9 3.1 7 7 7s7-3.1 7-7v-161.9c-0.1-3.2-2.7-5.9-5.9-5.9zm-223-26.7c1.8 0 3.3-1.5 3.3-3.3s-1.5-3.3-3.3-3.3-3.3 1.5-3.3 3.3c-0.1 1.8 1.4 3.3 3.3 3.3zm26.6-23.5c5.2 0 9.5-4.2 9.5-9.5s-4.2-9.5-9.5-9.5c-5.2 0-9.5 4.2-9.5 9.5s4.2 9.5 9.5 9.5z" fill="url(#SVGID_1_)"/>
</svg>