<svg width="208" height="386" viewBox="0 0 208 386" fill="none" xmlns="http://www.w3.org/2000/svg">
<path fill-rule="evenodd" clip-rule="evenodd" d="M71.242 0H75.042L75.942 0.900002L89.042 14L89.942 14.9V35.9L90.8663 40.8769L93.842 33L94.5239 34.461L94.742 33.9L98.942 42.9L101.442 56.4L103.942 65.4V75.9L108.442 87.9L110.122 91.4003L110.858 90.1516C111.302 79.3455 110.942 66.5 110.942 66.5C110.942 66.5 108.242 61.2 109.442 53.9C112.694 53.2495 114.595 54.1513 115.682 55.2149C117.524 56.3388 117.942 58.2 117.942 58.2L119.933 78.4073C120.889 79.1693 122.532 80.4417 124.842 82.1L124.864 82.2918C125.175 82.5192 125.501 82.7554 125.842 83C126.342 87.4 126.742 95.4 126.742 95.4L128.808 101.473L136.628 93.0459L135.668 89.2788C132.306 90.8178 130.242 90.1 130.242 90.1L130.391 89.5152C130.359 89.5058 130.342 89.5 130.342 89.5L130.403 89.2607C129.715 89.2299 129.342 89.1 129.342 89.1L131.642 80.0848L128.942 73.5V63V53V42L131.842 26L136.327 30.7019L138.134 32.5662L138.242 18.5L141.042 12L141.703 13.4545L141.942 12.9L146.942 23.9V48.204L153.542 49.7L154.042 44.5L160.042 40V31.5L160.842 25.5L162.842 21.5L164.042 15V20.6273L164.842 15.9V41.9L165.942 59.4L166.442 76.4L163.268 87.3073C163.139 88.2453 162.985 89.1759 162.825 90.0428L164.242 95.9L168.142 106.5L165.542 118.5C165.542 118.5 165.542 129.2 166.142 133.3C168.342 137 171.742 152.2 171.742 152.2C171.742 152.2 171.742 164.2 173.242 170.8V170.9H171.942V205.7H173.342V181H174.342V181.9H175.242V189.3H178.042V190.2H178.942V194.6H181.842L181.142 172.6L182.124 176.086L182.042 173.5L188.242 195.5V223.5H187.942V234.3H206.942V234.5C203.042 234.8 196.742 235 196.742 235C196.742 235 191.26 234.585 187.942 234.36V235.2C187.592 235.2 187.268 235.175 186.943 235.15L186.942 235.15L186.941 235.15C186.616 235.125 186.292 235.1 185.942 235.1V234.242C185.65 234.22 185.356 234.2 185.042 234.2V208.2H179.942V235C178.042 235 176.142 235.1 174.142 235.3C173.642 241.6 175.542 246.5 175.542 246.5L175.142 252C175.142 252 175.289 255.166 176.279 257.644C179.527 256.124 179.386 255.862 178.949 255.048C178.585 254.368 178.014 253.304 179.042 250.8C179.365 251.46 179.553 252.057 179.65 252.6C179.729 252.351 179.825 252.085 179.942 251.8C180.93 253.816 180.647 255.24 180.426 256.357C180.295 257.014 180.186 257.565 180.369 258.068C180.899 258.409 181.688 258.745 182.842 259.1C184.056 257.076 184.119 254.183 184.182 251.26C184.243 248.406 184.306 245.525 185.442 243.4C185.842 244.099 186.02 244.499 186.138 244.814C186.202 244.673 186.27 244.535 186.342 244.4C186.877 245.335 187.014 245.735 187.144 246.112C187.305 246.581 187.455 247.014 188.342 248.4L189.559 251.898L196.524 250.522L196.485 250.501C194.997 249.682 193.367 248.785 192.446 247.461C191.348 246.477 190.619 245.236 190.842 243.5L196.242 242.2L194.342 238.2L198.942 237.9C198.934 238.259 198.942 238.611 198.965 238.957L199.842 238.9C199.782 241.475 200.619 243.691 201.514 246.063C202.114 247.654 202.741 249.314 203.142 251.2L202.142 256.8C201.499 260.41 201.468 260.376 201.249 260.145C201.026 259.909 200.608 259.467 199.142 262.5L198.942 286.3C198.282 286.036 197.866 285.562 197.611 285.009C195.794 283.69 196.642 280.3 196.642 280.3V276.4L196.342 275.5C196.342 275.5 196.042 274.9 195.942 274.6L195.496 273.968C192.857 277.893 194.142 285.9 194.142 285.9C194.142 285.9 191.942 292.3 191.042 294.7C190.841 294.136 190.676 293.529 190.541 292.89C190.431 293.192 190.33 293.465 190.242 293.7C189.129 290.575 189.116 286.13 189.103 282.068C189.092 278.354 189.082 274.961 188.233 273.189C187.953 273.001 187.625 272.9 187.242 272.9C184.642 274 185.242 276.4 185.242 276.4C185.242 276.4 184.642 280.3 184.242 282.2C183.51 281.528 183.099 281.027 182.868 280.642C181.855 279.588 181.778 279.055 181.771 278.691C181.325 278.473 180.628 278.195 179.542 277.8L175.742 291.6C175.692 291.75 175.667 291.875 175.642 292L175.631 292.052L175.622 292.097L175.613 292.14C175.595 292.221 175.573 292.306 175.542 292.4L175.492 294.75L176.242 295.1L179.042 297L179.037 297.286L179.942 297.9C179.842 304.1 179.542 311.5 178.842 312.1L171.942 313.2L164.442 312.5L164.842 324.8L164.742 330.8L165.162 335.978L166.042 329.2L166.278 330.991L166.342 330.5L167.276 337.579L168.042 321.1L168.311 323.071L168.342 322.4L168.942 326.8L169.304 330.488L171.61 328.892C171.178 327.496 170.715 325.547 170.405 324.169C170.024 322.561 169.742 321.2 169.742 321.2L171.442 319.8L170.842 315.4L172.342 315.1C172.333 315.522 172.334 315.978 172.342 316.46L172.642 316.4C172.542 321.1 173.642 330.1 173.642 330.1L173.342 336.3C172.842 344.2 172.342 342.5 172.342 342.5L172.242 368.6C172.014 368.286 171.875 367.704 171.793 367.032C171.182 365.621 171.442 361.8 171.442 361.8V357.5L171.342 356.5L171.242 355.5L171.137 355.027C170.344 359.337 170.742 368.1 170.742 368.1L169.742 377.7L169.6 374.879L169.442 376.4L168.364 354.928L167.942 357.6L167.642 363.9L166.142 359L164.942 374.1C164.842 374.4 164.842 375 164.842 375L164.742 385.2C164.342 386 163.842 384.8 163.842 384.8V384C163.667 383.8 163.542 383.5 163.542 383.5V375.3L164.142 368L164.43 358.49L162.342 352.4L162.355 352.012L162.042 351.1L162.642 333L163.642 331.3L163.732 322.19L162.342 320.8L162.33 319.788L162.042 319.5L161.958 312.577L157.342 312.2C157.242 317 157.042 326.5 157.042 326.5L156.748 324.922L156.742 325.2L155.873 320.54L154.442 319.3C153.942 322.8 153.842 325.5 153.842 325.5L153.666 322.27C153.569 323.467 153.542 324.2 153.542 324.2L153.012 314.481L137.742 313.2L137.042 316C138.342 323.6 136.942 335.8 136.942 335.8L135.242 337L136.942 344.5L137.142 352.7L135.942 357.8L135.797 354.341L135.242 356.7L134.542 340L133.642 335.8L133.142 329.8L133.942 324.6L134.385 319.104L130.942 317.3L129.173 318.231L130.842 320.3L130.848 320.539L131.542 321.4L131.842 334.2L126.842 336.9L126.928 343.452C127.757 343.64 128.442 344.2 128.442 344.2L128.34 344.806C128.815 345.033 129.142 345.3 129.142 345.3L127.442 355.4L127.101 352.165L126.742 354.3L126.276 349.87L124.842 350.3L123.842 351.9C123.842 352 123.642 352.3 123.642 352.3L123.142 353.2C123.142 357.3 122.942 360.4 122.942 360.4L122.642 363.6L122.442 367.5L121.745 366.339L121.742 366.4L120.981 365.132L120.042 373.4L119.744 367.984L119.242 372.4L118.593 360.614L116.242 370.2L115.242 370.5L115.222 370.367C115.142 370.669 115.142 371.1 115.142 371.1L115.042 380.4C114.642 381.1 114.142 380 114.142 380V379.537C113.763 379.927 113.342 379 113.342 379V371.5L113.857 365.754C113.526 364.269 113.174 362.938 112.892 361.94L111.342 369.6L111.242 368.6L111.044 366.516L110.642 368.5L110.542 367.5L109.942 361.2C108.342 349.9 110.142 336.9 110.142 336.9L109.942 322.2L110.144 313.753L107.642 313.6C107.542 318 107.342 326.7 107.342 326.7L106.602 323.069L106.542 325.7L105.53 320.73L104.742 320.1C104.242 323.3 104.142 325.7 104.142 325.7L103.803 320.043C103.423 322.76 103.342 324.7 103.342 324.7L102.799 315.642L88.042 314.5L87.342 317.1C88.642 324.1 87.242 335.2 87.242 335.2L85.542 336.3L87.242 343.1L87.442 350.6L86.242 355.3L86.0817 351.795L85.442 354.3L84.742 339L83.842 335.2L83.342 329.7L84.142 325L84.589 319.994L81.242 318.4L79.3861 319.279L81.042 321.2L81.0408 321.271L81.842 322.2V333.6L76.842 336.1L76.936 342.584C77.6202 342.821 78.142 343.2 78.142 343.2L78.1316 343.257C78.7172 343.491 79.142 343.8 79.142 343.8L77.442 353.1L77.0126 349.378L76.442 352.5L75.9424 348.17L74.842 348.5L73.842 349.9C73.842 350.1 73.642 350.3 73.642 350.3L73.142 351.1C73.142 354.8 72.942 357.7 72.942 357.7L72.642 360.7L72.442 364.2L71.4894 362.771L71.442 363.6L70.242 361.8L69.542 356.7C69.4518 356.046 69.3616 355.453 69.276 354.927L68.842 357L66.242 366.7L65.242 367C65.1955 366.714 65.1454 366.429 65.0925 366.145L64.242 366.4C63.8494 363.988 63.205 361.607 62.7148 359.982L61.342 366.2L61.242 365.3L60.976 362.728L60.342 365.6L60.242 364.7L59.642 358.9C58.042 348.6 59.842 336.7 59.842 336.7L59.642 323.3L60.242 307.9L58.742 290.6L60.1276 280.604L60.1276 280.59L59.242 286.1L59.2132 273.317C58.2696 274.161 57.542 274.7 57.542 274.7C57.542 274.7 57.7861 274.316 57.4301 273.158C57.2362 273.317 57.0748 273.444 56.9572 273.536C56.8197 273.642 56.742 273.7 56.742 273.7C56.742 273.7 57.3265 272.781 55.3672 269.495C54.7125 269.474 54.1924 269.447 53.756 269.424C51.9797 269.331 51.5884 269.311 49.142 270.1L45.942 271.5C45.7328 271.639 45.5237 271.73 45.3484 271.806C45.2723 271.839 45.2026 271.87 45.142 271.9L43.542 272.7C43.542 276.4 42.942 279.3 42.942 279.3L42.042 282.3C42.042 282.3 42.342 283.5 41.442 285.8C40.975 285.8 40.5988 285.823 40.2862 285.842L40.2854 285.842H40.2849C39.1652 285.909 38.8625 285.928 38.1207 284.674C37.7776 284.445 37.465 283.966 36.942 283L34.742 277.9C34.2356 276.77 34.1996 276.202 34.173 275.782C34.1575 275.537 34.1451 275.343 34.0455 275.117C33.8112 274.889 33.5156 274.622 33.142 274.3C32.2451 274.758 31.6868 275.019 31.3512 275.176C31.0004 275.341 30.8929 275.391 30.896 275.433C30.8974 275.452 30.9204 275.469 30.9536 275.493C31.15 275.638 31.7021 276.045 30.242 278.6C22.4515 277.898 22.4932 279.413 22.5883 282.868C22.6287 284.336 22.6787 286.153 22.142 288.3L18.942 288.6C18.7497 288.255 18.592 287.911 18.4608 287.57L18.142 287.6C17.3647 286.207 17.1539 284.825 16.9658 283.593C16.824 282.663 16.6951 281.818 16.3455 281.118C15.5409 280.476 14.2159 280.1 11.942 280.1C11.8783 281.598 12.5051 282.72 13.0069 283.618C14.0799 285.539 14.5818 286.437 6.54201 287.8C6.44723 287.658 6.3749 287.426 6.31441 287.232C6.24724 287.016 6.19463 286.847 6.14202 286.9L6.08715 286.741C5.9739 286.76 5.85885 286.78 5.74203 286.8C5.64721 286.658 5.57488 286.426 5.51436 286.232C5.44723 286.016 5.39464 285.847 5.34203 285.9L3.34203 280.1C-1.85798 269.8 3.84203 257.9 3.84203 257.9L3.34203 244.5C3.34203 244.5 4.79165 234.353 5.10372 229.753C4.17681 229.276 3.45861 228.564 2.90532 227.685C0.0326745 224.659 0.23934 218.294 0.390463 213.64C0.411611 212.989 0.431661 212.371 0.442037 211.8C0.643301 211.664 0.855093 211.523 1.07406 211.377C3.97854 209.444 8.1448 206.671 5.7177 202.738C4.62923 203.925 4.58843 204.445 4.54116 205.049C4.49141 205.683 4.43447 206.41 3.14202 208.1C2.89135 207.775 2.66686 207.358 2.46645 206.86C2.368 206.999 2.26018 207.145 2.14202 207.3C-2.55796 201.2 1.94204 162.9 1.94204 162.9C1.94204 162.9 1.94204 144.3 2.64202 135C5.23583 133.379 6.71273 133.335 7.17919 133.376C5.6278 131.3 6.08965 127.298 6.62215 124.689L6.34203 121.3C6.34203 121.3 5.74203 110.6 6.94201 105.4C13.3563 103.816 14.315 105.18 14.4361 105.816C14.5855 105.873 14.7109 105.937 14.816 106.005C16.0145 105.689 19.7394 104.604 20.742 103.1C20.5827 102.794 20.4114 102.523 20.229 102.283C19.3518 101.622 18.3113 101.325 17.171 101.001L17.1702 101C16.7405 100.878 16.2967 100.752 15.842 100.6C15.9589 100.423 16.0728 100.248 16.1838 100.076C15.7811 99.9609 15.3662 99.8414 14.942 99.7C20.1641 91.7747 19.4226 89.1336 18.4915 85.8172C17.907 83.7355 17.2479 81.3877 17.942 77.3C21.042 77 22.342 77.3 25.042 79C25.0436 79.123 25.0448 79.2426 25.0458 79.359C25.3287 79.521 25.6258 79.7009 25.942 79.9C26.0001 84.4337 25.6191 84.3727 24.9952 84.2728C24.5457 84.2009 23.9702 84.1087 23.342 85.7C24.542 88.8 26.242 94.1 26.242 94.1C26.242 94.1 24.7079 98.0311 25.489 103.358C30.7279 106.837 32.4289 108.442 32.9797 109.101C33.0723 109.184 33.1575 109.263 33.2359 109.336C33.3708 109.019 33.9235 108.118 35.842 105.6C36.1451 106.01 36.3986 106.365 36.6096 106.674L36.742 106.5C38.7793 109.253 38.573 109.55 38.3101 109.929C38.15 110.16 37.9687 110.422 38.2612 111.287C42.6582 109.266 53.268 110.268 57.042 112.3C57.5455 111.125 57.5209 110.778 57.4999 110.482C57.4709 110.073 57.449 109.764 58.842 107.5L69.242 106.8C69.742 104.5 69.642 98.9 69.642 98.9C69.642 98.9 69.342 93.8 70.242 91.3L71.242 89.5727V74.2V73.7C76.442 74.7 79.942 72.4 79.942 72.4L80.2013 73.6705C80.5973 73.4734 80.8176 73.3244 80.842 73.3L81.4896 76.5828L84.542 74L87.8072 63.7379L78.442 62.4H67.942L67.4266 61.5H67.042L60.342 49.7L69.542 28L71.242 0ZM187.942 235.2H207.842V235.4C203.942 235.7 197.642 235.9 197.642 235.9C197.642 235.9 191.042 235.4 187.942 235.2ZM90.442 80.9H93.9192L94.742 90.5L89.842 98.3L89.1692 99.2718L89.142 99L81.4713 104.936L80.6774 88.5029L82.142 92.3L82.581 92.2049L83.042 93.4L89.042 92.1C89.042 92.1 88.7873 91.9148 88.3213 91.5995L89.242 91.4C89.242 91.4 88.7969 91.0903 88.0258 90.5902L88.442 90.5C88.442 90.5 86.4727 89.13 83.6432 87.4993L83.3998 86.2655L90.442 80.9ZM90.2993 99.6951L89.2038 99.6183L89.283 100.41L89.942 99.9L89.9692 100.172L90.2993 99.6951ZM110.736 92.6799L110.185 91.532L110.854 90.246C110.82 91.0717 110.781 91.8852 110.736 92.6799ZM165.942 243.5L166.06 244.617L166.842 244.4L167.005 245.947C167.163 244.46 167.249 243.057 167.295 241.905L166.542 241.7L166.195 235.185L164.757 235.157L165.009 243.759L165.942 243.5ZM169.723 243.616L169.731 243.352L169.706 243.345L169.723 243.616ZM59.1753 256.473C57.8545 256.803 56.6742 257.208 55.742 257.7L55.9981 263.59C56.5264 263.575 56.9879 263.548 57.4063 263.524H57.4068H57.4072H57.4074C58.0801 263.484 58.6417 263.451 59.1911 263.488L59.1753 256.473ZM114.423 369.364C114.342 369.666 114.342 370.1 114.342 370.1L114.34 370.289L114.423 369.364ZM110.73 92.7964L105.542 101.6L105.542 101.614L109.042 104C109.923 102.3 110.438 97.954 110.73 92.7964ZM98.6569 101.121L90.0038 100.518L91.0574 111.054L98.842 111.8C98.842 111.8 98.3557 106.677 98.6569 101.121ZM179.603 257.342C180.274 256.84 180.117 256.548 179.849 256.048C179.745 255.854 179.624 255.628 179.528 255.346L179.526 255.357C179.371 256.136 179.246 256.765 179.603 257.342Z" fill="url(#paint0_linear)"/>
<defs>
<linearGradient id="paint0_linear" x1="103.921" y1="0" x2="103.921" y2="385.475" gradientUnits="userSpaceOnUse">
<stop stop-color="#A9F1DF"/>
<stop offset="1" stop-color="#fbb"/>
</linearGradient>
</defs>
</svg>
