<svg width="167" height="165" viewBox="0 0 167 165" fill="none" xmlns="http://www.w3.org/2000/svg">
<path fill-rule="evenodd" clip-rule="evenodd" d="M152.093 70.175C147.293 73.175 151.793 77.275 151.793 77.275C151.793 77.275 151.893 78.875 152.993 80.175C153.11 80.175 153.193 80.1407 153.262 80.1123C153.31 80.0921 153.352 80.075 153.393 80.075V88.4H154V96.7H157.7V102H161.5L160.8 80L167 102V109C165.8 109.8 159.6 110.1 159.6 110.1C159.6 110.1 155.5 110.3 153 110.6V110.433C152.604 110.489 152.22 110.538 151.848 110.585C151.141 110.674 150.482 110.757 149.893 110.875C149.104 113.769 142.854 114.817 138.361 115.571C137.73 115.677 137.135 115.777 136.593 115.875C136.45 115.782 136.302 115.683 136.148 115.581C134.161 114.258 131.343 112.383 128.093 115.075C129.3 115.527 129.723 115.474 130.226 115.412C130.724 115.349 131.301 115.277 132.793 115.675C130.393 117.375 122.593 118.675 114.693 119.775C114.593 118.875 114.393 117.275 114.393 117.275L112.293 107.075V102.275L111.393 98.175L107.193 90.075L106.393 89.975L105.693 94.475L106.193 103.075L105.593 112.375L103.893 111.275L103.593 108.775L102.793 108.575C102.793 108.575 103.893 118.375 100.193 121.775C99.1932 121.975 97.4932 122.275 97.4932 122.275C97.4932 122.275 82.6932 125.075 75.3932 126.075C74.2365 125.223 74.2287 125.186 74.1741 124.926C74.1389 124.76 74.0844 124.501 73.6932 123.875C72.2932 126.275 64.0932 126.175 64.0932 126.175L61.4932 136.475L89.1932 135.175L62.9932 143.975L78.7932 147.975L63.7932 150.075L55.7932 164.075C55.7932 164.075 53.5932 128.375 51.2932 128.475C48.8932 124.575 51.0932 124.475 51.0932 124.475C51.0932 124.475 49.6932 122.075 48.0932 121.675C46.647 122.478 46.4273 123.411 46.1894 124.421C46.1311 124.668 46.0718 124.919 45.9932 125.175C39.1749 123.578 37.1486 124.358 34.6066 125.336C33.0102 125.951 31.2106 126.644 27.8932 126.875C27.3932 125.375 27.4932 124.575 28.5932 122.975C32.2225 122.273 32.2196 122.495 32.2151 122.841C32.2119 123.086 32.2079 123.392 33.4932 123.475C35.7932 122.275 39.8932 120.675 39.8932 120.675C39.8932 120.675 43.2932 120.975 47.5932 119.675C50.8037 115.127 51.8669 114.396 52.0593 114.291C51.9168 114.288 51.2906 114.177 48.6932 113.475C50.6828 111.983 50.9314 112.048 51.2621 112.135C51.5297 112.206 51.8512 112.291 53.1932 111.575C50.8932 109.875 50.6932 103.875 51.9932 101.575C51.0353 101.492 50.7712 101.565 50.5435 101.627C50.2246 101.715 49.9772 101.783 47.9932 101.375L46.4932 96.075C44.6932 96.075 40.1932 96.975 40.1932 96.975C40.1932 96.975 36.0932 97.875 34.0932 97.775L32.4932 97.475C32.5449 97.4233 32.5832 97.3717 32.6202 97.3217C32.7266 97.1783 32.8224 97.0492 33.1932 96.975L35.1932 95.875C35.3932 95.775 38.2932 94.875 38.2932 94.875L48.7932 90.575L47.6932 87.575C47.6932 87.575 48.5932 82.075 47.3932 79.875C44.8175 79.691 41.988 80.3321 39.1674 80.9711C35.8553 81.7215 32.5555 82.4691 29.6932 81.875C30.2648 79.6702 33.0369 79.2658 36.1581 78.8105C36.8592 78.7082 37.5779 78.6034 38.2932 78.475L40.2932 75.775C35.6932 75.075 10.2932 80.275 10.2932 80.275C10.2932 80.275 6.2932 82.475 0.393194 82.875C-1.2068 79.675 2.59319 78.375 2.59319 78.375L18.0932 74.575C18.0932 74.575 19.1932 73.275 21.0932 70.875C24.5932 69.975 30.8932 68.575 30.8932 68.575L38.2932 65.475L46.9932 62.775L50.0932 60.975C50.0932 60.975 51.6932 61.075 53.4932 59.075L57.9932 57.675L57.2932 52.375C52.6736 52.8062 52.4549 53.1235 52.057 53.7009C51.8089 54.0609 51.491 54.5221 49.9932 55.175C48.3835 54.6921 47.9236 54.274 47.6425 54.0184C47.2251 53.6388 47.2018 53.6177 44.3932 54.275C44.4722 55.105 44.8013 55.6539 45.1024 56.1561C45.563 56.9246 45.9584 57.5841 45.2932 58.975C43.9958 58.8712 43.9642 58.8482 43.8706 58.7802C43.7839 58.7172 43.644 58.6155 42.3932 58.375L42.4932 55.075C38.2932 55.475 31.6932 56.275 31.6932 56.275L21.5932 58.675C21.5932 58.675 4.2932 63.275 3.99319 58.775C4.9827 58.5276 5.77141 58.3854 6.46873 58.2597C8.02647 57.9789 9.1281 57.7802 10.9932 56.675H4.89319L10.2932 53.775C16.1248 50.8952 17.1878 51.4364 18.5199 52.1146C19.0381 52.3784 19.597 52.663 20.4932 52.775C23.3932 50.875 23.3932 50.775 23.3932 50.775L28.1932 49.075L36.1932 45.475L45.9932 45.075C45.9932 45.075 54.4932 43.475 57.5932 42.975C60.3932 41.275 72.0932 37.275 72.0932 37.275C72.0932 37.275 81.6932 35.475 86.6932 33.775C87.6932 34.575 90.0932 35.775 90.0932 35.775L96.4932 36.775L96.6932 44.575L101.193 56.375L101.093 74.775L101.693 75.075C101.693 75.075 107.193 78.075 109.493 80.075L105.393 82.675L104.593 83.275L105.693 84.875L106.393 85.075L113.393 82.975L115.493 80.775L113.393 73.475L108.493 64.775L109.893 52.575L111.093 39.475C111.093 39.475 113.093 28.775 114.593 23.575C114.893 23.775 116.093 26.475 116.093 26.475C116.093 26.475 115.393 28.375 118.493 30.975L119.593 36.675L129.793 36.975C130.535 31.2239 130.015 30.8649 129.085 30.2222C128.511 29.8257 127.78 29.3212 127.093 27.375C128.516 25.5051 129.443 25.0563 130.015 24.7792C130.851 24.3746 130.931 24.336 130.693 20.775C129.131 20.6969 127.966 20.9543 126.899 21.1899C125.234 21.5575 123.809 21.8721 121.493 20.775C122.014 19.3548 122.064 19.1896 122.174 19.0912C122.296 18.9817 122.493 18.9548 123.493 17.375L129.693 18.275C130.293 12.875 131.093 4.77499 131.093 4.77499C131.093 4.77499 130.693 1.475 130.493 0.0749931C131.293 -0.0249977 132.293 -0.0249977 133.493 0.0749931C133.993 4.375 136.393 11.175 136.393 11.175C136.393 11.175 136.693 19.075 138.093 23.475C143.193 22.875 146.893 21.175 146.893 21.175H147.193C147.093 21.5749 147.093 21.9749 147.093 22.4748V22.475L145.493 22.775L144.793 25.775L138.893 27.075L140.093 34.975C141.243 34.825 142.468 34.55 143.693 34.275C144.918 34 146.143 33.725 147.293 33.575C147.293 33.925 147.318 34.3 147.343 34.675C147.368 35.05 147.393 35.425 147.393 35.775C147.243 35.825 147.118 35.9 146.993 35.975C146.868 36.05 146.743 36.125 146.593 36.175L146.093 38.875C146.893 38.975 147.293 38.975 147.593 38.975V39.375C147.893 39.875 148.293 40.175 148.593 40.375C147.731 40.7198 146.902 40.8334 145.822 40.9815C145.022 41.0912 144.084 41.2198 142.893 41.475C143.346 49.4501 144.703 56.686 146.144 64.3736C146.293 65.1688 146.443 65.9688 146.593 66.775L148.893 67.475C150.493 66.475 151.893 65.875 153.193 65.575C153.293 67.275 153.393 68.875 153.593 70.475C153.293 70.475 152.893 70.375 152.094 70.1751L152.093 70.175ZM86.6932 77.375C86.6932 77.375 87.6932 77.175 87.4932 76.775C88.7613 75.7605 89.815 72.8162 90.1105 71.9906C90.1595 71.8537 90.1876 71.775 90.1924 71.7731L89.7932 70.775L88.5932 67.575L88.8932 61.075L86.9932 52.875L83.9932 43.575L79.2932 43.075L77.3932 46.775L83.3932 50.175L82.8932 57.575L81.4932 61.875L83.3932 65.175L85.6932 67.875L84.7932 69.975C84.7932 69.975 83.7932 74.775 85.9932 76.675C85.5932 77.075 86.5932 77.475 86.5932 77.475L86.6932 77.375Z" fill="url(#paint0_linear)"/>
<defs>
<linearGradient id="paint0_linear" x1="83.5" y1="0" x2="83.5" y2="164.075" gradientUnits="userSpaceOnUse">
<stop stop-color="#D8B5FF"/>
<stop offset="1" stop-color="#FFD2DF" />
</linearGradient>
</defs>
</svg>
