<svg width="75" height="136" viewBox="0 0 75 136" fill="none" xmlns="http://www.w3.org/2000/svg">
<path fill-rule="evenodd" clip-rule="evenodd" d="M44.8 0.300003L42.2 13.4L44.8 24.7L43.9 31.4L43.5 34.3L42.2 39L43.4 43.7L44.8 46V51.7001L44.5 46.7L43.1 53.9L43.6106 58.1307L42 60.7V70.6V78V93.2L43.5 102.3L43.7512 102.101L43.8 102.4L44.7002 101.694L44.8 102.3L50.572 97.7341L50.9 98.8L52 101.7V98.4L53.3 94.6V94.53L55.916 93.6144L56.5 95.7L58.5 101V97.555L59.8 101V95L62.1 88V75.3L62.4 59L58.5 45.7L58.1 44L57.7078 47.4317L57.2 45.7L56.8 44L55.2 58L53.0897 58.4616L51.8 57L51.5 49.3V45.7L50.8 42L53.3 40.7L51.8 33L46.5 23.7L47.1 18.5L46.1 0.300003L45.0819 5.42982L44.8 0.300003ZM45.0482 55.8373L46.2 54L44.8815 53.0582L45.0482 55.8373ZM56 4.9L54.4 11.2L56.4 17.2L56.8 22.2V23.936L55.1 30.6V34.1L56.9 36.2L57.2 38.9L58.7966 39.7709L58.8 39.8L61 41L64 37.5L63.3 35.7L61.8 28.8L60 21.3V13.3L59.1 7.8V5.8H57.6L57.5 6.19997V4.9H56ZM13.3 51.4L14 48.2L18.5 47.3L18.9173 47.4765L19.8 47.3L25 49.5L27.3 52.5L26.6 53.8L25.3075 53.7861L25.3 53.8L16 53.7L13.3 51.4ZM16.3 56.2V57.7V60.2L16.5 62L17.7649 61.6838L17.8 62L21 61.2H21.7H23L24.5 59.1L23 56.2H21.7H17.6H16.3ZM15.2 89.5V88.5L21.5 86.8L21.9194 87.0376L22.8 86.8L25.8 88.5V93.3L24.5 100.2L23.211 100.141L23.2 100.2L18.8 100H16.6H15.3L15.1 97L15.2 89.5ZM44.2 113L45.2 117.8L44.2 119.5V124.3L45.7 126L44.6 129.8H45.9H50.9H52.2H56.7H58L62.0557 127.997L66.4 129L66.9176 128.819L67.7 129L72 127.5L74.2 123.3V120.3L72 117.9L71.1371 118.377L70.7 117.9L67.1838 119.843L66.2 117.8L65 116L62.7 113H61.4H59.7H58.4L56.9 117.3L55.9 117.561V114L55.2 113.3H53.9H47.5L45.5 113L45.5419 113.201L44.2 113ZM14.6 131.8V127.3V122.5L16.7 120.5L17.9704 120.528L18 120.5L22.5 120.6H25.2V115.7H26.3L26.5 115.835V115.7H27.6L30.1479 117.426L33.4 115.8L33.7421 116.279L34.7 115.8L36.2 117.9L37.7 120.4L38 120.6V125.5L44.8 132.3L43.3828 132.183L43.5 132.3L31.3765 131.297L28.2 133.8L26.5 134.8L25.487 134.631L25.2 134.8L23.2082 134.472L23 134.8L21.9 135.2L19.7 134.3L18.1938 133.645L16.1 133.3L14.6 131.8ZM2.39999 114.4L3.6566 115.06L3.7 114.4L7.7 116.5H8.2H9.5V124.8L8.5 130.3L6.8 134L4.7 135.2L4.13066 134.782L3.39999 135.2L0.399994 133V131.5L1.7 128.8L4.5 127L2.89999 124.4L1.89999 122L2.39999 114.4Z" fill="url(#paint0_linear)"/>
<defs>
<linearGradient id="paint0_linear" x1="37.3" y1="0.300003" x2="37.3" y2="135.2" gradientUnits="userSpaceOnUse">
<stop stop-color="#D8B5FF"/>
<stop offset="1" stop-color="#1EAE98" />
</linearGradient>
</defs>
</svg>
