<svg width="1183" height="801" viewBox="0 0 1183 801" fill="none" xmlns="http://www.w3.org/2000/svg">
<path d="M1182.7 376.3C1182.5 375.5 1182.3 374.8 1182.1 374V557.6H1174.9V345.6C1169.7 325.4 1163.5 301.9 1156.1 274.2V384.7H1154.7V508.4H1153.3V384.7H1150.4V252.6C1149 247.3 1146 236.2 1146 236.2C1146 236.2 1145.4 233.8 1145 232.6V276.5H1140.2V214.5C1135.8 198.1 1131.8 183.1 1128.1 169.6V301.6H1121.3V175.5C1121.2 174.1 1121 171.2 1121 171.2C1121 171.2 1120.3 151 1120.3 140.9C1119.7 138.6 1119.1 136.3 1118.5 134.1H1114.5V119.2C1113.1 114 1111.9 109.1 1110.7 104.6C1109.9 105.6 1109.1 106.5 1108.3 107.5V141.8H1112.6V389.2H1109.8V396H1095.2C1095.2 396.3 1095.2 396.9 1095.2 396.9H1094.2C1094.2 396.9 1094.2 396.3 1094.2 396H1087.3V337.9H1096.3C1096.5 334.2 1096.6 326.7 1096.6 326.7L1098.7 305.9L1099.6 306.1L1097.5 327.9C1097.5 327.9 1097.3 334.6 1097.2 337.9H1101V235.9C1098.9 260 1090.5 280.7 1083.6 293.5V405.7H1073.5V287.4C1071.2 292.4 1068.8 298.1 1066.3 304.2H1072.8V325.1H1063.8V352H1056.1V354.2H1069.9V372.3H1056.1V398.8H1053.2V419.8H1053.5V428.9H1090.8V440.8H1053.5V446.7H1053.2V446.9H1112.5V463.9H1104.5V471.9H1084.5V473.9H1101.5V487.9H1016C1016 491.5 1016.1 498.6 1016.1 498.6H1015.1C1015.1 498.6 1015.1 491.4 1015.1 487.9H991.7V482.9H989.7V533.8H985.7V620H972.4V714.5H949.2V692H942.6V639.5H935.5C935.7 643.5 936.1 651.4 936.1 651.4L966.3 798.4L965.2 798.7L952 757.5C952 757.5 936.2 679.2 934.4 639.5H931V521.1H920.3V278.5C918 267.7 915.5 255.7 913.1 243.3V398.7H906.1V494H898.4V398.7H884.2V336.9H877.7V296.9H884V199.3C882.1 199.4 880.3 199.5 878.7 199.5C881.8 204.8 881.6 209.7 881.6 209.7C881.6 209.7 874.5 209.2 871.1 206.6V274.9H868.2V203.1C868.1 202.8 868.1 202.2 868.1 202.2C868.1 202.2 868.1 202 868.2 201.9V182.9C866.4 180.2 864.6 177.4 862.7 174.4V272.7H856.9V165.5C853.3 159.7 849.8 153.6 846.5 147.3V269.5H830.6V113.4H829.2V165.5H826.3V113.4H822.8V60.4C820.2 25.1 821.8 0 821.8 0C821.8 0 815.8 12.7 812.7 31.5H816.9V164.3H809.2V57.3C809.1 58.5 808.9 59.8 808.8 61.1V173.1C810.9 192 821.7 249.4 821.7 249.4L831.3 320.6C831.3 320.6 823.9 323.9 818.8 323.6V577.5H805.8V320.4C799.8 318.2 788.8 311 788.8 311C788.8 311 778.6 301.1 775.4 294.8V499.9H769.6V277.4C764.7 252.7 765.7 163 765.7 163C765.7 163 763.3 82.3 755.2 40V308.8H752.3V31.9H753.5C750.3 17.7 740.8 7.5 740.8 7.5C740.8 7.5 733.1 11.6 729.3 17.8V46.4H735V100.3H729.3V103.1H732.6V182.3H729.3V189.3H729.7V244.1H724.4V221.7H714.8V179.5H709.9V214.4H706.5V165.5H707.5V95.7C707.4 96.1 707.3 96.5 707.3 96.9V119H706.7V99.8C704.2 110.4 701.4 116.5 698.3 122V178.3H693.7V166.3C690.7 159.9 686.9 146.3 686.9 146.3C686.9 146.3 686.8 146 686.8 145.9C686.5 146.8 686.2 147.6 685.9 148.6V197.5H686.5V211.8H688.8V176.5H689.6V211.9H693.2V227.3H693.3V289.5H693.2V328.5H703.3V552H683V447.7C680.8 452.9 673.3 459.1 673.3 459.1C673.3 459.1 659.6 460.7 652.1 458.1V528.5H651.2V723.5H642.5V528.5H642.4V729H639.8V744.9H631.8V761.5H631.5V744.9H625.1V736.8H620.3V729H616.4V791.8H612.9V729H609.7V742.7H599.7V723H600V502.2H602V464.2C596.8 471 594.2 478.2 590.3 479.5V744.3H590.6V777.4H580V761.2H577.7V757.1H572.9V426.6C572.4 424.9 571.9 423.1 571.4 421.3V461H567.2V536.5H561.4V461.1H560.4V406.8H561.4V399H559.4V614.6H551.7V746.5H568.7V754H551.7V766.5H562.6V784H550.7V783.4H545.9V597.8H549.8V393.6H547V493H532.5V373.1H531.4V360.8H526.7V513.5H534.3V642.8H532.7V719.6H526.3V642.8H523.7V671.2H520.5V642.8H513.1V513.5H519.5V329.5H510.6V300.1H519.5V283.9H512.2V78.6C511.9 78 511.6 77.4 511.2 76.8V176.1H494.8V51.2C493.8 49.9 492.9 48.7 491.9 47.5V222.1H489V44.1C485.1 39.6 481.1 36 477.4 33.8V150H471.6V31.6C470.6 31.5 468.7 31.8 468.7 31.8C468.7 31.8 466 33.1 464.8 34.5V154.6H464.4C468.7 190.6 470.6 221.1 470.6 221.1C470.6 221.1 465 209.4 458.1 181.5V324.2H462V600.6H456.2V173.6C454.9 168 453.4 161.9 451.9 155.3V231.2H448.3V139.5C447.9 137.7 447.5 135.8 447 134H445.6C445.6 135.9 445.6 137.6 445.6 139.2V153.6H443.7C443.4 154.3 443.1 155 442.7 155.6V221.3H436.9V386H428.2V381.9H421.1V341.9H428.2V207.9H423.1V274.1H418V196.6H416.7V253.8H413.8V236.6H410.9V295.9H407V236.6H405.1V332.2H395.5V197.5C394.5 197.7 393.5 197.8 392.6 197.8V217.3H390.7V311.9H376.2V334.5H372.3V438.2H374.2V494.7H372.3V516.3H364.6V506H356.9V510.7H355.9V506H354.9V402.2C353.9 403.5 352.8 404.7 351.7 405.8V571H348.5V408.5C347.5 409.2 345.3 410.4 345.3 410.4C345.3 410.4 344.1 411 343.4 411.3V440.4H341.5V483.5H331.9V478.5H324.2V548.5H308.8V661.5H295.3V529.1H291.4V469.4H285.6V629.6H280.7V425.5C279.7 425.6 278.7 425.8 277.8 426V562.8H269.4V553.1H267.5V500.9H269.4V429.8C266.9 431.7 264.8 434.2 263 437.2V485.9H253.4C253.1 486.6 252.9 487.4 252.6 488.2C251.8 512.8 254 539.9 255.1 560.3H256.6V640.9H247.9V588C246.9 586.5 245.9 584.7 245 582.7V647.5H242.1V689.7H230.5V601.6H225.7V589.1H230.5V578.8H205.4V563.8H230.5V551.9H224.1V543.2H233.4V543.5H238.2C238.7 538.1 241.1 524.8 241.1 524.8C241.1 524.8 249.1 497.9 252.6 488.3C252.6 487.5 252.7 486.8 252.7 486H249.5V444.1H248.9V468.5H234.4V458.2H228.6V537.9H225.7V501.7H219.6V493.5H225.7V458.2H220.9V456.3H219.9V386.4C219.3 386.3 218 386 218 386C218 386 216.7 385.9 216.1 385.9V407H215.5V445.4H214.2V407H209.1V386.9C208.6 387.1 208 387.2 207.5 387.4V422.6H204.6V478.8H199.8V425.1H196.6V542.2H194.7V525.3H186.7V490.3H194.7V425H194.4V433.7H187V445.6H182.8V420.9H174.8V433.7C178.4 430.6 181.6 429 181.6 429C181.6 429 180.2 437.7 174.8 446.5V453.4H172.9V655.8H168.1V603.3H155.2V585.5H168.1V583.3H165.5V568.3H168.1V456.3C167 457.7 165.8 459 164.6 460.3V501.7H160.7V463.8C158.3 465.9 155.7 467.9 153 469.5V488.9H154.9V509.8H153V581.3H150.1V511.3H139.8V487.6H132.1V474C131.8 474 131.5 473.9 131.1 473.9V568.8H129.2V473.5C123 472.1 117.1 468.9 112.2 464.9V513.2H109.3V462.3C107 460 104.9 457.6 103.2 455.1V479.2H105.8V529.8H103.2V566H90.7V541.6H71.3V375.7H81.6V310.5H87.7V375.8H90.6V373H91.2C91.7 369.4 92.6 361.8 92.6 361.8C92.6 361.8 94.8 321.4 95.3 312.8C88.7 303.1 80.8 291.8 72.4 281.2C68.5 306.4 69 357.2 69 357.2H68L66.9 331.2C66.9 331.2 68.9 297.1 71.6 280.2C68.7 276.6 65.7 273 62.7 269.6V341.3H57.9V264.3C53 259.1 48.1 254.4 43.2 250.6C43.3 271 47.7 311.2 47.7 311.2L46.8 311.4C46.8 311.4 42.5 270.5 42.3 249.8C40.7 248.6 39.2 247.5 37.6 246.5V327.1H32.8V243.7C24 239.3 19.3 241.8 19.3 241.8L17.4 271.8L13.5 339.3L5.8 399.3L0 489.3L19.3 562.4L0 658L15.4 628L0 704.8L9.6 781.6C9.6 781.6 21.1 795.9 27.9 801H1162.6C1170.4 798.3 1177.2 795.4 1182.7 792.3V710.2C1180.9 694.9 1181.3 681.1 1182.7 669.4V376.3ZM62 589.7H57.8V378.9H62V589.7ZM323.7 789H320.2V607.2H323.7V789ZM361.7 791.8H358.8V705.6H361.7V791.8ZM387.7 486.3H386.7V329.8H387.7V486.3ZM403.8 682.2H399V453.8H403.8V682.2ZM424.4 777.7H423.7V795.2H417.9V777.7H412.8V448.8H424.4V777.7ZM487.7 580.1H483.4V279.3H487.7V580.1ZM503.5 751.5H499.6V603.4H503.5V751.5ZM690.6 661.5H688.7V584.7H690.6V661.5ZM705.4 268.6H704.6V229.9H705.4V268.6ZM723.4 646.5H711.8V380.4H723.4V646.5ZM735 167.7H739.8V194.9H735V167.7ZM742.7 663.4H737.9V385.1H742.7V663.4ZM850.8 512.6H837.8V315.9H850.8V512.6ZM1025.5 745.9H1000.6V603.4H1005.6V508.9H1020.5V603.4H1025.5V745.9V745.9ZM1131.7 402.9H1128.2V317.3H1131.7V402.9Z" fill="url(#paint0_linear)"/>
<defs>
<linearGradient id="paint0_linear" x1="591.335" y1="-0.0291" x2="591.335" y2="847.045" gradientUnits="userSpaceOnUse">
<stop stop-color="#7A1C43" />
<stop offset="1" stop-color="#FF2200"/>
</linearGradient>
</defs>
</svg>
