<svg width="1206" height="805" viewBox="0 0 1206 805" fill="none" xmlns="http://www.w3.org/2000/svg">
<path d="M1178.9 320.5V328.5H1178.6V351H1166.9V328.5H1151.8V292.4H1156.9V261.9C1154.7 265.3 1152.1 268.4 1148.9 271V344.4H1140.4V306.7H1134.6C1135.3 337.2 1135.8 398.2 1135.8 398.2H1134.7L1134.1 334.4C1134.1 334.4 1133.7 315.9 1133.5 306.7H1131.8V290.7H1133.1C1133 287 1132.9 283.3 1132.8 279.6C1129.8 280.5 1126.7 281.1 1123.5 281.5V320.8H1115.2V281.9C1111.9 281.8 1108.5 281.4 1105.2 280.7V445.3H1092V276C1091.2 275.6 1089.7 274.8 1089.7 274.8C1089.7 274.8 1080.8 268.6 1077 264.5V352.9H1073.7V260.7C1072.6 259.3 1071.4 257.8 1070.4 256.3V378.4H1077.7V450H1088.2C1088 440 1087.6 420 1087.6 420H1088.8C1088.8 420 1089.2 440 1089.4 450H1136.1V467H1128.1V475H1126.1V493H1090.3C1090.8 520.6 1091.1 575.8 1091.1 575.8H1089.9C1089.9 575.8 1089.6 520.6 1089.1 493H1077.8V618.7H1074.3V763.7H1069.7V618.7H1063.9V703.3H1044.2V544.9H1038.4V493H1030.3V566.4H1025.7V493H1017.2V491H1015.2V486H1005.2V477H991V591.9H973.6V583.8H971.3V492.5H973.6V468H961V460H973.4V433.4H990.8V460H1005V458H1025.5V428.4H1025.4V102.8C1022.7 88.3 1019.9 72.2 1017.1 55.5V264.2H1009.1V392.2H1000.2V264.2H983.8V181.3H976.5V127.6H983.8V0.7H979.4C981.6 5.7 980.9 10.6 980.9 10.6C980.9 10.6 972.7 9.9 968.8 6.4V98.2H965.5V1.7C965.4 1.3 965.4 1 965.4 0.7H959.1V95.3H952.4V0.7H940.5V90.6H922.2V0.7H901.8C904.3 19.2 912.1 63.4 912.1 63.4L923.2 159C923.2 159 914.6 163.4 908.9 163V503.9H893.9V159.1C887 156.1 874.4 146.5 874.4 146.5C874.4 146.5 862.6 133.2 859 124.8V400.1H852.3V101.3C848.1 77 848.6 44.7 848.4 0.7H835.6V143.5H832.3V0.7H806.1V56.5H800V26.5H789V0.7H783.4V16.7H779.5V0.7H759.9V13.2H764.1V33.8H764.2V117.3H764V169.8H775.7V469.8H752.4V329.8C749.9 336.8 741.2 345.1 741.2 345.1C741.2 345.1 725.4 347.3 716.8 343.8V438.2H715.8V700H705.8V438.4H705.7V707.6H702.7V729H693.4V751.2H693V729H685.6V718.1H680V707.6H675.6V791.9H671.5V707.6H667.8V726.1H656.3V699.7H656.7V403.1H659V352.1C653 361.2 650 370.8 645.6 372.6V728.1H646V772.6H633.8V750.8H631.2V745.3H625.6V301.6C625.1 299.3 624.5 296.9 623.9 294.5V347.9H619V449.2H612.3V347.9H611.1V275.1H612.3V264.7H610V554.2H601.1V731.2H620.7V741.3H601.1V758.1H613.7V781.6H600V780.8H594.4V531.5H598.8V257.3H595.6V390.7H578.9V229.7H577.6V213.1H572.2V418.2H581V591.8H579.1V695H572V591.9H569V630.1H565.3V591.9H556.8V418.2H564.1V171.2H553.8V131.8H564.1V110H555.7V0H532.4V26.9H529.1V0H507.5C509 15.6 508 25.7 508 25.7C508 25.7 504 18 499.7 0H493.6V164.1H498V535.2H491.3V0H486.3V39.2H482.1V0H475.7V26H469V247.1H459V241.7H451V188H459.1V8.1H453.2V97H447.3V0H445.8V69.7H442.5V46.7H439.2V126.4H434.8V46.7H432.6V175H421.5V0H418.2V20.7H416V147.7H399.3V177.9H394.9V317.1H397.1V393H394.9V421.9H386V408.1H377V414.4H375.9V408.1H374.8V268.8C373.6 270.6 372.4 272.2 371.1 273.6V495.3H367.4V277.2C366.2 278.2 363.7 279.8 363.7 279.8C363.7 279.8 362.3 280.6 361.5 281V320.1H359.3V378H348.2V371.3H339.3V465.2H321.5V617H306V439.2H301.6V359.1H294.9V574.2H289.3V300.2C288.1 300.4 287 300.6 286 300.9V484.5H276.4V471.5H274.2V401.5H276.4V306.1C273.6 308.7 271.1 312 269 316V381.3H257.9C257.6 382.3 257.3 383.3 257 384.3C256.1 417.3 258.6 453.7 259.8 481.1H261.5V589.3H251.5V518.3C250.4 516.3 249.2 513.8 248.2 511.2V598H244.9V654.6H231.6V536.5H226V519.7H231.6V505.9H202.7V485.8H231.6V469.9H224.2V458.2H234.9V458.6H240.4C240.9 451.3 243.7 433.4 243.7 433.4C243.7 433.4 252.9 397.3 256.9 384.4C256.9 383.4 257 382.4 257 381.4H253.3V325.2H252.6V357.9H236V344.1H229.3V451H226V402.4H219V391.5H226V344.1H220.4V341.6H219.3V247.7C218.6 247.5 217.1 247.2 217.1 247.2C217.1 247.2 215.6 247 214.9 247V275.3H214.2V326.9H212.7V275.3H206.8V248.3C206.2 248.5 205.6 248.8 204.9 249V296.2H201.6V371.7H196V299.6H192.3V456.9H190.1V434.3H180.8V387.3H190.1V299.7H189.7V311.4H181.2V327.3H176.4V294.2H167.1V311.4C171.2 307.3 174.9 305.1 174.9 305.1C174.9 305.1 173.2 316.8 167.1 328.6V337.8H165V609.6H159.4V539.1H144.6V515.2H159.4V512.3H156.4V492.2H159.4V341.4C158.1 343.2 156.8 345 155.3 346.8V402.3H151.2V351.4C148.4 354.3 145.5 356.9 142.3 359.1V385.2H144.5V413.3H142.3V509.3H139V415.4H127.2V383.5H118.3V365.3C117.9 365.2 117.6 365.2 117.2 365.1V492.5H115V364.5C107.9 362.6 101.1 358.4 95.4 352.9V417.8H92.1V349.5C89.4 346.5 87 343.2 85.1 339.8V372.1H88.1V440H85.1V488.7H70.6V456H48.4V233.3H60.2V145.7H67.2V233.3H70.5V229.5H71.2C71.7 224.7 72.8 214.4 72.8 214.4C72.8 214.4 75.3 160.1 75.9 148.6C68.3 135.5 59.2 120.5 49.5 106.1C45 139.9 45.6 208.1 45.6 208.1H44.5L43.2 173.2C43.2 173.2 45.5 127.4 48.6 104.7C45.3 99.8 41.8 95 38.4 90.4V186.7H32.8V83.3C27.2 76.3 21.5 70 15.9 65C16 92.4 21.1 146.3 21.1 146.3L20 146.6C20 146.6 15 91.7 14.8 64C13 62.4 11.2 60.9 9.4 59.6V167.9H4V55.9C2.5 55.1 1.2 54.4 0 53.9V804.1H1206V320.5H1178.9ZM37.7 520.6H32.9V237.5H37.7V520.6ZM338.9 788.1H334.8V544H338.9V788.1ZM382.6 791.9H379.3V676.1H382.6V791.9ZM412.5 381.7H411.4V171.6H412.5V381.7ZM431 644.7H425.4V338.1H431V644.7ZM454.7 773H454V796.5H447.3V773H441.4V331.4H454.7V773V773ZM527.5 507.7H522.5V103.8H527.5V507.7ZM545.8 737.8H541.4V539H545.8V737.8ZM761.1 617H758.9V513.8H761.1V617ZM778.1 89.4H777.2V37.4H778.1V89.4ZM798.9 596.9H785.6V239.6H798.9V596.9ZM821.1 619.5H815.5V245.9H821.1V619.5ZM927.1 781.2H917.8V387.8H927.1V781.2ZM945.5 417.1H930.5V152.9H945.5V417.1ZM1023.2 726.2H1015.1V581.2H1023.2V726.2ZM1033.6 790.6H1031.3V688.6H1033.6V790.6Z" fill="url(#paint0_linear)"/>
<defs>
<linearGradient id="paint0_linear" x1="603" y1="-271.215" x2="603" y2="866.078" gradientUnits="userSpaceOnUse">
<stop stop-color="#FF006A" />
<stop offset="1" stop-color="#FF2E00"/>
</linearGradient>
</defs>
</svg>
