<svg width="342" height="455" viewBox="0 0 342 455" fill="none" xmlns="http://www.w3.org/2000/svg">
<path d="M341.1 215C342.7 208 336.4 210.3 332.2 209.4C329.1 199.9 336.9 187.9 329.8 177.8C327.6 177.6 323.3 177.2 323.3 177.2L309.1 172.3L309.5 168L315.7 168.2C315.7 168.2 326.4 168.6 331.8 169.4C332.7 168.8 333.4 168.4 333.6 168.3C332.3 164.1 330.9 162 329.6 160.9C324.3 160.6 313.9 158.7 313.9 158.7L303.1 156.6L297.2 154.1L306.5 150.6L321 152.1C321 152.1 327.9 151.9 331.1 153C331.2 152.5 331.1 153.1 334.4 149.6C333.7 138.3 338.6 135.4 336.6 123.9C335.2 122 333.6 120.5 333.6 120.5L331.3 111.4L304.8 113C301.3 110.8 300.3 108 301.7 103.8C305.3 100.6 313.6 101.5 314.8 97.5C304.5 94.2 260.9 101.2 256.9 88.9C262.1 84.8 275.9 88.7 275.9 88.7L298.3 89L308.4 89.8C308.4 89.8 317.6 90 321.4 92.9L322.7 93.9C325.5 96.4 323.8 96.5 327.5 99.9C331.6 93.3 328.6 78.7 328.6 78.7L337.2 69.5C337.2 69.5 327.7 52.5 329.3 47L329.7 41.5C329.2 34.3 326.6 21.3 326.6 21.3C326.6 21.3 328.5 23.4 329.7 0.1H96.5C96.3 1.3 95.5 3.6 95.5 3.6L97.9 6.8L106.6 11L125.3 17.6L182.5 38.6L212.8 45.8L222.8 47.6L229.1 51.4L228.9 52.2L210.9 52.9L200.5 51L193.7 49.7L193.8 52.3L198.8 54.7L205.3 55.8L214.3 59.5L214.1 60.3L201.6 59.5L185.6 52.9L180.5 51.7L179.8 52.8L180.9 55.1L187.3 59.2L206.6 65.5L221.3 70.2L224.3 72.5L228.1 73.3L235.9 73.9L245.5 74.9L246.1 75.2L212.2 77.9L205.7 75.9L198.4 77L185.6 76.8L170.7 71.2L154.8 67.7L147 64.8L139.8 64.1L134 60L146 58.6L170.8 67L179.9 66L173.4 64L167.4 63.8L151.7 58.8L134.7 52.7L118.8 47.2L103.2 46C103.2 46 102.7 46.2 102.5 46C102.4 46.4 101.6 46.1 101.6 46.1C101.6 46.1 101.3 45.4 101.2 45.1C101.3 43.9 101.3 41.4 101.3 41.4C101.3 41.4 101.2 40.2 101 39.7C101.2 39.1 102 38 102 38L103.9 35.9L104.3 33.7L106.2 30.4L110.7 30.3L112.5 33.6L116.7 38L128.3 41.6L134.3 43.2L136.6 43.6L137.8 42.7L134.1 39.9L126.7 38.2L115.7 32L116.1 31.3L124.2 30.8L143.5 38.3L153.1 40L157.7 38.6L155.7 36.5L139.1 30.7L120.1 24.7L105.9 20.4C105.9 20.4 101.6 19.4 99.7 20.3C99.6 20.2 99.4 19.9 99.4 19.9L92.4 15.7L79 11.1C79 11.1 67 5.4 65.4 0H0.1V36C4.6 36.6 11.3 41.9 11.3 41.9L14.1 50.5L16.4 56L18.6 67.9C18.6 67.9 14.2 70.8 11.5 69.8C10.2 71.8 9.6 76.3 9.6 76.3L8.9 76.7L5 72.3L0.7 65.6C0.7 65.6 0.2 65.5 0 65.5V95.6C5.3 95.7 6.1 96.9 6.1 96.9C6.1 96.9 15.8 100.1 19 98.8C18.8 92.1 16.3 82.5 17.4 76C23.1 75 26.8 79.1 26.8 79.1L27 100.2C27 100.2 29.8 104.6 26.7 109C30.4 109.4 32.5 113.5 32.5 113.5C32.5 113.5 31.9 113 38.8 117.2C42 122.6 41.8 133.7 41.8 133.7C41.8 133.7 49 136.4 46.1 147.5C39.7 147.9 40.4 144.3 40.4 144.3L37.1 140.8V235.7H37.9V245.1H39.8V256.8H40.3V180H48.3V293.6C48.3 293.7 48.4 293.7 48.4 293.8V286.5H54.3V231.9H62.3V334.1L63.8 334C65.9 329.3 67.6 324.7 67.6 324.7C67.6 324.7 64.8 297.4 66.7 283.1L70.3 243.8C70.5 238.4 69.5 234.1 70.4 228.9C77.1 229.2 71.7 230.6 78.5 230.3C79.5 225.8 78.8 218.3 79 212.1C78.5 208.9 79.3 202.5 79.3 202.5L84.5 197.3L87.8 205.2L86.3 232.1L85 237.1C85 237.1 84.3 237 84 236.8C84.2 245.3 85.1 253.4 88.4 258.6C92.8 257.8 91.3 258 92.7 252.7L98.4 252.4C98.5 264.1 102.2 277.7 97.1 287.9C99.6 294.7 99.1 301.4 99.1 301.4L98.9 309.2C98.9 309.2 98.2 310.8 96.7 316C100.1 323.8 100.5 349.7 100.5 349.7L100.6 368.8L100.7 377.7C100.7 377.7 97.3 375.4 98.8 383.9L104.5 384.6V280.2C103.1 275.7 106.1 265.2 106.1 265.2L109.9 250.4L110.4 250.8L112 259.5L110.5 267.7C110.5 267.7 110 272.2 109.9 274.5H110.9V285.9C111.3 285.5 112.2 285.1 112.2 285.1L114.3 293.8L113.4 299.4C113.4 299.4 112.6 300.3 112 300.3C111.9 300.4 111.7 300.5 111.7 300.5L111 300.8C111 300.8 110.8 301 110.7 301.1V313.8C111.3 312 113.2 308.5 113.2 308.5L114.2 302.7L115.5 300.4L121.9 298.1C121.9 298.1 120.4 302.3 122.6 303.6V292.5H124.9V311.7H125.6V315.5H127.6C127.6 312.5 127 306.6 127 306.6L126.3 300.8L128.1 299.5L131.3 304.5L131.4 320.8C131.4 320.8 131.4 321 131.3 321.1V335.8C131.9 334.2 135.1 333.4 135.1 333.4L134.2 343C134.2 343 133.6 346.4 133.3 348.2V352.6C133.9 352 135.3 351.4 135.3 351.4C135.3 351.4 135.7 351.3 135.9 351.3V344.8H139.9V305.4H149.2V312.2H149.9V303.9H158.6V291.1H143.3V234.8H158.6V179.2H160.6V303.9H161.3V404C163.4 403.7 165.6 408.4 165.6 408.4C165.6 408.4 165.6 408.5 165.7 408.6V367.7H166.4V364.7H165.4V317.8H168.1V345H168.8V309.9H162.8V274.6H166.8V249.8H175.1V236.3H176.8V249.8H180.1V279.8H176.8V303.3H184.5V200.2H188.2V303.3H190.9V312.8C192.1 313.9 193.1 315.6 193.6 317.2V276.7H191.6V241.4H193.6V142.2H194.9V241.4H203.6V276.7H194.9V334.7H193.6V328.5C193.2 329.6 192.5 330.6 191.5 331.1C191.5 331.2 191.3 331.4 191.3 331.4C191.3 331.4 191 331.7 190.9 331.9V335.8H198.2V294.1H207.5V313.6H212.2V291.8H206V252.4H212.2V163.4H214.9V252.4H219.1V258.4C220.1 257 223.5 255.3 223.5 255.3L224.1 255.7C224.1 255.7 224.2 260.7 223.6 262.9H226.4V272.7C227.1 270.5 229.5 266.7 229.5 266.7L230.4 266.9L229.6 278.4C229.6 278.4 228.1 284.5 226.4 285.8V292.5H217.9V291.7H214.9V297.5H228.3V309.5C228.5 308.6 229.3 307.1 229.3 307.1L230.1 307.2C230.1 307.2 231.4 312.5 230.9 315.5H235V296.9H238.3V315.7H238.5V317.3C242 316.1 240.4 331.9 240.4 331.9L239.2 336.2C239.2 336.2 238.8 336.5 238.5 336.6V339.4H238.3V348.2H241.6V391.9C242.7 392 243.8 392.1 244.9 392.2V202.5H248.9V392.2C249.1 392.2 249.3 392.2 249.6 392.2V313.7H254.3V297.9H255V313.7H260.3V414.3C261.6 416.1 260.5 420.9 260.5 420.9C260.5 420.9 260.4 421 260.3 421V421.7C261 424.9 262.4 427.1 267.1 427.1C269.3 406.6 261.7 393.9 274.6 397C276.1 393.3 274.3 394.9 276.4 391.2C280.9 392.8 279.5 394.1 284.6 393.8C285 397.3 285.2 397.5 286.9 400.3C288.7 397.3 288.1 394.3 288.1 394.3C288.1 394.3 287.4 389.5 287.8 384.4L292.4 384.5C293 381.7 296.4 377.1 296.4 377.1L297.2 377.2C297.2 377.2 298.7 383.5 297.4 385.9C297.7 386.8 298.8 388.2 298.8 388.2L302 387.8L302.2 386.9L304.4 384.8L305 385.2C305 385.2 304.8 389.7 303.6 391.5C304 398 307.2 394.6 305.1 400L300.7 408.2C306 412.5 304.4 407.6 306.2 411.6C303.3 414.4 303.5 413.2 298.9 413.5L299.9 419.2C297.1 417.3 296 418.1 293.4 419.2C293.6 419.8 293.7 420.3 293.8 420.7C294 420.7 295.2 421.5 295.2 421.5C295.2 421.5 300.3 424.5 301 427.3C300.8 434.9 298.9 444.5 302.3 450.4C305 445.7 302.4 447.1 304.4 443.5C311.2 445.8 310.2 452.6 310.2 452.6C310.2 452.6 316.4 455.4 319.9 453.5C321.6 445.3 318.5 437 322.5 427.6C326.1 426.5 324.2 426.5 327.7 428.3C331.9 419 331 407.7 331 407.7C331 407.7 327.8 395.9 327.4 386.3C325.9 382.7 322.6 366.8 322.6 366.8C322.6 366.8 322.8 348.2 324.5 342.1L331 342.4C334.3 332 330.5 333 325 329.5L326.3 324.1L330.3 327.6C335.9 316.9 329.5 308.9 329.5 308.9L331.1 281.6V276.5V275.6C331.1 275.6 329 245.3 329.8 242.2L336.4 242.4C342.8 220.9 327 229.1 330.7 216.5C336.6 214.5 336.1 217.8 341.1 215ZM99.4 54C99.7 56.2 99.8 58.5 99.1 60.5C99.2 56.6 98.1 56.8 99.4 54ZM51.8 185.6L54.7 189.1L53.8 192.1C53.8 192.1 52.4 193.3 51.6 193.7C52 194.3 50.8 194.4 50.8 194.4L51.8 185.6ZM53.5 282.7H51.5V232.7H53.5V282.7ZM53.5 206.1H53.3C53.6 206.6 52.4 206.8 52.4 206.8L50.6 200.5L54.2 197.7L53.5 206.1ZM63.9 201.3C63.9 201.3 63.5 201.3 63.4 201.1C61 201 58 197.1 58 197.1L57.9 192.2L57 185.6L60 179.5L62.8 178.2C62.8 178.2 63.1 178.3 63.2 178.3C63.6 178.7 64 178.6 64.3 178C64.5 177.8 64.8 177.6 65 177.4C65.3 176.8 65.3 175.1 65.3 175.1L68 172.5L69.8 176.3V182.5L70.6 191.2L63.9 201.3ZM96.7 243.1C96.5 240.6 96.8 237.5 96.6 234.9C97 234.7 97.4 234.6 97.6 234.5C97.5 235.9 97.3 238.5 97.3 238.5C97.3 238.5 97.7 241.6 96.7 243.1ZM98.7 248C98.4 247.8 98 247.4 97.6 246.4L98.8 247.1C98.7 247.4 98.7 247.7 98.7 248ZM92.2 150.9L74.3 147.6L68.8 142.2C68.8 142.2 68.5 141.7 68.4 141.5C67.3 147.3 66 143.2 64.3 143.5L64.7 140.4C60.3 141.8 62.4 142.3 57.1 140.7C56.3 136.6 56 119.7 56 119.7L56.6 115.9L56.7 111.3C56.7 111.3 60.5 107.2 61.7 107.3C62.8 94.9 61.7 93.5 61.7 93.5L63.9 78.8L65.1 55.5C65.1 55.5 70 55.4 70 55.8C71.8 53.4 70.9 51.8 70.9 51.8C70.9 51.8 68.9 36.5 69.7 19.7C72.1 20 76.3 22.8 76.3 22.8L77.8 35.2C77.8 35.2 77.7 36.4 77.2 40.4L79.9 41.4C78.3 49.7 80.3 74.2 80.3 74.2L84.1 87.7C84.1 87.7 85.4 96.5 85.2 101.3C90 101.3 87.8 99.7 89.1 90.5C96.8 88.4 96.3 86 95.2 66C96.2 65.3 97 64.9 97.5 64.6C99.1 74.9 97.1 76.5 97.1 76.5L98.1 90C98.1 90 96.3 95.9 95.9 102L89.9 101.8C89.7 104.2 89.2 106.1 89.2 106.1C89.2 106.1 92.7 115.6 87.1 116.8C89.9 117 93.5 122.4 93.5 122.4C93.5 122.4 93.8 123.2 93.9 123.4C94.1 123.2 94.8 122.8 94.8 122.8C94.8 122.8 96.3 122.1 99 122.2L99.6 139.7C96.6 141.9 97.1 140.7 95.1 142.9C95.3 143.3 95.5 143.7 95.6 144C98.1 145.8 100.2 147.9 101.8 150.6C98.7 151.5 92.2 150.9 92.2 150.9ZM309 236.3H313V270.1H309V236.3ZM277.3 277.2H283.3V284.5H277.3V277.2ZM276.3 294.8V335.5H271V250.6H276.3V292.7C276.9 293.7 278.1 295.7 278.1 295.7L277.2 296.3C277.2 296.3 276.6 295.3 276.3 294.8ZM283.2 368.5C283.2 368.7 282.9 369 282.9 369L280.9 370.3C280.9 370.3 280.2 370.2 280.1 369.9C275.4 367.4 277.6 355.6 277.6 355.6L282.1 346.4L285.2 356.7C285.4 356.8 286.2 366.3 283.2 368.5ZM286.6 280.8V279.7V280.8ZM288 279.8H287.7V273.4H288V279.8ZM289 261.8C289 261.8 290.1 262.9 290.6 263.4V259.6H290.9V204.7H302.3V247.1H308.6V262.9H300.3V261.8H297V265.9H290.7V264.8L288.4 262.5L289 261.8ZM297 270.8V278.7H294.7V270.8H297ZM296.3 295.6H294.3V306.1H291V295.6H289.7V291.8H291V270H294.3V291.8H296.3V295.6ZM311.5 370.1L300 373.7L299 374C299 374 298.9 373.5 298.9 373.2C298.6 373.3 298.2 372.9 298.2 372.9L297.1 365.4L300.1 362L298.3 357.3L300.1 353.1L303.7 356.9L305.2 362.5L307.2 361.1L308.6 358.7L309.3 358.3L313.2 363.8L311.5 370.1ZM315.1 335.6C315.1 335.6 313.1 340.9 309.4 339.5C309.2 339.9 309 340.3 308.8 340.6C309 341.1 308.4 341.7 308 341.3C307.7 341.3 307.5 341 307.6 340.6C306.2 338.1 305.9 331.9 305.9 331.9L307.4 322.7L308.3 322.9L311.5 334.9L313.5 330.5L312.9 325.8L315.9 314.9L316.8 315L315.1 335.6Z" fill="url(#paint0_linear)"/>
<defs>
<linearGradient id="paint0_linear" x1="170.677" y1="0" x2="170.677" y2="454.161" gradientUnits="userSpaceOnUse">
<stop stop-color="#FCA5F1"/>
<stop offset="1" stop-color="#B5FFFF" />
</linearGradient>
</defs>
</svg>
