<svg width="265" height="289" viewBox="0 0 265 289" fill="none" xmlns="http://www.w3.org/2000/svg">
<path opacity="0.53" fill-rule="evenodd" clip-rule="evenodd" d="M46.3 6.19995L45.6 10.8L44.4 40.9999L46.2 43.3L47 37.7L47.4918 50.0638L45.7 48.9999L45.4789 50.8312L42.9 49.3L41.5175 60.7551C41.4402 59.9346 40.444 55.9217 40 55.3L39.3 59.9L38.1 90.1L39.9 92.4L40.7 86.8L40.7575 88.2461L40.7 89.7L40.8215 89.8553L41.4 104.4L40.1 117.9L39 101.4L38.6 119.7L38.4 139.2L39.4 139.1C39.4 139.1 39.6 143.4 40.2 147.4L40.1 161.9L40.0585 162.752C38.6747 162.24 37.1505 161.736 36.2 161.6L35.1533 162.241C34.6039 162.08 34.101 161.957 33.7 161.9L30.6 163.8L25.5 176.3L33.2 177.3L33.9938 176.778L35.7 177L37.1114 176.072L39.5 182.3L35.8637 186.216L32.2 180.8L31.5895 183.893L29.7 181.1L28.2 188.7L28.077 189.807L27.3 189.6L26.92 190.903L27 188.4L24.7 184L23.5281 186.749L22.3054 184.41L22.8351 169.736L22.9 170.6C22.9 170.6 24.3254 173.911 25.2119 169.027L25.3 170.2C25.3 170.2 28.4 177.5 28.3 154.9L26.2 151.4L24.6 128.6L21.5 119.2L14.4 117.4L14.1109 118.435L11.9999 117.9L9.79425 125.727C8.97485 124.385 8.00787 123.004 7.40002 122.7L6.59302 124.919C6.00562 124.042 5.42224 123.311 4.99994 123.1L3.39996 127.5L0.699951 156.3L4.79993 158.5L5.30737 157.084L7.13428 158.065L8.19995 170L6.83972 176.218L5.40002 166.8L4.83691 179.117L2.99994 167.1L2.19995 184.5L1.69995 203.1L3.89996 203C3.89996 203 4.24219 205.806 5.09644 208.927C4.72736 208.294 4.12012 207.428 3.79999 207.3L3.09998 209.1L1.90002 221.1L3.70001 222L4.36212 220.179L4.30005 220.8L4.61578 220.958L5.20001 226.8L4 232.2L2.90002 225.6L2.5 232.9L2.29999 240.7H3.29999C3.29999 240.7 3.5 242.4 4.09998 244L4 249.8L3.29999 255.5L4.5 260.1L5.40002 252.9L5.86768 253.835L5.70007 255.2L6.90009 259.8L7.80005 252.5L9.20007 255.3C9.20007 255.3 9.29578 251.506 9.34302 247.086L10.2598 239.11L10.3 239.6L10.8 244.3C10.8 244.3 10.4 246.3 10.2 252.6L12.6 254.2L12.7452 252.13L15.1 253.7L15.5001 248L16.6 240.1L14.8 243.4L15.1 234.3L14.3036 232.787C14.3325 231.064 14.3644 229.02 14.3951 226.766C14.7084 227.241 15.6841 228.101 15.6 220.2L14.6 218.7L14.4982 217.318C14.5599 209.566 14.5638 201.201 14.4 195.1L12.1198 203.08C12.0999 200.271 12.062 197.625 11.9999 195.3L10.9952 198.817L9.91498 187.951L12.4 187.9L12.4296 187.748L14.8 187.7C14.8 187.7 15.6166 183.504 16.5176 178.654L16.7999 189.1L18.5999 185.5L19.7 200L20.9 211.3C20.9 211.3 20.0999 216.2 19.4999 231.2L24.4252 234.894L24.4001 236.4L23.8 242.3L25.0001 247.1L25.9001 239.6L26.3497 240.603L26.2001 242.1L27.4001 246.9L28.3 239.3L29.7001 242.2C29.7001 242.2 30.0001 229.9 29.8 223.3L28.6 227.6L28.0024 221.281L28.1419 220.188L29.384 220.129L29.4001 220.9L29.7952 220.11L30.0001 220.1L30.1171 219.466L30.2001 219.3L30.7001 225.6L31.2001 230.5C31.2001 230.5 30.8 232.6 30.6 239.2L32.9001 240.9L33.2001 235L33.3286 233.946C33.2451 235.204 33.1627 236.831 33.1 238.9L35.4001 240.6L35.7001 234.7L36.8 226.5L35.1 229.9L35.4001 220.4L34.4001 218.5L33.3 221.1L33.5403 213.832L36.8 216.9L37.6601 215.157L39.3 216.7L42.3994 210.334L46.4 212.3C46.4 212.3 46.4532 211.755 46.5278 210.834L48.9 212C48.9 212 50.1 199.7 49.1 193.1L46.7823 194.98C46.7321 194.462 46.6716 193.966 46.6 193.5L43.2639 196.144L40.7706 190.3H47.3C47.3 190.3 47.4181 190.155 47.6254 189.9H49.8C49.8 189.9 51.8587 187.422 53.8575 184.89L55 191.5L54.5 204.4C54.5 204.4 56.6921 206.891 57.8936 204.911C58.0773 205.045 58.2831 205.174 58.5 205.275V206.4C58.5 206.4 59.7 218 60.2 222L58.5 224.4L58.8 231.8L57.8136 235.835C57.7994 235.805 57.7851 235.775 57.7706 235.744C57.7564 235.715 57.7421 235.685 57.7277 235.656L57.7 235.6L57.6894 236.36L56.8 241.4C56.8 241.4 56.4 238 55.2 235.6L54.9 257.2L56 260.3L57.5 270.2L56.9 253.6L57.4381 254.455L57.4 257.2L58.4999 260.4L59.9999 270.3L59.4 253.7L60.0098 254.669C60.0502 258.064 60.3177 261.727 61.3 261.4L61.6 252.6L63.3991 246.103L62.5999 249.3C62.5999 249.3 61.9999 262.1 63.7999 261.5L64.0999 252.7L65.9 246.2L66.5999 233.2L66.6792 210.127L68.4989 210.439L67.9 240.9L73.3 252C73.3925 254.394 73.4028 257.33 73.414 260.484V260.487V260.489V260.492V260.495V260.498V260.5V260.503V260.506V260.509V260.512V260.515V260.518V260.521V260.524C73.4609 273.825 73.5212 290.962 79.7219 287.567C80.6722 288.245 81.8756 288.113 83.4 286.9C83.5309 277.301 82.4624 268.691 81.4322 260.391V260.39L81.432 260.39L81.4316 260.386C80.2062 250.512 79.0351 241.074 80.0026 230.927C80.4484 231.764 80.768 232.678 81.0777 233.564C81.9626 236.095 82.7664 238.394 86.2 238C86.186 237.801 86.1722 237.603 86.1588 237.406C86.8501 237.839 87.7559 238.04 89 237.9C87 209.5 90.8 204.7 90.8 204.7C90.8 204.7 89 184.9 88.3 175.5V188H88.2H86.5595C86.1704 183.456 85.78 178.891 85.5 175.6V188H84.7V165.7C84.6 166.1 84.5 167 84.5 167C84.5 167 85.3893 174.559 82 181.639V165.9C81.9 166.3 81.8 167.2 81.8 167.2C81.8 167.2 82.8478 176.106 78.3347 183.556C76.3229 181.566 75.5627 179.675 75.2498 177.748C75.3063 177.086 75.3254 176.34 75.3 175.5L75.037 175.401C75.0237 175.087 75.0136 174.771 75.0034 174.452C74.9084 171.485 74.8057 168.278 72.1 164.4L71.9767 170.677C71.6957 169.092 71.1466 167.402 70.0236 165.555C70.0903 158.017 70.2646 135.528 70.0999 122.6L68.7999 132.9L68.0999 114.9L70.2999 114.8C70.2999 114.8 71.5999 99.2 71.9999 92.7L72.2 116L72.9999 112.2L73.4999 127.4L73.9999 139.3C73.9999 139.3 73.5999 144.4 73.2999 160.2L75.7 164.3L76.0999 150L77.2 130.3L75.4 138.5L75.7 115.5L74.7 110.8L73.4999 117.2L73.9 88.1V65.4999L74.9 96.3C74.9 96.3 76.2999 103.9 76.2999 80.2L75.2999 76.4999L74.5999 52.6L73.2 42.7L69.9999 40.8L68.6174 52.2551C68.5401 51.4346 67.5439 47.4217 67.0999 46.8L66.4 51.4L65.2 81.6L66.9999 83.9L67.7999 78.3L68.4999 95.9L67.2 109.4L66.0999 92.9L65.7 111.2L65.4999 130.7L66.4999 130.6C66.4999 130.6 66.7 134.9 67.2999 138.9L67.2 153.4L66.7327 163.011L64.3857 161.38L63.7 158.1L63.6669 160.88L62.4 160L61.4222 159.941L61.1 158.4L61.0818 159.921L57.0144 159.676C57.0719 153.404 57.2729 129.279 57.0999 115.7L55.7999 126L55.2391 111.578L55.3 109.4L55.3788 107.987L57.2999 107.9C57.2999 107.9 58.5999 92.3 58.9999 85.8L59.2 109.1L59.9999 105.3L60.4999 120.5L60.9999 132.4C60.9999 132.4 60.5999 137.5 60.2999 153.3L62.7 157.4L63.0999 143.1L64.2 123.4L62.4 131.6L62.7 108.6L61.7 103.9L60.4999 110.3L60.9 81.2V58.6L61.9 89.4C61.9 89.4 63.2999 97 63.2999 73.3L62.2999 69.6L61.5999 45.7L60.2 35.8L56.9999 33.9L55.6049 45.4586C55.5964 45.3597 55.5486 45.0958 55.4742 44.7332C55.4909 43.2112 55.5 41.5069 55.5 39.6L54.5 35.9L53.8 11.9999L52.4 2.09998L49.2 0.199951L47.8049 11.7591C47.7618 11.2784 46.768 6.85522 46.3 6.19995ZM47.8 11.8C47.8064 11.8064 47.8079 11.792 47.8049 11.7591L47.8 11.8ZM55.6049 45.4586C55.6068 45.4803 55.6068 45.494 55.6048 45.4991C55.6038 45.5018 55.6021 45.5021 55.5999 45.4999L55.6049 45.4586ZM68.5999 52.4C68.6223 52.4112 68.6272 52.3585 68.6174 52.2551L68.5999 52.4ZM41.5 60.9C41.5224 60.9112 41.5273 60.8585 41.5175 60.7551L41.5 60.9ZM21 185.3L21.1384 187.125L19.7 190.5L19.8011 187.698L21 185.3ZM23.7999 151.8L23.1 141.869V140.9L23.9354 152.026L23.7999 151.8ZM13.131 242.476L12.7001 239.1L12.53 237.024L12.3 244L13.131 242.476ZM12.1914 234.124L11.9148 233.535L11.898 233.566L12.1914 234.124ZM68.5999 161.1L69.3911 165.056L69.3422 167.539L68.4303 164.53L68.5999 161.1ZM53.6772 42.6781L53.1 24.9V47.4999L53.0044 54.4554L53.4 44.4999L53.6772 42.6781ZM52.2558 73.2951L52.2 74.7L52.3065 74.8361L52.7 86.8L52.9516 92.7871L52.7 104.3L52.5851 115.502C52.5562 116.78 52.5276 118.145 52.5 119.6L52.5423 119.672L52.4999 123.8L53.4999 123.7C53.4999 123.7 53.7 128 54.2999 132L54.2 146.5L53.5695 159.469L51.6788 159.355L51.7 158.6L52.7999 138.8L50.9999 147L51.2999 124L50.2999 119.3L49.2229 125.044C49.2449 122.57 49.279 118.421 49.3087 113.508L49.5999 96.4999V73.8L50.5999 104.6C50.5999 104.6 51.9999 112.2 51.9999 88.4999L50.9999 84.8L50.375 63.3739C50.7 59.2344 51.0306 54.8517 51.2 52.1L51.4 75.4L52.2 71.6L52.2558 73.2951ZM55.3341 159.575L56.6913 159.657L55.5999 154.2L55.3341 159.575ZM54.6765 97.5515L55.4999 88.9999L54.7999 71.4L54.541 73.2125L54.9 74.9L54.6 97.9L54.6765 97.5515ZM52.8907 75.5826L52.7 76.6L52.717 75.3607L52.8907 75.5826ZM45.3898 123.123L45.9 123.1L45.7 127.2L46.3044 132.992L46.4 135.9L46.9 147.8C46.9 147.8 46.6614 150.842 46.4146 159.507L46.3 159.5L45.7231 159.969C45.7743 150.479 45.8011 138.896 45.7 130.9L44.4 141.2L43.7 123.2L45.0883 123.137L45.1 124.5L45.3898 123.123ZM48.3 147L48.5939 124.469L48.7523 125.261L49.0999 135.9L49.3629 142.158L48.3 147ZM95.9 29.4V24.7H95.8V24.6H95.5L95.5012 24.7H94.8V24.8V27.4H94.3H93.2V24.7H93V28.9H92.5H92H91.8V24.7H91.7C91.4 33.0999 90.5 35.4 90.5 35.4C90.5 35.4 89.8 32.4999 89.6 24.7H89.3C89.2 28.7 89.1 37.3 89.1 37.3C89.1 37.3 88.8 40.8 88.9 56.8C89.3002 63.8421 89.316 63.6478 89.6139 60.0094C89.6882 59.1012 89.7802 57.9784 89.9 56.7C89.9293 57.2208 89.9561 57.7011 89.9808 58.1441L90.0581 59.5338L90.0587 59.5432C90.2657 63.2674 90.2729 63.3976 90.3351 63.4338L90.342 63.4376C90.3914 63.4628 90.476 63.506 90.7 64.9999L90.6 79.4999C90.1 87.2999 89.9 93.9 89.9 93.9L91.1 105.4C91.1 105.4 91.5 98.2 92 87.2C92.1913 88.4438 92.3319 89.8097 92.4573 91.0283L92.4575 91.0306L92.4578 91.0339L92.4584 91.0387L92.4591 91.046C92.5179 91.6177 92.5734 92.1567 92.6292 92.6351C92.6094 93.1943 92.6 93.4999 92.6 93.4999L93.8 105C93.8 105 94.2 97.8 94.7 86.7C94.8907 87.9395 95.0308 89.3002 95.156 90.5158L95.1562 90.5169L95.1573 90.5282L95.1575 90.5308C95.425 93.132 95.6234 95.0617 96.1 93.7C96.3 78.4 96.4 63.9 96.2 48.1L94.9 58.4L94.2 40.4C94.3749 37.0783 95.093 37.5941 95.6619 38.6027L95.7 41.9L96.1672 39.681C96.3105 40.036 96.4 40.3 96.4 40.3C96.4 40.3 96.4527 40.0281 96.5377 39.556C96.7356 46.9529 97 53.3 97 53.3L97.5 65.2C97.5 65.2 97.1 70.3 96.8 86.1L99.2 90.2L99.6 75.9C99.6706 75.7057 99.7568 75.7017 99.8499 75.6974C100.284 75.6771 100.865 75.65 100.7 56.3C100.391 55.9021 100.12 58.8271 99.8629 61.6097C99.5383 65.1208 99.2347 68.4051 98.9 64.4999C98.9429 59.1908 99.004 57.1997 99.0599 55.3793V55.3778C99.1346 52.9471 99.2 50.8192 99.2 41.4999C98.3 46.8999 98.2 36.8 98.2 36.8C98.2 36.8 97.7 46.9 97 43.2V36.7878C97.3318 34.6391 97.6974 31.8591 97.8 29.4999H97V29.4H95.9ZM91.6099 43.8255C91.6311 41.851 91.661 40.3839 91.6907 39.3115C91.6052 39.7078 91.5391 40.2582 91.5 40.9999L91.6099 43.8255ZM117.1 47.7H108.3V30.1H106.8V25.8H106.7V29.6H104V25.8H103.7V29.1V77.2H107.7V161.853C107.632 161.742 107.566 161.624 107.5 161.5V164.144C106.652 164.071 105.682 163.564 104.9 162V167.9H103.2V136.8H96.2V170.6C96.8854 172.245 97.571 174.313 98.2565 176.837L98.0001 176.9L93.1 182.1L92.9001 193.2L92.3 201.9C92.3632 201.711 93.2229 200.366 95.0552 199.249L94.9 201.5C94.918 201.482 94.9512 201.44 95.0004 201.378C95.3626 200.919 96.5875 199.368 98.9064 198.344C98.5879 199.08 98.0176 200.569 97.0001 203.5L100.868 204.509C99.4175 207.417 97.8141 210.024 96.0999 212.5C96.0172 216.804 95.8823 220.922 95.7557 224.787C95.1177 244.271 94.6899 257.336 102.2 255.5L103.6 224.5C108.913 226.254 111.139 220.079 112.05 213.689C113.007 213.411 113.86 213.162 114.4 213V205.5C114.4 205.5 118.1 203.9 116.8 198.7L121.6 197.7L117.1 185.9L115.598 164.475L116.3 155.8L117 53.1C117.1 53.2 117.1 49.4023 117.1 47.7015V47.7ZM112.647 161.38L114.8 153.1L115.2 158.804V114.3H108.7V163.034C108.975 163.254 109.253 163.404 109.526 163.502L112.1 153.6L112.647 161.38ZM104.9 174.521V175.2L101.509 176.035C103.11 173.186 103.876 172.966 104.9 174.521ZM227.9 272.6H224.781L224.8 272.7H111.6L113.4 265.8L109.7 261.8L111.5 251.4C113.482 250.828 114.883 250.939 115.858 251.296C116.986 251.122 117.877 251.2 118.575 251.403L121.2 244.8L115.594 240.796L117.3 247.1L114.285 246.475L114.4 246.9L103.3 244.6L103.6 234.5C107.5 232.2 109.1 232.7 109.1 232.7L112.9 220.4L115.65 220.989L115.8 220.5L120.025 221.405C121.151 217.156 123.1 215.3 123.1 215.3L125.211 216.369C125.673 215.711 126 215.4 126 215.4L130.658 217.76L130.864 213.034L128.826 206.424L128.2 213.7L123.7 199.1L122.5 183L125.1 176.8L127.9 149.6L129.077 147.979L129.1 145.7L129.5 127.4L130.6 143.7L131.9 130.2L131.2 112.6L130.4 118.2L128.6 115.9L129.8 85.7L130.5 81.1C130.95 81.7302 131.968 85.8455 132.02 86.733L132 86.9C132.02 86.89 132.026 86.8313 132.02 86.733L133.4 75.3L136.121 76.9153L136.4 74.6L139.6 76.4999L141 86.4L141.7 110.4L142.7 114.1C142.7 137.8 141.3 130.2 141.3 130.2L140.3 99.4V122.1L140.026 138.093L141.2 136.8L141.822 148.764L142 149.6L141.973 151.667L142.5 161.8L147.27 166.763C147.565 162.155 147.9 153.6 147.9 153.6L155.4 141.1L155.836 145.107L158.3 141L159.8 154.8L159.4 172.1L154.5 173.8C152.7 182.8 149.7 181.7 149.7 181.7L153.2 197.8L150.138 197.154L150.3 197.9L142.071 196.164L142.002 198.634L143.069 199.501C143.343 198.999 143.569 198.586 143.73 198.293C143.903 197.977 144 197.8 144 197.8L149.9 202.7L148.373 216.782L154.4 212L154.812 213.974L157.3 212L160.2 225.5L159.3 230.6L160 238.7L156.7 240L154 243.6L148 248.3L149.1 250.1C149.3 250.3 149.7 250.9 149.7 250.9L150.9 252C151.978 252.634 153.701 252.957 155.55 253.101C158.513 253.09 161.1 252.8 161.1 252.8L178.1 252.4L180.8 245.8L173.6 243.1C173.5 237.1 177.1 232.7 177.1 232.7L173.6 226L171 217.7L172.5 209.2L171.5 200.3L175.468 209.845L175.6 209.1L174.6 200.1L180.075 213.095L181.6 206.6L183.2 206.5V182.7C186.48 181.438 187.673 179.257 188.743 177.302C190.218 174.607 191.457 172.341 197.6 173.5C197.504 179.567 196.596 180.464 195.848 181.203C195.042 181.999 194.422 182.611 195.2 189.3L204.5 189.9C197.2 176.5 200.7 153.8 200.7 153.8L201.5 132.3L196.2 118C196.2 118 195.6 109.8 195.7 105.8H197.1V65.1H199.1C199.2 65.2 199.3 65.4999 199.3 65.4999C199.3 65.4999 202 78 202.5 86.8V114.4H202.9V119.8C204.09 120.884 205 121.542 205.707 122.052C207.671 123.472 208.059 123.751 208.5 128.9V214.7C204.5 215 200.7 214.5 196.8 212.3L195.9 199.2C191.4 201.9 191.6 203 191.6 203C191.6 203 190.433 199.889 186.087 206.32L186.4 206.3L189.6 206.1C191.6 211 189.8 220.6 189.8 220.6L185.8 231L181.6 232.6C183.364 233.433 184.816 233.876 186.003 234.07C187.249 233.7 187.7 233 187.7 233L187.686 234.189C190.021 234.107 190.8 232.9 190.8 232.9L190.604 249.592L195.1 249L196.043 249.184L198.2 248.9L202.822 249.8L203 244L207.8 238.8L207.985 241.858L210.9 238.7L211.596 250.33L217.4 250.2L217.53 250.204L220.7 250.1L228.924 250.386L231.1 231.2L243.9 229.7L243.949 229.981L247.2 229.6L248.1 234.8C242.7 236.8 235 237.9 235 237.9L239.8 238.9L235.1 239.6C243 241.7 244.4 244.1 244.4 244.1L238.6 245.1L238.8 249.9C232.9 251.7 230.2 253.9 230.2 253.9L219.7 254.6L249.1 259.7L255.7 264.1L265 265.7L256 266.4L248.4 269.2L245.58 269.16L245.2 269.3L227.227 269.044L227.9 272.6ZM133.558 179.229L133.549 180.606L133.554 179.241L133.558 179.229ZM136.466 173.687L137.344 172.459L137.4 173.8C137.4 173.8 137 178.9 136.7 194.7L139.1 198.8L139.243 193.687L139.4 195.6L140.296 195.789L141.924 198.57L141.1 197.9C141.1 197.9 139.458 200.892 137.655 204.224L136.315 200.747C136.352 196.644 136.45 185.05 136.466 173.687ZM137.498 137.784C137.767 134.352 138.037 130.784 138.214 128.14L138.3 130.8C138.3 130.8 138.313 130.869 138.336 130.973L138.403 138.885L138.3 136.9L137.498 137.784ZM180.2 232.7C180.2 232.7 180.039 232.896 179.787 233.262C179.378 233.099 178.949 232.912 178.5 232.7L179.921 232.159L180.2 232.7ZM233.45 239.479L233.381 240.089C232.944 239.959 232.484 239.829 232 239.7L233.45 239.479ZM233.651 237.701L233.576 238.37L231.8 238C231.8 238 232.512 237.898 233.651 237.701ZM135.639 198.993L134.9 195.3L134.823 196.876L135.639 198.993ZM41.2603 123.388L41 123.4L41.2061 128.699L41.2603 123.388ZM48.9777 159.299L49 158.5L49.437 150.673C49.3505 152.48 49.2388 155.236 49.1245 159.201L49.1 159.2L48.9777 159.299ZM49.5893 147.946L49.5966 147.845L49.5999 147.8L49.5989 147.775L49.5893 147.946ZM41.6086 139.049L42.0017 139.01L41.7 141.4L41.6086 139.049ZM31.7 212.1L31.7238 212.05L31.7001 210.9L31.3818 212.62L30.905 215.2L30.7001 221.4L31.8 218.8L31.8655 218.924L31.7253 212.124L31.7 212.1ZM34.2559 206.714L33.7001 207.886V199.6L34.2559 206.714ZM32.3129 219.774L32.8 220.7L32.5001 230.2L33.4967 228.207L33.2001 225.3L32.7001 219L32.3129 219.774ZM63.4 246.1L64.9 240.1L63.718 240.239L63.4 246.1ZM61.364 244.144L62.4 240L61.1735 240.144L61.364 244.144ZM58.5714 237.9L58.5 236.4L59.7893 238.627L59.2999 241.4C59.2999 241.4 59.1031 239.727 58.5714 237.9ZM57.3704 197.221L57.1 193.3L57.5536 191.032L57.5999 191.3L57.3704 197.221ZM68.9312 188.446L69.0385 182.99C67.8901 183.037 66.9 182.5 66.9 182.5L66.173 180.302C66.0809 183.226 65.9659 186.514 65.8881 188.706L65.9 188.7L66.9803 189.177L68.6 188.3L68.9312 188.446ZM89.4 136.9H94.2V167.4C93.4181 166.566 92.5275 166.194 91.5 166.241V167.8C90.9415 167.204 90.3276 166.844 89.6478 166.704C89.2189 166.885 88.77 167.118 88.2999 167.4C88.2999 167.649 88.275 167.874 88.2501 168.099L88.2499 168.1L88.2498 168.101C88.2249 168.326 88.2 168.551 88.2 168.8V166.713C87.4125 166.862 86.5496 167.23 85.6 167.8C85.6 168.05 85.575 168.275 85.55 168.5C85.525 168.725 85.5 168.95 85.5 169.2V156C86.1 154.9 86.7 153.5 87.5 151.4L86.7 137.2H89.417L89.4 136.9ZM235.9 75.8L235.6 69.1L233.3 58.1L233.1 74.9L233.5 82.6L232.529 87.2315C232.663 83.6976 232.8 78.9355 232.8 76.3L232.5 69.6L232.27 68.4983L232.4 67.4L231.71 65.8232L230.2 58.6L230.146 63.118L229.5 62.3V71.2C229.5 71.2 229.2 73.0999 228.9 78.7L228.127 78.2081L228.1 77.9L229.3 67.8L227.9 64.6L226.4 62.7V71.6C226.4 71.6 226.1 73.5 225.8 79.1L224.7 78.4L223.6 72.4L222.7 83.6L224.1 91.7L223.6 104.6C223.6 104.6 225.8 107.1 227 105.1L226.956 104.461C227.115 104.612 227.339 104.807 227.6 104.986V106.6C227.6 106.6 228.8 118.2 229.3 122.2L227.5 124.7L227.8 132.1L226.7 136.6L225.8 141.7C225.8 141.7 225.4 138.3 224.2 135.9L223.9 157.5L225 160.6L226.5 170.5L225.9 153.9L227.021 155.681L227 157.2L228.1 160.4L229.6 170.3L229.182 158.733C229.358 160.577 229.692 161.903 230.3 161.7L230.492 156.069L230.7 156.4L230.894 151.837L232.4 146.4L232.737 140.191L232.8 140.3L234.5 140.1L232.2 149.3C232.2 149.3 231.6 162.1 233.4 161.5L233.7 152.7L235.5 146.2L236.2 133.2L236.3 104.1L235.4 91.2C235.5 91.0999 235.9 80.4 235.9 75.8ZM226.2 93.4999L226.786 101.992L227.2 91.3L226.94 89.7976L226.2 93.4999ZM228.148 137.819L229.209 139.651L228.9 141.4C228.9 141.4 228.697 139.677 228.148 137.819ZM229.004 153.707L229.004 153.81L229 153.7L229.004 153.707ZM231.4 140.3L230.88 142.38L230.784 140.372L231.4 140.3ZM191.8 90.6V65.1H191C190.7 71.5 190.5 82.4 190.5 82.4C190.5 82.4 191.2 89.7 191.8 90.6Z" fill="url(#paint0_linear)"/>
<defs>
<linearGradient id="paint0_linear" x1="132.85" y1="0.199951" x2="132.85" y2="288.003" gradientUnits="userSpaceOnUse">
<stop stop-color="#ff9966"/>
<stop offset="1" stop-color="#ff5e62" />
</linearGradient>
</defs>
</svg>
