<svg xmlns="http://www.w3.org/2000/svg" viewBox="0 0 1440 320">
<linearGradient id="paint0_linear" x1="720" y1="0" x2="720" y2="320" gradientUnits="userSpaceOnUse">
<stop stop-color="#4ECDC4"/>
<stop offset="1" stop-color="#556270"/>
</linearGradient>
<path fill="url(#paint0_linear)" fill-opacity="1" d="M0,160L20,170.7C40,181,80,203,120,186.7C160,171,200,117,240,106.7C280,96,320,128,360,144C400,160,440,160,480,133.3C520,107,560,53,600,48C640,43,680,85,720,101.3C760,117,800,107,840,85.3C880,64,920,32,960,37.3C1000,43,1040,85,1080,138.7C1120,192,1160,256,1200,266.7C1240,277,1280,235,1320,224C1360,213,1400,235,1420,245.3L1440,256L1440,320L1420,320C1400,320,1360,320,1320,320C1280,320,1240,320,1200,320C1160,320,1120,320,1080,320C1040,320,1000,320,960,320C920,320,880,320,840,320C800,320,760,320,720,320C680,320,640,320,600,320C560,320,520,320,480,320C440,320,400,320,360,320C320,320,280,320,240,320C200,320,160,320,120,320C80,320,40,320,20,320L0,320Z"></path></svg>