<svg width="1440" height="594" viewBox="0 0 1440 594" fill="none" xmlns="http://www.w3.org/2000/svg">
<path fill-rule="evenodd" clip-rule="evenodd" d="M20 144.7L0 134V229V230V594H1440V230V229V102L1420 96.7C1400 91 1360 81 1320 86C1308.8 87.4003 1297.59 90.1341 1286.39 92.8678C1257.59 99.8952 1228.8 106.923 1200 91.3C1183.16 82.3305 1166.31 65.789 1149.47 49.2475C1126.31 26.5078 1103.16 3.76815 1080 0.700001C1048.87 -3.73664 1017.73 27.9954 986.597 59.7274C977.731 68.7633 968.866 77.7992 960 86C920 123 880 145 840 128.7C824.367 122.564 808.735 110.579 793.102 98.5929C768.735 79.9103 744.367 61.2276 720 64.7C694.112 68.1301 668.225 96.1469 642.337 124.164C628.225 139.437 614.112 154.71 600 166C560 198 520 198 480 198C440 198 400 198 360 166C346.667 155.333 333.222 140.611 319.778 125.889C292.889 96.4445 266 67 240 70C216.007 70 192.015 93.0256 168.022 116.051C152.015 131.414 136.007 146.776 120 155.3C81.2064 176.346 42.4128 156.287 21.8637 145.662C21.2246 145.332 20.6032 145.011 20 144.7Z" fill="url(#paint0_linear)"/>
<defs>
<linearGradient id="paint0_linear" x1="720" y1="0.283081" x2="720" y2="594" gradientUnits="userSpaceOnUse">
<stop stop-color="#F2709C"/>
<stop offset="1" stop-color="#FF9472"/>
</linearGradient>
</defs>
</svg>
