<svg width="1440" height="643" viewBox="0 0 1440 643" fill="none" xmlns="http://www.w3.org/2000/svg">
<path fill-rule="evenodd" clip-rule="evenodd" d="M20 134.7L0 124V278V284V643H1440V284V278V220L1420 209.3C1419.22 208.896 1418.4 208.474 1417.56 208.037C1396.86 197.325 1358.43 177.431 1320 188C1305.11 192.094 1290.23 200.481 1275.34 208.868C1250.23 223.017 1225.11 237.167 1200 230.7C1166.81 222.154 1133.62 176.36 1100.43 130.566C1093.62 121.17 1086.81 111.774 1080 102.7C1040 49 1000 7 960 1.3C928.917 -2.81854 897.833 15.5868 866.75 33.9922C857.833 39.272 848.917 44.5519 840 49.3C800 71 760 81 720 65.3C705.86 59.5378 691.719 50.564 677.579 41.5901C651.719 25.1788 625.86 8.76754 600 12C574.446 15.1943 548.892 38.387 523.338 61.5798C508.892 74.6908 494.446 87.8018 480 97.3C440 124 400 124 360 108C349.097 103.639 338.194 98.089 327.291 92.5391C298.194 77.7278 269.097 62.9165 240 70.7C218.683 76.1891 197.366 94.0896 176.049 111.99C157.366 127.678 138.683 143.367 120 150.7C81.3656 166.444 42.7312 146.458 22.1175 135.794C21.3889 135.417 20.6828 135.052 20 134.7Z" fill="url(#paint0_linear)"/>
<defs>
<linearGradient id="paint0_linear" x1="720" y1="0.716675" x2="720" y2="643" gradientUnits="userSpaceOnUse">
<stop stop-color="#DDD6F3"/>
<stop offset="1" stop-color="#FAACA8"/>
</linearGradient>
</defs>
</svg>
