<svg width="1440" height="626" viewBox="0 0 1440 626" fill="none" xmlns="http://www.w3.org/2000/svg">
<path fill-rule="evenodd" clip-rule="evenodd" d="M20 106.669L0 101.369V261V261.369V626H1440V261.369V261V101.369L1420 128.069L1418.91 129.503C1398.57 156.273 1359.29 207.982 1320 186.669C1296.66 174.239 1273.31 136.367 1249.97 98.4949C1233.31 71.4724 1216.66 44.45 1200 26.6694C1160 -15.6306 1120 -5.63058 1080 42.6694C1068.22 56.7226 1056.43 74.1001 1044.65 91.4776C1016.43 133.084 988.215 174.69 960 170.669C939.956 168.014 919.911 142.682 899.867 117.351C879.911 92.1321 859.956 66.9131 840 64.0694C813.93 60.3545 787.861 95.5907 761.791 130.827C747.861 149.655 733.93 168.484 720 181.369C680 218.369 640 208.369 600 186.669C580 176.019 560 162.694 540 149.369C520 136.044 500 122.719 480 112.069C440 90.3694 400 80.3694 360 101.369C342.79 110.405 325.58 125.549 308.37 140.692C285.58 160.747 262.79 180.801 240 186.669C208.015 195.225 176.03 176.479 144.045 157.733C136.03 153.035 128.015 148.337 120 144.069C83.9299 124.501 47.8599 114.447 26.4551 108.481C24.123 107.831 21.965 107.229 20 106.669Z" fill="url(#paint0_linear)"/>
<defs>
<linearGradient id="paint0_linear" x1="720" y1="0" x2="720" y2="626" gradientUnits="userSpaceOnUse">
<stop stop-color="#FAACA8"/>
<stop offset="1" stop-color="#DDD6F3"/>
</linearGradient>
</defs>
</svg>
