<svg width="1440" height="242" viewBox="0 0 1440 242" fill="none" xmlns="http://www.w3.org/2000/svg">
<path d="M0 210L48 178C96 146 192 82.0001 288 55.3001C384 29.0001 480 39.0001 576 34.0001C672 29.0001 768 7.00009 864 2.00009C960 -2.99991 1056 7.00009 1152 28.7001C1248 50.0001 1344 82.0001 1392 98.0001L1440 114V242H1392C1344 242 1248 242 1152 242C1056 242 960 242 864 242C768 242 672 242 576 242C480 242 384 242 288 242C192 242 96 242 48 242H0V210Z" fill="url(#paint0_linear)"/>
<defs>
<linearGradient id="paint0_linear" x1="720" y1="0.734375" x2="720" y2="242" gradientUnits="userSpaceOnUse">
<stop stop-color="#96DEDA"/>
<stop offset="1" stop-color="#50C9C3"/>
</linearGradient>
</defs>
</svg>
