<svg width="1440" height="281" viewBox="0 0 1440 281" fill="none" xmlns="http://www.w3.org/2000/svg">
<path d="M0 248.895L12 211.595C24 173.895 48 99.8946 72 99.5946C96 99.8946 120 173.895 144 190.195C168 205.895 192 163.895 216 158.195C240 152.895 264 184.895 288 190.195C312 195.895 336 173.895 360 147.595C384 120.895 408 88.8946 432 67.5946C456 45.8946 480 35.8946 504 62.1946C528 88.8946 552 152.895 576 174.195C600 195.895 624 173.895 648 163.595C672 152.895 696 152.895 720 147.595C744 141.895 768 131.895 792 136.895C816 141.895 840 163.895 864 147.595C888 131.895 912 77.8946 936 40.8946C960 3.89463 984 -18.1054 1008 19.5946C1032 56.8946 1056 152.895 1080 195.595C1104 237.895 1128 227.895 1152 195.595C1176 163.895 1200 109.895 1224 88.8946C1248 67.8946 1272 77.8946 1296 62.1946C1320 45.8946 1344 3.89463 1368 24.8946C1392 45.8946 1416 131.895 1428 174.195L1440 216.895V280.895H1428C1416 280.895 1392 280.895 1368 280.895C1344 280.895 1320 280.895 1296 280.895C1272 280.895 1248 280.895 1224 280.895C1200 280.895 1176 280.895 1152 280.895C1128 280.895 1104 280.895 1080 280.895C1056 280.895 1032 280.895 1008 280.895C984 280.895 960 280.895 936 280.895C912 280.895 888 280.895 864 280.895C840 280.895 816 280.895 792 280.895C768 280.895 744 280.895 720 280.895C696 280.895 672 280.895 648 280.895C624 280.895 600 280.895 576 280.895C552 280.895 528 280.895 504 280.895C480 280.895 456 280.895 432 280.895C408 280.895 384 280.895 360 280.895C336 280.895 312 280.895 288 280.895C264 280.895 240 280.895 216 280.895C192 280.895 168 280.895 144 280.895C120 280.895 96 280.895 72 280.895C48 280.895 24 280.895 12 280.895H0V248.895Z" fill="url(#paint0_linear)"/>
<defs>
<linearGradient id="paint0_linear" x1="720" y1="0" x2="720" y2="280.895" gradientUnits="userSpaceOnUse">
<stop stop-color="#ED4264"/>
<stop offset="1" stop-color="#FFEDBC"/>
</linearGradient>
</defs>
</svg>
