<svg width="1440" height="224" viewBox="0 0 1440 224" fill="none" xmlns="http://www.w3.org/2000/svg">
<path d="M0 0L21.8 37.3C43.6 75 87 149 131 154.7C174.5 160 218 96 262 69.3C305.5 43 349 53 393 80C436.4 107 480 149 524 170.7C567.3 192 611 192 655 186.7C698.2 181 742 171 785 154.7C829.1 139 873 117 916 128C960 139 1004 181 1047 186.7C1090.9 192 1135 160 1178 149.3C1221.8 139 1265 149 1309 144C1352.7 139 1396 117 1418 106.7L1440 96V224H1418.2C1396.4 224 1353 224 1309 224C1265.5 224 1222 224 1178 224C1134.5 224 1091 224 1047 224C1003.6 224 960 224 916 224C872.7 224 829 224 785 224C741.8 224 698 224 655 224C610.9 224 567 224 524 224C480 224 436 224 393 224C349.1 224 305 224 262 224C218.2 224 175 224 131 224C87.3 224 44 224 22 224H0V0Z" fill="url(#paint0_linear)"/>
<defs>
<linearGradient id="paint0_linear" x1="720" y1="0" x2="720" y2="224" gradientUnits="userSpaceOnUse">
<stop stop-color="#DC2424"/>
<stop offset="1" stop-color="#4A569D"/>
</linearGradient>
</defs>
</svg>
