<svg width="1440" height="299" viewBox="0 0 1440 299" fill="none" xmlns="http://www.w3.org/2000/svg">
<path d="M0 10.2587L21.8 4.9587C43.6 -0.741295 87 -10.7413 131 36.9587C174.5 85.2587 218 191.259 262 196.959C305.5 202.259 349 106.259 393 106.259C436.4 106.259 480 202.259 524 239.559C567.3 277.259 611 255.259 655 228.959C698.2 202.259 742 170.259 785 180.959C829.1 191.259 873 245.259 916 250.259C960 255.259 1004 213.259 1047 164.959C1090.9 117.259 1135 63.2587 1178 36.9587C1221.8 10.2587 1265 10.2587 1309 15.5587C1352.7 21.2587 1396 31.2587 1418 36.9587L1440 42.2587V298.259H1418.2C1396.4 298.259 1353 298.259 1309 298.259C1265.5 298.259 1222 298.259 1178 298.259C1134.5 298.259 1091 298.259 1047 298.259C1003.6 298.259 960 298.259 916 298.259C872.7 298.259 829 298.259 785 298.259C741.8 298.259 698 298.259 655 298.259C610.9 298.259 567 298.259 524 298.259C480 298.259 436 298.259 393 298.259C349.1 298.259 305 298.259 262 298.259C218.2 298.259 175 298.259 131 298.259C87.3 298.259 44 298.259 22 298.259H0V10.2587Z" fill="url(#paint0_linear)"/>
<defs>
<linearGradient id="paint0_linear" x1="720" y1="0" x2="720" y2="298.259" gradientUnits="userSpaceOnUse">
<stop stop-color="#283048"/>
<stop offset="1" stop-color="#B8B9BA"/>
</linearGradient>
</defs>
</svg>
