<svg preserveAspectRatio="none" width="899" height="861" viewBox="0 0 899 861" fill="none" xmlns="http://www.w3.org/2000/svg">
<path d="M480.7 418.7L482.7 428.4C482.8 428.7 482.8 428.9 482.8 428.8V425.5C482.8 425.3 482.9 425.7 483 426L484.5 434.4C484.6 434.7 484.6 435 484.7 434.9L484.9 431.8C484.9 431.7 485 432 485 432.3L486.1 438C486.2 438.3 486.3 438.6 486.2 438.4C486.1 436.4 486.1 435 486.2 434.1C486.2 434.1 486.2 433.9 486.1 433.7L484.9 428.6C484.8 428.4 484.8 428.2 484.8 428.3L484.7 428.2C484.7 428.3 484.6 428 484.5 427.7L484 425.6C484 425.3 483.9 425 483.8 425.1L483.6 426.3C483.6 426.4 483.5 426 483.4 425.7L482.5 419.9C482.5 419.6 482.4 419.3 482.3 419.3L482 419.9C482 419.9 481.9 419.5 481.8 419.3C481.6 417.7 481.6 416.8 481.8 416.9C481.8 416.9 481.8 416.6 481.7 416.3L480.4 411.5C480.4 411.3 480.3 411.3 480.3 411.4L480.6 415.3C480.6 415.4 480.6 415.3 480.5 415.2L479.5 411.6C479.4 411.3 479.4 411.4 479.5 411.6L480.4 416.3C480.4 416.5 480.4 416.6 480.4 416.5L479.5 414.5C479.5 414.4 479.5 414.6 479.5 414.8L480 417.4C480 417.6 480.1 417.7 480 417.7C479.9 417.8 479.8 418.2 479.9 419C479.9 419.1 480 419.4 480 419.6C480.1 420 480.2 420.4 480.4 420.9C480.7 422 481.1 423.1 480.8 421.3C480.5 419.9 480.4 418.8 480.4 418.3C480.6 418.2 480.7 418.4 480.7 418.7Z" stroke="url(#paint0_linear)" stroke-width="0.0316119" stroke-miterlimit="10"/>
<path d="M480.5 418.2L482.6 428.6C482.7 428.9 482.7 429.2 482.7 429.1V425.6C482.7 425.4 482.8 425.8 482.9 426.1L484.4 435.1C484.5 435.4 484.6 435.8 484.6 435.7L484.9 432.4C484.9 432.3 485 432.6 485.1 432.9L486.2 439C486.3 439.3 486.4 439.7 486.4 439.5C486.3 437.4 486.3 435.8 486.5 434.9C486.5 434.9 486.5 434.7 486.4 434.5L485.1 429C485 428.8 485 428.6 485 428.7L484.9 428.5C484.9 428.6 484.8 428.2 484.7 427.9L484.2 425.7C484.2 425.4 484 425 484 425.1L483.8 426.4C483.8 426.5 483.7 426.1 483.6 425.8L482.6 419.5C482.6 419.2 482.5 418.8 482.4 418.9L482 419.5C482 419.5 481.9 419.1 481.8 418.8C481.6 417.1 481.6 416.2 481.8 416.2C481.8 416.2 481.8 415.9 481.7 415.6L480.3 410.4C480.3 410.2 480.2 410.2 480.2 410.3L480.5 414.5C480.5 414.6 480.5 414.6 480.4 414.4L479.4 410.6C479.3 410.3 479.3 410.4 479.3 410.6L480.2 415.7C480.2 415.9 480.2 416 480.2 415.9L479.2 413.7C479.2 413.6 479.2 413.8 479.2 414L479.8 416.8C479.8 417 479.9 417.1 479.8 417.1C479.7 417.2 479.6 417.7 479.6 418.5C479.6 418.6 479.7 419 479.7 419.2C479.8 419.6 480 420.1 480.1 420.5C480.4 421.7 480.9 422.8 480.5 420.9C480.2 419.4 480.1 418.2 480.1 417.7C480.4 417.7 480.5 417.9 480.5 418.2Z" stroke="url(#paint1_linear)" stroke-width="0.0347005" stroke-miterlimit="10"/>
<path d="M480.3 417.7L482.5 428.9C482.6 429.2 482.7 429.5 482.7 429.4L482.8 425.6C482.8 425.4 482.9 425.8 483 426.1L484.6 435.7C484.7 436 484.8 436.4 484.8 436.3L485.2 432.8C485.2 432.7 485.3 433 485.4 433.3L486.6 439.8C486.7 440.2 486.8 440.5 486.8 440.3C486.7 438.1 486.7 436.4 487 435.4C487 435.4 487 435.1 486.9 434.9L485.5 429C485.4 428.7 485.4 428.6 485.4 428.7L485.3 428.5C485.3 428.6 485.2 428.2 485.1 427.9L484.5 425.5C484.4 425.2 484.3 424.8 484.3 424.9L484 426.3C484 426.4 483.9 426 483.8 425.6L482.8 418.9C482.8 418.6 482.6 418.2 482.6 418.2L482.2 418.9C482.2 418.9 482 418.4 482 418.2C481.8 416.4 481.8 415.4 482.1 415.5C482.1 415.5 482.1 415.1 482 414.9L480.5 409.3C480.4 409.1 480.4 409 480.4 409.2L480.7 413.7C480.7 413.8 480.7 413.8 480.6 413.6L479.5 409.5C479.4 409.2 479.4 409.2 479.4 409.5L480.4 415C480.4 415.2 480.4 415.3 480.4 415.2L479.3 412.9C479.3 412.8 479.3 413 479.3 413.2L479.9 416.2C479.9 416.4 480 416.6 479.9 416.6C479.7 416.7 479.7 417.2 479.7 418.1C479.7 418.2 479.8 418.6 479.8 418.8C479.9 419.2 480.1 419.7 480.2 420.2C480.6 421.5 481 422.7 480.7 420.7C480.4 419.1 480.3 417.8 480.3 417.3C480.2 417.1 480.3 417.4 480.3 417.7Z" stroke="url(#paint2_linear)" stroke-width="0.0380909" stroke-miterlimit="10"/>
<path d="M480.1 417.2L482.5 429.2C482.6 429.6 482.7 429.8 482.7 429.8L482.8 425.8C482.8 425.6 482.9 426 483 426.4L484.7 436.7C484.8 437.1 484.9 437.5 484.9 437.4L485.4 433.6C485.4 433.5 485.5 433.8 485.6 434.2L486.9 441.2C487 441.6 487.1 442 487.1 441.8C487 439.4 487.1 437.6 487.3 436.6C487.3 436.5 487.3 436.3 487.2 436.1L485.8 429.8C485.7 429.5 485.7 429.4 485.7 429.4L485.6 429.2C485.6 429.3 485.5 428.9 485.4 428.5L484.8 425.9C484.7 425.6 484.6 425.1 484.6 425.2L484.3 426.7C484.3 426.8 484.2 426.3 484.1 426L483 418.8C483 418.5 482.8 418 482.8 418.1L482.3 418.8C482.3 418.8 482.1 418.3 482.1 418C481.9 416 481.9 415 482.2 415.1C482.2 415.1 482.2 414.7 482.1 414.4L480.5 408.4C480.4 408.2 480.4 408.1 480.4 408.3L480.6 413.1C480.6 413.2 480.6 413.2 480.5 412.9L479.3 408.5C479.2 408.2 479.2 408.2 479.2 408.5L480.2 414.3C480.2 414.5 480.2 414.6 480.2 414.5L478.9 412C478.9 411.9 478.9 412.1 478.9 412.4L479.5 415.6C479.5 415.8 479.6 416 479.5 416C479.3 416.1 479.2 416.6 479.3 417.6C479.3 417.7 479.4 418.1 479.5 418.3C479.6 418.7 479.8 419.3 480 419.8C480.4 421.2 480.9 422.5 480.5 420.3C480.2 418.5 480.1 417.2 480.1 416.6C480 416.6 480.1 416.9 480.1 417.2Z" stroke="url(#paint3_linear)" stroke-width="0.0418126" stroke-miterlimit="10"/>
<path d="M479.9 416.6L482.4 429.4C482.5 429.8 482.6 430.1 482.6 430L482.8 425.7C482.8 425.5 482.9 425.9 483 426.3L484.7 437.4C484.8 437.8 484.9 438.2 484.9 438.1L485.5 434.1C485.5 434 485.6 434.4 485.7 434.7L487 442.2C487.1 442.6 487.2 443 487.2 442.8C487.1 440.2 487.3 438.3 487.5 437.2C487.5 437.1 487.5 436.9 487.4 436.7L485.9 429.9C485.8 429.6 485.8 429.4 485.8 429.5L485.6 429.3C485.6 429.4 485.5 429 485.4 428.6L484.7 425.9C484.6 425.5 484.5 425.1 484.5 425.2L484.1 426.8C484.1 426.9 483.9 426.4 483.9 426L482.8 418.3C482.8 418 482.6 417.5 482.6 417.5L482 418.3C482 418.4 481.8 417.8 481.8 417.5C481.6 415.4 481.7 414.3 482 414.4C482 414.4 482 414 481.9 413.7L480.1 407.3C480 407.1 480 407 480 407.1L480.2 412.2C480.2 412.3 480.2 412.3 480.1 412L478.8 407.3C478.7 407 478.7 407 478.7 407.4L479.7 413.7C479.7 413.9 479.7 414 479.7 414L478.3 411.3C478.2 411.2 478.3 411.4 478.3 411.7L479 415.1C479 415.3 479.1 415.5 479 415.5C478.8 415.6 478.7 416.2 478.7 417.2C478.7 417.4 478.8 417.8 478.9 418C479.1 418.5 479.2 419.1 479.4 419.7C479.8 421.2 480.4 422.6 480 420.3C479.7 418.4 479.5 417 479.6 416.4C479.7 416 479.8 416.3 479.9 416.6Z" stroke="url(#paint4_linear)" stroke-width="0.0458979" stroke-miterlimit="10"/>
<path d="M479.6 416L482.2 429.8C482.3 430.2 482.4 430.5 482.4 430.4L482.7 425.8C482.7 425.6 482.9 426 482.9 426.5L484.7 438.4C484.8 438.8 484.9 439.3 484.9 439.2L485.6 434.9C485.6 434.8 485.7 435.2 485.8 435.6L487.2 443.6C487.3 444.1 487.4 444.5 487.4 444.2C487.4 441.5 487.5 439.4 487.9 438.2C487.9 438.1 487.9 437.9 487.8 437.6L486.2 430.3C486.1 430 486.1 429.8 486 429.9L485.8 429.7C485.8 429.8 485.6 429.3 485.6 428.9L484.9 426C484.8 425.6 484.7 425.1 484.7 425.2L484.2 426.9C484.2 427 484 426.5 484 426.1L482.9 417.9C482.9 417.5 482.7 417 482.7 417.1L482.1 417.9C482.1 418 481.9 417.3 481.9 417C481.7 414.8 481.8 413.5 482.2 413.7C482.2 413.7 482.2 413.3 482.1 412.9L480.2 406C480.1 405.8 480.1 405.7 480.1 405.8L480.3 411.3C480.3 411.4 480.3 411.4 480.2 411.1L478.8 406C478.7 405.6 478.7 405.7 478.7 406.1L479.8 412.8C479.8 413 479.8 413.2 479.8 413.1L478.3 410.2C478.2 410.1 478.3 410.3 478.3 410.6L479 414.3C479 414.5 479.1 414.7 479 414.7C478.8 414.8 478.6 415.4 478.6 416.5C478.6 416.7 478.7 417.1 478.8 417.4C479 417.9 479.2 418.6 479.3 419.2C479.8 420.8 480.3 422.3 479.9 419.8C479.6 417.8 479.4 416.3 479.5 415.6C479.5 415.3 479.6 415.6 479.6 416Z" stroke="url(#paint5_linear)" stroke-width="0.0503823" stroke-miterlimit="10"/>
<path d="M479.4 415.4L482.1 430.1C482.2 430.5 482.3 430.9 482.3 430.8L482.7 425.9C482.7 425.6 482.9 426.2 482.9 426.6L484.7 439.3C484.8 439.7 484.9 440.2 484.9 440.1L485.7 435.5C485.7 435.4 485.9 435.8 485.9 436.2L487.3 444.8C487.4 445.3 487.5 445.7 487.5 445.5C487.5 442.6 487.7 440.4 488.1 439.1C488.1 439 488.1 438.8 488 438.5L486.3 430.7C486.2 430.4 486.1 430.1 486.1 430.2L485.9 430C485.9 430.2 485.7 429.6 485.7 429.2L485 426C484.9 425.6 484.8 425.1 484.8 425.2L484.2 427C484.2 427.1 484 426.5 484 426.1L482.9 417.3C482.8 416.9 482.7 416.4 482.7 416.4L482 417.3C482 417.4 481.8 416.7 481.8 416.3C481.6 413.9 481.7 412.6 482.2 412.7C482.3 412.7 482.2 412.2 482.1 411.8L480.1 404.4C480 404.1 480 404.1 480 404.2L480.1 410C480.1 410.2 480 410.1 480 409.8L478.5 404.3C478.4 403.9 478.3 403.9 478.4 404.4L479.5 411.6C479.5 411.9 479.5 412 479.5 411.9L477.8 408.8C477.7 408.7 477.7 408.9 477.8 409.2L478.5 413.2C478.6 413.5 478.6 413.7 478.5 413.7C478.2 413.8 478.1 414.5 478.1 415.6C478.1 415.8 478.2 416.3 478.3 416.5C478.5 417 478.7 417.7 478.9 418.4C479.4 420.1 480 421.7 479.6 419C479.3 416.8 479.1 415.2 479.2 414.5C479.2 414.6 479.3 414.9 479.4 415.4Z" stroke="url(#paint6_linear)" stroke-width="0.0553049" stroke-miterlimit="10"/>
<path d="M479 414.6L481.9 430.4C482 430.9 482.1 431.2 482.1 431.1L482.6 425.8C482.6 425.5 482.8 426.1 482.9 426.6L484.8 440.2C484.9 440.7 485 441.2 485.1 441.1L486.1 436.2C486.1 436.1 486.3 436.5 486.3 437L487.8 446.2C487.9 446.7 488 447.2 488.1 446.9C488.1 443.8 488.4 441.4 488.9 440.1C488.9 440 488.9 439.7 488.8 439.4L486.9 431C486.8 430.6 486.7 430.4 486.7 430.5L486.5 430.3C486.5 430.5 486.3 429.9 486.2 429.4L485.4 426C485.3 425.6 485.2 425 485.1 425.1L484.4 427C484.4 427.1 484.2 426.5 484.1 426.1L482.9 416.6C482.8 416.2 482.7 415.6 482.6 415.7L481.8 416.6C481.7 416.7 481.6 416 481.5 415.6C481.3 413 481.5 411.6 482 411.8C482.1 411.8 482 411.3 481.9 410.9L479.7 403C479.6 402.7 479.6 402.6 479.6 402.8V409C479.6 409.2 479.5 409.1 479.5 408.8L477.9 403C477.8 402.6 477.7 402.6 477.8 403.1L479 410.8C479 411.1 479 411.2 479 411.1L477.2 407.8C477.1 407.7 477.1 407.9 477.2 408.3L478 412.5C478.1 412.8 478.1 413 478 413C477.7 413.1 477.5 413.8 477.5 415C477.5 415.2 477.6 415.7 477.7 416C477.9 416.6 478.1 417.3 478.3 418.1C478.8 419.9 479.5 421.6 479.1 418.8C478.7 416.5 478.6 414.8 478.7 414C478.8 413.8 479 414.2 479 414.6Z" stroke="url(#paint7_linear)" stroke-width="0.0607084" stroke-miterlimit="10"/>
<path d="M478.7 413.9L481.7 430.8C481.8 431.3 481.9 431.7 482 431.6L482.6 426C482.6 425.7 482.8 426.3 482.9 426.8L484.8 441.4C484.9 441.9 485 442.5 485.1 442.3L486.3 437.1C486.3 437 486.5 437.4 486.6 437.9L488.1 447.8C488.2 448.4 488.4 448.9 488.4 448.6C488.5 445.2 488.8 442.8 489.4 441.3C489.4 441.2 489.4 440.9 489.3 440.6L487.3 431.6C487.2 431.2 487.1 431 487.1 431.1L486.9 430.8C486.9 431 486.7 430.4 486.6 429.9L485.8 426.3C485.7 425.8 485.6 425.2 485.5 425.3L484.7 427.3C484.7 427.4 484.5 426.8 484.4 426.3L483.2 416.2C483.1 415.7 483 415.1 482.9 415.2L481.9 416.2C481.8 416.3 481.6 415.5 481.6 415.1C481.4 412.4 481.6 410.9 482.2 411C482.3 411 482.2 410.5 482.1 410L479.7 401.5C479.6 401.2 479.5 401.1 479.5 401.3L479.4 408C479.4 408.2 479.3 408.1 479.2 407.8L477.5 401.5C477.4 401.1 477.3 401.1 477.4 401.6L478.6 409.8C478.6 410.1 478.6 410.3 478.6 410.1L476.6 406.5C476.5 406.4 476.5 406.6 476.6 407L477.4 411.5C477.5 411.8 477.5 412 477.4 412C477.1 412.1 476.9 412.9 476.8 414.1C476.8 414.3 476.9 414.9 477 415.2C477.2 415.8 477.4 416.6 477.7 417.4C478.3 419.3 479 421.2 478.6 418.2C478.2 415.7 478.1 413.9 478.3 413C478.5 413 478.6 413.4 478.7 413.9Z" stroke="url(#paint8_linear)" stroke-width="0.06664" stroke-miterlimit="10"/>
<path d="M478.3 413.1L481.5 431.2C481.6 431.7 481.7 432.2 481.8 432L482.6 426C482.6 425.7 482.8 426.3 482.9 426.9L484.9 442.5C485 443 485.2 443.7 485.2 443.5L486.6 438C486.6 437.8 486.8 438.4 486.9 438.9L488.5 449.5C488.6 450.1 488.8 450.6 488.8 450.3C489 446.7 489.4 444.1 490 442.5C490 442.4 490 442.1 489.9 441.7L487.8 432.1C487.7 431.7 487.6 431.4 487.6 431.5L487.3 431.2C487.3 431.4 487.1 430.7 487 430.2L486.1 426.3C486 425.8 485.9 425.1 485.8 425.3L484.9 427.5C484.8 427.6 484.7 426.9 484.6 426.4L483.4 415.6C483.3 415.1 483.2 414.5 483.1 414.5L482 415.5C481.9 415.6 481.7 414.8 481.7 414.3C481.5 411.4 481.8 409.8 482.4 410C482.5 410 482.4 409.4 482.3 409L479.8 399.9C479.7 399.6 479.6 399.5 479.6 399.7L479.4 406.8C479.4 407 479.3 406.9 479.2 406.6L477.3 399.9C477.2 399.4 477.1 399.5 477.2 400L478.4 408.8C478.4 409.1 478.4 409.3 478.4 409.2L476.2 405.3C476.1 405.2 476.1 405.4 476.2 405.8L477.1 410.7C477.2 411 477.2 411.3 477.1 411.3C476.7 411.4 476.5 412.2 476.4 413.6C476.4 413.8 476.5 414.4 476.6 414.7C476.8 415.4 477.1 416.2 477.3 417.1C477.9 419.2 478.7 421.2 478.3 417.9C477.9 415.3 477.8 413.3 478 412.4C478.1 412.1 478.2 412.6 478.3 413.1Z" stroke="url(#paint9_linear)" stroke-width="0.073151" stroke-miterlimit="10"/>
<path d="M477.9 412.2L481.2 431.6C481.3 432.2 481.5 432.6 481.5 432.5L482.5 426.1C482.5 425.8 482.8 426.5 482.8 427.1L484.8 443.8C484.9 444.4 485.1 445.1 485.1 444.9L486.8 439C486.8 438.8 487 439.4 487.1 440L488.8 451.4C488.9 452 489.1 452.6 489.1 452.3C489.3 448.5 489.8 445.7 490.6 444C490.6 443.9 490.6 443.6 490.5 443.2L488.3 432.9C488.2 432.4 488.1 432.2 488.1 432.3L487.8 432C487.8 432.2 487.5 431.5 487.5 430.9L486.5 426.7C486.4 426.1 486.2 425.5 486.2 425.6L485.1 427.9C485 428 484.8 427.3 484.8 426.7L483.6 415.1C483.5 414.6 483.4 413.9 483.3 413.9L482.1 415C482 415.1 481.8 414.2 481.8 413.7C481.7 410.6 482 408.8 482.6 409.1C482.7 409.1 482.6 408.5 482.5 408L479.8 398.2C479.7 397.9 479.6 397.7 479.6 397.9L479.3 405.5C479.3 405.7 479.2 405.6 479.1 405.2L477.1 398C477 397.5 476.9 397.5 476.9 398.1L478.2 407.6C478.2 407.9 478.2 408.1 478.2 408L475.8 403.8C475.7 403.6 475.7 403.9 475.8 404.4L476.7 409.6C476.8 409.9 476.8 410.2 476.7 410.2C476.3 410.3 476 411.2 475.9 412.6C475.9 412.8 476 413.5 476.1 413.8C476.4 414.5 476.6 415.5 476.9 416.3C477.6 418.5 478.5 420.7 478 417.2C477.6 414.4 477.5 412.2 477.7 411.3C477.7 411.2 477.8 411.6 477.9 412.2Z" stroke="url(#paint10_linear)" stroke-width="0.0802982" stroke-miterlimit="10"/>
<path d="M477.5 411.2L481 432C481.1 432.6 481.3 433.1 481.3 433L482.5 426.2C482.6 425.8 482.8 426.6 482.9 427.2L484.9 445.1C485 445.7 485.2 446.4 485.3 446.3L487.3 440C487.4 439.8 487.6 440.4 487.6 441L489.3 453.2C489.4 453.9 489.6 454.5 489.6 454.2C489.9 450.1 490.5 447.1 491.4 445.3C491.4 445.2 491.4 444.8 491.3 444.4L489 433.4C488.9 432.9 488.8 432.6 488.7 432.8L488.4 432.5C488.3 432.7 488.1 432 488 431.3L487 426.8C486.9 426.2 486.7 425.5 486.7 425.6L485.5 428C485.4 428.1 485.2 427.4 485.1 426.8L484 414.4C483.9 413.8 483.7 413.1 483.7 413.2L482.3 414.3C482.2 414.4 482 413.4 481.9 412.9C481.8 409.5 482.2 407.7 482.9 408C483 408 482.9 407.3 482.8 406.8L479.9 396.3C479.8 395.9 479.7 395.8 479.7 396L479.3 404.2C479.3 404.4 479.2 404.3 479.1 403.9L477 396.1C476.8 395.5 476.7 395.6 476.8 396.2L478.1 406.3C478.1 406.7 478.1 406.9 478 406.7L475.3 402.2C475.2 402 475.2 402.3 475.3 402.8L476.2 408.4C476.3 408.8 476.3 409.1 476.2 409.1C475.7 409.2 475.4 410.1 475.2 411.7C475.2 411.9 475.3 412.6 475.4 413C475.7 413.8 476 414.8 476.2 415.7C476.9 418.1 477.9 420.4 477.4 416.7C477 413.7 476.9 411.4 477.2 410.4C477.2 410.2 477.4 410.7 477.5 411.2Z" stroke="url(#paint11_linear)" stroke-width="0.0881437" stroke-miterlimit="10"/>
<path d="M477 410.2L480.6 432.5C480.7 433.2 480.9 433.7 480.9 433.5L482.4 426.2C482.5 425.8 482.7 426.6 482.8 427.3L484.8 446.5C484.9 447.2 485.1 447.9 485.2 447.7L487.6 441C487.7 440.8 487.9 441.5 488 442.1L489.7 455.1C489.8 455.8 490 456.5 490.1 456.1C490.5 451.7 491.2 448.5 492.2 446.6C492.2 446.5 492.2 446.1 492.1 445.7L489.6 433.9C489.5 433.4 489.4 433.1 489.3 433.2L488.9 432.8C488.8 433 488.6 432.2 488.5 431.5L487.4 426.7C487.3 426.1 487.1 425.3 487 425.4L485.6 428C485.5 428.2 485.3 427.3 485.2 426.7L484.1 413.4C484.1 412.8 483.8 412 483.7 412.1L482.1 413.3C482 413.4 481.7 412.4 481.7 411.8C481.6 408.2 482.1 406.3 482.9 406.6C483 406.6 482.9 405.9 482.8 405.3L479.6 394C479.5 393.6 479.4 393.5 479.4 393.7L478.8 402.4C478.8 402.6 478.7 402.5 478.6 402.1L476.3 393.8C476.1 393.2 476 393.2 476.1 393.9L477.4 404.8C477.4 405.2 477.4 405.4 477.3 405.2L474.3 400.4C474.2 400.2 474.2 400.5 474.3 401.1L475.3 407.1C475.4 407.5 475.4 407.8 475.3 407.8C474.8 407.9 474.4 408.9 474.2 410.6C474.2 410.9 474.3 411.6 474.4 412C474.7 412.8 475 413.9 475.3 414.9C476.1 417.5 477.1 420 476.6 416C476.2 412.7 476.1 410.3 476.4 409.2C476.7 409.1 476.9 409.6 477 410.2Z" stroke="url(#paint12_linear)" stroke-width="0.0967558" stroke-miterlimit="10"/>
<path d="M476.5 409.1L480.2 433C480.3 433.7 480.5 434.3 480.6 434.1L482.4 426.3C482.5 425.9 482.8 426.8 482.8 427.5L484.8 448C484.9 448.7 485.1 449.5 485.2 449.3L488 442.2C488.1 442 488.3 442.7 488.4 443.4L490.2 457.4C490.3 458.2 490.6 458.9 490.6 458.5C491.1 453.8 492 450.4 493.1 448.4C493.2 448.3 493.1 447.9 493 447.4L490.4 434.7C490.3 434.1 490.1 433.8 490.1 434L489.7 433.6C489.6 433.8 489.4 433 489.3 432.3L488.1 427.2C488 426.5 487.8 425.7 487.7 425.8L486.1 428.5C486 428.7 485.7 427.7 485.7 427.1L484.6 412.9C484.6 412.3 484.3 411.4 484.2 411.5L482.4 412.7C482.3 412.8 482 411.7 482 411.1C482 407.3 482.5 405.2 483.4 405.5C483.5 405.5 483.4 404.7 483.3 404.1L479.9 392C479.8 391.6 479.7 391.4 479.6 391.7L478.8 401C478.8 401.3 478.7 401.1 478.5 400.7L476 391.8C475.8 391.2 475.7 391.2 475.8 391.9L477.1 403.5C477.1 403.9 477.1 404.1 477 404L473.7 398.8C473.6 398.6 473.6 398.9 473.6 399.5L474.6 405.9C474.7 406.3 474.7 406.6 474.6 406.7C474 406.8 473.5 407.8 473.3 409.6C473.3 409.9 473.4 410.7 473.5 411.1C473.8 412 474.2 413.1 474.5 414.2C475.3 417 476.5 419.6 476 415.3C475.6 411.8 475.6 409.2 475.9 408.1C476.2 407.9 476.4 408.5 476.5 409.1Z" stroke="url(#paint13_linear)" stroke-width="0.1062" stroke-miterlimit="10"/>
<path d="M475.9 408L479.8 433.6C479.9 434.4 480.1 435 480.2 434.8L482.3 426.5C482.4 426.1 482.7 427 482.8 427.8L484.8 449.8C484.9 450.6 485.1 451.5 485.2 451.2L488.4 443.6C488.5 443.4 488.7 444.1 488.8 444.9L490.6 459.9C490.7 460.7 491 461.5 491 461.1C491.6 456.1 492.7 452.5 494 450.4C494.1 450.3 494 449.8 493.9 449.3L491.1 435.7C491 435.1 490.8 434.7 490.7 434.9L490.2 434.5C490.1 434.8 489.8 433.8 489.8 433.1L488.6 427.6C488.5 426.9 488.3 426 488.2 426.1L486.3 429C486.2 429.2 485.9 428.2 485.9 427.5L484.9 412.3C484.9 411.6 484.6 410.7 484.5 410.8L482.4 412.1C482.3 412.2 482 411 482 410.4C482 406.3 482.6 404.1 483.7 404.4C483.8 404.4 483.8 403.6 483.6 402.9L480 389.9C479.9 389.4 479.7 389.3 479.7 389.6L478.7 399.5C478.7 399.8 478.5 399.6 478.4 399.1L475.7 389.5C475.5 388.8 475.4 388.9 475.4 389.6L476.7 402C476.7 402.5 476.7 402.7 476.6 402.5L473 396.9C472.9 396.7 472.8 397.1 472.9 397.7L474 404.6C474.1 405.1 474.1 405.4 474 405.4C473.3 405.5 472.8 406.6 472.5 408.5C472.5 408.8 472.6 409.6 472.8 410.1C473.2 411.1 473.5 412.3 473.9 413.5C474.8 416.5 476.1 419.4 475.6 414.7C475.2 411 475.2 408.2 475.6 407C475.6 406.6 475.8 407.2 475.9 408Z" stroke="url(#paint14_linear)" stroke-width="0.1166" stroke-miterlimit="10"/>
<path d="M475.3 406.7L479.3 434.1C479.4 434.9 479.7 435.6 479.7 435.4L482.2 426.6C482.3 426.1 482.6 427.1 482.7 428L484.6 451.5C484.7 452.3 485 453.3 485.1 453L488.8 444.9C488.9 444.7 489.2 445.5 489.3 446.3L491.1 462.3C491.2 463.2 491.5 464 491.6 463.6C492.4 458.3 493.6 454.4 495.1 452.1C495.2 452 495.1 451.5 495 450.9L492.1 436.3C492 435.7 491.8 435.3 491.7 435.4L491.2 434.9C491.1 435.2 490.8 434.2 490.7 433.3L489.4 427.4C489.3 426.6 489.1 425.6 488.9 425.8L486.7 428.9C486.6 429.1 486.3 428 486.2 427.3L485.3 411C485.3 410.3 485 409.3 484.8 409.3L482.4 410.7C482.2 410.8 481.9 409.5 481.9 408.9C482 404.5 482.7 402.1 483.9 402.5C484.1 402.6 484 401.6 483.8 400.9L479.9 387C479.8 386.5 479.6 386.3 479.6 386.6L478.3 397.2C478.3 397.5 478.1 397.3 478 396.8L475.1 386.5C474.9 385.8 474.7 385.8 474.8 386.6L476.1 399.9C476.1 400.4 476.1 400.6 476 400.4L472 394.3C471.9 394.1 471.8 394.5 471.9 395.1L473 402.5C473.1 403 473.1 403.4 473 403.4C472.2 403.5 471.6 404.7 471.3 406.7C471.2 407 471.4 407.9 471.6 408.4C472 409.4 472.4 410.8 472.8 412C473.8 415.2 475.2 418.3 474.7 413.4C474.3 409.4 474.3 406.4 474.8 405.1C474.9 405.2 475.1 405.9 475.3 406.7Z" stroke="url(#paint15_linear)" stroke-width="0.128" stroke-miterlimit="10"/>
<path d="M474.5 405.3L478.6 434.7C478.7 435.6 479 436.3 479.1 436.1L482 426.7C482.1 426.2 482.5 427.3 482.5 428.2L484.3 453.4C484.4 454.3 484.7 455.3 484.8 455L489.1 446.4C489.2 446.2 489.5 447 489.6 447.9L491.4 465C491.5 466 491.8 466.9 491.9 466.4C492.9 460.7 494.3 456.6 496.1 454.2C496.2 454.1 496.2 453.5 496 453L492.9 437.4C492.8 436.7 492.6 436.3 492.5 436.5L491.9 436C491.8 436.3 491.4 435.2 491.4 434.3L490 428C489.9 427.2 489.6 426.1 489.5 426.3L487 429.6C486.9 429.8 486.5 428.7 486.5 427.8L485.7 410.3C485.7 409.5 485.4 408.4 485.2 408.5L482.5 409.9C482.3 410 482 408.7 482 407.9C482.1 403.2 483 400.7 484.4 401.1C484.6 401.2 484.5 400.2 484.3 399.4L480.1 384.5C480 384 479.8 383.8 479.8 384.1L478.2 395.4C478.2 395.7 478 395.5 477.9 395L474.8 384C474.6 383.2 474.4 383.3 474.5 384.1L475.8 398.4C475.8 398.9 475.8 399.2 475.6 399L471.2 392.5C471 392.3 471 392.7 471.1 393.4L472.2 401.3C472.3 401.8 472.3 402.2 472.2 402.2C471.3 402.3 470.6 403.5 470.2 405.7C470.1 406 470.3 407 470.5 407.5C470.9 408.6 471.3 410 471.8 411.4C472.9 414.8 474.4 418.2 473.9 412.9C473.5 408.6 473.6 405.4 474.2 404.1C474.2 403.8 474.4 404.5 474.5 405.3Z" stroke="url(#paint16_linear)" stroke-width="0.1405" stroke-miterlimit="10"/>
<path d="M473.8 403.9L478 435.4C478.1 436.3 478.4 437.1 478.5 436.9L481.9 426.9C482.1 426.4 482.4 427.5 482.5 428.5L484.2 455.4C484.3 456.3 484.6 457.4 484.8 457.2L489.8 448.1C489.9 447.8 490.3 448.8 490.3 449.7L492.1 468.1C492.2 469.1 492.6 470.1 492.7 469.6C493.9 463.5 495.5 459.1 497.6 456.6C497.7 456.5 497.7 455.9 497.6 455.3L494.3 438.5C494.2 437.8 493.9 437.3 493.8 437.5L493.2 436.9C493.1 437.2 492.7 436 492.6 435.1L491.1 428.3C491.1 427.4 490.7 426.3 490.6 426.5L487.8 430C487.6 430.2 487.3 429 487.2 428.1L486.6 409.4C486.6 408.6 486.2 407.4 486.1 407.5L483.1 409C482.9 409.1 482.5 407.7 482.6 406.9C482.8 401.9 483.8 399.2 485.3 399.7C485.5 399.8 485.4 398.7 485.2 397.9L480.7 381.9C480.5 381.3 480.4 381.1 480.3 381.5L478.3 393.6C478.2 393.9 478.1 393.7 477.9 393.2L474.6 381.4C474.4 380.6 474.1 380.6 474.2 381.5L475.4 396.8C475.4 397.4 475.4 397.6 475.2 397.4L470.3 390.4C470.1 390.1 470.1 390.6 470.2 391.3L471.4 399.7C471.5 400.3 471.5 400.7 471.4 400.7C470.4 400.8 469.6 402.1 469.1 404.4C469 404.8 469.2 405.8 469.4 406.4C469.9 407.6 470.3 409.1 470.8 410.6C471.9 414.3 473.6 417.9 473.1 412.2C472.7 407.6 472.9 404.2 473.5 402.8C473.4 402.2 473.7 403 473.8 403.9Z" stroke="url(#paint17_linear)" stroke-width="0.1542" stroke-miterlimit="10"/>
<path d="M472.9 402.3L477.2 436C477.3 437 477.7 437.8 477.8 437.6L481.8 426.9C482 426.3 482.4 427.6 482.5 428.6L484 457.4C484.1 458.4 484.4 459.6 484.6 459.3L490.3 449.6C490.5 449.3 490.8 450.3 490.9 451.3L492.7 471C492.8 472.1 493.2 473.2 493.3 472.6C494.7 466.1 496.6 461.5 499 458.8C499.1 458.7 499.1 458 499 457.4L495.5 439.4C495.3 438.6 495.1 438.1 495 438.3L494.3 437.7C494.1 438 493.7 436.8 493.7 435.8L492.1 428.5C492.1 427.5 491.7 426.3 491.5 426.5L488.2 430.2C488 430.4 487.6 429.1 487.6 428.2L487.2 408.2C487.2 407.3 486.8 406.1 486.6 406.2L483.1 407.7C482.9 407.8 482.5 406.3 482.5 405.5C482.8 400.1 484 397.3 485.7 397.8C485.9 397.9 485.9 396.8 485.6 395.9L480.7 378.7C480.5 378.1 480.3 377.9 480.3 378.2L477.9 391.1C477.8 391.4 477.6 391.2 477.5 390.6L473.9 377.9C473.6 377 473.4 377 473.5 378L474.7 394.3C474.7 394.9 474.7 395.2 474.5 395L469.1 387.4C468.9 387.1 468.8 387.6 468.9 388.4L470.1 397.5C470.2 398.1 470.2 398.5 470 398.6C468.9 398.7 468 400.1 467.3 402.6C467.2 403 467.4 404.1 467.6 404.7C468.1 406 468.6 407.6 469.1 409.2C470.3 413.2 472.2 417 471.7 410.9C471.3 406 471.5 402.4 472.3 400.8C472.5 400.5 472.8 401.3 472.9 402.3Z" stroke="url(#paint18_linear)" stroke-width="0.1693" stroke-miterlimit="10"/>
<path d="M472 400.6L476.3 436.7C476.4 437.8 476.8 438.6 476.9 438.4L481.6 427C481.8 426.4 482.3 427.7 482.3 428.8L483.6 459.6C483.6 460.7 484.1 461.9 484.3 461.6L490.9 451.3C491.1 451 491.5 452.1 491.5 453.1L493.2 474.1C493.3 475.3 493.7 476.4 493.9 475.8C495.6 468.9 497.8 463.9 500.5 461.1C500.6 461 500.6 460.3 500.5 459.6L496.9 440.3C496.7 439.5 496.5 438.9 496.3 439.1L495.5 438.5C495.3 438.8 494.9 437.5 494.8 436.4L493.2 428.6C493.2 427.6 492.8 426.3 492.6 426.5L488.9 430.4C488.7 430.6 488.3 429.2 488.3 428.2L488.1 406.8C488.1 405.8 487.7 404.5 487.5 404.6L483.6 406.2C483.3 406.3 482.9 404.7 483 403.8C483.4 398.1 484.8 395 486.7 395.6C486.9 395.7 486.9 394.5 486.6 393.5L481.3 375.1C481.1 374.5 480.9 374.2 480.8 374.6L477.9 388.4C477.8 388.8 477.6 388.5 477.4 387.9L473.6 374.3C473.3 373.3 473 373.4 473.1 374.4L474.2 391.9C474.2 392.5 474.1 392.8 474 392.6L468 384.4C467.8 384.1 467.7 384.6 467.8 385.4L469 395.1C469.1 395.8 469 396.2 468.9 396.2C467.6 396.3 466.6 397.8 465.8 400.4C465.7 400.8 465.8 402 466.1 402.7C466.6 404.1 467.2 405.8 467.7 407.5C469 411.7 471.1 415.9 470.6 409.4C470.2 404.2 470.6 400.3 471.4 398.6C471.5 398.7 471.9 399.6 472 400.6Z" stroke="url(#paint19_linear)" stroke-width="0.1858" stroke-miterlimit="10"/>
<path d="M471 398.7L475.4 437.4C475.5 438.5 475.9 439.5 476.1 439.3L481.5 427.2C481.8 426.6 482.2 428 482.3 429.2L483.3 462.2C483.3 463.3 483.8 464.7 484 464.4L491.6 453.5C491.8 453.2 492.2 454.4 492.3 455.5L493.9 478C494 479.3 494.5 480.5 494.6 479.9C496.6 472.5 499.2 467.3 502.2 464.3C502.3 464.2 502.3 463.4 502.2 462.7L498.4 442.1C498.2 441.2 497.9 440.6 497.8 440.9L496.9 440.2C496.7 440.6 496.2 439.1 496.2 438L494.5 429.6C494.5 428.5 494.1 427.1 493.8 427.4L489.6 431.5C489.3 431.7 488.9 430.2 488.9 429.2L489 406.4C489 405.4 488.6 404 488.3 404L483.9 405.7C483.6 405.8 483.2 404 483.2 403.1C483.8 397 485.3 393.8 487.5 394.4C487.8 394.5 487.7 393.2 487.4 392.2L481.7 372.4C481.5 371.7 481.3 371.5 481.2 371.8L477.7 386.5C477.6 386.9 477.4 386.6 477.2 385.9L473 371C472.7 370 472.4 370 472.4 371.1L473.4 389.8C473.4 390.5 473.3 390.8 473.1 390.5L466.5 381.7C466.3 381.4 466.1 381.9 466.2 382.8L467.4 393.2C467.5 393.9 467.4 394.4 467.3 394.4C465.9 394.5 464.7 396 463.8 398.9C463.7 399.3 463.8 400.6 464.1 401.3C464.7 402.8 465.3 404.7 465.8 406.5C467.2 411.1 469.5 415.5 469.1 408.6C468.8 403 469.2 398.8 470.2 397.1C470.5 396.7 470.8 397.7 471 398.7Z" stroke="url(#paint20_linear)" stroke-width="0.204" stroke-miterlimit="10"/>
<path d="M469.8 396.8L474.2 438.2C474.3 439.4 474.8 440.4 474.9 440.2L481.2 427.3C481.5 426.6 482 428.2 482 429.4L482.7 464.7C482.7 465.9 483.2 467.4 483.5 467L492.2 455.4C492.4 455.1 492.9 456.3 493 457.5L494.5 481.6C494.6 483 495.1 484.3 495.3 483.6C497.7 475.8 500.6 470.1 504.1 467C504.3 466.8 504.3 466.1 504.1 465.3L500.1 443.2C499.9 442.2 499.6 441.6 499.4 441.9L498.4 441.1C498.1 441.5 497.6 440 497.6 438.7L495.8 429.7C495.8 428.5 495.3 427 495.1 427.3L490.3 431.6C490 431.9 489.5 430.2 489.6 429.1L490 404.7C490 403.6 489.6 402.1 489.3 402.2L484.3 403.9C484 404 483.5 402.1 483.6 401.1C484.3 394.6 486.2 391.1 488.6 391.9C488.9 392 488.9 390.6 488.6 389.5L482.5 368.3C482.3 367.6 482 367.3 481.9 367.7L477.8 383.3C477.7 383.7 477.4 383.4 477.2 382.7L472.8 367C472.5 365.9 472.1 365.9 472.2 367.1L473 387.1C473 387.8 472.9 388.2 472.7 387.9L465.4 378.4C465.1 378.1 465 378.6 465.1 379.6L466.3 390.7C466.4 391.4 466.3 392 466.1 392C464.5 392.1 463.1 393.7 462.1 396.7C461.9 397.2 462.1 398.5 462.4 399.3C463 400.9 463.7 402.9 464.3 404.8C465.9 409.7 468.3 414.5 467.9 407.1C467.6 401.1 468.1 396.7 469.3 394.8C469.3 394.6 469.7 395.6 469.8 396.8Z" stroke="url(#paint21_linear)" stroke-width="0.2239" stroke-miterlimit="10"/>
<path d="M468.6 394.7L472.9 439C473 440.3 473.5 441.4 473.7 441.1L481 427.4C481.3 426.7 481.9 428.3 481.9 429.7L482.1 467.4C482.1 468.7 482.6 470.3 482.9 469.9L492.9 457.7C493.2 457.4 493.7 458.7 493.7 460L495.1 485.8C495.2 487.2 495.8 488.6 496 487.9C498.8 479.5 502.2 473.6 506.2 470.3C506.4 470.1 506.4 469.3 506.3 468.4L502.1 444.7C501.9 443.7 501.6 443 501.4 443.3L500.3 442.5C500 442.9 499.5 441.3 499.5 440L497.6 430.4C497.6 429.2 497.1 427.6 496.8 427.8L491.3 432.3C491 432.6 490.5 430.8 490.5 429.6L491.3 403.5C491.3 402.3 490.9 400.7 490.5 400.8L484.8 402.6C484.4 402.7 483.9 400.7 484.1 399.6C485 392.6 487.1 389 489.8 389.8C490.1 389.9 490.1 388.4 489.8 387.3L483.2 364.5C483 363.7 482.7 363.4 482.5 363.9L477.6 380.6C477.5 381 477.2 380.8 476.9 379.9L472 363C471.7 361.8 471.2 361.8 471.3 363.1L472 384.5C472 385.3 471.9 385.6 471.6 385.3L463.5 375C463.2 374.6 463 375.2 463.1 376.3L464.3 388.2C464.4 389 464.3 389.6 464.1 389.6C462.3 389.7 460.7 391.4 459.5 394.6C459.3 395.1 459.5 396.6 459.8 397.4C460.5 399.1 461.2 401.3 461.8 403.4C463.5 408.6 466.2 413.8 465.9 405.9C465.7 399.5 466.3 394.7 467.7 392.8C468 392.3 468.5 393.4 468.6 394.7Z" stroke="url(#paint22_linear)" stroke-width="0.2458" stroke-miterlimit="10"/>
<path d="M467.2 392.4L471.5 439.9C471.6 441.3 472.1 442.5 472.3 442.2L480.7 427.7C481.1 426.9 481.7 428.7 481.7 430.2L481.4 470.5C481.4 471.9 482 473.6 482.3 473.2L493.7 460.2C494 459.8 494.5 461.3 494.6 462.6L495.8 490.2C495.9 491.8 496.5 493.3 496.8 492.5C500.1 483.6 504 477.3 508.5 473.8C508.7 473.6 508.8 472.8 508.6 471.8L504.2 446.4C504 445.3 503.6 444.6 503.4 444.8L502.2 443.9C501.9 444.3 501.3 442.6 501.3 441.2L499.2 430.9C499.2 429.6 498.7 427.8 498.3 428.1L492 432.9C491.6 433.2 491.1 431.3 491.1 430L492.4 402.1C492.5 400.9 492 399.1 491.6 399.2L485.2 401C484.8 401.1 484.2 398.9 484.4 397.8C485.5 390.3 488 386.5 491 387.4C491.4 387.5 491.4 386 491 384.7L483.9 360.3C483.7 359.4 483.3 359.1 483.2 359.6L477.5 377.4C477.3 377.9 477 377.6 476.8 376.7L471.6 358.6C471.2 357.3 470.8 357.4 470.8 358.7L471.2 381.6C471.2 382.4 471 382.8 470.8 382.5L461.8 371.4C461.5 371 461.3 371.6 461.4 372.8L462.6 385.5C462.7 386.4 462.6 387 462.4 387C460.3 387.1 458.5 388.9 457.1 392.3C456.9 392.8 457 394.4 457.4 395.3C458.2 397.1 458.9 399.5 459.6 401.7C461.4 407.3 464.4 412.9 464.1 404.4C463.9 397.5 464.7 392.5 466.3 390.4C466.6 389.9 467.1 391 467.2 392.4Z" stroke="url(#paint23_linear)" stroke-width="0.2698" stroke-miterlimit="10"/>
<path d="M465.7 389.9L469.8 440.7C469.9 442.2 470.5 443.5 470.7 443.2L480.3 427.8C480.8 427 481.4 428.9 481.4 430.4L480.5 473.5C480.5 475 481.1 476.8 481.5 476.4L494.5 462.7C494.9 462.3 495.4 463.9 495.5 465.3L496.4 494.8C496.5 496.5 497.1 498.1 497.5 497.3C501.3 487.8 505.8 481.1 510.9 477.4C511.1 477.2 511.2 476.3 511 475.3L506.4 448.1C506.2 446.9 505.8 446.1 505.5 446.4L504.1 445.4C503.7 445.9 503.1 444 503.1 442.5L500.9 431.4C500.9 430 500.4 428.1 500 428.4L492.8 433.4C492.4 433.7 491.8 431.7 491.9 430.3L493.7 400.5C493.8 399.2 493.2 397.3 492.8 397.4L485.5 399.2C485 399.3 484.4 397 484.6 395.8C486 387.8 488.8 383.8 492.2 384.8C492.6 384.9 492.7 383.3 492.3 381.9L484.7 355.7C484.4 354.8 484.1 354.4 483.9 354.9L477.2 373.8C477 374.3 476.7 374 476.4 373L470.9 353.6C470.5 352.2 470 352.3 470 353.7L470.2 378.2C470.2 379.1 470 379.5 469.7 379.1L459.7 367.1C459.3 366.7 459.1 367.4 459.2 368.5L460.4 382.1C460.5 383 460.4 383.7 460.1 383.7C457.8 383.7 455.7 385.7 454.1 389.3C453.8 389.9 454 391.5 454.4 392.5C455.2 394.5 456 397 456.8 399.4C458.8 405.4 462 411.4 461.9 402.3C461.8 394.9 462.8 389.6 464.5 387.4C465 387.2 465.6 388.5 465.7 389.9Z" stroke="url(#paint24_linear)" stroke-width="0.2961" stroke-miterlimit="10"/>
<path d="M464 387.2L467.9 441.6C468 443.2 468.6 444.6 468.9 444.2L480 428C480.5 427.1 481.3 429.2 481.2 430.8L479.6 476.9C479.5 478.5 480.2 480.4 480.7 480L495.6 465.5C496 465.1 496.6 466.7 496.7 468.3L497.3 499.9C497.3 501.7 498.1 503.4 498.5 502.6C502.9 492.5 508.1 485.4 513.9 481.6C514.2 481.4 514.3 480.4 514.1 479.3L509.3 450.1C509.1 448.8 508.6 448 508.3 448.3L506.8 447.2C506.3 447.7 505.7 445.6 505.7 444L503.4 432.1C503.5 430.6 502.8 428.6 502.4 428.9L494.3 434.2C493.8 434.5 493.2 432.4 493.3 430.9L495.8 399C495.9 397.6 495.3 395.5 494.8 395.7L486.6 397.6C486.1 397.7 485.4 395.2 485.7 393.9C487.4 385.4 490.6 381.1 494.4 382.2C494.9 382.3 495 380.6 494.5 379.1L486.3 350.9C486 349.9 485.6 349.5 485.4 350.1L477.6 370.2C477.4 370.7 477 370.4 476.7 369.4L470.7 348.6C470.3 347.1 469.7 347.2 469.7 348.7L469.5 374.9C469.5 375.9 469.2 376.3 468.9 375.9L457.8 362.9C457.4 362.4 457.1 363.2 457.2 364.4L458.4 379C458.5 380 458.3 380.7 458.1 380.7C455.5 380.7 453.1 382.7 451.3 386.6C451 387.2 451.2 389 451.6 390C452.5 392.1 453.4 394.8 454.2 397.4C456.3 403.9 459.9 410.3 459.9 400.6C459.9 392.7 461.1 387 463.1 384.7C463.3 384.4 463.9 385.7 464 387.2Z" stroke="url(#paint25_linear)" stroke-width="0.3251" stroke-miterlimit="10"/>
<path d="M462.1 384.4L465.7 442.6C465.8 444.3 466.5 445.8 466.8 445.4L479.5 428.1C480.1 427.2 480.9 429.4 480.8 431.1L478.3 480.4C478.2 482.1 478.9 484.2 479.4 483.7L496.4 468.4C496.9 468 497.5 469.7 497.6 471.4L497.9 505.2C497.9 507.1 498.7 509 499.2 508.1C504.3 497.4 510.3 489.9 516.9 485.8C517.2 485.6 517.3 484.5 517.1 483.4L512.1 452.1C511.9 450.7 511.4 449.8 511 450.2L509.3 449C508.8 449.5 508 447.3 508.2 445.6L505.8 432.9C505.9 431.3 505.2 429.1 504.7 429.5L495.5 435C495 435.3 494.3 433 494.4 431.4L497.7 397.4C497.8 395.9 497.2 393.7 496.7 393.8L487.4 395.7C486.8 395.8 486.1 393.1 486.4 391.8C488.4 382.7 492.1 378.2 496.4 379.4C496.9 379.6 497.1 377.7 496.6 376.1L487.7 345.9C487.4 344.8 486.9 344.4 486.7 345L477.6 366.4C477.4 367 476.9 366.6 476.6 365.5L470.2 343.2C469.7 341.6 469.1 341.6 469 343.2L468.5 371.2C468.5 372.2 468.2 372.7 467.8 372.3L455.5 358.3C455.1 357.8 454.7 358.6 454.8 359.9L455.9 375.5C456 376.5 455.8 377.3 455.5 377.3C452.5 377.3 449.9 379.4 447.7 383.5C447.4 384.1 447.5 386.1 448 387.1C449 389.4 449.9 392.3 450.8 395C453.1 402 457 408.9 457.2 398.5C457.3 390.1 458.7 384 461 381.5C461.4 381.3 462 382.7 462.1 384.4Z" stroke="url(#paint26_linear)" stroke-width="0.3568" stroke-miterlimit="10"/>
<path d="M460.1 381.3L463.4 443.6C463.5 445.4 464.2 447 464.6 446.7L479.2 428.4C479.9 427.4 480.8 429.8 480.6 431.7L477.1 484.4C477 486.2 477.8 488.5 478.3 488L497.6 471.9C498.1 471.5 498.9 473.4 498.9 475.2L498.7 511.3C498.7 513.3 499.6 515.3 500.1 514.4C506 503 512.9 495.1 520.4 490.8C520.8 490.6 520.9 489.5 520.7 488.2L515.5 454.7C515.3 453.2 514.7 452.2 514.3 452.6L512.4 451.3C511.8 451.9 511 449.5 511.2 447.7L508.7 434.1C508.8 432.4 508.1 430.1 507.5 430.4L497 436.2C496.4 436.5 495.6 434.1 495.8 432.4L500 396.1C500.2 394.5 499.5 392.1 498.9 392.2L488.4 394.1C487.7 394.2 487 391.3 487.4 389.9C489.8 380.2 494 375.4 498.8 376.8C499.4 377 499.6 374.9 499.1 373.3L489.5 340.9C489.2 339.8 488.7 339.3 488.4 339.9L477.9 362.7C477.6 363.3 477.1 362.9 476.8 361.7L469.9 337.8C469.4 336.1 468.7 336.1 468.6 337.8L467.6 367.8C467.6 368.9 467.2 369.4 466.8 368.9L453.2 353.7C452.7 353.1 452.3 354 452.4 355.4L453.4 372.1C453.5 373.2 453.3 374 452.9 374C449.6 373.9 446.5 376.2 444 380.5C443.6 381.2 443.7 383.2 444.3 384.4C445.4 386.8 446.4 390 447.4 392.9C449.9 400.4 454.2 407.8 454.5 396.7C454.7 387.7 456.4 381.2 459 378.6C459.3 378 460 379.5 460.1 381.3Z" stroke="url(#paint27_linear)" stroke-width="0.3917" stroke-miterlimit="10"/>
<path d="M457.8 378L460.6 444.6C460.7 446.6 461.5 448.3 461.9 447.9L478.6 428.5C479.4 427.5 480.3 430 480.2 432L475.5 488.2C475.3 490.1 476.2 492.6 476.9 492.1L498.9 475.2C499.5 474.7 500.3 476.8 500.3 478.7L499.6 517.3C499.6 519.5 500.5 521.6 501.1 520.6C507.9 508.5 515.8 500.1 524.3 495.6C524.7 495.4 524.9 494.2 524.7 492.8L519.3 456.9C519.1 455.3 518.4 454.3 518 454.7L515.9 453.3C515.2 453.9 514.4 451.3 514.6 449.4L511.9 434.8C512.1 432.9 511.3 430.5 510.6 430.8L498.7 436.9C498 437.3 497.2 434.6 497.4 432.8L502.6 394C502.8 392.3 502.1 389.8 501.4 389.9L489.6 391.8C488.8 391.9 488.1 388.8 488.5 387.3C491.3 377 496.1 371.9 501.5 373.5C502.2 373.7 502.4 371.5 501.9 369.7L491.6 334.9C491.2 333.7 490.7 333.2 490.4 333.9L478.2 358.1C477.9 358.8 477.3 358.3 477 357L469.5 331.3C469 329.5 468.1 329.5 468 331.3L466.4 363.3C466.3 364.5 465.9 365 465.5 364.5L450.4 348.1C449.8 347.5 449.4 348.4 449.5 349.9L450.4 367.8C450.5 369 450.2 369.8 449.8 369.8C446 369.7 442.6 372 439.7 376.6C439.2 377.3 439.4 379.5 440 380.8C441.2 383.4 442.3 386.8 443.3 389.9C446 397.9 450.8 406 451.3 394.1C451.7 384.5 453.7 377.5 456.7 374.8C457 374.4 457.8 376.1 457.8 378Z" stroke="url(#paint28_linear)" stroke-width="0.43" stroke-miterlimit="10"/>
<path d="M455.3 374.4L457.5 445.7C457.6 447.8 458.4 449.6 458.9 449.2L478 428.7C478.9 427.6 479.9 430.3 479.7 432.5L473.6 492.6C473.4 494.7 474.3 497.3 475.1 496.7L500.2 478.9C500.9 478.4 501.8 480.6 501.7 482.7L500.3 524C500.2 526.3 501.3 528.6 502 527.6C509.9 514.8 518.8 505.9 528.5 501.2C529 501 529.2 499.7 529 498.3L523.5 459.9C523.3 458.2 522.6 457.1 522.1 457.5L519.7 456C518.9 456.6 518 453.9 518.2 451.8L515.4 436.2C515.6 434.2 514.8 431.6 514 431.9L500.5 438.2C499.7 438.6 498.8 435.7 499.1 433.8L505.5 392.4C505.8 390.6 505 387.9 504.2 388L490.8 389.9C489.9 390 489.1 386.7 489.6 385C492.9 374 498.4 368.6 504.5 370.4C505.3 370.6 505.5 368.3 505 366.4L493.9 329.1C493.5 327.8 492.9 327.3 492.5 328L478.4 353.7C478 354.4 477.4 353.9 477 352.5L469 324.9C468.4 322.9 467.5 322.9 467.3 324.9L465.1 359.1C465 360.4 464.6 360.9 464.1 360.4L447.3 342.6C446.7 342 446.2 342.9 446.3 344.6L447.1 363.7C447.2 365 446.9 365.9 446.4 365.9C442.2 365.7 438.2 368.2 434.9 373.1C434.4 373.9 434.5 376.2 435.1 377.6C436.4 380.4 437.6 384 438.7 387.4C441.6 396 446.9 404.7 447.6 392C448.2 381.7 450.5 374.3 453.9 371.4C454.4 370.6 455.3 372.4 455.3 374.4Z" stroke="url(#paint29_linear)" stroke-width="0.472" stroke-miterlimit="10"/>
<path d="M452.6 370.5L454 446.8C454 449 455 451 455.5 450.6L477.3 428.9C478.3 427.8 479.4 430.7 479.2 433L471.5 497.2C471.2 499.4 472.2 502.2 473.1 501.6L501.6 482.9C502.4 482.4 503.3 484.7 503.2 486.9L501 531C500.9 533.5 502.1 536 502.8 534.8C511.8 521.2 522 511.8 533 507C533.5 506.8 533.8 505.4 533.6 503.9L527.9 462.7C527.7 460.9 526.9 459.7 526.3 460.1L523.6 458.5C522.7 459.1 521.7 456.2 522 454L519.1 437.2C519.4 435.1 518.5 432.3 517.6 432.6L502.3 439.2C501.4 439.6 500.4 436.6 500.8 434.5L508.6 390.3C508.9 388.3 508.1 385.4 507.2 385.5L492.1 387.3C491.1 387.4 490.2 383.9 490.8 382.1C494.7 370.4 501 364.7 507.8 366.7C508.7 367 509 364.5 508.4 362.4L496.4 322.3C496 320.9 495.3 320.3 494.9 321.1L478.6 348.4C478.2 349.1 477.5 348.6 477 347.1L468.3 317.5C467.7 315.4 466.6 315.4 466.4 317.5L463.4 354C463.3 355.3 462.8 355.9 462.2 355.3L443.5 336.1C442.8 335.4 442.2 336.4 442.3 338.2L442.9 358.7C442.9 360.1 442.6 361 442.1 361C437.3 360.8 432.9 363.3 429.1 368.5C428.5 369.3 428.6 371.8 429.3 373.3C430.7 376.3 432 380.2 433.3 383.8C436.5 393.1 442.3 402.4 443.3 388.8C444.1 377.8 446.8 369.9 450.7 366.9C451.6 366.4 452.5 368.4 452.6 370.5Z" stroke="url(#paint30_linear)" stroke-width="0.5181" stroke-miterlimit="10"/>
<path d="M449.5 366.4L450 448C450 450.4 451.1 452.5 451.7 452.1L476.6 429.2C477.8 428 479 431.1 478.6 433.6L469 502C468.7 504.4 469.8 507.4 470.7 506.8L503.1 487.2C504 486.7 505 489.2 504.9 491.5L501.8 538.6C501.6 541.2 502.9 543.9 503.8 542.7C514.2 528.3 525.8 518.4 538.2 513.3C538.8 513.1 539.1 511.6 538.9 509.9L533.1 465.8C532.8 463.9 532 462.5 531.4 463L528.4 461.2C527.4 461.9 526.3 458.7 526.7 456.4L523.7 438.4C524.1 436.1 523 433.1 522.1 433.5L504.8 440.3C503.8 440.7 502.7 437.4 503.2 435.2L512.7 388C513.1 385.9 512.2 382.8 511.2 382.9L494.2 384.6C493.1 384.7 492.1 380.9 492.8 379C497.4 366.6 504.5 360.5 512.2 362.8C513.2 363.1 513.6 360.4 512.9 358.2L499.9 315.2C499.4 313.7 498.7 313.1 498.2 313.9L479.5 342.9C479 343.7 478.2 343.1 477.8 341.5L468.5 309.7C467.8 307.4 466.6 307.4 466.4 309.6L462.5 348.6C462.4 350 461.8 350.6 461.1 350L440.3 329.2C439.5 328.4 438.9 329.5 438.9 331.4L439.3 353.3C439.3 354.8 438.9 355.8 438.4 355.8C433 355.5 428 358.2 423.6 363.7C422.9 364.6 423 367.3 423.7 368.8C425.3 372 426.6 376.2 428 380.1C431.5 390.1 437.9 400.1 439.2 385.6C440.3 373.9 443.4 365.5 447.9 362.3C448.5 361.9 449.5 364 449.5 366.4Z" stroke="url(#paint31_linear)" stroke-width="0.5687" stroke-miterlimit="10"/>
<path d="M446.1 361.8L445.5 449C445.5 451.6 446.7 453.8 447.3 453.4L475.6 429.3C476.9 428 478.3 431.4 477.8 434L466 507.1C465.6 509.6 466.8 512.8 467.9 512.2L504.6 491.7C505.6 491.1 506.7 493.9 506.5 496.4L502.4 546.8C502.2 549.6 503.6 552.5 504.6 551.2C516.5 535.9 529.8 525.5 543.8 520.3C544.5 520.1 544.8 518.5 544.6 516.7L538.7 469.5C538.4 467.4 537.5 466 536.8 466.5L533.5 464.5C532.4 465.2 531.2 461.8 531.6 459.3L528.4 440C528.8 437.6 527.7 434.3 526.6 434.7L507 441.8C505.8 442.2 504.7 438.7 505.3 436.3L516.6 386C517.1 383.8 516.1 380.4 515 380.5L495.8 382.1C494.5 382.2 493.5 378.1 494.3 376.1C499.6 362.9 507.7 356.5 516.3 359C517.4 359.3 517.9 356.5 517.2 354.1L503.2 307.9C502.7 306.3 501.9 305.6 501.3 306.4L479.8 337.1C479.2 337.9 478.4 337.3 477.9 335.6L467.8 301.5C467.1 299.1 465.7 299 465.4 301.4L460.4 343.1C460.2 344.6 459.5 345.3 458.8 344.6L435.7 322.1C434.9 321.3 434.1 322.4 434.1 324.4L434.2 347.8C434.2 349.4 433.7 350.5 433.1 350.4C427.1 350 421.3 352.8 416.3 358.6C415.5 359.5 415.6 362.4 416.4 364.1C418.1 367.6 419.6 372.1 421.1 376.3C424.9 387 431.9 397.8 433.6 382.4C435 369.9 438.6 360.9 443.7 357.6C445 357.1 446.1 359.4 446.1 361.8Z" stroke="url(#paint32_linear)" stroke-width="0.6243" stroke-miterlimit="10"/>
<path d="M442.4 357L440.5 450.2C440.4 452.9 441.7 455.4 442.5 454.9L474.8 429.5C476.3 428.2 477.8 431.7 477.3 434.6L463 512.6C462.5 515.3 463.8 518.7 465.1 518.1L506.8 496.6C507.9 496 509.2 498.9 508.9 501.6L503.5 555.4C503.2 558.4 504.8 561.5 505.9 560.2C519.5 544 534.6 533 550.5 527.7C551.3 527.4 551.7 525.8 551.5 523.9L545.5 473.3C545.2 471.1 544.2 469.5 543.4 470L539.7 467.9C538.4 468.6 537.1 465 537.7 462.3L534.4 441.7C534.9 439.1 533.7 435.6 532.5 436L510.3 443.3C509 443.7 507.8 440 508.4 437.4L521.9 383.8C522.5 381.4 521.4 377.8 520.2 377.9L498.5 379.4C497.1 379.5 496 375.1 497 373C503.2 358.9 512.4 352.2 522.1 355C523.3 355.4 523.9 352.3 523.1 349.8L508 300.2C507.5 298.5 506.5 297.8 505.9 298.6L481.2 331.2C480.5 332.1 479.6 331.3 479 329.6L468.1 293C467.3 290.4 465.8 290.3 465.4 292.9L459.2 337.4C459 339 458.2 339.7 457.4 339L431.7 314.6C430.8 313.7 429.9 314.9 429.9 317.1L429.7 342.2C429.7 343.9 429.2 345 428.4 345C421.6 344.5 415.1 347.4 409.4 353.6C408.5 354.6 408.5 357.6 409.4 359.5C411.3 363.3 412.9 368 414.5 372.6C418.6 384.1 426.4 395.8 428.5 379.3C430.2 365.9 434.5 356.4 440.3 352.9C441.2 351.9 442.4 354.3 442.4 357Z" stroke="url(#paint33_linear)" stroke-width="0.6853" stroke-miterlimit="10"/>
<path d="M438.2 351.7L434.7 451.4C434.6 454.3 436 457 436.9 456.5L473.6 429.7C475.4 428.3 476.9 432.1 476.3 435.2L459.1 518.4C458.5 521.3 459.9 525 461.3 524.3L508.6 501.9C509.9 501.3 511.3 504.4 510.9 507.3L504.1 564.7C503.7 567.9 505.4 571.3 506.7 569.8C522.3 552.7 539.4 541.1 557.4 535.6C558.3 535.3 558.8 533.6 558.5 531.5L552.5 477.4C552.2 475 551.1 473.4 550.1 473.9L546 471.6C544.5 472.4 543.1 468.5 543.8 465.6L540.4 443.5C541 440.8 539.7 437 538.3 437.4L513.2 444.9C511.7 445.3 510.4 441.3 511.2 438.6L527.2 381.5C527.9 379 526.8 375.1 525.3 375.2L500.8 376.5C499.2 376.6 498.1 371.9 499.1 369.6C506.3 354.6 516.8 347.6 527.6 350.7C529 351.1 529.7 347.9 528.9 345.1L512.6 291.9C512 290 511 289.3 510.2 290.2L481.9 324.7C481.1 325.6 480.1 324.8 479.5 322.9L467.8 283.6C467 280.8 465.2 280.7 464.8 283.4L457.2 330.9C456.9 332.6 456 333.4 455.2 332.6L426.6 306.2C425.6 305.2 424.5 306.5 424.5 308.8L423.9 335.6C423.9 337.4 423.2 338.6 422.4 338.6C414.8 337.9 407.4 341 400.9 347.5C399.9 348.5 399.8 351.8 400.8 353.8C402.9 357.8 404.6 363 406.4 367.8C410.8 380.1 419.5 392.7 422.1 375.1C424.2 360.8 429.2 350.7 435.7 347C437 346.3 438.3 348.9 438.2 351.7Z" stroke="url(#paint34_linear)" stroke-width="0.7522" stroke-miterlimit="10"/>
<path d="M433.6 346.1L428.3 452.6C428.1 455.7 429.7 458.6 430.7 458L472.5 429.9C474.5 428.4 476.2 432.6 475.5 435.8L454.9 524.5C454.2 527.6 455.7 531.6 457.3 530.9L510.9 507.6C512.4 507 513.9 510.3 513.4 513.4L504.9 574.7C504.4 578.1 506.3 581.7 507.8 580.2C525.6 562.1 545.1 550 565.4 544.3C566.4 544 567 542.1 566.7 540L560.7 482C560.4 479.5 559.2 477.7 558.1 478.2L553.5 475.6C551.9 476.4 550.3 472.2 551.1 469.2L547.6 445.5C548.4 442.6 546.9 438.5 545.3 439L516.9 446.7C515.2 447.2 513.8 442.8 514.7 440L533.5 379.1C534.3 376.4 533.1 372.3 531.5 372.3L503.9 373.3C502.1 373.4 500.9 368.3 502.1 365.9C510.4 350 522.3 342.6 534.5 346.1C536 346.5 536.9 343.1 536 340.2L518.4 283.1C517.8 281.1 516.6 280.3 515.7 281.2L483.4 317.7C482.5 318.7 481.3 317.8 480.7 315.8L468.1 273.7C467.2 270.7 465.2 270.6 464.7 273.5L455.5 324.2C455.2 326.1 454.2 326.8 453.2 326L421.3 297.4C420.1 296.4 419 297.7 418.9 300.2L417.9 328.8C417.8 330.7 417.1 332 416.2 331.9C407.6 331.1 399.2 334.3 391.8 341.1C390.6 342.2 390.5 345.7 391.7 347.8C394 352.1 395.9 357.7 397.8 362.9C402.6 376.1 412.2 389.7 415.4 370.9C418 355.7 423.7 344.9 431.2 341C432.3 340.2 433.7 343.1 433.6 346.1Z" stroke="url(#paint35_linear)" stroke-width="0.8257" stroke-miterlimit="10"/>
<path d="M428.5 339.9L421 453.7C420.8 457 422.5 460.1 423.6 459.6L471.1 430.1C473.4 428.5 475.2 433 474.4 436.4L449.9 531C449.1 534.3 450.7 538.6 452.5 537.8L513.2 513.6C514.9 512.9 516.5 516.6 516 519.8L505.6 585.2C505 588.9 507.1 592.8 508.8 591.2C529.1 572.1 551.3 559.4 574.3 553.6C575.4 553.3 576.1 551.3 575.9 549L570 486.9C569.7 484.2 568.4 482.2 567.1 482.8L561.9 480C560 480.8 558.4 476.4 559.3 473.1L555.7 447.7C556.6 444.6 555.1 440.3 553.2 440.7L521.1 448.5C519.2 449 517.7 444.3 518.7 441.3L540.8 376.5C541.8 373.6 540.5 369.2 538.6 369.2L507.5 369.9C505.4 369.9 504.2 364.5 505.6 362C515.2 345.1 528.7 337.4 542.4 341.2C544.1 341.7 545.1 338 544.2 334.9L525.2 273.6C524.5 271.4 523.2 270.5 522.2 271.6L485.3 310.2C484.3 311.2 483 310.3 482.3 308.1L468.7 262.9C467.7 259.7 465.5 259.5 464.9 262.6L453.8 316.7C453.4 318.7 452.3 319.5 451.2 318.5L415.7 287.4C414.4 286.3 413.1 287.7 412.9 290.3L411.3 320.9C411.2 323 410.4 324.3 409.3 324.2C399.6 323.2 390.1 326.5 381.7 333.7C380.4 334.8 380.2 338.6 381.4 340.9C383.9 345.6 386 351.5 388 357.1C393.3 371.3 403.8 386 407.7 365.9C410.8 349.6 417.5 338.2 425.9 334.2C427.1 333.7 428.7 336.7 428.5 339.9Z" stroke="url(#paint36_linear)" stroke-width="0.9064" stroke-miterlimit="10"/>
<path d="M422.8 333.3L412.7 454.9C412.4 458.5 414.3 461.8 415.6 461.2L469.5 430.3C472.1 428.7 474.1 433.5 473.1 437.1L444.1 537.9C443.1 541.4 444.9 546 447 545.2L515.8 520.2C517.7 519.5 519.5 523.4 518.8 526.9L506.1 596.7C505.4 600.6 507.7 604.8 509.6 603.1C532.8 583 557.9 569.7 583.9 563.8C585.1 563.5 585.9 561.4 585.7 558.9L579.9 492.4C579.6 489.5 578.1 487.4 576.7 488L570.9 484.9C568.8 485.8 567 481 568.1 477.5L564.3 450.3C565.3 447 563.7 442.3 561.6 442.8L525.3 450.7C523.2 451.2 521.5 446.2 522.7 442.9L548.5 373.9C549.6 370.8 548.2 366.1 546.2 366.1L511.2 366.5C508.9 366.5 507.5 360.7 509.2 358C520.2 340.1 535.6 332 550.9 336.3C552.8 336.8 554 333 553 329.5L532.4 263.7C531.7 261.4 530.2 260.4 529.1 261.5L486.9 302.3C485.8 303.4 484.3 302.4 483.6 300L468.9 251.5C467.9 248 465.4 247.8 464.6 251.1L451.3 308.8C450.8 310.9 449.5 311.8 448.3 310.7L408.7 277C407.3 275.8 405.8 277.3 405.6 280.1L403.4 312.8C403.3 315 402.3 316.5 401.1 316.3C390.2 315.1 379.5 318.5 369.8 326.1C368.3 327.3 368.1 331.3 369.4 333.7C372.2 338.7 374.4 345.1 376.6 351.1C382.3 366.4 394 382.2 398.7 360.8C402.5 343.5 410.1 331.3 419.6 327.1C421.3 326.6 423.1 329.9 422.8 333.3Z" stroke="url(#paint37_linear)" stroke-width="0.995" stroke-miterlimit="10"/>
<path d="M416.5 326.2L403.4 456.1C403 459.9 405.1 463.5 406.5 462.9L467.7 430.6C470.6 428.9 472.9 434 471.6 437.9L437.5 545.3C436.3 549 438.3 554 440.6 553.2L518.4 527.4C520.5 526.7 522.5 530.9 521.7 534.6L506.4 609.1C505.5 613.3 508.1 617.8 510.3 616C536.7 594.8 565.2 580.9 594.6 575C596 574.7 596.9 572.4 596.7 569.8L591.1 498.7C590.9 495.6 589.2 493.3 587.6 493.9L581.1 490.6C578.7 491.5 576.7 486.3 578 482.6L574.2 453.5C575.4 450 573.6 445 571.3 445.4L530.3 453.4C527.9 453.9 526.1 448.5 527.5 445L557.5 371.5C558.8 368.2 557.3 363.1 555 363.1L515.5 363C512.9 363 511.4 356.8 513.4 353.9C526.1 334.9 543.5 326.5 560.8 331.3C563 331.9 564.4 327.8 563.2 324.1L541 253.5C540.2 251 538.6 249.9 537.3 251.1L489.2 294.1C487.9 295.3 486.2 294.1 485.5 291.6L469.6 239.5C468.5 235.8 465.7 235.5 464.8 239.1L449 300.6C448.4 302.9 447 303.7 445.6 302.6L401.5 266C399.9 264.7 398.2 266.2 397.9 269.3L394.9 304.2C394.7 306.5 393.6 308.1 392.3 308C380 306.6 367.9 310 356.9 318.1C355.2 319.4 354.9 323.7 356.3 326.3C359.4 331.7 361.7 338.6 364.2 345C370.4 361.4 383.4 378.5 388.9 355.7C393.4 337.2 402.1 324.4 413 320C414.9 319 416.8 322.5 416.5 326.2Z" stroke="url(#paint38_linear)" stroke-width="1.0922" stroke-miterlimit="10"/>
<path d="M409.5 318.4L392.9 457.1C392.4 461.2 394.7 465 396.3 464.4L465.7 430.7C469 428.9 471.5 434.4 470 438.6L430.1 553C428.7 556.9 430.9 562.3 433.5 561.5L521.6 534.9C524 534.2 526.2 538.7 525.2 542.7L506.9 622.1C505.9 626.6 508.6 631.4 511.2 629.5C541.3 607.2 573.5 592.7 606.7 586.8C608.3 586.5 609.4 584.1 609.2 581.2L603.9 505.1C603.7 501.8 601.8 499.3 600 500L592.7 496.3C590 497.2 587.8 491.7 589.3 487.7L585.4 456.5C586.8 452.7 584.9 447.4 582.2 447.8L535.8 455.8C533.1 456.3 531.1 450.5 532.8 446.8L567.7 368.7C569.3 365.2 567.6 359.7 565 359.7L520.5 359.1C517.6 359.1 516 352.4 518.2 349.3C532.7 329.1 552.5 320.4 571.9 325.7C574.4 326.4 576 322 574.7 318L550.7 242.2C549.9 239.5 548 238.4 546.5 239.6L491.7 284.9C490.2 286.1 488.4 284.9 487.5 282.2L470.3 226.3C469.1 222.3 465.9 222 464.9 225.8L446.2 291.3C445.5 293.7 443.9 294.6 442.4 293.4L393.2 253.7C391.4 252.3 389.4 253.9 389.1 257.2L385.3 294.5C385 297 383.8 298.7 382.3 298.5C368.5 296.8 354.8 300.4 342.3 308.8C340.3 310.1 339.9 314.7 341.6 317.5C345 323.3 347.6 330.7 350.2 337.6C357 355.2 371.3 373.6 377.9 349.3C383.2 329.6 393.3 316 405.5 311.4C407.8 310.7 409.9 314.5 409.5 318.4Z" stroke="url(#paint39_linear)" stroke-width="1.1989" stroke-miterlimit="10"/>
<path d="M401.7 310.1L381 458.2C380.4 462.5 382.9 466.7 384.8 466L463.5 430.9C467.3 429 470 435 468.3 439.4L421.7 561.2C420.1 565.4 422.5 571.1 425.4 570.3L525 543.1C527.7 542.3 530.1 547.2 529 551.4L507.2 636.1C506 640.9 509 646.1 511.9 644.1C546.1 620.6 582.7 605.6 620.2 599.8C622 599.5 623.2 596.9 623.1 593.9L618.2 512.4C618 508.8 615.9 506.2 613.9 506.9L605.8 502.9C602.7 503.9 600.4 497.9 602.1 493.7L598.1 460.3C599.8 456.3 597.6 450.5 594.7 451L542.4 458.9C539.3 459.4 537.2 453.2 539.1 449.3L579.5 366.2C581.3 362.5 579.5 356.6 576.6 356.5L526.5 355.2C523.2 355.1 521.5 348 524.1 344.7C540.8 323.3 563.2 314.2 584.9 320.2C587.7 321 589.6 316.3 588.2 312.1L562.2 230.7C561.3 227.8 559.2 226.6 557.6 227.8L495.2 275.5C493.5 276.8 491.4 275.5 490.5 272.6L471.9 212.6C470.6 208.3 467 208 465.8 212L443.8 281.8C443 284.4 441.1 285.3 439.4 284L384.5 240.9C382.5 239.3 380.3 241.1 379.8 244.6L374.9 284.4C374.6 287.1 373.1 288.8 371.5 288.6C356 286.6 340.5 290.2 326.3 299C324.1 300.4 323.6 305.3 325.3 308.3C329 314.6 331.8 322.5 334.7 329.9C342.1 348.9 358 368.7 365.7 342.8C372 321.8 383.5 307.4 397.4 302.7C399.9 301.8 402.3 305.9 401.7 310.1Z" stroke="url(#paint40_linear)" stroke-width="1.3161" stroke-miterlimit="10"/>
<path d="M393 301L367.5 459C366.8 463.6 369.5 468.1 371.6 467.4L460.7 430.9C465 428.9 467.9 435.3 466 440L411.7 569.5C409.8 574 412.4 580.1 415.8 579.3L528.4 551.6C531.5 550.8 534.1 556.1 532.8 560.6L507.1 650.9C505.7 656 509 661.6 512.3 659.5C551.2 634.9 592.6 619.3 634.9 613.6C636.9 613.3 638.4 610.6 638.2 607.3L633.9 520.1C633.7 516.3 631.4 513.4 629.1 514.1L620 509.7C616.5 510.7 613.9 504.3 616 499.8L612 464.1C613.9 459.8 611.6 453.6 608.3 454.1L549.2 461.8C545.7 462.3 543.4 455.6 545.6 451.5L592.3 363.2C594.4 359.3 592.4 353 589.1 352.8L532.7 350.7C529 350.6 527.2 342.9 530.1 339.4C549.2 316.8 574.6 307.4 599 314.1C602.1 315 604.3 310 602.9 305.4L574.8 218C573.8 214.9 571.5 213.5 569.6 214.9L498.6 265.1C496.7 266.5 494.4 265 493.4 261.9L473.3 197.5C471.9 192.9 467.9 192.5 466.4 196.7L440.6 271C439.7 273.7 437.5 274.7 435.7 273.3L374.5 226.5C372.3 224.8 369.7 226.6 369.2 230.3L363.1 272.8C362.7 275.7 361.1 277.5 359.2 277.3C341.7 275 324.2 278.6 308.1 287.9C305.6 289.4 304.9 294.6 306.9 297.9C311 304.7 314.1 313.2 317.2 321.2C325.3 341.6 342.9 363 352 335.4C359.4 313 372.6 297.8 388.3 293C391.2 292.2 393.7 296.6 393 301Z" stroke="url(#paint41_linear)" stroke-width="1.4446" stroke-miterlimit="10"/>
<path d="M383.4 291.2L352.5 459.8C351.6 464.7 354.7 469.5 357 468.9L458 431.1C462.8 429.1 466.1 436 463.8 440.9L400.8 578.7C398.6 583.4 401.5 590.1 405.3 589.2L532.6 561.1C536.1 560.3 538.9 566 537.4 570.8L507.1 667C505.4 672.4 509.1 678.4 512.8 676.3C556.9 650.5 603.8 634.4 651.6 628.9C653.9 628.6 655.5 625.7 655.4 622.2L651.8 528.9C651.6 524.8 649.1 521.7 646.5 522.4L636.3 517.6C632.4 518.6 629.6 511.7 631.9 507L627.9 468.7C630.1 464.2 627.6 457.5 623.8 457.9L557.1 465.3C553.2 465.7 550.7 458.6 553.2 454.2L607.1 360.4C609.5 356.2 607.4 349.5 603.7 349.3L540.1 346.3C535.9 346.1 534 337.9 537.3 334.2C559.1 310.3 587.9 300.5 615.3 308.1C618.8 309.1 621.3 303.7 619.8 298.9L589.3 205.1C588.2 201.8 585.6 200.3 583.5 201.7L502.8 254.4C500.6 255.8 498 254.2 497 250.9L475.3 181.7C473.8 176.8 469.3 176.2 467.5 180.8L437.4 259.9C436.3 262.8 433.9 263.8 431.8 262.3L363.5 211.4C361 209.5 358.1 211.5 357.5 215.4L350.1 260.8C349.6 263.8 347.7 265.8 345.6 265.5C326 262.8 306.2 266.4 287.9 276.1C285 277.6 284.2 283.2 286.4 286.7C290.9 294 294.2 303.1 297.7 311.7C306.5 333.6 326 356.8 336.7 327.4C345.3 303.6 360.4 287.4 378.2 282.5C381.4 281.8 384.3 286.5 383.4 291.2Z" stroke="url(#paint42_linear)" stroke-width="1.5858" stroke-miterlimit="10"/>
<path d="M372.7 280.6L335.4 460.5C334.3 465.8 337.7 470.9 340.4 470.3L454.7 431.3C460.2 429.2 463.7 436.6 461.1 441.9L388.1 588.4C385.6 593.4 388.7 600.6 393 599.7L536.9 571.3C540.9 570.5 543.9 576.6 542.2 581.7L506.7 684.1C504.7 689.9 508.8 696.4 513 694.1C563.1 667.1 616.2 650.6 670.1 645.3C672.7 645 674.6 641.9 674.5 638.2L671.8 538.4C671.7 534 668.9 530.7 665.9 531.4L654.5 526.1C650.1 527.1 647 519.7 649.7 514.7L645.8 473.7C648.4 468.9 645.6 461.7 641.4 462.1L566.1 469.2C561.7 469.6 558.9 462 561.9 457.3L624 357.8C626.8 353.4 624.5 346.1 620.3 345.9L548.7 341.9C544 341.6 542 332.8 545.8 329C570.8 303.7 603.3 293.7 634 302.1C637.9 303.2 640.9 297.5 639.2 292.3L606.2 191.6C605 188.1 602.2 186.4 599.7 187.9L508 243.1C505.5 244.6 502.6 242.9 501.5 239.3L478.1 165C476.4 159.7 471.4 159.1 469.4 163.9L434.3 248.1C433 251.2 430.3 252.3 428 250.6L351.8 195.3C349 193.3 345.7 195.3 345 199.5L336 247.9C335.4 251.1 333.3 253.2 330.9 252.9C308.8 249.7 286.4 253.3 265.7 263.4C262.4 265 261.4 271 263.8 274.7C268.8 282.6 272.4 292.3 276.2 301.6C285.8 325.1 307.5 350.2 319.9 318.9C330 293.6 347.2 276.5 367.3 271.5C370.6 270.5 373.8 275.5 372.7 280.6Z" stroke="url(#paint43_linear)" stroke-width="1.7407" stroke-miterlimit="10"/>
<path d="M360.8 269.2L316.3 461C315 466.6 318.8 472.2 321.8 471.5L451.1 431.3C457.3 429.1 461.2 437.1 458.1 442.7L373.8 598.3C370.9 603.6 374.3 611.3 379.1 610.5L541.6 582.1C546.1 581.3 549.5 587.8 547.4 593.3L505.9 702.3C503.6 708.4 508.1 715.4 512.9 713.1C569.8 684.9 629.8 668 690.6 663C693.5 662.8 695.7 659.5 695.7 655.5L694 548.8C693.9 544.1 690.8 540.5 687.5 541.2L674.7 535.4C669.7 536.5 666.3 528.5 669.5 523.1L665.7 479.2C668.7 474.1 665.7 466.4 660.9 466.8L576 473.3C571 473.7 568 465.5 571.4 460.5L642.8 354.9C646 350.2 643.5 342.4 638.8 342.1L558.2 336.8C552.9 336.5 550.7 327 555.1 322.9C583.6 296.2 620.4 285.9 654.9 295.3C659.3 296.5 662.7 290.5 660.9 284.9L625 176.9C623.7 173.1 620.5 171.3 617.7 172.8L513.6 230.6C510.8 232.2 507.5 230.3 506.3 226.4L481 146.7C479.2 141 473.5 140.3 471.2 145.4L430.5 234.9C429 238.2 425.9 239.3 423.3 237.5L338.2 177.3C335.1 175.1 331.4 177.2 330.4 181.7L319.5 233.4C318.8 236.9 316.3 239 313.7 238.7C288.9 235 263.6 238.6 240.1 249.1C236.4 250.8 235.2 257.1 237.8 261.2C243.3 269.7 247.2 280.2 251.4 290.1C261.9 315.4 286 342.5 300.4 309.2C312.1 282.2 331.8 264.2 354.4 259.1C358.6 258.3 362.1 263.7 360.8 269.2Z" stroke="url(#paint44_linear)" stroke-width="1.9108" stroke-miterlimit="10"/>
<path d="M347.6 256.7L294.7 461.2C293.1 467.2 297.3 473.2 300.7 472.5L447 431.3C454 429.1 458.3 437.6 454.8 443.6L357.6 608.8C354.3 614.5 357.9 622.7 363.5 621.9L547 593.8C552.1 593 555.8 600 553.4 605.8L505.1 721.8C502.4 728.3 507.4 735.9 512.8 733.4C577.3 704 645.1 686.7 713.7 682.2C717 682 719.5 678.5 719.5 674.2L719.1 560.1C719.1 555.1 715.6 551.2 711.8 551.9L697.4 545.5C691.7 546.6 688.1 538 691.7 532.3L688 485.3C691.4 479.9 688.2 471.6 682.7 472L587 478C581.3 478.3 578.1 469.5 582 464.2L663.9 352.3C667.6 347.3 664.9 338.9 659.6 338.5L568.8 331.8C562.8 331.4 560.5 321.2 565.5 316.9C598 288.7 639.6 278.3 678.3 288.8C683.2 290.1 687.2 283.8 685.2 277.8L646.5 161.7C645.1 157.6 641.5 155.6 638.4 157.2L520.2 217.6C517 219.2 513.4 217.2 512 213L484.6 127.4C482.6 121.3 476.3 120.4 473.6 125.9L426.4 221.1C424.7 224.6 421.2 225.7 418.3 223.8L323.2 158.3C319.7 155.9 315.5 158.1 314.4 162.9L301.4 218C300.5 221.7 297.8 224 294.8 223.5C266.9 219.2 238.4 222.7 211.8 233.6C207.6 235.3 206.2 242.1 209.1 246.5C215.2 255.6 219.5 266.9 224 277.6C235.4 304.8 262.2 334.1 279 298.7C292.6 270 315 251 340.6 245.9C345.2 245 349.1 250.9 347.6 256.7Z" stroke="url(#paint45_linear)" stroke-width="2.0975" stroke-miterlimit="10"/>
<path d="M332.8 243.3L270.2 461.3C268.4 467.7 273 474.2 276.8 473.5L442.3 431.4C450.3 429.1 454.9 438.3 450.9 444.7L339 619.9C335.2 625.9 339.2 634.8 345.4 634L552.6 606.4C558.3 605.6 562.4 613.2 559.6 619.3L503.5 742.7C500.4 749.6 505.9 757.8 512 755.2C585.1 724.7 661.8 707.1 739.1 703.2C742.8 703 745.7 699.3 745.7 694.8L746.9 572.8C747 567.5 743.1 563.3 738.8 564L722.7 556.9C716.3 558 712.3 548.7 716.4 542.7L712.9 492.4C716.9 486.7 713.3 477.8 707.2 478.1L599.2 483C592.8 483.3 589.3 473.8 593.8 468.2L687.7 349.7C691.9 344.4 689 335.4 683 334.9L580.8 326.5C574 325.9 571.6 315.1 577.3 310.5C614.3 280.8 661.3 270.2 704.8 282C710.3 283.5 714.9 276.7 712.7 270.3L670.8 145.6C669.3 141.2 665.3 139 661.7 140.7L527.7 203.7C524.1 205.4 520 203.2 518.6 198.7L488.9 106.8C486.8 100.3 479.6 99.2001 476.5 105L422 206.1C420 209.8 416 211 412.8 208.8L306.6 137.4C302.7 134.8 297.9 137.1 296.6 142.2L281.2 200.9C280.2 204.8 277 207.3 273.7 206.7C242.3 201.7 210.1 205.1 180 216.4C175.2 218.2 173.5 225.4 176.8 230.2C183.5 240.1 188.2 252.2 193.1 263.7C205.6 292.9 235.3 324.6 254.7 287C270.4 256.5 295.9 236.5 324.9 231.4C330.3 230.7 334.6 237.1 332.8 243.3Z" stroke="url(#paint46_linear)" stroke-width="2.3024" stroke-miterlimit="10"/>
<path d="M316.4 228.6L242.8 460.8C240.6 467.6 245.7 474.6 250.1 473.9L437.1 431.2C446.1 428.8 451.2 438.8 446.6 445.5L318 631.5C313.6 637.9 318 647.4 325 646.6L558.8 619.9C565.2 619.2 569.7 627.3 566.5 633.8L501.6 765C498 772.4 504.1 781.2 511 778.5C593.8 746.8 680.5 729.1 767.7 726C771.9 725.9 775.2 721.9 775.3 717.1L778.4 586.6C778.5 580.9 774.3 576.4 769.4 577.1L751.4 569.3C744.2 570.3 739.8 560.4 744.6 554L741.4 500.2C745.9 494.1 742 484.6 735.1 484.8L613.4 488.6C606.2 488.8 602.4 478.6 607.5 472.7L715 347.3C719.8 341.7 716.7 332.1 709.9 331.4L595 321C587.4 320.3 584.8 308.7 591.3 303.9C633.4 272.7 686.6 261.9 735.4 275.1C741.6 276.8 746.8 269.6 744.5 262.7L699 128.8C697.4 124.1 692.9 121.7 688.8 123.5L536.9 189C532.8 190.8 528.3 188.3 526.7 183.5L494.6 84.9001C492.3 77.9001 484.2 76.7001 480.6 82.9001L417.7 190.3C415.4 194.2 410.9 195.5 407.3 193.1L288.7 115.4C284.4 112.6 278.9 115 277.4 120.4L259.2 183C258 187.2 254.4 189.7 250.6 189.1C215.3 183.3 179 186.5 144.9 198.2C139.5 200 137.5 207.8 141 212.9C148.4 223.5 153.5 236.6 158.9 248.9C172.6 280.3 205.6 314.6 228 274.6C246.2 242.2 275.2 221.2 307.9 216.1C313.8 215.2 318.5 222.1 316.4 228.6Z" stroke="url(#paint47_linear)" stroke-width="2.5274" stroke-miterlimit="10"/>
<path d="M298.1 212.8L211.8 460.1C209.3 467.3 214.9 474.9 219.8 474.2L431.1 431.1C441.3 428.7 446.9 439.4 441.6 446.5L294.2 643.5C289.1 650.3 294 660.5 301.9 659.8L565.8 634.4C573.1 633.7 578 642.5 574.3 649.4L499.3 788.8C495.1 796.6 501.8 806.1 509.7 803.4C603.4 770.7 701.4 752.9 799.7 750.8C804.4 750.7 808.2 746.6 808.4 741.3L813.8 601.8C814 595.7 809.3 590.8 803.8 591.5L783.6 583C775.4 584 770.6 573.4 776.1 566.6L773.2 509.1C778.4 502.7 774.2 492.4 766.4 492.5L629.2 494.9C621.1 495 617 484.1 622.8 477.8L745.8 345.1C751.3 339.2 747.9 328.8 740.3 328.1L610.9 315.4C602.3 314.6 599.6 302.1 606.9 297.1C654.8 264.3 714.8 253.5 769.7 268.3C776.7 270.2 782.6 262.6 780.1 255.1L730.8 111.4C729.1 106.3 724 103.7 719.4 105.5L547.3 173.5C542.7 175.3 537.6 172.7 535.9 167.5L501.1 61.6C498.6 54.1 489.5 52.7 485.4 59.2L413 173.2C410.3 177.4 405.3 178.6 401.3 176.1L268.8 91.4C264 88.3 257.8 90.8 255.9 96.6L234.5 163.3C233.1 167.8 229 170.4 224.7 169.7C185 163.1 144 165.9 105.4 178C99.3 179.9 96.9 188.1 100.8 193.6C109 205.1 114.6 219.1 120.5 232.4C135.4 266.1 172.2 303.2 198 260.9C218.9 226.5 251.9 204.4 288.8 199.4C295.4 198.4 300.5 205.8 298.1 212.8Z" stroke="url(#paint48_linear)" stroke-width="2.7743" stroke-miterlimit="10"/>
<path d="M277.7 195.6L177 458.8C174 466.5 180.3 474.7 185.9 474L424.7 430.7C436.2 428.3 442.4 439.8 436.3 447.3L267.3 656.1C261.5 663.3 266.8 674.3 275.7 673.6L573.4 650C581.6 649.4 587.1 658.8 582.7 666.2L496.2 814.2C491.3 822.5 498.8 832.8 507.7 829.9C613.7 796.2 724.4 778.5 835.2 777.5C840.5 777.5 844.8 773.1 845.1 767.5L853.2 618.5C853.6 612 848.3 606.7 842.1 607.3L819.5 597.9C810.3 598.9 805 587.4 811.3 580.2L808.9 518.6C814.8 511.8 810.2 500.8 801.4 500.8L646.7 501.5C637.6 501.5 633.1 489.8 639.7 483.2L780 343.1C786.3 336.9 782.6 325.7 774.1 324.8L628.5 309.5C618.9 308.5 616 295.1 624.3 289.8C678.7 255.4 746.6 244.7 808.2 261.2C816 263.3 822.9 255.3 820.1 247.3L766.4 93C764.5 87.6 758.9 84.7 753.7 86.6L558.8 157C553.6 158.9 547.8 156 546 150.4L508.3 36.7C505.6 28.6 495.4 27 490.6 33.9L407.4 154.8C404.4 159.2 398.6 160.5 394.1 157.7L246 65.3C240.6 61.9 233.6 64.5 231.4 70.7L206.3 141.7C204.6 146.5 200 149.3 195.2 148.5C150.5 140.9 104.4 143.4 60.7 155.7C53.8 157.7 51 166.4 55.3 172.4C64.4 184.8 70.5 199.8 76.9 214.1C93.2 250.4 134.1 290.6 163.8 245.6C187.9 209.2 225.3 185.9 267 181.1C274.8 180.2 280.6 188.2 277.7 195.6Z" stroke="url(#paint49_linear)" stroke-width="3.0454" stroke-miterlimit="10"/>
<path d="M255 177L137.7 457C134.3 465.2 141.2 474 147.5 473.4L417.1 430.4C430.1 428 436.9 440.3 429.9 448.3L236.5 669.2C229.9 676.8 235.7 688.6 245.8 688L581.5 666.8C590.8 666.2 596.8 676.4 591.8 684.2L492.2 841.3C486.6 850.1 494.9 861.2 504.9 858.3C624.9 823.7 749.8 806.3 874.6 806.8C880.6 806.8 885.5 802.2 885.9 796.3L897.1 637.1C897.6 630.1 891.7 624.4 884.8 625L859.4 614.6C849 615.5 843.2 603.2 850.4 595.6L848.6 529.7C855.4 522.5 850.3 510.6 840.4 510.6L666.1 509.3C655.8 509.2 650.9 496.6 658.5 489.6L818.7 341.6C825.8 335 821.9 323.1 812.3 322L648.4 303.7C637.5 302.5 634.5 288.1 643.9 282.6C705.7 246.5 782.3 236 851.5 254.5C860.3 256.8 868.1 248.4 865.1 239.8L807 74C805 68.2 798.6 65 792.7 67L572.1 139.6C566.2 141.6 559.8 138.3 557.8 132.4L517 10.3C514.1 1.60002 502.6 -0.199985 497.1 7.10002L401.7 135.2C398.2 139.9 391.7 141.2 386.7 138.1L221.2 37.2C215.2 33.5 207.3 36.2 204.7 42.8L175.5 118.4C173.5 123.5 168.3 126.4 162.9 125.5C112.7 116.7 60.6 118.8 11.2 131.4C3.40001 133.4 0.100027 142.7 4.90003 149.1C14.9 162.5 21.6 178.6 28.6 194C46.5 233 92 276.5 126.1 228.8C153.7 190.2 196.3 165.8 243.3 161.2C251.9 160.4 258.3 169 255 177Z" stroke="url(#paint50_linear)" stroke-width="3.3429" stroke-miterlimit="10"/>
<defs>
<linearGradient id="paint0_linear" x1="500.573" y1="560.264" x2="500.592" y2="560.26" gradientUnits="userSpaceOnUse">
<stop stop-color="#480050"/>
<stop offset="0.0271281" stop-color="#420559"/>
<stop offset="0.0722404" stop-color="#311173"/>
<stop offset="0.1294" stop-color="#17269C"/>
<stop offset="0.1718" stop-color="#0037BF"/>
<stop offset="0.4026" stop-color="#00FFED"/>
<stop offset="0.5564" stop-color="#4EBF00"/>
<stop offset="0.8179" stop-color="#FFB815"/>
<stop offset="1" stop-color="#FFFF4A"/>
</linearGradient>
<linearGradient id="paint1_linear" x1="479.623" y1="417.435" x2="483.043" y2="416.782" gradientUnits="userSpaceOnUse">
<stop stop-color="#480050"/>
<stop offset="0.0271281" stop-color="#420559"/>
<stop offset="0.0722404" stop-color="#311173"/>
<stop offset="0.1294" stop-color="#17269C"/>
<stop offset="0.1718" stop-color="#0037BF"/>
<stop offset="0.4026" stop-color="#00FFED"/>
<stop offset="0.5564" stop-color="#4EBF00"/>
<stop offset="0.8179" stop-color="#FFB815"/>
<stop offset="1" stop-color="#FFFF4A"/>
</linearGradient>
<linearGradient id="paint2_linear" x1="479.32" y1="416.875" x2="483.17" y2="416.154" gradientUnits="userSpaceOnUse">
<stop stop-color="#480050"/>
<stop offset="0.0271281" stop-color="#420559"/>
<stop offset="0.0722404" stop-color="#311173"/>
<stop offset="0.1294" stop-color="#17269C"/>
<stop offset="0.1718" stop-color="#0037BF"/>
<stop offset="0.4026" stop-color="#00FFED"/>
<stop offset="0.5564" stop-color="#4EBF00"/>
<stop offset="0.8179" stop-color="#FFB815"/>
<stop offset="1" stop-color="#FFFF4A"/>
</linearGradient>
<linearGradient id="paint3_linear" x1="478.986" y1="416.273" x2="483.321" y2="415.477" gradientUnits="userSpaceOnUse">
<stop stop-color="#480050"/>
<stop offset="0.0271281" stop-color="#420559"/>
<stop offset="0.0722404" stop-color="#311173"/>
<stop offset="0.1294" stop-color="#17269C"/>
<stop offset="0.1718" stop-color="#0037BF"/>
<stop offset="0.4026" stop-color="#00FFED"/>
<stop offset="0.5564" stop-color="#4EBF00"/>
<stop offset="0.8179" stop-color="#FFB815"/>
<stop offset="1" stop-color="#FFFF4A"/>
</linearGradient>
<linearGradient id="paint4_linear" x1="478.619" y1="415.624" x2="483.499" y2="414.748" gradientUnits="userSpaceOnUse">
<stop stop-color="#480050"/>
<stop offset="0.0271281" stop-color="#420559"/>
<stop offset="0.0722404" stop-color="#311173"/>
<stop offset="0.1294" stop-color="#17269C"/>
<stop offset="0.1718" stop-color="#0037BF"/>
<stop offset="0.4026" stop-color="#00FFED"/>
<stop offset="0.5564" stop-color="#4EBF00"/>
<stop offset="0.8179" stop-color="#FFB815"/>
<stop offset="1" stop-color="#FFFF4A"/>
</linearGradient>
<linearGradient id="paint5_linear" x1="478.215" y1="414.926" x2="483.709" y2="413.961" gradientUnits="userSpaceOnUse">
<stop stop-color="#480050"/>
<stop offset="0.0271281" stop-color="#420559"/>
<stop offset="0.0722404" stop-color="#311173"/>
<stop offset="0.1294" stop-color="#17269C"/>
<stop offset="0.1718" stop-color="#0037BF"/>
<stop offset="0.4026" stop-color="#00FFED"/>
<stop offset="0.5564" stop-color="#4EBF00"/>
<stop offset="0.8179" stop-color="#FFB815"/>
<stop offset="1" stop-color="#FFFF4A"/>
</linearGradient>
<linearGradient id="paint6_linear" x1="477.769" y1="414.173" x2="483.956" y2="413.114" gradientUnits="userSpaceOnUse">
<stop stop-color="#480050"/>
<stop offset="0.0271281" stop-color="#420559"/>
<stop offset="0.0722404" stop-color="#311173"/>
<stop offset="0.1294" stop-color="#17269C"/>
<stop offset="0.1718" stop-color="#0037BF"/>
<stop offset="0.4026" stop-color="#00FFED"/>
<stop offset="0.5564" stop-color="#4EBF00"/>
<stop offset="0.8179" stop-color="#FFB815"/>
<stop offset="1" stop-color="#FFFF4A"/>
</linearGradient>
<linearGradient id="paint7_linear" x1="477.277" y1="413.363" x2="484.245" y2="412.201" gradientUnits="userSpaceOnUse">
<stop stop-color="#480050"/>
<stop offset="0.0271281" stop-color="#420559"/>
<stop offset="0.0722404" stop-color="#311173"/>
<stop offset="0.1294" stop-color="#17269C"/>
<stop offset="0.1718" stop-color="#0037BF"/>
<stop offset="0.4026" stop-color="#00FFED"/>
<stop offset="0.5564" stop-color="#4EBF00"/>
<stop offset="0.8179" stop-color="#FFB815"/>
<stop offset="1" stop-color="#FFFF4A"/>
</linearGradient>
<linearGradient id="paint8_linear" x1="476.735" y1="412.489" x2="484.583" y2="411.218" gradientUnits="userSpaceOnUse">
<stop stop-color="#480050"/>
<stop offset="0.0271281" stop-color="#420559"/>
<stop offset="0.0722404" stop-color="#311173"/>
<stop offset="0.1294" stop-color="#17269C"/>
<stop offset="0.1718" stop-color="#0037BF"/>
<stop offset="0.4026" stop-color="#00FFED"/>
<stop offset="0.5564" stop-color="#4EBF00"/>
<stop offset="0.8179" stop-color="#FFB815"/>
<stop offset="1" stop-color="#FFFF4A"/>
</linearGradient>
<linearGradient id="paint9_linear" x1="476.136" y1="411.548" x2="484.976" y2="410.16" gradientUnits="userSpaceOnUse">
<stop stop-color="#480050"/>
<stop offset="0.0271281" stop-color="#420559"/>
<stop offset="0.0722404" stop-color="#311173"/>
<stop offset="0.1294" stop-color="#17269C"/>
<stop offset="0.1718" stop-color="#0037BF"/>
<stop offset="0.4026" stop-color="#00FFED"/>
<stop offset="0.5564" stop-color="#4EBF00"/>
<stop offset="0.8179" stop-color="#FFB815"/>
<stop offset="1" stop-color="#FFFF4A"/>
</linearGradient>
<linearGradient id="paint10_linear" x1="475.475" y1="410.534" x2="485.433" y2="409.022" gradientUnits="userSpaceOnUse">
<stop stop-color="#480050"/>
<stop offset="0.0271281" stop-color="#420559"/>
<stop offset="0.0722404" stop-color="#311173"/>
<stop offset="0.1294" stop-color="#17269C"/>
<stop offset="0.1718" stop-color="#0037BF"/>
<stop offset="0.4026" stop-color="#00FFED"/>
<stop offset="0.5564" stop-color="#4EBF00"/>
<stop offset="0.8179" stop-color="#FFB815"/>
<stop offset="1" stop-color="#FFFF4A"/>
</linearGradient>
<linearGradient id="paint11_linear" x1="474.744" y1="409.44" x2="485.963" y2="407.798" gradientUnits="userSpaceOnUse">
<stop stop-color="#480050"/>
<stop offset="0.0271281" stop-color="#420559"/>
<stop offset="0.0722404" stop-color="#311173"/>
<stop offset="0.1294" stop-color="#17269C"/>
<stop offset="0.1718" stop-color="#0037BF"/>
<stop offset="0.4026" stop-color="#00FFED"/>
<stop offset="0.5564" stop-color="#4EBF00"/>
<stop offset="0.8179" stop-color="#FFB815"/>
<stop offset="1" stop-color="#FFFF4A"/>
</linearGradient>
<linearGradient id="paint12_linear" x1="473.937" y1="408.261" x2="486.577" y2="406.483" gradientUnits="userSpaceOnUse">
<stop stop-color="#480050"/>
<stop offset="0.0271281" stop-color="#420559"/>
<stop offset="0.0722404" stop-color="#311173"/>
<stop offset="0.1294" stop-color="#17269C"/>
<stop offset="0.1718" stop-color="#0037BF"/>
<stop offset="0.4026" stop-color="#00FFED"/>
<stop offset="0.5564" stop-color="#4EBF00"/>
<stop offset="0.8179" stop-color="#FFB815"/>
<stop offset="1" stop-color="#FFFF4A"/>
</linearGradient>
<linearGradient id="paint13_linear" x1="473.044" y1="406.989" x2="487.286" y2="405.072" gradientUnits="userSpaceOnUse">
<stop stop-color="#480050"/>
<stop offset="0.0271281" stop-color="#420559"/>
<stop offset="0.0722404" stop-color="#311173"/>
<stop offset="0.1294" stop-color="#17269C"/>
<stop offset="0.1718" stop-color="#0037BF"/>
<stop offset="0.4026" stop-color="#00FFED"/>
<stop offset="0.5564" stop-color="#4EBF00"/>
<stop offset="0.8179" stop-color="#FFB815"/>
<stop offset="1" stop-color="#FFFF4A"/>
</linearGradient>
<linearGradient id="paint14_linear" x1="472.056" y1="405.617" x2="488.105" y2="403.558" gradientUnits="userSpaceOnUse">
<stop stop-color="#480050"/>
<stop offset="0.0271281" stop-color="#420559"/>
<stop offset="0.0722404" stop-color="#311173"/>
<stop offset="0.1294" stop-color="#17269C"/>
<stop offset="0.1718" stop-color="#0037BF"/>
<stop offset="0.4026" stop-color="#00FFED"/>
<stop offset="0.5564" stop-color="#4EBF00"/>
<stop offset="0.8179" stop-color="#FFB815"/>
<stop offset="1" stop-color="#FFFF4A"/>
</linearGradient>
<linearGradient id="paint15_linear" x1="470.962" y1="404.137" x2="489.05" y2="401.937" gradientUnits="userSpaceOnUse">
<stop stop-color="#480050"/>
<stop offset="0.0271281" stop-color="#420559"/>
<stop offset="0.0722404" stop-color="#311173"/>
<stop offset="0.1294" stop-color="#17269C"/>
<stop offset="0.1718" stop-color="#0037BF"/>
<stop offset="0.4026" stop-color="#00FFED"/>
<stop offset="0.5564" stop-color="#4EBF00"/>
<stop offset="0.8179" stop-color="#FFB815"/>
<stop offset="1" stop-color="#FFFF4A"/>
</linearGradient>
<linearGradient id="paint16_linear" x1="469.751" y1="402.539" x2="490.136" y2="400.202" gradientUnits="userSpaceOnUse">
<stop stop-color="#480050"/>
<stop offset="0.0271281" stop-color="#420559"/>
<stop offset="0.0722404" stop-color="#311173"/>
<stop offset="0.1294" stop-color="#17269C"/>
<stop offset="0.1718" stop-color="#0037BF"/>
<stop offset="0.4026" stop-color="#00FFED"/>
<stop offset="0.5564" stop-color="#4EBF00"/>
<stop offset="0.8179" stop-color="#FFB815"/>
<stop offset="1" stop-color="#FFFF4A"/>
</linearGradient>
<linearGradient id="paint17_linear" x1="468.409" y1="400.814" x2="491.386" y2="398.347" gradientUnits="userSpaceOnUse">
<stop stop-color="#480050"/>
<stop offset="0.0271281" stop-color="#420559"/>
<stop offset="0.0722404" stop-color="#311173"/>
<stop offset="0.1294" stop-color="#17269C"/>
<stop offset="0.1718" stop-color="#0037BF"/>
<stop offset="0.4026" stop-color="#00FFED"/>
<stop offset="0.5564" stop-color="#4EBF00"/>
<stop offset="0.8179" stop-color="#FFB815"/>
<stop offset="1" stop-color="#FFFF4A"/>
</linearGradient>
<linearGradient id="paint18_linear" x1="466.922" y1="398.955" x2="492.821" y2="396.376" gradientUnits="userSpaceOnUse">
<stop stop-color="#480050"/>
<stop offset="0.0271281" stop-color="#420559"/>
<stop offset="0.0722404" stop-color="#311173"/>
<stop offset="0.1294" stop-color="#17269C"/>
<stop offset="0.1718" stop-color="#0037BF"/>
<stop offset="0.4026" stop-color="#00FFED"/>
<stop offset="0.5564" stop-color="#4EBF00"/>
<stop offset="0.8179" stop-color="#FFB815"/>
<stop offset="1" stop-color="#FFFF4A"/>
</linearGradient>
<linearGradient id="paint19_linear" x1="465.272" y1="396.94" x2="494.469" y2="394.269" gradientUnits="userSpaceOnUse">
<stop stop-color="#480050"/>
<stop offset="0.0271281" stop-color="#420559"/>
<stop offset="0.0722404" stop-color="#311173"/>
<stop offset="0.1294" stop-color="#17269C"/>
<stop offset="0.1718" stop-color="#0037BF"/>
<stop offset="0.4026" stop-color="#00FFED"/>
<stop offset="0.5564" stop-color="#4EBF00"/>
<stop offset="0.8179" stop-color="#FFB815"/>
<stop offset="1" stop-color="#FFFF4A"/>
</linearGradient>
<linearGradient id="paint20_linear" x1="463.443" y1="394.77" x2="496.356" y2="392.04" gradientUnits="userSpaceOnUse">
<stop stop-color="#480050"/>
<stop offset="0.0271281" stop-color="#420559"/>
<stop offset="0.0722404" stop-color="#311173"/>
<stop offset="0.1294" stop-color="#17269C"/>
<stop offset="0.1718" stop-color="#0037BF"/>
<stop offset="0.4026" stop-color="#00FFED"/>
<stop offset="0.5564" stop-color="#4EBF00"/>
<stop offset="0.8179" stop-color="#FFB815"/>
<stop offset="1" stop-color="#FFFF4A"/>
</linearGradient>
<linearGradient id="paint21_linear" x1="461.412" y1="392.421" x2="498.517" y2="389.676" gradientUnits="userSpaceOnUse">
<stop stop-color="#480050"/>
<stop offset="0.0271281" stop-color="#420559"/>
<stop offset="0.0722404" stop-color="#311173"/>
<stop offset="0.1294" stop-color="#17269C"/>
<stop offset="0.1718" stop-color="#0037BF"/>
<stop offset="0.4026" stop-color="#00FFED"/>
<stop offset="0.5564" stop-color="#4EBF00"/>
<stop offset="0.8179" stop-color="#FFB815"/>
<stop offset="1" stop-color="#FFFF4A"/>
</linearGradient>
<linearGradient id="paint22_linear" x1="459.157" y1="389.891" x2="500.988" y2="387.192" gradientUnits="userSpaceOnUse">
<stop stop-color="#480050"/>
<stop offset="0.0271281" stop-color="#420559"/>
<stop offset="0.0722404" stop-color="#311173"/>
<stop offset="0.1294" stop-color="#17269C"/>
<stop offset="0.1718" stop-color="#0037BF"/>
<stop offset="0.4026" stop-color="#00FFED"/>
<stop offset="0.5564" stop-color="#4EBF00"/>
<stop offset="0.8179" stop-color="#FFB815"/>
<stop offset="1" stop-color="#FFFF4A"/>
</linearGradient>
<linearGradient id="paint23_linear" x1="456.652" y1="387.133" x2="503.813" y2="384.558" gradientUnits="userSpaceOnUse">
<stop stop-color="#480050"/>
<stop offset="0.0271281" stop-color="#420559"/>
<stop offset="0.0722404" stop-color="#311173"/>
<stop offset="0.1294" stop-color="#17269C"/>
<stop offset="0.1718" stop-color="#0037BF"/>
<stop offset="0.4026" stop-color="#00FFED"/>
<stop offset="0.5564" stop-color="#4EBF00"/>
<stop offset="0.8179" stop-color="#FFB815"/>
<stop offset="1" stop-color="#FFFF4A"/>
</linearGradient>
<linearGradient id="paint24_linear" x1="453.87" y1="384.161" x2="507.036" y2="381.814" gradientUnits="userSpaceOnUse">
<stop stop-color="#480050"/>
<stop offset="0.0271281" stop-color="#420559"/>
<stop offset="0.0722404" stop-color="#311173"/>
<stop offset="0.1294" stop-color="#17269C"/>
<stop offset="0.1718" stop-color="#0037BF"/>
<stop offset="0.4026" stop-color="#00FFED"/>
<stop offset="0.5564" stop-color="#4EBF00"/>
<stop offset="0.8179" stop-color="#FFB815"/>
<stop offset="1" stop-color="#FFFF4A"/>
</linearGradient>
<linearGradient id="paint25_linear" x1="450.776" y1="380.945" x2="510.711" y2="378.958" gradientUnits="userSpaceOnUse">
<stop stop-color="#480050"/>
<stop offset="0.0271281" stop-color="#420559"/>
<stop offset="0.0722404" stop-color="#311173"/>
<stop offset="0.1294" stop-color="#17269C"/>
<stop offset="0.1718" stop-color="#0037BF"/>
<stop offset="0.4026" stop-color="#00FFED"/>
<stop offset="0.5564" stop-color="#4EBF00"/>
<stop offset="0.8179" stop-color="#FFB815"/>
<stop offset="1" stop-color="#FFFF4A"/>
</linearGradient>
<linearGradient id="paint26_linear" x1="447.336" y1="377.473" x2="514.896" y2="376.016" gradientUnits="userSpaceOnUse">
<stop stop-color="#480050"/>
<stop offset="0.0271281" stop-color="#420559"/>
<stop offset="0.0722404" stop-color="#311173"/>
<stop offset="0.1294" stop-color="#17269C"/>
<stop offset="0.1718" stop-color="#0037BF"/>
<stop offset="0.4026" stop-color="#00FFED"/>
<stop offset="0.5564" stop-color="#4EBF00"/>
<stop offset="0.8179" stop-color="#FFB815"/>
<stop offset="1" stop-color="#FFFF4A"/>
</linearGradient>
<linearGradient id="paint27_linear" x1="443.51" y1="373.708" x2="519.656" y2="372.996" gradientUnits="userSpaceOnUse">
<stop stop-color="#480050"/>
<stop offset="0.0271281" stop-color="#420559"/>
<stop offset="0.0722404" stop-color="#311173"/>
<stop offset="0.1294" stop-color="#17269C"/>
<stop offset="0.1718" stop-color="#0037BF"/>
<stop offset="0.4026" stop-color="#00FFED"/>
<stop offset="0.5564" stop-color="#4EBF00"/>
<stop offset="0.8179" stop-color="#FFB815"/>
<stop offset="1" stop-color="#FFFF4A"/>
</linearGradient>
<linearGradient id="paint28_linear" x1="439.252" y1="369.635" x2="525.064" y2="369.935" gradientUnits="userSpaceOnUse">
<stop stop-color="#480050"/>
<stop offset="0.0271281" stop-color="#420559"/>
<stop offset="0.0722404" stop-color="#311173"/>
<stop offset="0.1294" stop-color="#17269C"/>
<stop offset="0.1718" stop-color="#0037BF"/>
<stop offset="0.4026" stop-color="#00FFED"/>
<stop offset="0.5564" stop-color="#4EBF00"/>
<stop offset="0.8179" stop-color="#FFB815"/>
<stop offset="1" stop-color="#FFFF4A"/>
</linearGradient>
<linearGradient id="paint29_linear" x1="434.513" y1="365.209" x2="531.199" y2="366.859" gradientUnits="userSpaceOnUse">
<stop stop-color="#480050"/>
<stop offset="0.0271281" stop-color="#420559"/>
<stop offset="0.0722404" stop-color="#311173"/>
<stop offset="0.1294" stop-color="#17269C"/>
<stop offset="0.1718" stop-color="#0037BF"/>
<stop offset="0.4026" stop-color="#00FFED"/>
<stop offset="0.5564" stop-color="#4EBF00"/>
<stop offset="0.8179" stop-color="#FFB815"/>
<stop offset="1" stop-color="#FFFF4A"/>
</linearGradient>
<linearGradient id="paint30_linear" x1="429.235" y1="360.43" x2="538.148" y2="363.843" gradientUnits="userSpaceOnUse">
<stop stop-color="#480050"/>
<stop offset="0.0271281" stop-color="#420559"/>
<stop offset="0.0722404" stop-color="#311173"/>
<stop offset="0.1294" stop-color="#17269C"/>
<stop offset="0.1718" stop-color="#0037BF"/>
<stop offset="0.4026" stop-color="#00FFED"/>
<stop offset="0.5564" stop-color="#4EBF00"/>
<stop offset="0.8179" stop-color="#FFB815"/>
<stop offset="1" stop-color="#FFFF4A"/>
</linearGradient>
<linearGradient id="paint31_linear" x1="423.356" y1="355.246" x2="546.007" y2="360.937" gradientUnits="userSpaceOnUse">
<stop stop-color="#480050"/>
<stop offset="0.0271281" stop-color="#420559"/>
<stop offset="0.0722404" stop-color="#311173"/>
<stop offset="0.1294" stop-color="#17269C"/>
<stop offset="0.1718" stop-color="#0037BF"/>
<stop offset="0.4026" stop-color="#00FFED"/>
<stop offset="0.5564" stop-color="#4EBF00"/>
<stop offset="0.8179" stop-color="#FFB815"/>
<stop offset="1" stop-color="#FFFF4A"/>
</linearGradient>
<linearGradient id="paint32_linear" x1="416.824" y1="349.603" x2="554.926" y2="358.215" gradientUnits="userSpaceOnUse">
<stop stop-color="#480050"/>
<stop offset="0.0271281" stop-color="#420559"/>
<stop offset="0.0722404" stop-color="#311173"/>
<stop offset="0.1294" stop-color="#17269C"/>
<stop offset="0.1718" stop-color="#0037BF"/>
<stop offset="0.4026" stop-color="#00FFED"/>
<stop offset="0.5564" stop-color="#4EBF00"/>
<stop offset="0.8179" stop-color="#FFB815"/>
<stop offset="1" stop-color="#FFFF4A"/>
</linearGradient>
<linearGradient id="paint33_linear" x1="409.494" y1="343.487" x2="564.84" y2="355.77" gradientUnits="userSpaceOnUse">
<stop stop-color="#480050"/>
<stop offset="0.0271281" stop-color="#420559"/>
<stop offset="0.0722404" stop-color="#311173"/>
<stop offset="0.1294" stop-color="#17269C"/>
<stop offset="0.1718" stop-color="#0037BF"/>
<stop offset="0.4026" stop-color="#00FFED"/>
<stop offset="0.5564" stop-color="#4EBF00"/>
<stop offset="0.8179" stop-color="#FFB815"/>
<stop offset="1" stop-color="#FFFF4A"/>
</linearGradient>
<linearGradient id="paint34_linear" x1="401.391" y1="336.855" x2="576.168" y2="353.786" gradientUnits="userSpaceOnUse">
<stop stop-color="#480050"/>
<stop offset="0.0271281" stop-color="#420559"/>
<stop offset="0.0722404" stop-color="#311173"/>
<stop offset="0.1294" stop-color="#17269C"/>
<stop offset="0.1718" stop-color="#0037BF"/>
<stop offset="0.4026" stop-color="#00FFED"/>
<stop offset="0.5564" stop-color="#4EBF00"/>
<stop offset="0.8179" stop-color="#FFB815"/>
<stop offset="1" stop-color="#FFFF4A"/>
</linearGradient>
<linearGradient id="paint35_linear" x1="392.254" y1="329.66" x2="588.6" y2="352.326" gradientUnits="userSpaceOnUse">
<stop stop-color="#480050"/>
<stop offset="0.0271281" stop-color="#420559"/>
<stop offset="0.0722404" stop-color="#311173"/>
<stop offset="0.1294" stop-color="#17269C"/>
<stop offset="0.1718" stop-color="#0037BF"/>
<stop offset="0.4026" stop-color="#00FFED"/>
<stop offset="0.5564" stop-color="#4EBF00"/>
<stop offset="0.8179" stop-color="#FFB815"/>
<stop offset="1" stop-color="#FFFF4A"/>
</linearGradient>
<linearGradient id="paint36_linear" x1="382.128" y1="321.846" x2="602.674" y2="351.666" gradientUnits="userSpaceOnUse">
<stop stop-color="#480050"/>
<stop offset="0.0271281" stop-color="#420559"/>
<stop offset="0.0722404" stop-color="#311173"/>
<stop offset="0.1294" stop-color="#17269C"/>
<stop offset="0.1718" stop-color="#0037BF"/>
<stop offset="0.4026" stop-color="#00FFED"/>
<stop offset="0.5564" stop-color="#4EBF00"/>
<stop offset="0.8179" stop-color="#FFB815"/>
<stop offset="1" stop-color="#FFFF4A"/>
</linearGradient>
<linearGradient id="paint37_linear" x1="370.887" y1="313.334" x2="618.494" y2="352.022" gradientUnits="userSpaceOnUse">
<stop stop-color="#480050"/>
<stop offset="0.0271281" stop-color="#420559"/>
<stop offset="0.0722404" stop-color="#311173"/>
<stop offset="0.1294" stop-color="#17269C"/>
<stop offset="0.1718" stop-color="#0037BF"/>
<stop offset="0.4026" stop-color="#00FFED"/>
<stop offset="0.5564" stop-color="#4EBF00"/>
<stop offset="0.8179" stop-color="#FFB815"/>
<stop offset="1" stop-color="#FFFF4A"/>
</linearGradient>
<linearGradient id="paint38_linear" x1="358.226" y1="304.075" x2="635.761" y2="353.559" gradientUnits="userSpaceOnUse">
<stop stop-color="#480050"/>
<stop offset="0.0271281" stop-color="#420559"/>
<stop offset="0.0722404" stop-color="#311173"/>
<stop offset="0.1294" stop-color="#17269C"/>
<stop offset="0.1718" stop-color="#0037BF"/>
<stop offset="0.4026" stop-color="#00FFED"/>
<stop offset="0.5564" stop-color="#4EBF00"/>
<stop offset="0.8179" stop-color="#FFB815"/>
<stop offset="1" stop-color="#FFFF4A"/>
</linearGradient>
<linearGradient id="paint39_linear" x1="344.138" y1="294.017" x2="654.962" y2="356.71" gradientUnits="userSpaceOnUse">
<stop stop-color="#480050"/>
<stop offset="0.0271281" stop-color="#420559"/>
<stop offset="0.0722404" stop-color="#311173"/>
<stop offset="0.1294" stop-color="#17269C"/>
<stop offset="0.1718" stop-color="#0037BF"/>
<stop offset="0.4026" stop-color="#00FFED"/>
<stop offset="0.5564" stop-color="#4EBF00"/>
<stop offset="0.8179" stop-color="#FFB815"/>
<stop offset="1" stop-color="#FFFF4A"/>
</linearGradient>
<linearGradient id="paint40_linear" x1="328.425" y1="283.075" x2="676.128" y2="361.832" gradientUnits="userSpaceOnUse">
<stop stop-color="#480050"/>
<stop offset="0.0271281" stop-color="#420559"/>
<stop offset="0.0722404" stop-color="#311173"/>
<stop offset="0.1294" stop-color="#17269C"/>
<stop offset="0.1718" stop-color="#0037BF"/>
<stop offset="0.4026" stop-color="#00FFED"/>
<stop offset="0.5564" stop-color="#4EBF00"/>
<stop offset="0.8179" stop-color="#FFB815"/>
<stop offset="1" stop-color="#FFFF4A"/>
</linearGradient>
<linearGradient id="paint41_linear" x1="310.834" y1="271.133" x2="699.161" y2="369.297" gradientUnits="userSpaceOnUse">
<stop stop-color="#480050"/>
<stop offset="0.0271281" stop-color="#420559"/>
<stop offset="0.0722404" stop-color="#311173"/>
<stop offset="0.1294" stop-color="#17269C"/>
<stop offset="0.1718" stop-color="#0037BF"/>
<stop offset="0.4026" stop-color="#00FFED"/>
<stop offset="0.5564" stop-color="#4EBF00"/>
<stop offset="0.8179" stop-color="#FFB815"/>
<stop offset="1" stop-color="#FFFF4A"/>
</linearGradient>
<linearGradient id="paint42_linear" x1="291.249" y1="258.152" x2="724.36" y2="379.726" gradientUnits="userSpaceOnUse">
<stop stop-color="#480050"/>
<stop offset="0.0271281" stop-color="#420559"/>
<stop offset="0.0722404" stop-color="#311173"/>
<stop offset="0.1294" stop-color="#17269C"/>
<stop offset="0.1718" stop-color="#0037BF"/>
<stop offset="0.4026" stop-color="#00FFED"/>
<stop offset="0.5564" stop-color="#4EBF00"/>
<stop offset="0.8179" stop-color="#FFB815"/>
<stop offset="1" stop-color="#FFFF4A"/>
</linearGradient>
<linearGradient id="paint43_linear" x1="269.279" y1="243.994" x2="751.334" y2="393.538" gradientUnits="userSpaceOnUse">
<stop stop-color="#480050"/>
<stop offset="0.0271281" stop-color="#420559"/>
<stop offset="0.0722404" stop-color="#311173"/>
<stop offset="0.1294" stop-color="#17269C"/>
<stop offset="0.1718" stop-color="#0037BF"/>
<stop offset="0.4026" stop-color="#00FFED"/>
<stop offset="0.5564" stop-color="#4EBF00"/>
<stop offset="0.8179" stop-color="#FFB815"/>
<stop offset="1" stop-color="#FFFF4A"/>
</linearGradient>
<linearGradient id="paint44_linear" x1="244.721" y1="228.552" x2="780.167" y2="411.451" gradientUnits="userSpaceOnUse">
<stop stop-color="#480050"/>
<stop offset="0.0271281" stop-color="#420559"/>
<stop offset="0.0722404" stop-color="#311173"/>
<stop offset="0.1294" stop-color="#17269C"/>
<stop offset="0.1718" stop-color="#0037BF"/>
<stop offset="0.4026" stop-color="#00FFED"/>
<stop offset="0.5564" stop-color="#4EBF00"/>
<stop offset="0.8179" stop-color="#FFB815"/>
<stop offset="1" stop-color="#FFFF4A"/>
</linearGradient>
<linearGradient id="paint45_linear" x1="217.35" y1="211.705" x2="810.856" y2="434.278" gradientUnits="userSpaceOnUse">
<stop stop-color="#480050"/>
<stop offset="0.0271281" stop-color="#420559"/>
<stop offset="0.0722404" stop-color="#311173"/>
<stop offset="0.1294" stop-color="#17269C"/>
<stop offset="0.1718" stop-color="#0037BF"/>
<stop offset="0.4026" stop-color="#00FFED"/>
<stop offset="0.5564" stop-color="#4EBF00"/>
<stop offset="0.8179" stop-color="#FFB815"/>
<stop offset="1" stop-color="#FFFF4A"/>
</linearGradient>
<linearGradient id="paint46_linear" x1="186.632" y1="193.295" x2="842.69" y2="462.604" gradientUnits="userSpaceOnUse">
<stop stop-color="#480050"/>
<stop offset="0.0271281" stop-color="#420559"/>
<stop offset="0.0722404" stop-color="#311173"/>
<stop offset="0.1294" stop-color="#17269C"/>
<stop offset="0.1718" stop-color="#0037BF"/>
<stop offset="0.4026" stop-color="#00FFED"/>
<stop offset="0.5564" stop-color="#4EBF00"/>
<stop offset="0.8179" stop-color="#FFB815"/>
<stop offset="1" stop-color="#FFFF4A"/>
</linearGradient>
<linearGradient id="paint47_linear" x1="152.325" y1="173.213" x2="875.618" y2="497.443" gradientUnits="userSpaceOnUse">
<stop stop-color="#480050"/>
<stop offset="0.0271281" stop-color="#420559"/>
<stop offset="0.0722404" stop-color="#311173"/>
<stop offset="0.1294" stop-color="#17269C"/>
<stop offset="0.1718" stop-color="#0037BF"/>
<stop offset="0.4026" stop-color="#00FFED"/>
<stop offset="0.5564" stop-color="#4EBF00"/>
<stop offset="0.8179" stop-color="#FFB815"/>
<stop offset="1" stop-color="#FFFF4A"/>
</linearGradient>
<linearGradient id="paint48_linear" x1="113.989" y1="151.264" x2="909.033" y2="539.699" gradientUnits="userSpaceOnUse">
<stop stop-color="#480050"/>
<stop offset="0.0271281" stop-color="#420559"/>
<stop offset="0.0722404" stop-color="#311173"/>
<stop offset="0.1294" stop-color="#17269C"/>
<stop offset="0.1718" stop-color="#0037BF"/>
<stop offset="0.4026" stop-color="#00FFED"/>
<stop offset="0.5564" stop-color="#4EBF00"/>
<stop offset="0.8179" stop-color="#FFB815"/>
<stop offset="1" stop-color="#FFFF4A"/>
</linearGradient>
<linearGradient id="paint49_linear" x1="71.0373" y1="127.258" x2="942.009" y2="590.204" gradientUnits="userSpaceOnUse">
<stop stop-color="#480050"/>
<stop offset="0.0271281" stop-color="#420559"/>
<stop offset="0.0722404" stop-color="#311173"/>
<stop offset="0.1294" stop-color="#17269C"/>
<stop offset="0.1718" stop-color="#0037BF"/>
<stop offset="0.4026" stop-color="#00FFED"/>
<stop offset="0.5564" stop-color="#4EBF00"/>
<stop offset="0.8179" stop-color="#FFB815"/>
<stop offset="1" stop-color="#FFFF4A"/>
</linearGradient>
<linearGradient id="paint50_linear" x1="22.9211" y1="101" x2="973.668" y2="649.914" gradientUnits="userSpaceOnUse">
<stop stop-color="#480050"/>
<stop offset="0.0271281" stop-color="#420559"/>
<stop offset="0.0722404" stop-color="#311173"/>
<stop offset="0.1294" stop-color="#17269C"/>
<stop offset="0.1718" stop-color="#0037BF"/>
<stop offset="0.4026" stop-color="#00FFED"/>
<stop offset="0.5564" stop-color="#4EBF00"/>
<stop offset="0.8179" stop-color="#FFB815"/>
<stop offset="1" stop-color="#FFFF4A"/>
</linearGradient>
</defs>
</svg>
