<svg preserveAspectRatio="none" width="1293" height="764" viewBox="0 0 1293 764" fill="none" xmlns="http://www.w3.org/2000/svg">
<path d="M713.1 290.9C720.9 294.3 724 304.2 720.8 315.5C718.3 323.9 712.8 332.5 708.7 341C704.6 349.5 701.8 359.2 705.5 364.3C710.5 371.4 725.1 366.9 729.4 374.6C733.6 382.2 725.3 396.3 717.1 407C708.9 417.7 699.3 430.2 700.3 440.1C701.7 452.9 720.3 451.3 722.3 463.7C724.1 474.4 712.8 488.9 702.2 499.6C691.6 510.3 679.3 522.3 676.6 534.9C673.6 549.5 685.5 557.5 681.4 572.3C677.9 585.1 663.2 597 651.3 599.5C639.4 602 630.4 597.2 623.3 591C615.5 584.3 607.8 575.4 594.8 578.9C584.1 581.8 571.9 592.8 562.5 591.8C552.9 590.8 550.4 581.7 550.9 570.9C551.3 561.7 555.5 549.9 559.8 533.1C563.2 519.8 543.5 522.2 536.1 515.6C526.5 507 527.3 487.5 538 470.4C545 459.1 555.7 448.9 560.1 437.3C564.4 426.1 561.7 416.3 556.5 409.9C551.3 403.4 544 399.3 538.3 393.3C532.6 387.4 528.6 378.9 531.1 367.9C533.6 356.9 545 343.6 555 342.4C564.1 341.3 567.9 349.9 568.4 358.8C569 367.7 567.6 377.9 571.1 384.7C574.6 391.6 586.1 392.9 594 384C600.1 377.2 600.6 368.6 599.1 362.5C597 354.4 592.2 348.3 589.6 340.6C586.9 332.9 586.8 322.5 593 312.5C599.2 302.5 613.4 295.5 617.6 301.9C620.1 305.6 618.6 312 618.7 317.3C618.8 322.6 622.2 327.5 627.9 324.5C632 322.3 634.7 317.4 636.8 313.1C642.2 302 647.7 290.9 653.1 279.8C655.7 274.4 658.5 268.8 662.8 264.3C667.1 259.7 673.5 256.6 676.8 258.6C681.3 261.4 678 270.5 674.5 277.6C664.9 297.6 655.2 317.6 645.6 337.7C642.8 343.4 640 349.3 639.3 354.8C638.6 360.2 640.5 365.2 645.2 365.5C650.3 365.9 657.1 360.7 661.3 354.9C665.5 349.1 667.7 342.7 669.8 336.5C672.3 329.3 674.7 322 677.2 314.8C678.7 310.2 680 302.1 684.1 298.3C688.3 294.5 694.7 291.9 699.1 290.7C701.7 290 704.2 289.7 706.6 289.7C708.1 289.6 711.7 291.4 713.1 290.9Z" stroke="url(#paint0_linear)" stroke-width="0.7949" stroke-miterlimit="10"/>
<path d="M711.6 282.4C720 285.5 723.6 295.6 720.7 307.3C718.5 316.1 713.1 325.1 709.1 334C705.1 342.9 702.7 353 706.7 358.1C712.3 365.2 727.4 359.9 732.2 367.7C737 375.4 728.8 390.2 720.7 401.5C712.6 412.8 703 426.2 704.6 436.2C706.6 449.3 726 446.8 728.7 459.5C731 470.4 719.8 485.8 709.2 497.3C698.6 508.8 686.2 521.6 683.9 534.7C681.3 549.8 694.2 557.6 690.5 573C687.4 586.3 672.5 599.2 660.2 602.2C647.9 605.2 638.2 600.7 630.5 594.7C622.1 588.1 613.6 579.3 600.1 583.5C589 586.9 576.7 598.8 566.8 598.2C556.7 597.6 553.7 588.4 553.7 577.2C553.7 567.7 557.6 555.4 561.4 537.9C564.4 524.1 543.9 527.3 535.9 520.9C525.5 512.5 525.5 492.4 535.9 474.3C542.7 462.4 553.5 451.5 557.7 439.4C561.8 427.7 558.5 417.8 552.8 411.3C547.1 404.9 539.2 400.9 533 395.1C526.8 389.2 522.2 380.7 524.4 369.3C526.6 357.9 537.9 343.7 548.4 342.1C557.9 340.6 562.2 349.2 563.2 358.3C564.2 367.4 563.1 377.9 567.1 384.9C571.1 391.8 583.1 392.7 591.1 383.2C597.1 376 597.4 367.1 595.5 360.9C593 352.7 587.7 346.6 584.6 338.8C581.5 331 580.9 320.3 587 309.8C593.1 299.3 607.6 291.4 612.3 297.8C615 301.5 613.7 308.1 614.1 313.6C614.5 319.1 618.3 323.9 624 320.6C628.2 318.2 630.8 313 632.8 308.5C638 296.9 643.2 285.2 648.4 273.6C650.9 268 653.6 262.1 657.9 257.2C662.2 252.3 668.7 248.8 672.4 250.8C677.3 253.5 674.2 262.9 670.9 270.5C661.7 291.5 652.4 312.5 643.2 333.5C640.6 339.5 637.9 345.7 637.4 351.3C636.9 356.9 639.1 361.9 644 362.1C649.4 362.3 656.2 356.7 660.4 350.5C664.6 344.3 666.6 337.6 668.5 331.2C670.8 323.6 673 316.1 675.3 308.5C676.7 303.7 677.7 295.3 681.9 291.3C686.1 287.2 692.7 284.2 697.3 282.8C700 282 702.6 281.5 705.1 281.5C706.3 281.3 710.1 283 711.6 282.4Z" stroke="url(#paint1_linear)" stroke-width="0.8257" stroke-miterlimit="10"/>
<path d="M709.6 273.8C718.5 276.7 722.8 286.9 720.2 299C718.3 308.1 713 317.6 709.2 326.9C705.4 336.2 703.3 346.7 707.8 351.8C713.9 358.8 729.5 352.8 734.9 360.6C740.2 368.3 732.4 383.8 724.3 395.8C716.2 407.8 706.8 421.9 708.9 432.2C711.6 445.5 731.8 442.2 735.1 455.1C738 466.2 726.9 482.5 716.3 494.7C705.7 506.9 693.2 520.7 691.5 534.2C689.5 549.8 703.3 557.3 700.1 573.3C697.4 587.1 682.3 601 669.6 604.6C656.9 608.2 646.5 604 638.1 598.1C629 591.7 619.8 583 605.7 587.9C594.2 591.9 581.8 604.6 571.4 604.4C560.8 604.2 557.2 594.8 556.8 583.4C556.4 573.7 559.9 560.8 563.1 542.7C565.6 528.3 544.3 532.6 535.6 526.3C524.3 518.1 523.4 497.5 533.6 478.5C540.3 466 551 454.3 554.9 441.7C558.7 429.5 554.8 419.5 548.5 413.1C542.3 406.7 533.8 403 527.1 397.2C520.3 391.4 515.1 382.8 517 371C518.8 359.2 530.1 344.2 541 342C550.8 340.1 555.8 348.8 557.2 358.1C558.6 367.4 558 378.3 562.5 385.2C567 392.1 579.6 392.5 587.5 382.5C593.5 374.8 593.4 365.7 591.1 359.4C588.1 351.1 582.3 345.1 578.7 337.2C575.1 329.3 574 318.4 579.9 307.3C585.8 296.2 600.7 287.6 605.9 293.9C608.9 297.6 607.9 304.5 608.5 310C609.1 315.6 613.3 320.4 619.2 316.8C623.5 314.2 626 308.7 627.9 304C632.9 291.8 637.8 279.6 642.8 267.4C645.2 261.5 647.7 255.4 652.1 250.2C656.4 245 663.1 241.1 667 243C672.2 245.5 669.4 255.4 666.2 263.3C657.4 285.3 648.7 307.2 639.9 329.2C637.4 335.5 634.8 341.9 634.5 347.7C634.2 353.5 636.7 358.5 641.9 358.5C647.5 358.4 654.5 352.4 658.6 345.9C662.7 339.4 664.5 332.4 666.2 325.7C668.2 317.8 670.3 310 672.3 302.1C673.6 297.1 674.2 288.5 678.4 284.1C682.7 279.7 689.5 276.4 694.2 274.7C697 273.7 699.7 273.2 702.3 273C704 272.9 708.1 274.5 709.6 273.8Z" stroke="url(#paint2_linear)" stroke-width="0.8576" stroke-miterlimit="10"/>
<path d="M707.1 265C716.5 267.6 721.5 277.9 719.3 290.5C717.7 300 712.5 309.9 709 319.7C705.5 329.5 703.7 340.3 708.6 345.3C715.3 352.3 731.4 345.4 737.4 353.2C743.3 360.9 735.7 377.2 727.8 389.8C719.9 402.4 710.6 417.4 713.2 427.9C716.6 441.5 737.6 437.2 741.7 450.3C745.2 461.6 734.3 478.8 723.7 491.8C713.1 504.8 700.6 519.5 699.4 533.4C697.9 549.6 712.7 556.6 710.1 573.2C707.9 587.5 692.7 602.4 679.5 606.7C666.3 611 655.2 607.1 646.2 601.4C636.4 595.2 626.3 586.6 611.8 592.3C599.9 596.9 587.5 610.5 576.6 610.7C565.4 610.9 561.3 601.5 560.4 589.7C559.6 579.7 562.7 566.3 565.3 547.6C567.3 532.7 545.1 538 535.8 531.9C523.6 523.9 521.8 502.8 531.6 482.8C538 469.7 548.8 457.2 552.3 444.1C555.7 431.4 551.2 421.2 544.4 414.9C537.6 408.6 528.6 405.1 521.3 399.5C514 393.9 508.1 385.2 509.6 373C511 360.8 522.2 344.9 533.5 342.2C543.7 339.8 549.3 348.5 551.2 358C553.1 367.5 552.9 378.7 557.9 385.7C562.9 392.7 576.2 392.5 584 381.8C590 373.7 589.5 364.3 586.8 357.9C583.3 349.5 577 343.5 572.8 335.6C568.7 327.7 567.1 316.5 572.8 304.8C578.5 293.1 593.7 283.6 599.5 289.9C602.8 293.6 602 300.7 602.9 306.4C603.8 312.1 608.4 316.9 614.4 312.9C618.8 310 621.2 304.3 623 299.3C627.7 286.6 632.3 273.8 637 261.1C639.3 254.9 641.7 248.5 646 243C650.3 237.5 657.1 233.2 661.3 235C666.9 237.4 664.3 247.6 661.4 255.9C653.2 278.8 644.9 301.8 636.7 324.7C634.3 331.2 632 338 631.9 344C631.8 350 634.7 355.1 640.1 354.8C646 354.5 653 348 657 341.2C661 334.4 662.6 327.1 664.1 320.1C665.9 311.9 667.7 303.8 669.5 295.6C670.6 290.4 670.9 281.5 675.1 276.8C679.4 272.1 686.4 268.4 691.2 266.5C694.1 265.4 696.9 264.7 699.6 264.4C701.3 264.3 705.6 265.8 707.1 265Z" stroke="url(#paint3_linear)" stroke-width="0.8908" stroke-miterlimit="10"/>
<path d="M704.2 256C714.2 258.2 719.8 268.6 718.1 281.7C716.8 291.5 711.8 301.9 708.5 312.1C705.2 322.3 703.8 333.5 709.2 338.5C716.6 345.4 733.1 337.6 739.7 345.3C746.2 352.9 739 370 731.2 383.4C723.5 396.7 714.4 412.4 717.6 423.1C721.7 436.9 743.6 431.7 748.4 444.9C752.6 456.4 741.9 474.5 731.3 488.4C720.7 502.2 708.3 517.8 707.6 532.2C706.8 548.9 722.6 555.5 720.5 572.6C718.8 587.3 703.5 603.3 689.8 608.3C676.2 613.3 664.4 609.7 654.7 604.3C644.1 598.3 633.2 590 618.3 596.4C606 601.6 593.6 616.1 582.2 616.8C570.5 617.5 565.8 608 564.3 595.9C563 585.7 565.7 571.8 567.6 552.4C569.1 537 546 543.4 536 537.5C522.9 529.8 520.1 508.2 529.5 487.2C535.7 473.5 546.4 460.1 549.5 446.5C552.5 433.3 547.4 423.1 540 416.9C532.6 410.7 523 407.5 515.1 402.1C507.2 396.7 500.7 388 501.7 375.4C502.7 362.8 513.6 345.9 525.4 342.8C536 339.9 542.2 348.6 544.6 358.3C547 368 547.3 379.5 552.8 386.4C558.4 393.3 572.2 392.6 580 381.3C585.9 372.7 585 363.1 581.9 356.7C577.8 348.2 571 342.4 566.3 334.4C561.6 326.4 559.5 315 565 302.8C570.5 290.6 586 280.1 592.3 286.4C595.9 290 595.4 297.4 596.6 303.2C597.8 309 602.8 313.7 608.9 309.4C613.4 306.2 615.6 300.2 617.3 295.1C621.6 281.8 626 268.5 630.3 255.2C632.4 248.8 634.6 242.1 638.9 236.2C643.2 230.3 650.1 225.7 654.6 227.3C660.5 229.5 658.3 240.2 655.6 248.8C648 272.7 640.3 296.7 632.7 320.6C630.5 327.4 628.3 334.5 628.5 340.6C628.7 346.7 631.9 351.8 637.6 351.3C643.8 350.7 650.9 343.8 654.7 336.6C658.5 329.4 660 321.9 661.3 314.7C662.8 306.2 664.4 297.8 665.9 289.3C666.9 284 666.8 274.7 671 269.8C675.3 264.8 682.4 260.7 687.5 258.5C690.5 257.2 693.4 256.4 696.2 256C698 255.6 702.6 256.9 704.2 256Z" stroke="url(#paint4_linear)" stroke-width="0.9252" stroke-miterlimit="10"/>
<path d="M700.7 247C711.3 248.9 717.6 259.3 716.4 272.8C715.5 282.9 710.7 293.9 707.7 304.5C704.7 315.1 703.7 326.6 709.5 331.6C717.5 338.4 734.5 329.7 741.8 337.3C749 344.9 742.1 362.8 734.6 376.8C727.1 390.8 718.2 407.4 722 418.2C726.9 432.2 749.6 425.9 755.2 439.4C760.1 451 749.7 470.1 739.2 484.8C728.7 499.5 716.4 516 716.3 530.9C716.1 548.1 733 554.2 731.6 571.9C730.4 587.1 715.1 604.2 701 609.9C686.9 615.6 674.4 612.4 664 607.2C652.7 601.5 640.9 593.4 625.5 600.6C612.9 606.5 600.5 621.9 588.5 623.1C576.3 624.3 570.9 614.7 568.8 602.4C567 591.9 569.2 577.6 570.4 557.6C571.3 541.7 547.4 549.3 536.6 543.6C522.5 536.3 518.7 514.1 527.6 492.2C533.5 477.8 544.2 463.7 546.8 449.5C549.4 435.8 543.5 425.5 535.5 419.4C527.5 413.4 517.3 410.5 508.8 405.2C500.3 399.9 493.1 391.3 493.6 378.3C494.1 365.3 504.8 347.5 517 343.7C528 340.3 534.8 349 537.8 358.8C540.8 368.6 541.5 380.5 547.6 387.4C553.7 394.3 568.2 393 575.9 381C581.7 371.9 580.3 362.1 576.8 355.6C572.2 347 564.7 341.3 559.5 333.3C554.3 325.3 551.5 313.6 556.7 300.8C562 288 577.7 276.6 584.6 282.8C588.6 286.4 588.3 293.9 589.8 299.9C591.3 305.9 596.7 310.5 603 305.7C607.5 302.3 609.7 296 611.2 290.6C615.2 276.8 619.2 262.9 623.1 249.1C625 242.4 627.1 235.4 631.3 229.2C635.5 223 642.6 217.9 647.3 219.4C653.6 221.4 651.8 232.5 649.3 241.4C642.3 266.3 635.3 291.2 628.4 316.2C626.4 323.3 624.4 330.6 624.9 337C625.4 343.4 628.9 348.4 634.9 347.6C641.4 346.8 648.5 339.3 652.2 331.7C655.9 324.1 657.1 316.3 658.1 308.9C659.3 300.1 660.6 291.4 661.8 282.6C662.6 277.1 662.1 267.6 666.3 262.3C670.6 256.9 677.9 252.4 683.1 250C686.1 248.6 689.2 247.6 692.1 247C694.2 246.7 699.1 247.9 700.7 247Z" stroke="url(#paint5_linear)" stroke-width="0.961" stroke-miterlimit="10"/>
<path d="M696.7 237.8C707.9 239.3 715 249.8 714.2 263.6C713.7 274 709.1 285.5 706.4 296.5C703.7 307.5 703.2 319.4 709.5 324.2C718.2 330.8 735.6 321.2 743.6 328.7C751.4 336.2 745 354.8 737.7 369.6C730.4 384.3 721.9 401.7 726.3 412.7C732.1 426.9 755.5 419.5 762 433C767.6 444.7 757.5 464.8 747.2 480.3C736.8 495.8 724.6 513.4 725.1 528.6C725.7 546.3 743.6 551.9 742.9 570.1C742.3 585.8 727 604 712.5 610.4C698 616.8 684.8 614.1 673.7 609.2C661.6 603.8 648.9 596 633.1 604C620.1 610.6 607.8 626.9 595.3 628.7C582.6 630.5 576.5 620.8 573.8 608.2C571.5 597.5 573.2 582.7 573.5 562.1C573.8 545.8 549.1 554.5 537.5 549.2C522.4 542.3 517.4 519.7 525.9 496.7C531.4 481.7 542 466.7 544.2 452C546.3 437.8 539.8 427.5 531.1 421.6C522.4 415.7 511.7 413.2 502.5 408.1C493.3 403 485.5 394.5 485.4 381.1C485.3 367.7 495.8 349 508.4 344.6C519.8 340.6 527.3 349.3 530.8 359.3C534.3 369.3 535.6 381.4 542.3 388.3C549 395.2 564.2 393.1 571.7 380.6C577.4 371 575.5 360.9 571.6 354.4C566.4 345.8 558.3 340.2 552.5 332.2C546.7 324.2 543.3 312.3 548.2 299C553.2 285.6 569.2 273.3 576.7 279.3C581 282.8 581.1 290.6 582.9 296.6C584.7 302.7 590.6 307.2 597 302C601.6 298.3 603.6 291.8 605 286.2C608.6 271.8 612.1 257.4 615.7 243C617.4 236 619.3 228.8 623.4 222.2C627.6 215.6 634.8 210.1 639.8 211.4C646.5 213.2 645 224.6 642.8 233.9C636.6 259.8 630.3 285.7 624.1 311.6C622.3 319 620.5 326.6 621.3 333.1C622.1 339.6 626 344.7 632.2 343.6C638.9 342.5 646.1 334.5 649.7 326.6C653.3 318.7 654.2 310.6 654.9 302.9C655.8 293.8 656.7 284.8 657.7 275.7C658.3 270 657.4 260.3 661.5 254.7C665.7 249 673.2 244.1 678.5 241.4C681.6 239.8 684.8 238.7 687.8 238C689.9 237.8 695.1 238.8 696.7 237.8Z" stroke="url(#paint6_linear)" stroke-width="0.9982" stroke-miterlimit="10"/>
<path d="M692.1 228.5C703.9 229.6 711.8 240 711.6 254.3C711.5 265.1 707.2 277 704.9 288.5C702.5 299.9 702.5 312.2 709.3 316.9C718.7 323.3 736.6 312.7 745.2 320.1C753.7 327.5 747.8 346.9 740.8 362.4C733.8 377.9 725.6 396.1 730.7 407.2C737.3 421.6 761.6 412.9 769 426.6C775.4 438.4 765.7 459.5 755.5 475.9C745.3 492.3 733.3 510.8 734.5 526.5C735.9 544.6 754.9 549.7 755 568.4C755.1 584.6 739.8 603.9 724.9 611.1C710 618.3 696 616.1 684.1 611.5C671.2 606.5 657.5 599 641.3 607.9C628 615.2 615.8 632.5 602.8 634.9C589.5 637.3 582.8 627.6 579.4 614.8C576.5 603.9 577.7 588.6 577.1 567.4C576.7 550.6 551.2 560.6 538.8 555.6C522.7 549.1 516.5 526.1 524.4 502.2C529.6 486.5 540 470.7 541.7 455.5C543.3 440.8 536 430.5 526.7 424.8C517.4 419.1 506 417 496.1 412.2C486.3 407.4 477.6 398.9 477 385.2C476.3 371.4 486.6 351.8 499.6 346.7C511.3 342.1 519.6 350.7 523.7 360.8C527.8 370.9 529.7 383.3 537 390.1C544.3 396.8 560.1 394.1 567.4 380.9C573 370.8 570.6 360.5 566.2 354C560.4 345.4 551.7 340 545.2 332C538.8 324 534.7 312 539.3 298C543.9 284.1 560.2 270.7 568.3 276.5C573 279.9 573.4 287.9 575.5 294.1C577.6 300.3 584.1 304.6 590.5 299.1C595.2 295.1 596.9 288.3 598.2 282.5C601.3 267.6 604.4 252.6 607.6 237.7C609.1 230.5 610.7 222.9 614.8 216C618.9 209.1 626.2 203.1 631.5 204.2C638.6 205.8 637.6 217.6 635.6 227.2C630.2 254.1 624.8 281 619.4 307.9C617.9 315.6 616.3 323.5 617.4 330.1C618.5 336.7 622.8 341.8 629.3 340.5C636.3 339.1 643.4 330.6 646.9 322.2C650.4 313.8 650.9 305.6 651.4 297.6C652 288.2 652.5 278.9 653.1 269.5C653.5 263.6 652.1 253.7 656.2 247.7C660.4 241.7 668 236.3 673.5 233.3C676.7 231.5 680 230.2 683.1 229.4C684.9 228.9 690.4 229.7 692.1 228.5Z" stroke="url(#paint7_linear)" stroke-width="1.0368" stroke-miterlimit="10"/>
<path d="M686.8 219.2C699.2 219.8 707.9 230.2 708.4 244.9C708.7 256 704.8 268.4 702.8 280.3C700.8 292.2 701.3 304.8 708.7 309.3C718.8 315.5 737.1 303.8 746.5 311.1C755.8 318.3 750.4 338.5 743.7 354.7C737 370.9 729.2 390 735.1 401.2C742.7 415.7 767.8 405.7 776.1 419.5C783.3 431.4 774 453.4 764.1 470.7C754.2 488 742.3 507.6 744.3 523.6C746.5 542.2 766.6 546.5 767.5 565.8C768.3 582.4 753.1 602.9 737.8 611C722.5 619.1 707.7 617.4 695.1 613.2C681.3 608.6 666.7 601.4 650.1 611.3C636.5 619.4 624.4 637.7 610.9 640.7C597.1 643.7 589.6 634.1 585.5 621C582 609.9 582.5 594.1 581.1 572.4C579.9 555.2 553.6 566.5 540.5 561.9C523.4 555.9 515.9 532.5 523.1 507.6C527.8 491.3 538.1 474.5 539.2 458.9C540.2 443.7 532.1 433.4 522.1 428C512.1 422.6 500 420.9 489.5 416.3C479 411.7 469.6 403.5 468.3 389.3C467 375.2 476.9 354.5 490.3 348.8C502.4 343.6 511.5 352.1 516.2 362.3C520.9 372.6 523.5 385.2 531.4 391.8C539.4 398.4 555.8 395 562.9 381.1C568.3 370.5 565.3 360 560.4 353.5C553.9 344.9 544.6 339.7 537.5 331.8C530.4 323.9 525.6 311.6 529.8 297.1C534 282.6 550.5 268.1 559.2 273.8C564.3 277.1 565 285.3 567.5 291.6C570 297.8 576.9 302.1 583.4 296.1C588.1 291.8 589.7 284.7 590.7 278.7C593.3 263.2 595.9 247.7 598.6 232.2C599.9 224.7 601.2 216.9 605.2 209.6C609.2 202.3 616.6 195.8 622.2 196.8C629.7 198.1 629.1 210.3 627.5 220.3C623 248.2 618.5 276.1 614 303.9C612.7 311.9 611.4 320 612.8 326.8C614.2 333.6 619 338.6 625.7 336.9C633 335.1 640.1 326.1 643.3 317.4C646.5 308.7 646.8 300.1 646.9 291.9C647.1 282.3 647.3 272.6 647.5 263C647.6 256.9 645.8 246.8 649.8 240.5C653.9 234.1 661.7 228.3 667.3 224.9C670.6 223 673.9 221.5 677.2 220.5C679.4 219.8 685.1 220.4 686.8 219.2Z" stroke="url(#paint8_linear)" stroke-width="1.0769" stroke-miterlimit="10"/>
<path d="M680.9 209.8C693.9 209.9 703.5 220.2 704.6 235.3C705.4 246.7 701.8 259.6 700.3 271.9C698.7 284.2 699.8 297.1 707.7 301.5C718.6 307.5 737.2 294.6 747.4 301.7C757.4 308.7 752.7 329.7 746.4 346.7C740.1 363.6 732.8 383.5 739.4 394.8C748 409.4 773.8 398.1 783.2 411.9C791.3 423.8 782.5 446.9 772.8 465C763.1 483.1 751.6 503.8 754.3 520.2C757.4 539.2 778.7 542.8 780.5 562.6C782 579.6 767 601.4 751.3 610.3C735.6 619.2 720.1 618.1 706.7 614.3C692.1 610.2 676.4 603.4 659.5 614.3C645.6 623.2 633.7 642.5 619.7 646.1C605.4 649.8 597.1 640.2 592.2 626.9C588.1 615.7 587.9 599.4 585.5 577.1C583.5 559.4 556.5 572.2 542.5 568.1C524.3 562.7 515.4 539 521.9 513C526.1 496 536.2 478.4 536.6 462.2C537 446.5 528.1 436.3 517.4 431.1C506.7 425.9 494 424.7 482.7 420.5C471.4 416.3 461.3 408.1 459.3 393.7C457.3 379.2 466.8 357.6 480.6 351.1C493.1 345.2 502.9 353.6 508.3 363.9C513.7 374.2 516.9 387.1 525.5 393.6C534.1 400.1 551.2 395.8 558 381.2C563.2 370.1 559.6 359.4 554.2 353C547 344.4 537 339.5 529.3 331.7C521.5 323.8 515.9 311.5 519.7 296.4C523.5 281.3 540.2 265.7 549.5 271.2C554.9 274.4 556.1 282.8 559 289.1C561.9 295.4 569.3 299.5 575.9 293C580.6 288.4 582 281 582.8 274.8C584.9 258.8 587 242.7 589 226.7C590 218.9 591.1 210.8 595 203.2C598.8 195.5 606.3 188.6 612.3 189.3C620.2 190.3 620.1 202.9 618.9 213.2C615.4 242 611.8 270.9 608.3 299.7C607.3 307.9 606.3 316.4 608.1 323.3C609.9 330.2 615.1 335.1 622.1 333.2C629.6 331.1 636.7 321.5 639.7 312.4C642.7 303.3 642.6 294.5 642.4 286.1C642.2 276.2 642 266.3 641.8 256.4C641.7 250.1 639.3 239.8 643.3 233.2C647.4 226.5 655.2 220.1 661 216.5C664.4 214.4 667.8 212.7 671.2 211.5C673.2 210.8 679.2 211.2 680.9 209.8Z" stroke="url(#paint9_linear)" stroke-width="1.1185" stroke-miterlimit="10"/>
<path d="M674.3 200.5C687.9 200 698.4 210.3 700.2 225.7C701.6 237.3 698.4 250.8 697.3 263.5C696.2 276.2 697.9 289.4 706.3 293.6C717.9 299.3 736.9 285.3 747.9 292.2C758.7 299 754.7 320.8 748.8 338.5C742.9 356.2 736.1 377 743.5 388.2C753.1 402.8 779.7 390.1 790.1 403.9C799.1 415.8 790.9 439.9 781.5 459C772.1 478.1 760.9 499.8 764.5 516.5C768.6 535.9 791.1 538.7 793.8 559C796.1 576.4 781.4 599.4 765.3 609.3C749.2 619.1 732.9 618.7 718.7 615.3C703.2 611.7 686.5 605.4 669.2 617.3C655 627 643.4 647.4 628.9 651.7C614 656.1 605 646.6 599.3 633.2C594.5 621.9 593.7 605.1 590.1 582.3C587.3 564.2 559.5 578.5 544.6 574.8C525.3 570 515 546 520.6 519.1C524.3 501.4 534.1 482.9 533.9 466.3C533.7 450.2 523.9 440 512.4 435.2C500.9 430.3 487.6 429.6 475.6 425.7C463.7 421.8 452.6 413.9 449.9 399.1C447.2 384.3 456.2 361.7 470.3 354.4C483.1 347.9 493.8 356 499.9 366.4C506 376.8 509.9 389.9 519.2 396.2C528.5 402.5 546.2 397.4 552.7 382.1C557.7 370.4 553.5 359.7 547.5 353.2C539.6 344.7 528.9 340.1 520.4 332.3C511.9 324.5 505.5 312.1 508.9 296.4C512.3 280.7 529 264 539.1 269.3C544.9 272.3 546.5 280.9 549.8 287.3C553.1 293.6 561.1 297.5 567.7 290.6C572.5 285.6 573.6 278 574.1 271.6C575.6 255 577.1 238.5 578.6 221.9C579.3 213.9 580.1 205.5 583.8 197.5C587.5 189.5 595 182 601.3 182.5C609.7 183.2 610.1 196.1 609.2 206.8C606.8 236.6 604.3 266.4 601.9 296.2C601.2 304.7 600.5 313.5 602.7 320.5C604.9 327.5 610.6 332.4 617.8 330C625.6 327.5 632.6 317.4 635.4 307.9C638.2 298.4 637.6 289.4 637.1 280.7C636.4 270.5 635.8 260.3 635.1 250.2C634.7 243.8 631.7 233.2 635.6 226.2C639.6 219.1 647.5 212.3 653.4 208.3C656.8 206 660.4 204.1 663.9 202.8C666.2 201.8 672.6 201.9 674.3 200.5Z" stroke="url(#paint10_linear)" stroke-width="1.1618" stroke-miterlimit="10"/>
<path d="M667 191.1C681.2 190 692.7 200.1 695.3 215.9C697.2 227.8 694.5 241.8 693.9 254.9C693.3 268 695.6 281.5 704.7 285.4C717.1 290.7 736.4 275.6 748.2 282.2C759.8 288.7 756.5 311.3 751.1 329.7C745.7 348.1 739.4 369.8 747.7 381.1C758.4 395.7 785.7 381.5 797.2 395.3C807.1 407.1 799.6 432.2 790.6 452.3C781.6 472.3 770.8 495.1 775.3 512.1C780.4 531.9 804.1 533.8 807.8 554.5C811 572.3 796.5 596.6 780.1 607.4C763.7 618.2 746.6 618.4 731.5 615.6C715.1 612.5 697.4 606.8 679.7 619.7C665.2 630.3 654 651.7 638.9 656.8C623.5 661.9 613.6 652.5 607 639C601.5 627.5 599.9 610.4 595.1 587.1C591.4 568.6 562.8 584.5 547.1 581.4C526.6 577.3 514.8 553.1 519.6 525.1C522.7 506.8 532.2 487.3 531.2 470.3C530.3 453.8 519.6 443.7 507.3 439.2C495.1 434.7 481 434.5 468.4 431C455.7 427.5 443.8 419.8 440.4 404.7C436.9 389.6 445.4 366 459.9 357.9C473 350.6 484.6 358.5 491.4 369C498.2 379.4 502.9 392.8 513 398.8C523 404.8 541.4 398.9 547.5 382.9C552.2 370.7 547.3 359.8 540.8 353.4C532.2 345 520.8 340.7 511.5 333.1C502.3 325.5 495 313 497.9 296.7C500.8 280.4 517.6 262.6 528.4 267.5C534.6 270.4 536.6 279.1 540.4 285.5C544.1 291.9 552.6 295.5 559.3 288.2C564.1 282.9 564.9 275 565.2 268.4C566 251.3 566.9 234.2 567.7 217.1C568.1 208.8 568.6 200.2 572.1 191.8C575.6 183.4 583.2 175.4 589.8 175.7C598.6 176.1 599.6 189.3 599.2 200.4C597.9 231.1 596.6 261.9 595.4 292.6C595 301.4 594.7 310.4 597.3 317.5C599.9 324.6 606.1 329.4 613.5 326.7C621.6 323.8 628.5 313.1 630.9 303.2C633.3 293.3 632.4 284.1 631.5 275.2C630.4 264.8 629.3 254.3 628.1 243.9C627.4 237.3 623.8 226.6 627.6 219.3C631.4 211.9 639.5 204.5 645.5 200.1C649 197.5 652.6 195.5 656.3 194C658.6 192.8 665.3 192.7 667 191.1Z" stroke="url(#paint11_linear)" stroke-width="1.2067" stroke-miterlimit="10"/>
<path d="M659 181.8C673.9 180.1 686.3 190 689.7 206.1C692.2 218.3 689.9 232.8 689.9 246.2C689.9 259.6 692.8 273.5 702.5 277.1C715.8 282 735.3 265.7 747.9 271.9C760.4 278.1 757.9 301.5 753 320.6C748.1 339.7 742.5 362.3 751.7 373.5C763.5 388.1 791.6 372.3 804.2 386C815.1 397.7 808.3 423.9 799.7 444.8C791.1 465.8 780.8 489.6 786.2 506.9C792.4 527 817.3 528 822.1 549.1C826.2 567.3 812.1 592.8 795.3 604.6C778.6 616.4 760.6 617.3 744.8 615.1C727.5 612.6 708.6 607.5 690.7 621.5C676 633 665.2 655.5 649.6 661.3C633.7 667.2 622.9 658 615.5 644.4C609.2 632.9 606.8 615.3 600.8 591.5C596.1 572.7 566.9 590.2 550.3 587.6C528.7 584.2 515.2 559.8 519 530.9C521.5 512 530.5 491.5 528.8 474.1C527.1 457.1 515.4 447.3 502.4 443.2C489.4 439.1 474.7 439.5 461.2 436.5C447.8 433.5 435 426.1 430.7 410.7C426.4 395.3 434.2 370.7 449.1 361.8C462.6 353.8 475 361.4 482.6 371.8C490.2 382.2 495.7 395.7 506.5 401.5C517.3 407.3 536.2 400.4 542 383.7C546.4 371 540.8 360 533.7 353.7C524.3 345.4 512.2 341.5 502.2 334.1C492.2 326.7 484.1 314.1 486.3 297.3C488.5 280.5 505.4 261.4 517 266C523.7 268.7 526.1 277.6 530.3 284C534.5 290.4 543.6 293.8 550.2 286C555 280.3 555.5 272.2 555.6 265.4C555.7 247.8 555.9 230.2 556 212.6C556.1 204.1 556.2 195.2 559.6 186.4C562.9 177.6 570.5 169 577.4 169.1C586.6 169.1 588.3 182.7 588.3 194.1C588.3 225.7 588.3 257.4 588.3 289C588.3 298 588.3 307.3 591.3 314.5C594.3 321.7 601 326.3 608.7 323.2C617 319.9 623.8 308.6 626 298.3C628.2 288.1 626.8 278.6 625.4 269.5C623.8 258.8 622.1 248.1 620.5 237.5C619.5 230.8 615.3 219.9 618.9 212.2C622.6 204.4 630.7 196.4 636.8 191.7C640.3 188.9 644.1 186.6 647.8 184.9C650.2 183.9 657.2 183.5 659 181.8Z" stroke="url(#paint12_linear)" stroke-width="1.2534" stroke-miterlimit="10"/>
<path d="M650.1 172.6C665.6 170.2 679.1 179.8 683.3 196.3C686.5 208.7 684.7 223.7 685.2 237.5C685.7 251.3 689.5 265.4 699.7 268.7C713.8 273.2 733.6 255.6 747.1 261.5C760.4 267.3 758.8 291.5 754.6 311.3C750.3 331.2 745.4 354.6 755.5 365.8C768.5 380.3 797.2 362.9 811 376.4C822.9 388 816.9 415.1 808.9 437.1C800.8 459 791.1 484 797.4 501.5C804.8 521.9 830.9 521.9 836.8 543.4C841.9 561.9 828.2 588.8 811.2 601.6C794.2 614.4 775.4 616.2 758.7 614.5C740.4 612.7 720.5 608.2 702.3 623.4C687.4 635.9 677 659.4 660.9 666.1C644.5 672.9 632.8 663.8 624.4 650.1C617.3 638.5 614 620.5 606.8 596.4C601 577.3 571.2 596.5 553.7 594.6C530.9 592.1 515.7 567.6 518.5 537.7C520.3 518.1 528.9 496.7 526.3 478.9C523.8 461.5 511.2 451.9 497.3 448.2C483.5 444.5 468.1 445.6 453.9 443C439.7 440.4 426 433.4 420.8 417.8C415.7 402.2 422.8 376.5 438 366.8C451.8 358 465.1 365.3 473.5 375.7C481.9 386.1 488.3 399.7 499.8 405.2C511.3 410.7 530.9 402.8 536.2 385.4C540.3 372.1 534 361.1 526.3 354.9C516.1 346.8 503.2 343.3 492.4 336C481.6 328.8 472.6 316.2 474.2 298.8C475.8 281.4 492.7 261.1 505 265.4C512.1 267.9 515.1 277 519.8 283.4C524.5 289.8 534.1 292.9 540.7 284.6C545.5 278.6 545.7 270.2 545.4 263.2C544.8 245.1 544.2 227 543.6 208.9C543.3 200.1 543.1 191 546.2 181.8C549.3 172.6 556.9 163.5 564.1 163.2C573.8 162.8 576.1 176.7 576.6 188.4C578 220.9 579.3 253.4 580.7 286C581.1 295.3 581.5 304.8 585 312.1C588.4 319.4 595.7 323.9 603.6 320.4C612.2 316.6 618.8 304.7 620.6 294.1C622.4 283.5 620.6 273.8 618.7 264.5C616.5 253.6 614.4 242.7 612.2 231.8C610.8 224.9 606 213.9 609.5 205.8C613.1 197.6 621.2 189.1 627.4 184C631 181 634.8 178.5 638.6 176.6C641.1 175.1 648.4 174.4 650.1 172.6Z" stroke="url(#paint13_linear)" stroke-width="1.3018" stroke-miterlimit="10"/>
<path d="M640.5 163.5C656.7 160.4 671.2 169.7 676.3 186.4C680.2 199 679 214.5 680.1 228.7C681.2 242.9 685.8 257.2 696.7 260.2C711.7 264.3 731.7 245.2 746 250.8C760.2 256.2 759.6 281.1 756 301.7C752.4 322.3 748.2 346.6 759.3 357.6C773.6 371.9 802.9 352.9 817.9 366.1C830.9 377.5 825.8 405.7 818.3 428.5C810.8 451.4 801.6 477.4 809.1 495.2C817.7 515.8 845.1 514.7 852.2 536.6C858.4 555.4 845.1 583.6 827.8 597.5C810.5 611.4 790.9 614 773.3 613C754.1 611.9 733 608.1 714.6 624.5C699.5 637.9 689.6 662.6 673.1 670.1C656.2 677.8 643.5 669 634.2 655.2C626.3 643.6 622 625.2 613.4 600.8C606.5 581.4 576.1 602.4 557.7 601.2C533.7 599.5 516.8 575 518.3 544.2C519.3 524 527.4 501.7 524 483.4C520.6 465.6 507 456.3 492.3 453.1C477.7 449.9 461.6 451.6 446.6 449.6C431.6 447.6 416.9 440.9 410.8 425.1C404.7 409.3 411.1 382.6 426.6 371.9C440.6 362.3 455 369.2 464.2 379.5C473.5 389.8 480.7 403.6 493 408.7C505.3 413.9 525.5 404.9 530.3 386.8C534 373 526.9 361.9 518.6 355.9C507.5 348 493.9 344.9 482.3 338C470.7 331 460.7 318.5 461.6 300.5C462.6 282.5 479.4 260.9 492.4 264.8C500 267.1 503.5 276.3 508.6 282.6C513.8 289 524 291.8 530.6 282.9C535.3 276.5 535.2 267.9 534.6 260.7C533.2 242.1 531.8 223.5 530.3 205C529.6 196 529 186.6 531.8 177C534.7 167.4 542.2 157.7 549.8 157.2C559.9 156.4 562.9 170.6 563.9 182.6C566.7 216 569.5 249.3 572.4 282.7C573.2 292.2 574.1 302 578 309.3C581.9 316.6 589.7 320.9 597.9 317C606.7 312.7 613.1 300.2 614.6 289.2C616.1 278.2 613.7 268.3 611.4 258.9C608.7 247.8 605.9 236.7 603.2 225.5C601.5 218.5 595.9 207.4 599.2 198.9C602.6 190.3 610.8 181.2 617 175.7C620.6 172.5 624.5 169.7 628.5 167.6C631.1 166.5 638.7 165.4 640.5 163.5Z" stroke="url(#paint14_linear)" stroke-width="1.3522" stroke-miterlimit="10"/>
<path d="M630 154.5C646.8 150.6 662.4 159.6 668.5 176.6C673.1 189.4 672.5 205.4 674.3 219.9C676.1 234.5 681.5 249 693 251.6C708.9 255.1 729 234.8 744.3 239.8C759.4 244.8 759.8 270.4 757 291.7C754.2 313 750.8 338.1 762.9 349C778.5 363.1 808.4 342.3 824.7 355.3C838.8 366.5 834.7 395.6 827.8 419.5C820.9 443.3 812.4 470.5 821 488.5C830.9 509.3 859.5 507 868 529.2C875.3 548.3 862.6 577.8 845.1 592.8C827.6 607.8 807.2 611.3 788.7 611C768.5 610.7 746.2 607.7 727.7 625.3C712.5 639.8 703.2 665.5 686.2 673.9C668.8 682.5 655.2 674 644.7 660.3C635.9 648.7 630.7 630 620.5 605.2C612.5 585.5 581.5 608.5 562.1 607.9C536.9 607.2 518.1 582.7 518.4 551C518.6 530.2 526.1 506.9 521.7 488.3C517.4 470.2 502.7 461.2 487.2 458.5C471.7 455.8 454.9 458.3 439.1 456.9C423.3 455.5 407.6 449.2 400.6 433.2C393.6 417.2 399.1 389.5 414.9 377.9C429.2 367.4 444.5 373.9 454.7 384.1C464.9 394.3 473 408.2 486.2 412.9C499.4 417.6 520.1 407.6 524.4 388.8C527.7 374.4 519.8 363.3 510.8 357.5C498.9 349.8 484.4 347.3 472 340.6C459.5 333.9 448.5 321.5 448.7 303C448.9 284.5 465.6 261.6 479.4 265C487.4 267 491.5 276.3 497.2 282.6C502.9 288.9 513.7 291.4 520.2 282C524.9 275.2 524.4 266.4 523.5 259C521.2 240 518.9 220.9 516.6 201.9C515.5 192.7 514.4 183.1 517 173.1C519.6 163.1 527.1 152.9 535 151.9C545.6 150.7 549.3 165.1 550.9 177.4C555.3 211.6 559.7 245.7 564.1 279.9C565.4 289.7 566.7 299.7 571.1 307C575.5 314.3 583.8 318.5 592.2 314.1C601.3 309.4 607.4 296.2 608.5 284.9C609.6 273.6 606.7 263.5 603.8 253.9C600.5 242.6 597.1 231.3 593.8 220C591.7 212.9 585.4 201.7 588.5 192.9C591.7 184 599.8 174.3 606.1 168.3C609.8 164.8 613.7 161.8 617.8 159.5C620.2 158 628.2 156.6 630 154.5Z" stroke="url(#paint15_linear)" stroke-width="1.4045" stroke-miterlimit="10"/>
<path d="M618.6 145.8C636 141.1 652.8 149.7 659.9 166.9C665.3 179.8 665.3 196.3 667.8 211.2C670.3 226.1 676.6 240.8 688.8 242.9C705.6 245.9 725.8 224.1 742 228.6C758.1 233.1 759.6 259.4 757.5 281.4C755.4 303.5 753 329.4 766.1 340.1C783.1 354 813.5 331.3 831.1 343.9C846.4 354.8 843.3 384.9 837.1 409.7C830.9 434.5 823.2 462.8 833 480.9C844.3 501.9 874.2 498.3 884 520.7C892.4 540 880.5 570.9 862.8 587.1C845.1 603.3 823.9 607.7 804.5 608.2C783.3 608.7 759.9 606.6 741.2 625.5C725.9 641 717.3 667.9 699.8 677.2C682 686.8 667.3 678.6 655.8 665C646.1 653.4 639.8 634.5 628.1 609.4C618.8 589.5 587.4 614.4 567.1 614.7C540.6 615.1 519.9 590.7 518.8 558C518.1 536.6 525 512.3 519.6 493.4C514.3 475 498.5 466.3 482.2 464.2C465.9 462.1 448.4 465.4 431.8 464.5C415.2 463.7 398.5 458 390.4 441.8C382.3 425.6 386.9 396.9 403 384.3C417.5 372.9 433.8 379 444.9 389C456 399 465.1 413 479.1 417.3C493.1 421.6 514.4 410.5 518.1 390.9C520.9 376 512.1 364.9 502.5 359.3C489.7 351.9 474.4 349.9 461.1 343.6C447.7 337.3 435.6 324.9 435.1 305.9C434.5 286.9 451 262.6 465.7 265.6C474.2 267.3 478.9 276.7 485.1 283C491.4 289.3 502.8 291.3 509.2 281.4C513.8 274.2 512.9 265.2 511.6 257.7C508.4 238.2 505.2 218.8 501.9 199.3C500.3 189.9 498.8 180 501.1 169.7C503.4 159.4 510.8 148.5 519 147.2C530 145.5 534.6 160.2 536.8 172.7C542.9 207.6 549 242.6 555 277.5C556.7 287.5 558.6 297.7 563.5 305.1C568.4 312.5 577.3 316.3 586 311.5C595.3 306.2 601.2 292.5 601.8 280.8C602.4 269.1 598.9 258.9 595.5 249.1C591.5 237.6 587.5 226.1 583.5 214.7C581 207.5 573.9 196.2 576.8 187C579.7 177.7 587.9 167.4 594.2 161C597.9 157.3 601.9 154 606 151.5C608.5 149.8 616.8 148 618.6 145.8Z" stroke="url(#paint16_linear)" stroke-width="1.4588" stroke-miterlimit="10"/>
<path d="M606.2 137.3C624.3 131.8 642.2 139.8 650.4 157.2C656.6 170.3 657.4 187.2 660.6 202.4C663.9 217.6 671.1 232.4 684 234.1C701.7 236.4 721.9 213.2 739.2 217.2C756.2 221.1 759 248.1 757.7 270.8C756.4 293.6 755.1 320.3 769.3 330.8C787.7 344.3 818.6 319.7 837.6 332C854.1 342.6 852.1 373.7 846.7 399.4C841.3 425.1 834.4 454.5 845.4 472.7C858.2 493.8 889.3 488.9 900.5 511.5C910.2 531 899 563.2 881.1 580.6C863.2 598 841.2 603.4 820.9 604.8C798.8 606.2 774.1 605.1 755.3 625.3C739.9 641.9 732 669.9 714.2 680.2C695.9 690.8 680.2 683 667.5 669.5C656.8 658 649.4 638.8 636.1 613.5C625.5 593.4 593.6 620.4 572.4 621.5C544.7 623 521.9 598.8 519.4 565.3C517.8 543.3 523.9 518.1 517.4 498.8C511.1 480.1 494.1 471.9 476.9 470.4C459.7 468.9 441.5 473 424.1 472.9C406.7 472.8 388.9 467.6 379.7 451.3C370.6 435 374.1 405.3 390.4 391.7C405.1 379.4 422.5 384.9 434.5 394.8C446.6 404.7 456.8 418.6 471.6 422.4C486.4 426.3 508.3 413.9 511.3 393.6C513.6 378.2 503.9 367.2 493.5 361.8C479.7 354.7 463.7 353.3 449.4 347.4C435.1 341.5 421.9 329.3 420.5 309.8C419.1 290.3 435.3 264.6 450.8 267.1C459.8 268.5 465.1 278 471.9 284.1C478.7 290.3 490.8 291.9 497.1 281.4C501.6 273.8 500.3 264.6 498.6 256.9C494.4 237 490.2 217.1 485.9 197.3C483.9 187.7 481.8 177.6 483.8 166.9C485.8 156.2 493.1 144.7 501.6 143C513.1 140.8 518.5 155.7 521.3 168.5C529.2 204.2 537.1 239.8 544.9 275.5C547.1 285.7 549.5 296.1 555 303.5C560.5 310.9 570 314.5 578.8 309.1C588.3 303.3 593.9 288.9 594 276.8C594.1 264.7 590.1 254.4 586.1 244.5C581.4 232.9 576.7 221.2 572 209.6C569 202.3 561.1 191 563.7 181.5C566.4 171.8 574.5 160.9 580.8 154C584.5 150 588.6 146.5 592.8 143.7C595.9 141.8 604.5 139.6 606.2 137.3Z" stroke="url(#paint17_linear)" stroke-width="1.5152" stroke-miterlimit="10"/>
<path d="M592.9 129.1C611.6 122.6 630.7 130.2 640.1 147.7C647.1 160.9 648.7 178.2 652.8 193.7C656.9 209.2 665.1 224.1 678.7 225.3C697.4 226.9 717.5 202.2 735.8 205.5C753.8 208.8 757.9 236.4 757.5 259.8C757.2 283.2 756.9 310.8 772.2 320.9C792 334 823.3 307.4 843.8 319.2C861.5 329.4 860.8 361.4 856.3 388.1C851.8 414.8 845.8 445.3 858.1 463.5C872.4 484.7 904.8 478.3 917.5 501C928.5 520.6 918.1 554.2 900.2 572.9C882.2 591.5 859.4 598.1 838.2 600.3C815.1 602.7 789.1 602.5 770.3 624.1C754.9 641.8 747.9 670.9 729.6 682.3C710.9 693.9 694.1 686.6 680.2 673.3C668.5 662 659.9 642.5 644.9 617.1C633 596.9 600.7 625.9 578.5 628C549.5 630.7 524.6 606.8 520.5 572.5C517.8 550 523.2 523.8 515.5 504.3C508.1 485.3 489.9 477.6 471.9 476.8C453.8 476 434.9 481 416.6 481.6C398.3 482.2 379.5 477.6 369.2 461.3C358.9 445 361.3 414.3 377.8 399.6C392.7 386.3 411.1 391.3 424.2 400.9C437.3 410.6 448.5 424.4 464.3 427.7C480 431.1 502.4 417.4 504.6 396.4C506.3 380.4 495.7 369.5 484.6 364.5C469.9 357.8 453 357 437.8 351.6C422.6 346.1 408.2 334.2 405.9 314.1C403.6 294.1 419.5 267 435.8 268.9C445.3 270 451.2 279.5 458.6 285.5C466 291.6 478.8 292.7 484.9 281.7C489.3 273.7 487.5 264.3 485.4 256.4C480.1 236.2 474.8 215.9 469.6 195.7C467 185.9 464.5 175.7 466.1 164.5C467.7 153.4 474.8 141.3 483.7 139.2C495.6 136.4 502 151.5 505.5 164.5C515.3 200.8 525.1 237.1 534.9 273.4C537.7 283.8 540.6 294.4 546.7 301.8C552.8 309.1 562.9 312.4 571.9 306.5C581.6 300.1 586.9 285.1 586.5 272.7C586.1 260.3 581.4 249.8 576.8 239.8C571.4 228 566 216.3 560.6 204.5C557.2 197.1 548.4 185.9 550.7 175.9C553.1 165.8 561.1 154.2 567.4 147C571.1 142.7 575.2 139 579.5 135.9C582.3 134.2 591.2 131.5 592.9 129.1Z" stroke="url(#paint18_linear)" stroke-width="1.5738" stroke-miterlimit="10"/>
<path d="M578.7 121.2C598 113.8 618.4 120.7 628.9 138.3C636.8 151.5 639.2 169.3 644.2 185C649.1 200.7 658.4 215.8 672.7 216.4C692.3 217.3 712.4 191 731.7 193.7C750.7 196.3 756.1 224.5 756.8 248.6C757.5 272.7 758.4 301.1 774.8 310.8C796.1 323.5 827.8 294.8 849.8 306C868.8 315.7 869.5 348.7 865.8 376.3C862.1 403.9 857.3 435.5 871 453.7C886.9 474.8 920.6 466.9 934.9 489.8C947.2 509.5 937.9 544.5 919.8 564.4C901.8 584.3 878.1 592 856 595.2C831.9 598.7 804.7 599.6 785.9 622.6C770.5 641.4 764.4 671.7 745.7 684.1C726.6 696.9 708.7 690.1 693.6 676.9C680.8 665.8 671 646.1 654.1 620.6C640.7 600.4 608.2 631.6 585 634.6C554.8 638.6 527.6 615.1 521.8 580C518 557 522.5 529.8 513.7 510.1C505.1 490.9 485.8 483.7 466.8 483.7C447.8 483.7 428.3 489.6 409.1 491C389.9 492.4 370 488.5 358.5 472.1C347 455.7 348.2 424.1 364.9 408.3C379.9 394 399.5 398.3 413.6 407.7C427.7 417.1 440.1 430.8 456.7 433.6C473.3 436.4 496.1 421.4 497.6 399.8C498.7 383.3 487.2 372.6 475.3 367.9C459.6 361.7 441.9 361.6 425.7 356.6C409.5 351.6 393.9 339.9 390.6 319.4C387.3 298.9 402.8 270.5 420 271.7C429.9 272.4 436.6 281.9 444.6 287.8C452.6 293.7 466 294.3 472 282.8C476.3 274.4 474 264.8 471.5 256.8C465.1 236.2 458.7 215.6 452.3 195C449.2 185 446.1 174.6 447.2 163.1C448.4 151.6 455.4 138.8 464.6 136.3C477 132.9 484.3 148.2 488.5 161.4C500.3 198.3 512.2 235.2 524 272.1C527.4 282.6 530.9 293.5 537.6 300.7C544.3 308 555 310.9 564.2 304.5C574.1 297.5 579 281.9 578 269.1C577 256.3 571.7 245.8 566.4 235.7C560.2 223.8 554 212 547.9 200.1C544 192.6 534.3 181.5 536.3 171.1C538.3 160.6 546.3 148.4 552.6 140.6C556.3 136.1 560.4 132 564.8 128.7C567.7 126.9 576.9 123.8 578.7 121.2Z" stroke="url(#paint19_linear)" stroke-width="1.6347" stroke-miterlimit="10"/>
<path d="M563.4 113.7C583.3 105.2 605 111.5 616.8 129.1C625.7 142.4 628.9 160.5 634.8 176.5C640.7 192.5 651 207.5 666 207.6C686.6 207.7 706.5 179.8 726.8 181.7C746.8 183.6 753.7 212.3 755.5 237.1C757.2 261.9 759.4 290.9 777.1 300.3C800 312.4 831.9 281.6 855.5 292.2C875.8 301.4 877.9 335.2 875.3 363.7C872.7 392.2 868.9 424.9 884.1 443.1C901.7 464.2 936.6 454.5 952.6 477.5C966.4 497.2 958.1 533.6 940 554.8C922 576 897.5 584.9 874.5 589.1C849.4 593.7 820.9 595.8 802.3 620.2C787 640.2 781.9 671.5 762.9 685.2C743.4 699.1 724.4 692.9 708 680C694.1 669.1 683 649.3 664.2 623.8C649.3 603.6 616.5 637 592.4 641.2C560.9 646.6 531.4 623.6 523.9 587.7C519 564.2 522.5 536.1 512.3 516.2C502.5 496.9 481.9 490.3 462 491.1C442.1 491.9 421.9 498.8 401.9 501C381.9 503.2 360.8 500.1 348.1 483.7C335.4 467.3 335.3 434.8 352 417.9C367.1 402.6 387.8 406.2 403 415.2C418.2 424.2 431.8 437.8 449.3 440C466.8 442.2 490.1 425.8 490.7 403.5C491.2 386.5 478.6 375.9 465.9 371.6C449.1 365.9 430.6 366.5 413.4 362.1C396.2 357.7 379.4 346.3 375 325.4C370.6 304.5 385.7 274.6 403.7 275.1C414.2 275.4 421.5 284.9 430.2 290.6C438.9 296.3 452.9 296.4 458.7 284.3C462.8 275.5 460 265.7 457 257.6C449.4 236.7 441.8 215.8 434.2 194.9C430.5 184.8 426.8 174.2 427.5 162.4C428.2 150.5 435 137.1 444.6 134.1C457.4 130.1 465.7 145.5 470.7 158.9C484.7 196.3 498.7 233.8 512.7 271.2C516.7 281.9 520.9 292.9 528.2 300.1C535.5 307.3 546.9 309.9 556.2 302.9C566.3 295.3 570.7 279 569.2 266C567.7 252.9 561.6 242.3 555.6 232.2C548.6 220.3 541.6 208.4 534.6 196.4C530.2 188.9 519.6 177.8 521.2 167.1C522.9 156.2 530.7 143.3 537 135.1C540.7 130.3 544.8 126 549.3 122.3C552.1 120 561.7 116.4 563.4 113.7Z" stroke="url(#paint20_linear)" stroke-width="1.6979" stroke-miterlimit="10"/>
<path d="M547 106.6C567.5 97.1001 590.4 102.6 603.6 120.2C613.5 133.5 617.7 152 624.5 168.2C631.3 184.4 642.8 199.4 658.5 198.8C680.1 198 699.7 168.5 721.1 169.7C742.2 170.8 750.7 200.1 753.6 225.4C756.5 250.8 760 280.6 779 289.4C803.5 300.9 835.7 267.9 860.8 277.8C882.5 286.4 886.2 321.1 884.7 350.5C883.2 379.9 880.7 413.7 897.3 431.7C916.6 452.6 952.8 441.2 970.6 464.1C985.9 483.8 978.7 521.5 960.8 544.1C942.8 566.7 917.6 576.9 893.6 582.2C867.4 588 837.7 591.3 819.2 617.2C804 638.4 800 670.8 780.7 685.6C760.9 700.7 740.6 695.1 722.9 682.6C707.9 672 695.4 652.1 674.6 626.7C658.1 606.6 625.2 642.3 600.1 647.6C567.3 654.5 535.4 632.1 526 595.6C519.8 571.7 522.3 542.6 510.8 522.6C499.7 503.1 477.8 497.3 457 498.9C436.2 500.6 415.3 508.5 394.4 511.6C373.5 514.8 351.3 512.4 337.3 496.1C323.3 479.8 321.8 446.4 338.6 428.3C353.8 411.9 375.6 414.7 391.9 423.4C408.2 432.1 423 445.4 441.5 446.9C460 448.4 483.6 430.6 483.3 407.6C483.1 390.1 469.4 379.8 456 375.9C438.2 370.7 418.8 372.2 400.6 368.3C382.4 364.4 364.3 353.5 358.8 332.2C353.3 310.9 367.8 279.5 386.7 279.3C397.7 279.2 405.8 288.6 415.2 294.1C424.6 299.6 439.3 299.1 444.8 286.4C448.8 277.2 445.3 267.2 441.9 259C433 237.8 424.2 216.7 415.3 195.5C411 185.3 406.6 174.5 406.9 162.3C407.2 150.1 413.7 136 423.6 132.5C436.9 127.9 446.2 143.3 452.1 156.9C468.4 194.8 484.7 232.7 500.9 270.5C505.5 281.3 510.4 292.4 518.4 299.5C526.4 306.6 538.4 308.8 547.9 301.2C558.2 293 562 276.1 559.9 262.7C557.7 249.3 550.9 238.7 544.2 228.5C536.4 216.5 528.5 204.6 520.7 192.6C515.8 185.1 504.1 174.2 505.4 163.1C506.7 151.9 514.3 138.3 520.5 129.5C524.2 124.4 528.3 119.8 532.8 115.8C535.5 113.6 545.3 109.5 547 106.6Z" stroke="url(#paint21_linear)" stroke-width="1.7636" stroke-miterlimit="10"/>
<path d="M529.5 100C550.6 89.3 574.9 94 589.4 111.6C600.3 124.8 605.5 143.7 613.4 160C621.3 176.3 633.9 191.3 650.4 190C673 188.3 692.3 157.1 714.7 157.4C736.8 157.7 747 187.3 751.1 213.3C755.2 239.3 760.2 269.7 780.4 278C806.6 288.7 838.9 253.5 865.6 262.6C888.7 270.5 894.1 306 893.8 336.3C893.5 366.6 892.3 401.4 910.5 419.2C931.6 439.9 969.1 426.7 988.7 449.4C1005.6 469 999.7 508.1 981.8 532C963.9 556 937.9 567.5 913 574C885.8 581.1 854.9 585.8 836.6 613.1C821.6 635.6 818.8 669 799.2 685.1C779.1 701.5 757.6 696.6 738.5 684.4C722.3 674.1 708.3 654.2 685.5 629C667.4 609 634.4 647.1 608.3 653.6C574.2 662.1 539.8 640.4 528.4 603.3C520.9 579 522.2 549 509.3 528.9C496.8 509.4 473.6 504.2 451.9 506.8C430.2 509.4 408.6 518.4 386.9 522.5C365.2 526.6 341.8 525.1 326.4 509C311 492.9 308 458.6 324.8 439.2C340 421.7 363 423.7 380.4 431.9C397.8 440.1 414 453.2 433.4 454C452.8 454.7 476.8 435.4 475.5 411.9C474.5 393.9 459.7 383.9 445.5 380.4C426.6 375.8 406.3 378.1 387.1 375C367.9 371.8 348.4 361.3 341.8 339.7C335.2 318 348.9 285.2 368.8 284.1C380.3 283.5 389.2 292.8 399.3 298.1C409.3 303.4 424.8 302.2 429.9 288.9C433.6 279.3 429.6 269.2 425.7 260.9C415.5 239.5 405.3 218.2 395.1 196.8C390.2 186.5 385.1 175.6 384.9 163.1C384.7 150.6 390.9 135.8 401.1 131.8C414.8 126.5 425.3 141.9 432 155.7C450.7 193.9 469.4 232.2 488.1 270.4C493.4 281.3 499 292.5 507.7 299.5C516.4 306.5 529.1 308.2 538.7 300C549.1 291.1 552.4 273.6 549.6 259.9C546.8 246.3 539.1 235.6 531.7 225.4C523 213.4 514.2 201.5 505.5 189.5C500 182 487.3 171.2 488.2 159.8C489.1 148.2 496.4 133.9 502.6 124.7C506.2 119.3 510.4 114.4 514.9 110.1C517.8 107.7 527.9 103.1 529.5 100Z" stroke="url(#paint22_linear)" stroke-width="1.8318" stroke-miterlimit="10"/>
<path d="M511 94.0001C532.6 82.1001 558.3 85.9001 574.3 103.4C586.3 116.5 592.6 135.7 601.5 152.1C610.4 168.5 624.3 183.4 641.5 181.4C665.1 178.7 684 145.8 707.5 145.2C730.7 144.5 742.6 174.6 748.1 201.1C753.5 227.6 760.1 258.7 781.6 266.4C809.5 276.3 841.8 238.7 870.2 247C894.7 254.1 901.9 290.4 902.9 321.6C903.9 352.8 904.2 388.6 924 406.1C947 426.4 985.7 411.3 1007.2 433.8C1025.7 453.2 1021.3 493.6 1003.6 519C985.9 544.4 959.1 557.4 933.3 565C905.1 573.4 872.9 579.5 854.9 608.5C840.2 632.2 838.7 666.7 818.8 684.1C798.5 701.8 775.7 697.7 755.2 686C737.8 676.1 722.3 656.3 697.3 631.3C677.4 611.5 644.6 652.1 617.5 659.9C582.2 670 545.2 649.2 531.6 611.5C522.7 586.8 522.8 556 508.4 535.8C494.4 516.2 470 512 447.3 515.5C424.6 519.1 402.4 529.3 379.8 534.4C357.2 539.5 332.7 539 315.8 523.1C298.9 507.2 294.3 472 311.1 451.4C326.3 432.8 350.4 433.8 369.1 441.5C387.8 449.2 405.2 462 425.6 461.9C446 461.8 470.3 441 467.9 416.8C466.1 398.4 450.2 388.7 435.1 385.7C415.1 381.8 394 385 373.7 382.6C353.4 380.2 332.6 370.2 324.7 348.2C316.8 326.2 329.8 291.8 350.6 289.9C362.6 288.8 372.4 298 383.1 303C393.8 308 410 306.2 414.8 292.3C418.3 282.2 413.7 272 409.2 263.7C397.6 242.2 386 220.6 374.4 199.1C368.8 188.7 363 177.8 362.2 164.9C361.4 152 367.3 136.6 377.8 132C391.9 126 403.6 141.4 411.2 155.2C432.4 193.7 453.7 232.2 474.9 270.8C481 281.8 487.3 293.1 496.7 299.9C506.1 306.7 519.5 307.9 529.2 299.1C539.7 289.5 542.5 271.3 538.9 257.4C535.3 243.5 526.9 232.9 518.6 222.7C508.9 210.8 499.3 198.9 489.6 186.9C483.5 179.4 469.8 168.9 470.2 157.1C470.6 145.1 477.7 130.1 483.8 120.4C487.4 114.7 491.5 109.5 496.1 104.9C499 102.4 509.4 97.2001 511 94.0001Z" stroke="url(#paint23_linear)" stroke-width="1.9027" stroke-miterlimit="10"/>
<path d="M491.3 88.6C513.5 75.5 540.5 78.3 558 95.6C571.2 108.6 578.6 128 588.6 144.5C598.6 161 613.9 175.7 631.8 172.9C656.4 169.1 674.8 134.6 699.4 132.9C723.7 131.2 737.5 161.6 744.3 188.7C751.1 215.8 759.3 247.4 782.3 254.4C812 263.4 844.2 223.4 874.3 230.7C900.3 237 909.4 274 911.8 305.9C914.2 337.9 916 374.7 937.6 391.9C962.6 411.8 1002.5 394.6 1026 416.9C1046.3 436.1 1043.3 477.8 1025.9 504.7C1008.5 531.6 981 546 954.3 555C925.2 564.8 891.6 572.5 874.1 603C859.7 628 859.6 663.6 839.5 682.2C819 701.3 795 698 772.9 686.8C754.2 677.4 737.1 657.6 709.8 633.1C688.1 613.6 655.4 656.7 627.4 665.9C590.8 677.8 551.2 658 535.3 619.8C524.9 594.8 523.7 563.1 507.7 543C492.2 523.5 466.4 520.1 442.8 524.8C419.2 529.5 396.4 540.9 372.9 547.1C349.4 553.4 323.7 553.8 305.4 538.2C287 522.6 280.7 486.6 297.4 464.7C312.5 444.9 337.9 445 357.7 452.1C377.5 459.2 396.4 471.6 417.8 470.7C439.1 469.8 463.8 447.3 460.2 422.6C457.5 403.7 440.4 394.5 424.5 392.1C403.4 388.9 381.4 393.2 360 391.5C338.6 389.8 316.4 380.5 307.1 358.2C297.9 335.9 310.1 300.1 331.7 297.2C344.2 295.5 354.9 304.6 366.4 309.3C377.9 314 394.7 311.4 399.2 296.9C402.4 286.4 397.1 276.1 392.1 267.7C379 246.1 365.9 224.4 352.8 202.8C346.5 192.3 340 181.4 338.6 168.1C337.2 154.9 342.7 138.8 353.5 133.7C368 126.9 380.9 142.3 389.5 156.2C413.4 194.9 437.3 233.6 461.3 272.3C468.1 283.3 475.2 294.7 485.4 301.3C495.5 307.9 509.6 308.6 519.4 299.1C530 288.8 532.1 270 527.7 255.9C523.3 241.8 514 231.2 505 221.1C494.4 209.3 483.7 197.4 473.1 185.6C466.4 178.1 451.6 167.9 451.5 155.8C451.4 143.5 458.2 127.8 464.2 117.5C467.7 111.5 471.8 105.9 476.4 101.1C479.1 97.7 489.8 92 491.3 88.6Z" stroke="url(#paint24_linear)" stroke-width="1.9762" stroke-miterlimit="10"/>
<path d="M470.4 83.9001C493 69.5001 521.5 71.2001 540.6 88.2001C555 101 563.5 120.6 574.8 137.2C586.1 153.8 602.6 168.2 621.3 164.6C646.9 159.7 664.7 123.4 690.4 120.6C715.8 117.9 731.5 148.5 739.9 176C748.2 203.5 758.2 235.7 782.5 241.9C814 249.9 846 207.4 877.9 213.6C905.4 219 916.5 256.6 920.4 289.3C924.3 322.1 927.8 359.8 951.1 376.6C978.2 396 1019.2 376.6 1044.8 398.5C1066.9 417.4 1065.6 460.4 1048.5 488.7C1031.4 517 1003.2 533.1 975.6 543.4C945.5 554.7 910.7 564.1 893.6 596.1C879.6 622.4 881 658.9 860.8 679C840.1 699.5 814.8 697.1 791.3 686.6C771.3 677.7 752.6 658.1 722.9 634C699.3 614.9 667 660.6 637.9 671.2C600.1 685 557.7 666.3 539.4 627.8C527.4 602.5 524.8 570 507.2 550.1C490.1 530.7 462.9 528.3 438.4 534.1C413.9 539.9 390.4 552.6 366.1 560C341.8 567.4 314.8 569 294.9 553.7C275 538.4 266.8 501.8 283.3 478.5C298.3 457.5 324.8 456.5 346 463C367.1 469.5 387.4 481.4 409.8 479.6C432.1 477.7 456.9 453.6 452.2 428.3C448.6 409 430.3 400.2 413.5 398.4C391.2 396 368.3 401.3 345.9 400.5C323.4 399.7 299.7 391 289.1 368.5C278.5 346 289.7 308.6 312.2 304.8C325.3 302.6 336.8 311.5 349 315.8C361.2 320.2 378.7 316.8 382.8 301.7C385.7 290.8 379.8 280.4 374.1 272C359.4 250.3 344.8 228.6 330.1 207C323 196.5 315.7 185.5 313.7 172C311.7 158.5 316.7 141.7 327.9 136C342.8 128.4 357 143.6 366.6 157.6C393.3 196.4 420.1 235.1 446.8 273.9C454.4 285 462.4 296.3 473.3 302.6C484.2 308.9 499 309.1 508.8 298.9C519.5 287.9 520.8 268.5 515.7 254.1C510.5 239.8 500.3 229.3 490.4 219.3C478.7 207.6 467.1 195.8 455.4 184.1C448 176.7 432.1 166.9 431.5 154.4C430.9 141.8 437.3 125.3 443.1 114.5C446.5 108.2 450.6 102.3 455.2 97.1001C458 93.8001 469 87.4001 470.4 83.9001Z" stroke="url(#paint25_linear)" stroke-width="2.0527" stroke-miterlimit="10"/>
<path d="M448.3 79.8999C471.4 64.0999 501.3 64.6999 522 81.3999C537.6 93.8999 547.4 113.8 560 130.3C572.6 146.8 590.5 161 609.9 156.5C636.5 150.3 653.6 112.3 680.4 108.3C706.9 104.4 724.7 135.3 734.6 163.1C744.5 191 756.3 223.7 782.1 229C815.4 235.9 847.2 190.9 880.9 195.9C910 200.2 923.2 238.4 928.7 272C934.2 305.6 939.5 344.2 964.7 360.4C993.9 379.2 1036.1 357.6 1063.9 379C1087.8 397.5 1088.4 441.7 1071.6 471.6C1054.8 501.5 1026 519.1 997.6 530.9C966.5 543.8 930.5 554.9 913.9 588.6C900.3 616.2 903.5 653.7 883.1 675.2C862.3 697.1 835.7 695.8 810.6 685.9C789.3 677.6 768.8 658.3 736.6 634.8C711.1 616.1 679.1 664.5 649.2 676.6C610.2 692.4 564.9 675 544.1 636.1C530.4 610.6 526.3 577.3 507 557.6C488.3 538.4 459.7 537.1 434.2 544.1C408.7 551.1 384.7 565.1 359.6 573.8C334.4 582.5 306.3 585.2 284.8 570.4C263.3 555.6 253.1 518.2 269.4 493.6C284.2 471.4 312 469.2 334.4 475C356.8 480.7 378.6 492.2 401.9 489.4C425.2 486.5 450.2 460.7 444.1 434.9C439.5 415.2 419.9 407 402.2 405.8C378.8 404.3 355 410.7 331.4 410.8C307.8 410.9 282.6 403 270.5 380.4C258.4 357.7 268.5 318.8 292 313.9C305.6 311.1 318.1 319.7 331.1 323.7C344.1 327.7 362.3 323.4 365.9 307.8C368.5 296.5 361.8 286.1 355.5 277.7C339.2 256 322.9 234.4 306.6 212.7C298.7 202.2 290.6 191.2 287.9 177.4C285.2 163.6 289.7 146.1 301.2 139.8C316.5 131.3 332 146.4 342.7 160.3C372.4 199 402.1 237.7 431.8 276.4C440.3 287.4 449.1 298.8 460.8 304.8C472.5 310.9 488 310.3 497.9 299.5C508.6 287.7 509.2 267.7 503.2 253.2C497.2 238.7 486 228.4 475.2 218.5C462.5 206.9 449.8 195.4 437 183.8C429 176.5 411.8 167.1 410.6 154.3C409.4 141.3 415.4 124.1 421 112.8C424.3 106.1 428.3 99.8999 432.9 94.3999C435.7 90.5999 446.9 83.5999 448.3 79.8999Z" stroke="url(#paint26_linear)" stroke-width="2.1321" stroke-miterlimit="10"/>
<path d="M424.9 76.8C448.4 59.6 479.8 59 502.2 75.2C519.1 87.4 530.3 107.4 544.1 123.9C557.9 140.4 577.4 154.1 597.5 148.7C625.2 141.2 641.4 101.4 669.3 96.2C696.9 91.1 716.9 122 728.5 150.3C740.1 178.5 753.9 211.7 781.1 216.1C816.3 221.8 847.6 174.2 883.1 177.9C913.8 181.1 929.3 219.8 936.5 254C943.7 288.2 950.9 327.7 978 343.4C1009.4 361.5 1052.7 337.5 1082.7 358.3C1108.6 376.3 1111 421.7 1094.8 453.1C1078.6 484.5 1049.1 503.9 1019.8 517.2C987.8 531.8 950.5 544.7 934.6 580C921.6 609 926.5 647.4 906.1 670.3C885.2 693.7 857.3 693.4 830.5 684.4C807.8 676.8 785.5 657.8 750.8 635C723.3 616.9 691.9 667.9 661 681.7C620.8 699.6 572.6 683.6 549.1 644.5C533.7 618.9 527.9 584.9 506.8 565.3C486.4 546.3 456.3 546.2 430 554.5C403.6 562.7 379.1 578.2 353.1 588.2C327.1 598.2 297.7 602.2 274.5 587.8C251.3 573.4 239 535.5 255.1 509.6C269.6 486.1 298.7 482.8 322.4 487.7C346.1 492.6 369.5 503.5 393.8 499.6C418.1 495.7 443.1 468 435.6 441.8C429.9 421.8 409 414.1 390.5 413.7C365.9 413.2 341.3 420.7 316.6 421.9C291.9 423.1 265.1 416 251.4 393.2C237.7 370.4 246.7 330 271 324C285.1 320.5 298.6 328.9 312.4 332.4C326.2 335.9 345.1 330.8 348.2 314.6C350.5 302.8 343 292.4 336 284.1C318 262.5 300 241 282 219.4C273.3 209 264.3 198 260.9 183.9C257.5 169.8 261.5 151.7 273.2 144.7C288.9 135.4 305.8 150.2 317.5 164C350.3 202.5 383.1 241 415.8 279.6C425.2 290.6 434.9 301.9 447.4 307.6C459.9 313.3 476.1 312.2 486 300.6C496.7 288.1 496.5 267.4 489.5 252.8C482.6 238.1 470.4 228 458.6 218.3C444.8 207 430.9 195.6 417.1 184.3C408.4 177.1 390 168.2 388.2 155.1C386.4 141.8 392 123.9 397.3 112C400.5 105 404.4 98.5 409 92.6C412.3 88.3 423.7 80.7 424.9 76.8Z" stroke="url(#paint27_linear)" stroke-width="2.2145" stroke-miterlimit="10"/>
<path d="M400.4 74.6C424.3 55.9 457.1 53.9 481.4 69.7C499.6 81.5 512.2 101.6 527.4 118C542.6 134.4 563.6 147.7 584.5 141.2C613.2 132.4 628.4 90.7 657.5 84.2C686.2 77.8 708.5 108.7 721.9 137.3C735.3 165.8 751.2 199.3 779.9 202.7C817.1 207.1 847.8 156.8 885.2 159.1C917.5 161.1 935.4 200.2 944.4 235.1C953.4 270 962.7 310.3 991.8 325.2C1025.5 342.5 1069.8 315.9 1102.2 336.1C1130.1 353.5 1134.6 400.1 1119 433C1103.4 465.9 1073.3 487.1 1043.2 502.1C1010.3 518.5 971.8 533.3 956.7 570.3C944.3 600.6 951.1 639.9 930.7 664.3C909.8 689.2 880.6 690.1 852.1 682C828 675.1 803.8 656.6 766.4 634.6C736.8 617.2 706.1 670.9 674.3 686.4C632.9 706.5 581.8 692.1 555.5 652.9C538.2 627.2 530.7 592.5 507.8 573.3C485.6 554.7 454.1 555.9 426.8 565.4C399.5 575 374.5 591.9 347.7 603.3C320.9 614.7 290.3 620 265.3 606.3C240.4 592.5 225.8 554 241.6 526.7C255.8 502 286.1 497.3 311.2 501.4C336.3 505.5 361.2 515.7 386.5 510.6C411.8 505.5 436.8 476.1 427.9 449.4C421 429.1 398.9 422.1 379.4 422.4C353.6 422.9 328.1 431.7 302.3 433.9C276.5 436.1 248.1 430 232.8 407.1C217.5 384.3 225.1 342.3 250.4 335.1C265 330.9 279.5 338.9 294.1 341.9C308.7 344.9 328.3 338.9 330.8 322.1C332.7 309.9 324.3 299.6 316.7 291.3C296.9 269.9 277.1 248.5 257.3 227.1C247.7 216.7 237.8 205.8 233.6 191.5C229.4 177.1 232.8 158.3 244.8 150.7C260.8 140.4 279.2 155 292.1 168.7C328.1 206.9 364.1 245.1 400.1 283.3C410.4 294.2 421 305.4 434.4 310.7C447.8 316 464.7 314.2 474.6 301.8C485.3 288.5 484.1 267.3 476.2 252.5C468.3 237.7 455.1 227.8 442.3 218.4C427.3 207.3 412.3 196.3 397.3 185.2C387.8 178.2 368.2 169.8 365.8 156.4C363.3 142.8 368.4 124.2 373.5 111.7C376.5 104.4 380.3 97.5 384.9 91.2C387.6 86.9 399.2 78.6 400.4 74.6Z" stroke="url(#paint28_linear)" stroke-width="2.3002" stroke-miterlimit="10"/>
<path d="M374.5 73.3001C398.8 53.1001 433 49.7001 459.1 64.8001C478.7 76.2001 492.7 96.3001 509.4 112.4C526 128.6 548.6 141.4 570.2 133.9C599.8 123.6 614.1 80.2001 644.2 72.2001C674 64.4001 698.7 95.3001 713.9 124C729.1 152.8 747.2 186.5 777.5 188.7C816.6 191.6 846.7 138.6 885.9 139.4C919.8 140.1 940.3 179.6 951.3 215C962.3 250.5 973.7 291.5 1004.8 305.6C1040.9 321.9 1086.1 292.8 1120.9 312.1C1150.9 328.8 1157.7 376.5 1142.7 411C1127.7 445.5 1097.2 468.5 1066.2 485.2C1032.4 503.4 992.7 520.3 978.5 558.9C966.8 590.6 975.6 630.7 955.3 656.6C934.5 683.1 903.9 685.3 873.7 678.1C848.2 672 822 654 781.9 633C750.1 616.3 720.2 672.9 687.6 690.1C645.1 712.5 590.9 699.9 561.6 660.7C542.4 635.1 533 599.7 508.2 580.9C484.1 562.7 451.2 565.2 423 576.3C394.8 587.3 369.3 605.8 341.7 618.6C314.1 631.4 282.3 638.2 255.5 625.1C228.7 612 211.9 573.1 227.2 544.3C241 518.3 272.6 512.2 299 515.3C325.4 518.4 352 527.8 378.3 521.6C404.6 515.3 429.6 484 419 457C410.9 436.4 387.4 430.1 367 431.3C340 432.9 313.6 443 286.7 446.4C259.7 449.8 229.7 444.7 212.7 421.8C195.7 399 201.9 355.6 228 347C243.2 342.1 258.7 349.7 274.1 352.2C289.5 354.7 309.8 347.7 311.7 330.2C313.1 317.6 304 307.3 295.6 299.1C273.9 277.9 252.2 256.8 230.6 235.6C220.1 225.4 209.3 214.6 204.2 200C199.2 185.4 201.9 165.9 214.2 157.5C230.6 146.3 250.4 160.4 264.5 174C303.9 211.7 343.3 249.5 382.6 287.2C393.8 298 405.5 309 419.7 313.9C433.9 318.8 451.6 316.2 461.4 303.1C472 288.9 469.9 267.2 461 252.3C452.1 237.4 437.8 227.8 424.1 218.7C407.9 208 391.7 197.2 375.6 186.5C365.4 179.7 344.4 171.9 341.3 158.2C338.1 144.4 342.6 125 347.5 111.9C350.3 104.3 354 97.0001 358.6 90.4001C361.7 86.6001 373.5 77.5001 374.5 73.3001Z" stroke="url(#paint29_linear)" stroke-width="2.3891" stroke-miterlimit="10"/>
<path d="M347.4 73.1001C371.9 51.3001 407.7 46.3 435.7 60.8C456.8 71.7 472.3 91.7001 490.4 107.6C508.5 123.5 532.7 135.7 555 127.1C585.6 115.3 598.6 70.0001 629.9 60.6001C660.8 51.3001 688 82 705.2 110.9C722.4 139.8 742.8 173.7 774.6 174.7C815.7 176 844.9 120.3 886.1 119.5C921.7 118.8 944.8 158.5 957.9 194.4C970.9 230.4 984.7 272.1 1017.9 285.2C1056.4 300.5 1102.6 268.6 1139.9 287C1172 302.9 1181.2 351.6 1167 387.7C1152.8 423.8 1121.8 448.8 1090.1 467.2C1055.5 487.3 1014.6 506.4 1001.3 546.7C990.4 579.8 1001.4 620.6 981.2 648.1C960.6 676.2 928.6 679.8 896.7 673.7C869.7 668.5 841.5 651.1 798.6 631.2C764.5 615.4 735.7 674.8 702.3 693.9C658.7 718.7 601.4 708 569 669.1C547.8 643.6 536.4 607.6 509.6 589.4C483.6 571.7 449.2 575.7 420.1 588.2C391.1 600.7 365.1 620.8 336.7 635.1C308.3 649.4 275.3 657.8 246.7 645.5C218.1 633.2 198.8 593.9 213.6 563.6C227 536.3 259.7 528.7 287.6 530.8C315.5 532.9 343.7 541.4 371 533.9C398.3 526.3 423.1 493.1 410.8 465.7C401.5 444.9 376.5 439.4 355.2 441.5C326.9 444.3 299.8 455.8 271.7 460.4C243.6 465 211.9 461 193.1 438.3C174.3 415.6 178.9 370.7 205.9 360.8C221.6 355.1 238.2 362.3 254.4 364.2C270.7 366.1 291.6 358 292.9 340C293.8 327 283.8 316.8 274.6 308.7C251 287.9 227.3 267 203.7 246.2C192.3 236.1 180.5 225.5 174.5 210.7C168.5 195.9 170.7 175.8 183.1 166.6C199.8 154.4 221.1 168.1 236.5 181.4C279.4 218.5 322.3 255.6 365.2 292.8C377.4 303.4 390.1 314.2 405.3 318.7C420.5 323.2 438.8 319.7 448.5 305.8C459 290.8 455.9 268.5 445.9 253.6C435.9 238.7 420.6 229.4 405.7 220.6C388.3 210.2 370.9 199.9 353.4 189.5C342.4 183 320.1 175.8 316.3 161.9C312.4 147.8 316.3 127.7 320.8 114.1C323.4 106.1 327 98.5 331.5 91.5C334.5 87.3 346.5 77.5001 347.4 73.1001Z" stroke="url(#paint30_linear)" stroke-width="2.4815" stroke-miterlimit="10"/>
<path d="M318.9 74.1C343.7 50.7 381 44 410.9 57.7C433.4 68 450.6 88 470.3 103.5C490 119.1 515.9 130.6 538.9 120.8C570.5 107.3 582.2 60.3 614.5 49.2C646.4 38.3 676.3 68.7 695.6 97.7C714.9 126.7 737.7 160.7 771.1 160.4C814.3 160 842.4 101.5 885.6 98.9C922.8 96.7 948.8 136.5 964 172.9C979.2 209.3 995.4 251.6 1030.8 263.7C1071.8 277.8 1118.8 243 1158.7 260.3C1193 275.2 1204.8 325 1191.4 362.7C1178.1 400.4 1146.7 427.4 1114.2 447.7C1078.8 469.9 1036.8 491.2 1024.6 533.2C1014.6 567.7 1027.9 609.1 1007.9 638.3C987.5 668.1 954.1 673.1 920.4 668.2C891.9 664 861.6 647.3 815.7 628.7C779.3 613.9 751.7 676.2 717.5 697.2C672.9 724.6 612.4 716 576.8 677.3C553.5 651.9 540 615.4 511.1 597.9C483 580.8 447.2 586.4 417.3 600.5C387.4 614.6 361.1 636.3 332 652.2C302.9 668.1 268.6 678.1 238.1 666.7C207.6 655.2 185.6 615.6 199.8 584C212.6 555.3 246.6 546.1 275.9 547.1C305.2 548.1 335.1 555.7 363.4 546.7C391.7 537.8 416.2 502.5 402.2 475C391.5 454 365.1 449.4 342.9 452.5C313.4 456.6 285.5 469.6 256.2 475.5C227 481.4 193.6 478.7 172.9 456.1C152.2 433.5 155.1 387.2 183 375.9C199.2 369.4 216.9 376 234 377.3C251.1 378.6 272.7 369.4 273.3 350.8C273.7 337.4 262.8 327.3 252.8 319.4C227.1 299 201.5 278.6 175.8 258.1C163.4 248.2 150.5 237.8 143.7 222.9C136.9 208 138.2 187.2 150.8 177.3C167.7 164 190.7 177.2 207.4 190.3C254 226.6 300.5 263 347.1 299.3C360.4 309.7 374.1 320.3 390.2 324.2C406.3 328.1 425.4 323.8 434.9 309.1C445.3 293.2 441 270.5 429.9 255.6C418.8 240.7 402.3 231.8 386.4 223.4C367.7 213.5 349 203.6 330.3 193.7C318.5 187.4 294.8 181 290.2 166.9C285.5 152.6 288.7 131.7 292.8 117.6C295.2 109.3 298.6 101.3 303 93.9C306 89.2 318.2 78.6 318.9 74.1Z" stroke="url(#paint31_linear)" stroke-width="2.5775" stroke-miterlimit="10"/>
<path d="M289.2 76.3001C314.2 51.2001 352.9 42.8001 384.9 55.5001C409 65.1001 427.8 84.9001 449.1 100.1C470.4 115.3 498 126 521.7 115C554.2 99.8001 564.4 50.9001 597.9 38.3001C630.9 25.8001 663.5 55.8001 685 84.7001C706.5 113.7 731.9 147.6 766.8 145.9C812 143.7 839 82.3001 884.1 77.9001C923 74.0001 952 113.8 969.5 150.6C987 187.4 1005.8 230.2 1043.4 241.1C1087 253.8 1134.7 216.1 1177.3 232.2C1213.9 246.1 1228.4 296.7 1216 336.1C1203.6 375.5 1171.9 404.5 1138.8 426.7C1102.7 451 1059.5 474.6 1048.6 518.3C1039.7 554.1 1055.3 596.2 1035.7 627C1015.6 658.5 980.8 665 945.3 661.4C915.2 658.3 882.7 642.4 833.9 625.2C795.2 611.5 768.9 676.7 734 699.8C688.5 729.8 624.6 723.6 585.7 685.3C560.2 660.2 544.4 623.3 513.4 606.5C483.3 590.1 445.9 597.4 415.2 613.1C384.5 628.8 357.8 652.3 328 669.9C298.2 687.5 262.7 699.2 230.3 688.7C197.9 678.2 173.1 638.4 186.6 605.3C198.8 575.3 234 564.4 264.8 564.2C295.6 564 327.2 570.5 356.5 560.1C385.8 549.7 409.9 512.4 394.1 484.7C382 463.6 354.2 460 331 464.1C300.3 469.5 271.6 484.1 241.2 491.4C210.8 498.7 175.7 497.3 153.1 475C130.4 452.7 131.4 404.9 160.2 392.2C176.9 384.8 195.7 390.9 213.7 391.5C231.7 392.1 253.9 381.7 253.7 362.6C253.6 348.8 241.6 338.9 230.9 331.2C203.1 311.3 175.4 291.4 147.6 271.5C134.2 261.9 120.3 251.7 112.5 236.7C104.7 221.7 105.2 200.2 118 189.5C135.2 175.1 159.8 187.7 177.9 200.4C228.3 235.8 278.6 271.2 329 306.5C343.4 316.6 358.2 326.9 375.2 330.3C392.2 333.7 412 328.4 421.4 312.9C431.6 296.1 426.1 273 413.8 258.1C401.5 243.3 383.9 234.8 366.8 226.8C346.8 217.4 326.8 208 306.7 198.6C294.1 192.7 269 187.1 263.5 172.7C258 158.2 260.4 136.6 264.1 121.9C266.3 113.3 269.5 104.9 273.8 97.2001C276.3 92.3001 288.6 80.9001 289.2 76.3001Z" stroke="url(#paint32_linear)" stroke-width="2.6772" stroke-miterlimit="10"/>
<path d="M258.1 79.8001C283.2 52.9001 323.4 42.6001 357.5 54.4001C383.1 63.3001 403.7 82.8002 426.7 97.5002C449.7 112.2 479.1 122.1 503.4 109.7C536.8 92.7002 545.4 42.1002 579.9 27.6002C613.9 13.3002 649.4 42.8002 673.1 71.6002C696.8 100.4 724.9 134.3 761.5 131.1C808.8 126.9 834.4 62.7002 881.5 56.2002C922.1 50.6002 954.2 90.3001 974.1 127.3C994 164.3 1015.6 207.5 1055.4 217.2C1101.6 228.4 1150 187.6 1195.3 202.4C1234.3 215.1 1251.6 266.6 1240.4 307.5C1229.2 348.4 1197.1 379.6 1163.4 403.9C1126.6 430.4 1082.4 456.5 1072.9 501.9C1065.1 539.1 1083.3 581.7 1064.1 614.2C1044.4 647.4 1008.3 655.6 970.9 653.4C939.2 651.5 904.5 636.6 852.6 620.9C811.4 608.5 786.7 676.6 751.1 701.8C704.7 734.6 637.5 730.9 595.1 693.2C567.3 668.5 549.2 631.2 515.9 615.2C483.6 599.7 444.8 608.7 413.3 626.2C381.8 643.7 354.9 668.9 324.4 688.2C293.9 707.6 257.2 721.1 222.8 711.7C188.4 702.3 160.7 662.5 173.4 627.8C184.9 596.5 221.4 583.7 253.6 582.2C285.8 580.7 319.3 586 349.5 574.1C379.7 562.2 403.4 522.9 385.6 495C372 473.8 342.7 471.3 318.6 476.5C286.6 483.4 257.2 499.6 225.6 508.4C194.1 517.2 157.2 517.3 132.5 495.3C107.8 473.3 106.8 424.2 136.4 409.9C153.6 401.6 173.5 407.1 192.4 406.9C211.3 406.7 234.1 395.1 233.1 375.5C232.4 361.3 219.5 351.7 207.8 344.2C177.8 324.9 147.9 305.6 117.9 286.4C103.4 277.1 88.4 267.2 79.6 252.1C70.8 237 70.3 214.9 83.3 203.3C100.7 187.8 127.1 199.7 146.6 212C200.9 246.2 255.2 280.5 309.5 314.7C325 324.5 341 334.4 359 337.2C377 340 397.5 333.7 406.7 317.4C416.6 299.7 409.9 276.2 396.4 261.4C382.9 246.7 364 238.7 345.8 231.2C324.4 222.4 303 213.6 281.6 204.8C268.1 199.2 241.6 194.5 235.2 180C228.8 165.3 230.4 143 233.6 127.7C235.5 118.7 238.5 110 242.7 101.9C245.3 96.8001 257.7 84.6001 258.1 79.8001Z" stroke="url(#paint33_linear)" stroke-width="2.7807" stroke-miterlimit="10"/>
<path d="M225.6 84.7001C250.7 56.0001 292.5 43.7 328.6 54.4C355.8 62.4 378.3 81.7 403 95.8C427.7 109.9 459 118.8 483.9 105.1C518.2 86.2001 525 33.8001 560.5 17.5001C595.5 1.40005 634 30.2 660.1 58.8C686.2 87.5 717.1 121.1 755.3 116.2C804.7 109.9 828.7 42.8001 877.8 34.1001C920.1 26.6001 955.4 66 977.9 103.3C1000.4 140.6 1024.9 184 1067 192.3C1115.9 201.9 1164.9 157.9 1212.9 171.2C1254.3 182.6 1274.7 234.8 1264.7 277.3C1254.7 319.9 1222.5 353.3 1188.2 379.7C1150.8 408.5 1105.6 437.2 1097.6 484.3C1091 522.9 1112 565.9 1093.2 600.1C1074 635.1 1036.5 645 997.2 644.3C963.9 643.7 926.9 629.8 871.9 616C828.2 605 805.2 676.1 769 703.4C721.8 739 651.3 738.1 605.1 701.2C574.9 677 554.3 639.4 518.8 624.4C484.3 609.8 444 620.7 411.8 640C379.5 659.3 352.4 686.3 321.3 707.5C290.2 728.7 252.3 744.2 215.8 735.9C179.3 727.6 148.6 687.9 160.5 651.8C171.2 619.1 208.8 604.5 242.5 601.5C276.2 598.5 311.5 602.6 342.6 589.1C373.7 575.6 396.9 534.1 377 506.3C361.8 485.1 331 483.8 306 490.1C272.8 498.5 242.6 516.4 210 526.8C177.3 537.2 138.7 538.8 111.9 517.2C85.0999 495.6 81.8999 445.2 112.3 429.2C129.9 419.9 151.1 424.7 170.9 423.8C190.7 422.8 214.1 410 212.2 389.9C210.8 375.3 196.9 366 184.4 358.8C152.2 340.3 119.9 321.7 87.6999 303.2C72.0999 294.2 55.9999 284.7 46.0999 269.6C36.1999 254.4 34.7999 231.8 47.8999 219.3C65.3999 202.6 93.5999 213.7 114.6 225.6C173 258.5 231.3 291.4 289.7 324.3C306.4 333.7 323.6 343.3 342.5 345.3C361.4 347.4 382.7 340.1 391.6 322.9C401.2 304.3 393.2 280.4 378.4 265.8C363.6 251.2 343.5 243.9 324.1 236.9C301.3 228.8 278.5 220.6 255.7 212.5C241.3 207.4 213.3 203.7 206 189C198.6 174.2 199.4 151.2 202.1 135.3C203.7 126 206.5 116.9 210.5 108.4C212.9 102.8 225.4 89.7001 225.6 84.7001Z" stroke="url(#paint34_linear)" stroke-width="2.8883" stroke-miterlimit="10"/>
<path d="M191.8 91.1001C216.9 60.5001 260.1 46.2001 298.5 55.6001C327.4 62.7001 351.7 81.5001 378.2 95.0001C404.7 108.5 437.8 116.3 463.4 101.1C498.5 80.3001 503.4 26.1001 539.9 7.80006C575.9 -10.1999 617.4 17.7001 646.1 46.1001C674.7 74.5001 708.6 107.7 748.3 101C799.8 92.4001 822.1 22.5001 873.1 11.5001C917.1 2.00007 955.8 41.0001 981 78.4001C1006.2 115.8 1033.7 159.4 1078.2 166.1C1129.8 173.9 1179.3 126.6 1230.2 138.2C1274.1 148.2 1297.7 200.9 1289 245.1C1280.3 289.3 1248 325 1213.3 353.5C1175.3 384.7 1129.2 416.1 1122.8 464.8C1117.6 504.7 1141.4 548 1123.2 584C1104.6 620.7 1065.7 632.6 1024.5 633.5C989.6 634.3 950.2 621.6 891.9 609.7C845.6 600.2 824.6 674.3 787.9 703.9C740 742.5 666 744.5 616.1 708.5C583.4 684.9 560.2 647.2 522.3 633.2C485.5 619.7 443.8 632.6 410.8 653.8C377.8 675 350.6 703.9 318.9 727C287.2 750.1 248.2 767.6 209.6 760.7C171 753.8 137.1 714.2 148 676.6C157.8 642.5 196.6 625.9 231.8 621.5C267 617 304.2 619.8 336.2 604.6C368.2 589.4 390.7 545.8 368.7 518C351.9 496.8 319.5 496.8 293.6 504.4C259.2 514.4 228.3 534.1 194.6 546.2C160.8 558.3 120.5 561.6 91.3999 540.5C62.2999 519.5 56.7999 467.8 87.9999 450C106.1 439.7 128.4 443.8 149.1 441.9C169.8 440.1 193.8 425.8 190.9 405.3C188.8 390.4 173.8 381.4 160.4 374.5C125.8 356.8 91.2999 339.1 56.6999 321.4C39.9999 312.8 22.5999 303.8 11.5999 288.6C0.599936 273.4 -1.90008 250.2 11.2999 236.8C28.9999 218.9 58.9999 229.2 81.3999 240.4C144 271.7 206.6 303.1 269.1 334.4C287 343.3 305.4 352.4 325.3 353.8C345.2 355.2 367.2 346.7 375.8 328.7C385.1 309.2 375.7 284.9 359.5 270.6C343.4 256.3 322 249.6 301.3 243.2C277.1 235.8 252.8 228.4 228.6 221C213.3 216.3 183.8 213.7 175.5 199C167.1 184.1 166.9 160.5 169.1 144C170.4 134.4 172.9 124.9 176.7 116C179.3 110.2 191.8 96.2001 191.8 91.1001Z" stroke="url(#paint35_linear)" stroke-width="3" stroke-miterlimit="10"/>
<defs>
<linearGradient id="paint0_linear" x1="715.3" y1="264.92" x2="654.828" y2="608.252" gradientUnits="userSpaceOnUse">
<stop stop-color="#480050"/>
<stop offset="0.0415286" stop-color="#41094F"/>
<stop offset="0.1106" stop-color="#30234D"/>
<stop offset="0.1981" stop-color="#134C49"/>
<stop offset="0.2487" stop-color="#006747"/>
<stop offset="0.2691" stop-color="#037054"/>
<stop offset="0.3071" stop-color="#0B8777"/>
<stop offset="0.3583" stop-color="#18AEAF"/>
<stop offset="0.4204" stop-color="#29E2FC"/>
<stop offset="0.4231" stop-color="#2AE4FF"/>
<stop offset="0.6077" stop-color="#8E55BF"/>
<stop offset="0.8077" stop-color="#D46A00"/>
<stop offset="1" stop-color="#DF0010"/>
</linearGradient>
<linearGradient id="paint1_linear" x1="712.757" y1="255.597" x2="666.099" y2="611.209" gradientUnits="userSpaceOnUse">
<stop stop-color="#480050"/>
<stop offset="0.0415286" stop-color="#41094F"/>
<stop offset="0.1106" stop-color="#30234D"/>
<stop offset="0.1981" stop-color="#134C49"/>
<stop offset="0.2487" stop-color="#006747"/>
<stop offset="0.2691" stop-color="#037054"/>
<stop offset="0.3071" stop-color="#0B8777"/>
<stop offset="0.3583" stop-color="#18AEAF"/>
<stop offset="0.4204" stop-color="#29E2FC"/>
<stop offset="0.4231" stop-color="#2AE4FF"/>
<stop offset="0.6077" stop-color="#8E55BF"/>
<stop offset="0.8077" stop-color="#D46A00"/>
<stop offset="1" stop-color="#DF0010"/>
</linearGradient>
<linearGradient id="paint2_linear" x1="709.681" y1="246.189" x2="677.436" y2="613.864" gradientUnits="userSpaceOnUse">
<stop stop-color="#480050"/>
<stop offset="0.0415286" stop-color="#41094F"/>
<stop offset="0.1106" stop-color="#30234D"/>
<stop offset="0.1981" stop-color="#134C49"/>
<stop offset="0.2487" stop-color="#006747"/>
<stop offset="0.2691" stop-color="#037054"/>
<stop offset="0.3071" stop-color="#0B8777"/>
<stop offset="0.3583" stop-color="#18AEAF"/>
<stop offset="0.4204" stop-color="#29E2FC"/>
<stop offset="0.4231" stop-color="#2AE4FF"/>
<stop offset="0.6077" stop-color="#8E55BF"/>
<stop offset="0.8077" stop-color="#D46A00"/>
<stop offset="1" stop-color="#DF0010"/>
</linearGradient>
<linearGradient id="paint3_linear" x1="706.06" y1="236.609" x2="688.799" y2="615.935" gradientUnits="userSpaceOnUse">
<stop stop-color="#480050"/>
<stop offset="0.0415286" stop-color="#41094F"/>
<stop offset="0.1106" stop-color="#30234D"/>
<stop offset="0.1981" stop-color="#134C49"/>
<stop offset="0.2487" stop-color="#006747"/>
<stop offset="0.2691" stop-color="#037054"/>
<stop offset="0.3071" stop-color="#0B8777"/>
<stop offset="0.3583" stop-color="#18AEAF"/>
<stop offset="0.4204" stop-color="#29E2FC"/>
<stop offset="0.4231" stop-color="#2AE4FF"/>
<stop offset="0.6077" stop-color="#8E55BF"/>
<stop offset="0.8077" stop-color="#D46A00"/>
<stop offset="1" stop-color="#DF0010"/>
</linearGradient>
<linearGradient id="paint4_linear" x1="701.846" y1="226.893" x2="700.081" y2="617.533" gradientUnits="userSpaceOnUse">
<stop stop-color="#480050"/>
<stop offset="0.0415286" stop-color="#41094F"/>
<stop offset="0.1106" stop-color="#30234D"/>
<stop offset="0.1981" stop-color="#134C49"/>
<stop offset="0.2487" stop-color="#006747"/>
<stop offset="0.2691" stop-color="#037054"/>
<stop offset="0.3071" stop-color="#0B8777"/>
<stop offset="0.3583" stop-color="#18AEAF"/>
<stop offset="0.4204" stop-color="#29E2FC"/>
<stop offset="0.4231" stop-color="#2AE4FF"/>
<stop offset="0.6077" stop-color="#8E55BF"/>
<stop offset="0.8077" stop-color="#D46A00"/>
<stop offset="1" stop-color="#DF0010"/>
</linearGradient>
<linearGradient id="paint5_linear" x1="696.988" y1="217.109" x2="711.488" y2="618.702" gradientUnits="userSpaceOnUse">
<stop stop-color="#480050"/>
<stop offset="0.0415286" stop-color="#41094F"/>
<stop offset="0.1106" stop-color="#30234D"/>
<stop offset="0.1981" stop-color="#134C49"/>
<stop offset="0.2487" stop-color="#006747"/>
<stop offset="0.2691" stop-color="#037054"/>
<stop offset="0.3071" stop-color="#0B8777"/>
<stop offset="0.3583" stop-color="#18AEAF"/>
<stop offset="0.4204" stop-color="#29E2FC"/>
<stop offset="0.4231" stop-color="#2AE4FF"/>
<stop offset="0.6077" stop-color="#8E55BF"/>
<stop offset="0.8077" stop-color="#D46A00"/>
<stop offset="1" stop-color="#DF0010"/>
</linearGradient>
<linearGradient id="paint6_linear" x1="691.506" y1="207.263" x2="722.869" y2="619.508" gradientUnits="userSpaceOnUse">
<stop stop-color="#480050"/>
<stop offset="0.0415286" stop-color="#41094F"/>
<stop offset="0.1106" stop-color="#30234D"/>
<stop offset="0.1981" stop-color="#134C49"/>
<stop offset="0.2487" stop-color="#006747"/>
<stop offset="0.2691" stop-color="#037054"/>
<stop offset="0.3071" stop-color="#0B8777"/>
<stop offset="0.3583" stop-color="#18AEAF"/>
<stop offset="0.4204" stop-color="#29E2FC"/>
<stop offset="0.4231" stop-color="#2AE4FF"/>
<stop offset="0.6077" stop-color="#8E55BF"/>
<stop offset="0.8077" stop-color="#D46A00"/>
<stop offset="1" stop-color="#DF0010"/>
</linearGradient>
<linearGradient id="paint7_linear" x1="685.31" y1="197.326" x2="734.036" y2="619.88" gradientUnits="userSpaceOnUse">
<stop stop-color="#480050"/>
<stop offset="0.0415286" stop-color="#41094F"/>
<stop offset="0.1106" stop-color="#30234D"/>
<stop offset="0.1981" stop-color="#134C49"/>
<stop offset="0.2487" stop-color="#006747"/>
<stop offset="0.2691" stop-color="#037054"/>
<stop offset="0.3071" stop-color="#0B8777"/>
<stop offset="0.3583" stop-color="#18AEAF"/>
<stop offset="0.4204" stop-color="#29E2FC"/>
<stop offset="0.4231" stop-color="#2AE4FF"/>
<stop offset="0.6077" stop-color="#8E55BF"/>
<stop offset="0.8077" stop-color="#D46A00"/>
<stop offset="1" stop-color="#DF0010"/>
</linearGradient>
<linearGradient id="paint8_linear" x1="678.381" y1="187.458" x2="745.129" y2="620.203" gradientUnits="userSpaceOnUse">
<stop stop-color="#480050"/>
<stop offset="0.0415286" stop-color="#41094F"/>
<stop offset="0.1106" stop-color="#30234D"/>
<stop offset="0.1981" stop-color="#134C49"/>
<stop offset="0.2487" stop-color="#006747"/>
<stop offset="0.2691" stop-color="#037054"/>
<stop offset="0.3071" stop-color="#0B8777"/>
<stop offset="0.3583" stop-color="#18AEAF"/>
<stop offset="0.4204" stop-color="#29E2FC"/>
<stop offset="0.4231" stop-color="#2AE4FF"/>
<stop offset="0.6077" stop-color="#8E55BF"/>
<stop offset="0.8077" stop-color="#D46A00"/>
<stop offset="1" stop-color="#DF0010"/>
</linearGradient>
<linearGradient id="paint9_linear" x1="670.724" y1="177.521" x2="756.09" y2="620.04" gradientUnits="userSpaceOnUse">
<stop stop-color="#480050"/>
<stop offset="0.0415286" stop-color="#41094F"/>
<stop offset="0.1106" stop-color="#30234D"/>
<stop offset="0.1981" stop-color="#134C49"/>
<stop offset="0.2487" stop-color="#006747"/>
<stop offset="0.2691" stop-color="#037054"/>
<stop offset="0.3071" stop-color="#0B8777"/>
<stop offset="0.3583" stop-color="#18AEAF"/>
<stop offset="0.4204" stop-color="#29E2FC"/>
<stop offset="0.4231" stop-color="#2AE4FF"/>
<stop offset="0.6077" stop-color="#8E55BF"/>
<stop offset="0.8077" stop-color="#D46A00"/>
<stop offset="1" stop-color="#DF0010"/>
</linearGradient>
<linearGradient id="paint10_linear" x1="662.281" y1="167.684" x2="766.999" y2="619.803" gradientUnits="userSpaceOnUse">
<stop stop-color="#480050"/>
<stop offset="0.0415286" stop-color="#41094F"/>
<stop offset="0.1106" stop-color="#30234D"/>
<stop offset="0.1981" stop-color="#134C49"/>
<stop offset="0.2487" stop-color="#006747"/>
<stop offset="0.2691" stop-color="#037054"/>
<stop offset="0.3071" stop-color="#0B8777"/>
<stop offset="0.3583" stop-color="#18AEAF"/>
<stop offset="0.4204" stop-color="#29E2FC"/>
<stop offset="0.4231" stop-color="#2AE4FF"/>
<stop offset="0.6077" stop-color="#8E55BF"/>
<stop offset="0.8077" stop-color="#D46A00"/>
<stop offset="1" stop-color="#DF0010"/>
</linearGradient>
<linearGradient id="paint11_linear" x1="652.994" y1="157.94" x2="777.615" y2="619.573" gradientUnits="userSpaceOnUse">
<stop stop-color="#480050"/>
<stop offset="0.0415286" stop-color="#41094F"/>
<stop offset="0.1106" stop-color="#30234D"/>
<stop offset="0.1981" stop-color="#134C49"/>
<stop offset="0.2487" stop-color="#006747"/>
<stop offset="0.2691" stop-color="#037054"/>
<stop offset="0.3071" stop-color="#0B8777"/>
<stop offset="0.3583" stop-color="#18AEAF"/>
<stop offset="0.4204" stop-color="#29E2FC"/>
<stop offset="0.4231" stop-color="#2AE4FF"/>
<stop offset="0.6077" stop-color="#8E55BF"/>
<stop offset="0.8077" stop-color="#D46A00"/>
<stop offset="1" stop-color="#DF0010"/>
</linearGradient>
<linearGradient id="paint12_linear" x1="642.828" y1="148.306" x2="788.238" y2="619.043" gradientUnits="userSpaceOnUse">
<stop stop-color="#480050"/>
<stop offset="0.0415286" stop-color="#41094F"/>
<stop offset="0.1106" stop-color="#30234D"/>
<stop offset="0.1981" stop-color="#134C49"/>
<stop offset="0.2487" stop-color="#006747"/>
<stop offset="0.2691" stop-color="#037054"/>
<stop offset="0.3071" stop-color="#0B8777"/>
<stop offset="0.3583" stop-color="#18AEAF"/>
<stop offset="0.4204" stop-color="#29E2FC"/>
<stop offset="0.4231" stop-color="#2AE4FF"/>
<stop offset="0.6077" stop-color="#8E55BF"/>
<stop offset="0.8077" stop-color="#D46A00"/>
<stop offset="1" stop-color="#DF0010"/>
</linearGradient>
<linearGradient id="paint13_linear" x1="631.753" y1="138.823" x2="798.607" y2="618.539" gradientUnits="userSpaceOnUse">
<stop stop-color="#480050"/>
<stop offset="0.0415286" stop-color="#41094F"/>
<stop offset="0.1106" stop-color="#30234D"/>
<stop offset="0.1981" stop-color="#134C49"/>
<stop offset="0.2487" stop-color="#006747"/>
<stop offset="0.2691" stop-color="#037054"/>
<stop offset="0.3071" stop-color="#0B8777"/>
<stop offset="0.3583" stop-color="#18AEAF"/>
<stop offset="0.4204" stop-color="#29E2FC"/>
<stop offset="0.4231" stop-color="#2AE4FF"/>
<stop offset="0.6077" stop-color="#8E55BF"/>
<stop offset="0.8077" stop-color="#D46A00"/>
<stop offset="1" stop-color="#DF0010"/>
</linearGradient>
<linearGradient id="paint14_linear" x1="619.769" y1="129.528" x2="808.844" y2="618.056" gradientUnits="userSpaceOnUse">
<stop stop-color="#480050"/>
<stop offset="0.0415286" stop-color="#41094F"/>
<stop offset="0.1106" stop-color="#30234D"/>
<stop offset="0.1981" stop-color="#134C49"/>
<stop offset="0.2487" stop-color="#006747"/>
<stop offset="0.2691" stop-color="#037054"/>
<stop offset="0.3071" stop-color="#0B8777"/>
<stop offset="0.3583" stop-color="#18AEAF"/>
<stop offset="0.4204" stop-color="#29E2FC"/>
<stop offset="0.4231" stop-color="#2AE4FF"/>
<stop offset="0.6077" stop-color="#8E55BF"/>
<stop offset="0.8077" stop-color="#D46A00"/>
<stop offset="1" stop-color="#DF0010"/>
</linearGradient>
<linearGradient id="paint15_linear" x1="606.765" y1="120.499" x2="818.988" y2="617.569" gradientUnits="userSpaceOnUse">
<stop stop-color="#480050"/>
<stop offset="0.0415286" stop-color="#41094F"/>
<stop offset="0.1106" stop-color="#30234D"/>
<stop offset="0.1981" stop-color="#134C49"/>
<stop offset="0.2487" stop-color="#006747"/>
<stop offset="0.2691" stop-color="#037054"/>
<stop offset="0.3071" stop-color="#0B8777"/>
<stop offset="0.3583" stop-color="#18AEAF"/>
<stop offset="0.4204" stop-color="#29E2FC"/>
<stop offset="0.4231" stop-color="#2AE4FF"/>
<stop offset="0.6077" stop-color="#8E55BF"/>
<stop offset="0.8077" stop-color="#D46A00"/>
<stop offset="1" stop-color="#DF0010"/>
</linearGradient>
<linearGradient id="paint16_linear" x1="592.792" y1="111.789" x2="829.03" y2="617.387" gradientUnits="userSpaceOnUse">
<stop stop-color="#480050"/>
<stop offset="0.0415286" stop-color="#41094F"/>
<stop offset="0.1106" stop-color="#30234D"/>
<stop offset="0.1981" stop-color="#134C49"/>
<stop offset="0.2487" stop-color="#006747"/>
<stop offset="0.2691" stop-color="#037054"/>
<stop offset="0.3071" stop-color="#0B8777"/>
<stop offset="0.3583" stop-color="#18AEAF"/>
<stop offset="0.4204" stop-color="#29E2FC"/>
<stop offset="0.4231" stop-color="#2AE4FF"/>
<stop offset="0.6077" stop-color="#8E55BF"/>
<stop offset="0.8077" stop-color="#D46A00"/>
<stop offset="1" stop-color="#DF0010"/>
</linearGradient>
<linearGradient id="paint17_linear" x1="577.766" y1="103.409" x2="839.077" y2="617.183" gradientUnits="userSpaceOnUse">
<stop stop-color="#480050"/>
<stop offset="0.0415286" stop-color="#41094F"/>
<stop offset="0.1106" stop-color="#30234D"/>
<stop offset="0.1981" stop-color="#134C49"/>
<stop offset="0.2487" stop-color="#006747"/>
<stop offset="0.2691" stop-color="#037054"/>
<stop offset="0.3071" stop-color="#0B8777"/>
<stop offset="0.3583" stop-color="#18AEAF"/>
<stop offset="0.4204" stop-color="#29E2FC"/>
<stop offset="0.4231" stop-color="#2AE4FF"/>
<stop offset="0.6077" stop-color="#8E55BF"/>
<stop offset="0.8077" stop-color="#D46A00"/>
<stop offset="1" stop-color="#DF0010"/>
</linearGradient>
<linearGradient id="paint18_linear" x1="561.662" y1="95.4226" x2="849.035" y2="617.243" gradientUnits="userSpaceOnUse">
<stop stop-color="#480050"/>
<stop offset="0.0415286" stop-color="#41094F"/>
<stop offset="0.1106" stop-color="#30234D"/>
<stop offset="0.1981" stop-color="#134C49"/>
<stop offset="0.2487" stop-color="#006747"/>
<stop offset="0.2691" stop-color="#037054"/>
<stop offset="0.3071" stop-color="#0B8777"/>
<stop offset="0.3583" stop-color="#18AEAF"/>
<stop offset="0.4204" stop-color="#29E2FC"/>
<stop offset="0.4231" stop-color="#2AE4FF"/>
<stop offset="0.6077" stop-color="#8E55BF"/>
<stop offset="0.8077" stop-color="#D46A00"/>
<stop offset="1" stop-color="#DF0010"/>
</linearGradient>
<linearGradient id="paint19_linear" x1="544.406" y1="87.8892" x2="859.015" y2="617.387" gradientUnits="userSpaceOnUse">
<stop stop-color="#480050"/>
<stop offset="0.0415286" stop-color="#41094F"/>
<stop offset="0.1106" stop-color="#30234D"/>
<stop offset="0.1981" stop-color="#134C49"/>
<stop offset="0.2487" stop-color="#006747"/>
<stop offset="0.2691" stop-color="#037054"/>
<stop offset="0.3071" stop-color="#0B8777"/>
<stop offset="0.3583" stop-color="#18AEAF"/>
<stop offset="0.4204" stop-color="#29E2FC"/>
<stop offset="0.4231" stop-color="#2AE4FF"/>
<stop offset="0.6077" stop-color="#8E55BF"/>
<stop offset="0.8077" stop-color="#D46A00"/>
<stop offset="1" stop-color="#DF0010"/>
</linearGradient>
<linearGradient id="paint20_linear" x1="526.043" y1="80.924" x2="869.163" y2="617.975" gradientUnits="userSpaceOnUse">
<stop stop-color="#480050"/>
<stop offset="0.0415286" stop-color="#41094F"/>
<stop offset="0.1106" stop-color="#30234D"/>
<stop offset="0.1981" stop-color="#134C49"/>
<stop offset="0.2487" stop-color="#006747"/>
<stop offset="0.2691" stop-color="#037054"/>
<stop offset="0.3071" stop-color="#0B8777"/>
<stop offset="0.3583" stop-color="#18AEAF"/>
<stop offset="0.4204" stop-color="#29E2FC"/>
<stop offset="0.4231" stop-color="#2AE4FF"/>
<stop offset="0.6077" stop-color="#8E55BF"/>
<stop offset="0.8077" stop-color="#D46A00"/>
<stop offset="1" stop-color="#DF0010"/>
</linearGradient>
<linearGradient id="paint21_linear" x1="506.466" y1="74.4857" x2="879.34" y2="618.666" gradientUnits="userSpaceOnUse">
<stop stop-color="#480050"/>
<stop offset="0.0415286" stop-color="#41094F"/>
<stop offset="0.1106" stop-color="#30234D"/>
<stop offset="0.1981" stop-color="#134C49"/>
<stop offset="0.2487" stop-color="#006747"/>
<stop offset="0.2691" stop-color="#037054"/>
<stop offset="0.3071" stop-color="#0B8777"/>
<stop offset="0.3583" stop-color="#18AEAF"/>
<stop offset="0.4204" stop-color="#29E2FC"/>
<stop offset="0.4231" stop-color="#2AE4FF"/>
<stop offset="0.6077" stop-color="#8E55BF"/>
<stop offset="0.8077" stop-color="#D46A00"/>
<stop offset="1" stop-color="#DF0010"/>
</linearGradient>
<linearGradient id="paint22_linear" x1="485.688" y1="68.7378" x2="889.727" y2="619.848" gradientUnits="userSpaceOnUse">
<stop stop-color="#480050"/>
<stop offset="0.0415286" stop-color="#41094F"/>
<stop offset="0.1106" stop-color="#30234D"/>
<stop offset="0.1981" stop-color="#134C49"/>
<stop offset="0.2487" stop-color="#006747"/>
<stop offset="0.2691" stop-color="#037054"/>
<stop offset="0.3071" stop-color="#0B8777"/>
<stop offset="0.3583" stop-color="#18AEAF"/>
<stop offset="0.4204" stop-color="#29E2FC"/>
<stop offset="0.4231" stop-color="#2AE4FF"/>
<stop offset="0.6077" stop-color="#8E55BF"/>
<stop offset="0.8077" stop-color="#D46A00"/>
<stop offset="1" stop-color="#DF0010"/>
</linearGradient>
<linearGradient id="paint23_linear" x1="463.642" y1="63.6921" x2="900.297" y2="621.322" gradientUnits="userSpaceOnUse">
<stop stop-color="#480050"/>
<stop offset="0.0415286" stop-color="#41094F"/>
<stop offset="0.1106" stop-color="#30234D"/>
<stop offset="0.1981" stop-color="#134C49"/>
<stop offset="0.2487" stop-color="#006747"/>
<stop offset="0.2691" stop-color="#037054"/>
<stop offset="0.3071" stop-color="#0B8777"/>
<stop offset="0.3583" stop-color="#18AEAF"/>
<stop offset="0.4204" stop-color="#29E2FC"/>
<stop offset="0.4231" stop-color="#2AE4FF"/>
<stop offset="0.6077" stop-color="#8E55BF"/>
<stop offset="0.8077" stop-color="#D46A00"/>
<stop offset="1" stop-color="#DF0010"/>
</linearGradient>
<linearGradient id="paint24_linear" x1="440.34" y1="59.4422" x2="911.271" y2="623.097" gradientUnits="userSpaceOnUse">
<stop stop-color="#480050"/>
<stop offset="0.0415286" stop-color="#41094F"/>
<stop offset="0.1106" stop-color="#30234D"/>
<stop offset="0.1981" stop-color="#134C49"/>
<stop offset="0.2487" stop-color="#006747"/>
<stop offset="0.2691" stop-color="#037054"/>
<stop offset="0.3071" stop-color="#0B8777"/>
<stop offset="0.3583" stop-color="#18AEAF"/>
<stop offset="0.4204" stop-color="#29E2FC"/>
<stop offset="0.4231" stop-color="#2AE4FF"/>
<stop offset="0.6077" stop-color="#8E55BF"/>
<stop offset="0.8077" stop-color="#D46A00"/>
<stop offset="1" stop-color="#DF0010"/>
</linearGradient>
<linearGradient id="paint25_linear" x1="415.726" y1="56.0128" x2="922.593" y2="625.083" gradientUnits="userSpaceOnUse">
<stop stop-color="#480050"/>
<stop offset="0.0415286" stop-color="#41094F"/>
<stop offset="0.1106" stop-color="#30234D"/>
<stop offset="0.1981" stop-color="#134C49"/>
<stop offset="0.2487" stop-color="#006747"/>
<stop offset="0.2691" stop-color="#037054"/>
<stop offset="0.3071" stop-color="#0B8777"/>
<stop offset="0.3583" stop-color="#18AEAF"/>
<stop offset="0.4204" stop-color="#29E2FC"/>
<stop offset="0.4231" stop-color="#2AE4FF"/>
<stop offset="0.6077" stop-color="#8E55BF"/>
<stop offset="0.8077" stop-color="#D46A00"/>
<stop offset="1" stop-color="#DF0010"/>
</linearGradient>
<linearGradient id="paint26_linear" x1="389.822" y1="53.5914" x2="934.522" y2="627.651" gradientUnits="userSpaceOnUse">
<stop stop-color="#480050"/>
<stop offset="0.0415286" stop-color="#41094F"/>
<stop offset="0.1106" stop-color="#30234D"/>
<stop offset="0.1981" stop-color="#134C49"/>
<stop offset="0.2487" stop-color="#006747"/>
<stop offset="0.2691" stop-color="#037054"/>
<stop offset="0.3071" stop-color="#0B8777"/>
<stop offset="0.3583" stop-color="#18AEAF"/>
<stop offset="0.4204" stop-color="#29E2FC"/>
<stop offset="0.4231" stop-color="#2AE4FF"/>
<stop offset="0.6077" stop-color="#8E55BF"/>
<stop offset="0.8077" stop-color="#D46A00"/>
<stop offset="1" stop-color="#DF0010"/>
</linearGradient>
<linearGradient id="paint27_linear" x1="362.494" y1="52.1797" x2="946.866" y2="630.443" gradientUnits="userSpaceOnUse">
<stop stop-color="#480050"/>
<stop offset="0.0415286" stop-color="#41094F"/>
<stop offset="0.1106" stop-color="#30234D"/>
<stop offset="0.1981" stop-color="#134C49"/>
<stop offset="0.2487" stop-color="#006747"/>
<stop offset="0.2691" stop-color="#037054"/>
<stop offset="0.3071" stop-color="#0B8777"/>
<stop offset="0.3583" stop-color="#18AEAF"/>
<stop offset="0.4204" stop-color="#29E2FC"/>
<stop offset="0.4231" stop-color="#2AE4FF"/>
<stop offset="0.6077" stop-color="#8E55BF"/>
<stop offset="0.8077" stop-color="#D46A00"/>
<stop offset="1" stop-color="#DF0010"/>
</linearGradient>
<linearGradient id="paint28_linear" x1="333.885" y1="51.8614" x2="960.076" y2="633.578" gradientUnits="userSpaceOnUse">
<stop stop-color="#480050"/>
<stop offset="0.0415286" stop-color="#41094F"/>
<stop offset="0.1106" stop-color="#30234D"/>
<stop offset="0.1981" stop-color="#134C49"/>
<stop offset="0.2487" stop-color="#006747"/>
<stop offset="0.2691" stop-color="#037054"/>
<stop offset="0.3071" stop-color="#0B8777"/>
<stop offset="0.3583" stop-color="#18AEAF"/>
<stop offset="0.4204" stop-color="#29E2FC"/>
<stop offset="0.4231" stop-color="#2AE4FF"/>
<stop offset="0.6077" stop-color="#8E55BF"/>
<stop offset="0.8077" stop-color="#D46A00"/>
<stop offset="1" stop-color="#DF0010"/>
</linearGradient>
<linearGradient id="paint29_linear" x1="303.802" y1="52.7978" x2="973.959" y2="637.003" gradientUnits="userSpaceOnUse">
<stop stop-color="#480050"/>
<stop offset="0.0415286" stop-color="#41094F"/>
<stop offset="0.1106" stop-color="#30234D"/>
<stop offset="0.1981" stop-color="#134C49"/>
<stop offset="0.2487" stop-color="#006747"/>
<stop offset="0.2691" stop-color="#037054"/>
<stop offset="0.3071" stop-color="#0B8777"/>
<stop offset="0.3583" stop-color="#18AEAF"/>
<stop offset="0.4204" stop-color="#29E2FC"/>
<stop offset="0.4231" stop-color="#2AE4FF"/>
<stop offset="0.6077" stop-color="#8E55BF"/>
<stop offset="0.8077" stop-color="#D46A00"/>
<stop offset="1" stop-color="#DF0010"/>
</linearGradient>
<linearGradient id="paint30_linear" x1="272.394" y1="54.9735" x2="988.889" y2="640.589" gradientUnits="userSpaceOnUse">
<stop stop-color="#480050"/>
<stop offset="0.0415286" stop-color="#41094F"/>
<stop offset="0.1106" stop-color="#30234D"/>
<stop offset="0.1981" stop-color="#134C49"/>
<stop offset="0.2487" stop-color="#006747"/>
<stop offset="0.2691" stop-color="#037054"/>
<stop offset="0.3071" stop-color="#0B8777"/>
<stop offset="0.3583" stop-color="#18AEAF"/>
<stop offset="0.4204" stop-color="#29E2FC"/>
<stop offset="0.4231" stop-color="#2AE4FF"/>
<stop offset="0.6077" stop-color="#8E55BF"/>
<stop offset="0.8077" stop-color="#D46A00"/>
<stop offset="1" stop-color="#DF0010"/>
</linearGradient>
<linearGradient id="paint31_linear" x1="239.555" y1="58.6084" x2="1004.86" y2="644.539" gradientUnits="userSpaceOnUse">
<stop stop-color="#480050"/>
<stop offset="0.0415286" stop-color="#41094F"/>
<stop offset="0.1106" stop-color="#30234D"/>
<stop offset="0.1981" stop-color="#134C49"/>
<stop offset="0.2487" stop-color="#006747"/>
<stop offset="0.2691" stop-color="#037054"/>
<stop offset="0.3071" stop-color="#0B8777"/>
<stop offset="0.3583" stop-color="#18AEAF"/>
<stop offset="0.4204" stop-color="#29E2FC"/>
<stop offset="0.4231" stop-color="#2AE4FF"/>
<stop offset="0.6077" stop-color="#8E55BF"/>
<stop offset="0.8077" stop-color="#D46A00"/>
<stop offset="1" stop-color="#DF0010"/>
</linearGradient>
<linearGradient id="paint32_linear" x1="205.289" y1="63.6896" x2="1022.02" y2="648.28" gradientUnits="userSpaceOnUse">
<stop stop-color="#480050"/>
<stop offset="0.0415286" stop-color="#41094F"/>
<stop offset="0.1106" stop-color="#30234D"/>
<stop offset="0.1981" stop-color="#134C49"/>
<stop offset="0.2487" stop-color="#006747"/>
<stop offset="0.2691" stop-color="#037054"/>
<stop offset="0.3071" stop-color="#0B8777"/>
<stop offset="0.3583" stop-color="#18AEAF"/>
<stop offset="0.4204" stop-color="#29E2FC"/>
<stop offset="0.4231" stop-color="#2AE4FF"/>
<stop offset="0.6077" stop-color="#8E55BF"/>
<stop offset="0.8077" stop-color="#D46A00"/>
<stop offset="1" stop-color="#DF0010"/>
</linearGradient>
<linearGradient id="paint33_linear" x1="169.586" y1="70.3511" x2="1040.37" y2="652.163" gradientUnits="userSpaceOnUse">
<stop stop-color="#480050"/>
<stop offset="0.0415286" stop-color="#41094F"/>
<stop offset="0.1106" stop-color="#30234D"/>
<stop offset="0.1981" stop-color="#134C49"/>
<stop offset="0.2487" stop-color="#006747"/>
<stop offset="0.2691" stop-color="#037054"/>
<stop offset="0.3071" stop-color="#0B8777"/>
<stop offset="0.3583" stop-color="#18AEAF"/>
<stop offset="0.4204" stop-color="#29E2FC"/>
<stop offset="0.4231" stop-color="#2AE4FF"/>
<stop offset="0.6077" stop-color="#8E55BF"/>
<stop offset="0.8077" stop-color="#D46A00"/>
<stop offset="1" stop-color="#DF0010"/>
</linearGradient>
<linearGradient id="paint34_linear" x1="132.451" y1="78.7398" x2="1060.21" y2="655.814" gradientUnits="userSpaceOnUse">
<stop stop-color="#480050"/>
<stop offset="0.0415286" stop-color="#41094F"/>
<stop offset="0.1106" stop-color="#30234D"/>
<stop offset="0.1981" stop-color="#134C49"/>
<stop offset="0.2487" stop-color="#006747"/>
<stop offset="0.2691" stop-color="#037054"/>
<stop offset="0.3071" stop-color="#0B8777"/>
<stop offset="0.3583" stop-color="#18AEAF"/>
<stop offset="0.4204" stop-color="#29E2FC"/>
<stop offset="0.4231" stop-color="#2AE4FF"/>
<stop offset="0.6077" stop-color="#8E55BF"/>
<stop offset="0.8077" stop-color="#D46A00"/>
<stop offset="1" stop-color="#DF0010"/>
</linearGradient>
<linearGradient id="paint35_linear" x1="93.9094" y1="88.9147" x2="1081.64" y2="659.18" gradientUnits="userSpaceOnUse">
<stop stop-color="#480050"/>
<stop offset="0.0415286" stop-color="#41094F"/>
<stop offset="0.1106" stop-color="#30234D"/>
<stop offset="0.1981" stop-color="#134C49"/>
<stop offset="0.2487" stop-color="#006747"/>
<stop offset="0.2691" stop-color="#037054"/>
<stop offset="0.3071" stop-color="#0B8777"/>
<stop offset="0.3583" stop-color="#18AEAF"/>
<stop offset="0.4204" stop-color="#29E2FC"/>
<stop offset="0.4231" stop-color="#2AE4FF"/>
<stop offset="0.6077" stop-color="#8E55BF"/>
<stop offset="0.8077" stop-color="#D46A00"/>
<stop offset="1" stop-color="#DF0010"/>
</linearGradient>
</defs>
</svg>
