<svg preserveAspectRatio="none" width="304" height="117" viewBox="0 0 304 117" fill="none" xmlns="http://www.w3.org/2000/svg">
<path d="M20.6667 105.669L0.666656 100.336V109.669L20.6667 116.336V105.669Z" fill="url(#paint0_linear)"/>
<path d="M63.3333 85.6693L20.6667 105.669V116.336L63.3333 96.3359V85.6693Z" fill="url(#paint1_linear)"/>
<path d="M92.6667 95.0024L63.3333 85.6691V96.3358L92.6667 107.002V95.0024Z" fill="url(#paint2_linear)"/>
<path d="M303.333 4.33578L142 95.0024V107.002L303.333 15.0024V4.33578Z" fill="url(#paint3_linear)"/>
<path d="M142 95.0024H92.6667V107.002H142V95.0024Z" fill="url(#paint4_linear)"/>
<path d="M0.666656 100.336L74 41.6694L142 11.0028H191.333L259.333 0.336107L303.333 4.33611L142 95.0028H92.6667L63.3333 85.6694L20.6667 105.669L0.666656 100.336Z" fill="url(#paint5_linear)"/>
<defs>
<linearGradient id="paint0_linear" x1="0.666656" y1="108.336" x2="20.6667" y2="108.336" gradientUnits="userSpaceOnUse">
<stop stop-color="#FF9EBD"/>
<stop offset="0.0656476" stop-color="#FF9EBD"/>
<stop offset="1" stop-color="#6EC5C5"/>
</linearGradient>
<linearGradient id="paint1_linear" x1="20.6667" y1="101.002" x2="63.3333" y2="101.002" gradientUnits="userSpaceOnUse">
<stop stop-color="#FF9EBD"/>
<stop offset="0.206704" stop-color="#FF9EBD"/>
<stop offset="0.627272" stop-color="#FF9EBD"/>
<stop offset="0.944134" stop-color="#6EC5C5"/>
<stop offset="0.960915" stop-color="#6EC5C5"/>
<stop offset="1" stop-color="#6EC5C5"/>
</linearGradient>
<linearGradient id="paint2_linear" x1="63.3333" y1="96.3354" x2="92.6667" y2="96.3354" gradientUnits="userSpaceOnUse">
<stop stop-color="#FF9EBD"/>
<stop offset="0.437529" stop-color="#FF9EBD"/>
<stop offset="1" stop-color="#6EC5C5"/>
</linearGradient>
<linearGradient id="paint3_linear" x1="142" y1="55.6687" x2="303.333" y2="55.6687" gradientUnits="userSpaceOnUse">
<stop stop-color="#6EC5C5"/>
<stop offset="0.0957918" stop-color="#6EC5C5"/>
<stop offset="1" stop-color="#FF9EBD"/>
</linearGradient>
<linearGradient id="paint4_linear" x1="92.6667" y1="101.002" x2="142" y2="101.002" gradientUnits="userSpaceOnUse">
<stop stop-color="#FF9EBD"/>
<stop offset="0.206704" stop-color="#FF9EBD"/>
<stop offset="0.627272" stop-color="#FF9EBD"/>
<stop offset="0.944134" stop-color="#6EC5C5"/>
<stop offset="0.960915" stop-color="#6EC5C5"/>
<stop offset="1" stop-color="#6EC5C5"/>
</linearGradient>
<linearGradient id="paint5_linear" x1="0.666656" y1="53.0024" x2="303.333" y2="53.0024" gradientUnits="userSpaceOnUse">
<stop stop-color="#6EC5C5"/>
<stop offset="0.0165563" stop-color="#6EC5C5"/>
<stop offset="0.310056" stop-color="#FFCEB1"/>
<stop offset="0.451233" stop-color="#FFCEB1"/>
<stop offset="0.648045" stop-color="#FF9EBD"/>
<stop offset="1" stop-color="#6EC5C5"/>
</linearGradient>
</defs>
</svg>
