<svg preserveAspectRatio="none" width="298" height="135" viewBox="0 0 298 135" fill="none" xmlns="http://www.w3.org/2000/svg">
<path d="M7.99997 50.0028L-3.05176e-05 10.0028V24.6694L7.99997 64.6694V50.0028Z" fill="url(#paint0_linear)"/>
<path d="M172 134.002V119.336L49.3333 94.0024V108.669L172 134.002Z" fill="url(#paint1_linear)"/>
<path d="M49.3333 94.0028L7.99997 50.0028V64.6694L49.3333 108.669V94.0028Z" fill="url(#paint2_linear)"/>
<path d="M297.333 91.3358L172 119.336V134.002L297.333 104.669V91.3358Z" fill="url(#paint3_linear)"/>
<path d="M-3.05176e-05 10.0026L7.99997 50.0026L49.3333 94.0026L172 119.336L297.333 91.3359L202.667 35.3359L137.333 36.6693L34.6666 0.669278L-3.05176e-05 10.0026Z" fill="url(#paint4_linear)"/>
<defs>
<linearGradient id="paint0_linear" x1="-3.05176e-05" y1="37.3357" x2="7.99997" y2="37.3357" gradientUnits="userSpaceOnUse">
<stop stop-color="#FF9EBD"/>
<stop offset="0.206704" stop-color="#FF9EBD"/>
<stop offset="0.326816" stop-color="#FFA0C0"/>
<stop offset="0.467095" stop-color="#FFA0C0"/>
<stop offset="0.905028" stop-color="#6EC5C5"/>
<stop offset="0.933555" stop-color="#6EC5C5"/>
<stop offset="1" stop-color="#6EC5C5"/>
</linearGradient>
<linearGradient id="paint1_linear" x1="49.3333" y1="114.002" x2="172" y2="114.002" gradientUnits="userSpaceOnUse">
<stop stop-color="#FF9EBD"/>
<stop offset="0.206704" stop-color="#FF9EBD"/>
<stop offset="0.500819" stop-color="#6EC5C5"/>
<stop offset="0.709497" stop-color="#6EC5C5"/>
<stop offset="0.796756" stop-color="#6EC5C5"/>
<stop offset="1" stop-color="#6EC5C5"/>
</linearGradient>
<linearGradient id="paint2_linear" x1="7.99997" y1="79.3357" x2="49.3333" y2="79.3357" gradientUnits="userSpaceOnUse">
<stop stop-color="#FF9EBD"/>
<stop offset="0.0670391" stop-color="#FF9EBD"/>
<stop offset="0.148045" stop-color="#FFA0C0"/>
<stop offset="0.206257" stop-color="#FFA0C0"/>
<stop offset="0.687151" stop-color="#6EC5C5"/>
<stop offset="0.781122" stop-color="#6EC5C5"/>
<stop offset="1" stop-color="#6EC5C5"/>
</linearGradient>
<linearGradient id="paint3_linear" x1="172" y1="112.669" x2="297.333" y2="112.669" gradientUnits="userSpaceOnUse">
<stop stop-color="#FF9EBD"/>
<stop offset="0.206704" stop-color="#FF9EBD"/>
<stop offset="0.326816" stop-color="#FFA0C0"/>
<stop offset="0.467095" stop-color="#FFA0C0"/>
<stop offset="0.905028" stop-color="#6EC5C5"/>
<stop offset="0.933555" stop-color="#6EC5C5"/>
<stop offset="1" stop-color="#6EC5C5"/>
</linearGradient>
<linearGradient id="paint4_linear" x1="-3.05176e-05" y1="60.0022" x2="297.333" y2="60.0022" gradientUnits="userSpaceOnUse">
<stop stop-color="#6EC5C5"/>
<stop offset="0.0981665" stop-color="#FFCEB1"/>
<stop offset="0.326816" stop-color="#FFCEB1"/>
<stop offset="0.544464" stop-color="#FFCEB1"/>
<stop offset="0.821229" stop-color="#FF9EBD"/>
<stop offset="1" stop-color="#FF9EBD"/>
</linearGradient>
</defs>
</svg>
